G04 STRUTHIO-CP1 A1.5 Edge_Cuts*
%FSLAX46Y46*%
%MOMM*%
%LPD*%
G01*
%ADD10C,0.100000*%
G04 board outline, speaker window, post notches*
D10*
X34618500Y-67070200D02*
X33936700Y-67100000D01*
X-33936700Y-67100000D01*
X-34618500Y-67070200D01*
X-35232300Y-66989400D01*
X-35837000Y-66855400D01*
X-36427300Y-66669300D01*
X-36999500Y-66432200D01*
X-37276700Y-66287900D01*
X-37000000Y-66300000D01*
X-36712400Y-66287400D01*
X-36427000Y-66249900D01*
X-36145900Y-66187500D01*
X-35871300Y-66101000D01*
X-35605300Y-65990800D01*
X-35350000Y-65857900D01*
X-35107200Y-65703200D01*
X-34878800Y-65527900D01*
X-34666500Y-65333500D01*
X-34472000Y-65121200D01*
X-34296800Y-64892800D01*
X-34142100Y-64650000D01*
X-34009200Y-64394600D01*
X-33899000Y-64128700D01*
X-33812400Y-63854100D01*
X-33750100Y-63573000D01*
X-33712600Y-63287600D01*
X-33700000Y-63000000D01*
X-33712600Y-62712400D01*
X-33750100Y-62427000D01*
X-33812400Y-62145900D01*
X-33899000Y-61871300D01*
X-34009200Y-61605300D01*
X-34142100Y-61350000D01*
X-34296800Y-61107200D01*
X-34472000Y-60878800D01*
X-34666500Y-60666500D01*
X-34878800Y-60472000D01*
X-35107200Y-60296800D01*
X-35350000Y-60142100D01*
X-35605300Y-60009200D01*
X-35871300Y-59899000D01*
X-36145900Y-59812400D01*
X-36427000Y-59750100D01*
X-36712400Y-59712600D01*
X-37000000Y-59700000D01*
X-37287600Y-59712600D01*
X-37573000Y-59750100D01*
X-37854100Y-59812400D01*
X-38128700Y-59899000D01*
X-38394600Y-60009200D01*
X-38650000Y-60142100D01*
X-38892800Y-60296800D01*
X-39121200Y-60472000D01*
X-39333500Y-60666500D01*
X-39527900Y-60878800D01*
X-39703200Y-61107200D01*
X-39857900Y-61350000D01*
X-39990800Y-61605300D01*
X-40101000Y-61871300D01*
X-40187500Y-62145900D01*
X-40249900Y-62427000D01*
X-40287400Y-62712400D01*
X-40300000Y-63000000D01*
X-40287900Y-63276700D01*
X-40432200Y-62999500D01*
X-40669300Y-62427300D01*
X-40855400Y-61837000D01*
X-40989400Y-61232300D01*
X-41070200Y-60618500D01*
X-41097200Y-60000000D01*
X-41066200Y-59288800D01*
X-40080300Y-44575000D01*
X-39053900Y-33300000D01*
X39053900Y-33300000D01*
X40080300Y-44575000D01*
X41066200Y-59288800D01*
X41097200Y-60000000D01*
X41070200Y-60618500D01*
X40989400Y-61232300D01*
X40855400Y-61837000D01*
X40669300Y-62427300D01*
X40432200Y-62999500D01*
X40287900Y-63276700D01*
X40300000Y-63000000D01*
X40287400Y-62712400D01*
X40249900Y-62427000D01*
X40187500Y-62145900D01*
X40101000Y-61871300D01*
X39990800Y-61605300D01*
X39857900Y-61350000D01*
X39703200Y-61107200D01*
X39527900Y-60878800D01*
X39333500Y-60666500D01*
X39121200Y-60472000D01*
X38892800Y-60296800D01*
X38650000Y-60142100D01*
X38394600Y-60009200D01*
X38128700Y-59899000D01*
X37854100Y-59812400D01*
X37573000Y-59750100D01*
X37287600Y-59712600D01*
X37000000Y-59700000D01*
X36712400Y-59712600D01*
X36427000Y-59750100D01*
X36145900Y-59812400D01*
X35871300Y-59899000D01*
X35605300Y-60009200D01*
X35350000Y-60142100D01*
X35107200Y-60296800D01*
X34878800Y-60472000D01*
X34666500Y-60666500D01*
X34472000Y-60878800D01*
X34296800Y-61107200D01*
X34142100Y-61350000D01*
X34009200Y-61605300D01*
X33899000Y-61871300D01*
X33812400Y-62145900D01*
X33750100Y-62427000D01*
X33712600Y-62712400D01*
X33700000Y-63000000D01*
X33712600Y-63287600D01*
X33750100Y-63573000D01*
X33812400Y-63854100D01*
X33899000Y-64128700D01*
X34009200Y-64394600D01*
X34142100Y-64650000D01*
X34296800Y-64892800D01*
X34472000Y-65121200D01*
X34666500Y-65333500D01*
X34878800Y-65527900D01*
X35107200Y-65703200D01*
X35350000Y-65857900D01*
X35605300Y-65990800D01*
X35871300Y-66101000D01*
X36145900Y-66187500D01*
X36427000Y-66249900D01*
X36712400Y-66287400D01*
X37000000Y-66300000D01*
X37276700Y-66287900D01*
X36999500Y-66432200D01*
X36427300Y-66669300D01*
X35837000Y-66855400D01*
X35232300Y-66989400D01*
X34618500Y-67070200D01*
X-566498Y-53475300D02*
X-1128710Y-53401200D01*
X-1682310Y-53278500D01*
X-2223130Y-53108000D01*
X-2747010Y-52891000D01*
X-3250000Y-52629200D01*
X-3728240Y-52324500D01*
X-4178120Y-51979300D01*
X-4596190Y-51596200D01*
X-4979280Y-51178100D01*
X-5324480Y-50728200D01*
X-5629150Y-50250000D01*
X-5890990Y-49747000D01*
X-6108000Y-49223100D01*
X-6278500Y-48682300D01*
X-6401250Y-48128700D01*
X-6475270Y-47566500D01*
X-6500000Y-47000000D01*
X-6475270Y-46433500D01*
X-6401250Y-45871300D01*
X-6278500Y-45317700D01*
X-6108000Y-44776900D01*
X-5890990Y-44253000D01*
X-5629150Y-43750000D01*
X-5324480Y-43271700D01*
X-4979280Y-42821900D01*
X-4596190Y-42403800D01*
X-4178120Y-42020700D01*
X-3728240Y-41675500D01*
X-3250000Y-41370800D01*
X-2747010Y-41109000D01*
X-2223130Y-40892000D01*
X-1682310Y-40721500D01*
X-1128710Y-40598700D01*
X-566498Y-40524700D01*
X0Y-40500000D01*
X566498Y-40524700D01*
X1128710Y-40598700D01*
X1682310Y-40721500D01*
X2223130Y-40892000D01*
X2747010Y-41109000D01*
X3250000Y-41370800D01*
X3728240Y-41675500D01*
X4178120Y-42020700D01*
X4596190Y-42403800D01*
X4979280Y-42821900D01*
X5324480Y-43271700D01*
X5629150Y-43750000D01*
X5890990Y-44253000D01*
X6108000Y-44776900D01*
X6278500Y-45317700D01*
X6401250Y-45871300D01*
X6475270Y-46433500D01*
X6500000Y-47000000D01*
X6475270Y-47566500D01*
X6401250Y-48128700D01*
X6278500Y-48682300D01*
X6108000Y-49223100D01*
X5890990Y-49747000D01*
X5629150Y-50250000D01*
X5324480Y-50728200D01*
X4979280Y-51178100D01*
X4596190Y-51596200D01*
X4178120Y-51979300D01*
X3728240Y-52324500D01*
X3250000Y-52629200D01*
X2747010Y-52891000D01*
X2223130Y-53108000D01*
X1682310Y-53278500D01*
X1128710Y-53401200D01*
X566498Y-53475300D01*
X0Y-53500000D01*
X-566498Y-53475300D01*
M02*
