G04 STRUTHIO-CP1 A1.5 B_Mask*
%FSLAX46Y46*%
%MOMM*%
%LPD*%
G01*
%ADD10C,0.100000*%
G04 openings: wire pads*
%LPD*%
G36*
X-21004815Y-36298017D02*
X-21010823Y-36346730D01*
X-21019215Y-36395090D01*
X-21029969Y-36442980D01*
X-21043060Y-36490285D01*
X-21058456Y-36536890D01*
X-21076120Y-36582683D01*
X-21096011Y-36627555D01*
X-21118079Y-36671397D01*
X-21142271Y-36714103D01*
X-21168530Y-36755570D01*
X-21196792Y-36795699D01*
X-21226990Y-36834393D01*
X-21259049Y-36871559D01*
X-21292893Y-36907107D01*
X-21328441Y-36940951D01*
X-21365607Y-36973010D01*
X-21404301Y-37003208D01*
X-21444430Y-37031470D01*
X-21485897Y-37057729D01*
X-21528603Y-37081921D01*
X-21572445Y-37103989D01*
X-21617317Y-37123880D01*
X-21663110Y-37141544D01*
X-21709715Y-37156940D01*
X-21757020Y-37170031D01*
X-21804910Y-37180785D01*
X-21853270Y-37189177D01*
X-21901983Y-37195185D01*
X-21950932Y-37198795D01*
X-22000000Y-37200000D01*
X-22049068Y-37198795D01*
X-22098017Y-37195185D01*
X-22146730Y-37189177D01*
X-22195090Y-37180785D01*
X-22242980Y-37170031D01*
X-22290285Y-37156940D01*
X-22336890Y-37141544D01*
X-22382683Y-37123880D01*
X-22427555Y-37103989D01*
X-22471397Y-37081921D01*
X-22514103Y-37057729D01*
X-22555570Y-37031470D01*
X-22595699Y-37003208D01*
X-22634393Y-36973010D01*
X-22671559Y-36940951D01*
X-22707107Y-36907107D01*
X-22740951Y-36871559D01*
X-22773010Y-36834393D01*
X-22803208Y-36795699D01*
X-22831470Y-36755570D01*
X-22857729Y-36714103D01*
X-22881921Y-36671397D01*
X-22903989Y-36627555D01*
X-22923880Y-36582683D01*
X-22941544Y-36536890D01*
X-22956940Y-36490285D01*
X-22970031Y-36442980D01*
X-22980785Y-36395090D01*
X-22989177Y-36346730D01*
X-22995185Y-36298017D01*
X-22998795Y-36249068D01*
X-23000000Y-36200000D01*
X-22998795Y-36150932D01*
X-22995185Y-36101983D01*
X-22989177Y-36053270D01*
X-22980785Y-36004910D01*
X-22970031Y-35957020D01*
X-22956940Y-35909715D01*
X-22941544Y-35863110D01*
X-22923880Y-35817317D01*
X-22903989Y-35772445D01*
X-22881921Y-35728603D01*
X-22857729Y-35685897D01*
X-22831470Y-35644430D01*
X-22803208Y-35604301D01*
X-22773010Y-35565607D01*
X-22740951Y-35528441D01*
X-22707107Y-35492893D01*
X-22671559Y-35459049D01*
X-22634393Y-35426990D01*
X-22595699Y-35396792D01*
X-22555570Y-35368530D01*
X-22514103Y-35342271D01*
X-22471397Y-35318079D01*
X-22427555Y-35296011D01*
X-22382683Y-35276120D01*
X-22336890Y-35258456D01*
X-22290285Y-35243060D01*
X-22242980Y-35229969D01*
X-22195090Y-35219215D01*
X-22146730Y-35210823D01*
X-22098017Y-35204815D01*
X-22049068Y-35201205D01*
X-22000000Y-35200000D01*
X-21950932Y-35201205D01*
X-21901983Y-35204815D01*
X-21853270Y-35210823D01*
X-21804910Y-35219215D01*
X-21757020Y-35229969D01*
X-21709715Y-35243060D01*
X-21663110Y-35258456D01*
X-21617317Y-35276120D01*
X-21572445Y-35296011D01*
X-21528603Y-35318079D01*
X-21485897Y-35342271D01*
X-21444430Y-35368530D01*
X-21404301Y-35396792D01*
X-21365607Y-35426990D01*
X-21328441Y-35459049D01*
X-21292893Y-35492893D01*
X-21259049Y-35528441D01*
X-21226990Y-35565607D01*
X-21196792Y-35604301D01*
X-21168530Y-35644430D01*
X-21142271Y-35685897D01*
X-21118079Y-35728603D01*
X-21096011Y-35772445D01*
X-21076120Y-35817317D01*
X-21058456Y-35863110D01*
X-21043060Y-35909715D01*
X-21029969Y-35957020D01*
X-21019215Y-36004910D01*
X-21010823Y-36053270D01*
X-21004815Y-36101983D01*
X-21001205Y-36150932D01*
X-21000000Y-36200000D01*
X-21001205Y-36249068D01*
X-21004815Y-36298017D01*
G37*
%LPD*%
G36*
X-18464815Y-36298017D02*
X-18470823Y-36346730D01*
X-18479215Y-36395090D01*
X-18489969Y-36442980D01*
X-18503060Y-36490285D01*
X-18518456Y-36536890D01*
X-18536120Y-36582683D01*
X-18556011Y-36627555D01*
X-18578079Y-36671397D01*
X-18602271Y-36714103D01*
X-18628530Y-36755570D01*
X-18656792Y-36795699D01*
X-18686990Y-36834393D01*
X-18719049Y-36871559D01*
X-18752893Y-36907107D01*
X-18788441Y-36940951D01*
X-18825607Y-36973010D01*
X-18864301Y-37003208D01*
X-18904430Y-37031470D01*
X-18945897Y-37057729D01*
X-18988603Y-37081921D01*
X-19032445Y-37103989D01*
X-19077317Y-37123880D01*
X-19123110Y-37141544D01*
X-19169715Y-37156940D01*
X-19217020Y-37170031D01*
X-19264910Y-37180785D01*
X-19313270Y-37189177D01*
X-19361983Y-37195185D01*
X-19410932Y-37198795D01*
X-19460000Y-37200000D01*
X-19509068Y-37198795D01*
X-19558017Y-37195185D01*
X-19606730Y-37189177D01*
X-19655090Y-37180785D01*
X-19702980Y-37170031D01*
X-19750285Y-37156940D01*
X-19796890Y-37141544D01*
X-19842683Y-37123880D01*
X-19887555Y-37103989D01*
X-19931397Y-37081921D01*
X-19974103Y-37057729D01*
X-20015570Y-37031470D01*
X-20055699Y-37003208D01*
X-20094393Y-36973010D01*
X-20131559Y-36940951D01*
X-20167107Y-36907107D01*
X-20200951Y-36871559D01*
X-20233010Y-36834393D01*
X-20263208Y-36795699D01*
X-20291470Y-36755570D01*
X-20317729Y-36714103D01*
X-20341921Y-36671397D01*
X-20363989Y-36627555D01*
X-20383880Y-36582683D01*
X-20401544Y-36536890D01*
X-20416940Y-36490285D01*
X-20430031Y-36442980D01*
X-20440785Y-36395090D01*
X-20449177Y-36346730D01*
X-20455185Y-36298017D01*
X-20458795Y-36249068D01*
X-20460000Y-36200000D01*
X-20458795Y-36150932D01*
X-20455185Y-36101983D01*
X-20449177Y-36053270D01*
X-20440785Y-36004910D01*
X-20430031Y-35957020D01*
X-20416940Y-35909715D01*
X-20401544Y-35863110D01*
X-20383880Y-35817317D01*
X-20363989Y-35772445D01*
X-20341921Y-35728603D01*
X-20317729Y-35685897D01*
X-20291470Y-35644430D01*
X-20263208Y-35604301D01*
X-20233010Y-35565607D01*
X-20200951Y-35528441D01*
X-20167107Y-35492893D01*
X-20131559Y-35459049D01*
X-20094393Y-35426990D01*
X-20055699Y-35396792D01*
X-20015570Y-35368530D01*
X-19974103Y-35342271D01*
X-19931397Y-35318079D01*
X-19887555Y-35296011D01*
X-19842683Y-35276120D01*
X-19796890Y-35258456D01*
X-19750285Y-35243060D01*
X-19702980Y-35229969D01*
X-19655090Y-35219215D01*
X-19606730Y-35210823D01*
X-19558017Y-35204815D01*
X-19509068Y-35201205D01*
X-19460000Y-35200000D01*
X-19410932Y-35201205D01*
X-19361983Y-35204815D01*
X-19313270Y-35210823D01*
X-19264910Y-35219215D01*
X-19217020Y-35229969D01*
X-19169715Y-35243060D01*
X-19123110Y-35258456D01*
X-19077317Y-35276120D01*
X-19032445Y-35296011D01*
X-18988603Y-35318079D01*
X-18945897Y-35342271D01*
X-18904430Y-35368530D01*
X-18864301Y-35396792D01*
X-18825607Y-35426990D01*
X-18788441Y-35459049D01*
X-18752893Y-35492893D01*
X-18719049Y-35528441D01*
X-18686990Y-35565607D01*
X-18656792Y-35604301D01*
X-18628530Y-35644430D01*
X-18602271Y-35685897D01*
X-18578079Y-35728603D01*
X-18556011Y-35772445D01*
X-18536120Y-35817317D01*
X-18518456Y-35863110D01*
X-18503060Y-35909715D01*
X-18489969Y-35957020D01*
X-18479215Y-36004910D01*
X-18470823Y-36053270D01*
X-18464815Y-36101983D01*
X-18461205Y-36150932D01*
X-18460000Y-36200000D01*
X-18461205Y-36249068D01*
X-18464815Y-36298017D01*
G37*
%LPD*%
G36*
X-15924815Y-36298017D02*
X-15930823Y-36346730D01*
X-15939215Y-36395090D01*
X-15949969Y-36442980D01*
X-15963060Y-36490285D01*
X-15978456Y-36536890D01*
X-15996120Y-36582683D01*
X-16016011Y-36627555D01*
X-16038079Y-36671397D01*
X-16062271Y-36714103D01*
X-16088530Y-36755570D01*
X-16116792Y-36795699D01*
X-16146990Y-36834393D01*
X-16179049Y-36871559D01*
X-16212893Y-36907107D01*
X-16248441Y-36940951D01*
X-16285607Y-36973010D01*
X-16324301Y-37003208D01*
X-16364430Y-37031470D01*
X-16405897Y-37057729D01*
X-16448603Y-37081921D01*
X-16492445Y-37103989D01*
X-16537317Y-37123880D01*
X-16583110Y-37141544D01*
X-16629715Y-37156940D01*
X-16677020Y-37170031D01*
X-16724910Y-37180785D01*
X-16773270Y-37189177D01*
X-16821983Y-37195185D01*
X-16870932Y-37198795D01*
X-16920000Y-37200000D01*
X-16969068Y-37198795D01*
X-17018017Y-37195185D01*
X-17066730Y-37189177D01*
X-17115090Y-37180785D01*
X-17162980Y-37170031D01*
X-17210285Y-37156940D01*
X-17256890Y-37141544D01*
X-17302683Y-37123880D01*
X-17347555Y-37103989D01*
X-17391397Y-37081921D01*
X-17434103Y-37057729D01*
X-17475570Y-37031470D01*
X-17515699Y-37003208D01*
X-17554393Y-36973010D01*
X-17591559Y-36940951D01*
X-17627107Y-36907107D01*
X-17660951Y-36871559D01*
X-17693010Y-36834393D01*
X-17723208Y-36795699D01*
X-17751470Y-36755570D01*
X-17777729Y-36714103D01*
X-17801921Y-36671397D01*
X-17823989Y-36627555D01*
X-17843880Y-36582683D01*
X-17861544Y-36536890D01*
X-17876940Y-36490285D01*
X-17890031Y-36442980D01*
X-17900785Y-36395090D01*
X-17909177Y-36346730D01*
X-17915185Y-36298017D01*
X-17918795Y-36249068D01*
X-17920000Y-36200000D01*
X-17918795Y-36150932D01*
X-17915185Y-36101983D01*
X-17909177Y-36053270D01*
X-17900785Y-36004910D01*
X-17890031Y-35957020D01*
X-17876940Y-35909715D01*
X-17861544Y-35863110D01*
X-17843880Y-35817317D01*
X-17823989Y-35772445D01*
X-17801921Y-35728603D01*
X-17777729Y-35685897D01*
X-17751470Y-35644430D01*
X-17723208Y-35604301D01*
X-17693010Y-35565607D01*
X-17660951Y-35528441D01*
X-17627107Y-35492893D01*
X-17591559Y-35459049D01*
X-17554393Y-35426990D01*
X-17515699Y-35396792D01*
X-17475570Y-35368530D01*
X-17434103Y-35342271D01*
X-17391397Y-35318079D01*
X-17347555Y-35296011D01*
X-17302683Y-35276120D01*
X-17256890Y-35258456D01*
X-17210285Y-35243060D01*
X-17162980Y-35229969D01*
X-17115090Y-35219215D01*
X-17066730Y-35210823D01*
X-17018017Y-35204815D01*
X-16969068Y-35201205D01*
X-16920000Y-35200000D01*
X-16870932Y-35201205D01*
X-16821983Y-35204815D01*
X-16773270Y-35210823D01*
X-16724910Y-35219215D01*
X-16677020Y-35229969D01*
X-16629715Y-35243060D01*
X-16583110Y-35258456D01*
X-16537317Y-35276120D01*
X-16492445Y-35296011D01*
X-16448603Y-35318079D01*
X-16405897Y-35342271D01*
X-16364430Y-35368530D01*
X-16324301Y-35396792D01*
X-16285607Y-35426990D01*
X-16248441Y-35459049D01*
X-16212893Y-35492893D01*
X-16179049Y-35528441D01*
X-16146990Y-35565607D01*
X-16116792Y-35604301D01*
X-16088530Y-35644430D01*
X-16062271Y-35685897D01*
X-16038079Y-35728603D01*
X-16016011Y-35772445D01*
X-15996120Y-35817317D01*
X-15978456Y-35863110D01*
X-15963060Y-35909715D01*
X-15949969Y-35957020D01*
X-15939215Y-36004910D01*
X-15930823Y-36053270D01*
X-15924815Y-36101983D01*
X-15921205Y-36150932D01*
X-15920000Y-36200000D01*
X-15921205Y-36249068D01*
X-15924815Y-36298017D01*
G37*
%LPD*%
G36*
X-13390823Y-36346730D02*
X-13399215Y-36395090D01*
X-13409969Y-36442980D01*
X-13423060Y-36490285D01*
X-13438456Y-36536890D01*
X-13456120Y-36582683D01*
X-13476011Y-36627555D01*
X-13498079Y-36671397D01*
X-13522271Y-36714103D01*
X-13548530Y-36755570D01*
X-13576792Y-36795699D01*
X-13606990Y-36834393D01*
X-13639049Y-36871559D01*
X-13672893Y-36907107D01*
X-13708441Y-36940951D01*
X-13745607Y-36973010D01*
X-13784301Y-37003208D01*
X-13824430Y-37031470D01*
X-13865897Y-37057729D01*
X-13908603Y-37081921D01*
X-13952445Y-37103989D01*
X-13997317Y-37123880D01*
X-14043110Y-37141544D01*
X-14089715Y-37156940D01*
X-14137020Y-37170031D01*
X-14184910Y-37180785D01*
X-14233270Y-37189177D01*
X-14281983Y-37195185D01*
X-14330932Y-37198795D01*
X-14380000Y-37200000D01*
X-14429068Y-37198795D01*
X-14478017Y-37195185D01*
X-14526730Y-37189177D01*
X-14575090Y-37180785D01*
X-14622980Y-37170031D01*
X-14670285Y-37156940D01*
X-14716890Y-37141544D01*
X-14762683Y-37123880D01*
X-14807555Y-37103989D01*
X-14851397Y-37081921D01*
X-14894103Y-37057729D01*
X-14935570Y-37031470D01*
X-14975699Y-37003208D01*
X-15014393Y-36973010D01*
X-15051559Y-36940951D01*
X-15087107Y-36907107D01*
X-15120951Y-36871559D01*
X-15153010Y-36834393D01*
X-15183208Y-36795699D01*
X-15211470Y-36755570D01*
X-15237729Y-36714103D01*
X-15261921Y-36671397D01*
X-15283989Y-36627555D01*
X-15303880Y-36582683D01*
X-15321544Y-36536890D01*
X-15336940Y-36490285D01*
X-15350031Y-36442980D01*
X-15360785Y-36395090D01*
X-15369177Y-36346730D01*
X-15375185Y-36298017D01*
X-15378795Y-36249068D01*
X-15380000Y-36200000D01*
X-15378795Y-36150932D01*
X-15375185Y-36101983D01*
X-15369177Y-36053270D01*
X-15360785Y-36004910D01*
X-15350031Y-35957020D01*
X-15336940Y-35909715D01*
X-15321544Y-35863110D01*
X-15303880Y-35817317D01*
X-15283989Y-35772445D01*
X-15261921Y-35728603D01*
X-15237729Y-35685897D01*
X-15211470Y-35644430D01*
X-15183208Y-35604301D01*
X-15153010Y-35565607D01*
X-15120951Y-35528441D01*
X-15087107Y-35492893D01*
X-15051559Y-35459049D01*
X-15014393Y-35426990D01*
X-14975699Y-35396792D01*
X-14935570Y-35368530D01*
X-14894103Y-35342271D01*
X-14851397Y-35318079D01*
X-14807555Y-35296011D01*
X-14762683Y-35276120D01*
X-14716890Y-35258456D01*
X-14670285Y-35243060D01*
X-14622980Y-35229969D01*
X-14575090Y-35219215D01*
X-14526730Y-35210823D01*
X-14478017Y-35204815D01*
X-14429068Y-35201205D01*
X-14380000Y-35200000D01*
X-14330932Y-35201205D01*
X-14281983Y-35204815D01*
X-14233270Y-35210823D01*
X-14184910Y-35219215D01*
X-14137020Y-35229969D01*
X-14089715Y-35243060D01*
X-14043110Y-35258456D01*
X-13997317Y-35276120D01*
X-13952445Y-35296011D01*
X-13908603Y-35318079D01*
X-13865897Y-35342271D01*
X-13824430Y-35368530D01*
X-13784301Y-35396792D01*
X-13745607Y-35426990D01*
X-13708441Y-35459049D01*
X-13672893Y-35492893D01*
X-13639049Y-35528441D01*
X-13606990Y-35565607D01*
X-13576792Y-35604301D01*
X-13548530Y-35644430D01*
X-13522271Y-35685897D01*
X-13498079Y-35728603D01*
X-13476011Y-35772445D01*
X-13456120Y-35817317D01*
X-13438456Y-35863110D01*
X-13423060Y-35909715D01*
X-13409969Y-35957020D01*
X-13399215Y-36004910D01*
X-13390823Y-36053270D01*
X-13384815Y-36101983D01*
X-13381205Y-36150932D01*
X-13380000Y-36200000D01*
X-13381205Y-36249068D01*
X-13384815Y-36298017D01*
X-13390823Y-36346730D01*
G37*
%LPD*%
G36*
X-10850823Y-36346730D02*
X-10859215Y-36395090D01*
X-10869969Y-36442980D01*
X-10883060Y-36490285D01*
X-10898456Y-36536890D01*
X-10916120Y-36582683D01*
X-10936011Y-36627555D01*
X-10958079Y-36671397D01*
X-10982271Y-36714103D01*
X-11008530Y-36755570D01*
X-11036792Y-36795699D01*
X-11066990Y-36834393D01*
X-11099049Y-36871559D01*
X-11132893Y-36907107D01*
X-11168441Y-36940951D01*
X-11205607Y-36973010D01*
X-11244301Y-37003208D01*
X-11284430Y-37031470D01*
X-11325897Y-37057729D01*
X-11368603Y-37081921D01*
X-11412445Y-37103989D01*
X-11457317Y-37123880D01*
X-11503110Y-37141544D01*
X-11549715Y-37156940D01*
X-11597020Y-37170031D01*
X-11644910Y-37180785D01*
X-11693270Y-37189177D01*
X-11741983Y-37195185D01*
X-11790932Y-37198795D01*
X-11840000Y-37200000D01*
X-11889068Y-37198795D01*
X-11938017Y-37195185D01*
X-11986730Y-37189177D01*
X-12035090Y-37180785D01*
X-12082980Y-37170031D01*
X-12130285Y-37156940D01*
X-12176890Y-37141544D01*
X-12222683Y-37123880D01*
X-12267555Y-37103989D01*
X-12311397Y-37081921D01*
X-12354103Y-37057729D01*
X-12395570Y-37031470D01*
X-12435699Y-37003208D01*
X-12474393Y-36973010D01*
X-12511559Y-36940951D01*
X-12547107Y-36907107D01*
X-12580951Y-36871559D01*
X-12613010Y-36834393D01*
X-12643208Y-36795699D01*
X-12671470Y-36755570D01*
X-12697729Y-36714103D01*
X-12721921Y-36671397D01*
X-12743989Y-36627555D01*
X-12763880Y-36582683D01*
X-12781544Y-36536890D01*
X-12796940Y-36490285D01*
X-12810031Y-36442980D01*
X-12820785Y-36395090D01*
X-12829177Y-36346730D01*
X-12835185Y-36298017D01*
X-12838795Y-36249068D01*
X-12840000Y-36200000D01*
X-12838795Y-36150932D01*
X-12835185Y-36101983D01*
X-12829177Y-36053270D01*
X-12820785Y-36004910D01*
X-12810031Y-35957020D01*
X-12796940Y-35909715D01*
X-12781544Y-35863110D01*
X-12763880Y-35817317D01*
X-12743989Y-35772445D01*
X-12721921Y-35728603D01*
X-12697729Y-35685897D01*
X-12671470Y-35644430D01*
X-12643208Y-35604301D01*
X-12613010Y-35565607D01*
X-12580951Y-35528441D01*
X-12547107Y-35492893D01*
X-12511559Y-35459049D01*
X-12474393Y-35426990D01*
X-12435699Y-35396792D01*
X-12395570Y-35368530D01*
X-12354103Y-35342271D01*
X-12311397Y-35318079D01*
X-12267555Y-35296011D01*
X-12222683Y-35276120D01*
X-12176890Y-35258456D01*
X-12130285Y-35243060D01*
X-12082980Y-35229969D01*
X-12035090Y-35219215D01*
X-11986730Y-35210823D01*
X-11938017Y-35204815D01*
X-11889068Y-35201205D01*
X-11840000Y-35200000D01*
X-11790932Y-35201205D01*
X-11741983Y-35204815D01*
X-11693270Y-35210823D01*
X-11644910Y-35219215D01*
X-11597020Y-35229969D01*
X-11549715Y-35243060D01*
X-11503110Y-35258456D01*
X-11457317Y-35276120D01*
X-11412445Y-35296011D01*
X-11368603Y-35318079D01*
X-11325897Y-35342271D01*
X-11284430Y-35368530D01*
X-11244301Y-35396792D01*
X-11205607Y-35426990D01*
X-11168441Y-35459049D01*
X-11132893Y-35492893D01*
X-11099049Y-35528441D01*
X-11066990Y-35565607D01*
X-11036792Y-35604301D01*
X-11008530Y-35644430D01*
X-10982271Y-35685897D01*
X-10958079Y-35728603D01*
X-10936011Y-35772445D01*
X-10916120Y-35817317D01*
X-10898456Y-35863110D01*
X-10883060Y-35909715D01*
X-10869969Y-35957020D01*
X-10859215Y-36004910D01*
X-10850823Y-36053270D01*
X-10844815Y-36101983D01*
X-10841205Y-36150932D01*
X-10840000Y-36200000D01*
X-10841205Y-36249068D01*
X-10844815Y-36298017D01*
X-10850823Y-36346730D01*
G37*
%LPD*%
M02*
