G04 STRUTHIO-CP1 B_Cu*
%FSLAX46Y46*%
%MOMM*%
%LPD*%
G01*
%ADD10C,0.100000*%
G04 back copper: signal traces, wire pads*
%LPD*%
G36*
X-15904329Y-61258692D02*
X-15907686Y-61278036D01*
X-15911987Y-61297192D01*
X-15917224Y-61316114D01*
X-15923382Y-61334756D01*
X-15930448Y-61353073D01*
X-15938404Y-61371022D01*
X-15947231Y-61388559D01*
X-15956909Y-61405641D01*
X-15967412Y-61422228D01*
X-15978717Y-61438280D01*
X-15990796Y-61453757D01*
X-16003620Y-61468624D01*
X-16017157Y-61482843D01*
X-16031376Y-61496380D01*
X-16046243Y-61509204D01*
X-16061720Y-61521283D01*
X-16077772Y-61532588D01*
X-16094359Y-61543091D01*
X-16111441Y-61552769D01*
X-16128978Y-61561596D01*
X-16146927Y-61569552D01*
X-16165244Y-61576618D01*
X-16183886Y-61582776D01*
X-16202808Y-61588013D01*
X-16221964Y-61592314D01*
X-16241308Y-61595671D01*
X-16260793Y-61598074D01*
X-16280373Y-61599518D01*
X-16300000Y-61600000D01*
X-16319627Y-61599518D01*
X-16339207Y-61598074D01*
X-16358692Y-61595671D01*
X-16378036Y-61592314D01*
X-16397192Y-61588013D01*
X-16416114Y-61582776D01*
X-16434756Y-61576618D01*
X-16453073Y-61569552D01*
X-16471022Y-61561596D01*
X-16488559Y-61552769D01*
X-16505641Y-61543091D01*
X-16522228Y-61532588D01*
X-16538280Y-61521283D01*
X-16553757Y-61509204D01*
X-16568624Y-61496380D01*
X-16582843Y-61482843D01*
X-16596380Y-61468624D01*
X-16609204Y-61453757D01*
X-16621283Y-61438280D01*
X-16632588Y-61422228D01*
X-16643091Y-61405641D01*
X-16652769Y-61388559D01*
X-16661596Y-61371022D01*
X-16669552Y-61353073D01*
X-16676618Y-61334756D01*
X-16682776Y-61316114D01*
X-16688013Y-61297192D01*
X-16692314Y-61278036D01*
X-16695671Y-61258692D01*
X-16698074Y-61239207D01*
X-16699518Y-61219627D01*
X-16700000Y-61200000D01*
X-16699518Y-61180373D01*
X-16698074Y-61160793D01*
X-16695671Y-61141308D01*
X-16692314Y-61121964D01*
X-16688013Y-61102808D01*
X-16682776Y-61083886D01*
X-16676618Y-61065244D01*
X-16669552Y-61046927D01*
X-16661596Y-61028978D01*
X-16652769Y-61011441D01*
X-16643091Y-60994359D01*
X-16632588Y-60977772D01*
X-16621283Y-60961720D01*
X-16609204Y-60946243D01*
X-16596380Y-60931376D01*
X-16582843Y-60917157D01*
X-16568624Y-60903620D01*
X-16553757Y-60890796D01*
X-16538280Y-60878717D01*
X-16522228Y-60867412D01*
X-16505641Y-60856909D01*
X-16500000Y-60853713D01*
X-16500000Y-40600000D01*
X-16920000Y-40600000D01*
X-16939603Y-40599037D01*
X-16959018Y-40596157D01*
X-16978057Y-40591388D01*
X-16996537Y-40584776D01*
X-17014279Y-40576384D01*
X-17031114Y-40566294D01*
X-17046879Y-40554602D01*
X-17061421Y-40541421D01*
X-17074602Y-40526879D01*
X-17086294Y-40511114D01*
X-17096384Y-40494279D01*
X-17104776Y-40476537D01*
X-17111388Y-40458057D01*
X-17116157Y-40439018D01*
X-17119037Y-40419603D01*
X-17120000Y-40400000D01*
X-17120000Y-37077223D01*
X-17138682Y-37073028D01*
X-17181256Y-37061246D01*
X-17223201Y-37047390D01*
X-17264415Y-37031492D01*
X-17304800Y-37013590D01*
X-17344257Y-36993729D01*
X-17382692Y-36971956D01*
X-17420013Y-36948323D01*
X-17456129Y-36922887D01*
X-17490954Y-36895709D01*
X-17524403Y-36866856D01*
X-17556396Y-36836396D01*
X-17586856Y-36804403D01*
X-17615709Y-36770954D01*
X-17642887Y-36736129D01*
X-17668323Y-36700013D01*
X-17691956Y-36662692D01*
X-17713729Y-36624257D01*
X-17733590Y-36584800D01*
X-17751492Y-36544415D01*
X-17767390Y-36503201D01*
X-17781246Y-36461256D01*
X-17793028Y-36418682D01*
X-17802707Y-36375581D01*
X-17810259Y-36332057D01*
X-17815666Y-36288215D01*
X-17818916Y-36244161D01*
X-17820000Y-36200000D01*
X-17818916Y-36155839D01*
X-17815666Y-36111785D01*
X-17810259Y-36067943D01*
X-17802707Y-36024419D01*
X-17793028Y-35981318D01*
X-17781246Y-35938744D01*
X-17767390Y-35896799D01*
X-17751492Y-35855585D01*
X-17733590Y-35815200D01*
X-17713729Y-35775743D01*
X-17691956Y-35737308D01*
X-17668323Y-35699987D01*
X-17642887Y-35663871D01*
X-17615709Y-35629046D01*
X-17586856Y-35595597D01*
X-17556396Y-35563604D01*
X-17524403Y-35533144D01*
X-17490954Y-35504291D01*
X-17456129Y-35477113D01*
X-17420013Y-35451677D01*
X-17382692Y-35428044D01*
X-17344257Y-35406271D01*
X-17304800Y-35386410D01*
X-17264415Y-35368508D01*
X-17223201Y-35352610D01*
X-17181256Y-35338754D01*
X-17138682Y-35326972D01*
X-17095581Y-35317293D01*
X-17052057Y-35309741D01*
X-17008215Y-35304334D01*
X-16964161Y-35301084D01*
X-16920000Y-35300000D01*
X-16875839Y-35301084D01*
X-16831785Y-35304334D01*
X-16787943Y-35309741D01*
X-16744419Y-35317293D01*
X-16701318Y-35326972D01*
X-16658744Y-35338754D01*
X-16616799Y-35352610D01*
X-16575585Y-35368508D01*
X-16535200Y-35386410D01*
X-16495743Y-35406271D01*
X-16457308Y-35428044D01*
X-16419987Y-35451677D01*
X-16383871Y-35477113D01*
X-16349046Y-35504291D01*
X-16315597Y-35533144D01*
X-16283604Y-35563604D01*
X-16253144Y-35595597D01*
X-16224291Y-35629046D01*
X-16197113Y-35663871D01*
X-16171677Y-35699987D01*
X-16148044Y-35737308D01*
X-16126271Y-35775743D01*
X-16106410Y-35815200D01*
X-16088508Y-35855585D01*
X-16072610Y-35896799D01*
X-16058754Y-35938744D01*
X-16046972Y-35981318D01*
X-16037293Y-36024419D01*
X-16029741Y-36067943D01*
X-16024334Y-36111785D01*
X-16021084Y-36155839D01*
X-16020000Y-36200000D01*
X-16021084Y-36244161D01*
X-16024334Y-36288215D01*
X-16029741Y-36332057D01*
X-16037293Y-36375581D01*
X-16046972Y-36418682D01*
X-16058754Y-36461256D01*
X-16072610Y-36503201D01*
X-16088508Y-36544415D01*
X-16106410Y-36584800D01*
X-16126271Y-36624257D01*
X-16148044Y-36662692D01*
X-16171677Y-36700013D01*
X-16197113Y-36736129D01*
X-16224291Y-36770954D01*
X-16253144Y-36804403D01*
X-16283604Y-36836396D01*
X-16315597Y-36866856D01*
X-16349046Y-36895709D01*
X-16383871Y-36922887D01*
X-16419987Y-36948323D01*
X-16457308Y-36971956D01*
X-16495743Y-36993729D01*
X-16535200Y-37013590D01*
X-16575585Y-37031492D01*
X-16616799Y-37047390D01*
X-16658744Y-37061246D01*
X-16701318Y-37073028D01*
X-16720000Y-37077223D01*
X-16720000Y-40200000D01*
X-16300000Y-40200000D01*
X-16280397Y-40200963D01*
X-16260982Y-40203843D01*
X-16241943Y-40208612D01*
X-16223463Y-40215224D01*
X-16205721Y-40223616D01*
X-16188886Y-40233706D01*
X-16173121Y-40245398D01*
X-16158579Y-40258579D01*
X-16145398Y-40273121D01*
X-16133706Y-40288886D01*
X-16123616Y-40305721D01*
X-16115224Y-40323463D01*
X-16108612Y-40341943D01*
X-16103843Y-40360982D01*
X-16100963Y-40380397D01*
X-16100000Y-40400000D01*
X-16100000Y-60853713D01*
X-16094359Y-60856909D01*
X-16077772Y-60867412D01*
X-16061720Y-60878717D01*
X-16046243Y-60890796D01*
X-16031376Y-60903620D01*
X-16017157Y-60917157D01*
X-16003620Y-60931376D01*
X-15990796Y-60946243D01*
X-15978717Y-60961720D01*
X-15967412Y-60977772D01*
X-15956909Y-60994359D01*
X-15947231Y-61011441D01*
X-15938404Y-61028978D01*
X-15930448Y-61046927D01*
X-15923382Y-61065244D01*
X-15917224Y-61083886D01*
X-15911987Y-61102808D01*
X-15907686Y-61121964D01*
X-15904329Y-61141308D01*
X-15901926Y-61160793D01*
X-15900482Y-61180373D01*
X-15900000Y-61200000D01*
X-15900482Y-61219627D01*
X-15901926Y-61239207D01*
X-15904329Y-61258692D01*
G37*
%LPD*%
G36*
X16695671Y-61258692D02*
X16692314Y-61278036D01*
X16688013Y-61297192D01*
X16682776Y-61316114D01*
X16676618Y-61334756D01*
X16669552Y-61353073D01*
X16661596Y-61371022D01*
X16652769Y-61388559D01*
X16643091Y-61405641D01*
X16632588Y-61422228D01*
X16621283Y-61438280D01*
X16609204Y-61453757D01*
X16596380Y-61468624D01*
X16582843Y-61482843D01*
X16568624Y-61496380D01*
X16553757Y-61509204D01*
X16538280Y-61521283D01*
X16522228Y-61532588D01*
X16505641Y-61543091D01*
X16488559Y-61552769D01*
X16471022Y-61561596D01*
X16453073Y-61569552D01*
X16434756Y-61576618D01*
X16416114Y-61582776D01*
X16397192Y-61588013D01*
X16378036Y-61592314D01*
X16358692Y-61595671D01*
X16339207Y-61598074D01*
X16319627Y-61599518D01*
X16300000Y-61600000D01*
X16280373Y-61599518D01*
X16260793Y-61598074D01*
X16241308Y-61595671D01*
X16221964Y-61592314D01*
X16202808Y-61588013D01*
X16183886Y-61582776D01*
X16165244Y-61576618D01*
X16146927Y-61569552D01*
X16128978Y-61561596D01*
X16111441Y-61552769D01*
X16094359Y-61543091D01*
X16077772Y-61532588D01*
X16061720Y-61521283D01*
X16046243Y-61509204D01*
X16031376Y-61496380D01*
X16017157Y-61482843D01*
X16003620Y-61468624D01*
X15990796Y-61453757D01*
X15978717Y-61438280D01*
X15967412Y-61422228D01*
X15956909Y-61405641D01*
X15947231Y-61388559D01*
X15938404Y-61371022D01*
X15930448Y-61353073D01*
X15923382Y-61334756D01*
X15917224Y-61316114D01*
X15911987Y-61297192D01*
X15907686Y-61278036D01*
X15904329Y-61258692D01*
X15901926Y-61239207D01*
X15900482Y-61219627D01*
X15900000Y-61200000D01*
X15900482Y-61180373D01*
X15901926Y-61160793D01*
X15904329Y-61141308D01*
X15907686Y-61121964D01*
X15911987Y-61102808D01*
X15917224Y-61083886D01*
X15923382Y-61065244D01*
X15930448Y-61046927D01*
X15938404Y-61028978D01*
X15947231Y-61011441D01*
X15956909Y-60994359D01*
X15967412Y-60977772D01*
X15978717Y-60961720D01*
X15990796Y-60946243D01*
X16003620Y-60931376D01*
X16017157Y-60917157D01*
X16031376Y-60903620D01*
X16046243Y-60890796D01*
X16061720Y-60878717D01*
X16077772Y-60867412D01*
X16094359Y-60856909D01*
X16100000Y-60853713D01*
X16100000Y-39500000D01*
X-14380000Y-39500000D01*
X-14399603Y-39499037D01*
X-14419018Y-39496157D01*
X-14438057Y-39491388D01*
X-14456537Y-39484776D01*
X-14474279Y-39476384D01*
X-14491114Y-39466294D01*
X-14506879Y-39454602D01*
X-14521421Y-39441421D01*
X-14534602Y-39426879D01*
X-14546294Y-39411114D01*
X-14556384Y-39394279D01*
X-14564776Y-39376537D01*
X-14571388Y-39358057D01*
X-14576157Y-39339018D01*
X-14579037Y-39319603D01*
X-14580000Y-39300000D01*
X-14580000Y-37077223D01*
X-14598682Y-37073028D01*
X-14641256Y-37061246D01*
X-14683201Y-37047390D01*
X-14724415Y-37031492D01*
X-14764800Y-37013590D01*
X-14804257Y-36993729D01*
X-14842692Y-36971956D01*
X-14880013Y-36948323D01*
X-14916129Y-36922887D01*
X-14950954Y-36895709D01*
X-14984403Y-36866856D01*
X-15016396Y-36836396D01*
X-15046856Y-36804403D01*
X-15075709Y-36770954D01*
X-15102887Y-36736129D01*
X-15128323Y-36700013D01*
X-15151956Y-36662692D01*
X-15173729Y-36624257D01*
X-15193590Y-36584800D01*
X-15211492Y-36544415D01*
X-15227390Y-36503201D01*
X-15241246Y-36461256D01*
X-15253028Y-36418682D01*
X-15262707Y-36375581D01*
X-15270259Y-36332057D01*
X-15275666Y-36288215D01*
X-15278916Y-36244161D01*
X-15280000Y-36200000D01*
X-15278916Y-36155839D01*
X-15275666Y-36111785D01*
X-15270259Y-36067943D01*
X-15262707Y-36024419D01*
X-15253028Y-35981318D01*
X-15241246Y-35938744D01*
X-15227390Y-35896799D01*
X-15211492Y-35855585D01*
X-15193590Y-35815200D01*
X-15173729Y-35775743D01*
X-15151956Y-35737308D01*
X-15128323Y-35699987D01*
X-15102887Y-35663871D01*
X-15075709Y-35629046D01*
X-15046856Y-35595597D01*
X-15016396Y-35563604D01*
X-14984403Y-35533144D01*
X-14950954Y-35504291D01*
X-14916129Y-35477113D01*
X-14880013Y-35451677D01*
X-14842692Y-35428044D01*
X-14804257Y-35406271D01*
X-14764800Y-35386410D01*
X-14724415Y-35368508D01*
X-14683201Y-35352610D01*
X-14641256Y-35338754D01*
X-14598682Y-35326972D01*
X-14555581Y-35317293D01*
X-14512057Y-35309741D01*
X-14468215Y-35304334D01*
X-14424161Y-35301084D01*
X-14380000Y-35300000D01*
X-14335839Y-35301084D01*
X-14291785Y-35304334D01*
X-14247943Y-35309741D01*
X-14204419Y-35317293D01*
X-14161318Y-35326972D01*
X-14118744Y-35338754D01*
X-14076799Y-35352610D01*
X-14035585Y-35368508D01*
X-13995200Y-35386410D01*
X-13955743Y-35406271D01*
X-13917308Y-35428044D01*
X-13879987Y-35451677D01*
X-13843871Y-35477113D01*
X-13809046Y-35504291D01*
X-13775597Y-35533144D01*
X-13743604Y-35563604D01*
X-13713144Y-35595597D01*
X-13684291Y-35629046D01*
X-13657113Y-35663871D01*
X-13631677Y-35699987D01*
X-13608044Y-35737308D01*
X-13586271Y-35775743D01*
X-13566410Y-35815200D01*
X-13548508Y-35855585D01*
X-13532610Y-35896799D01*
X-13518754Y-35938744D01*
X-13506972Y-35981318D01*
X-13497293Y-36024419D01*
X-13489741Y-36067943D01*
X-13484334Y-36111785D01*
X-13481084Y-36155839D01*
X-13480000Y-36200000D01*
X-13481084Y-36244161D01*
X-13484334Y-36288215D01*
X-13489741Y-36332057D01*
X-13497293Y-36375581D01*
X-13506972Y-36418682D01*
X-13518754Y-36461256D01*
X-13532610Y-36503201D01*
X-13548508Y-36544415D01*
X-13566410Y-36584800D01*
X-13586271Y-36624257D01*
X-13608044Y-36662692D01*
X-13631677Y-36700013D01*
X-13657113Y-36736129D01*
X-13684291Y-36770954D01*
X-13713144Y-36804403D01*
X-13743604Y-36836396D01*
X-13775597Y-36866856D01*
X-13809046Y-36895709D01*
X-13843871Y-36922887D01*
X-13879987Y-36948323D01*
X-13917308Y-36971956D01*
X-13955743Y-36993729D01*
X-13995200Y-37013590D01*
X-14035585Y-37031492D01*
X-14076799Y-37047390D01*
X-14118744Y-37061246D01*
X-14161318Y-37073028D01*
X-14180000Y-37077223D01*
X-14180000Y-39100000D01*
X16300000Y-39100000D01*
X16319603Y-39100963D01*
X16339018Y-39103843D01*
X16358057Y-39108612D01*
X16376537Y-39115224D01*
X16394279Y-39123616D01*
X16411114Y-39133706D01*
X16426879Y-39145398D01*
X16441421Y-39158579D01*
X16454602Y-39173121D01*
X16466294Y-39188886D01*
X16476384Y-39205721D01*
X16484776Y-39223463D01*
X16491388Y-39241943D01*
X16496157Y-39260982D01*
X16499037Y-39280397D01*
X16500000Y-39300000D01*
X16500000Y-60853713D01*
X16505641Y-60856909D01*
X16522228Y-60867412D01*
X16538280Y-60878717D01*
X16553757Y-60890796D01*
X16568624Y-60903620D01*
X16582843Y-60917157D01*
X16596380Y-60931376D01*
X16609204Y-60946243D01*
X16621283Y-60961720D01*
X16632588Y-60977772D01*
X16643091Y-60994359D01*
X16652769Y-61011441D01*
X16661596Y-61028978D01*
X16669552Y-61046927D01*
X16676618Y-61065244D01*
X16682776Y-61083886D01*
X16688013Y-61102808D01*
X16692314Y-61121964D01*
X16695671Y-61141308D01*
X16698074Y-61160793D01*
X16699518Y-61180373D01*
X16700000Y-61200000D01*
X16699518Y-61219627D01*
X16698074Y-61239207D01*
X16695671Y-61258692D01*
G37*
%LPD*%
G36*
X-27904329Y-46058692D02*
X-27907686Y-46078036D01*
X-27911987Y-46097192D01*
X-27917224Y-46116114D01*
X-27923382Y-46134756D01*
X-27930448Y-46153073D01*
X-27938404Y-46171022D01*
X-27947231Y-46188559D01*
X-27956909Y-46205641D01*
X-27967412Y-46222228D01*
X-27978717Y-46238280D01*
X-27990796Y-46253757D01*
X-28003620Y-46268624D01*
X-28017157Y-46282843D01*
X-28031376Y-46296380D01*
X-28046243Y-46309204D01*
X-28061720Y-46321283D01*
X-28077772Y-46332588D01*
X-28094359Y-46343091D01*
X-28111441Y-46352769D01*
X-28128978Y-46361596D01*
X-28146927Y-46369552D01*
X-28165244Y-46376618D01*
X-28183886Y-46382776D01*
X-28202808Y-46388013D01*
X-28221964Y-46392314D01*
X-28241308Y-46395671D01*
X-28260793Y-46398074D01*
X-28280373Y-46399518D01*
X-28300000Y-46400000D01*
X-28319627Y-46399518D01*
X-28339207Y-46398074D01*
X-28358692Y-46395671D01*
X-28378036Y-46392314D01*
X-28397192Y-46388013D01*
X-28416114Y-46382776D01*
X-28434756Y-46376618D01*
X-28453073Y-46369552D01*
X-28471022Y-46361596D01*
X-28488559Y-46352769D01*
X-28505641Y-46343091D01*
X-28522228Y-46332588D01*
X-28538280Y-46321283D01*
X-28553757Y-46309204D01*
X-28568624Y-46296380D01*
X-28582843Y-46282843D01*
X-28596380Y-46268624D01*
X-28609204Y-46253757D01*
X-28621283Y-46238280D01*
X-28632588Y-46222228D01*
X-28643091Y-46205641D01*
X-28652769Y-46188559D01*
X-28661596Y-46171022D01*
X-28669552Y-46153073D01*
X-28676618Y-46134756D01*
X-28682776Y-46116114D01*
X-28688013Y-46097192D01*
X-28692314Y-46078036D01*
X-28695671Y-46058692D01*
X-28698074Y-46039207D01*
X-28699518Y-46019627D01*
X-28700000Y-46000000D01*
X-28699518Y-45980373D01*
X-28698074Y-45960793D01*
X-28695671Y-45941308D01*
X-28692314Y-45921964D01*
X-28688013Y-45902808D01*
X-28682776Y-45883886D01*
X-28676618Y-45865244D01*
X-28669552Y-45846927D01*
X-28661596Y-45828978D01*
X-28652769Y-45811441D01*
X-28643091Y-45794359D01*
X-28632588Y-45777772D01*
X-28621283Y-45761720D01*
X-28609204Y-45746243D01*
X-28596380Y-45731376D01*
X-28582843Y-45717157D01*
X-28568624Y-45703620D01*
X-28553757Y-45690796D01*
X-28538280Y-45678717D01*
X-28522228Y-45667412D01*
X-28505641Y-45656909D01*
X-28500000Y-45653713D01*
X-28500000Y-41400000D01*
X-28499037Y-41380397D01*
X-28496157Y-41360982D01*
X-28491388Y-41341943D01*
X-28484776Y-41323463D01*
X-28476384Y-41305721D01*
X-28466294Y-41288886D01*
X-28454602Y-41273121D01*
X-28441421Y-41258579D01*
X-28426879Y-41245398D01*
X-28411114Y-41233706D01*
X-28394279Y-41223616D01*
X-28376537Y-41215224D01*
X-28358057Y-41208612D01*
X-28339018Y-41203843D01*
X-28319603Y-41200963D01*
X-28300000Y-41200000D01*
X-19660000Y-41200000D01*
X-19660000Y-37077223D01*
X-19678682Y-37073028D01*
X-19721256Y-37061246D01*
X-19763201Y-37047390D01*
X-19804415Y-37031492D01*
X-19844800Y-37013590D01*
X-19884257Y-36993729D01*
X-19922692Y-36971956D01*
X-19960013Y-36948323D01*
X-19996129Y-36922887D01*
X-20030954Y-36895709D01*
X-20064403Y-36866856D01*
X-20096396Y-36836396D01*
X-20126856Y-36804403D01*
X-20155709Y-36770954D01*
X-20182887Y-36736129D01*
X-20208323Y-36700013D01*
X-20231956Y-36662692D01*
X-20253729Y-36624257D01*
X-20273590Y-36584800D01*
X-20291492Y-36544415D01*
X-20307390Y-36503201D01*
X-20321246Y-36461256D01*
X-20333028Y-36418682D01*
X-20342707Y-36375581D01*
X-20350259Y-36332057D01*
X-20355666Y-36288215D01*
X-20358916Y-36244161D01*
X-20360000Y-36200000D01*
X-20358916Y-36155839D01*
X-20355666Y-36111785D01*
X-20350259Y-36067943D01*
X-20342707Y-36024419D01*
X-20333028Y-35981318D01*
X-20321246Y-35938744D01*
X-20307390Y-35896799D01*
X-20291492Y-35855585D01*
X-20273590Y-35815200D01*
X-20253729Y-35775743D01*
X-20231956Y-35737308D01*
X-20208323Y-35699987D01*
X-20182887Y-35663871D01*
X-20155709Y-35629046D01*
X-20126856Y-35595597D01*
X-20096396Y-35563604D01*
X-20064403Y-35533144D01*
X-20030954Y-35504291D01*
X-19996129Y-35477113D01*
X-19960013Y-35451677D01*
X-19922692Y-35428044D01*
X-19884257Y-35406271D01*
X-19844800Y-35386410D01*
X-19804415Y-35368508D01*
X-19763201Y-35352610D01*
X-19721256Y-35338754D01*
X-19678682Y-35326972D01*
X-19635581Y-35317293D01*
X-19592057Y-35309741D01*
X-19548215Y-35304334D01*
X-19504161Y-35301084D01*
X-19460000Y-35300000D01*
X-19415839Y-35301084D01*
X-19371785Y-35304334D01*
X-19327943Y-35309741D01*
X-19284419Y-35317293D01*
X-19241318Y-35326972D01*
X-19198744Y-35338754D01*
X-19156799Y-35352610D01*
X-19115585Y-35368508D01*
X-19075200Y-35386410D01*
X-19035743Y-35406271D01*
X-18997308Y-35428044D01*
X-18959987Y-35451677D01*
X-18923871Y-35477113D01*
X-18889046Y-35504291D01*
X-18855597Y-35533144D01*
X-18823604Y-35563604D01*
X-18793144Y-35595597D01*
X-18764291Y-35629046D01*
X-18737113Y-35663871D01*
X-18711677Y-35699987D01*
X-18688044Y-35737308D01*
X-18666271Y-35775743D01*
X-18646410Y-35815200D01*
X-18628508Y-35855585D01*
X-18612610Y-35896799D01*
X-18598754Y-35938744D01*
X-18586972Y-35981318D01*
X-18577293Y-36024419D01*
X-18569741Y-36067943D01*
X-18564334Y-36111785D01*
X-18561084Y-36155839D01*
X-18560000Y-36200000D01*
X-18561084Y-36244161D01*
X-18564334Y-36288215D01*
X-18569741Y-36332057D01*
X-18577293Y-36375581D01*
X-18586972Y-36418682D01*
X-18598754Y-36461256D01*
X-18612610Y-36503201D01*
X-18628508Y-36544415D01*
X-18646410Y-36584800D01*
X-18666271Y-36624257D01*
X-18688044Y-36662692D01*
X-18711677Y-36700013D01*
X-18737113Y-36736129D01*
X-18764291Y-36770954D01*
X-18793144Y-36804403D01*
X-18823604Y-36836396D01*
X-18855597Y-36866856D01*
X-18889046Y-36895709D01*
X-18923871Y-36922887D01*
X-18959987Y-36948323D01*
X-18997308Y-36971956D01*
X-19035743Y-36993729D01*
X-19075200Y-37013590D01*
X-19115585Y-37031492D01*
X-19156799Y-37047390D01*
X-19198744Y-37061246D01*
X-19241318Y-37073028D01*
X-19260000Y-37077223D01*
X-19260000Y-41400000D01*
X-19260963Y-41419603D01*
X-19263843Y-41439018D01*
X-19268612Y-41458057D01*
X-19275224Y-41476537D01*
X-19283616Y-41494279D01*
X-19293706Y-41511114D01*
X-19305398Y-41526879D01*
X-19318579Y-41541421D01*
X-19333121Y-41554602D01*
X-19348886Y-41566294D01*
X-19365721Y-41576384D01*
X-19383463Y-41584776D01*
X-19401943Y-41591388D01*
X-19420982Y-41596157D01*
X-19440397Y-41599037D01*
X-19460000Y-41600000D01*
X-28100000Y-41600000D01*
X-28100000Y-45653713D01*
X-28094359Y-45656909D01*
X-28077772Y-45667412D01*
X-28061720Y-45678717D01*
X-28046243Y-45690796D01*
X-28031376Y-45703620D01*
X-28017157Y-45717157D01*
X-28003620Y-45731376D01*
X-27990796Y-45746243D01*
X-27978717Y-45761720D01*
X-27967412Y-45777772D01*
X-27956909Y-45794359D01*
X-27947231Y-45811441D01*
X-27938404Y-45828978D01*
X-27930448Y-45846927D01*
X-27923382Y-45865244D01*
X-27917224Y-45883886D01*
X-27911987Y-45902808D01*
X-27907686Y-45921964D01*
X-27904329Y-45941308D01*
X-27901926Y-45960793D01*
X-27900482Y-45980373D01*
X-27900000Y-46000000D01*
X-27900482Y-46019627D01*
X-27901926Y-46039207D01*
X-27904329Y-46058692D01*
G37*
%LPD*%
G36*
X28692314Y-46078036D02*
X28688013Y-46097192D01*
X28682776Y-46116114D01*
X28676618Y-46134756D01*
X28669552Y-46153073D01*
X28661596Y-46171022D01*
X28652769Y-46188559D01*
X28643091Y-46205641D01*
X28632588Y-46222228D01*
X28621283Y-46238280D01*
X28609204Y-46253757D01*
X28596380Y-46268624D01*
X28582843Y-46282843D01*
X28568624Y-46296380D01*
X28553757Y-46309204D01*
X28538280Y-46321283D01*
X28522228Y-46332588D01*
X28505641Y-46343091D01*
X28488559Y-46352769D01*
X28471022Y-46361596D01*
X28453073Y-46369552D01*
X28434756Y-46376618D01*
X28416114Y-46382776D01*
X28397192Y-46388013D01*
X28378036Y-46392314D01*
X28358692Y-46395671D01*
X28339207Y-46398074D01*
X28319627Y-46399518D01*
X28300000Y-46400000D01*
X28280373Y-46399518D01*
X28260793Y-46398074D01*
X28241308Y-46395671D01*
X28221964Y-46392314D01*
X28202808Y-46388013D01*
X28183886Y-46382776D01*
X28165244Y-46376618D01*
X28146927Y-46369552D01*
X28128978Y-46361596D01*
X28111441Y-46352769D01*
X28094359Y-46343091D01*
X28077772Y-46332588D01*
X28061720Y-46321283D01*
X28046243Y-46309204D01*
X28031376Y-46296380D01*
X28017157Y-46282843D01*
X28003620Y-46268624D01*
X27990796Y-46253757D01*
X27978717Y-46238280D01*
X27967412Y-46222228D01*
X27956909Y-46205641D01*
X27947231Y-46188559D01*
X27938404Y-46171022D01*
X27930448Y-46153073D01*
X27923382Y-46134756D01*
X27917224Y-46116114D01*
X27911987Y-46097192D01*
X27907686Y-46078036D01*
X27904329Y-46058692D01*
X27901926Y-46039207D01*
X27900482Y-46019627D01*
X27900000Y-46000000D01*
X27900482Y-45980373D01*
X27901926Y-45960793D01*
X27904329Y-45941308D01*
X27907686Y-45921964D01*
X27911987Y-45902808D01*
X27917224Y-45883886D01*
X27923382Y-45865244D01*
X27930448Y-45846927D01*
X27938404Y-45828978D01*
X27947231Y-45811441D01*
X27956909Y-45794359D01*
X27967412Y-45777772D01*
X27978717Y-45761720D01*
X27990796Y-45746243D01*
X28003620Y-45731376D01*
X28017157Y-45717157D01*
X28031376Y-45703620D01*
X28046243Y-45690796D01*
X28061720Y-45678717D01*
X28077772Y-45667412D01*
X28094359Y-45656909D01*
X28100000Y-45653713D01*
X28100000Y-38500000D01*
X-11840000Y-38500000D01*
X-11859603Y-38499037D01*
X-11879018Y-38496157D01*
X-11898057Y-38491388D01*
X-11916537Y-38484776D01*
X-11934279Y-38476384D01*
X-11951114Y-38466294D01*
X-11966879Y-38454602D01*
X-11981421Y-38441421D01*
X-11994602Y-38426879D01*
X-12006294Y-38411114D01*
X-12016384Y-38394279D01*
X-12024776Y-38376537D01*
X-12031388Y-38358057D01*
X-12036157Y-38339018D01*
X-12039037Y-38319603D01*
X-12040000Y-38300000D01*
X-12040000Y-37077223D01*
X-12058682Y-37073028D01*
X-12101256Y-37061246D01*
X-12143201Y-37047390D01*
X-12184415Y-37031492D01*
X-12224800Y-37013590D01*
X-12264257Y-36993729D01*
X-12302692Y-36971956D01*
X-12340013Y-36948323D01*
X-12376129Y-36922887D01*
X-12410954Y-36895709D01*
X-12444403Y-36866856D01*
X-12476396Y-36836396D01*
X-12506856Y-36804403D01*
X-12535709Y-36770954D01*
X-12562887Y-36736129D01*
X-12588323Y-36700013D01*
X-12611956Y-36662692D01*
X-12633729Y-36624257D01*
X-12653590Y-36584800D01*
X-12671492Y-36544415D01*
X-12687390Y-36503201D01*
X-12701246Y-36461256D01*
X-12713028Y-36418682D01*
X-12722707Y-36375581D01*
X-12730259Y-36332057D01*
X-12735666Y-36288215D01*
X-12738916Y-36244161D01*
X-12740000Y-36200000D01*
X-12738916Y-36155839D01*
X-12735666Y-36111785D01*
X-12730259Y-36067943D01*
X-12722707Y-36024419D01*
X-12713028Y-35981318D01*
X-12701246Y-35938744D01*
X-12687390Y-35896799D01*
X-12671492Y-35855585D01*
X-12653590Y-35815200D01*
X-12633729Y-35775743D01*
X-12611956Y-35737308D01*
X-12588323Y-35699987D01*
X-12562887Y-35663871D01*
X-12535709Y-35629046D01*
X-12506856Y-35595597D01*
X-12476396Y-35563604D01*
X-12444403Y-35533144D01*
X-12410954Y-35504291D01*
X-12376129Y-35477113D01*
X-12340013Y-35451677D01*
X-12302692Y-35428044D01*
X-12264257Y-35406271D01*
X-12224800Y-35386410D01*
X-12184415Y-35368508D01*
X-12143201Y-35352610D01*
X-12101256Y-35338754D01*
X-12058682Y-35326972D01*
X-12015581Y-35317293D01*
X-11972057Y-35309741D01*
X-11928215Y-35304334D01*
X-11884161Y-35301084D01*
X-11840000Y-35300000D01*
X-11795839Y-35301084D01*
X-11751785Y-35304334D01*
X-11707943Y-35309741D01*
X-11664419Y-35317293D01*
X-11621318Y-35326972D01*
X-11578744Y-35338754D01*
X-11536799Y-35352610D01*
X-11495585Y-35368508D01*
X-11455200Y-35386410D01*
X-11415743Y-35406271D01*
X-11377308Y-35428044D01*
X-11339987Y-35451677D01*
X-11303871Y-35477113D01*
X-11269046Y-35504291D01*
X-11235597Y-35533144D01*
X-11203604Y-35563604D01*
X-11173144Y-35595597D01*
X-11144291Y-35629046D01*
X-11117113Y-35663871D01*
X-11091677Y-35699987D01*
X-11068044Y-35737308D01*
X-11046271Y-35775743D01*
X-11026410Y-35815200D01*
X-11008508Y-35855585D01*
X-10992610Y-35896799D01*
X-10978754Y-35938744D01*
X-10966972Y-35981318D01*
X-10957293Y-36024419D01*
X-10949741Y-36067943D01*
X-10944334Y-36111785D01*
X-10941084Y-36155839D01*
X-10940000Y-36200000D01*
X-10941084Y-36244161D01*
X-10944334Y-36288215D01*
X-10949741Y-36332057D01*
X-10957293Y-36375581D01*
X-10966972Y-36418682D01*
X-10978754Y-36461256D01*
X-10992610Y-36503201D01*
X-11008508Y-36544415D01*
X-11026410Y-36584800D01*
X-11046271Y-36624257D01*
X-11068044Y-36662692D01*
X-11091677Y-36700013D01*
X-11117113Y-36736129D01*
X-11144291Y-36770954D01*
X-11173144Y-36804403D01*
X-11203604Y-36836396D01*
X-11235597Y-36866856D01*
X-11269046Y-36895709D01*
X-11303871Y-36922887D01*
X-11339987Y-36948323D01*
X-11377308Y-36971956D01*
X-11415743Y-36993729D01*
X-11455200Y-37013590D01*
X-11495585Y-37031492D01*
X-11536799Y-37047390D01*
X-11578744Y-37061246D01*
X-11621318Y-37073028D01*
X-11640000Y-37077223D01*
X-11640000Y-38100000D01*
X28300000Y-38100000D01*
X28319603Y-38100963D01*
X28339018Y-38103843D01*
X28358057Y-38108612D01*
X28376537Y-38115224D01*
X28394279Y-38123616D01*
X28411114Y-38133706D01*
X28426879Y-38145398D01*
X28441421Y-38158579D01*
X28454602Y-38173121D01*
X28466294Y-38188886D01*
X28476384Y-38205721D01*
X28484776Y-38223463D01*
X28491388Y-38241943D01*
X28496157Y-38260982D01*
X28499037Y-38280397D01*
X28500000Y-38300000D01*
X28500000Y-45653713D01*
X28505641Y-45656909D01*
X28522228Y-45667412D01*
X28538280Y-45678717D01*
X28553757Y-45690796D01*
X28568624Y-45703620D01*
X28582843Y-45717157D01*
X28596380Y-45731376D01*
X28609204Y-45746243D01*
X28621283Y-45761720D01*
X28632588Y-45777772D01*
X28643091Y-45794359D01*
X28652769Y-45811441D01*
X28661596Y-45828978D01*
X28669552Y-45846927D01*
X28676618Y-45865244D01*
X28682776Y-45883886D01*
X28688013Y-45902808D01*
X28692314Y-45921964D01*
X28695671Y-45941308D01*
X28698074Y-45960793D01*
X28699518Y-45980373D01*
X28700000Y-46000000D01*
X28699518Y-46019627D01*
X28698074Y-46039207D01*
X28695671Y-46058692D01*
X28692314Y-46078036D01*
G37*
%LPD*%
G36*
X-21109741Y-36332057D02*
X-21117293Y-36375581D01*
X-21126972Y-36418682D01*
X-21138754Y-36461256D01*
X-21152610Y-36503201D01*
X-21168508Y-36544415D01*
X-21186410Y-36584800D01*
X-21206271Y-36624257D01*
X-21228044Y-36662692D01*
X-21251677Y-36700013D01*
X-21277113Y-36736129D01*
X-21304291Y-36770954D01*
X-21333144Y-36804403D01*
X-21363604Y-36836396D01*
X-21395597Y-36866856D01*
X-21429046Y-36895709D01*
X-21463871Y-36922887D01*
X-21499987Y-36948323D01*
X-21537308Y-36971956D01*
X-21575743Y-36993729D01*
X-21615200Y-37013590D01*
X-21655585Y-37031492D01*
X-21696799Y-37047390D01*
X-21738744Y-37061246D01*
X-21781318Y-37073028D01*
X-21824419Y-37082707D01*
X-21867943Y-37090259D01*
X-21911785Y-37095666D01*
X-21955839Y-37098916D01*
X-22000000Y-37100000D01*
X-22044161Y-37098916D01*
X-22088215Y-37095666D01*
X-22132057Y-37090259D01*
X-22175581Y-37082707D01*
X-22218682Y-37073028D01*
X-22261256Y-37061246D01*
X-22303201Y-37047390D01*
X-22344415Y-37031492D01*
X-22384800Y-37013590D01*
X-22424257Y-36993729D01*
X-22462692Y-36971956D01*
X-22500013Y-36948323D01*
X-22536129Y-36922887D01*
X-22570954Y-36895709D01*
X-22604403Y-36866856D01*
X-22636396Y-36836396D01*
X-22666856Y-36804403D01*
X-22695709Y-36770954D01*
X-22722887Y-36736129D01*
X-22748323Y-36700013D01*
X-22771956Y-36662692D01*
X-22793729Y-36624257D01*
X-22813590Y-36584800D01*
X-22831492Y-36544415D01*
X-22847390Y-36503201D01*
X-22861246Y-36461256D01*
X-22873028Y-36418682D01*
X-22882707Y-36375581D01*
X-22890259Y-36332057D01*
X-22895666Y-36288215D01*
X-22898916Y-36244161D01*
X-22900000Y-36200000D01*
X-22898916Y-36155839D01*
X-22895666Y-36111785D01*
X-22890259Y-36067943D01*
X-22882707Y-36024419D01*
X-22873028Y-35981318D01*
X-22861246Y-35938744D01*
X-22847390Y-35896799D01*
X-22831492Y-35855585D01*
X-22813590Y-35815200D01*
X-22793729Y-35775743D01*
X-22771956Y-35737308D01*
X-22748323Y-35699987D01*
X-22722887Y-35663871D01*
X-22695709Y-35629046D01*
X-22666856Y-35595597D01*
X-22636396Y-35563604D01*
X-22604403Y-35533144D01*
X-22570954Y-35504291D01*
X-22536129Y-35477113D01*
X-22500013Y-35451677D01*
X-22462692Y-35428044D01*
X-22424257Y-35406271D01*
X-22384800Y-35386410D01*
X-22344415Y-35368508D01*
X-22303201Y-35352610D01*
X-22261256Y-35338754D01*
X-22218682Y-35326972D01*
X-22175581Y-35317293D01*
X-22132057Y-35309741D01*
X-22088215Y-35304334D01*
X-22044161Y-35301084D01*
X-22000000Y-35300000D01*
X-21955839Y-35301084D01*
X-21911785Y-35304334D01*
X-21867943Y-35309741D01*
X-21824419Y-35317293D01*
X-21781318Y-35326972D01*
X-21738744Y-35338754D01*
X-21696799Y-35352610D01*
X-21655585Y-35368508D01*
X-21615200Y-35386410D01*
X-21575743Y-35406271D01*
X-21537308Y-35428044D01*
X-21499987Y-35451677D01*
X-21463871Y-35477113D01*
X-21429046Y-35504291D01*
X-21395597Y-35533144D01*
X-21363604Y-35563604D01*
X-21333144Y-35595597D01*
X-21304291Y-35629046D01*
X-21277113Y-35663871D01*
X-21251677Y-35699987D01*
X-21228044Y-35737308D01*
X-21206271Y-35775743D01*
X-21186410Y-35815200D01*
X-21168508Y-35855585D01*
X-21152610Y-35896799D01*
X-21138754Y-35938744D01*
X-21126972Y-35981318D01*
X-21117293Y-36024419D01*
X-21109741Y-36067943D01*
X-21104334Y-36111785D01*
X-21101084Y-36155839D01*
X-21100000Y-36200000D01*
X-21101084Y-36244161D01*
X-21104334Y-36288215D01*
X-21109741Y-36332057D01*
G37*
%LPD*%
M02*
