0
SECTION
2
HEADER
9
$INSUNITS
70
4
0
ENDSEC
0
SECTION
2
ENTITIES
0
POLYLINE
8
CUT
66
1
70
1
0
VERTEX
8
CUT
10
-28.5181
20
-69.2000
0
VERTEX
8
CUT
10
-28.5068
20
-69.1999
0
VERTEX
8
CUT
10
-28.5030
20
-69.1999
0
VERTEX
8
CUT
10
-28.4917
20
-69.1998
0
VERTEX
8
CUT
10
-28.4879
20
-69.1998
0
VERTEX
8
CUT
10
-28.4767
20
-69.1996
0
VERTEX
8
CUT
10
-28.4729
20
-69.1995
0
VERTEX
8
CUT
10
-28.3396
20
-69.1970
0
VERTEX
8
CUT
10
-28.3348
20
-69.1969
0
VERTEX
8
CUT
10
-28.3204
20
-69.1966
0
VERTEX
8
CUT
10
-28.3156
20
-69.1964
0
VERTEX
8
CUT
10
-28.3011
20
-69.1960
0
VERTEX
8
CUT
10
-28.2963
20
-69.1958
0
VERTEX
8
CUT
10
-28.2819
20
-69.1953
0
VERTEX
8
CUT
10
-28.2771
20
-69.1951
0
VERTEX
8
CUT
10
-27.6815
20
-69.1695
0
VERTEX
8
CUT
10
-27.6778
20
-69.1694
0
VERTEX
8
CUT
10
-27.6668
20
-69.1689
0
VERTEX
8
CUT
10
-27.6632
20
-69.1687
0
VERTEX
8
CUT
10
-27.6522
20
-69.1681
0
VERTEX
8
CUT
10
-27.6485
20
-69.1679
0
VERTEX
8
CUT
10
-27.6375
20
-69.1673
0
VERTEX
8
CUT
10
-27.6339
20
-69.1671
0
VERTEX
8
CUT
10
-26.9688
20
-69.1263
0
VERTEX
8
CUT
10
-26.9660
20
-69.1261
0
VERTEX
8
CUT
10
-26.9578
20
-69.1256
0
VERTEX
8
CUT
10
-26.9550
20
-69.1254
0
VERTEX
8
CUT
10
-26.9467
20
-69.1248
0
VERTEX
8
CUT
10
-26.9440
20
-69.1246
0
VERTEX
8
CUT
10
-26.9357
20
-69.1240
0
VERTEX
8
CUT
10
-26.9329
20
-69.1238
0
VERTEX
8
CUT
10
-26.2082
20
-69.0693
0
VERTEX
8
CUT
10
-26.2061
20
-69.0692
0
VERTEX
8
CUT
10
-26.2000
20
-69.0687
0
VERTEX
8
CUT
10
-26.1980
20
-69.0685
0
VERTEX
8
CUT
10
-26.1919
20
-69.0680
0
VERTEX
8
CUT
10
-26.1899
20
-69.0679
0
VERTEX
8
CUT
10
-26.1838
20
-69.0674
0
VERTEX
8
CUT
10
-26.1818
20
-69.0672
0
VERTEX
8
CUT
10
-25.4054
20
-69.0009
0
VERTEX
8
CUT
10
-25.4040
20
-69.0007
0
VERTEX
8
CUT
10
-25.3998
20
-69.0004
0
VERTEX
8
CUT
10
-25.3984
20
-69.0002
0
VERTEX
8
CUT
10
-25.3941
20
-68.9999
0
VERTEX
8
CUT
10
-25.3927
20
-68.9997
0
VERTEX
8
CUT
10
-25.3885
20
-68.9994
0
VERTEX
8
CUT
10
-25.3871
20
-68.9992
0
VERTEX
8
CUT
10
-24.5660
20
-68.9232
0
VERTEX
8
CUT
10
-24.5651
20
-68.9231
0
VERTEX
8
CUT
10
-24.5625
20
-68.9229
0
VERTEX
8
CUT
10
-24.5616
20
-68.9228
0
VERTEX
8
CUT
10
-24.5589
20
-68.9225
0
VERTEX
8
CUT
10
-24.5580
20
-68.9224
0
VERTEX
8
CUT
10
-24.5554
20
-68.9222
0
VERTEX
8
CUT
10
-24.5545
20
-68.9221
0
VERTEX
8
CUT
10
-23.6949
20
-68.8386
0
VERTEX
8
CUT
10
-23.6945
20
-68.8386
0
VERTEX
8
CUT
10
-23.6932
20
-68.8385
0
VERTEX
8
CUT
10
-23.6928
20
-68.8384
0
VERTEX
8
CUT
10
-23.6916
20
-68.8383
0
VERTEX
8
CUT
10
-23.6912
20
-68.8383
0
VERTEX
8
CUT
10
-23.6899
20
-68.8382
0
VERTEX
8
CUT
10
-23.6895
20
-68.8381
0
VERTEX
8
CUT
10
-22.7975
20
-68.7496
0
VERTEX
8
CUT
10
-22.7975
20
-68.7496
0
VERTEX
8
CUT
10
-22.7974
20
-68.7496
0
VERTEX
8
CUT
10
-22.7974
20
-68.7496
0
VERTEX
8
CUT
10
-22.7973
20
-68.7496
0
VERTEX
8
CUT
10
-22.7973
20
-68.7496
0
VERTEX
8
CUT
10
-22.7972
20
-68.7496
0
VERTEX
8
CUT
10
-22.7972
20
-68.7496
0
VERTEX
8
CUT
10
-22.7972
20
-68.7496
0
VERTEX
8
CUT
10
-22.7966
20
-68.7496
0
VERTEX
8
CUT
10
-22.7966
20
-68.7496
0
VERTEX
8
CUT
10
-22.7965
20
-68.7496
0
VERTEX
8
CUT
10
-22.7965
20
-68.7496
0
VERTEX
8
CUT
10
-22.7964
20
-68.7495
0
VERTEX
8
CUT
10
-22.7964
20
-68.7495
0
VERTEX
8
CUT
10
-21.8893
20
-68.6597
0
VERTEX
8
CUT
10
-21.8892
20
-68.6597
0
VERTEX
8
CUT
10
-21.8892
20
-68.6597
0
VERTEX
8
CUT
10
-21.8878
20
-68.6595
0
VERTEX
8
CUT
10
-21.8878
20
-68.6595
0
VERTEX
8
CUT
10
-21.8877
20
-68.6595
0
VERTEX
8
CUT
10
-21.8862
20
-68.6594
0
VERTEX
8
CUT
10
-21.8861
20
-68.6594
0
VERTEX
8
CUT
10
-21.8847
20
-68.6592
0
VERTEX
8
CUT
10
-21.8847
20
-68.6592
0
VERTEX
8
CUT
10
-21.8846
20
-68.6592
0
VERTEX
8
CUT
10
-21.8734
20
-68.6581
0
VERTEX
8
CUT
10
-21.8733
20
-68.6581
0
VERTEX
8
CUT
10
-21.8733
20
-68.6581
0
VERTEX
8
CUT
10
-21.8719
20
-68.6580
0
VERTEX
8
CUT
10
-21.8718
20
-68.6580
0
VERTEX
8
CUT
10
-21.8702
20
-68.6578
0
VERTEX
8
CUT
10
-21.8702
20
-68.6578
0
VERTEX
8
CUT
10
-21.8688
20
-68.6577
0
VERTEX
8
CUT
10
-21.8686
20
-68.6576
0
VERTEX
8
CUT
10
-21.8686
20
-68.6576
0
VERTEX
8
CUT
10
-20.9628
20
-68.5699
0
VERTEX
8
CUT
10
-20.9626
20
-68.5699
0
VERTEX
8
CUT
10
-20.9599
20
-68.5696
0
VERTEX
8
CUT
10
-20.9597
20
-68.5696
0
VERTEX
8
CUT
10
-20.9568
20
-68.5693
0
VERTEX
8
CUT
10
-20.9565
20
-68.5693
0
VERTEX
8
CUT
10
-20.9539
20
-68.5690
0
VERTEX
8
CUT
10
-20.9536
20
-68.5690
0
VERTEX
8
CUT
10
-20.9320
20
-68.5670
0
VERTEX
8
CUT
10
-20.9319
20
-68.5669
0
VERTEX
8
CUT
10
-20.9292
20
-68.5667
0
VERTEX
8
CUT
10
-20.9289
20
-68.5667
0
VERTEX
8
CUT
10
-20.9260
20
-68.5664
0
VERTEX
8
CUT
10
-20.9259
20
-68.5664
0
VERTEX
8
CUT
10
-20.9231
20
-68.5661
0
VERTEX
8
CUT
10
-20.9229
20
-68.5661
0
VERTEX
8
CUT
10
-20.0223
20
-68.4826
0
VERTEX
8
CUT
10
-20.0220
20
-68.4826
0
VERTEX
8
CUT
10
-20.0180
20
-68.4822
0
VERTEX
8
CUT
10
-20.0177
20
-68.4822
0
VERTEX
8
CUT
10
-20.0134
20
-68.4818
0
VERTEX
8
CUT
10
-20.0131
20
-68.4818
0
VERTEX
8
CUT
10
-20.0091
20
-68.4814
0
VERTEX
8
CUT
10
-20.0087
20
-68.4814
0
VERTEX
8
CUT
10
-19.9767
20
-68.4785
0
VERTEX
8
CUT
10
-19.9764
20
-68.4785
0
VERTEX
8
CUT
10
-19.9724
20
-68.4782
0
VERTEX
8
CUT
10
-19.9721
20
-68.4781
0
VERTEX
8
CUT
10
-19.9678
20
-68.4777
0
VERTEX
8
CUT
10
-19.9675
20
-68.4777
0
VERTEX
8
CUT
10
-19.9635
20
-68.4774
0
VERTEX
8
CUT
10
-19.9632
20
-68.4773
0
VERTEX
8
CUT
10
-19.0722
20
-68.4003
0
VERTEX
8
CUT
10
-19.0718
20
-68.4003
0
VERTEX
8
CUT
10
-19.0665
20
-68.3998
0
VERTEX
8
CUT
10
-19.0660
20
-68.3998
0
VERTEX
8
CUT
10
-19.0603
20
-68.3993
0
VERTEX
8
CUT
10
-19.0599
20
-68.3993
0
VERTEX
8
CUT
10
-19.0545
20
-68.3988
0
VERTEX
8
CUT
10
-19.0541
20
-68.3988
0
VERTEX
8
CUT
10
-19.0113
20
-68.3953
0
VERTEX
8
CUT
10
-19.0109
20
-68.3952
0
VERTEX
8
CUT
10
-19.0056
20
-68.3948
0
VERTEX
8
CUT
10
-19.0051
20
-68.3948
0
VERTEX
8
CUT
10
-18.9994
20
-68.3943
0
VERTEX
8
CUT
10
-18.9990
20
-68.3943
0
VERTEX
8
CUT
10
-18.9936
20
-68.3939
0
VERTEX
8
CUT
10
-18.9932
20
-68.3938
0
VERTEX
8
CUT
10
-18.1167
20
-68.3253
0
VERTEX
8
CUT
10
-18.1162
20
-68.3253
0
VERTEX
8
CUT
10
-18.1094
20
-68.3248
0
VERTEX
8
CUT
10
-18.1089
20
-68.3247
0
VERTEX
8
CUT
10
-18.1016
20
-68.3242
0
VERTEX
8
CUT
10
-18.1011
20
-68.3241
0
VERTEX
8
CUT
10
-18.0943
20
-68.3236
0
VERTEX
8
CUT
10
-18.0938
20
-68.3236
0
VERTEX
8
CUT
10
-18.0396
20
-68.3197
0
VERTEX
8
CUT
10
-18.0391
20
-68.3196
0
VERTEX
8
CUT
10
-18.0323
20
-68.3191
0
VERTEX
8
CUT
10
-18.0318
20
-68.3191
0
VERTEX
8
CUT
10
-18.0245
20
-68.3186
0
VERTEX
8
CUT
10
-18.0239
20
-68.3185
0
VERTEX
8
CUT
10
-18.0172
20
-68.3181
0
VERTEX
8
CUT
10
-18.0167
20
-68.3180
0
VERTEX
8
CUT
10
-17.1598
20
-68.2601
0
VERTEX
8
CUT
10
-17.1592
20
-68.2601
0
VERTEX
8
CUT
10
-17.1509
20
-68.2595
0
VERTEX
8
CUT
10
-17.1503
20
-68.2595
0
VERTEX
8
CUT
10
-17.1413
20
-68.2589
0
VERTEX
8
CUT
10
-17.1407
20
-68.2589
0
VERTEX
8
CUT
10
-17.1323
20
-68.2583
0
VERTEX
8
CUT
10
-17.1317
20
-68.2583
0
VERTEX
8
CUT
10
-17.0651
20
-68.2542
0
VERTEX
8
CUT
10
-17.0645
20
-68.2542
0
VERTEX
8
CUT
10
-17.0562
20
-68.2537
0
VERTEX
8
CUT
10
-17.0555
20
-68.2536
0
VERTEX
8
CUT
10
-17.0466
20
-68.2531
0
VERTEX
8
CUT
10
-17.0459
20
-68.2531
0
VERTEX
8
CUT
10
-17.0376
20
-68.2526
0
VERTEX
8
CUT
10
-17.0370
20
-68.2526
0
VERTEX
8
CUT
10
-16.1824
20
-68.2058
0
VERTEX
8
CUT
10
-16.1819
20
-68.2058
0
VERTEX
8
CUT
10
-16.1763
20
-68.2055
0
VERTEX
8
CUT
10
-16.1759
20
-68.2054
0
VERTEX
8
CUT
10
-16.1699
20
-68.2051
0
VERTEX
8
CUT
10
-16.1694
20
-68.2051
0
VERTEX
8
CUT
10
-16.1638
20
-68.2048
0
VERTEX
8
CUT
10
-16.1634
20
-68.2048
0
VERTEX
8
CUT
10
-16.1186
20
-68.2025
0
VERTEX
8
CUT
10
-16.1182
20
-68.2025
0
VERTEX
8
CUT
10
-16.1126
20
-68.2022
0
VERTEX
8
CUT
10
-16.1122
20
-68.2022
0
VERTEX
8
CUT
10
-16.1061
20
-68.2019
0
VERTEX
8
CUT
10
-16.1057
20
-68.2019
0
VERTEX
8
CUT
10
-16.1001
20
-68.2016
0
VERTEX
8
CUT
10
-16.0997
20
-68.2016
0
VERTEX
8
CUT
10
-15.2067
20
-68.1604
0
VERTEX
8
CUT
10
-15.2065
20
-68.1604
0
VERTEX
8
CUT
10
-15.2048
20
-68.1604
0
VERTEX
8
CUT
10
-15.2047
20
-68.1604
0
VERTEX
8
CUT
10
-15.2028
20
-68.1603
0
VERTEX
8
CUT
10
-15.2026
20
-68.1603
0
VERTEX
8
CUT
10
-15.2010
20
-68.1602
0
VERTEX
8
CUT
10
-15.2008
20
-68.1602
0
VERTEX
8
CUT
10
-15.1870
20
-68.1596
0
VERTEX
8
CUT
10
-15.1869
20
-68.1596
0
VERTEX
8
CUT
10
-15.1852
20
-68.1595
0
VERTEX
8
CUT
10
-15.1850
20
-68.1595
0
VERTEX
8
CUT
10
-15.1832
20
-68.1594
0
VERTEX
8
CUT
10
-15.1831
20
-68.1594
0
VERTEX
8
CUT
10
-15.1813
20
-68.1593
0
VERTEX
8
CUT
10
-15.1812
20
-68.1593
0
VERTEX
8
CUT
10
-14.2501
20
-68.1188
0
VERTEX
8
CUT
10
-14.2500
20
-68.1188
0
VERTEX
8
CUT
10
-14.2483
20
-68.1188
0
VERTEX
8
CUT
10
-14.2482
20
-68.1188
0
VERTEX
8
CUT
10
-14.2463
20
-68.1187
0
VERTEX
8
CUT
10
-14.2462
20
-68.1187
0
VERTEX
8
CUT
10
-14.2445
20
-68.1186
0
VERTEX
8
CUT
10
-14.2443
20
-68.1186
0
VERTEX
8
CUT
10
-14.2307
20
-68.1180
0
VERTEX
8
CUT
10
-14.2305
20
-68.1180
0
VERTEX
8
CUT
10
-14.2288
20
-68.1179
0
VERTEX
8
CUT
10
-14.2287
20
-68.1179
0
VERTEX
8
CUT
10
-14.2268
20
-68.1179
0
VERTEX
8
CUT
10
-14.2267
20
-68.1179
0
VERTEX
8
CUT
10
-14.2250
20
-68.1178
0
VERTEX
8
CUT
10
-14.2249
20
-68.1178
0
VERTEX
8
CUT
10
-13.2778
20
-68.0791
0
VERTEX
8
CUT
10
-13.2777
20
-68.0791
0
VERTEX
8
CUT
10
-13.2760
20
-68.0791
0
VERTEX
8
CUT
10
-13.2758
20
-68.0791
0
VERTEX
8
CUT
10
-13.2740
20
-68.0790
0
VERTEX
8
CUT
10
-13.2739
20
-68.0790
0
VERTEX
8
CUT
10
-13.2722
20
-68.0789
0
VERTEX
8
CUT
10
-13.2720
20
-68.0789
0
VERTEX
8
CUT
10
-13.2584
20
-68.0784
0
VERTEX
8
CUT
10
-13.2583
20
-68.0784
0
VERTEX
8
CUT
10
-13.2566
20
-68.0783
0
VERTEX
8
CUT
10
-13.2564
20
-68.0783
0
VERTEX
8
CUT
10
-13.2546
20
-68.0782
0
VERTEX
8
CUT
10
-13.2545
20
-68.0782
0
VERTEX
8
CUT
10
-13.2528
20
-68.0781
0
VERTEX
8
CUT
10
-13.2526
20
-68.0781
0
VERTEX
8
CUT
10
-12.2916
20
-68.0414
0
VERTEX
8
CUT
10
-12.2915
20
-68.0414
0
VERTEX
8
CUT
10
-12.2897
20
-68.0414
0
VERTEX
8
CUT
10
-12.2896
20
-68.0414
0
VERTEX
8
CUT
10
-12.2877
20
-68.0413
0
VERTEX
8
CUT
10
-12.2876
20
-68.0413
0
VERTEX
8
CUT
10
-12.2859
20
-68.0412
0
VERTEX
8
CUT
10
-12.2858
20
-68.0412
0
VERTEX
8
CUT
10
-12.2721
20
-68.0407
0
VERTEX
8
CUT
10
-12.2719
20
-68.0407
0
VERTEX
8
CUT
10
-12.2703
20
-68.0407
0
VERTEX
8
CUT
10
-12.2701
20
-68.0406
0
VERTEX
8
CUT
10
-12.2683
20
-68.0406
0
VERTEX
8
CUT
10
-12.2681
20
-68.0406
0
VERTEX
8
CUT
10
-12.2664
20
-68.0405
0
VERTEX
8
CUT
10
-12.2663
20
-68.0405
0
VERTEX
8
CUT
10
-11.2931
20
-68.0059
0
VERTEX
8
CUT
10
-11.2930
20
-68.0059
0
VERTEX
8
CUT
10
-11.2913
20
-68.0059
0
VERTEX
8
CUT
10
-11.2911
20
-68.0059
0
VERTEX
8
CUT
10
-11.2892
20
-68.0058
0
VERTEX
8
CUT
10
-11.2891
20
-68.0058
0
VERTEX
8
CUT
10
-11.2874
20
-68.0057
0
VERTEX
8
CUT
10
-11.2873
20
-68.0057
0
VERTEX
8
CUT
10
-11.2735
20
-68.0052
0
VERTEX
8
CUT
10
-11.2733
20
-68.0052
0
VERTEX
8
CUT
10
-11.2717
20
-68.0052
0
VERTEX
8
CUT
10
-11.2715
20
-68.0052
0
VERTEX
8
CUT
10
-11.2696
20
-68.0051
0
VERTEX
8
CUT
10
-11.2695
20
-68.0051
0
VERTEX
8
CUT
10
-11.2678
20
-68.0051
0
VERTEX
8
CUT
10
-11.2676
20
-68.0050
0
VERTEX
8
CUT
10
-10.2843
20
-67.9727
0
VERTEX
8
CUT
10
-10.2842
20
-67.9727
0
VERTEX
8
CUT
10
-10.2824
20
-67.9727
0
VERTEX
8
CUT
10
-10.2823
20
-67.9726
0
VERTEX
8
CUT
10
-10.2804
20
-67.9726
0
VERTEX
8
CUT
10
-10.2802
20
-67.9726
0
VERTEX
8
CUT
10
-10.2785
20
-67.9725
0
VERTEX
8
CUT
10
-10.2783
20
-67.9725
0
VERTEX
8
CUT
10
-10.2644
20
-67.9721
0
VERTEX
8
CUT
10
-10.2642
20
-67.9721
0
VERTEX
8
CUT
10
-10.2625
20
-67.9720
0
VERTEX
8
CUT
10
-10.2624
20
-67.9720
0
VERTEX
8
CUT
10
-10.2605
20
-67.9720
0
VERTEX
8
CUT
10
-10.2603
20
-67.9720
0
VERTEX
8
CUT
10
-10.2586
20
-67.9719
0
VERTEX
8
CUT
10
-10.2585
20
-67.9719
0
VERTEX
8
CUT
10
-9.2668
20
-67.9420
0
VERTEX
8
CUT
10
-9.2667
20
-67.9420
0
VERTEX
8
CUT
10
-9.2649
20
-67.9419
0
VERTEX
8
CUT
10
-9.2648
20
-67.9419
0
VERTEX
8
CUT
10
-9.2629
20
-67.9418
0
VERTEX
8
CUT
10
-9.2627
20
-67.9418
0
VERTEX
8
CUT
10
-9.2609
20
-67.9418
0
VERTEX
8
CUT
10
-9.2608
20
-67.9418
0
VERTEX
8
CUT
10
-9.2466
20
-67.9414
0
VERTEX
8
CUT
10
-9.2464
20
-67.9414
0
VERTEX
8
CUT
10
-9.2447
20
-67.9413
0
VERTEX
8
CUT
10
-9.2445
20
-67.9413
0
VERTEX
8
CUT
10
-9.2426
20
-67.9413
0
VERTEX
8
CUT
10
-9.2425
20
-67.9413
0
VERTEX
8
CUT
10
-9.2407
20
-67.9412
0
VERTEX
8
CUT
10
-9.2405
20
-67.9412
0
VERTEX
8
CUT
10
-8.2426
20
-67.9138
0
VERTEX
8
CUT
10
-8.2425
20
-67.9138
0
VERTEX
8
CUT
10
-8.2406
20
-67.9138
0
VERTEX
8
CUT
10
-8.2405
20
-67.9138
0
VERTEX
8
CUT
10
-8.2385
20
-67.9137
0
VERTEX
8
CUT
10
-8.2384
20
-67.9137
0
VERTEX
8
CUT
10
-8.2366
20
-67.9137
0
VERTEX
8
CUT
10
-8.2364
20
-67.9137
0
VERTEX
8
CUT
10
-8.2218
20
-67.9133
0
VERTEX
8
CUT
10
-8.2217
20
-67.9133
0
VERTEX
8
CUT
10
-8.2199
20
-67.9132
0
VERTEX
8
CUT
10
-8.2198
20
-67.9132
0
VERTEX
8
CUT
10
-8.2178
20
-67.9132
0
VERTEX
8
CUT
10
-8.2176
20
-67.9132
0
VERTEX
8
CUT
10
-8.2158
20
-67.9131
0
VERTEX
8
CUT
10
-8.2157
20
-67.9131
0
VERTEX
8
CUT
10
-7.2133
20
-67.8884
0
VERTEX
8
CUT
10
-7.2132
20
-67.8884
0
VERTEX
8
CUT
10
-7.2113
20
-67.8884
0
VERTEX
8
CUT
10
-7.2112
20
-67.8884
0
VERTEX
8
CUT
10
-7.2092
20
-67.8883
0
VERTEX
8
CUT
10
-7.2090
20
-67.8883
0
VERTEX
8
CUT
10
-7.2072
20
-67.8883
0
VERTEX
8
CUT
10
-7.2070
20
-67.8883
0
VERTEX
8
CUT
10
-7.1920
20
-67.8879
0
VERTEX
8
CUT
10
-7.1918
20
-67.8879
0
VERTEX
8
CUT
10
-7.1900
20
-67.8879
0
VERTEX
8
CUT
10
-7.1899
20
-67.8879
0
VERTEX
8
CUT
10
-7.1879
20
-67.8878
0
VERTEX
8
CUT
10
-7.1877
20
-67.8878
0
VERTEX
8
CUT
10
-7.1858
20
-67.8878
0
VERTEX
8
CUT
10
-7.1857
20
-67.8878
0
VERTEX
8
CUT
10
-6.1809
20
-67.8659
0
VERTEX
8
CUT
10
-6.1807
20
-67.8659
0
VERTEX
8
CUT
10
-6.1788
20
-67.8659
0
VERTEX
8
CUT
10
-6.1786
20
-67.8659
0
VERTEX
8
CUT
10
-6.1765
20
-67.8658
0
VERTEX
8
CUT
10
-6.1764
20
-67.8658
0
VERTEX
8
CUT
10
-6.1745
20
-67.8658
0
VERTEX
8
CUT
10
-6.1743
20
-67.8658
0
VERTEX
8
CUT
10
-6.1588
20
-67.8655
0
VERTEX
8
CUT
10
-6.1587
20
-67.8655
0
VERTEX
8
CUT
10
-6.1568
20
-67.8654
0
VERTEX
8
CUT
10
-6.1566
20
-67.8654
0
VERTEX
8
CUT
10
-6.1546
20
-67.8654
0
VERTEX
8
CUT
10
-6.1544
20
-67.8654
0
VERTEX
8
CUT
10
-6.1525
20
-67.8653
0
VERTEX
8
CUT
10
-6.1523
20
-67.8653
0
VERTEX
8
CUT
10
-5.1469
20
-67.8465
0
VERTEX
8
CUT
10
-5.1468
20
-67.8465
0
VERTEX
8
CUT
10
-5.1448
20
-67.8464
0
VERTEX
8
CUT
10
-5.1446
20
-67.8464
0
VERTEX
8
CUT
10
-5.1425
20
-67.8464
0
VERTEX
8
CUT
10
-5.1423
20
-67.8464
0
VERTEX
8
CUT
10
-5.1403
20
-67.8463
0
VERTEX
8
CUT
10
-5.1402
20
-67.8463
0
VERTEX
8
CUT
10
-5.1242
20
-67.8461
0
VERTEX
8
CUT
10
-5.1240
20
-67.8461
0
VERTEX
8
CUT
10
-5.1220
20
-67.8460
0
VERTEX
8
CUT
10
-5.1219
20
-67.8460
0
VERTEX
8
CUT
10
-5.1197
20
-67.8460
0
VERTEX
8
CUT
10
-5.1195
20
-67.8460
0
VERTEX
8
CUT
10
-5.1176
20
-67.8460
0
VERTEX
8
CUT
10
-5.1174
20
-67.8460
0
VERTEX
8
CUT
10
-4.1134
20
-67.8302
0
VERTEX
8
CUT
10
-4.1132
20
-67.8302
0
VERTEX
8
CUT
10
-4.1112
20
-67.8302
0
VERTEX
8
CUT
10
-4.1110
20
-67.8302
0
VERTEX
8
CUT
10
-4.1088
20
-67.8301
0
VERTEX
8
CUT
10
-4.1086
20
-67.8301
0
VERTEX
8
CUT
10
-4.1065
20
-67.8301
0
VERTEX
8
CUT
10
-4.1064
20
-67.8301
0
VERTEX
8
CUT
10
-4.0897
20
-67.8299
0
VERTEX
8
CUT
10
-4.0895
20
-67.8299
0
VERTEX
8
CUT
10
-4.0875
20
-67.8298
0
VERTEX
8
CUT
10
-4.0873
20
-67.8298
0
VERTEX
8
CUT
10
-4.0850
20
-67.8298
0
VERTEX
8
CUT
10
-4.0849
20
-67.8298
0
VERTEX
8
CUT
10
-4.0828
20
-67.8298
0
VERTEX
8
CUT
10
-4.0826
20
-67.8298
0
VERTEX
8
CUT
10
-3.0820
20
-67.8173
0
VERTEX
8
CUT
10
-3.0819
20
-67.8173
0
VERTEX
8
CUT
10
-3.0797
20
-67.8173
0
VERTEX
8
CUT
10
-3.0795
20
-67.8172
0
VERTEX
8
CUT
10
-3.0772
20
-67.8172
0
VERTEX
8
CUT
10
-3.0770
20
-67.8172
0
VERTEX
8
CUT
10
-3.0749
20
-67.8172
0
VERTEX
8
CUT
10
-3.0747
20
-67.8172
0
VERTEX
8
CUT
10
-3.0573
20
-67.8170
0
VERTEX
8
CUT
10
-3.0571
20
-67.8170
0
VERTEX
8
CUT
10
-3.0549
20
-67.8170
0
VERTEX
8
CUT
10
-3.0547
20
-67.8170
0
VERTEX
8
CUT
10
-3.0524
20
-67.8170
0
VERTEX
8
CUT
10
-3.0523
20
-67.8170
0
VERTEX
8
CUT
10
-3.0500
20
-67.8169
0
VERTEX
8
CUT
10
-3.0499
20
-67.8169
0
VERTEX
8
CUT
10
-2.0546
20
-67.8078
0
VERTEX
8
CUT
10
-2.0544
20
-67.8078
0
VERTEX
8
CUT
10
-2.0522
20
-67.8078
0
VERTEX
8
CUT
10
-2.0520
20
-67.8078
0
VERTEX
8
CUT
10
-2.0495
20
-67.8078
0
VERTEX
8
CUT
10
-2.0493
20
-67.8078
0
VERTEX
8
CUT
10
-2.0470
20
-67.8078
0
VERTEX
8
CUT
10
-2.0469
20
-67.8078
0
VERTEX
8
CUT
10
-2.0286
20
-67.8076
0
VERTEX
8
CUT
10
-2.0284
20
-67.8076
0
VERTEX
8
CUT
10
-2.0261
20
-67.8076
0
VERTEX
8
CUT
10
-2.0260
20
-67.8076
0
VERTEX
8
CUT
10
-2.0235
20
-67.8076
0
VERTEX
8
CUT
10
-2.0233
20
-67.8076
0
VERTEX
8
CUT
10
-2.0211
20
-67.8076
0
VERTEX
8
CUT
10
-2.0208
20
-67.8076
0
VERTEX
8
CUT
10
-1.0329
20
-67.8020
0
VERTEX
8
CUT
10
-1.0327
20
-67.8020
0
VERTEX
8
CUT
10
-1.0303
20
-67.8020
0
VERTEX
8
CUT
10
-1.0301
20
-67.8020
0
VERTEX
8
CUT
10
-1.0275
20
-67.8020
0
VERTEX
8
CUT
10
-1.0273
20
-67.8020
0
VERTEX
8
CUT
10
-1.0249
20
-67.8020
0
VERTEX
8
CUT
10
-1.0248
20
-67.8020
0
VERTEX
8
CUT
10
-1.0055
20
-67.8019
0
VERTEX
8
CUT
10
-1.0053
20
-67.8019
0
VERTEX
8
CUT
10
-1.0029
20
-67.8019
0
VERTEX
8
CUT
10
-1.0027
20
-67.8019
0
VERTEX
8
CUT
10
-1.0002
20
-67.8019
0
VERTEX
8
CUT
10
-0.9999
20
-67.8019
0
VERTEX
8
CUT
10
-0.9976
20
-67.8019
0
VERTEX
8
CUT
10
-0.9974
20
-67.8019
0
VERTEX
8
CUT
10
-0.0184
20
-67.8000
0
VERTEX
8
CUT
10
-0.0182
20
-67.8000
0
VERTEX
8
CUT
10
-0.0158
20
-67.8000
0
VERTEX
8
CUT
10
-0.0155
20
-67.8000
0
VERTEX
8
CUT
10
-0.0129
20
-67.8000
0
VERTEX
8
CUT
10
-0.0127
20
-67.8000
0
VERTEX
8
CUT
10
-0.0102
20
-67.8000
0
VERTEX
8
CUT
10
-0.0100
20
-67.8000
0
VERTEX
8
CUT
10
0.0100
20
-67.8000
0
VERTEX
8
CUT
10
0.0102
20
-67.8000
0
VERTEX
8
CUT
10
0.0127
20
-67.8000
0
VERTEX
8
CUT
10
0.0129
20
-67.8000
0
VERTEX
8
CUT
10
0.0155
20
-67.8000
0
VERTEX
8
CUT
10
0.0158
20
-67.8000
0
VERTEX
8
CUT
10
0.0182
20
-67.8000
0
VERTEX
8
CUT
10
0.0184
20
-67.8000
0
VERTEX
8
CUT
10
0.9974
20
-67.8019
0
VERTEX
8
CUT
10
0.9976
20
-67.8019
0
VERTEX
8
CUT
10
0.9999
20
-67.8019
0
VERTEX
8
CUT
10
1.0002
20
-67.8019
0
VERTEX
8
CUT
10
1.0027
20
-67.8019
0
VERTEX
8
CUT
10
1.0029
20
-67.8019
0
VERTEX
8
CUT
10
1.0053
20
-67.8019
0
VERTEX
8
CUT
10
1.0055
20
-67.8019
0
VERTEX
8
CUT
10
1.0248
20
-67.8020
0
VERTEX
8
CUT
10
1.0249
20
-67.8020
0
VERTEX
8
CUT
10
1.0273
20
-67.8020
0
VERTEX
8
CUT
10
1.0275
20
-67.8020
0
VERTEX
8
CUT
10
1.0301
20
-67.8020
0
VERTEX
8
CUT
10
1.0303
20
-67.8020
0
VERTEX
8
CUT
10
1.0327
20
-67.8020
0
VERTEX
8
CUT
10
1.0329
20
-67.8020
0
VERTEX
8
CUT
10
2.0208
20
-67.8076
0
VERTEX
8
CUT
10
2.0211
20
-67.8076
0
VERTEX
8
CUT
10
2.0233
20
-67.8076
0
VERTEX
8
CUT
10
2.0235
20
-67.8076
0
VERTEX
8
CUT
10
2.0260
20
-67.8076
0
VERTEX
8
CUT
10
2.0261
20
-67.8076
0
VERTEX
8
CUT
10
2.0284
20
-67.8076
0
VERTEX
8
CUT
10
2.0286
20
-67.8076
0
VERTEX
8
CUT
10
2.0469
20
-67.8078
0
VERTEX
8
CUT
10
2.0470
20
-67.8078
0
VERTEX
8
CUT
10
2.0493
20
-67.8078
0
VERTEX
8
CUT
10
2.0495
20
-67.8078
0
VERTEX
8
CUT
10
2.0520
20
-67.8078
0
VERTEX
8
CUT
10
2.0522
20
-67.8078
0
VERTEX
8
CUT
10
2.0544
20
-67.8078
0
VERTEX
8
CUT
10
2.0546
20
-67.8078
0
VERTEX
8
CUT
10
3.0499
20
-67.8169
0
VERTEX
8
CUT
10
3.0500
20
-67.8169
0
VERTEX
8
CUT
10
3.0523
20
-67.8170
0
VERTEX
8
CUT
10
3.0524
20
-67.8170
0
VERTEX
8
CUT
10
3.0547
20
-67.8170
0
VERTEX
8
CUT
10
3.0549
20
-67.8170
0
VERTEX
8
CUT
10
3.0571
20
-67.8170
0
VERTEX
8
CUT
10
3.0573
20
-67.8170
0
VERTEX
8
CUT
10
3.0747
20
-67.8172
0
VERTEX
8
CUT
10
3.0749
20
-67.8172
0
VERTEX
8
CUT
10
3.0770
20
-67.8172
0
VERTEX
8
CUT
10
3.0772
20
-67.8172
0
VERTEX
8
CUT
10
3.0795
20
-67.8172
0
VERTEX
8
CUT
10
3.0797
20
-67.8173
0
VERTEX
8
CUT
10
3.0819
20
-67.8173
0
VERTEX
8
CUT
10
3.0820
20
-67.8173
0
VERTEX
8
CUT
10
4.0826
20
-67.8298
0
VERTEX
8
CUT
10
4.0828
20
-67.8298
0
VERTEX
8
CUT
10
4.0849
20
-67.8298
0
VERTEX
8
CUT
10
4.0850
20
-67.8298
0
VERTEX
8
CUT
10
4.0873
20
-67.8298
0
VERTEX
8
CUT
10
4.0875
20
-67.8298
0
VERTEX
8
CUT
10
4.0895
20
-67.8299
0
VERTEX
8
CUT
10
4.0897
20
-67.8299
0
VERTEX
8
CUT
10
4.1064
20
-67.8301
0
VERTEX
8
CUT
10
4.1065
20
-67.8301
0
VERTEX
8
CUT
10
4.1086
20
-67.8301
0
VERTEX
8
CUT
10
4.1088
20
-67.8301
0
VERTEX
8
CUT
10
4.1110
20
-67.8302
0
VERTEX
8
CUT
10
4.1112
20
-67.8302
0
VERTEX
8
CUT
10
4.1132
20
-67.8302
0
VERTEX
8
CUT
10
4.1134
20
-67.8302
0
VERTEX
8
CUT
10
5.1174
20
-67.8460
0
VERTEX
8
CUT
10
5.1176
20
-67.8460
0
VERTEX
8
CUT
10
5.1195
20
-67.8460
0
VERTEX
8
CUT
10
5.1197
20
-67.8460
0
VERTEX
8
CUT
10
5.1219
20
-67.8460
0
VERTEX
8
CUT
10
5.1220
20
-67.8460
0
VERTEX
8
CUT
10
5.1240
20
-67.8461
0
VERTEX
8
CUT
10
5.1242
20
-67.8461
0
VERTEX
8
CUT
10
5.1402
20
-67.8463
0
VERTEX
8
CUT
10
5.1403
20
-67.8463
0
VERTEX
8
CUT
10
5.1423
20
-67.8464
0
VERTEX
8
CUT
10
5.1425
20
-67.8464
0
VERTEX
8
CUT
10
5.1446
20
-67.8464
0
VERTEX
8
CUT
10
5.1448
20
-67.8464
0
VERTEX
8
CUT
10
5.1468
20
-67.8465
0
VERTEX
8
CUT
10
5.1469
20
-67.8465
0
VERTEX
8
CUT
10
6.1523
20
-67.8653
0
VERTEX
8
CUT
10
6.1525
20
-67.8653
0
VERTEX
8
CUT
10
6.1544
20
-67.8654
0
VERTEX
8
CUT
10
6.1546
20
-67.8654
0
VERTEX
8
CUT
10
6.1566
20
-67.8654
0
VERTEX
8
CUT
10
6.1568
20
-67.8654
0
VERTEX
8
CUT
10
6.1587
20
-67.8655
0
VERTEX
8
CUT
10
6.1588
20
-67.8655
0
VERTEX
8
CUT
10
6.1743
20
-67.8658
0
VERTEX
8
CUT
10
6.1745
20
-67.8658
0
VERTEX
8
CUT
10
6.1764
20
-67.8658
0
VERTEX
8
CUT
10
6.1765
20
-67.8658
0
VERTEX
8
CUT
10
6.1786
20
-67.8659
0
VERTEX
8
CUT
10
6.1788
20
-67.8659
0
VERTEX
8
CUT
10
6.1807
20
-67.8659
0
VERTEX
8
CUT
10
6.1809
20
-67.8659
0
VERTEX
8
CUT
10
7.1857
20
-67.8878
0
VERTEX
8
CUT
10
7.1858
20
-67.8878
0
VERTEX
8
CUT
10
7.1877
20
-67.8878
0
VERTEX
8
CUT
10
7.1879
20
-67.8878
0
VERTEX
8
CUT
10
7.1899
20
-67.8879
0
VERTEX
8
CUT
10
7.1900
20
-67.8879
0
VERTEX
8
CUT
10
7.1918
20
-67.8879
0
VERTEX
8
CUT
10
7.1920
20
-67.8879
0
VERTEX
8
CUT
10
7.2070
20
-67.8883
0
VERTEX
8
CUT
10
7.2072
20
-67.8883
0
VERTEX
8
CUT
10
7.2090
20
-67.8883
0
VERTEX
8
CUT
10
7.2092
20
-67.8883
0
VERTEX
8
CUT
10
7.2112
20
-67.8884
0
VERTEX
8
CUT
10
7.2113
20
-67.8884
0
VERTEX
8
CUT
10
7.2132
20
-67.8884
0
VERTEX
8
CUT
10
7.2133
20
-67.8884
0
VERTEX
8
CUT
10
8.2157
20
-67.9131
0
VERTEX
8
CUT
10
8.2158
20
-67.9131
0
VERTEX
8
CUT
10
8.2176
20
-67.9132
0
VERTEX
8
CUT
10
8.2178
20
-67.9132
0
VERTEX
8
CUT
10
8.2198
20
-67.9132
0
VERTEX
8
CUT
10
8.2199
20
-67.9132
0
VERTEX
8
CUT
10
8.2217
20
-67.9133
0
VERTEX
8
CUT
10
8.2218
20
-67.9133
0
VERTEX
8
CUT
10
8.2364
20
-67.9137
0
VERTEX
8
CUT
10
8.2366
20
-67.9137
0
VERTEX
8
CUT
10
8.2384
20
-67.9137
0
VERTEX
8
CUT
10
8.2385
20
-67.9137
0
VERTEX
8
CUT
10
8.2405
20
-67.9138
0
VERTEX
8
CUT
10
8.2406
20
-67.9138
0
VERTEX
8
CUT
10
8.2425
20
-67.9138
0
VERTEX
8
CUT
10
8.2426
20
-67.9138
0
VERTEX
8
CUT
10
9.2405
20
-67.9412
0
VERTEX
8
CUT
10
9.2407
20
-67.9412
0
VERTEX
8
CUT
10
9.2425
20
-67.9413
0
VERTEX
8
CUT
10
9.2426
20
-67.9413
0
VERTEX
8
CUT
10
9.2445
20
-67.9413
0
VERTEX
8
CUT
10
9.2447
20
-67.9413
0
VERTEX
8
CUT
10
9.2464
20
-67.9414
0
VERTEX
8
CUT
10
9.2466
20
-67.9414
0
VERTEX
8
CUT
10
9.2608
20
-67.9418
0
VERTEX
8
CUT
10
9.2609
20
-67.9418
0
VERTEX
8
CUT
10
9.2627
20
-67.9418
0
VERTEX
8
CUT
10
9.2629
20
-67.9418
0
VERTEX
8
CUT
10
9.2648
20
-67.9419
0
VERTEX
8
CUT
10
9.2649
20
-67.9419
0
VERTEX
8
CUT
10
9.2667
20
-67.9420
0
VERTEX
8
CUT
10
9.2668
20
-67.9420
0
VERTEX
8
CUT
10
10.2585
20
-67.9719
0
VERTEX
8
CUT
10
10.2586
20
-67.9719
0
VERTEX
8
CUT
10
10.2603
20
-67.9720
0
VERTEX
8
CUT
10
10.2605
20
-67.9720
0
VERTEX
8
CUT
10
10.2624
20
-67.9720
0
VERTEX
8
CUT
10
10.2625
20
-67.9720
0
VERTEX
8
CUT
10
10.2642
20
-67.9721
0
VERTEX
8
CUT
10
10.2644
20
-67.9721
0
VERTEX
8
CUT
10
10.2783
20
-67.9725
0
VERTEX
8
CUT
10
10.2785
20
-67.9725
0
VERTEX
8
CUT
10
10.2802
20
-67.9726
0
VERTEX
8
CUT
10
10.2804
20
-67.9726
0
VERTEX
8
CUT
10
10.2823
20
-67.9726
0
VERTEX
8
CUT
10
10.2824
20
-67.9727
0
VERTEX
8
CUT
10
10.2842
20
-67.9727
0
VERTEX
8
CUT
10
10.2843
20
-67.9727
0
VERTEX
8
CUT
10
11.2676
20
-68.0050
0
VERTEX
8
CUT
10
11.2678
20
-68.0051
0
VERTEX
8
CUT
10
11.2695
20
-68.0051
0
VERTEX
8
CUT
10
11.2696
20
-68.0051
0
VERTEX
8
CUT
10
11.2715
20
-68.0052
0
VERTEX
8
CUT
10
11.2717
20
-68.0052
0
VERTEX
8
CUT
10
11.2733
20
-68.0052
0
VERTEX
8
CUT
10
11.2735
20
-68.0052
0
VERTEX
8
CUT
10
11.2873
20
-68.0057
0
VERTEX
8
CUT
10
11.2874
20
-68.0057
0
VERTEX
8
CUT
10
11.2891
20
-68.0058
0
VERTEX
8
CUT
10
11.2892
20
-68.0058
0
VERTEX
8
CUT
10
11.2911
20
-68.0059
0
VERTEX
8
CUT
10
11.2913
20
-68.0059
0
VERTEX
8
CUT
10
11.2930
20
-68.0059
0
VERTEX
8
CUT
10
11.2931
20
-68.0059
0
VERTEX
8
CUT
10
12.2663
20
-68.0405
0
VERTEX
8
CUT
10
12.2664
20
-68.0405
0
VERTEX
8
CUT
10
12.2681
20
-68.0406
0
VERTEX
8
CUT
10
12.2683
20
-68.0406
0
VERTEX
8
CUT
10
12.2701
20
-68.0406
0
VERTEX
8
CUT
10
12.2703
20
-68.0407
0
VERTEX
8
CUT
10
12.2719
20
-68.0407
0
VERTEX
8
CUT
10
12.2721
20
-68.0407
0
VERTEX
8
CUT
10
12.2858
20
-68.0412
0
VERTEX
8
CUT
10
12.2859
20
-68.0412
0
VERTEX
8
CUT
10
12.2876
20
-68.0413
0
VERTEX
8
CUT
10
12.2877
20
-68.0413
0
VERTEX
8
CUT
10
12.2896
20
-68.0414
0
VERTEX
8
CUT
10
12.2897
20
-68.0414
0
VERTEX
8
CUT
10
12.2915
20
-68.0414
0
VERTEX
8
CUT
10
12.2916
20
-68.0414
0
VERTEX
8
CUT
10
13.2526
20
-68.0781
0
VERTEX
8
CUT
10
13.2528
20
-68.0781
0
VERTEX
8
CUT
10
13.2545
20
-68.0782
0
VERTEX
8
CUT
10
13.2546
20
-68.0782
0
VERTEX
8
CUT
10
13.2564
20
-68.0783
0
VERTEX
8
CUT
10
13.2566
20
-68.0783
0
VERTEX
8
CUT
10
13.2583
20
-68.0784
0
VERTEX
8
CUT
10
13.2584
20
-68.0784
0
VERTEX
8
CUT
10
13.2720
20
-68.0789
0
VERTEX
8
CUT
10
13.2722
20
-68.0789
0
VERTEX
8
CUT
10
13.2739
20
-68.0790
0
VERTEX
8
CUT
10
13.2740
20
-68.0790
0
VERTEX
8
CUT
10
13.2758
20
-68.0791
0
VERTEX
8
CUT
10
13.2760
20
-68.0791
0
VERTEX
8
CUT
10
13.2777
20
-68.0791
0
VERTEX
8
CUT
10
13.2778
20
-68.0791
0
VERTEX
8
CUT
10
14.2249
20
-68.1178
0
VERTEX
8
CUT
10
14.2250
20
-68.1178
0
VERTEX
8
CUT
10
14.2267
20
-68.1179
0
VERTEX
8
CUT
10
14.2268
20
-68.1179
0
VERTEX
8
CUT
10
14.2287
20
-68.1179
0
VERTEX
8
CUT
10
14.2288
20
-68.1179
0
VERTEX
8
CUT
10
14.2305
20
-68.1180
0
VERTEX
8
CUT
10
14.2307
20
-68.1180
0
VERTEX
8
CUT
10
14.2443
20
-68.1186
0
VERTEX
8
CUT
10
14.2445
20
-68.1186
0
VERTEX
8
CUT
10
14.2462
20
-68.1187
0
VERTEX
8
CUT
10
14.2463
20
-68.1187
0
VERTEX
8
CUT
10
14.2482
20
-68.1188
0
VERTEX
8
CUT
10
14.2483
20
-68.1188
0
VERTEX
8
CUT
10
14.2500
20
-68.1188
0
VERTEX
8
CUT
10
14.2501
20
-68.1188
0
VERTEX
8
CUT
10
15.1812
20
-68.1593
0
VERTEX
8
CUT
10
15.1813
20
-68.1593
0
VERTEX
8
CUT
10
15.1831
20
-68.1594
0
VERTEX
8
CUT
10
15.1832
20
-68.1594
0
VERTEX
8
CUT
10
15.1850
20
-68.1595
0
VERTEX
8
CUT
10
15.1852
20
-68.1595
0
VERTEX
8
CUT
10
15.1869
20
-68.1596
0
VERTEX
8
CUT
10
15.1870
20
-68.1596
0
VERTEX
8
CUT
10
15.2008
20
-68.1602
0
VERTEX
8
CUT
10
15.2010
20
-68.1602
0
VERTEX
8
CUT
10
15.2026
20
-68.1603
0
VERTEX
8
CUT
10
15.2028
20
-68.1603
0
VERTEX
8
CUT
10
15.2047
20
-68.1604
0
VERTEX
8
CUT
10
15.2048
20
-68.1604
0
VERTEX
8
CUT
10
15.2065
20
-68.1604
0
VERTEX
8
CUT
10
15.2067
20
-68.1604
0
VERTEX
8
CUT
10
16.0997
20
-68.2016
0
VERTEX
8
CUT
10
16.1001
20
-68.2016
0
VERTEX
8
CUT
10
16.1057
20
-68.2019
0
VERTEX
8
CUT
10
16.1061
20
-68.2019
0
VERTEX
8
CUT
10
16.1122
20
-68.2022
0
VERTEX
8
CUT
10
16.1126
20
-68.2022
0
VERTEX
8
CUT
10
16.1182
20
-68.2025
0
VERTEX
8
CUT
10
16.1186
20
-68.2025
0
VERTEX
8
CUT
10
16.1634
20
-68.2048
0
VERTEX
8
CUT
10
16.1638
20
-68.2048
0
VERTEX
8
CUT
10
16.1694
20
-68.2051
0
VERTEX
8
CUT
10
16.1699
20
-68.2051
0
VERTEX
8
CUT
10
16.1759
20
-68.2054
0
VERTEX
8
CUT
10
16.1763
20
-68.2055
0
VERTEX
8
CUT
10
16.1819
20
-68.2058
0
VERTEX
8
CUT
10
16.1824
20
-68.2058
0
VERTEX
8
CUT
10
17.0370
20
-68.2526
0
VERTEX
8
CUT
10
17.0376
20
-68.2526
0
VERTEX
8
CUT
10
17.0459
20
-68.2531
0
VERTEX
8
CUT
10
17.0466
20
-68.2531
0
VERTEX
8
CUT
10
17.0555
20
-68.2536
0
VERTEX
8
CUT
10
17.0562
20
-68.2537
0
VERTEX
8
CUT
10
17.0645
20
-68.2542
0
VERTEX
8
CUT
10
17.0651
20
-68.2542
0
VERTEX
8
CUT
10
17.1317
20
-68.2583
0
VERTEX
8
CUT
10
17.1323
20
-68.2583
0
VERTEX
8
CUT
10
17.1407
20
-68.2589
0
VERTEX
8
CUT
10
17.1413
20
-68.2589
0
VERTEX
8
CUT
10
17.1503
20
-68.2595
0
VERTEX
8
CUT
10
17.1509
20
-68.2595
0
VERTEX
8
CUT
10
17.1592
20
-68.2601
0
VERTEX
8
CUT
10
17.1598
20
-68.2601
0
VERTEX
8
CUT
10
18.0167
20
-68.3180
0
VERTEX
8
CUT
10
18.0172
20
-68.3181
0
VERTEX
8
CUT
10
18.0239
20
-68.3185
0
VERTEX
8
CUT
10
18.0245
20
-68.3186
0
VERTEX
8
CUT
10
18.0318
20
-68.3191
0
VERTEX
8
CUT
10
18.0323
20
-68.3191
0
VERTEX
8
CUT
10
18.0391
20
-68.3196
0
VERTEX
8
CUT
10
18.0396
20
-68.3197
0
VERTEX
8
CUT
10
18.0938
20
-68.3236
0
VERTEX
8
CUT
10
18.0943
20
-68.3236
0
VERTEX
8
CUT
10
18.1011
20
-68.3241
0
VERTEX
8
CUT
10
18.1016
20
-68.3242
0
VERTEX
8
CUT
10
18.1089
20
-68.3247
0
VERTEX
8
CUT
10
18.1094
20
-68.3248
0
VERTEX
8
CUT
10
18.1162
20
-68.3253
0
VERTEX
8
CUT
10
18.1167
20
-68.3253
0
VERTEX
8
CUT
10
18.9932
20
-68.3938
0
VERTEX
8
CUT
10
18.9936
20
-68.3939
0
VERTEX
8
CUT
10
18.9990
20
-68.3943
0
VERTEX
8
CUT
10
18.9994
20
-68.3943
0
VERTEX
8
CUT
10
19.0051
20
-68.3948
0
VERTEX
8
CUT
10
19.0056
20
-68.3948
0
VERTEX
8
CUT
10
19.0109
20
-68.3952
0
VERTEX
8
CUT
10
19.0113
20
-68.3953
0
VERTEX
8
CUT
10
19.0541
20
-68.3988
0
VERTEX
8
CUT
10
19.0545
20
-68.3988
0
VERTEX
8
CUT
10
19.0599
20
-68.3993
0
VERTEX
8
CUT
10
19.0603
20
-68.3993
0
VERTEX
8
CUT
10
19.0660
20
-68.3998
0
VERTEX
8
CUT
10
19.0665
20
-68.3998
0
VERTEX
8
CUT
10
19.0718
20
-68.4003
0
VERTEX
8
CUT
10
19.0722
20
-68.4003
0
VERTEX
8
CUT
10
19.9632
20
-68.4773
0
VERTEX
8
CUT
10
19.9635
20
-68.4774
0
VERTEX
8
CUT
10
19.9675
20
-68.4777
0
VERTEX
8
CUT
10
19.9678
20
-68.4777
0
VERTEX
8
CUT
10
19.9721
20
-68.4781
0
VERTEX
8
CUT
10
19.9724
20
-68.4782
0
VERTEX
8
CUT
10
19.9764
20
-68.4785
0
VERTEX
8
CUT
10
19.9767
20
-68.4785
0
VERTEX
8
CUT
10
20.0087
20
-68.4814
0
VERTEX
8
CUT
10
20.0091
20
-68.4814
0
VERTEX
8
CUT
10
20.0131
20
-68.4818
0
VERTEX
8
CUT
10
20.0134
20
-68.4818
0
VERTEX
8
CUT
10
20.0177
20
-68.4822
0
VERTEX
8
CUT
10
20.0180
20
-68.4822
0
VERTEX
8
CUT
10
20.0220
20
-68.4826
0
VERTEX
8
CUT
10
20.0223
20
-68.4826
0
VERTEX
8
CUT
10
20.9229
20
-68.5661
0
VERTEX
8
CUT
10
20.9231
20
-68.5661
0
VERTEX
8
CUT
10
20.9259
20
-68.5664
0
VERTEX
8
CUT
10
20.9260
20
-68.5664
0
VERTEX
8
CUT
10
20.9289
20
-68.5667
0
VERTEX
8
CUT
10
20.9292
20
-68.5667
0
VERTEX
8
CUT
10
20.9319
20
-68.5669
0
VERTEX
8
CUT
10
20.9320
20
-68.5670
0
VERTEX
8
CUT
10
20.9536
20
-68.5690
0
VERTEX
8
CUT
10
20.9539
20
-68.5690
0
VERTEX
8
CUT
10
20.9565
20
-68.5693
0
VERTEX
8
CUT
10
20.9568
20
-68.5693
0
VERTEX
8
CUT
10
20.9597
20
-68.5696
0
VERTEX
8
CUT
10
20.9599
20
-68.5696
0
VERTEX
8
CUT
10
20.9626
20
-68.5699
0
VERTEX
8
CUT
10
20.9628
20
-68.5699
0
VERTEX
8
CUT
10
21.8686
20
-68.6576
0
VERTEX
8
CUT
10
21.8686
20
-68.6576
0
VERTEX
8
CUT
10
21.8688
20
-68.6577
0
VERTEX
8
CUT
10
21.8702
20
-68.6578
0
VERTEX
8
CUT
10
21.8702
20
-68.6578
0
VERTEX
8
CUT
10
21.8718
20
-68.6580
0
VERTEX
8
CUT
10
21.8719
20
-68.6580
0
VERTEX
8
CUT
10
21.8733
20
-68.6581
0
VERTEX
8
CUT
10
21.8733
20
-68.6581
0
VERTEX
8
CUT
10
21.8734
20
-68.6581
0
VERTEX
8
CUT
10
21.8846
20
-68.6592
0
VERTEX
8
CUT
10
21.8847
20
-68.6592
0
VERTEX
8
CUT
10
21.8847
20
-68.6592
0
VERTEX
8
CUT
10
21.8861
20
-68.6594
0
VERTEX
8
CUT
10
21.8862
20
-68.6594
0
VERTEX
8
CUT
10
21.8877
20
-68.6595
0
VERTEX
8
CUT
10
21.8878
20
-68.6595
0
VERTEX
8
CUT
10
21.8878
20
-68.6595
0
VERTEX
8
CUT
10
21.8892
20
-68.6597
0
VERTEX
8
CUT
10
21.8892
20
-68.6597
0
VERTEX
8
CUT
10
21.8893
20
-68.6597
0
VERTEX
8
CUT
10
22.7964
20
-68.7495
0
VERTEX
8
CUT
10
22.7964
20
-68.7495
0
VERTEX
8
CUT
10
22.7965
20
-68.7496
0
VERTEX
8
CUT
10
22.7965
20
-68.7496
0
VERTEX
8
CUT
10
22.7966
20
-68.7496
0
VERTEX
8
CUT
10
22.7966
20
-68.7496
0
VERTEX
8
CUT
10
22.7972
20
-68.7496
0
VERTEX
8
CUT
10
22.7972
20
-68.7489
0
VERTEX
8
CUT
10
22.7973
20
-68.7489
0
VERTEX
8
CUT
10
22.7973
20
-68.7496
0
VERTEX
8
CUT
10
22.7974
20
-68.7496
0
VERTEX
8
CUT
10
22.7975
20
-68.7489
0
VERTEX
8
CUT
10
22.7976
20
-68.7489
0
VERTEX
8
CUT
10
22.7975
20
-68.7496
0
VERTEX
8
CUT
10
23.6895
20
-68.8381
0
VERTEX
8
CUT
10
23.6899
20
-68.8382
0
VERTEX
8
CUT
10
23.6912
20
-68.8383
0
VERTEX
8
CUT
10
23.6916
20
-68.8383
0
VERTEX
8
CUT
10
23.6928
20
-68.8384
0
VERTEX
8
CUT
10
23.6932
20
-68.8385
0
VERTEX
8
CUT
10
23.6945
20
-68.8386
0
VERTEX
8
CUT
10
23.6949
20
-68.8386
0
VERTEX
8
CUT
10
24.5545
20
-68.9221
0
VERTEX
8
CUT
10
24.5554
20
-68.9222
0
VERTEX
8
CUT
10
24.5580
20
-68.9224
0
VERTEX
8
CUT
10
24.5589
20
-68.9225
0
VERTEX
8
CUT
10
24.5616
20
-68.9228
0
VERTEX
8
CUT
10
24.5625
20
-68.9229
0
VERTEX
8
CUT
10
24.5651
20
-68.9231
0
VERTEX
8
CUT
10
24.5660
20
-68.9232
0
VERTEX
8
CUT
10
25.3871
20
-68.9992
0
VERTEX
8
CUT
10
25.3885
20
-68.9994
0
VERTEX
8
CUT
10
25.3927
20
-68.9997
0
VERTEX
8
CUT
10
25.3941
20
-68.9999
0
VERTEX
8
CUT
10
25.3984
20
-69.0002
0
VERTEX
8
CUT
10
25.3998
20
-69.0004
0
VERTEX
8
CUT
10
25.4040
20
-69.0007
0
VERTEX
8
CUT
10
25.4054
20
-69.0009
0
VERTEX
8
CUT
10
26.1818
20
-69.0672
0
VERTEX
8
CUT
10
26.1838
20
-69.0674
0
VERTEX
8
CUT
10
26.1899
20
-69.0679
0
VERTEX
8
CUT
10
26.1919
20
-69.0680
0
VERTEX
8
CUT
10
26.1980
20
-69.0685
0
VERTEX
8
CUT
10
26.2000
20
-69.0687
0
VERTEX
8
CUT
10
26.2061
20
-69.0692
0
VERTEX
8
CUT
10
26.2082
20
-69.0693
0
VERTEX
8
CUT
10
26.9329
20
-69.1238
0
VERTEX
8
CUT
10
26.9357
20
-69.1240
0
VERTEX
8
CUT
10
26.9440
20
-69.1246
0
VERTEX
8
CUT
10
26.9467
20
-69.1248
0
VERTEX
8
CUT
10
26.9550
20
-69.1254
0
VERTEX
8
CUT
10
26.9578
20
-69.1256
0
VERTEX
8
CUT
10
26.9660
20
-69.1261
0
VERTEX
8
CUT
10
26.9688
20
-69.1263
0
VERTEX
8
CUT
10
27.6339
20
-69.1671
0
VERTEX
8
CUT
10
27.6375
20
-69.1673
0
VERTEX
8
CUT
10
27.6485
20
-69.1679
0
VERTEX
8
CUT
10
27.6522
20
-69.1681
0
VERTEX
8
CUT
10
27.6632
20
-69.1687
0
VERTEX
8
CUT
10
27.6668
20
-69.1689
0
VERTEX
8
CUT
10
27.6778
20
-69.1694
0
VERTEX
8
CUT
10
27.6815
20
-69.1695
0
VERTEX
8
CUT
10
28.2771
20
-69.1951
0
VERTEX
8
CUT
10
28.2819
20
-69.1953
0
VERTEX
8
CUT
10
28.2963
20
-69.1958
0
VERTEX
8
CUT
10
28.3011
20
-69.1960
0
VERTEX
8
CUT
10
28.3156
20
-69.1964
0
VERTEX
8
CUT
10
28.3204
20
-69.1966
0
VERTEX
8
CUT
10
28.3348
20
-69.1969
0
VERTEX
8
CUT
10
28.3396
20
-69.1970
0
VERTEX
8
CUT
10
28.4729
20
-69.1995
0
VERTEX
8
CUT
10
28.4767
20
-69.1996
0
VERTEX
8
CUT
10
28.4879
20
-69.1998
0
VERTEX
8
CUT
10
28.4917
20
-69.1998
0
VERTEX
8
CUT
10
28.5030
20
-69.1999
0
VERTEX
8
CUT
10
28.5068
20
-69.1999
0
VERTEX
8
CUT
10
28.5181
20
-69.2000
0
VERTEX
8
CUT
10
28.5218
20
-69.2000
0
VERTEX
8
CUT
10
29.3919
20
-69.2000
0
VERTEX
8
CUT
10
29.3999
20
-69.2000
0
VERTEX
8
CUT
10
29.4240
20
-69.1997
0
VERTEX
8
CUT
10
29.4320
20
-69.1996
0
VERTEX
8
CUT
10
29.4559
20
-69.1991
0
VERTEX
8
CUT
10
29.4639
20
-69.1989
0
VERTEX
8
CUT
10
29.4879
20
-69.1982
0
VERTEX
8
CUT
10
29.4959
20
-69.1979
0
VERTEX
8
CUT
10
29.9000
20
-69.1817
0
VERTEX
8
CUT
10
29.9037
20
-69.1816
0
VERTEX
8
CUT
10
29.9151
20
-69.1811
0
VERTEX
8
CUT
10
29.9189
20
-69.1809
0
VERTEX
8
CUT
10
29.9302
20
-69.1803
0
VERTEX
8
CUT
10
29.9340
20
-69.1801
0
VERTEX
8
CUT
10
29.9453
20
-69.1795
0
VERTEX
8
CUT
10
29.9491
20
-69.1793
0
VERTEX
8
CUT
10
30.3522
20
-69.1555
0
VERTEX
8
CUT
10
30.3568
20
-69.1552
0
VERTEX
8
CUT
10
30.3706
20
-69.1543
0
VERTEX
8
CUT
10
30.3753
20
-69.1540
0
VERTEX
8
CUT
10
30.3891
20
-69.1530
0
VERTEX
8
CUT
10
30.3937
20
-69.1527
0
VERTEX
8
CUT
10
30.4075
20
-69.1516
0
VERTEX
8
CUT
10
30.4122
20
-69.1513
0
VERTEX
8
CUT
10
30.7478
20
-69.1237
0
VERTEX
8
CUT
10
30.7533
20
-69.1232
0
VERTEX
8
CUT
10
30.7701
20
-69.1217
0
VERTEX
8
CUT
10
30.7756
20
-69.1212
0
VERTEX
8
CUT
10
30.7923
20
-69.1196
0
VERTEX
8
CUT
10
30.7979
20
-69.1190
0
VERTEX
8
CUT
10
30.8146
20
-69.1173
0
VERTEX
8
CUT
10
30.8202
20
-69.1167
0
VERTEX
8
CUT
10
31.0884
20
-69.0870
0
VERTEX
8
CUT
10
31.0951
20
-69.0863
0
VERTEX
8
CUT
10
31.1150
20
-69.0839
0
VERTEX
8
CUT
10
31.1217
20
-69.0831
0
VERTEX
8
CUT
10
31.1416
20
-69.0805
0
VERTEX
8
CUT
10
31.1483
20
-69.0797
0
VERTEX
8
CUT
10
31.1682
20
-69.0770
0
VERTEX
8
CUT
10
31.1748
20
-69.0760
0
VERTEX
8
CUT
10
31.3763
20
-69.0469
0
VERTEX
8
CUT
10
31.3841
20
-69.0457
0
VERTEX
8
CUT
10
31.4076
20
-69.0421
0
VERTEX
8
CUT
10
31.4154
20
-69.0408
0
VERTEX
8
CUT
10
31.4388
20
-69.0370
0
VERTEX
8
CUT
10
31.4466
20
-69.0357
0
VERTEX
8
CUT
10
31.4700
20
-69.0316
0
VERTEX
8
CUT
10
31.4778
20
-69.0302
0
VERTEX
8
CUT
10
31.6143
20
-69.0049
0
VERTEX
8
CUT
10
31.6234
20
-69.0032
0
VERTEX
8
CUT
10
31.6504
20
-68.9978
0
VERTEX
8
CUT
10
31.6594
20
-68.9960
0
VERTEX
8
CUT
10
31.6864
20
-68.9904
0
VERTEX
8
CUT
10
31.6954
20
-68.9884
0
VERTEX
8
CUT
10
31.7223
20
-68.9825
0
VERTEX
8
CUT
10
31.7312
20
-68.9804
0
VERTEX
8
CUT
10
31.8067
20
-68.9628
0
VERTEX
8
CUT
10
31.8169
20
-68.9604
0
VERTEX
8
CUT
10
31.8473
20
-68.9529
0
VERTEX
8
CUT
10
31.8575
20
-68.9503
0
VERTEX
8
CUT
10
31.8878
20
-68.9424
0
VERTEX
8
CUT
10
31.8979
20
-68.9397
0
VERTEX
8
CUT
10
31.9281
20
-68.9314
0
VERTEX
8
CUT
10
31.9382
20
-68.9285
0
VERTEX
8
CUT
10
31.9596
20
-68.9223
0
VERTEX
8
CUT
10
31.9707
20
-68.9190
0
VERTEX
8
CUT
10
32.0040
20
-68.9089
0
VERTEX
8
CUT
10
32.0151
20
-68.9054
0
VERTEX
8
CUT
10
32.0481
20
-68.8948
0
VERTEX
8
CUT
10
32.0591
20
-68.8912
0
VERTEX
8
CUT
10
32.0807
20
-68.8839
0
VERTEX
8
CUT
10
32.1034
20
-68.8759
0
VERTEX
8
CUT
10
32.1279
20
-68.8668
0
VERTEX
8
CUT
10
32.1396
20
-68.8624
0
VERTEX
8
CUT
10
32.1744
20
-68.8489
0
VERTEX
8
CUT
10
32.1859
20
-68.8443
0
VERTEX
8
CUT
10
32.1947
20
-68.8407
0
VERTEX
8
CUT
10
32.2180
20
-68.8308
0
VERTEX
8
CUT
10
32.2288
20
-68.8260
0
VERTEX
8
CUT
10
32.2405
20
-68.8207
0
VERTEX
8
CUT
10
32.2442
20
-68.8190
0
VERTEX
8
CUT
10
32.2674
20
-68.8078
0
VERTEX
8
CUT
10
32.3240
20
-68.7793
0
VERTEX
8
CUT
10
32.3686
20
-68.7551
0
VERTEX
8
CUT
10
32.4211
20
-68.7244
0
VERTEX
8
CUT
10
32.4425
20
-68.7114
0
VERTEX
8
CUT
10
32.4453
20
-68.7097
0
VERTEX
8
CUT
10
32.4555
20
-68.7031
0
VERTEX
8
CUT
10
32.4698
20
-68.6939
0
VERTEX
8
CUT
10
32.4890
20
-68.6810
0
VERTEX
8
CUT
10
32.4984
20
-68.6744
0
VERTEX
8
CUT
10
32.5075
20
-68.6681
0
VERTEX
8
CUT
10
32.5344
20
-68.6490
0
VERTEX
8
CUT
10
32.5433
20
-68.6425
0
VERTEX
8
CUT
10
32.5693
20
-68.6234
0
VERTEX
8
CUT
10
32.5857
20
-68.6111
0
VERTEX
8
CUT
10
32.6075
20
-68.5942
0
VERTEX
8
CUT
10
32.6150
20
-68.5884
0
VERTEX
8
CUT
10
32.6373
20
-68.5708
0
VERTEX
8
CUT
10
32.6446
20
-68.5648
0
VERTEX
8
CUT
10
32.6667
20
-68.5469
0
VERTEX
8
CUT
10
32.6741
20
-68.5409
0
VERTEX
8
CUT
10
32.7123
20
-68.5091
0
VERTEX
8
CUT
10
32.7183
20
-68.5041
0
VERTEX
8
CUT
10
32.7359
20
-68.4891
0
VERTEX
8
CUT
10
32.7418
20
-68.4841
0
VERTEX
8
CUT
10
32.7593
20
-68.4690
0
VERTEX
8
CUT
10
32.7651
20
-68.4639
0
VERTEX
8
CUT
10
32.7825
20
-68.4486
0
VERTEX
8
CUT
10
32.7882
20
-68.4434
0
VERTEX
8
CUT
10
32.8220
20
-68.4131
0
VERTEX
8
CUT
10
32.8298
20
-68.4060
0
VERTEX
8
CUT
10
32.8531
20
-68.3845
0
VERTEX
8
CUT
10
32.8608
20
-68.3772
0
VERTEX
8
CUT
10
32.8838
20
-68.3555
0
VERTEX
8
CUT
10
32.9095
20
-68.3299
0
VERTEX
8
CUT
10
32.9171
20
-68.3221
0
VERTEX
8
CUT
10
32.9478
20
-68.2884
0
VERTEX
8
CUT
10
32.9767
20
-68.2547
0
VERTEX
8
CUT
10
33.0146
20
-68.2071
0
VERTEX
8
CUT
10
33.0215
20
-68.1976
0
VERTEX
8
CUT
10
33.0551
20
-68.1482
0
VERTEX
8
CUT
10
33.0649
20
-68.1325
0
VERTEX
8
CUT
10
33.0933
20
-68.0832
0
VERTEX
8
CUT
10
33.1159
20
-68.0406
0
VERTEX
8
CUT
10
33.1341
20
-68.0042
0
VERTEX
8
CUT
10
33.1382
20
-67.9955
0
VERTEX
8
CUT
10
33.1484
20
-67.9727
0
VERTEX
8
CUT
10
33.1515
20
-67.9655
0
VERTEX
8
CUT
10
33.1561
20
-67.9546
0
VERTEX
8
CUT
10
33.1695
20
-67.9219
0
VERTEX
8
CUT
10
33.1739
20
-67.9110
0
VERTEX
8
CUT
10
33.1861
20
-67.8802
0
VERTEX
8
CUT
10
33.1939
20
-67.8595
0
VERTEX
8
CUT
10
33.2036
20
-67.8331
0
VERTEX
8
CUT
10
33.2070
20
-67.8234
0
VERTEX
8
CUT
10
33.2171
20
-67.7944
0
VERTEX
8
CUT
10
33.2204
20
-67.7847
0
VERTEX
8
CUT
10
33.2302
20
-67.7555
0
VERTEX
8
CUT
10
33.2334
20
-67.7458
0
VERTEX
8
CUT
10
33.2479
20
-67.7004
0
VERTEX
8
CUT
10
33.2505
20
-67.6922
0
VERTEX
8
CUT
10
33.2582
20
-67.6674
0
VERTEX
8
CUT
10
33.2607
20
-67.6591
0
VERTEX
8
CUT
10
33.2681
20
-67.6342
0
VERTEX
8
CUT
10
33.2705
20
-67.6259
0
VERTEX
8
CUT
10
33.2776
20
-67.6009
0
VERTEX
8
CUT
10
33.2799
20
-67.5926
0
VERTEX
8
CUT
10
33.3070
20
-67.4937
0
VERTEX
8
CUT
10
33.3088
20
-67.4869
0
VERTEX
8
CUT
10
33.3142
20
-67.4663
0
VERTEX
8
CUT
10
33.3160
20
-67.4594
0
VERTEX
8
CUT
10
33.3213
20
-67.4388
0
VERTEX
8
CUT
10
33.3230
20
-67.4319
0
VERTEX
8
CUT
10
33.3281
20
-67.4113
0
VERTEX
8
CUT
10
33.3297
20
-67.4044
0
VERTEX
8
CUT
10
33.3659
20
-67.2510
0
VERTEX
8
CUT
10
33.3671
20
-67.2455
0
VERTEX
8
CUT
10
33.3709
20
-67.2291
0
VERTEX
8
CUT
10
33.3721
20
-67.2236
0
VERTEX
8
CUT
10
33.3757
20
-67.2072
0
VERTEX
8
CUT
10
33.3769
20
-67.2017
0
VERTEX
8
CUT
10
33.3804
20
-67.1852
0
VERTEX
8
CUT
10
33.3816
20
-67.1797
0
VERTEX
8
CUT
10
33.4243
20
-66.9726
0
VERTEX
8
CUT
10
33.4251
20
-66.9685
0
VERTEX
8
CUT
10
33.4277
20
-66.9559
0
VERTEX
8
CUT
10
33.4285
20
-66.9517
0
VERTEX
8
CUT
10
33.4309
20
-66.9392
0
VERTEX
8
CUT
10
33.4317
20
-66.9350
0
VERTEX
8
CUT
10
33.4341
20
-66.9225
0
VERTEX
8
CUT
10
33.4349
20
-66.9183
0
VERTEX
8
CUT
10
33.4826
20
-66.6593
0
VERTEX
8
CUT
10
33.4831
20
-66.6563
0
VERTEX
8
CUT
10
33.4847
20
-66.6473
0
VERTEX
8
CUT
10
33.4853
20
-66.6443
0
VERTEX
8
CUT
10
33.4869
20
-66.6353
0
VERTEX
8
CUT
10
33.4874
20
-66.6323
0
VERTEX
8
CUT
10
33.4889
20
-66.6233
0
VERTEX
8
CUT
10
33.4894
20
-66.6203
0
VERTEX
8
CUT
10
33.5414
20
-66.3118
0
VERTEX
8
CUT
10
33.5417
20
-66.3098
0
VERTEX
8
CUT
10
33.5427
20
-66.3040
0
VERTEX
8
CUT
10
33.5430
20
-66.3021
0
VERTEX
8
CUT
10
33.5440
20
-66.2963
0
VERTEX
8
CUT
10
33.5443
20
-66.2943
0
VERTEX
8
CUT
10
33.5452
20
-66.2885
0
VERTEX
8
CUT
10
33.5455
20
-66.2866
0
VERTEX
8
CUT
10
33.6018
20
-65.9309
0
VERTEX
8
CUT
10
33.6020
20
-65.9299
0
VERTEX
8
CUT
10
33.6025
20
-65.9269
0
VERTEX
8
CUT
10
33.6026
20
-65.9259
0
VERTEX
8
CUT
10
33.6031
20
-65.9229
0
VERTEX
8
CUT
10
33.6032
20
-65.9219
0
VERTEX
8
CUT
10
33.6037
20
-65.9189
0
VERTEX
8
CUT
10
33.6039
20
-65.9178
0
VERTEX
8
CUT
10
33.6651
20
-65.5176
0
VERTEX
8
CUT
10
33.6652
20
-65.5174
0
VERTEX
8
CUT
10
33.6653
20
-65.5168
0
VERTEX
8
CUT
10
33.6653
20
-65.5166
0
VERTEX
8
CUT
10
33.6654
20
-65.5160
0
VERTEX
8
CUT
10
33.6654
20
-65.5158
0
VERTEX
8
CUT
10
33.6655
20
-65.5152
0
VERTEX
8
CUT
10
33.6655
20
-65.5150
0
VERTEX
8
CUT
10
33.7264
20
-65.1145
0
VERTEX
8
CUT
10
33.7268
20
-65.1119
0
VERTEX
8
CUT
10
33.7280
20
-65.1040
0
VERTEX
8
CUT
10
33.7284
20
-65.1014
0
VERTEX
8
CUT
10
33.7295
20
-65.0935
0
VERTEX
8
CUT
10
33.7299
20
-65.0909
0
VERTEX
8
CUT
10
33.7310
20
-65.0830
0
VERTEX
8
CUT
10
33.7314
20
-65.0803
0
VERTEX
8
CUT
10
33.7829
20
-64.7083
0
VERTEX
8
CUT
10
33.7836
20
-64.7037
0
VERTEX
8
CUT
10
33.7854
20
-64.6897
0
VERTEX
8
CUT
10
33.7860
20
-64.6851
0
VERTEX
8
CUT
10
33.7878
20
-64.6712
0
VERTEX
8
CUT
10
33.7883
20
-64.6665
0
VERTEX
8
CUT
10
33.7900
20
-64.6526
0
VERTEX
8
CUT
10
33.7906
20
-64.6479
0
VERTEX
8
CUT
10
33.8359
20
-64.2532
0
VERTEX
8
CUT
10
33.8363
20
-64.2495
0
VERTEX
8
CUT
10
33.8375
20
-64.2384
0
VERTEX
8
CUT
10
33.8379
20
-64.2347
0
VERTEX
8
CUT
10
33.8391
20
-64.2236
0
VERTEX
8
CUT
10
33.8394
20
-64.2199
0
VERTEX
8
CUT
10
33.8406
20
-64.2088
0
VERTEX
8
CUT
10
33.8409
20
-64.2051
0
VERTEX
8
CUT
10
33.8841
20
-63.7551
0
VERTEX
8
CUT
10
33.8844
20
-63.7521
0
VERTEX
8
CUT
10
33.8852
20
-63.7431
0
VERTEX
8
CUT
10
33.8855
20
-63.7401
0
VERTEX
8
CUT
10
33.8862
20
-63.7312
0
VERTEX
8
CUT
10
33.8865
20
-63.7282
0
VERTEX
8
CUT
10
33.8873
20
-63.7192
0
VERTEX
8
CUT
10
33.8875
20
-63.7162
0
VERTEX
8
CUT
10
33.9275
20
-63.2209
0
VERTEX
8
CUT
10
33.9277
20
-63.2184
0
VERTEX
8
CUT
10
33.9283
20
-63.2111
0
VERTEX
8
CUT
10
33.9285
20
-63.2086
0
VERTEX
8
CUT
10
33.9290
20
-63.2013
0
VERTEX
8
CUT
10
33.9292
20
-63.1989
0
VERTEX
8
CUT
10
33.9297
20
-63.1915
0
VERTEX
8
CUT
10
33.9299
20
-63.1891
0
VERTEX
8
CUT
10
33.9663
20
-62.6566
0
VERTEX
8
CUT
10
33.9665
20
-62.6545
0
VERTEX
8
CUT
10
33.9669
20
-62.6485
0
VERTEX
8
CUT
10
33.9670
20
-62.6465
0
VERTEX
8
CUT
10
33.9674
20
-62.6405
0
VERTEX
8
CUT
10
33.9675
20
-62.6385
0
VERTEX
8
CUT
10
33.9679
20
-62.6324
0
VERTEX
8
CUT
10
33.9680
20
-62.6304
0
VERTEX
8
CUT
10
34.0008
20
-62.0678
0
VERTEX
8
CUT
10
34.0009
20
-62.0662
0
VERTEX
8
CUT
10
34.0012
20
-62.0612
0
VERTEX
8
CUT
10
34.0013
20
-62.0595
0
VERTEX
8
CUT
10
34.0015
20
-62.0546
0
VERTEX
8
CUT
10
34.0016
20
-62.0529
0
VERTEX
8
CUT
10
34.0019
20
-62.0479
0
VERTEX
8
CUT
10
34.0020
20
-62.0463
0
VERTEX
8
CUT
10
34.0313
20
-61.4599
0
VERTEX
8
CUT
10
34.0314
20
-61.4586
0
VERTEX
8
CUT
10
34.0316
20
-61.4545
0
VERTEX
8
CUT
10
34.0316
20
-61.4531
0
VERTEX
8
CUT
10
34.0318
20
-61.4490
0
VERTEX
8
CUT
10
34.0319
20
-61.4477
0
VERTEX
8
CUT
10
34.0321
20
-61.4436
0
VERTEX
8
CUT
10
34.0321
20
-61.4422
0
VERTEX
8
CUT
10
34.0582
20
-60.8380
0
VERTEX
8
CUT
10
34.0583
20
-60.8369
0
VERTEX
8
CUT
10
34.0584
20
-60.8335
0
VERTEX
8
CUT
10
34.0584
20
-60.8324
0
VERTEX
8
CUT
10
34.0586
20
-60.8291
0
VERTEX
8
CUT
10
34.0586
20
-60.8280
0
VERTEX
8
CUT
10
34.0587
20
-60.8247
0
VERTEX
8
CUT
10
34.0588
20
-60.8236
0
VERTEX
8
CUT
10
34.0820
20
-60.2068
0
VERTEX
8
CUT
10
34.0820
20
-60.2059
0
VERTEX
8
CUT
10
34.0821
20
-60.2032
0
VERTEX
8
CUT
10
34.0821
20
-60.2024
0
VERTEX
8
CUT
10
34.0822
20
-60.1997
0
VERTEX
8
CUT
10
34.0823
20
-60.1988
0
VERTEX
8
CUT
10
34.0824
20
-60.1962
0
VERTEX
8
CUT
10
34.0824
20
-60.1953
0
VERTEX
8
CUT
10
34.1031
20
-59.5712
0
VERTEX
8
CUT
10
34.1031
20
-59.5705
0
VERTEX
8
CUT
10
34.1032
20
-59.5685
0
VERTEX
8
CUT
10
34.1032
20
-59.5678
0
VERTEX
8
CUT
10
34.1033
20
-59.5657
0
VERTEX
8
CUT
10
34.1033
20
-59.5651
0
VERTEX
8
CUT
10
34.1033
20
-59.5630
0
VERTEX
8
CUT
10
34.1034
20
-59.5623
0
VERTEX
8
CUT
10
34.1220
20
-58.9358
0
VERTEX
8
CUT
10
34.1220
20
-58.9353
0
VERTEX
8
CUT
10
34.1221
20
-58.9338
0
VERTEX
8
CUT
10
34.1221
20
-58.9333
0
VERTEX
8
CUT
10
34.1221
20
-58.9319
0
VERTEX
8
CUT
10
34.1221
20
-58.9314
0
VERTEX
8
CUT
10
34.1222
20
-58.9299
0
VERTEX
8
CUT
10
34.1222
20
-58.9294
0
VERTEX
8
CUT
10
34.1392
20
-58.3051
0
VERTEX
8
CUT
10
34.1392
20
-58.3048
0
VERTEX
8
CUT
10
34.1392
20
-58.3039
0
VERTEX
8
CUT
10
34.1393
20
-58.3036
0
VERTEX
8
CUT
10
34.1393
20
-58.3027
0
VERTEX
8
CUT
10
34.1393
20
-58.3024
0
VERTEX
8
CUT
10
34.1393
20
-58.3015
0
VERTEX
8
CUT
10
34.1393
20
-58.3011
0
VERTEX
8
CUT
10
34.1552
20
-57.6835
0
VERTEX
8
CUT
10
34.1552
20
-57.6834
0
VERTEX
8
CUT
10
34.1552
20
-57.6832
0
VERTEX
8
CUT
10
34.1552
20
-57.6831
0
VERTEX
8
CUT
10
34.1552
20
-57.6825
0
VERTEX
8
CUT
10
34.1553
20
-57.6824
0
VERTEX
8
CUT
10
34.1553
20
-57.6821
0
VERTEX
8
CUT
10
34.1553
20
-57.6820
0
VERTEX
8
CUT
10
34.1705
20
-57.0783
0
VERTEX
8
CUT
10
34.1705
20
-57.0783
0
VERTEX
8
CUT
10
34.1705
20
-57.0782
0
VERTEX
8
CUT
10
34.1705
20
-57.0779
0
VERTEX
8
CUT
10
34.1705
20
-57.0776
0
VERTEX
8
CUT
10
34.1705
20
-57.0776
0
VERTEX
8
CUT
10
34.1705
20
-57.0772
0
VERTEX
8
CUT
10
34.1706
20
-57.0747
0
VERTEX
8
CUT
10
34.1706
20
-57.0744
0
VERTEX
8
CUT
10
34.1706
20
-57.0743
0
VERTEX
8
CUT
10
34.1706
20
-57.0743
0
VERTEX
8
CUT
10
34.1706
20
-57.0741
0
VERTEX
8
CUT
10
34.1706
20
-57.0738
0
VERTEX
8
CUT
10
34.1706
20
-57.0737
0
VERTEX
8
CUT
10
34.1706
20
-57.0737
0
VERTEX
8
CUT
10
34.1855
20
-56.4947
0
VERTEX
8
CUT
10
34.1855
20
-56.4945
0
VERTEX
8
CUT
10
34.1855
20
-56.4935
0
VERTEX
8
CUT
10
34.1855
20
-56.4935
0
VERTEX
8
CUT
10
34.1855
20
-56.4923
0
VERTEX
8
CUT
10
34.1855
20
-56.4923
0
VERTEX
8
CUT
10
34.1856
20
-56.4911
0
VERTEX
8
CUT
10
34.1858
20
-56.4826
0
VERTEX
8
CUT
10
34.1858
20
-56.4825
0
VERTEX
8
CUT
10
34.1858
20
-56.4814
0
VERTEX
8
CUT
10
34.1858
20
-56.4814
0
VERTEX
8
CUT
10
34.1858
20
-56.4802
0
VERTEX
8
CUT
10
34.1858
20
-56.4802
0
VERTEX
8
CUT
10
34.1859
20
-56.4790
0
VERTEX
8
CUT
10
34.1859
20
-56.4790
0
VERTEX
8
CUT
10
34.2010
20
-55.9258
0
VERTEX
8
CUT
10
34.2010
20
-55.9256
0
VERTEX
8
CUT
10
34.2010
20
-55.9252
0
VERTEX
8
CUT
10
34.2010
20
-55.9250
0
VERTEX
8
CUT
10
34.2010
20
-55.9245
0
VERTEX
8
CUT
10
34.2010
20
-55.9244
0
VERTEX
8
CUT
10
34.2010
20
-55.9238
0
VERTEX
8
CUT
10
34.2010
20
-55.9236
0
VERTEX
8
CUT
10
34.2152
20
-55.3903
0
VERTEX
8
CUT
10
34.2152
20
-55.3895
0
VERTEX
8
CUT
10
34.2152
20
-55.3870
0
VERTEX
8
CUT
10
34.2153
20
-55.3862
0
VERTEX
8
CUT
10
34.2153
20
-55.3838
0
VERTEX
8
CUT
10
34.2153
20
-55.3829
0
VERTEX
8
CUT
10
34.2154
20
-55.3805
0
VERTEX
8
CUT
10
34.2154
20
-55.3797
0
VERTEX
8
CUT
10
34.2271
20
-54.8558
0
VERTEX
8
CUT
10
34.2271
20
-54.8550
0
VERTEX
8
CUT
10
34.2272
20
-54.8527
0
VERTEX
8
CUT
10
34.2272
20
-54.8519
0
VERTEX
8
CUT
10
34.2273
20
-54.8495
0
VERTEX
8
CUT
10
34.2273
20
-54.8487
0
VERTEX
8
CUT
10
34.2273
20
-54.8463
0
VERTEX
8
CUT
10
34.2273
20
-54.8456
0
VERTEX
8
CUT
10
34.2369
20
-54.3231
0
VERTEX
8
CUT
10
34.2370
20
-54.3224
0
VERTEX
8
CUT
10
34.2370
20
-54.3201
0
VERTEX
8
CUT
10
34.2370
20
-54.3193
0
VERTEX
8
CUT
10
34.2370
20
-54.3170
0
VERTEX
8
CUT
10
34.2371
20
-54.3163
0
VERTEX
8
CUT
10
34.2371
20
-54.3140
0
VERTEX
8
CUT
10
34.2371
20
-54.3132
0
VERTEX
8
CUT
10
34.2447
20
-53.7934
0
VERTEX
8
CUT
10
34.2447
20
-53.7927
0
VERTEX
8
CUT
10
34.2447
20
-53.7904
0
VERTEX
8
CUT
10
34.2447
20
-53.7897
0
VERTEX
8
CUT
10
34.2448
20
-53.7875
0
VERTEX
8
CUT
10
34.2448
20
-53.7867
0
VERTEX
8
CUT
10
34.2448
20
-53.7845
0
VERTEX
8
CUT
10
34.2448
20
-53.7838
0
VERTEX
8
CUT
10
34.2504
20
-53.2678
0
VERTEX
8
CUT
10
34.2504
20
-53.2671
0
VERTEX
8
CUT
10
34.2504
20
-53.2649
0
VERTEX
8
CUT
10
34.2504
20
-53.2642
0
VERTEX
8
CUT
10
34.2505
20
-53.2621
0
VERTEX
8
CUT
10
34.2505
20
-53.2613
0
VERTEX
8
CUT
10
34.2505
20
-53.2592
0
VERTEX
8
CUT
10
34.2505
20
-53.2584
0
VERTEX
8
CUT
10
34.2542
20
-52.7476
0
VERTEX
8
CUT
10
34.2542
20
-52.7469
0
VERTEX
8
CUT
10
34.2542
20
-52.7447
0
VERTEX
8
CUT
10
34.2542
20
-52.7440
0
VERTEX
8
CUT
10
34.2542
20
-52.7419
0
VERTEX
8
CUT
10
34.2542
20
-52.7412
0
VERTEX
8
CUT
10
34.2543
20
-52.7391
0
VERTEX
8
CUT
10
34.2543
20
-52.7383
0
VERTEX
8
CUT
10
34.2561
20
-52.2337
0
VERTEX
8
CUT
10
34.2561
20
-52.2330
0
VERTEX
8
CUT
10
34.2561
20
-52.2309
0
VERTEX
8
CUT
10
34.2561
20
-52.2302
0
VERTEX
8
CUT
10
34.2561
20
-52.2281
0
VERTEX
8
CUT
10
34.2561
20
-52.2275
0
VERTEX
8
CUT
10
34.2561
20
-52.2253
0
VERTEX
8
CUT
10
34.2561
20
-52.2246
0
VERTEX
8
CUT
10
34.2562
20
-51.7275
0
VERTEX
8
CUT
10
34.2562
20
-51.7268
0
VERTEX
8
CUT
10
34.2562
20
-51.7247
0
VERTEX
8
CUT
10
34.2562
20
-51.7240
0
VERTEX
8
CUT
10
34.2562
20
-51.7220
0
VERTEX
8
CUT
10
34.2562
20
-51.7213
0
VERTEX
8
CUT
10
34.2562
20
-51.7192
0
VERTEX
8
CUT
10
34.2562
20
-51.7185
0
VERTEX
8
CUT
10
34.2546
20
-51.2300
0
VERTEX
8
CUT
10
34.2546
20
-51.2293
0
VERTEX
8
CUT
10
34.2546
20
-51.2273
0
VERTEX
8
CUT
10
34.2546
20
-51.2266
0
VERTEX
8
CUT
10
34.2546
20
-51.2245
0
VERTEX
8
CUT
10
34.2546
20
-51.2238
0
VERTEX
8
CUT
10
34.2546
20
-51.2217
0
VERTEX
8
CUT
10
34.2546
20
-51.2210
0
VERTEX
8
CUT
10
34.2514
20
-50.7425
0
VERTEX
8
CUT
10
34.2514
20
-50.7418
0
VERTEX
8
CUT
10
34.2514
20
-50.7397
0
VERTEX
8
CUT
10
34.2514
20
-50.7390
0
VERTEX
8
CUT
10
34.2514
20
-50.7369
0
VERTEX
8
CUT
10
34.2513
20
-50.7362
0
VERTEX
8
CUT
10
34.2513
20
-50.7342
0
VERTEX
8
CUT
10
34.2513
20
-50.7335
0
VERTEX
8
CUT
10
34.2466
20
-50.2660
0
VERTEX
8
CUT
10
34.2466
20
-50.2653
0
VERTEX
8
CUT
10
34.2465
20
-50.2632
0
VERTEX
8
CUT
10
34.2465
20
-50.2625
0
VERTEX
8
CUT
10
34.2465
20
-50.2604
0
VERTEX
8
CUT
10
34.2465
20
-50.2597
0
VERTEX
8
CUT
10
34.2465
20
-50.2576
0
VERTEX
8
CUT
10
34.2465
20
-50.2569
0
VERTEX
8
CUT
10
34.2402
20
-49.8018
0
VERTEX
8
CUT
10
34.2402
20
-49.8011
0
VERTEX
8
CUT
10
34.2402
20
-49.7990
0
VERTEX
8
CUT
10
34.2402
20
-49.7982
0
VERTEX
8
CUT
10
34.2402
20
-49.7961
0
VERTEX
8
CUT
10
34.2401
20
-49.7954
0
VERTEX
8
CUT
10
34.2401
20
-49.7932
0
VERTEX
8
CUT
10
34.2401
20
-49.7925
0
VERTEX
8
CUT
10
34.2325
20
-49.3511
0
VERTEX
8
CUT
10
34.2325
20
-49.3503
0
VERTEX
8
CUT
10
34.2324
20
-49.3481
0
VERTEX
8
CUT
10
34.2324
20
-49.3474
0
VERTEX
8
CUT
10
34.2324
20
-49.3452
0
VERTEX
8
CUT
10
34.2324
20
-49.3445
0
VERTEX
8
CUT
10
34.2323
20
-49.3423
0
VERTEX
8
CUT
10
34.2323
20
-49.3415
0
VERTEX
8
CUT
10
34.2234
20
-48.9150
0
VERTEX
8
CUT
10
34.2234
20
-48.9142
0
VERTEX
8
CUT
10
34.2233
20
-48.9119
0
VERTEX
8
CUT
10
34.2233
20
-48.9112
0
VERTEX
8
CUT
10
34.2232
20
-48.9089
0
VERTEX
8
CUT
10
34.2232
20
-48.9081
0
VERTEX
8
CUT
10
34.2232
20
-48.9059
0
VERTEX
8
CUT
10
34.2232
20
-48.9051
0
VERTEX
8
CUT
10
34.2130
20
-48.4948
0
VERTEX
8
CUT
10
34.2130
20
-48.4940
0
VERTEX
8
CUT
10
34.2129
20
-48.4916
0
VERTEX
8
CUT
10
34.2129
20
-48.4908
0
VERTEX
8
CUT
10
34.2129
20
-48.4884
0
VERTEX
8
CUT
10
34.2128
20
-48.4876
0
VERTEX
8
CUT
10
34.2128
20
-48.4852
0
VERTEX
8
CUT
10
34.2127
20
-48.4844
0
VERTEX
8
CUT
10
34.2014
20
-48.0882
0
VERTEX
8
CUT
10
34.2014
20
-48.0876
0
VERTEX
8
CUT
10
34.2013
20
-48.0859
0
VERTEX
8
CUT
10
34.2013
20
-48.0853
0
VERTEX
8
CUT
10
34.2012
20
-48.0835
0
VERTEX
8
CUT
10
34.2012
20
-48.0829
0
VERTEX
8
CUT
10
34.2012
20
-48.0812
0
VERTEX
8
CUT
10
34.2011
20
-48.0806
0
VERTEX
8
CUT
10
34.1890
20
-47.6979
0
VERTEX
8
CUT
10
34.1890
20
-47.6975
0
VERTEX
8
CUT
10
34.1890
20
-47.6961
0
VERTEX
8
CUT
10
34.1890
20
-47.6957
0
VERTEX
8
CUT
10
34.1889
20
-47.6943
0
VERTEX
8
CUT
10
34.1889
20
-47.6938
0
VERTEX
8
CUT
10
34.1889
20
-47.6925
0
VERTEX
8
CUT
10
34.1889
20
-47.6920
0
VERTEX
8
CUT
10
34.1765
20
-47.3281
0
VERTEX
8
CUT
10
34.1765
20
-47.3274
0
VERTEX
8
CUT
10
34.1764
20
-47.3255
0
VERTEX
8
CUT
10
34.1764
20
-47.3249
0
VERTEX
8
CUT
10
34.1763
20
-47.3230
0
VERTEX
8
CUT
10
34.1763
20
-47.3224
0
VERTEX
8
CUT
10
34.1762
20
-47.3205
0
VERTEX
8
CUT
10
34.1762
20
-47.3198
0
VERTEX
8
CUT
10
34.1635
20
-46.9775
0
VERTEX
8
CUT
10
34.1635
20
-46.9767
0
VERTEX
8
CUT
10
34.1634
20
-46.9742
0
VERTEX
8
CUT
10
34.1634
20
-46.9734
0
VERTEX
8
CUT
10
34.1633
20
-46.9709
0
VERTEX
8
CUT
10
34.1632
20
-46.9700
0
VERTEX
8
CUT
10
34.1631
20
-46.9676
0
VERTEX
8
CUT
10
34.1631
20
-46.9667
0
VERTEX
8
CUT
10
34.1498
20
-46.6450
0
VERTEX
8
CUT
10
34.1498
20
-46.6440
0
VERTEX
8
CUT
10
34.1497
20
-46.6409
0
VERTEX
8
CUT
10
34.1496
20
-46.6398
0
VERTEX
8
CUT
10
34.1495
20
-46.6367
0
VERTEX
8
CUT
10
34.1494
20
-46.6357
0
VERTEX
8
CUT
10
34.1493
20
-46.6326
0
VERTEX
8
CUT
10
34.1492
20
-46.6315
0
VERTEX
8
CUT
10
34.1352
20
-46.3293
0
VERTEX
8
CUT
10
34.1351
20
-46.3280
0
VERTEX
8
CUT
10
34.1350
20
-46.3243
0
VERTEX
8
CUT
10
34.1349
20
-46.3230
0
VERTEX
8
CUT
10
34.1347
20
-46.3192
0
VERTEX
8
CUT
10
34.1346
20
-46.3180
0
VERTEX
8
CUT
10
34.1345
20
-46.3142
0
VERTEX
8
CUT
10
34.1344
20
-46.3129
0
VERTEX
8
CUT
10
34.1194
20
-46.0290
0
VERTEX
8
CUT
10
34.1193
20
-46.0275
0
VERTEX
8
CUT
10
34.1191
20
-46.0231
0
VERTEX
8
CUT
10
34.1190
20
-46.0216
0
VERTEX
8
CUT
10
34.1187
20
-46.0171
0
VERTEX
8
CUT
10
34.1187
20
-46.0156
0
VERTEX
8
CUT
10
34.1184
20
-46.0111
0
VERTEX
8
CUT
10
34.1183
20
-46.0096
0
VERTEX
8
CUT
10
34.1022
20
-45.7427
0
VERTEX
8
CUT
10
34.1021
20
-45.7410
0
VERTEX
8
CUT
10
34.1018
20
-45.7358
0
VERTEX
8
CUT
10
34.1017
20
-45.7341
0
VERTEX
8
CUT
10
34.1014
20
-45.7290
0
VERTEX
8
CUT
10
34.1012
20
-45.7272
0
VERTEX
8
CUT
10
34.1009
20
-45.7221
0
VERTEX
8
CUT
10
34.1008
20
-45.7203
0
VERTEX
8
CUT
10
34.0834
20
-45.4689
0
VERTEX
8
CUT
10
34.0833
20
-45.4670
0
VERTEX
8
CUT
10
34.0829
20
-45.4611
0
VERTEX
8
CUT
10
34.0827
20
-45.4591
0
VERTEX
8
CUT
10
34.0823
20
-45.4533
0
VERTEX
8
CUT
10
34.0822
20
-45.4514
0
VERTEX
8
CUT
10
34.0817
20
-45.4455
0
VERTEX
8
CUT
10
34.0816
20
-45.4436
0
VERTEX
8
CUT
10
34.0629
20
-45.2059
0
VERTEX
8
CUT
10
34.0627
20
-45.2037
0
VERTEX
8
CUT
10
34.0621
20
-45.1972
0
VERTEX
8
CUT
10
34.0620
20
-45.1951
0
VERTEX
8
CUT
10
34.0614
20
-45.1886
0
VERTEX
8
CUT
10
34.0612
20
-45.1864
0
VERTEX
8
CUT
10
34.0607
20
-45.1799
0
VERTEX
8
CUT
10
34.0605
20
-45.1778
0
VERTEX
8
CUT
10
34.0402
20
-44.9519
0
VERTEX
8
CUT
10
34.0400
20
-44.9496
0
VERTEX
8
CUT
10
34.0394
20
-44.9425
0
VERTEX
8
CUT
10
34.0391
20
-44.9401
0
VERTEX
8
CUT
10
34.0385
20
-44.9331
0
VERTEX
8
CUT
10
34.0382
20
-44.9307
0
VERTEX
8
CUT
10
34.0375
20
-44.9236
0
VERTEX
8
CUT
10
34.0373
20
-44.9213
0
VERTEX
8
CUT
10
34.0153
20
-44.7051
0
VERTEX
8
CUT
10
34.0151
20
-44.7026
0
VERTEX
8
CUT
10
34.0143
20
-44.6950
0
VERTEX
8
CUT
10
34.0140
20
-44.6925
0
VERTEX
8
CUT
10
34.0132
20
-44.6850
0
VERTEX
8
CUT
10
34.0129
20
-44.6824
0
VERTEX
8
CUT
10
34.0121
20
-44.6749
0
VERTEX
8
CUT
10
34.0118
20
-44.6724
0
VERTEX
8
CUT
10
33.9879
20
-44.4635
0
VERTEX
8
CUT
10
33.9876
20
-44.4609
0
VERTEX
8
CUT
10
33.9866
20
-44.4529
0
VERTEX
8
CUT
10
33.9863
20
-44.4503
0
VERTEX
8
CUT
10
33.9854
20
-44.4424
0
VERTEX
8
CUT
10
33.9850
20
-44.4397
0
VERTEX
8
CUT
10
33.9840
20
-44.4318
0
VERTEX
8
CUT
10
33.9837
20
-44.4291
0
VERTEX
8
CUT
10
33.9576
20
-44.2251
0
VERTEX
8
CUT
10
33.9572
20
-44.2223
0
VERTEX
8
CUT
10
33.9562
20
-44.2142
0
VERTEX
8
CUT
10
33.9558
20
-44.2114
0
VERTEX
8
CUT
10
33.9547
20
-44.2032
0
VERTEX
8
CUT
10
33.9543
20
-44.2005
0
VERTEX
8
CUT
10
33.9532
20
-44.1923
0
VERTEX
8
CUT
10
33.9528
20
-44.1896
0
VERTEX
8
CUT
10
33.9241
20
-43.9877
0
VERTEX
8
CUT
10
33.9237
20
-43.9849
0
VERTEX
8
CUT
10
33.9225
20
-43.9766
0
VERTEX
8
CUT
10
33.9221
20
-43.9738
0
VERTEX
8
CUT
10
33.9209
20
-43.9655
0
VERTEX
8
CUT
10
33.9205
20
-43.9628
0
VERTEX
8
CUT
10
33.9192
20
-43.9545
0
VERTEX
8
CUT
10
33.9188
20
-43.9517
0
VERTEX
8
CUT
10
33.8871
20
-43.7492
0
VERTEX
8
CUT
10
33.8867
20
-43.7465
0
VERTEX
8
CUT
10
33.8854
20
-43.7382
0
VERTEX
8
CUT
10
33.8849
20
-43.7354
0
VERTEX
8
CUT
10
33.8836
20
-43.7271
0
VERTEX
8
CUT
10
33.8831
20
-43.7244
0
VERTEX
8
CUT
10
33.8817
20
-43.7161
0
VERTEX
8
CUT
10
33.8813
20
-43.7134
0
VERTEX
8
CUT
10
33.8484
20
-43.5208
0
VERTEX
8
CUT
10
33.8478
20
-43.5171
0
VERTEX
8
CUT
10
33.8458
20
-43.5060
0
VERTEX
8
CUT
10
33.8452
20
-43.5024
0
VERTEX
8
CUT
10
33.8432
20
-43.4913
0
VERTEX
8
CUT
10
33.8425
20
-43.4876
0
VERTEX
8
CUT
10
33.8405
20
-43.4766
0
VERTEX
8
CUT
10
33.8398
20
-43.4729
0
VERTEX
8
CUT
10
33.8078
20
-43.3047
0
VERTEX
8
CUT
10
33.8069
20
-43.3002
0
VERTEX
8
CUT
10
33.8043
20
-43.2868
0
VERTEX
8
CUT
10
33.8034
20
-43.2824
0
VERTEX
8
CUT
10
33.8007
20
-43.2690
0
VERTEX
8
CUT
10
33.7998
20
-43.2645
0
VERTEX
8
CUT
10
33.7970
20
-43.2511
0
VERTEX
8
CUT
10
33.7961
20
-43.2467
0
VERTEX
8
CUT
10
33.7628
20
-43.0907
0
VERTEX
8
CUT
10
33.7619
20
-43.0865
0
VERTEX
8
CUT
10
33.7591
20
-43.0740
0
VERTEX
8
CUT
10
33.7582
20
-43.0699
0
VERTEX
8
CUT
10
33.7554
20
-43.0574
0
VERTEX
8
CUT
10
33.7545
20
-43.0532
0
VERTEX
8
CUT
10
33.7516
20
-43.0408
0
VERTEX
8
CUT
10
33.7506
20
-43.0366
0
VERTEX
8
CUT
10
33.7131
20
-42.8775
0
VERTEX
8
CUT
10
33.7121
20
-42.8736
0
VERTEX
8
CUT
10
33.7094
20
-42.8621
0
VERTEX
8
CUT
10
33.7084
20
-42.8583
0
VERTEX
8
CUT
10
33.7056
20
-42.8468
0
VERTEX
8
CUT
10
33.7046
20
-42.8430
0
VERTEX
8
CUT
10
33.7018
20
-42.8315
0
VERTEX
8
CUT
10
33.7008
20
-42.8277
0
VERTEX
8
CUT
10
33.6588
20
-42.6642
0
VERTEX
8
CUT
10
33.6579
20
-42.6607
0
VERTEX
8
CUT
10
33.6551
20
-42.6503
0
VERTEX
8
CUT
10
33.6542
20
-42.6468
0
VERTEX
8
CUT
10
33.6514
20
-42.6364
0
VERTEX
8
CUT
10
33.6505
20
-42.6329
0
VERTEX
8
CUT
10
33.6477
20
-42.6225
0
VERTEX
8
CUT
10
33.6467
20
-42.6190
0
VERTEX
8
CUT
10
33.6001
20
-42.4502
0
VERTEX
8
CUT
10
33.5992
20
-42.4471
0
VERTEX
8
CUT
10
33.5966
20
-42.4378
0
VERTEX
8
CUT
10
33.5957
20
-42.4347
0
VERTEX
8
CUT
10
33.5931
20
-42.4254
0
VERTEX
8
CUT
10
33.5922
20
-42.4223
0
VERTEX
8
CUT
10
33.5895
20
-42.4130
0
VERTEX
8
CUT
10
33.5886
20
-42.4099
0
VERTEX
8
CUT
10
33.5371
20
-42.2346
0
VERTEX
8
CUT
10
33.5363
20
-42.2319
0
VERTEX
8
CUT
10
33.5339
20
-42.2238
0
VERTEX
8
CUT
10
33.5331
20
-42.2211
0
VERTEX
8
CUT
10
33.5307
20
-42.2130
0
VERTEX
8
CUT
10
33.5299
20
-42.2103
0
VERTEX
8
CUT
10
33.5274
20
-42.2022
0
VERTEX
8
CUT
10
33.5266
20
-42.1995
0
VERTEX
8
CUT
10
33.4701
20
-42.0169
0
VERTEX
8
CUT
10
33.4694
20
-42.0146
0
VERTEX
8
CUT
10
33.4673
20
-42.0077
0
VERTEX
8
CUT
10
33.4666
20
-42.0054
0
VERTEX
8
CUT
10
33.4644
20
-41.9986
0
VERTEX
8
CUT
10
33.4637
20
-41.9963
0
VERTEX
8
CUT
10
33.4615
20
-41.9894
0
VERTEX
8
CUT
10
33.4608
20
-41.9872
0
VERTEX
8
CUT
10
33.3993
20
-41.7963
0
VERTEX
8
CUT
10
33.3987
20
-41.7944
0
VERTEX
8
CUT
10
33.3968
20
-41.7889
0
VERTEX
8
CUT
10
33.3962
20
-41.7870
0
VERTEX
8
CUT
10
33.3944
20
-41.7814
0
VERTEX
8
CUT
10
33.3938
20
-41.7796
0
VERTEX
8
CUT
10
33.3920
20
-41.7740
0
VERTEX
8
CUT
10
33.3914
20
-41.7722
0
VERTEX
8
CUT
10
33.3248
20
-41.5723
0
VERTEX
8
CUT
10
33.3243
20
-41.5709
0
VERTEX
8
CUT
10
33.3229
20
-41.5666
0
VERTEX
8
CUT
10
33.3224
20
-41.5652
0
VERTEX
8
CUT
10
33.3210
20
-41.5610
0
VERTEX
8
CUT
10
33.3205
20
-41.5595
0
VERTEX
8
CUT
10
33.3191
20
-41.5553
0
VERTEX
8
CUT
10
33.3186
20
-41.5539
0
VERTEX
8
CUT
10
33.2470
20
-41.3442
0
VERTEX
8
CUT
10
33.2467
20
-41.3433
0
VERTEX
8
CUT
10
33.2457
20
-41.3404
0
VERTEX
8
CUT
10
33.2454
20
-41.3394
0
VERTEX
8
CUT
10
33.2444
20
-41.3365
0
VERTEX
8
CUT
10
33.2441
20
-41.3356
0
VERTEX
8
CUT
10
33.2431
20
-41.3327
0
VERTEX
8
CUT
10
33.2427
20
-41.3317
0
VERTEX
8
CUT
10
33.1663
20
-41.1116
0
VERTEX
8
CUT
10
33.1662
20
-41.1111
0
VERTEX
8
CUT
10
33.1656
20
-41.1096
0
VERTEX
8
CUT
10
33.1655
20
-41.1091
0
VERTEX
8
CUT
10
33.1649
20
-41.1076
0
VERTEX
8
CUT
10
33.1648
20
-41.1071
0
VERTEX
8
CUT
10
33.1642
20
-41.1056
0
VERTEX
8
CUT
10
33.1641
20
-41.1051
0
VERTEX
8
CUT
10
33.0832
20
-40.8740
0
VERTEX
8
CUT
10
33.0832
20
-40.8739
0
VERTEX
8
CUT
10
33.0831
20
-40.8737
0
VERTEX
8
CUT
10
33.0831
20
-40.8737
0
VERTEX
8
CUT
10
33.0830
20
-40.8736
0
VERTEX
8
CUT
10
33.0830
20
-40.8735
0
VERTEX
8
CUT
10
33.0830
20
-40.8735
0
VERTEX
8
CUT
10
33.0026
20
-40.6439
0
VERTEX
8
CUT
10
33.0025
20
-40.6438
0
VERTEX
8
CUT
10
33.0021
20
-40.6424
0
VERTEX
8
CUT
10
33.0020
20
-40.6422
0
VERTEX
8
CUT
10
33.0015
20
-40.6408
0
VERTEX
8
CUT
10
33.0015
20
-40.6406
0
VERTEX
8
CUT
10
33.0009
20
-40.6392
0
VERTEX
8
CUT
10
33.0009
20
-40.6390
0
VERTEX
8
CUT
10
32.9969
20
-40.6277
0
VERTEX
8
CUT
10
32.9969
20
-40.6275
0
VERTEX
8
CUT
10
32.9964
20
-40.6261
0
VERTEX
8
CUT
10
32.9964
20
-40.6260
0
VERTEX
8
CUT
10
32.9958
20
-40.6245
0
VERTEX
8
CUT
10
32.9958
20
-40.6244
0
VERTEX
8
CUT
10
32.9953
20
-40.6230
0
VERTEX
8
CUT
10
32.9952
20
-40.6228
0
VERTEX
8
CUT
10
32.9209
20
-40.4089
0
VERTEX
8
CUT
10
32.9208
20
-40.4087
0
VERTEX
8
CUT
10
32.9198
20
-40.4057
0
VERTEX
8
CUT
10
32.9197
20
-40.4055
0
VERTEX
8
CUT
10
32.9186
20
-40.4023
0
VERTEX
8
CUT
10
32.9185
20
-40.4021
0
VERTEX
8
CUT
10
32.9175
20
-40.3991
0
VERTEX
8
CUT
10
32.9174
20
-40.3989
0
VERTEX
8
CUT
10
32.9092
20
-40.3750
0
VERTEX
8
CUT
10
32.9091
20
-40.3748
0
VERTEX
8
CUT
10
32.9081
20
-40.3718
0
VERTEX
8
CUT
10
32.9080
20
-40.3716
0
VERTEX
8
CUT
10
32.9069
20
-40.3684
0
VERTEX
8
CUT
10
32.9068
20
-40.3682
0
VERTEX
8
CUT
10
32.9058
20
-40.3652
0
VERTEX
8
CUT
10
32.9057
20
-40.3649
0
VERTEX
8
CUT
10
32.8381
20
-40.1674
0
VERTEX
8
CUT
10
32.8380
20
-40.1671
0
VERTEX
8
CUT
10
32.8365
20
-40.1625
0
VERTEX
8
CUT
10
32.8363
20
-40.1622
0
VERTEX
8
CUT
10
32.8347
20
-40.1573
0
VERTEX
8
CUT
10
32.8346
20
-40.1569
0
VERTEX
8
CUT
10
32.8330
20
-40.1524
0
VERTEX
8
CUT
10
32.8329
20
-40.1521
0
VERTEX
8
CUT
10
32.8206
20
-40.1157
0
VERTEX
8
CUT
10
32.8205
20
-40.1154
0
VERTEX
8
CUT
10
32.8190
20
-40.1108
0
VERTEX
8
CUT
10
32.8189
20
-40.1105
0
VERTEX
8
CUT
10
32.8172
20
-40.1056
0
VERTEX
8
CUT
10
32.8171
20
-40.1053
0
VERTEX
8
CUT
10
32.8156
20
-40.1007
0
VERTEX
8
CUT
10
32.8155
20
-40.1004
0
VERTEX
8
CUT
10
32.7460
20
-39.8922
0
VERTEX
8
CUT
10
32.7460
20
-39.8922
0
VERTEX
8
CUT
10
32.7459
20
-39.8921
0
VERTEX
8
CUT
10
32.7456
20
-39.8911
0
VERTEX
8
CUT
10
32.7456
20
-39.8910
0
VERTEX
8
CUT
10
32.7456
20
-39.8910
0
VERTEX
8
CUT
10
32.7452
20
-39.8900
0
VERTEX
8
CUT
10
32.7452
20
-39.8900
0
VERTEX
8
CUT
10
32.7452
20
-39.8898
0
VERTEX
8
CUT
10
32.7449
20
-39.8889
0
VERTEX
8
CUT
10
32.7449
20
-39.8889
0
VERTEX
8
CUT
10
32.7448
20
-39.8888
0
VERTEX
8
CUT
10
32.7421
20
-39.8808
0
VERTEX
8
CUT
10
32.7421
20
-39.8808
0
VERTEX
8
CUT
10
32.7421
20
-39.8807
0
VERTEX
8
CUT
10
32.7418
20
-39.8797
0
VERTEX
8
CUT
10
32.7417
20
-39.8796
0
VERTEX
8
CUT
10
32.7414
20
-39.8785
0
VERTEX
8
CUT
10
32.7414
20
-39.8785
0
VERTEX
8
CUT
10
32.7413
20
-39.8784
0
VERTEX
8
CUT
10
32.7410
20
-39.8774
0
VERTEX
8
CUT
10
32.7410
20
-39.8774
0
VERTEX
8
CUT
10
32.7410
20
-39.8774
0
VERTEX
8
CUT
10
32.6685
20
-39.6591
0
VERTEX
8
CUT
10
32.6682
20
-39.6581
0
VERTEX
8
CUT
10
32.6671
20
-39.6550
0
VERTEX
8
CUT
10
32.6668
20
-39.6540
0
VERTEX
8
CUT
10
32.6658
20
-39.6509
0
VERTEX
8
CUT
10
32.6654
20
-39.6498
0
VERTEX
8
CUT
10
32.6644
20
-39.6467
0
VERTEX
8
CUT
10
32.6640
20
-39.6457
0
VERTEX
8
CUT
10
32.5928
20
-39.4353
0
VERTEX
8
CUT
10
32.5925
20
-39.4343
0
VERTEX
8
CUT
10
32.5916
20
-39.4315
0
VERTEX
8
CUT
10
32.5912
20
-39.4306
0
VERTEX
8
CUT
10
32.5903
20
-39.4277
0
VERTEX
8
CUT
10
32.5899
20
-39.4268
0
VERTEX
8
CUT
10
32.5890
20
-39.4239
0
VERTEX
8
CUT
10
32.5887
20
-39.4230
0
VERTEX
8
CUT
10
32.5157
20
-39.2108
0
VERTEX
8
CUT
10
32.5154
20
-39.2100
0
VERTEX
8
CUT
10
32.5145
20
-39.2074
0
VERTEX
8
CUT
10
32.5142
20
-39.2065
0
VERTEX
8
CUT
10
32.5133
20
-39.2039
0
VERTEX
8
CUT
10
32.5130
20
-39.2031
0
VERTEX
8
CUT
10
32.5121
20
-39.2005
0
VERTEX
8
CUT
10
32.5118
20
-39.1996
0
VERTEX
8
CUT
10
32.4373
20
-38.9861
0
VERTEX
8
CUT
10
32.4371
20
-38.9853
0
VERTEX
8
CUT
10
32.4362
20
-38.9830
0
VERTEX
8
CUT
10
32.4360
20
-38.9822
0
VERTEX
8
CUT
10
32.4351
20
-38.9799
0
VERTEX
8
CUT
10
32.4349
20
-38.9791
0
VERTEX
8
CUT
10
32.4340
20
-38.9767
0
VERTEX
8
CUT
10
32.4338
20
-38.9760
0
VERTEX
8
CUT
10
32.3579
20
-38.7615
0
VERTEX
8
CUT
10
32.3577
20
-38.7608
0
VERTEX
8
CUT
10
32.3569
20
-38.7587
0
VERTEX
8
CUT
10
32.3567
20
-38.7580
0
VERTEX
8
CUT
10
32.3559
20
-38.7559
0
VERTEX
8
CUT
10
32.3557
20
-38.7552
0
VERTEX
8
CUT
10
32.3549
20
-38.7531
0
VERTEX
8
CUT
10
32.3547
20
-38.7524
0
VERTEX
8
CUT
10
32.2777
20
-38.5373
0
VERTEX
8
CUT
10
32.2775
20
-38.5367
0
VERTEX
8
CUT
10
32.2768
20
-38.5348
0
VERTEX
8
CUT
10
32.2766
20
-38.5342
0
VERTEX
8
CUT
10
32.2759
20
-38.5323
0
VERTEX
8
CUT
10
32.2757
20
-38.5316
0
VERTEX
8
CUT
10
32.2750
20
-38.5298
0
VERTEX
8
CUT
10
32.2748
20
-38.5291
0
VERTEX
8
CUT
10
32.1969
20
-38.3138
0
VERTEX
8
CUT
10
32.1967
20
-38.3133
0
VERTEX
8
CUT
10
32.1961
20
-38.3116
0
VERTEX
8
CUT
10
32.1959
20
-38.3110
0
VERTEX
8
CUT
10
32.1953
20
-38.3094
0
VERTEX
8
CUT
10
32.1951
20
-38.3088
0
VERTEX
8
CUT
10
32.1945
20
-38.3071
0
VERTEX
8
CUT
10
32.1943
20
-38.3066
0
VERTEX
8
CUT
10
32.1158
20
-38.0913
0
VERTEX
8
CUT
10
32.1156
20
-38.0909
0
VERTEX
8
CUT
10
32.1151
20
-38.0894
0
VERTEX
8
CUT
10
32.1149
20
-38.0889
0
VERTEX
8
CUT
10
32.1144
20
-38.0875
0
VERTEX
8
CUT
10
32.1142
20
-38.0870
0
VERTEX
8
CUT
10
32.1137
20
-38.0856
0
VERTEX
8
CUT
10
32.1135
20
-38.0851
0
VERTEX
8
CUT
10
32.0344
20
-37.8702
0
VERTEX
8
CUT
10
32.0343
20
-37.8698
0
VERTEX
8
CUT
10
32.0338
20
-37.8685
0
VERTEX
8
CUT
10
32.0337
20
-37.8681
0
VERTEX
8
CUT
10
32.0332
20
-37.8669
0
VERTEX
8
CUT
10
32.0331
20
-37.8665
0
VERTEX
8
CUT
10
32.0326
20
-37.8653
0
VERTEX
8
CUT
10
32.0325
20
-37.8649
0
VERTEX
8
CUT
10
31.9532
20
-37.6506
0
VERTEX
8
CUT
10
31.9530
20
-37.6503
0
VERTEX
8
CUT
10
31.9527
20
-37.6493
0
VERTEX
8
CUT
10
31.9525
20
-37.6490
0
VERTEX
8
CUT
10
31.9522
20
-37.6480
0
VERTEX
8
CUT
10
31.9520
20
-37.6476
0
VERTEX
8
CUT
10
31.9517
20
-37.6466
0
VERTEX
8
CUT
10
31.9515
20
-37.6463
0
VERTEX
8
CUT
10
31.8721
20
-37.4330
0
VERTEX
8
CUT
10
31.8720
20
-37.4327
0
VERTEX
8
CUT
10
31.8717
20
-37.4320
0
VERTEX
8
CUT
10
31.8716
20
-37.4317
0
VERTEX
8
CUT
10
31.8714
20
-37.4309
0
VERTEX
8
CUT
10
31.8713
20
-37.4307
0
VERTEX
8
CUT
10
31.8710
20
-37.4299
0
VERTEX
8
CUT
10
31.8709
20
-37.4296
0
VERTEX
8
CUT
10
31.7915
20
-37.2175
0
VERTEX
8
CUT
10
31.7915
20
-37.2173
0
VERTEX
8
CUT
10
31.7913
20
-37.2168
0
VERTEX
8
CUT
10
31.7912
20
-37.2166
0
VERTEX
8
CUT
10
31.7910
20
-37.2160
0
VERTEX
8
CUT
10
31.7909
20
-37.2158
0
VERTEX
8
CUT
10
31.7907
20
-37.2152
0
VERTEX
8
CUT
10
31.7906
20
-37.2151
0
VERTEX
8
CUT
10
31.7116
20
-37.0044
0
VERTEX
8
CUT
10
31.7116
20
-37.0043
0
VERTEX
8
CUT
10
31.7115
20
-37.0041
0
VERTEX
8
CUT
10
31.7115
20
-37.0039
0
VERTEX
8
CUT
10
31.7113
20
-37.0035
0
VERTEX
8
CUT
10
31.7113
20
-37.0034
0
VERTEX
8
CUT
10
31.7112
20
-37.0031
0
VERTEX
8
CUT
10
31.7111
20
-37.0030
0
VERTEX
8
CUT
10
31.6326
20
-36.7940
0
VERTEX
8
CUT
10
31.6326
20
-36.7940
0
VERTEX
8
CUT
10
31.6326
20
-36.7939
0
VERTEX
8
CUT
10
31.6325
20
-36.7938
0
VERTEX
8
CUT
10
31.6325
20
-36.7937
0
VERTEX
8
CUT
10
31.5553
20
-36.5884
0
VERTEX
8
CUT
10
31.5553
20
-36.5884
0
VERTEX
8
CUT
10
31.5553
20
-36.5883
0
VERTEX
8
CUT
10
31.5553
20
-36.5882
0
VERTEX
8
CUT
10
31.5552
20
-36.5880
0
VERTEX
8
CUT
10
31.5552
20
-36.5880
0
VERTEX
8
CUT
10
31.5552
20
-36.5880
0
VERTEX
8
CUT
10
31.5551
20
-36.5877
0
VERTEX
8
CUT
10
31.5544
20
-36.5859
0
VERTEX
8
CUT
10
31.5544
20
-36.5859
0
VERTEX
8
CUT
10
31.5543
20
-36.5856
0
VERTEX
8
CUT
10
31.5542
20
-36.5854
0
VERTEX
8
CUT
10
31.5541
20
-36.5852
0
VERTEX
8
CUT
10
31.5541
20
-36.5852
0
VERTEX
8
CUT
10
31.5541
20
-36.5852
0
VERTEX
8
CUT
10
31.4839
20
-36.3982
0
VERTEX
8
CUT
10
31.4835
20
-36.3971
0
VERTEX
8
CUT
10
31.4823
20
-36.3940
0
VERTEX
8
CUT
10
31.4820
20
-36.3930
0
VERTEX
8
CUT
10
31.4808
20
-36.3898
0
VERTEX
8
CUT
10
31.4804
20
-36.3888
0
VERTEX
8
CUT
10
31.4792
20
-36.3856
0
VERTEX
8
CUT
10
31.4788
20
-36.3846
0
VERTEX
8
CUT
10
31.4193
20
-36.2288
0
VERTEX
8
CUT
10
31.4185
20
-36.2268
0
VERTEX
8
CUT
10
31.4162
20
-36.2207
0
VERTEX
8
CUT
10
31.4154
20
-36.2187
0
VERTEX
8
CUT
10
31.4130
20
-36.2126
0
VERTEX
8
CUT
10
31.4122
20
-36.2105
0
VERTEX
8
CUT
10
31.4099
20
-36.2045
0
VERTEX
8
CUT
10
31.4091
20
-36.2024
0
VERTEX
8
CUT
10
31.3531
20
-36.0606
0
VERTEX
8
CUT
10
31.3525
20
-36.0589
0
VERTEX
8
CUT
10
31.3504
20
-36.0537
0
VERTEX
8
CUT
10
31.3497
20
-36.0520
0
VERTEX
8
CUT
10
31.3477
20
-36.0469
0
VERTEX
8
CUT
10
31.3470
20
-36.0452
0
VERTEX
8
CUT
10
31.3449
20
-36.0401
0
VERTEX
8
CUT
10
31.3442
20
-36.0384
0
VERTEX
8
CUT
10
31.2850
20
-35.8922
0
VERTEX
8
CUT
10
31.2845
20
-35.8908
0
VERTEX
8
CUT
10
31.2828
20
-35.8867
0
VERTEX
8
CUT
10
31.2823
20
-35.8853
0
VERTEX
8
CUT
10
31.2806
20
-35.8812
0
VERTEX
8
CUT
10
31.2800
20
-35.8799
0
VERTEX
8
CUT
10
31.2783
20
-35.8758
0
VERTEX
8
CUT
10
31.2778
20
-35.8744
0
VERTEX
8
CUT
10
31.2151
20
-35.7228
0
VERTEX
8
CUT
10
31.2146
20
-35.7218
0
VERTEX
8
CUT
10
31.2134
20
-35.7188
0
VERTEX
8
CUT
10
31.2130
20
-35.7178
0
VERTEX
8
CUT
10
31.2117
20
-35.7148
0
VERTEX
8
CUT
10
31.2113
20
-35.7138
0
VERTEX
8
CUT
10
31.2101
20
-35.7108
0
VERTEX
8
CUT
10
31.2096
20
-35.7098
0
VERTEX
8
CUT
10
31.1432
20
-35.5517
0
VERTEX
8
CUT
10
31.1430
20
-35.5511
0
VERTEX
8
CUT
10
31.1422
20
-35.5492
0
VERTEX
8
CUT
10
31.1419
20
-35.5486
0
VERTEX
8
CUT
10
31.1412
20
-35.5468
0
VERTEX
8
CUT
10
31.1409
20
-35.5462
0
VERTEX
8
CUT
10
31.1401
20
-35.5443
0
VERTEX
8
CUT
10
31.1399
20
-35.5437
0
VERTEX
8
CUT
10
31.0697
20
-35.3781
0
VERTEX
8
CUT
10
31.0696
20
-35.3779
0
VERTEX
8
CUT
10
31.0693
20
-35.3773
0
VERTEX
8
CUT
10
31.0693
20
-35.3771
0
VERTEX
8
CUT
10
31.0690
20
-35.3765
0
VERTEX
8
CUT
10
31.0689
20
-35.3763
0
VERTEX
8
CUT
10
31.0686
20
-35.3757
0
VERTEX
8
CUT
10
31.0686
20
-35.3755
0
VERTEX
8
CUT
10
30.9975
20
-35.2083
0
VERTEX
8
CUT
10
30.9975
20
-35.2083
0
VERTEX
8
CUT
10
30.9971
20
-35.2075
0
VERTEX
8
CUT
10
30.9971
20
-35.2075
0
VERTEX
8
CUT
10
30.9968
20
-35.2067
0
VERTEX
8
CUT
10
30.9964
20
-35.2059
0
VERTEX
8
CUT
10
30.9964
20
-35.2058
0
VERTEX
8
CUT
10
30.9939
20
-35.1998
0
VERTEX
8
CUT
10
30.9939
20
-35.1998
0
VERTEX
8
CUT
10
30.9939
20
-35.1998
0
VERTEX
8
CUT
10
30.9935
20
-35.1990
0
VERTEX
8
CUT
10
30.9932
20
-35.1981
0
VERTEX
8
CUT
10
30.9928
20
-35.1974
0
VERTEX
8
CUT
10
30.9928
20
-35.1973
0
VERTEX
8
CUT
10
30.9268
20
-35.0414
0
VERTEX
8
CUT
10
30.9267
20
-35.0412
0
VERTEX
8
CUT
10
30.9258
20
-35.0390
0
VERTEX
8
CUT
10
30.9257
20
-35.0389
0
VERTEX
8
CUT
10
30.9247
20
-35.0365
0
VERTEX
8
CUT
10
30.9246
20
-35.0363
0
VERTEX
8
CUT
10
30.9237
20
-35.0341
0
VERTEX
8
CUT
10
30.9236
20
-35.0339
0
VERTEX
8
CUT
10
30.9162
20
-35.0163
0
VERTEX
8
CUT
10
30.9161
20
-35.0161
0
VERTEX
8
CUT
10
30.9152
20
-35.0139
0
VERTEX
8
CUT
10
30.9151
20
-35.0137
0
VERTEX
8
CUT
10
30.9141
20
-35.0114
0
VERTEX
8
CUT
10
30.9140
20
-35.0112
0
VERTEX
8
CUT
10
30.9131
20
-35.0090
0
VERTEX
8
CUT
10
30.9130
20
-35.0088
0
VERTEX
8
CUT
10
30.8550
20
-34.8704
0
VERTEX
8
CUT
10
30.8549
20
-34.8701
0
VERTEX
8
CUT
10
30.8533
20
-34.8664
0
VERTEX
8
CUT
10
30.8532
20
-34.8661
0
VERTEX
8
CUT
10
30.8515
20
-34.8621
0
VERTEX
8
CUT
10
30.8514
20
-34.8618
0
VERTEX
8
CUT
10
30.8498
20
-34.8581
0
VERTEX
8
CUT
10
30.8497
20
-34.8578
0
VERTEX
8
CUT
10
30.8373
20
-34.8280
0
VERTEX
8
CUT
10
30.8372
20
-34.8278
0
VERTEX
8
CUT
10
30.8357
20
-34.8240
0
VERTEX
8
CUT
10
30.8356
20
-34.8238
0
VERTEX
8
CUT
10
30.8339
20
-34.8197
0
VERTEX
8
CUT
10
30.8338
20
-34.8195
0
VERTEX
8
CUT
10
30.8322
20
-34.8157
0
VERTEX
8
CUT
10
30.8321
20
-34.8154
0
VERTEX
8
CUT
10
30.7823
20
-34.6946
0
VERTEX
8
CUT
10
30.7822
20
-34.6942
0
VERTEX
8
CUT
10
30.7800
20
-34.6889
0
VERTEX
8
CUT
10
30.7798
20
-34.6885
0
VERTEX
8
CUT
10
30.7775
20
-34.6828
0
VERTEX
8
CUT
10
30.7773
20
-34.6824
0
VERTEX
8
CUT
10
30.7752
20
-34.6772
0
VERTEX
8
CUT
10
30.7750
20
-34.6767
0
VERTEX
8
CUT
10
30.7578
20
-34.6345
0
VERTEX
8
CUT
10
30.7577
20
-34.6341
0
VERTEX
8
CUT
10
30.7555
20
-34.6288
0
VERTEX
8
CUT
10
30.7554
20
-34.6284
0
VERTEX
8
CUT
10
30.7530
20
-34.6227
0
VERTEX
8
CUT
10
30.7529
20
-34.6223
0
VERTEX
8
CUT
10
30.7508
20
-34.6170
0
VERTEX
8
CUT
10
30.7506
20
-34.6166
0
VERTEX
8
CUT
10
30.7091
20
-34.5134
0
VERTEX
8
CUT
10
30.7089
20
-34.5128
0
VERTEX
8
CUT
10
30.7061
20
-34.5060
0
VERTEX
8
CUT
10
30.7059
20
-34.5054
0
VERTEX
8
CUT
10
30.7030
20
-34.4980
0
VERTEX
8
CUT
10
30.7028
20
-34.4975
0
VERTEX
8
CUT
10
30.7000
20
-34.4906
0
VERTEX
8
CUT
10
30.6998
20
-34.4901
0
VERTEX
8
CUT
10
30.6781
20
-34.4351
0
VERTEX
8
CUT
10
30.6779
20
-34.4346
0
VERTEX
8
CUT
10
30.6752
20
-34.4277
0
VERTEX
8
CUT
10
30.6750
20
-34.4271
0
VERTEX
8
CUT
10
30.6720
20
-34.4197
0
VERTEX
8
CUT
10
30.6718
20
-34.4192
0
VERTEX
8
CUT
10
30.6691
20
-34.4123
0
VERTEX
8
CUT
10
30.6689
20
-34.4118
0
VERTEX
8
CUT
10
30.6356
20
-34.3260
0
VERTEX
8
CUT
10
30.6353
20
-34.3253
0
VERTEX
8
CUT
10
30.6321
20
-34.3169
0
VERTEX
8
CUT
10
30.6318
20
-34.3162
0
VERTEX
8
CUT
10
30.6283
20
-34.3071
0
VERTEX
8
CUT
10
30.6280
20
-34.3064
0
VERTEX
8
CUT
10
30.6248
20
-34.2979
0
VERTEX
8
CUT
10
30.6245
20
-34.2973
0
VERTEX
8
CUT
10
30.5987
20
-34.2293
0
VERTEX
8
CUT
10
30.5984
20
-34.2286
0
VERTEX
8
CUT
10
30.5952
20
-34.2201
0
VERTEX
8
CUT
10
30.5949
20
-34.2195
0
VERTEX
8
CUT
10
30.5915
20
-34.2103
0
VERTEX
8
CUT
10
30.5913
20
-34.2097
0
VERTEX
8
CUT
10
30.5881
20
-34.2011
0
VERTEX
8
CUT
10
30.5878
20
-34.2005
0
VERTEX
8
CUT
10
30.5622
20
-34.1319
0
VERTEX
8
CUT
10
30.5619
20
-34.1311
0
VERTEX
8
CUT
10
30.5582
20
-34.1210
0
VERTEX
8
CUT
10
30.5579
20
-34.1202
0
VERTEX
8
CUT
10
30.5539
20
-34.1093
0
VERTEX
8
CUT
10
30.5536
20
-34.1085
0
VERTEX
8
CUT
10
30.5499
20
-34.0984
0
VERTEX
8
CUT
10
30.5496
20
-34.0976
0
VERTEX
8
CUT
10
30.5202
20
-34.0166
0
VERTEX
8
CUT
10
30.5199
20
-34.0159
0
VERTEX
8
CUT
10
30.5163
20
-34.0057
0
VERTEX
8
CUT
10
30.5160
20
-34.0049
0
VERTEX
8
CUT
10
30.5121
20
-33.9940
0
VERTEX
8
CUT
10
30.5118
20
-33.9933
0
VERTEX
8
CUT
10
30.5082
20
-33.9831
0
VERTEX
8
CUT
10
30.5079
20
-33.9823
0
VERTEX
8
CUT
10
30.4895
20
-33.9304
0
VERTEX
8
CUT
10
30.4892
20
-33.9295
0
VERTEX
8
CUT
10
30.4851
20
-33.9178
0
VERTEX
8
CUT
10
30.4848
20
-33.9169
0
VERTEX
8
CUT
10
30.4804
20
-33.9043
0
VERTEX
8
CUT
10
30.4801
20
-33.9034
0
VERTEX
8
CUT
10
30.4760
20
-33.8916
0
VERTEX
8
CUT
10
30.4757
20
-33.8907
0
VERTEX
8
CUT
10
30.4435
20
-33.7968
0
VERTEX
8
CUT
10
30.4432
20
-33.7959
0
VERTEX
8
CUT
10
30.4392
20
-33.7842
0
VERTEX
8
CUT
10
30.4389
20
-33.7833
0
VERTEX
8
CUT
10
30.4346
20
-33.7706
0
VERTEX
8
CUT
10
30.4343
20
-33.7697
0
VERTEX
8
CUT
10
30.4303
20
-33.7580
0
VERTEX
8
CUT
10
30.4300
20
-33.7571
0
VERTEX
8
CUT
10
30.4181
20
-33.7211
0
VERTEX
8
CUT
10
30.4178
20
-33.7201
0
VERTEX
8
CUT
10
30.4134
20
-33.7068
0
VERTEX
8
CUT
10
30.4130
20
-33.7058
0
VERTEX
8
CUT
10
30.4084
20
-33.6915
0
VERTEX
8
CUT
10
30.4080
20
-33.6905
0
VERTEX
8
CUT
10
30.4037
20
-33.6772
0
VERTEX
8
CUT
10
30.4034
20
-33.6762
0
VERTEX
8
CUT
10
30.3692
20
-33.5696
0
VERTEX
8
CUT
10
30.3689
20
-33.5686
0
VERTEX
8
CUT
10
30.3647
20
-33.5553
0
VERTEX
8
CUT
10
30.3644
20
-33.5543
0
VERTEX
8
CUT
10
30.3598
20
-33.5399
0
VERTEX
8
CUT
10
30.3595
20
-33.5389
0
VERTEX
8
CUT
10
30.3553
20
-33.5255
0
VERTEX
8
CUT
10
30.3550
20
-33.5245
0
VERTEX
8
CUT
10
30.3353
20
-33.4607
0
VERTEX
8
CUT
10
30.3352
20
-33.4601
0
VERTEX
8
CUT
10
30.3331
20
-33.4536
0
VERTEX
8
CUT
10
30.3330
20
-33.4531
0
VERTEX
8
CUT
10
30.3308
20
-33.4460
0
VERTEX
8
CUT
10
30.3307
20
-33.4455
0
VERTEX
8
CUT
10
30.3287
20
-33.4389
0
VERTEX
8
CUT
10
30.3285
20
-33.4384
0
VERTEX
8
CUT
10
30.3126
20
-33.3859
0
VERTEX
8
CUT
10
30.3124
20
-33.3854
0
VERTEX
8
CUT
10
30.3104
20
-33.3788
0
VERTEX
8
CUT
10
30.3103
20
-33.3783
0
VERTEX
8
CUT
10
30.3082
20
-33.3712
0
VERTEX
8
CUT
10
30.3080
20
-33.3707
0
VERTEX
8
CUT
10
30.3061
20
-33.3641
0
VERTEX
8
CUT
10
30.3059
20
-33.3636
0
VERTEX
8
CUT
10
30.2676
20
-33.2348
0
VERTEX
8
CUT
10
30.2676
20
-33.2347
0
VERTEX
8
CUT
10
30.2675
20
-33.2346
0
VERTEX
8
CUT
10
30.2675
20
-33.2346
0
VERTEX
8
CUT
10
30.2675
20
-33.2345
0
VERTEX
8
CUT
10
30.2675
20
-33.2345
0
VERTEX
8
CUT
10
30.2675
20
-33.2344
0
VERTEX
8
CUT
10
30.2244
20
-33.0897
0
VERTEX
8
CUT
10
30.2244
20
-33.0896
0
VERTEX
8
CUT
10
30.2239
20
-33.0878
0
VERTEX
8
CUT
10
30.2238
20
-33.0877
0
VERTEX
8
CUT
10
30.2233
20
-33.0857
0
VERTEX
8
CUT
10
30.2232
20
-33.0856
0
VERTEX
8
CUT
10
30.2227
20
-33.0838
0
VERTEX
8
CUT
10
30.2226
20
-33.0836
0
VERTEX
8
CUT
10
30.2183
20
-33.0691
0
VERTEX
8
CUT
10
30.2183
20
-33.0690
0
VERTEX
8
CUT
10
30.2177
20
-33.0671
0
VERTEX
8
CUT
10
30.2177
20
-33.0670
0
VERTEX
8
CUT
10
30.2171
20
-33.0650
0
VERTEX
8
CUT
10
30.2171
20
-33.0649
0
VERTEX
8
CUT
10
30.2166
20
-33.0631
0
VERTEX
8
CUT
10
30.2165
20
-33.0629
0
VERTEX
8
CUT
10
30.1820
20
-32.9457
0
VERTEX
8
CUT
10
30.1819
20
-32.9454
0
VERTEX
8
CUT
10
30.1807
20
-32.9414
0
VERTEX
8
CUT
10
30.1807
20
-32.9411
0
VERTEX
8
CUT
10
30.1794
20
-32.9368
0
VERTEX
8
CUT
10
30.1793
20
-32.9365
0
VERTEX
8
CUT
10
30.1782
20
-32.9326
0
VERTEX
8
CUT
10
30.1781
20
-32.9323
0
VERTEX
8
CUT
10
30.1689
20
-32.9007
0
VERTEX
8
CUT
10
30.1688
20
-32.9004
0
VERTEX
8
CUT
10
30.1676
20
-32.8964
0
VERTEX
8
CUT
10
30.1676
20
-32.8961
0
VERTEX
8
CUT
10
30.1663
20
-32.8919
0
VERTEX
8
CUT
10
30.1662
20
-32.8915
0
VERTEX
8
CUT
10
30.1651
20
-32.8876
0
VERTEX
8
CUT
10
30.1650
20
-32.8873
0
VERTEX
8
CUT
10
30.1394
20
-32.7982
0
VERTEX
8
CUT
10
30.1393
20
-32.7977
0
VERTEX
8
CUT
10
30.1375
20
-32.7915
0
VERTEX
8
CUT
10
30.1373
20
-32.7910
0
VERTEX
8
CUT
10
30.1354
20
-32.7843
0
VERTEX
8
CUT
10
30.1353
20
-32.7839
0
VERTEX
8
CUT
10
30.1336
20
-32.7777
0
VERTEX
8
CUT
10
30.1334
20
-32.7772
0
VERTEX
8
CUT
10
30.1194
20
-32.7276
0
VERTEX
8
CUT
10
30.1193
20
-32.7271
0
VERTEX
8
CUT
10
30.1175
20
-32.7209
0
VERTEX
8
CUT
10
30.1174
20
-32.7204
0
VERTEX
8
CUT
10
30.1155
20
-32.7137
0
VERTEX
8
CUT
10
30.1154
20
-32.7132
0
VERTEX
8
CUT
10
30.1137
20
-32.7070
0
VERTEX
8
CUT
10
30.1135
20
-32.7066
0
VERTEX
8
CUT
10
30.0963
20
-32.6441
0
VERTEX
8
CUT
10
30.0961
20
-32.6434
0
VERTEX
8
CUT
10
30.0938
20
-32.6350
0
VERTEX
8
CUT
10
30.0936
20
-32.6344
0
VERTEX
8
CUT
10
30.0911
20
-32.6253
0
VERTEX
8
CUT
10
30.0909
20
-32.6247
0
VERTEX
8
CUT
10
30.0887
20
-32.6163
0
VERTEX
8
CUT
10
30.0885
20
-32.6156
0
VERTEX
8
CUT
10
30.0703
20
-32.5483
0
VERTEX
8
CUT
10
30.0702
20
-32.5477
0
VERTEX
8
CUT
10
30.0679
20
-32.5393
0
VERTEX
8
CUT
10
30.0677
20
-32.5386
0
VERTEX
8
CUT
10
30.0653
20
-32.5296
0
VERTEX
8
CUT
10
30.0652
20
-32.5289
0
VERTEX
8
CUT
10
30.0629
20
-32.5205
0
VERTEX
8
CUT
10
30.0628
20
-32.5199
0
VERTEX
8
CUT
10
30.0525
20
-32.4807
0
VERTEX
8
CUT
10
30.0523
20
-32.4799
0
VERTEX
8
CUT
10
30.0496
20
-32.4695
0
VERTEX
8
CUT
10
30.0494
20
-32.4687
0
VERTEX
8
CUT
10
30.0465
20
-32.4576
0
VERTEX
8
CUT
10
30.0463
20
-32.4568
0
VERTEX
8
CUT
10
30.0436
20
-32.4464
0
VERTEX
8
CUT
10
30.0434
20
-32.4456
0
VERTEX
8
CUT
10
30.0223
20
-32.3624
0
VERTEX
8
CUT
10
30.0221
20
-32.3616
0
VERTEX
8
CUT
10
30.0195
20
-32.3512
0
VERTEX
8
CUT
10
30.0193
20
-32.3504
0
VERTEX
8
CUT
10
30.0165
20
-32.3392
0
VERTEX
8
CUT
10
30.0163
20
-32.3384
0
VERTEX
8
CUT
10
30.0138
20
-32.3280
0
VERTEX
8
CUT
10
30.0136
20
-32.3272
0
VERTEX
8
CUT
10
30.0085
20
-32.3063
0
VERTEX
8
CUT
10
30.0082
20
-32.3054
0
VERTEX
8
CUT
10
30.0053
20
-32.2934
0
VERTEX
8
CUT
10
30.0051
20
-32.2925
0
VERTEX
8
CUT
10
30.0020
20
-32.2796
0
VERTEX
8
CUT
10
30.0018
20
-32.2787
0
VERTEX
8
CUT
10
29.9989
20
-32.2667
0
VERTEX
8
CUT
10
29.9987
20
-32.2657
0
VERTEX
8
CUT
10
29.9762
20
-32.1698
0
VERTEX
8
CUT
10
29.9760
20
-32.1689
0
VERTEX
8
CUT
10
29.9732
20
-32.1569
0
VERTEX
8
CUT
10
29.9730
20
-32.1559
0
VERTEX
8
CUT
10
29.9700
20
-32.1430
0
VERTEX
8
CUT
10
29.9698
20
-32.1421
0
VERTEX
8
CUT
10
29.9671
20
-32.1301
0
VERTEX
8
CUT
10
29.9669
20
-32.1291
0
VERTEX
8
CUT
10
29.9648
20
-32.1200
0
VERTEX
8
CUT
10
29.9646
20
-32.1190
0
VERTEX
8
CUT
10
29.9617
20
-32.1059
0
VERTEX
8
CUT
10
29.9614
20
-32.1049
0
VERTEX
8
CUT
10
29.9584
20
-32.0908
0
VERTEX
8
CUT
10
29.9581
20
-32.0898
0
VERTEX
8
CUT
10
29.9553
20
-32.0767
0
VERTEX
8
CUT
10
29.9551
20
-32.0757
0
VERTEX
8
CUT
10
29.9327
20
-31.9710
0
VERTEX
8
CUT
10
29.9325
20
-31.9700
0
VERTEX
8
CUT
10
29.9297
20
-31.9569
0
VERTEX
8
CUT
10
29.9295
20
-31.9559
0
VERTEX
8
CUT
10
29.9265
20
-31.9418
0
VERTEX
8
CUT
10
29.9263
20
-31.9408
0
VERTEX
8
CUT
10
29.9236
20
-31.9277
0
VERTEX
8
CUT
10
29.9234
20
-31.9267
0
VERTEX
8
CUT
10
29.9224
20
-31.9217
0
VERTEX
8
CUT
10
29.9222
20
-31.9207
0
VERTEX
8
CUT
10
29.9195
20
-31.9071
0
VERTEX
8
CUT
10
29.9193
20
-31.9060
0
VERTEX
8
CUT
10
29.9164
20
-31.8914
0
VERTEX
8
CUT
10
29.9162
20
-31.8903
0
VERTEX
8
CUT
10
29.9135
20
-31.8767
0
VERTEX
8
CUT
10
29.9133
20
-31.8757
0
VERTEX
8
CUT
10
29.8924
20
-31.7668
0
VERTEX
8
CUT
10
29.8922
20
-31.7657
0
VERTEX
8
CUT
10
29.8896
20
-31.7521
0
VERTEX
8
CUT
10
29.8894
20
-31.7511
0
VERTEX
8
CUT
10
29.8867
20
-31.7364
0
VERTEX
8
CUT
10
29.8865
20
-31.7354
0
VERTEX
8
CUT
10
29.8840
20
-31.7217
0
VERTEX
8
CUT
10
29.8838
20
-31.7207
0
VERTEX
8
CUT
10
29.8822
20
-31.7122
0
VERTEX
8
CUT
10
29.8820
20
-31.7111
0
VERTEX
8
CUT
10
29.8796
20
-31.6975
0
VERTEX
8
CUT
10
29.8794
20
-31.6965
0
VERTEX
8
CUT
10
29.8769
20
-31.6819
0
VERTEX
8
CUT
10
29.8767
20
-31.6808
0
VERTEX
8
CUT
10
29.8743
20
-31.6672
0
VERTEX
8
CUT
10
29.8741
20
-31.6662
0
VERTEX
8
CUT
10
29.8556
20
-31.5574
0
VERTEX
8
CUT
10
29.8555
20
-31.5564
0
VERTEX
8
CUT
10
29.8532
20
-31.5428
0
VERTEX
8
CUT
10
29.8530
20
-31.5417
0
VERTEX
8
CUT
10
29.8506
20
-31.5271
0
VERTEX
8
CUT
10
29.8504
20
-31.5260
0
VERTEX
8
CUT
10
29.8482
20
-31.5124
0
VERTEX
8
CUT
10
29.8480
20
-31.5114
0
VERTEX
8
CUT
10
29.8450
20
-31.4921
0
VERTEX
8
CUT
10
29.8448
20
-31.4911
0
VERTEX
8
CUT
10
29.8428
20
-31.4780
0
VERTEX
8
CUT
10
29.8426
20
-31.4770
0
VERTEX
8
CUT
10
29.8404
20
-31.4629
0
VERTEX
8
CUT
10
29.8403
20
-31.4619
0
VERTEX
8
CUT
10
29.8383
20
-31.4488
0
VERTEX
8
CUT
10
29.8381
20
-31.4478
0
VERTEX
8
CUT
10
29.8225
20
-31.3429
0
VERTEX
8
CUT
10
29.8224
20
-31.3418
0
VERTEX
8
CUT
10
29.8205
20
-31.3287
0
VERTEX
8
CUT
10
29.8203
20
-31.3277
0
VERTEX
8
CUT
10
29.8183
20
-31.3136
0
VERTEX
8
CUT
10
29.8181
20
-31.3126
0
VERTEX
8
CUT
10
29.8163
20
-31.2994
0
VERTEX
8
CUT
10
29.8161
20
-31.2984
0
VERTEX
8
CUT
10
29.8111
20
-31.2624
0
VERTEX
8
CUT
10
29.8110
20
-31.2614
0
VERTEX
8
CUT
10
29.8093
20
-31.2492
0
VERTEX
8
CUT
10
29.8092
20
-31.2482
0
VERTEX
8
CUT
10
29.8074
20
-31.2350
0
VERTEX
8
CUT
10
29.8073
20
-31.2340
0
VERTEX
8
CUT
10
29.8057
20
-31.2217
0
VERTEX
8
CUT
10
29.8056
20
-31.2208
0
VERTEX
8
CUT
10
29.7929
20
-31.1225
0
VERTEX
8
CUT
10
29.7928
20
-31.1215
0
VERTEX
8
CUT
10
29.7913
20
-31.1093
0
VERTEX
8
CUT
10
29.7911
20
-31.1083
0
VERTEX
8
CUT
10
29.7895
20
-31.0951
0
VERTEX
8
CUT
10
29.7894
20
-31.0941
0
VERTEX
8
CUT
10
29.7879
20
-31.0818
0
VERTEX
8
CUT
10
29.7878
20
-31.0809
0
VERTEX
8
CUT
10
29.7809
20
-31.0231
0
VERTEX
8
CUT
10
29.7808
20
-31.0222
0
VERTEX
8
CUT
10
29.7795
20
-31.0110
0
VERTEX
8
CUT
10
29.7794
20
-31.0101
0
VERTEX
8
CUT
10
29.7780
20
-30.9980
0
VERTEX
8
CUT
10
29.7779
20
-30.9972
0
VERTEX
8
CUT
10
29.7766
20
-30.9859
0
VERTEX
8
CUT
10
29.7765
20
-30.9851
0
VERTEX
8
CUT
10
29.7666
20
-30.8952
0
VERTEX
8
CUT
10
29.7665
20
-30.8943
0
VERTEX
8
CUT
10
29.7653
20
-30.8830
0
VERTEX
8
CUT
10
29.7652
20
-30.8822
0
VERTEX
8
CUT
10
29.7639
20
-30.8701
0
VERTEX
8
CUT
10
29.7638
20
-30.8692
0
VERTEX
8
CUT
10
29.7627
20
-30.8580
0
VERTEX
8
CUT
10
29.7626
20
-30.8571
0
VERTEX
8
CUT
10
29.7541
20
-30.7739
0
VERTEX
8
CUT
10
29.7541
20
-30.7731
0
VERTEX
8
CUT
10
29.7531
20
-30.7631
0
VERTEX
8
CUT
10
29.7530
20
-30.7623
0
VERTEX
8
CUT
10
29.7519
20
-30.7514
0
VERTEX
8
CUT
10
29.7518
20
-30.7507
0
VERTEX
8
CUT
10
29.7509
20
-30.7406
0
VERTEX
8
CUT
10
29.7508
20
-30.7398
0
VERTEX
8
CUT
10
29.7433
20
-30.6592
0
VERTEX
8
CUT
10
29.7432
20
-30.6584
0
VERTEX
8
CUT
10
29.7423
20
-30.6484
0
VERTEX
8
CUT
10
29.7422
20
-30.6476
0
VERTEX
8
CUT
10
29.7412
20
-30.6367
0
VERTEX
8
CUT
10
29.7411
20
-30.6359
0
VERTEX
8
CUT
10
29.7403
20
-30.6259
0
VERTEX
8
CUT
10
29.7402
20
-30.6251
0
VERTEX
8
CUT
10
29.7351
20
-30.5661
0
VERTEX
8
CUT
10
29.7348
20
-30.5619
0
VERTEX
8
CUT
10
29.7306
20
-30.5064
0
VERTEX
8
CUT
10
29.7303
20
-30.5021
0
VERTEX
8
CUT
10
29.7265
20
-30.4424
0
VERTEX
8
CUT
10
29.7262
20
-30.4381
0
VERTEX
8
CUT
10
29.7233
20
-30.3825
0
VERTEX
8
CUT
10
29.7231
20
-30.3783
0
VERTEX
8
CUT
10
29.7040
20
-29.9338
0
VERTEX
8
CUT
10
29.7039
20
-29.9295
0
VERTEX
8
CUT
10
29.7021
20
-29.8739
0
VERTEX
8
CUT
10
29.7020
20
-29.8696
0
VERTEX
8
CUT
10
29.7007
20
-29.8097
0
VERTEX
8
CUT
10
29.7006
20
-29.8054
0
VERTEX
8
CUT
10
29.7000
20
-29.7498
0
VERTEX
8
CUT
10
29.7000
20
-29.7455
0
VERTEX
8
CUT
10
29.7000
20
54.9116
0
VERTEX
8
CUT
10
29.7000
20
54.9182
0
VERTEX
8
CUT
10
29.6998
20
54.9378
0
VERTEX
8
CUT
10
29.6997
20
54.9444
0
VERTEX
8
CUT
10
29.6994
20
54.9640
0
VERTEX
8
CUT
10
29.6993
20
54.9705
0
VERTEX
8
CUT
10
29.6988
20
54.9902
0
VERTEX
8
CUT
10
29.6986
20
54.9967
0
VERTEX
8
CUT
10
29.6880
20
55.3204
0
VERTEX
8
CUT
10
29.6875
20
55.3335
0
VERTEX
8
CUT
10
29.6855
20
55.3727
0
VERTEX
8
CUT
10
29.6848
20
55.3857
0
VERTEX
8
CUT
10
29.6822
20
55.4248
0
VERTEX
8
CUT
10
29.6813
20
55.4379
0
VERTEX
8
CUT
10
29.6781
20
55.4770
0
VERTEX
8
CUT
10
29.6769
20
55.4901
0
VERTEX
8
CUT
10
29.6538
20
55.7244
0
VERTEX
8
CUT
10
29.6524
20
55.7374
0
VERTEX
8
CUT
10
29.6479
20
55.7764
0
VERTEX
8
CUT
10
29.6463
20
55.7894
0
VERTEX
8
CUT
10
29.6412
20
55.8283
0
VERTEX
8
CUT
10
29.6394
20
55.8412
0
VERTEX
8
CUT
10
29.6336
20
55.8801
0
VERTEX
8
CUT
10
29.6316
20
55.8930
0
VERTEX
8
CUT
10
29.5933
20
56.1253
0
VERTEX
8
CUT
10
29.5910
20
56.1382
0
VERTEX
8
CUT
10
29.5840
20
56.1769
0
VERTEX
8
CUT
10
29.5815
20
56.1897
0
VERTEX
8
CUT
10
29.5739
20
56.2281
0
VERTEX
8
CUT
10
29.5712
20
56.2410
0
VERTEX
8
CUT
10
29.5629
20
56.2793
0
VERTEX
8
CUT
10
29.5601
20
56.2921
0
VERTEX
8
CUT
10
29.5066
20
56.5214
0
VERTEX
8
CUT
10
29.5035
20
56.5342
0
VERTEX
8
CUT
10
29.4940
20
56.5723
0
VERTEX
8
CUT
10
29.4907
20
56.5849
0
VERTEX
8
CUT
10
29.4806
20
56.6228
0
VERTEX
8
CUT
10
29.4771
20
56.6354
0
VERTEX
8
CUT
10
29.4663
20
56.6731
0
VERTEX
8
CUT
10
29.4626
20
56.6857
0
VERTEX
8
CUT
10
29.3942
20
56.9110
0
VERTEX
8
CUT
10
29.3903
20
56.9235
0
VERTEX
8
CUT
10
29.3783
20
56.9609
0
VERTEX
8
CUT
10
29.3742
20
56.9733
0
VERTEX
8
CUT
10
29.3616
20
57.0104
0
VERTEX
8
CUT
10
29.3573
20
57.0228
0
VERTEX
8
CUT
10
29.3441
20
57.0598
0
VERTEX
8
CUT
10
29.3396
20
57.0721
0
VERTEX
8
CUT
10
29.2566
20
57.2924
0
VERTEX
8
CUT
10
29.2519
20
57.3047
0
VERTEX
8
CUT
10
29.2375
20
57.3412
0
VERTEX
8
CUT
10
29.2326
20
57.3533
0
VERTEX
8
CUT
10
29.2176
20
57.3895
0
VERTEX
8
CUT
10
29.2125
20
57.4016
0
VERTEX
8
CUT
10
29.1969
20
57.4376
0
VERTEX
8
CUT
10
29.1916
20
57.4495
0
VERTEX
8
CUT
10
29.0944
20
57.6640
0
VERTEX
8
CUT
10
29.0889
20
57.6759
0
VERTEX
8
CUT
10
29.0721
20
57.7114
0
VERTEX
8
CUT
10
29.0664
20
57.7232
0
VERTEX
8
CUT
10
29.0491
20
57.7583
0
VERTEX
8
CUT
10
29.0432
20
57.7700
0
VERTEX
8
CUT
10
29.0252
20
57.8050
0
VERTEX
8
CUT
10
29.0192
20
57.8165
0
VERTEX
8
CUT
10
28.9082
20
58.0242
0
VERTEX
8
CUT
10
28.9019
20
58.0357
0
VERTEX
8
CUT
10
28.8828
20
58.0700
0
VERTEX
8
CUT
10
28.8764
20
58.0814
0
VERTEX
8
CUT
10
28.8568
20
58.1154
0
VERTEX
8
CUT
10
28.8501
20
58.1266
0
VERTEX
8
CUT
10
28.8300
20
58.1603
0
VERTEX
8
CUT
10
28.8231
20
58.1715
0
VERTEX
8
CUT
10
28.6988
20
58.3715
0
VERTEX
8
CUT
10
28.6918
20
58.3825
0
VERTEX
8
CUT
10
28.6705
20
58.4155
0
VERTEX
8
CUT
10
28.6633
20
58.4265
0
VERTEX
8
CUT
10
28.6416
20
58.4590
0
VERTEX
8
CUT
10
28.6342
20
58.4699
0
VERTEX
8
CUT
10
28.6119
20
58.5021
0
VERTEX
8
CUT
10
28.6043
20
58.5128
0
VERTEX
8
CUT
10
28.4671
20
58.7043
0
VERTEX
8
CUT
10
28.4594
20
58.7148
0
VERTEX
8
CUT
10
28.4360
20
58.7464
0
VERTEX
8
CUT
10
28.4282
20
58.7568
0
VERTEX
8
CUT
10
28.4043
20
58.7879
0
VERTEX
8
CUT
10
28.3963
20
58.7982
0
VERTEX
8
CUT
10
28.3719
20
58.8290
0
VERTEX
8
CUT
10
28.3636
20
58.8392
0
VERTEX
8
CUT
10
28.2142
20
59.0212
0
VERTEX
8
CUT
10
28.2059
20
59.0312
0
VERTEX
8
CUT
10
28.1805
20
59.0612
0
VERTEX
8
CUT
10
28.1719
20
59.0711
0
VERTEX
8
CUT
10
28.1461
20
59.1006
0
VERTEX
8
CUT
10
28.1374
20
59.1103
0
VERTEX
8
CUT
10
28.1110
20
59.1394
0
VERTEX
8
CUT
10
28.1021
20
59.1490
0
VERTEX
8
CUT
10
27.9412
20
59.3209
0
VERTEX
8
CUT
10
27.9321
20
59.3304
0
VERTEX
8
CUT
10
27.9048
20
59.3586
0
VERTEX
8
CUT
10
27.8956
20
59.3679
0
VERTEX
8
CUT
10
27.8679
20
59.3956
0
VERTEX
8
CUT
10
27.8586
20
59.4048
0
VERTEX
8
CUT
10
27.8304
20
59.4321
0
VERTEX
8
CUT
10
27.8209
20
59.4412
0
VERTEX
8
CUT
10
27.6490
20
59.6021
0
VERTEX
8
CUT
10
27.6394
20
59.6110
0
VERTEX
8
CUT
10
27.6103
20
59.6374
0
VERTEX
8
CUT
10
27.6006
20
59.6461
0
VERTEX
8
CUT
10
27.5711
20
59.6719
0
VERTEX
8
CUT
10
27.5612
20
59.6805
0
VERTEX
8
CUT
10
27.5312
20
59.7059
0
VERTEX
8
CUT
10
27.5212
20
59.7142
0
VERTEX
8
CUT
10
27.3392
20
59.8636
0
VERTEX
8
CUT
10
27.3290
20
59.8719
0
VERTEX
8
CUT
10
27.2982
20
59.8963
0
VERTEX
8
CUT
10
27.2879
20
59.9043
0
VERTEX
8
CUT
10
27.2568
20
59.9282
0
VERTEX
8
CUT
10
27.2464
20
59.9360
0
VERTEX
8
CUT
10
27.2148
20
59.9594
0
VERTEX
8
CUT
10
27.2043
20
59.9671
0
VERTEX
8
CUT
10
27.0128
20
60.1043
0
VERTEX
8
CUT
10
27.0021
20
60.1119
0
VERTEX
8
CUT
10
26.9699
20
60.1342
0
VERTEX
8
CUT
10
26.9590
20
60.1416
0
VERTEX
8
CUT
10
26.9265
20
60.1633
0
VERTEX
8
CUT
10
26.9155
20
60.1705
0
VERTEX
8
CUT
10
26.8825
20
60.1918
0
VERTEX
8
CUT
10
26.8715
20
60.1988
0
VERTEX
8
CUT
10
26.6715
20
60.3231
0
VERTEX
8
CUT
10
26.6603
20
60.3300
0
VERTEX
8
CUT
10
26.6266
20
60.3501
0
VERTEX
8
CUT
10
26.6154
20
60.3568
0
VERTEX
8
CUT
10
26.5814
20
60.3764
0
VERTEX
8
CUT
10
26.5700
20
60.3828
0
VERTEX
8
CUT
10
26.5357
20
60.4019
0
VERTEX
8
CUT
10
26.5242
20
60.4082
0
VERTEX
8
CUT
10
26.3165
20
60.5192
0
VERTEX
8
CUT
10
26.3050
20
60.5252
0
VERTEX
8
CUT
10
26.2700
20
60.5432
0
VERTEX
8
CUT
10
26.2583
20
60.5491
0
VERTEX
8
CUT
10
26.2232
20
60.5664
0
VERTEX
8
CUT
10
26.2114
20
60.5721
0
VERTEX
8
CUT
10
26.1759
20
60.5889
0
VERTEX
8
CUT
10
26.1640
20
60.5944
0
VERTEX
8
CUT
10
25.9495
20
60.6916
0
VERTEX
8
CUT
10
25.9376
20
60.6969
0
VERTEX
8
CUT
10
25.9016
20
60.7125
0
VERTEX
8
CUT
10
25.8895
20
60.7176
0
VERTEX
8
CUT
10
25.8533
20
60.7326
0
VERTEX
8
CUT
10
25.8412
20
60.7375
0
VERTEX
8
CUT
10
25.8047
20
60.7519
0
VERTEX
8
CUT
10
25.7924
20
60.7566
0
VERTEX
8
CUT
10
25.5721
20
60.8396
0
VERTEX
8
CUT
10
25.5598
20
60.8441
0
VERTEX
8
CUT
10
25.5228
20
60.8573
0
VERTEX
8
CUT
10
25.5104
20
60.8616
0
VERTEX
8
CUT
10
25.4733
20
60.8742
0
VERTEX
8
CUT
10
25.4609
20
60.8783
0
VERTEX
8
CUT
10
25.4235
20
60.8903
0
VERTEX
8
CUT
10
25.4110
20
60.8942
0
VERTEX
8
CUT
10
25.1857
20
60.9626
0
VERTEX
8
CUT
10
25.1731
20
60.9663
0
VERTEX
8
CUT
10
25.1354
20
60.9771
0
VERTEX
8
CUT
10
25.1228
20
60.9806
0
VERTEX
8
CUT
10
25.0849
20
60.9907
0
VERTEX
8
CUT
10
25.0723
20
60.9940
0
VERTEX
8
CUT
10
25.0342
20
61.0035
0
VERTEX
8
CUT
10
25.0214
20
61.0066
0
VERTEX
8
CUT
10
24.7921
20
61.0601
0
VERTEX
8
CUT
10
24.7793
20
61.0629
0
VERTEX
8
CUT
10
24.7410
20
61.0712
0
VERTEX
8
CUT
10
24.7281
20
61.0739
0
VERTEX
8
CUT
10
24.6897
20
61.0815
0
VERTEX
8
CUT
10
24.6769
20
61.0840
0
VERTEX
8
CUT
10
24.6382
20
61.0910
0
VERTEX
8
CUT
10
24.6253
20
61.0933
0
VERTEX
8
CUT
10
24.3930
20
61.1316
0
VERTEX
8
CUT
10
24.3801
20
61.1336
0
VERTEX
8
CUT
10
24.3412
20
61.1394
0
VERTEX
8
CUT
10
24.3283
20
61.1412
0
VERTEX
8
CUT
10
24.2894
20
61.1463
0
VERTEX
8
CUT
10
24.2764
20
61.1479
0
VERTEX
8
CUT
10
24.2374
20
61.1524
0
VERTEX
8
CUT
10
24.2244
20
61.1538
0
VERTEX
8
CUT
10
23.9901
20
61.1769
0
VERTEX
8
CUT
10
23.9770
20
61.1781
0
VERTEX
8
CUT
10
23.9379
20
61.1813
0
VERTEX
8
CUT
10
23.9248
20
61.1822
0
VERTEX
8
CUT
10
23.8857
20
61.1848
0
VERTEX
8
CUT
10
23.8727
20
61.1855
0
VERTEX
8
CUT
10
23.8335
20
61.1875
0
VERTEX
8
CUT
10
23.8204
20
61.1880
0
VERTEX
8
CUT
10
23.4967
20
61.1986
0
VERTEX
8
CUT
10
23.4902
20
61.1988
0
VERTEX
8
CUT
10
23.4705
20
61.1993
0
VERTEX
8
CUT
10
23.4640
20
61.1994
0
VERTEX
8
CUT
10
23.4444
20
61.1997
0
VERTEX
8
CUT
10
23.4378
20
61.1998
0
VERTEX
8
CUT
10
23.4182
20
61.2000
0
VERTEX
8
CUT
10
23.4116
20
61.2000
0
VERTEX
8
CUT
10
-23.4116
20
61.2000
0
VERTEX
8
CUT
10
-23.4182
20
61.2000
0
VERTEX
8
CUT
10
-23.4378
20
61.1998
0
VERTEX
8
CUT
10
-23.4444
20
61.1997
0
VERTEX
8
CUT
10
-23.4640
20
61.1994
0
VERTEX
8
CUT
10
-23.4705
20
61.1993
0
VERTEX
8
CUT
10
-23.4902
20
61.1988
0
VERTEX
8
CUT
10
-23.4967
20
61.1986
0
VERTEX
8
CUT
10
-23.8204
20
61.1880
0
VERTEX
8
CUT
10
-23.8335
20
61.1875
0
VERTEX
8
CUT
10
-23.8727
20
61.1855
0
VERTEX
8
CUT
10
-23.8857
20
61.1848
0
VERTEX
8
CUT
10
-23.9248
20
61.1822
0
VERTEX
8
CUT
10
-23.9379
20
61.1813
0
VERTEX
8
CUT
10
-23.9770
20
61.1781
0
VERTEX
8
CUT
10
-23.9901
20
61.1769
0
VERTEX
8
CUT
10
-24.2244
20
61.1538
0
VERTEX
8
CUT
10
-24.2374
20
61.1524
0
VERTEX
8
CUT
10
-24.2764
20
61.1479
0
VERTEX
8
CUT
10
-24.2894
20
61.1463
0
VERTEX
8
CUT
10
-24.3283
20
61.1412
0
VERTEX
8
CUT
10
-24.3412
20
61.1394
0
VERTEX
8
CUT
10
-24.3801
20
61.1336
0
VERTEX
8
CUT
10
-24.3930
20
61.1316
0
VERTEX
8
CUT
10
-24.6253
20
61.0933
0
VERTEX
8
CUT
10
-24.6382
20
61.0910
0
VERTEX
8
CUT
10
-24.6769
20
61.0840
0
VERTEX
8
CUT
10
-24.6897
20
61.0815
0
VERTEX
8
CUT
10
-24.7281
20
61.0739
0
VERTEX
8
CUT
10
-24.7410
20
61.0712
0
VERTEX
8
CUT
10
-24.7793
20
61.0629
0
VERTEX
8
CUT
10
-24.7921
20
61.0601
0
VERTEX
8
CUT
10
-25.0214
20
61.0066
0
VERTEX
8
CUT
10
-25.0342
20
61.0035
0
VERTEX
8
CUT
10
-25.0723
20
60.9940
0
VERTEX
8
CUT
10
-25.0849
20
60.9907
0
VERTEX
8
CUT
10
-25.1228
20
60.9806
0
VERTEX
8
CUT
10
-25.1354
20
60.9771
0
VERTEX
8
CUT
10
-25.1731
20
60.9663
0
VERTEX
8
CUT
10
-25.1857
20
60.9626
0
VERTEX
8
CUT
10
-25.4110
20
60.8942
0
VERTEX
8
CUT
10
-25.4235
20
60.8903
0
VERTEX
8
CUT
10
-25.4609
20
60.8783
0
VERTEX
8
CUT
10
-25.4733
20
60.8742
0
VERTEX
8
CUT
10
-25.5104
20
60.8616
0
VERTEX
8
CUT
10
-25.5228
20
60.8573
0
VERTEX
8
CUT
10
-25.5598
20
60.8441
0
VERTEX
8
CUT
10
-25.5721
20
60.8396
0
VERTEX
8
CUT
10
-25.7924
20
60.7566
0
VERTEX
8
CUT
10
-25.8047
20
60.7519
0
VERTEX
8
CUT
10
-25.8412
20
60.7375
0
VERTEX
8
CUT
10
-25.8533
20
60.7326
0
VERTEX
8
CUT
10
-25.8895
20
60.7176
0
VERTEX
8
CUT
10
-25.9016
20
60.7125
0
VERTEX
8
CUT
10
-25.9376
20
60.6969
0
VERTEX
8
CUT
10
-25.9495
20
60.6916
0
VERTEX
8
CUT
10
-26.1640
20
60.5944
0
VERTEX
8
CUT
10
-26.1759
20
60.5889
0
VERTEX
8
CUT
10
-26.2114
20
60.5721
0
VERTEX
8
CUT
10
-26.2232
20
60.5664
0
VERTEX
8
CUT
10
-26.2583
20
60.5491
0
VERTEX
8
CUT
10
-26.2700
20
60.5432
0
VERTEX
8
CUT
10
-26.3050
20
60.5252
0
VERTEX
8
CUT
10
-26.3165
20
60.5192
0
VERTEX
8
CUT
10
-26.5242
20
60.4082
0
VERTEX
8
CUT
10
-26.5357
20
60.4019
0
VERTEX
8
CUT
10
-26.5700
20
60.3828
0
VERTEX
8
CUT
10
-26.5814
20
60.3764
0
VERTEX
8
CUT
10
-26.6154
20
60.3568
0
VERTEX
8
CUT
10
-26.6266
20
60.3501
0
VERTEX
8
CUT
10
-26.6603
20
60.3300
0
VERTEX
8
CUT
10
-26.6715
20
60.3231
0
VERTEX
8
CUT
10
-26.8715
20
60.1988
0
VERTEX
8
CUT
10
-26.8825
20
60.1918
0
VERTEX
8
CUT
10
-26.9155
20
60.1705
0
VERTEX
8
CUT
10
-26.9265
20
60.1633
0
VERTEX
8
CUT
10
-26.9590
20
60.1416
0
VERTEX
8
CUT
10
-26.9699
20
60.1342
0
VERTEX
8
CUT
10
-27.0021
20
60.1119
0
VERTEX
8
CUT
10
-27.0128
20
60.1043
0
VERTEX
8
CUT
10
-27.2043
20
59.9671
0
VERTEX
8
CUT
10
-27.2148
20
59.9594
0
VERTEX
8
CUT
10
-27.2464
20
59.9360
0
VERTEX
8
CUT
10
-27.2568
20
59.9282
0
VERTEX
8
CUT
10
-27.2879
20
59.9043
0
VERTEX
8
CUT
10
-27.2982
20
59.8963
0
VERTEX
8
CUT
10
-27.3290
20
59.8719
0
VERTEX
8
CUT
10
-27.3392
20
59.8636
0
VERTEX
8
CUT
10
-27.5212
20
59.7142
0
VERTEX
8
CUT
10
-27.5312
20
59.7059
0
VERTEX
8
CUT
10
-27.5612
20
59.6805
0
VERTEX
8
CUT
10
-27.5711
20
59.6719
0
VERTEX
8
CUT
10
-27.6006
20
59.6461
0
VERTEX
8
CUT
10
-27.6103
20
59.6374
0
VERTEX
8
CUT
10
-27.6394
20
59.6110
0
VERTEX
8
CUT
10
-27.6490
20
59.6021
0
VERTEX
8
CUT
10
-27.8209
20
59.4412
0
VERTEX
8
CUT
10
-27.8304
20
59.4321
0
VERTEX
8
CUT
10
-27.8586
20
59.4048
0
VERTEX
8
CUT
10
-27.8679
20
59.3956
0
VERTEX
8
CUT
10
-27.8956
20
59.3679
0
VERTEX
8
CUT
10
-27.9048
20
59.3586
0
VERTEX
8
CUT
10
-27.9321
20
59.3304
0
VERTEX
8
CUT
10
-27.9412
20
59.3209
0
VERTEX
8
CUT
10
-28.1021
20
59.1490
0
VERTEX
8
CUT
10
-28.1110
20
59.1394
0
VERTEX
8
CUT
10
-28.1374
20
59.1103
0
VERTEX
8
CUT
10
-28.1461
20
59.1006
0
VERTEX
8
CUT
10
-28.1719
20
59.0711
0
VERTEX
8
CUT
10
-28.1805
20
59.0612
0
VERTEX
8
CUT
10
-28.2059
20
59.0312
0
VERTEX
8
CUT
10
-28.2142
20
59.0212
0
VERTEX
8
CUT
10
-28.3636
20
58.8392
0
VERTEX
8
CUT
10
-28.3719
20
58.8290
0
VERTEX
8
CUT
10
-28.3963
20
58.7982
0
VERTEX
8
CUT
10
-28.4043
20
58.7879
0
VERTEX
8
CUT
10
-28.4282
20
58.7568
0
VERTEX
8
CUT
10
-28.4360
20
58.7464
0
VERTEX
8
CUT
10
-28.4594
20
58.7148
0
VERTEX
8
CUT
10
-28.4671
20
58.7043
0
VERTEX
8
CUT
10
-28.6043
20
58.5128
0
VERTEX
8
CUT
10
-28.6119
20
58.5021
0
VERTEX
8
CUT
10
-28.6342
20
58.4699
0
VERTEX
8
CUT
10
-28.6416
20
58.4590
0
VERTEX
8
CUT
10
-28.6633
20
58.4265
0
VERTEX
8
CUT
10
-28.6705
20
58.4155
0
VERTEX
8
CUT
10
-28.6918
20
58.3825
0
VERTEX
8
CUT
10
-28.6988
20
58.3715
0
VERTEX
8
CUT
10
-28.8231
20
58.1715
0
VERTEX
8
CUT
10
-28.8300
20
58.1603
0
VERTEX
8
CUT
10
-28.8501
20
58.1266
0
VERTEX
8
CUT
10
-28.8568
20
58.1154
0
VERTEX
8
CUT
10
-28.8764
20
58.0814
0
VERTEX
8
CUT
10
-28.8828
20
58.0700
0
VERTEX
8
CUT
10
-28.9019
20
58.0357
0
VERTEX
8
CUT
10
-28.9082
20
58.0242
0
VERTEX
8
CUT
10
-29.0192
20
57.8165
0
VERTEX
8
CUT
10
-29.0252
20
57.8050
0
VERTEX
8
CUT
10
-29.0432
20
57.7700
0
VERTEX
8
CUT
10
-29.0491
20
57.7583
0
VERTEX
8
CUT
10
-29.0664
20
57.7232
0
VERTEX
8
CUT
10
-29.0721
20
57.7114
0
VERTEX
8
CUT
10
-29.0889
20
57.6759
0
VERTEX
8
CUT
10
-29.0944
20
57.6640
0
VERTEX
8
CUT
10
-29.1916
20
57.4495
0
VERTEX
8
CUT
10
-29.1969
20
57.4376
0
VERTEX
8
CUT
10
-29.2125
20
57.4016
0
VERTEX
8
CUT
10
-29.2176
20
57.3895
0
VERTEX
8
CUT
10
-29.2326
20
57.3533
0
VERTEX
8
CUT
10
-29.2375
20
57.3412
0
VERTEX
8
CUT
10
-29.2519
20
57.3047
0
VERTEX
8
CUT
10
-29.2566
20
57.2924
0
VERTEX
8
CUT
10
-29.3396
20
57.0721
0
VERTEX
8
CUT
10
-29.3441
20
57.0598
0
VERTEX
8
CUT
10
-29.3573
20
57.0228
0
VERTEX
8
CUT
10
-29.3616
20
57.0104
0
VERTEX
8
CUT
10
-29.3742
20
56.9733
0
VERTEX
8
CUT
10
-29.3783
20
56.9609
0
VERTEX
8
CUT
10
-29.3903
20
56.9235
0
VERTEX
8
CUT
10
-29.3942
20
56.9110
0
VERTEX
8
CUT
10
-29.4626
20
56.6857
0
VERTEX
8
CUT
10
-29.4663
20
56.6731
0
VERTEX
8
CUT
10
-29.4771
20
56.6354
0
VERTEX
8
CUT
10
-29.4806
20
56.6228
0
VERTEX
8
CUT
10
-29.4907
20
56.5849
0
VERTEX
8
CUT
10
-29.4940
20
56.5723
0
VERTEX
8
CUT
10
-29.5035
20
56.5342
0
VERTEX
8
CUT
10
-29.5066
20
56.5214
0
VERTEX
8
CUT
10
-29.5601
20
56.2921
0
VERTEX
8
CUT
10
-29.5629
20
56.2793
0
VERTEX
8
CUT
10
-29.5712
20
56.2410
0
VERTEX
8
CUT
10
-29.5739
20
56.2281
0
VERTEX
8
CUT
10
-29.5815
20
56.1897
0
VERTEX
8
CUT
10
-29.5840
20
56.1769
0
VERTEX
8
CUT
10
-29.5910
20
56.1382
0
VERTEX
8
CUT
10
-29.5933
20
56.1253
0
VERTEX
8
CUT
10
-29.6316
20
55.8930
0
VERTEX
8
CUT
10
-29.6336
20
55.8801
0
VERTEX
8
CUT
10
-29.6394
20
55.8412
0
VERTEX
8
CUT
10
-29.6412
20
55.8283
0
VERTEX
8
CUT
10
-29.6463
20
55.7894
0
VERTEX
8
CUT
10
-29.6479
20
55.7764
0
VERTEX
8
CUT
10
-29.6524
20
55.7374
0
VERTEX
8
CUT
10
-29.6538
20
55.7244
0
VERTEX
8
CUT
10
-29.6769
20
55.4901
0
VERTEX
8
CUT
10
-29.6781
20
55.4770
0
VERTEX
8
CUT
10
-29.6813
20
55.4379
0
VERTEX
8
CUT
10
-29.6822
20
55.4248
0
VERTEX
8
CUT
10
-29.6848
20
55.3857
0
VERTEX
8
CUT
10
-29.6855
20
55.3727
0
VERTEX
8
CUT
10
-29.6875
20
55.3335
0
VERTEX
8
CUT
10
-29.6880
20
55.3204
0
VERTEX
8
CUT
10
-29.6986
20
54.9967
0
VERTEX
8
CUT
10
-29.6988
20
54.9902
0
VERTEX
8
CUT
10
-29.6993
20
54.9705
0
VERTEX
8
CUT
10
-29.6994
20
54.9640
0
VERTEX
8
CUT
10
-29.6997
20
54.9444
0
VERTEX
8
CUT
10
-29.6998
20
54.9378
0
VERTEX
8
CUT
10
-29.7000
20
54.9182
0
VERTEX
8
CUT
10
-29.7000
20
54.9116
0
VERTEX
8
CUT
10
-29.7000
20
-29.7455
0
VERTEX
8
CUT
10
-29.7000
20
-29.7498
0
VERTEX
8
CUT
10
-29.7006
20
-29.8054
0
VERTEX
8
CUT
10
-29.7007
20
-29.8097
0
VERTEX
8
CUT
10
-29.7020
20
-29.8696
0
VERTEX
8
CUT
10
-29.7021
20
-29.8739
0
VERTEX
8
CUT
10
-29.7039
20
-29.9295
0
VERTEX
8
CUT
10
-29.7040
20
-29.9338
0
VERTEX
8
CUT
10
-29.7231
20
-30.3783
0
VERTEX
8
CUT
10
-29.7233
20
-30.3825
0
VERTEX
8
CUT
10
-29.7262
20
-30.4381
0
VERTEX
8
CUT
10
-29.7265
20
-30.4424
0
VERTEX
8
CUT
10
-29.7303
20
-30.5021
0
VERTEX
8
CUT
10
-29.7306
20
-30.5064
0
VERTEX
8
CUT
10
-29.7348
20
-30.5619
0
VERTEX
8
CUT
10
-29.7351
20
-30.5661
0
VERTEX
8
CUT
10
-29.7402
20
-30.6251
0
VERTEX
8
CUT
10
-29.7403
20
-30.6259
0
VERTEX
8
CUT
10
-29.7411
20
-30.6359
0
VERTEX
8
CUT
10
-29.7412
20
-30.6367
0
VERTEX
8
CUT
10
-29.7422
20
-30.6476
0
VERTEX
8
CUT
10
-29.7423
20
-30.6484
0
VERTEX
8
CUT
10
-29.7432
20
-30.6584
0
VERTEX
8
CUT
10
-29.7433
20
-30.6592
0
VERTEX
8
CUT
10
-29.7508
20
-30.7398
0
VERTEX
8
CUT
10
-29.7509
20
-30.7406
0
VERTEX
8
CUT
10
-29.7518
20
-30.7507
0
VERTEX
8
CUT
10
-29.7519
20
-30.7514
0
VERTEX
8
CUT
10
-29.7530
20
-30.7623
0
VERTEX
8
CUT
10
-29.7531
20
-30.7631
0
VERTEX
8
CUT
10
-29.7541
20
-30.7731
0
VERTEX
8
CUT
10
-29.7541
20
-30.7739
0
VERTEX
8
CUT
10
-29.7626
20
-30.8571
0
VERTEX
8
CUT
10
-29.7627
20
-30.8580
0
VERTEX
8
CUT
10
-29.7638
20
-30.8692
0
VERTEX
8
CUT
10
-29.7639
20
-30.8701
0
VERTEX
8
CUT
10
-29.7652
20
-30.8822
0
VERTEX
8
CUT
10
-29.7653
20
-30.8830
0
VERTEX
8
CUT
10
-29.7665
20
-30.8943
0
VERTEX
8
CUT
10
-29.7666
20
-30.8952
0
VERTEX
8
CUT
10
-29.7765
20
-30.9851
0
VERTEX
8
CUT
10
-29.7766
20
-30.9859
0
VERTEX
8
CUT
10
-29.7779
20
-30.9972
0
VERTEX
8
CUT
10
-29.7780
20
-30.9980
0
VERTEX
8
CUT
10
-29.7794
20
-31.0101
0
VERTEX
8
CUT
10
-29.7795
20
-31.0110
0
VERTEX
8
CUT
10
-29.7808
20
-31.0222
0
VERTEX
8
CUT
10
-29.7809
20
-31.0231
0
VERTEX
8
CUT
10
-29.7878
20
-31.0809
0
VERTEX
8
CUT
10
-29.7879
20
-31.0818
0
VERTEX
8
CUT
10
-29.7894
20
-31.0941
0
VERTEX
8
CUT
10
-29.7895
20
-31.0951
0
VERTEX
8
CUT
10
-29.7911
20
-31.1083
0
VERTEX
8
CUT
10
-29.7913
20
-31.1093
0
VERTEX
8
CUT
10
-29.7928
20
-31.1215
0
VERTEX
8
CUT
10
-29.7929
20
-31.1225
0
VERTEX
8
CUT
10
-29.8056
20
-31.2208
0
VERTEX
8
CUT
10
-29.8057
20
-31.2217
0
VERTEX
8
CUT
10
-29.8073
20
-31.2340
0
VERTEX
8
CUT
10
-29.8074
20
-31.2350
0
VERTEX
8
CUT
10
-29.8092
20
-31.2482
0
VERTEX
8
CUT
10
-29.8093
20
-31.2492
0
VERTEX
8
CUT
10
-29.8110
20
-31.2614
0
VERTEX
8
CUT
10
-29.8111
20
-31.2624
0
VERTEX
8
CUT
10
-29.8161
20
-31.2984
0
VERTEX
8
CUT
10
-29.8163
20
-31.2994
0
VERTEX
8
CUT
10
-29.8181
20
-31.3126
0
VERTEX
8
CUT
10
-29.8183
20
-31.3136
0
VERTEX
8
CUT
10
-29.8203
20
-31.3277
0
VERTEX
8
CUT
10
-29.8205
20
-31.3287
0
VERTEX
8
CUT
10
-29.8224
20
-31.3418
0
VERTEX
8
CUT
10
-29.8225
20
-31.3429
0
VERTEX
8
CUT
10
-29.8381
20
-31.4478
0
VERTEX
8
CUT
10
-29.8383
20
-31.4488
0
VERTEX
8
CUT
10
-29.8403
20
-31.4619
0
VERTEX
8
CUT
10
-29.8404
20
-31.4629
0
VERTEX
8
CUT
10
-29.8426
20
-31.4770
0
VERTEX
8
CUT
10
-29.8428
20
-31.4780
0
VERTEX
8
CUT
10
-29.8448
20
-31.4911
0
VERTEX
8
CUT
10
-29.8450
20
-31.4921
0
VERTEX
8
CUT
10
-29.8480
20
-31.5114
0
VERTEX
8
CUT
10
-29.8482
20
-31.5124
0
VERTEX
8
CUT
10
-29.8504
20
-31.5260
0
VERTEX
8
CUT
10
-29.8506
20
-31.5271
0
VERTEX
8
CUT
10
-29.8530
20
-31.5417
0
VERTEX
8
CUT
10
-29.8532
20
-31.5428
0
VERTEX
8
CUT
10
-29.8555
20
-31.5564
0
VERTEX
8
CUT
10
-29.8556
20
-31.5574
0
VERTEX
8
CUT
10
-29.8741
20
-31.6662
0
VERTEX
8
CUT
10
-29.8743
20
-31.6672
0
VERTEX
8
CUT
10
-29.8767
20
-31.6808
0
VERTEX
8
CUT
10
-29.8769
20
-31.6819
0
VERTEX
8
CUT
10
-29.8794
20
-31.6965
0
VERTEX
8
CUT
10
-29.8796
20
-31.6975
0
VERTEX
8
CUT
10
-29.8820
20
-31.7111
0
VERTEX
8
CUT
10
-29.8822
20
-31.7122
0
VERTEX
8
CUT
10
-29.8838
20
-31.7207
0
VERTEX
8
CUT
10
-29.8840
20
-31.7217
0
VERTEX
8
CUT
10
-29.8865
20
-31.7354
0
VERTEX
8
CUT
10
-29.8867
20
-31.7364
0
VERTEX
8
CUT
10
-29.8894
20
-31.7511
0
VERTEX
8
CUT
10
-29.8896
20
-31.7521
0
VERTEX
8
CUT
10
-29.8922
20
-31.7657
0
VERTEX
8
CUT
10
-29.8924
20
-31.7668
0
VERTEX
8
CUT
10
-29.9133
20
-31.8757
0
VERTEX
8
CUT
10
-29.9135
20
-31.8767
0
VERTEX
8
CUT
10
-29.9162
20
-31.8903
0
VERTEX
8
CUT
10
-29.9164
20
-31.8914
0
VERTEX
8
CUT
10
-29.9193
20
-31.9060
0
VERTEX
8
CUT
10
-29.9195
20
-31.9071
0
VERTEX
8
CUT
10
-29.9222
20
-31.9207
0
VERTEX
8
CUT
10
-29.9224
20
-31.9217
0
VERTEX
8
CUT
10
-29.9234
20
-31.9267
0
VERTEX
8
CUT
10
-29.9236
20
-31.9277
0
VERTEX
8
CUT
10
-29.9263
20
-31.9408
0
VERTEX
8
CUT
10
-29.9265
20
-31.9418
0
VERTEX
8
CUT
10
-29.9295
20
-31.9559
0
VERTEX
8
CUT
10
-29.9297
20
-31.9569
0
VERTEX
8
CUT
10
-29.9325
20
-31.9700
0
VERTEX
8
CUT
10
-29.9327
20
-31.9710
0
VERTEX
8
CUT
10
-29.9551
20
-32.0757
0
VERTEX
8
CUT
10
-29.9553
20
-32.0767
0
VERTEX
8
CUT
10
-29.9581
20
-32.0898
0
VERTEX
8
CUT
10
-29.9584
20
-32.0908
0
VERTEX
8
CUT
10
-29.9614
20
-32.1049
0
VERTEX
8
CUT
10
-29.9617
20
-32.1059
0
VERTEX
8
CUT
10
-29.9646
20
-32.1190
0
VERTEX
8
CUT
10
-29.9648
20
-32.1200
0
VERTEX
8
CUT
10
-29.9669
20
-32.1291
0
VERTEX
8
CUT
10
-29.9671
20
-32.1301
0
VERTEX
8
CUT
10
-29.9698
20
-32.1421
0
VERTEX
8
CUT
10
-29.9700
20
-32.1430
0
VERTEX
8
CUT
10
-29.9730
20
-32.1559
0
VERTEX
8
CUT
10
-29.9732
20
-32.1569
0
VERTEX
8
CUT
10
-29.9760
20
-32.1689
0
VERTEX
8
CUT
10
-29.9762
20
-32.1698
0
VERTEX
8
CUT
10
-29.9987
20
-32.2657
0
VERTEX
8
CUT
10
-29.9989
20
-32.2667
0
VERTEX
8
CUT
10
-30.0018
20
-32.2787
0
VERTEX
8
CUT
10
-30.0020
20
-32.2796
0
VERTEX
8
CUT
10
-30.0051
20
-32.2925
0
VERTEX
8
CUT
10
-30.0053
20
-32.2934
0
VERTEX
8
CUT
10
-30.0082
20
-32.3054
0
VERTEX
8
CUT
10
-30.0085
20
-32.3063
0
VERTEX
8
CUT
10
-30.0136
20
-32.3272
0
VERTEX
8
CUT
10
-30.0138
20
-32.3280
0
VERTEX
8
CUT
10
-30.0163
20
-32.3384
0
VERTEX
8
CUT
10
-30.0165
20
-32.3392
0
VERTEX
8
CUT
10
-30.0193
20
-32.3504
0
VERTEX
8
CUT
10
-30.0195
20
-32.3512
0
VERTEX
8
CUT
10
-30.0221
20
-32.3616
0
VERTEX
8
CUT
10
-30.0223
20
-32.3624
0
VERTEX
8
CUT
10
-30.0434
20
-32.4456
0
VERTEX
8
CUT
10
-30.0436
20
-32.4464
0
VERTEX
8
CUT
10
-30.0463
20
-32.4568
0
VERTEX
8
CUT
10
-30.0465
20
-32.4576
0
VERTEX
8
CUT
10
-30.0494
20
-32.4687
0
VERTEX
8
CUT
10
-30.0496
20
-32.4695
0
VERTEX
8
CUT
10
-30.0523
20
-32.4799
0
VERTEX
8
CUT
10
-30.0525
20
-32.4807
0
VERTEX
8
CUT
10
-30.0628
20
-32.5199
0
VERTEX
8
CUT
10
-30.0629
20
-32.5205
0
VERTEX
8
CUT
10
-30.0652
20
-32.5289
0
VERTEX
8
CUT
10
-30.0653
20
-32.5296
0
VERTEX
8
CUT
10
-30.0677
20
-32.5386
0
VERTEX
8
CUT
10
-30.0679
20
-32.5393
0
VERTEX
8
CUT
10
-30.0702
20
-32.5477
0
VERTEX
8
CUT
10
-30.0703
20
-32.5483
0
VERTEX
8
CUT
10
-30.0885
20
-32.6156
0
VERTEX
8
CUT
10
-30.0887
20
-32.6163
0
VERTEX
8
CUT
10
-30.0909
20
-32.6247
0
VERTEX
8
CUT
10
-30.0911
20
-32.6253
0
VERTEX
8
CUT
10
-30.0936
20
-32.6344
0
VERTEX
8
CUT
10
-30.0938
20
-32.6350
0
VERTEX
8
CUT
10
-30.0961
20
-32.6434
0
VERTEX
8
CUT
10
-30.0963
20
-32.6441
0
VERTEX
8
CUT
10
-30.1135
20
-32.7066
0
VERTEX
8
CUT
10
-30.1137
20
-32.7070
0
VERTEX
8
CUT
10
-30.1154
20
-32.7132
0
VERTEX
8
CUT
10
-30.1155
20
-32.7137
0
VERTEX
8
CUT
10
-30.1174
20
-32.7204
0
VERTEX
8
CUT
10
-30.1175
20
-32.7209
0
VERTEX
8
CUT
10
-30.1193
20
-32.7271
0
VERTEX
8
CUT
10
-30.1194
20
-32.7276
0
VERTEX
8
CUT
10
-30.1334
20
-32.7772
0
VERTEX
8
CUT
10
-30.1336
20
-32.7777
0
VERTEX
8
CUT
10
-30.1353
20
-32.7839
0
VERTEX
8
CUT
10
-30.1354
20
-32.7843
0
VERTEX
8
CUT
10
-30.1373
20
-32.7910
0
VERTEX
8
CUT
10
-30.1375
20
-32.7915
0
VERTEX
8
CUT
10
-30.1393
20
-32.7977
0
VERTEX
8
CUT
10
-30.1394
20
-32.7982
0
VERTEX
8
CUT
10
-30.1650
20
-32.8873
0
VERTEX
8
CUT
10
-30.1651
20
-32.8876
0
VERTEX
8
CUT
10
-30.1662
20
-32.8915
0
VERTEX
8
CUT
10
-30.1663
20
-32.8919
0
VERTEX
8
CUT
10
-30.1676
20
-32.8961
0
VERTEX
8
CUT
10
-30.1676
20
-32.8964
0
VERTEX
8
CUT
10
-30.1688
20
-32.9004
0
VERTEX
8
CUT
10
-30.1689
20
-32.9007
0
VERTEX
8
CUT
10
-30.1781
20
-32.9323
0
VERTEX
8
CUT
10
-30.1782
20
-32.9326
0
VERTEX
8
CUT
10
-30.1793
20
-32.9365
0
VERTEX
8
CUT
10
-30.1794
20
-32.9368
0
VERTEX
8
CUT
10
-30.1807
20
-32.9411
0
VERTEX
8
CUT
10
-30.1807
20
-32.9414
0
VERTEX
8
CUT
10
-30.1819
20
-32.9454
0
VERTEX
8
CUT
10
-30.1820
20
-32.9457
0
VERTEX
8
CUT
10
-30.2165
20
-33.0629
0
VERTEX
8
CUT
10
-30.2166
20
-33.0631
0
VERTEX
8
CUT
10
-30.2171
20
-33.0649
0
VERTEX
8
CUT
10
-30.2171
20
-33.0650
0
VERTEX
8
CUT
10
-30.2177
20
-33.0670
0
VERTEX
8
CUT
10
-30.2177
20
-33.0671
0
VERTEX
8
CUT
10
-30.2183
20
-33.0690
0
VERTEX
8
CUT
10
-30.2183
20
-33.0691
0
VERTEX
8
CUT
10
-30.2226
20
-33.0836
0
VERTEX
8
CUT
10
-30.2227
20
-33.0838
0
VERTEX
8
CUT
10
-30.2232
20
-33.0856
0
VERTEX
8
CUT
10
-30.2233
20
-33.0857
0
VERTEX
8
CUT
10
-30.2238
20
-33.0877
0
VERTEX
8
CUT
10
-30.2239
20
-33.0878
0
VERTEX
8
CUT
10
-30.2244
20
-33.0896
0
VERTEX
8
CUT
10
-30.2244
20
-33.0897
0
VERTEX
8
CUT
10
-30.2675
20
-33.2344
0
VERTEX
8
CUT
10
-30.2675
20
-33.2345
0
VERTEX
8
CUT
10
-30.2675
20
-33.2345
0
VERTEX
8
CUT
10
-30.2675
20
-33.2346
0
VERTEX
8
CUT
10
-30.2675
20
-33.2346
0
VERTEX
8
CUT
10
-30.2676
20
-33.2347
0
VERTEX
8
CUT
10
-30.2676
20
-33.2348
0
VERTEX
8
CUT
10
-30.3059
20
-33.3636
0
VERTEX
8
CUT
10
-30.3061
20
-33.3641
0
VERTEX
8
CUT
10
-30.3080
20
-33.3707
0
VERTEX
8
CUT
10
-30.3082
20
-33.3712
0
VERTEX
8
CUT
10
-30.3103
20
-33.3783
0
VERTEX
8
CUT
10
-30.3104
20
-33.3788
0
VERTEX
8
CUT
10
-30.3124
20
-33.3854
0
VERTEX
8
CUT
10
-30.3126
20
-33.3859
0
VERTEX
8
CUT
10
-30.3285
20
-33.4384
0
VERTEX
8
CUT
10
-30.3287
20
-33.4389
0
VERTEX
8
CUT
10
-30.3307
20
-33.4455
0
VERTEX
8
CUT
10
-30.3308
20
-33.4460
0
VERTEX
8
CUT
10
-30.3330
20
-33.4531
0
VERTEX
8
CUT
10
-30.3331
20
-33.4536
0
VERTEX
8
CUT
10
-30.3352
20
-33.4601
0
VERTEX
8
CUT
10
-30.3353
20
-33.4607
0
VERTEX
8
CUT
10
-30.3550
20
-33.5245
0
VERTEX
8
CUT
10
-30.3553
20
-33.5255
0
VERTEX
8
CUT
10
-30.3595
20
-33.5389
0
VERTEX
8
CUT
10
-30.3598
20
-33.5399
0
VERTEX
8
CUT
10
-30.3644
20
-33.5543
0
VERTEX
8
CUT
10
-30.3647
20
-33.5553
0
VERTEX
8
CUT
10
-30.3689
20
-33.5686
0
VERTEX
8
CUT
10
-30.3692
20
-33.5696
0
VERTEX
8
CUT
10
-30.4034
20
-33.6762
0
VERTEX
8
CUT
10
-30.4037
20
-33.6772
0
VERTEX
8
CUT
10
-30.4080
20
-33.6905
0
VERTEX
8
CUT
10
-30.4084
20
-33.6915
0
VERTEX
8
CUT
10
-30.4130
20
-33.7058
0
VERTEX
8
CUT
10
-30.4134
20
-33.7068
0
VERTEX
8
CUT
10
-30.4178
20
-33.7201
0
VERTEX
8
CUT
10
-30.4181
20
-33.7211
0
VERTEX
8
CUT
10
-30.4300
20
-33.7571
0
VERTEX
8
CUT
10
-30.4303
20
-33.7580
0
VERTEX
8
CUT
10
-30.4343
20
-33.7697
0
VERTEX
8
CUT
10
-30.4346
20
-33.7706
0
VERTEX
8
CUT
10
-30.4389
20
-33.7833
0
VERTEX
8
CUT
10
-30.4392
20
-33.7842
0
VERTEX
8
CUT
10
-30.4432
20
-33.7959
0
VERTEX
8
CUT
10
-30.4435
20
-33.7968
0
VERTEX
8
CUT
10
-30.4757
20
-33.8907
0
VERTEX
8
CUT
10
-30.4760
20
-33.8916
0
VERTEX
8
CUT
10
-30.4801
20
-33.9034
0
VERTEX
8
CUT
10
-30.4804
20
-33.9043
0
VERTEX
8
CUT
10
-30.4848
20
-33.9169
0
VERTEX
8
CUT
10
-30.4851
20
-33.9178
0
VERTEX
8
CUT
10
-30.4892
20
-33.9295
0
VERTEX
8
CUT
10
-30.4895
20
-33.9304
0
VERTEX
8
CUT
10
-30.5079
20
-33.9823
0
VERTEX
8
CUT
10
-30.5082
20
-33.9831
0
VERTEX
8
CUT
10
-30.5118
20
-33.9933
0
VERTEX
8
CUT
10
-30.5121
20
-33.9940
0
VERTEX
8
CUT
10
-30.5160
20
-34.0049
0
VERTEX
8
CUT
10
-30.5163
20
-34.0057
0
VERTEX
8
CUT
10
-30.5199
20
-34.0159
0
VERTEX
8
CUT
10
-30.5202
20
-34.0166
0
VERTEX
8
CUT
10
-30.5496
20
-34.0976
0
VERTEX
8
CUT
10
-30.5499
20
-34.0984
0
VERTEX
8
CUT
10
-30.5536
20
-34.1085
0
VERTEX
8
CUT
10
-30.5539
20
-34.1093
0
VERTEX
8
CUT
10
-30.5579
20
-34.1202
0
VERTEX
8
CUT
10
-30.5582
20
-34.1210
0
VERTEX
8
CUT
10
-30.5619
20
-34.1311
0
VERTEX
8
CUT
10
-30.5622
20
-34.1319
0
VERTEX
8
CUT
10
-30.5878
20
-34.2005
0
VERTEX
8
CUT
10
-30.5881
20
-34.2011
0
VERTEX
8
CUT
10
-30.5913
20
-34.2097
0
VERTEX
8
CUT
10
-30.5915
20
-34.2103
0
VERTEX
8
CUT
10
-30.5949
20
-34.2195
0
VERTEX
8
CUT
10
-30.5952
20
-34.2201
0
VERTEX
8
CUT
10
-30.5984
20
-34.2286
0
VERTEX
8
CUT
10
-30.5987
20
-34.2293
0
VERTEX
8
CUT
10
-30.6245
20
-34.2973
0
VERTEX
8
CUT
10
-30.6248
20
-34.2979
0
VERTEX
8
CUT
10
-30.6280
20
-34.3064
0
VERTEX
8
CUT
10
-30.6283
20
-34.3071
0
VERTEX
8
CUT
10
-30.6318
20
-34.3162
0
VERTEX
8
CUT
10
-30.6321
20
-34.3169
0
VERTEX
8
CUT
10
-30.6353
20
-34.3253
0
VERTEX
8
CUT
10
-30.6356
20
-34.3260
0
VERTEX
8
CUT
10
-30.6689
20
-34.4118
0
VERTEX
8
CUT
10
-30.6691
20
-34.4123
0
VERTEX
8
CUT
10
-30.6718
20
-34.4192
0
VERTEX
8
CUT
10
-30.6720
20
-34.4197
0
VERTEX
8
CUT
10
-30.6750
20
-34.4271
0
VERTEX
8
CUT
10
-30.6752
20
-34.4277
0
VERTEX
8
CUT
10
-30.6779
20
-34.4346
0
VERTEX
8
CUT
10
-30.6781
20
-34.4351
0
VERTEX
8
CUT
10
-30.6998
20
-34.4901
0
VERTEX
8
CUT
10
-30.7000
20
-34.4906
0
VERTEX
8
CUT
10
-30.7028
20
-34.4975
0
VERTEX
8
CUT
10
-30.7030
20
-34.4980
0
VERTEX
8
CUT
10
-30.7059
20
-34.5054
0
VERTEX
8
CUT
10
-30.7061
20
-34.5060
0
VERTEX
8
CUT
10
-30.7089
20
-34.5128
0
VERTEX
8
CUT
10
-30.7091
20
-34.5134
0
VERTEX
8
CUT
10
-30.7506
20
-34.6166
0
VERTEX
8
CUT
10
-30.7508
20
-34.6170
0
VERTEX
8
CUT
10
-30.7529
20
-34.6223
0
VERTEX
8
CUT
10
-30.7530
20
-34.6227
0
VERTEX
8
CUT
10
-30.7554
20
-34.6284
0
VERTEX
8
CUT
10
-30.7555
20
-34.6288
0
VERTEX
8
CUT
10
-30.7577
20
-34.6341
0
VERTEX
8
CUT
10
-30.7578
20
-34.6345
0
VERTEX
8
CUT
10
-30.7750
20
-34.6767
0
VERTEX
8
CUT
10
-30.7752
20
-34.6772
0
VERTEX
8
CUT
10
-30.7773
20
-34.6824
0
VERTEX
8
CUT
10
-30.7775
20
-34.6828
0
VERTEX
8
CUT
10
-30.7798
20
-34.6885
0
VERTEX
8
CUT
10
-30.7800
20
-34.6889
0
VERTEX
8
CUT
10
-30.7822
20
-34.6942
0
VERTEX
8
CUT
10
-30.7823
20
-34.6946
0
VERTEX
8
CUT
10
-30.8321
20
-34.8154
0
VERTEX
8
CUT
10
-30.8322
20
-34.8157
0
VERTEX
8
CUT
10
-30.8338
20
-34.8195
0
VERTEX
8
CUT
10
-30.8339
20
-34.8197
0
VERTEX
8
CUT
10
-30.8356
20
-34.8238
0
VERTEX
8
CUT
10
-30.8357
20
-34.8240
0
VERTEX
8
CUT
10
-30.8372
20
-34.8278
0
VERTEX
8
CUT
10
-30.8373
20
-34.8280
0
VERTEX
8
CUT
10
-30.8497
20
-34.8578
0
VERTEX
8
CUT
10
-30.8498
20
-34.8581
0
VERTEX
8
CUT
10
-30.8514
20
-34.8618
0
VERTEX
8
CUT
10
-30.8515
20
-34.8621
0
VERTEX
8
CUT
10
-30.8532
20
-34.8661
0
VERTEX
8
CUT
10
-30.8533
20
-34.8664
0
VERTEX
8
CUT
10
-30.8549
20
-34.8701
0
VERTEX
8
CUT
10
-30.8550
20
-34.8704
0
VERTEX
8
CUT
10
-30.9130
20
-35.0088
0
VERTEX
8
CUT
10
-30.9131
20
-35.0090
0
VERTEX
8
CUT
10
-30.9140
20
-35.0112
0
VERTEX
8
CUT
10
-30.9141
20
-35.0114
0
VERTEX
8
CUT
10
-30.9151
20
-35.0137
0
VERTEX
8
CUT
10
-30.9152
20
-35.0139
0
VERTEX
8
CUT
10
-30.9161
20
-35.0161
0
VERTEX
8
CUT
10
-30.9162
20
-35.0163
0
VERTEX
8
CUT
10
-30.9236
20
-35.0339
0
VERTEX
8
CUT
10
-30.9237
20
-35.0341
0
VERTEX
8
CUT
10
-30.9246
20
-35.0363
0
VERTEX
8
CUT
10
-30.9247
20
-35.0365
0
VERTEX
8
CUT
10
-30.9257
20
-35.0389
0
VERTEX
8
CUT
10
-30.9258
20
-35.0390
0
VERTEX
8
CUT
10
-30.9267
20
-35.0412
0
VERTEX
8
CUT
10
-30.9268
20
-35.0414
0
VERTEX
8
CUT
10
-30.9928
20
-35.1973
0
VERTEX
8
CUT
10
-30.9928
20
-35.1974
0
VERTEX
8
CUT
10
-30.9932
20
-35.1981
0
VERTEX
8
CUT
10
-30.9935
20
-35.1990
0
VERTEX
8
CUT
10
-30.9939
20
-35.1998
0
VERTEX
8
CUT
10
-30.9964
20
-35.2058
0
VERTEX
8
CUT
10
-30.9964
20
-35.2059
0
VERTEX
8
CUT
10
-30.9968
20
-35.2067
0
VERTEX
8
CUT
10
-30.9971
20
-35.2075
0
VERTEX
8
CUT
10
-30.9971
20
-35.2075
0
VERTEX
8
CUT
10
-30.9975
20
-35.2083
0
VERTEX
8
CUT
10
-30.9975
20
-35.2083
0
VERTEX
8
CUT
10
-31.0686
20
-35.3755
0
VERTEX
8
CUT
10
-31.0686
20
-35.3757
0
VERTEX
8
CUT
10
-31.0689
20
-35.3763
0
VERTEX
8
CUT
10
-31.0690
20
-35.3765
0
VERTEX
8
CUT
10
-31.0693
20
-35.3771
0
VERTEX
8
CUT
10
-31.0693
20
-35.3773
0
VERTEX
8
CUT
10
-31.0696
20
-35.3779
0
VERTEX
8
CUT
10
-31.0697
20
-35.3781
0
VERTEX
8
CUT
10
-31.1399
20
-35.5437
0
VERTEX
8
CUT
10
-31.1401
20
-35.5443
0
VERTEX
8
CUT
10
-31.1409
20
-35.5462
0
VERTEX
8
CUT
10
-31.1412
20
-35.5468
0
VERTEX
8
CUT
10
-31.1419
20
-35.5486
0
VERTEX
8
CUT
10
-31.1422
20
-35.5492
0
VERTEX
8
CUT
10
-31.1430
20
-35.5511
0
VERTEX
8
CUT
10
-31.1432
20
-35.5517
0
VERTEX
8
CUT
10
-31.2096
20
-35.7098
0
VERTEX
8
CUT
10
-31.2101
20
-35.7108
0
VERTEX
8
CUT
10
-31.2113
20
-35.7138
0
VERTEX
8
CUT
10
-31.2117
20
-35.7148
0
VERTEX
8
CUT
10
-31.2130
20
-35.7178
0
VERTEX
8
CUT
10
-31.2134
20
-35.7188
0
VERTEX
8
CUT
10
-31.2146
20
-35.7218
0
VERTEX
8
CUT
10
-31.2151
20
-35.7228
0
VERTEX
8
CUT
10
-31.2778
20
-35.8744
0
VERTEX
8
CUT
10
-31.2783
20
-35.8758
0
VERTEX
8
CUT
10
-31.2800
20
-35.8799
0
VERTEX
8
CUT
10
-31.2806
20
-35.8812
0
VERTEX
8
CUT
10
-31.2823
20
-35.8853
0
VERTEX
8
CUT
10
-31.2828
20
-35.8867
0
VERTEX
8
CUT
10
-31.2845
20
-35.8908
0
VERTEX
8
CUT
10
-31.2850
20
-35.8922
0
VERTEX
8
CUT
10
-31.3442
20
-36.0384
0
VERTEX
8
CUT
10
-31.3449
20
-36.0401
0
VERTEX
8
CUT
10
-31.3470
20
-36.0452
0
VERTEX
8
CUT
10
-31.3477
20
-36.0469
0
VERTEX
8
CUT
10
-31.3497
20
-36.0520
0
VERTEX
8
CUT
10
-31.3504
20
-36.0537
0
VERTEX
8
CUT
10
-31.3525
20
-36.0589
0
VERTEX
8
CUT
10
-31.3531
20
-36.0606
0
VERTEX
8
CUT
10
-31.4091
20
-36.2024
0
VERTEX
8
CUT
10
-31.4099
20
-36.2045
0
VERTEX
8
CUT
10
-31.4122
20
-36.2105
0
VERTEX
8
CUT
10
-31.4130
20
-36.2126
0
VERTEX
8
CUT
10
-31.4154
20
-36.2187
0
VERTEX
8
CUT
10
-31.4162
20
-36.2207
0
VERTEX
8
CUT
10
-31.4185
20
-36.2268
0
VERTEX
8
CUT
10
-31.4193
20
-36.2288
0
VERTEX
8
CUT
10
-31.4788
20
-36.3846
0
VERTEX
8
CUT
10
-31.4792
20
-36.3856
0
VERTEX
8
CUT
10
-31.4804
20
-36.3888
0
VERTEX
8
CUT
10
-31.4808
20
-36.3898
0
VERTEX
8
CUT
10
-31.4820
20
-36.3930
0
VERTEX
8
CUT
10
-31.4823
20
-36.3940
0
VERTEX
8
CUT
10
-31.4835
20
-36.3971
0
VERTEX
8
CUT
10
-31.4839
20
-36.3982
0
VERTEX
8
CUT
10
-31.5541
20
-36.5852
0
VERTEX
8
CUT
10
-31.5541
20
-36.5852
0
VERTEX
8
CUT
10
-31.5541
20
-36.5852
0
VERTEX
8
CUT
10
-31.5542
20
-36.5854
0
VERTEX
8
CUT
10
-31.5543
20
-36.5856
0
VERTEX
8
CUT
10
-31.5544
20
-36.5859
0
VERTEX
8
CUT
10
-31.5544
20
-36.5859
0
VERTEX
8
CUT
10
-31.5551
20
-36.5877
0
VERTEX
8
CUT
10
-31.5552
20
-36.5880
0
VERTEX
8
CUT
10
-31.5552
20
-36.5880
0
VERTEX
8
CUT
10
-31.5552
20
-36.5880
0
VERTEX
8
CUT
10
-31.5553
20
-36.5882
0
VERTEX
8
CUT
10
-31.5553
20
-36.5883
0
VERTEX
8
CUT
10
-31.5553
20
-36.5884
0
VERTEX
8
CUT
10
-31.5553
20
-36.5884
0
VERTEX
8
CUT
10
-31.6325
20
-36.7937
0
VERTEX
8
CUT
10
-31.6325
20
-36.7938
0
VERTEX
8
CUT
10
-31.6326
20
-36.7939
0
VERTEX
8
CUT
10
-31.6326
20
-36.7940
0
VERTEX
8
CUT
10
-31.6326
20
-36.7940
0
VERTEX
8
CUT
10
-31.7111
20
-37.0030
0
VERTEX
8
CUT
10
-31.7112
20
-37.0031
0
VERTEX
8
CUT
10
-31.7113
20
-37.0034
0
VERTEX
8
CUT
10
-31.7113
20
-37.0035
0
VERTEX
8
CUT
10
-31.7115
20
-37.0039
0
VERTEX
8
CUT
10
-31.7115
20
-37.0041
0
VERTEX
8
CUT
10
-31.7116
20
-37.0043
0
VERTEX
8
CUT
10
-31.7116
20
-37.0044
0
VERTEX
8
CUT
10
-31.7906
20
-37.2151
0
VERTEX
8
CUT
10
-31.7907
20
-37.2152
0
VERTEX
8
CUT
10
-31.7909
20
-37.2158
0
VERTEX
8
CUT
10
-31.7910
20
-37.2160
0
VERTEX
8
CUT
10
-31.7912
20
-37.2166
0
VERTEX
8
CUT
10
-31.7913
20
-37.2168
0
VERTEX
8
CUT
10
-31.7915
20
-37.2173
0
VERTEX
8
CUT
10
-31.7915
20
-37.2175
0
VERTEX
8
CUT
10
-31.8709
20
-37.4296
0
VERTEX
8
CUT
10
-31.8710
20
-37.4299
0
VERTEX
8
CUT
10
-31.8713
20
-37.4307
0
VERTEX
8
CUT
10
-31.8714
20
-37.4309
0
VERTEX
8
CUT
10
-31.8716
20
-37.4317
0
VERTEX
8
CUT
10
-31.8717
20
-37.4320
0
VERTEX
8
CUT
10
-31.8720
20
-37.4327
0
VERTEX
8
CUT
10
-31.8721
20
-37.4330
0
VERTEX
8
CUT
10
-31.9515
20
-37.6463
0
VERTEX
8
CUT
10
-31.9517
20
-37.6466
0
VERTEX
8
CUT
10
-31.9520
20
-37.6476
0
VERTEX
8
CUT
10
-31.9522
20
-37.6480
0
VERTEX
8
CUT
10
-31.9525
20
-37.6490
0
VERTEX
8
CUT
10
-31.9527
20
-37.6493
0
VERTEX
8
CUT
10
-31.9530
20
-37.6503
0
VERTEX
8
CUT
10
-31.9532
20
-37.6506
0
VERTEX
8
CUT
10
-32.0325
20
-37.8649
0
VERTEX
8
CUT
10
-32.0326
20
-37.8653
0
VERTEX
8
CUT
10
-32.0331
20
-37.8665
0
VERTEX
8
CUT
10
-32.0332
20
-37.8669
0
VERTEX
8
CUT
10
-32.0337
20
-37.8681
0
VERTEX
8
CUT
10
-32.0338
20
-37.8685
0
VERTEX
8
CUT
10
-32.0343
20
-37.8698
0
VERTEX
8
CUT
10
-32.0344
20
-37.8702
0
VERTEX
8
CUT
10
-32.1135
20
-38.0851
0
VERTEX
8
CUT
10
-32.1137
20
-38.0856
0
VERTEX
8
CUT
10
-32.1142
20
-38.0870
0
VERTEX
8
CUT
10
-32.1144
20
-38.0875
0
VERTEX
8
CUT
10
-32.1149
20
-38.0889
0
VERTEX
8
CUT
10
-32.1151
20
-38.0894
0
VERTEX
8
CUT
10
-32.1156
20
-38.0909
0
VERTEX
8
CUT
10
-32.1158
20
-38.0913
0
VERTEX
8
CUT
10
-32.1943
20
-38.3066
0
VERTEX
8
CUT
10
-32.1945
20
-38.3071
0
VERTEX
8
CUT
10
-32.1951
20
-38.3088
0
VERTEX
8
CUT
10
-32.1953
20
-38.3094
0
VERTEX
8
CUT
10
-32.1959
20
-38.3110
0
VERTEX
8
CUT
10
-32.1961
20
-38.3116
0
VERTEX
8
CUT
10
-32.1967
20
-38.3133
0
VERTEX
8
CUT
10
-32.1969
20
-38.3138
0
VERTEX
8
CUT
10
-32.2748
20
-38.5291
0
VERTEX
8
CUT
10
-32.2750
20
-38.5298
0
VERTEX
8
CUT
10
-32.2757
20
-38.5316
0
VERTEX
8
CUT
10
-32.2759
20
-38.5323
0
VERTEX
8
CUT
10
-32.2766
20
-38.5342
0
VERTEX
8
CUT
10
-32.2768
20
-38.5348
0
VERTEX
8
CUT
10
-32.2775
20
-38.5367
0
VERTEX
8
CUT
10
-32.2777
20
-38.5373
0
VERTEX
8
CUT
10
-32.3547
20
-38.7524
0
VERTEX
8
CUT
10
-32.3549
20
-38.7531
0
VERTEX
8
CUT
10
-32.3557
20
-38.7552
0
VERTEX
8
CUT
10
-32.3559
20
-38.7559
0
VERTEX
8
CUT
10
-32.3567
20
-38.7580
0
VERTEX
8
CUT
10
-32.3569
20
-38.7587
0
VERTEX
8
CUT
10
-32.3577
20
-38.7608
0
VERTEX
8
CUT
10
-32.3579
20
-38.7615
0
VERTEX
8
CUT
10
-32.4338
20
-38.9760
0
VERTEX
8
CUT
10
-32.4340
20
-38.9767
0
VERTEX
8
CUT
10
-32.4349
20
-38.9791
0
VERTEX
8
CUT
10
-32.4351
20
-38.9799
0
VERTEX
8
CUT
10
-32.4360
20
-38.9822
0
VERTEX
8
CUT
10
-32.4362
20
-38.9830
0
VERTEX
8
CUT
10
-32.4371
20
-38.9853
0
VERTEX
8
CUT
10
-32.4373
20
-38.9861
0
VERTEX
8
CUT
10
-32.5118
20
-39.1996
0
VERTEX
8
CUT
10
-32.5121
20
-39.2005
0
VERTEX
8
CUT
10
-32.5130
20
-39.2031
0
VERTEX
8
CUT
10
-32.5133
20
-39.2039
0
VERTEX
8
CUT
10
-32.5142
20
-39.2065
0
VERTEX
8
CUT
10
-32.5145
20
-39.2074
0
VERTEX
8
CUT
10
-32.5154
20
-39.2100
0
VERTEX
8
CUT
10
-32.5157
20
-39.2108
0
VERTEX
8
CUT
10
-32.5887
20
-39.4230
0
VERTEX
8
CUT
10
-32.5890
20
-39.4239
0
VERTEX
8
CUT
10
-32.5899
20
-39.4268
0
VERTEX
8
CUT
10
-32.5903
20
-39.4277
0
VERTEX
8
CUT
10
-32.5912
20
-39.4306
0
VERTEX
8
CUT
10
-32.5916
20
-39.4315
0
VERTEX
8
CUT
10
-32.5925
20
-39.4343
0
VERTEX
8
CUT
10
-32.5928
20
-39.4353
0
VERTEX
8
CUT
10
-32.6640
20
-39.6457
0
VERTEX
8
CUT
10
-32.6644
20
-39.6467
0
VERTEX
8
CUT
10
-32.6654
20
-39.6498
0
VERTEX
8
CUT
10
-32.6658
20
-39.6509
0
VERTEX
8
CUT
10
-32.6668
20
-39.6540
0
VERTEX
8
CUT
10
-32.6671
20
-39.6550
0
VERTEX
8
CUT
10
-32.6682
20
-39.6581
0
VERTEX
8
CUT
10
-32.6685
20
-39.6591
0
VERTEX
8
CUT
10
-32.7410
20
-39.8774
0
VERTEX
8
CUT
10
-32.7410
20
-39.8774
0
VERTEX
8
CUT
10
-32.7410
20
-39.8774
0
VERTEX
8
CUT
10
-32.7413
20
-39.8784
0
VERTEX
8
CUT
10
-32.7414
20
-39.8785
0
VERTEX
8
CUT
10
-32.7414
20
-39.8785
0
VERTEX
8
CUT
10
-32.7417
20
-39.8796
0
VERTEX
8
CUT
10
-32.7418
20
-39.8797
0
VERTEX
8
CUT
10
-32.7421
20
-39.8807
0
VERTEX
8
CUT
10
-32.7421
20
-39.8808
0
VERTEX
8
CUT
10
-32.7421
20
-39.8808
0
VERTEX
8
CUT
10
-32.7448
20
-39.8888
0
VERTEX
8
CUT
10
-32.7449
20
-39.8889
0
VERTEX
8
CUT
10
-32.7449
20
-39.8889
0
VERTEX
8
CUT
10
-32.7452
20
-39.8898
0
VERTEX
8
CUT
10
-32.7452
20
-39.8900
0
VERTEX
8
CUT
10
-32.7452
20
-39.8900
0
VERTEX
8
CUT
10
-32.7456
20
-39.8910
0
VERTEX
8
CUT
10
-32.7456
20
-39.8910
0
VERTEX
8
CUT
10
-32.7456
20
-39.8911
0
VERTEX
8
CUT
10
-32.7459
20
-39.8921
0
VERTEX
8
CUT
10
-32.7460
20
-39.8922
0
VERTEX
8
CUT
10
-32.7460
20
-39.8922
0
VERTEX
8
CUT
10
-32.8155
20
-40.1004
0
VERTEX
8
CUT
10
-32.8156
20
-40.1007
0
VERTEX
8
CUT
10
-32.8171
20
-40.1053
0
VERTEX
8
CUT
10
-32.8172
20
-40.1056
0
VERTEX
8
CUT
10
-32.8189
20
-40.1105
0
VERTEX
8
CUT
10
-32.8190
20
-40.1108
0
VERTEX
8
CUT
10
-32.8205
20
-40.1154
0
VERTEX
8
CUT
10
-32.8206
20
-40.1157
0
VERTEX
8
CUT
10
-32.8329
20
-40.1521
0
VERTEX
8
CUT
10
-32.8330
20
-40.1524
0
VERTEX
8
CUT
10
-32.8346
20
-40.1569
0
VERTEX
8
CUT
10
-32.8347
20
-40.1573
0
VERTEX
8
CUT
10
-32.8363
20
-40.1622
0
VERTEX
8
CUT
10
-32.8365
20
-40.1625
0
VERTEX
8
CUT
10
-32.8380
20
-40.1671
0
VERTEX
8
CUT
10
-32.8381
20
-40.1674
0
VERTEX
8
CUT
10
-32.9057
20
-40.3649
0
VERTEX
8
CUT
10
-32.9058
20
-40.3652
0
VERTEX
8
CUT
10
-32.9068
20
-40.3682
0
VERTEX
8
CUT
10
-32.9069
20
-40.3684
0
VERTEX
8
CUT
10
-32.9080
20
-40.3716
0
VERTEX
8
CUT
10
-32.9081
20
-40.3718
0
VERTEX
8
CUT
10
-32.9091
20
-40.3748
0
VERTEX
8
CUT
10
-32.9092
20
-40.3750
0
VERTEX
8
CUT
10
-32.9174
20
-40.3989
0
VERTEX
8
CUT
10
-32.9175
20
-40.3991
0
VERTEX
8
CUT
10
-32.9185
20
-40.4021
0
VERTEX
8
CUT
10
-32.9186
20
-40.4023
0
VERTEX
8
CUT
10
-32.9197
20
-40.4055
0
VERTEX
8
CUT
10
-32.9198
20
-40.4057
0
VERTEX
8
CUT
10
-32.9208
20
-40.4087
0
VERTEX
8
CUT
10
-32.9209
20
-40.4089
0
VERTEX
8
CUT
10
-32.9952
20
-40.6228
0
VERTEX
8
CUT
10
-32.9953
20
-40.6230
0
VERTEX
8
CUT
10
-32.9958
20
-40.6244
0
VERTEX
8
CUT
10
-32.9958
20
-40.6245
0
VERTEX
8
CUT
10
-32.9964
20
-40.6260
0
VERTEX
8
CUT
10
-32.9964
20
-40.6261
0
VERTEX
8
CUT
10
-32.9969
20
-40.6275
0
VERTEX
8
CUT
10
-32.9969
20
-40.6277
0
VERTEX
8
CUT
10
-33.0009
20
-40.6390
0
VERTEX
8
CUT
10
-33.0009
20
-40.6392
0
VERTEX
8
CUT
10
-33.0015
20
-40.6406
0
VERTEX
8
CUT
10
-33.0015
20
-40.6408
0
VERTEX
8
CUT
10
-33.0020
20
-40.6422
0
VERTEX
8
CUT
10
-33.0021
20
-40.6424
0
VERTEX
8
CUT
10
-33.0025
20
-40.6438
0
VERTEX
8
CUT
10
-33.0026
20
-40.6439
0
VERTEX
8
CUT
10
-33.0830
20
-40.8735
0
VERTEX
8
CUT
10
-33.0830
20
-40.8735
0
VERTEX
8
CUT
10
-33.0830
20
-40.8736
0
VERTEX
8
CUT
10
-33.0831
20
-40.8737
0
VERTEX
8
CUT
10
-33.0831
20
-40.8737
0
VERTEX
8
CUT
10
-33.0832
20
-40.8739
0
VERTEX
8
CUT
10
-33.0832
20
-40.8740
0
VERTEX
8
CUT
10
-33.1641
20
-41.1051
0
VERTEX
8
CUT
10
-33.1642
20
-41.1056
0
VERTEX
8
CUT
10
-33.1648
20
-41.1071
0
VERTEX
8
CUT
10
-33.1649
20
-41.1076
0
VERTEX
8
CUT
10
-33.1655
20
-41.1091
0
VERTEX
8
CUT
10
-33.1656
20
-41.1096
0
VERTEX
8
CUT
10
-33.1662
20
-41.1111
0
VERTEX
8
CUT
10
-33.1663
20
-41.1116
0
VERTEX
8
CUT
10
-33.2427
20
-41.3317
0
VERTEX
8
CUT
10
-33.2431
20
-41.3327
0
VERTEX
8
CUT
10
-33.2441
20
-41.3356
0
VERTEX
8
CUT
10
-33.2444
20
-41.3365
0
VERTEX
8
CUT
10
-33.2454
20
-41.3394
0
VERTEX
8
CUT
10
-33.2457
20
-41.3404
0
VERTEX
8
CUT
10
-33.2467
20
-41.3433
0
VERTEX
8
CUT
10
-33.2470
20
-41.3442
0
VERTEX
8
CUT
10
-33.3186
20
-41.5539
0
VERTEX
8
CUT
10
-33.3191
20
-41.5553
0
VERTEX
8
CUT
10
-33.3205
20
-41.5595
0
VERTEX
8
CUT
10
-33.3210
20
-41.5610
0
VERTEX
8
CUT
10
-33.3224
20
-41.5652
0
VERTEX
8
CUT
10
-33.3229
20
-41.5666
0
VERTEX
8
CUT
10
-33.3243
20
-41.5709
0
VERTEX
8
CUT
10
-33.3248
20
-41.5723
0
VERTEX
8
CUT
10
-33.3914
20
-41.7722
0
VERTEX
8
CUT
10
-33.3920
20
-41.7740
0
VERTEX
8
CUT
10
-33.3938
20
-41.7796
0
VERTEX
8
CUT
10
-33.3944
20
-41.7814
0
VERTEX
8
CUT
10
-33.3962
20
-41.7870
0
VERTEX
8
CUT
10
-33.3968
20
-41.7889
0
VERTEX
8
CUT
10
-33.3987
20
-41.7944
0
VERTEX
8
CUT
10
-33.3993
20
-41.7963
0
VERTEX
8
CUT
10
-33.4608
20
-41.9872
0
VERTEX
8
CUT
10
-33.4615
20
-41.9894
0
VERTEX
8
CUT
10
-33.4637
20
-41.9963
0
VERTEX
8
CUT
10
-33.4644
20
-41.9986
0
VERTEX
8
CUT
10
-33.4666
20
-42.0054
0
VERTEX
8
CUT
10
-33.4673
20
-42.0077
0
VERTEX
8
CUT
10
-33.4694
20
-42.0146
0
VERTEX
8
CUT
10
-33.4701
20
-42.0169
0
VERTEX
8
CUT
10
-33.5266
20
-42.1995
0
VERTEX
8
CUT
10
-33.5274
20
-42.2022
0
VERTEX
8
CUT
10
-33.5299
20
-42.2103
0
VERTEX
8
CUT
10
-33.5307
20
-42.2130
0
VERTEX
8
CUT
10
-33.5331
20
-42.2211
0
VERTEX
8
CUT
10
-33.5339
20
-42.2238
0
VERTEX
8
CUT
10
-33.5363
20
-42.2319
0
VERTEX
8
CUT
10
-33.5371
20
-42.2346
0
VERTEX
8
CUT
10
-33.5886
20
-42.4099
0
VERTEX
8
CUT
10
-33.5895
20
-42.4130
0
VERTEX
8
CUT
10
-33.5922
20
-42.4223
0
VERTEX
8
CUT
10
-33.5931
20
-42.4254
0
VERTEX
8
CUT
10
-33.5957
20
-42.4347
0
VERTEX
8
CUT
10
-33.5966
20
-42.4378
0
VERTEX
8
CUT
10
-33.5992
20
-42.4471
0
VERTEX
8
CUT
10
-33.6001
20
-42.4502
0
VERTEX
8
CUT
10
-33.6467
20
-42.6190
0
VERTEX
8
CUT
10
-33.6477
20
-42.6225
0
VERTEX
8
CUT
10
-33.6505
20
-42.6329
0
VERTEX
8
CUT
10
-33.6514
20
-42.6364
0
VERTEX
8
CUT
10
-33.6542
20
-42.6468
0
VERTEX
8
CUT
10
-33.6551
20
-42.6503
0
VERTEX
8
CUT
10
-33.6579
20
-42.6607
0
VERTEX
8
CUT
10
-33.6588
20
-42.6642
0
VERTEX
8
CUT
10
-33.7008
20
-42.8277
0
VERTEX
8
CUT
10
-33.7018
20
-42.8315
0
VERTEX
8
CUT
10
-33.7046
20
-42.8430
0
VERTEX
8
CUT
10
-33.7056
20
-42.8468
0
VERTEX
8
CUT
10
-33.7084
20
-42.8583
0
VERTEX
8
CUT
10
-33.7094
20
-42.8621
0
VERTEX
8
CUT
10
-33.7121
20
-42.8736
0
VERTEX
8
CUT
10
-33.7131
20
-42.8775
0
VERTEX
8
CUT
10
-33.7506
20
-43.0366
0
VERTEX
8
CUT
10
-33.7516
20
-43.0408
0
VERTEX
8
CUT
10
-33.7545
20
-43.0532
0
VERTEX
8
CUT
10
-33.7554
20
-43.0574
0
VERTEX
8
CUT
10
-33.7582
20
-43.0699
0
VERTEX
8
CUT
10
-33.7591
20
-43.0740
0
VERTEX
8
CUT
10
-33.7619
20
-43.0865
0
VERTEX
8
CUT
10
-33.7628
20
-43.0907
0
VERTEX
8
CUT
10
-33.7961
20
-43.2467
0
VERTEX
8
CUT
10
-33.7970
20
-43.2511
0
VERTEX
8
CUT
10
-33.7998
20
-43.2645
0
VERTEX
8
CUT
10
-33.8007
20
-43.2690
0
VERTEX
8
CUT
10
-33.8034
20
-43.2824
0
VERTEX
8
CUT
10
-33.8043
20
-43.2868
0
VERTEX
8
CUT
10
-33.8069
20
-43.3002
0
VERTEX
8
CUT
10
-33.8078
20
-43.3047
0
VERTEX
8
CUT
10
-33.8398
20
-43.4729
0
VERTEX
8
CUT
10
-33.8405
20
-43.4766
0
VERTEX
8
CUT
10
-33.8425
20
-43.4876
0
VERTEX
8
CUT
10
-33.8432
20
-43.4913
0
VERTEX
8
CUT
10
-33.8452
20
-43.5024
0
VERTEX
8
CUT
10
-33.8458
20
-43.5060
0
VERTEX
8
CUT
10
-33.8478
20
-43.5171
0
VERTEX
8
CUT
10
-33.8484
20
-43.5208
0
VERTEX
8
CUT
10
-33.8813
20
-43.7134
0
VERTEX
8
CUT
10
-33.8817
20
-43.7161
0
VERTEX
8
CUT
10
-33.8831
20
-43.7244
0
VERTEX
8
CUT
10
-33.8836
20
-43.7271
0
VERTEX
8
CUT
10
-33.8849
20
-43.7354
0
VERTEX
8
CUT
10
-33.8854
20
-43.7382
0
VERTEX
8
CUT
10
-33.8867
20
-43.7465
0
VERTEX
8
CUT
10
-33.8871
20
-43.7492
0
VERTEX
8
CUT
10
-33.9188
20
-43.9517
0
VERTEX
8
CUT
10
-33.9192
20
-43.9545
0
VERTEX
8
CUT
10
-33.9205
20
-43.9628
0
VERTEX
8
CUT
10
-33.9209
20
-43.9655
0
VERTEX
8
CUT
10
-33.9221
20
-43.9738
0
VERTEX
8
CUT
10
-33.9225
20
-43.9766
0
VERTEX
8
CUT
10
-33.9237
20
-43.9849
0
VERTEX
8
CUT
10
-33.9241
20
-43.9877
0
VERTEX
8
CUT
10
-33.9528
20
-44.1896
0
VERTEX
8
CUT
10
-33.9532
20
-44.1923
0
VERTEX
8
CUT
10
-33.9543
20
-44.2005
0
VERTEX
8
CUT
10
-33.9547
20
-44.2032
0
VERTEX
8
CUT
10
-33.9558
20
-44.2114
0
VERTEX
8
CUT
10
-33.9562
20
-44.2142
0
VERTEX
8
CUT
10
-33.9572
20
-44.2223
0
VERTEX
8
CUT
10
-33.9576
20
-44.2251
0
VERTEX
8
CUT
10
-33.9837
20
-44.4291
0
VERTEX
8
CUT
10
-33.9840
20
-44.4318
0
VERTEX
8
CUT
10
-33.9850
20
-44.4397
0
VERTEX
8
CUT
10
-33.9854
20
-44.4424
0
VERTEX
8
CUT
10
-33.9863
20
-44.4503
0
VERTEX
8
CUT
10
-33.9866
20
-44.4529
0
VERTEX
8
CUT
10
-33.9876
20
-44.4609
0
VERTEX
8
CUT
10
-33.9879
20
-44.4635
0
VERTEX
8
CUT
10
-34.0118
20
-44.6724
0
VERTEX
8
CUT
10
-34.0121
20
-44.6749
0
VERTEX
8
CUT
10
-34.0129
20
-44.6824
0
VERTEX
8
CUT
10
-34.0132
20
-44.6850
0
VERTEX
8
CUT
10
-34.0140
20
-44.6925
0
VERTEX
8
CUT
10
-34.0143
20
-44.6950
0
VERTEX
8
CUT
10
-34.0151
20
-44.7026
0
VERTEX
8
CUT
10
-34.0153
20
-44.7051
0
VERTEX
8
CUT
10
-34.0373
20
-44.9213
0
VERTEX
8
CUT
10
-34.0375
20
-44.9236
0
VERTEX
8
CUT
10
-34.0382
20
-44.9307
0
VERTEX
8
CUT
10
-34.0385
20
-44.9331
0
VERTEX
8
CUT
10
-34.0391
20
-44.9401
0
VERTEX
8
CUT
10
-34.0394
20
-44.9425
0
VERTEX
8
CUT
10
-34.0400
20
-44.9496
0
VERTEX
8
CUT
10
-34.0402
20
-44.9519
0
VERTEX
8
CUT
10
-34.0605
20
-45.1778
0
VERTEX
8
CUT
10
-34.0607
20
-45.1799
0
VERTEX
8
CUT
10
-34.0612
20
-45.1864
0
VERTEX
8
CUT
10
-34.0614
20
-45.1886
0
VERTEX
8
CUT
10
-34.0620
20
-45.1951
0
VERTEX
8
CUT
10
-34.0621
20
-45.1972
0
VERTEX
8
CUT
10
-34.0627
20
-45.2037
0
VERTEX
8
CUT
10
-34.0629
20
-45.2059
0
VERTEX
8
CUT
10
-34.0816
20
-45.4436
0
VERTEX
8
CUT
10
-34.0817
20
-45.4455
0
VERTEX
8
CUT
10
-34.0822
20
-45.4514
0
VERTEX
8
CUT
10
-34.0823
20
-45.4533
0
VERTEX
8
CUT
10
-34.0827
20
-45.4591
0
VERTEX
8
CUT
10
-34.0829
20
-45.4611
0
VERTEX
8
CUT
10
-34.0833
20
-45.4670
0
VERTEX
8
CUT
10
-34.0834
20
-45.4689
0
VERTEX
8
CUT
10
-34.1008
20
-45.7203
0
VERTEX
8
CUT
10
-34.1009
20
-45.7221
0
VERTEX
8
CUT
10
-34.1012
20
-45.7272
0
VERTEX
8
CUT
10
-34.1014
20
-45.7290
0
VERTEX
8
CUT
10
-34.1017
20
-45.7341
0
VERTEX
8
CUT
10
-34.1018
20
-45.7358
0
VERTEX
8
CUT
10
-34.1021
20
-45.7410
0
VERTEX
8
CUT
10
-34.1022
20
-45.7427
0
VERTEX
8
CUT
10
-34.1183
20
-46.0096
0
VERTEX
8
CUT
10
-34.1184
20
-46.0111
0
VERTEX
8
CUT
10
-34.1187
20
-46.0156
0
VERTEX
8
CUT
10
-34.1187
20
-46.0171
0
VERTEX
8
CUT
10
-34.1190
20
-46.0216
0
VERTEX
8
CUT
10
-34.1191
20
-46.0231
0
VERTEX
8
CUT
10
-34.1193
20
-46.0275
0
VERTEX
8
CUT
10
-34.1194
20
-46.0290
0
VERTEX
8
CUT
10
-34.1344
20
-46.3129
0
VERTEX
8
CUT
10
-34.1345
20
-46.3142
0
VERTEX
8
CUT
10
-34.1346
20
-46.3180
0
VERTEX
8
CUT
10
-34.1347
20
-46.3192
0
VERTEX
8
CUT
10
-34.1349
20
-46.3230
0
VERTEX
8
CUT
10
-34.1350
20
-46.3243
0
VERTEX
8
CUT
10
-34.1351
20
-46.3280
0
VERTEX
8
CUT
10
-34.1352
20
-46.3293
0
VERTEX
8
CUT
10
-34.1492
20
-46.6315
0
VERTEX
8
CUT
10
-34.1493
20
-46.6326
0
VERTEX
8
CUT
10
-34.1494
20
-46.6357
0
VERTEX
8
CUT
10
-34.1495
20
-46.6367
0
VERTEX
8
CUT
10
-34.1496
20
-46.6398
0
VERTEX
8
CUT
10
-34.1497
20
-46.6409
0
VERTEX
8
CUT
10
-34.1498
20
-46.6440
0
VERTEX
8
CUT
10
-34.1498
20
-46.6450
0
VERTEX
8
CUT
10
-34.1631
20
-46.9667
0
VERTEX
8
CUT
10
-34.1631
20
-46.9676
0
VERTEX
8
CUT
10
-34.1632
20
-46.9700
0
VERTEX
8
CUT
10
-34.1633
20
-46.9709
0
VERTEX
8
CUT
10
-34.1634
20
-46.9734
0
VERTEX
8
CUT
10
-34.1634
20
-46.9742
0
VERTEX
8
CUT
10
-34.1635
20
-46.9767
0
VERTEX
8
CUT
10
-34.1635
20
-46.9775
0
VERTEX
8
CUT
10
-34.1762
20
-47.3198
0
VERTEX
8
CUT
10
-34.1762
20
-47.3205
0
VERTEX
8
CUT
10
-34.1763
20
-47.3224
0
VERTEX
8
CUT
10
-34.1763
20
-47.3230
0
VERTEX
8
CUT
10
-34.1764
20
-47.3249
0
VERTEX
8
CUT
10
-34.1764
20
-47.3255
0
VERTEX
8
CUT
10
-34.1765
20
-47.3274
0
VERTEX
8
CUT
10
-34.1765
20
-47.3281
0
VERTEX
8
CUT
10
-34.1889
20
-47.6920
0
VERTEX
8
CUT
10
-34.1889
20
-47.6925
0
VERTEX
8
CUT
10
-34.1889
20
-47.6938
0
VERTEX
8
CUT
10
-34.1889
20
-47.6943
0
VERTEX
8
CUT
10
-34.1890
20
-47.6957
0
VERTEX
8
CUT
10
-34.1890
20
-47.6961
0
VERTEX
8
CUT
10
-34.1890
20
-47.6975
0
VERTEX
8
CUT
10
-34.1890
20
-47.6979
0
VERTEX
8
CUT
10
-34.2011
20
-48.0806
0
VERTEX
8
CUT
10
-34.2012
20
-48.0812
0
VERTEX
8
CUT
10
-34.2012
20
-48.0829
0
VERTEX
8
CUT
10
-34.2012
20
-48.0835
0
VERTEX
8
CUT
10
-34.2013
20
-48.0853
0
VERTEX
8
CUT
10
-34.2013
20
-48.0859
0
VERTEX
8
CUT
10
-34.2014
20
-48.0876
0
VERTEX
8
CUT
10
-34.2014
20
-48.0882
0
VERTEX
8
CUT
10
-34.2127
20
-48.4844
0
VERTEX
8
CUT
10
-34.2128
20
-48.4852
0
VERTEX
8
CUT
10
-34.2128
20
-48.4876
0
VERTEX
8
CUT
10
-34.2129
20
-48.4884
0
VERTEX
8
CUT
10
-34.2129
20
-48.4908
0
VERTEX
8
CUT
10
-34.2129
20
-48.4916
0
VERTEX
8
CUT
10
-34.2130
20
-48.4940
0
VERTEX
8
CUT
10
-34.2130
20
-48.4948
0
VERTEX
8
CUT
10
-34.2232
20
-48.9051
0
VERTEX
8
CUT
10
-34.2232
20
-48.9059
0
VERTEX
8
CUT
10
-34.2232
20
-48.9081
0
VERTEX
8
CUT
10
-34.2232
20
-48.9089
0
VERTEX
8
CUT
10
-34.2233
20
-48.9112
0
VERTEX
8
CUT
10
-34.2233
20
-48.9119
0
VERTEX
8
CUT
10
-34.2234
20
-48.9142
0
VERTEX
8
CUT
10
-34.2234
20
-48.9150
0
VERTEX
8
CUT
10
-34.2323
20
-49.3415
0
VERTEX
8
CUT
10
-34.2323
20
-49.3423
0
VERTEX
8
CUT
10
-34.2324
20
-49.3445
0
VERTEX
8
CUT
10
-34.2324
20
-49.3452
0
VERTEX
8
CUT
10
-34.2324
20
-49.3474
0
VERTEX
8
CUT
10
-34.2324
20
-49.3481
0
VERTEX
8
CUT
10
-34.2325
20
-49.3503
0
VERTEX
8
CUT
10
-34.2325
20
-49.3511
0
VERTEX
8
CUT
10
-34.2401
20
-49.7925
0
VERTEX
8
CUT
10
-34.2401
20
-49.7932
0
VERTEX
8
CUT
10
-34.2401
20
-49.7954
0
VERTEX
8
CUT
10
-34.2402
20
-49.7961
0
VERTEX
8
CUT
10
-34.2402
20
-49.7982
0
VERTEX
8
CUT
10
-34.2402
20
-49.7990
0
VERTEX
8
CUT
10
-34.2402
20
-49.8011
0
VERTEX
8
CUT
10
-34.2402
20
-49.8018
0
VERTEX
8
CUT
10
-34.2465
20
-50.2569
0
VERTEX
8
CUT
10
-34.2465
20
-50.2576
0
VERTEX
8
CUT
10
-34.2465
20
-50.2597
0
VERTEX
8
CUT
10
-34.2465
20
-50.2604
0
VERTEX
8
CUT
10
-34.2465
20
-50.2625
0
VERTEX
8
CUT
10
-34.2465
20
-50.2632
0
VERTEX
8
CUT
10
-34.2466
20
-50.2653
0
VERTEX
8
CUT
10
-34.2466
20
-50.2660
0
VERTEX
8
CUT
10
-34.2513
20
-50.7335
0
VERTEX
8
CUT
10
-34.2513
20
-50.7342
0
VERTEX
8
CUT
10
-34.2513
20
-50.7362
0
VERTEX
8
CUT
10
-34.2514
20
-50.7369
0
VERTEX
8
CUT
10
-34.2514
20
-50.7390
0
VERTEX
8
CUT
10
-34.2514
20
-50.7397
0
VERTEX
8
CUT
10
-34.2514
20
-50.7418
0
VERTEX
8
CUT
10
-34.2514
20
-50.7425
0
VERTEX
8
CUT
10
-34.2546
20
-51.2210
0
VERTEX
8
CUT
10
-34.2546
20
-51.2217
0
VERTEX
8
CUT
10
-34.2546
20
-51.2238
0
VERTEX
8
CUT
10
-34.2546
20
-51.2245
0
VERTEX
8
CUT
10
-34.2546
20
-51.2266
0
VERTEX
8
CUT
10
-34.2546
20
-51.2273
0
VERTEX
8
CUT
10
-34.2546
20
-51.2293
0
VERTEX
8
CUT
10
-34.2546
20
-51.2300
0
VERTEX
8
CUT
10
-34.2562
20
-51.7185
0
VERTEX
8
CUT
10
-34.2562
20
-51.7192
0
VERTEX
8
CUT
10
-34.2562
20
-51.7213
0
VERTEX
8
CUT
10
-34.2562
20
-51.7220
0
VERTEX
8
CUT
10
-34.2562
20
-51.7240
0
VERTEX
8
CUT
10
-34.2562
20
-51.7247
0
VERTEX
8
CUT
10
-34.2562
20
-51.7268
0
VERTEX
8
CUT
10
-34.2562
20
-51.7275
0
VERTEX
8
CUT
10
-34.2561
20
-52.2246
0
VERTEX
8
CUT
10
-34.2561
20
-52.2253
0
VERTEX
8
CUT
10
-34.2561
20
-52.2275
0
VERTEX
8
CUT
10
-34.2561
20
-52.2281
0
VERTEX
8
CUT
10
-34.2561
20
-52.2302
0
VERTEX
8
CUT
10
-34.2561
20
-52.2309
0
VERTEX
8
CUT
10
-34.2561
20
-52.2330
0
VERTEX
8
CUT
10
-34.2561
20
-52.2337
0
VERTEX
8
CUT
10
-34.2543
20
-52.7383
0
VERTEX
8
CUT
10
-34.2543
20
-52.7391
0
VERTEX
8
CUT
10
-34.2542
20
-52.7412
0
VERTEX
8
CUT
10
-34.2542
20
-52.7419
0
VERTEX
8
CUT
10
-34.2542
20
-52.7440
0
VERTEX
8
CUT
10
-34.2542
20
-52.7447
0
VERTEX
8
CUT
10
-34.2542
20
-52.7469
0
VERTEX
8
CUT
10
-34.2542
20
-52.7476
0
VERTEX
8
CUT
10
-34.2505
20
-53.2584
0
VERTEX
8
CUT
10
-34.2505
20
-53.2592
0
VERTEX
8
CUT
10
-34.2505
20
-53.2613
0
VERTEX
8
CUT
10
-34.2505
20
-53.2621
0
VERTEX
8
CUT
10
-34.2504
20
-53.2642
0
VERTEX
8
CUT
10
-34.2504
20
-53.2649
0
VERTEX
8
CUT
10
-34.2504
20
-53.2671
0
VERTEX
8
CUT
10
-34.2504
20
-53.2678
0
VERTEX
8
CUT
10
-34.2448
20
-53.7838
0
VERTEX
8
CUT
10
-34.2448
20
-53.7845
0
VERTEX
8
CUT
10
-34.2448
20
-53.7867
0
VERTEX
8
CUT
10
-34.2448
20
-53.7875
0
VERTEX
8
CUT
10
-34.2447
20
-53.7897
0
VERTEX
8
CUT
10
-34.2447
20
-53.7904
0
VERTEX
8
CUT
10
-34.2447
20
-53.7927
0
VERTEX
8
CUT
10
-34.2447
20
-53.7934
0
VERTEX
8
CUT
10
-34.2371
20
-54.3132
0
VERTEX
8
CUT
10
-34.2371
20
-54.3140
0
VERTEX
8
CUT
10
-34.2371
20
-54.3163
0
VERTEX
8
CUT
10
-34.2370
20
-54.3170
0
VERTEX
8
CUT
10
-34.2370
20
-54.3193
0
VERTEX
8
CUT
10
-34.2370
20
-54.3201
0
VERTEX
8
CUT
10
-34.2370
20
-54.3224
0
VERTEX
8
CUT
10
-34.2369
20
-54.3231
0
VERTEX
8
CUT
10
-34.2273
20
-54.8456
0
VERTEX
8
CUT
10
-34.2273
20
-54.8463
0
VERTEX
8
CUT
10
-34.2273
20
-54.8487
0
VERTEX
8
CUT
10
-34.2273
20
-54.8495
0
VERTEX
8
CUT
10
-34.2272
20
-54.8519
0
VERTEX
8
CUT
10
-34.2272
20
-54.8527
0
VERTEX
8
CUT
10
-34.2271
20
-54.8550
0
VERTEX
8
CUT
10
-34.2271
20
-54.8558
0
VERTEX
8
CUT
10
-34.2154
20
-55.3797
0
VERTEX
8
CUT
10
-34.2154
20
-55.3805
0
VERTEX
8
CUT
10
-34.2153
20
-55.3829
0
VERTEX
8
CUT
10
-34.2153
20
-55.3838
0
VERTEX
8
CUT
10
-34.2153
20
-55.3862
0
VERTEX
8
CUT
10
-34.2152
20
-55.3870
0
VERTEX
8
CUT
10
-34.2152
20
-55.3895
0
VERTEX
8
CUT
10
-34.2152
20
-55.3903
0
VERTEX
8
CUT
10
-34.2010
20
-55.9236
0
VERTEX
8
CUT
10
-34.2010
20
-55.9238
0
VERTEX
8
CUT
10
-34.2010
20
-55.9244
0
VERTEX
8
CUT
10
-34.2010
20
-55.9245
0
VERTEX
8
CUT
10
-34.2010
20
-55.9250
0
VERTEX
8
CUT
10
-34.2010
20
-55.9252
0
VERTEX
8
CUT
10
-34.2010
20
-55.9256
0
VERTEX
8
CUT
10
-34.2010
20
-55.9258
0
VERTEX
8
CUT
10
-34.1859
20
-56.4790
0
VERTEX
8
CUT
10
-34.1859
20
-56.4790
0
VERTEX
8
CUT
10
-34.1858
20
-56.4802
0
VERTEX
8
CUT
10
-34.1858
20
-56.4802
0
VERTEX
8
CUT
10
-34.1858
20
-56.4814
0
VERTEX
8
CUT
10
-34.1858
20
-56.4814
0
VERTEX
8
CUT
10
-34.1858
20
-56.4825
0
VERTEX
8
CUT
10
-34.1858
20
-56.4826
0
VERTEX
8
CUT
10
-34.1856
20
-56.4911
0
VERTEX
8
CUT
10
-34.1855
20
-56.4923
0
VERTEX
8
CUT
10
-34.1855
20
-56.4923
0
VERTEX
8
CUT
10
-34.1855
20
-56.4935
0
VERTEX
8
CUT
10
-34.1855
20
-56.4935
0
VERTEX
8
CUT
10
-34.1855
20
-56.4945
0
VERTEX
8
CUT
10
-34.1855
20
-56.4947
0
VERTEX
8
CUT
10
-34.1706
20
-57.0737
0
VERTEX
8
CUT
10
-34.1706
20
-57.0737
0
VERTEX
8
CUT
10
-34.1706
20
-57.0738
0
VERTEX
8
CUT
10
-34.1706
20
-57.0741
0
VERTEX
8
CUT
10
-34.1706
20
-57.0743
0
VERTEX
8
CUT
10
-34.1706
20
-57.0743
0
VERTEX
8
CUT
10
-34.1706
20
-57.0744
0
VERTEX
8
CUT
10
-34.1706
20
-57.0747
0
VERTEX
8
CUT
10
-34.1705
20
-57.0772
0
VERTEX
8
CUT
10
-34.1705
20
-57.0776
0
VERTEX
8
CUT
10
-34.1705
20
-57.0776
0
VERTEX
8
CUT
10
-34.1705
20
-57.0779
0
VERTEX
8
CUT
10
-34.1705
20
-57.0782
0
VERTEX
8
CUT
10
-34.1705
20
-57.0783
0
VERTEX
8
CUT
10
-34.1705
20
-57.0783
0
VERTEX
8
CUT
10
-34.1553
20
-57.6820
0
VERTEX
8
CUT
10
-34.1553
20
-57.6821
0
VERTEX
8
CUT
10
-34.1553
20
-57.6824
0
VERTEX
8
CUT
10
-34.1552
20
-57.6825
0
VERTEX
8
CUT
10
-34.1552
20
-57.6831
0
VERTEX
8
CUT
10
-34.1552
20
-57.6832
0
VERTEX
8
CUT
10
-34.1552
20
-57.6834
0
VERTEX
8
CUT
10
-34.1552
20
-57.6835
0
VERTEX
8
CUT
10
-34.1393
20
-58.3011
0
VERTEX
8
CUT
10
-34.1393
20
-58.3015
0
VERTEX
8
CUT
10
-34.1393
20
-58.3024
0
VERTEX
8
CUT
10
-34.1393
20
-58.3027
0
VERTEX
8
CUT
10
-34.1393
20
-58.3036
0
VERTEX
8
CUT
10
-34.1392
20
-58.3039
0
VERTEX
8
CUT
10
-34.1392
20
-58.3048
0
VERTEX
8
CUT
10
-34.1392
20
-58.3051
0
VERTEX
8
CUT
10
-34.1222
20
-58.9294
0
VERTEX
8
CUT
10
-34.1222
20
-58.9299
0
VERTEX
8
CUT
10
-34.1221
20
-58.9314
0
VERTEX
8
CUT
10
-34.1221
20
-58.9319
0
VERTEX
8
CUT
10
-34.1221
20
-58.9333
0
VERTEX
8
CUT
10
-34.1221
20
-58.9338
0
VERTEX
8
CUT
10
-34.1220
20
-58.9353
0
VERTEX
8
CUT
10
-34.1220
20
-58.9358
0
VERTEX
8
CUT
10
-34.1034
20
-59.5623
0
VERTEX
8
CUT
10
-34.1033
20
-59.5630
0
VERTEX
8
CUT
10
-34.1033
20
-59.5651
0
VERTEX
8
CUT
10
-34.1033
20
-59.5657
0
VERTEX
8
CUT
10
-34.1032
20
-59.5678
0
VERTEX
8
CUT
10
-34.1032
20
-59.5685
0
VERTEX
8
CUT
10
-34.1031
20
-59.5705
0
VERTEX
8
CUT
10
-34.1031
20
-59.5712
0
VERTEX
8
CUT
10
-34.0824
20
-60.1953
0
VERTEX
8
CUT
10
-34.0824
20
-60.1962
0
VERTEX
8
CUT
10
-34.0823
20
-60.1988
0
VERTEX
8
CUT
10
-34.0822
20
-60.1997
0
VERTEX
8
CUT
10
-34.0821
20
-60.2024
0
VERTEX
8
CUT
10
-34.0821
20
-60.2032
0
VERTEX
8
CUT
10
-34.0820
20
-60.2059
0
VERTEX
8
CUT
10
-34.0820
20
-60.2068
0
VERTEX
8
CUT
10
-34.0588
20
-60.8236
0
VERTEX
8
CUT
10
-34.0587
20
-60.8247
0
VERTEX
8
CUT
10
-34.0586
20
-60.8280
0
VERTEX
8
CUT
10
-34.0586
20
-60.8291
0
VERTEX
8
CUT
10
-34.0584
20
-60.8324
0
VERTEX
8
CUT
10
-34.0584
20
-60.8335
0
VERTEX
8
CUT
10
-34.0583
20
-60.8369
0
VERTEX
8
CUT
10
-34.0582
20
-60.8380
0
VERTEX
8
CUT
10
-34.0321
20
-61.4422
0
VERTEX
8
CUT
10
-34.0321
20
-61.4436
0
VERTEX
8
CUT
10
-34.0319
20
-61.4477
0
VERTEX
8
CUT
10
-34.0318
20
-61.4490
0
VERTEX
8
CUT
10
-34.0316
20
-61.4531
0
VERTEX
8
CUT
10
-34.0316
20
-61.4545
0
VERTEX
8
CUT
10
-34.0314
20
-61.4586
0
VERTEX
8
CUT
10
-34.0313
20
-61.4599
0
VERTEX
8
CUT
10
-34.0020
20
-62.0463
0
VERTEX
8
CUT
10
-34.0019
20
-62.0479
0
VERTEX
8
CUT
10
-34.0016
20
-62.0529
0
VERTEX
8
CUT
10
-34.0015
20
-62.0546
0
VERTEX
8
CUT
10
-34.0013
20
-62.0595
0
VERTEX
8
CUT
10
-34.0012
20
-62.0612
0
VERTEX
8
CUT
10
-34.0009
20
-62.0662
0
VERTEX
8
CUT
10
-34.0008
20
-62.0678
0
VERTEX
8
CUT
10
-33.9680
20
-62.6304
0
VERTEX
8
CUT
10
-33.9679
20
-62.6324
0
VERTEX
8
CUT
10
-33.9675
20
-62.6385
0
VERTEX
8
CUT
10
-33.9674
20
-62.6405
0
VERTEX
8
CUT
10
-33.9670
20
-62.6465
0
VERTEX
8
CUT
10
-33.9669
20
-62.6485
0
VERTEX
8
CUT
10
-33.9665
20
-62.6545
0
VERTEX
8
CUT
10
-33.9663
20
-62.6566
0
VERTEX
8
CUT
10
-33.9299
20
-63.1891
0
VERTEX
8
CUT
10
-33.9297
20
-63.1915
0
VERTEX
8
CUT
10
-33.9292
20
-63.1989
0
VERTEX
8
CUT
10
-33.9290
20
-63.2013
0
VERTEX
8
CUT
10
-33.9285
20
-63.2086
0
VERTEX
8
CUT
10
-33.9283
20
-63.2111
0
VERTEX
8
CUT
10
-33.9277
20
-63.2184
0
VERTEX
8
CUT
10
-33.9275
20
-63.2209
0
VERTEX
8
CUT
10
-33.8875
20
-63.7162
0
VERTEX
8
CUT
10
-33.8873
20
-63.7192
0
VERTEX
8
CUT
10
-33.8865
20
-63.7282
0
VERTEX
8
CUT
10
-33.8862
20
-63.7312
0
VERTEX
8
CUT
10
-33.8855
20
-63.7401
0
VERTEX
8
CUT
10
-33.8852
20
-63.7431
0
VERTEX
8
CUT
10
-33.8844
20
-63.7521
0
VERTEX
8
CUT
10
-33.8841
20
-63.7551
0
VERTEX
8
CUT
10
-33.8409
20
-64.2051
0
VERTEX
8
CUT
10
-33.8406
20
-64.2088
0
VERTEX
8
CUT
10
-33.8394
20
-64.2199
0
VERTEX
8
CUT
10
-33.8391
20
-64.2236
0
VERTEX
8
CUT
10
-33.8379
20
-64.2347
0
VERTEX
8
CUT
10
-33.8375
20
-64.2384
0
VERTEX
8
CUT
10
-33.8363
20
-64.2495
0
VERTEX
8
CUT
10
-33.8359
20
-64.2532
0
VERTEX
8
CUT
10
-33.7906
20
-64.6479
0
VERTEX
8
CUT
10
-33.7900
20
-64.6526
0
VERTEX
8
CUT
10
-33.7883
20
-64.6665
0
VERTEX
8
CUT
10
-33.7878
20
-64.6712
0
VERTEX
8
CUT
10
-33.7860
20
-64.6851
0
VERTEX
8
CUT
10
-33.7854
20
-64.6897
0
VERTEX
8
CUT
10
-33.7836
20
-64.7037
0
VERTEX
8
CUT
10
-33.7829
20
-64.7083
0
VERTEX
8
CUT
10
-33.7314
20
-65.0803
0
VERTEX
8
CUT
10
-33.7310
20
-65.0830
0
VERTEX
8
CUT
10
-33.7299
20
-65.0909
0
VERTEX
8
CUT
10
-33.7295
20
-65.0935
0
VERTEX
8
CUT
10
-33.7284
20
-65.1014
0
VERTEX
8
CUT
10
-33.7280
20
-65.1040
0
VERTEX
8
CUT
10
-33.7268
20
-65.1119
0
VERTEX
8
CUT
10
-33.7264
20
-65.1145
0
VERTEX
8
CUT
10
-33.6655
20
-65.5150
0
VERTEX
8
CUT
10
-33.6655
20
-65.5152
0
VERTEX
8
CUT
10
-33.6654
20
-65.5158
0
VERTEX
8
CUT
10
-33.6654
20
-65.5160
0
VERTEX
8
CUT
10
-33.6653
20
-65.5166
0
VERTEX
8
CUT
10
-33.6653
20
-65.5168
0
VERTEX
8
CUT
10
-33.6652
20
-65.5174
0
VERTEX
8
CUT
10
-33.6651
20
-65.5176
0
VERTEX
8
CUT
10
-33.6039
20
-65.9178
0
VERTEX
8
CUT
10
-33.6037
20
-65.9189
0
VERTEX
8
CUT
10
-33.6032
20
-65.9219
0
VERTEX
8
CUT
10
-33.6031
20
-65.9229
0
VERTEX
8
CUT
10
-33.6026
20
-65.9259
0
VERTEX
8
CUT
10
-33.6025
20
-65.9269
0
VERTEX
8
CUT
10
-33.6020
20
-65.9299
0
VERTEX
8
CUT
10
-33.6018
20
-65.9309
0
VERTEX
8
CUT
10
-33.5455
20
-66.2866
0
VERTEX
8
CUT
10
-33.5452
20
-66.2885
0
VERTEX
8
CUT
10
-33.5443
20
-66.2943
0
VERTEX
8
CUT
10
-33.5440
20
-66.2963
0
VERTEX
8
CUT
10
-33.5430
20
-66.3021
0
VERTEX
8
CUT
10
-33.5427
20
-66.3040
0
VERTEX
8
CUT
10
-33.5417
20
-66.3098
0
VERTEX
8
CUT
10
-33.5414
20
-66.3118
0
VERTEX
8
CUT
10
-33.4894
20
-66.6203
0
VERTEX
8
CUT
10
-33.4889
20
-66.6233
0
VERTEX
8
CUT
10
-33.4874
20
-66.6323
0
VERTEX
8
CUT
10
-33.4869
20
-66.6353
0
VERTEX
8
CUT
10
-33.4853
20
-66.6443
0
VERTEX
8
CUT
10
-33.4847
20
-66.6473
0
VERTEX
8
CUT
10
-33.4831
20
-66.6563
0
VERTEX
8
CUT
10
-33.4826
20
-66.6593
0
VERTEX
8
CUT
10
-33.4349
20
-66.9183
0
VERTEX
8
CUT
10
-33.4341
20
-66.9225
0
VERTEX
8
CUT
10
-33.4317
20
-66.9350
0
VERTEX
8
CUT
10
-33.4309
20
-66.9392
0
VERTEX
8
CUT
10
-33.4285
20
-66.9517
0
VERTEX
8
CUT
10
-33.4277
20
-66.9559
0
VERTEX
8
CUT
10
-33.4251
20
-66.9685
0
VERTEX
8
CUT
10
-33.4243
20
-66.9726
0
VERTEX
8
CUT
10
-33.3816
20
-67.1797
0
VERTEX
8
CUT
10
-33.3804
20
-67.1852
0
VERTEX
8
CUT
10
-33.3769
20
-67.2017
0
VERTEX
8
CUT
10
-33.3757
20
-67.2072
0
VERTEX
8
CUT
10
-33.3721
20
-67.2236
0
VERTEX
8
CUT
10
-33.3709
20
-67.2291
0
VERTEX
8
CUT
10
-33.3671
20
-67.2455
0
VERTEX
8
CUT
10
-33.3659
20
-67.2510
0
VERTEX
8
CUT
10
-33.3297
20
-67.4044
0
VERTEX
8
CUT
10
-33.3281
20
-67.4113
0
VERTEX
8
CUT
10
-33.3230
20
-67.4319
0
VERTEX
8
CUT
10
-33.3213
20
-67.4388
0
VERTEX
8
CUT
10
-33.3160
20
-67.4594
0
VERTEX
8
CUT
10
-33.3142
20
-67.4663
0
VERTEX
8
CUT
10
-33.3088
20
-67.4869
0
VERTEX
8
CUT
10
-33.3070
20
-67.4937
0
VERTEX
8
CUT
10
-33.2799
20
-67.5926
0
VERTEX
8
CUT
10
-33.2776
20
-67.6009
0
VERTEX
8
CUT
10
-33.2705
20
-67.6259
0
VERTEX
8
CUT
10
-33.2681
20
-67.6342
0
VERTEX
8
CUT
10
-33.2607
20
-67.6591
0
VERTEX
8
CUT
10
-33.2582
20
-67.6674
0
VERTEX
8
CUT
10
-33.2505
20
-67.6922
0
VERTEX
8
CUT
10
-33.2479
20
-67.7004
0
VERTEX
8
CUT
10
-33.2334
20
-67.7458
0
VERTEX
8
CUT
10
-33.2302
20
-67.7555
0
VERTEX
8
CUT
10
-33.2204
20
-67.7847
0
VERTEX
8
CUT
10
-33.2171
20
-67.7944
0
VERTEX
8
CUT
10
-33.2070
20
-67.8234
0
VERTEX
8
CUT
10
-33.2036
20
-67.8331
0
VERTEX
8
CUT
10
-33.1939
20
-67.8595
0
VERTEX
8
CUT
10
-33.1861
20
-67.8802
0
VERTEX
8
CUT
10
-33.1739
20
-67.9110
0
VERTEX
8
CUT
10
-33.1695
20
-67.9219
0
VERTEX
8
CUT
10
-33.1561
20
-67.9546
0
VERTEX
8
CUT
10
-33.1515
20
-67.9655
0
VERTEX
8
CUT
10
-33.1484
20
-67.9727
0
VERTEX
8
CUT
10
-33.1382
20
-67.9955
0
VERTEX
8
CUT
10
-33.1341
20
-68.0042
0
VERTEX
8
CUT
10
-33.1159
20
-68.0406
0
VERTEX
8
CUT
10
-33.0933
20
-68.0832
0
VERTEX
8
CUT
10
-33.0649
20
-68.1325
0
VERTEX
8
CUT
10
-33.0551
20
-68.1482
0
VERTEX
8
CUT
10
-33.0215
20
-68.1976
0
VERTEX
8
CUT
10
-33.0146
20
-68.2071
0
VERTEX
8
CUT
10
-32.9767
20
-68.2547
0
VERTEX
8
CUT
10
-32.9478
20
-68.2884
0
VERTEX
8
CUT
10
-32.9171
20
-68.3221
0
VERTEX
8
CUT
10
-32.9095
20
-68.3299
0
VERTEX
8
CUT
10
-32.8838
20
-68.3555
0
VERTEX
8
CUT
10
-32.8608
20
-68.3772
0
VERTEX
8
CUT
10
-32.8531
20
-68.3845
0
VERTEX
8
CUT
10
-32.8298
20
-68.4060
0
VERTEX
8
CUT
10
-32.8220
20
-68.4131
0
VERTEX
8
CUT
10
-32.7882
20
-68.4434
0
VERTEX
8
CUT
10
-32.7825
20
-68.4486
0
VERTEX
8
CUT
10
-32.7651
20
-68.4639
0
VERTEX
8
CUT
10
-32.7593
20
-68.4690
0
VERTEX
8
CUT
10
-32.7418
20
-68.4841
0
VERTEX
8
CUT
10
-32.7359
20
-68.4891
0
VERTEX
8
CUT
10
-32.7183
20
-68.5041
0
VERTEX
8
CUT
10
-32.7123
20
-68.5091
0
VERTEX
8
CUT
10
-32.6741
20
-68.5409
0
VERTEX
8
CUT
10
-32.6667
20
-68.5469
0
VERTEX
8
CUT
10
-32.6446
20
-68.5648
0
VERTEX
8
CUT
10
-32.6373
20
-68.5708
0
VERTEX
8
CUT
10
-32.6150
20
-68.5884
0
VERTEX
8
CUT
10
-32.6075
20
-68.5942
0
VERTEX
8
CUT
10
-32.5857
20
-68.6111
0
VERTEX
8
CUT
10
-32.5693
20
-68.6234
0
VERTEX
8
CUT
10
-32.5433
20
-68.6425
0
VERTEX
8
CUT
10
-32.5344
20
-68.6490
0
VERTEX
8
CUT
10
-32.5075
20
-68.6681
0
VERTEX
8
CUT
10
-32.4984
20
-68.6744
0
VERTEX
8
CUT
10
-32.4890
20
-68.6810
0
VERTEX
8
CUT
10
-32.4698
20
-68.6939
0
VERTEX
8
CUT
10
-32.4555
20
-68.7031
0
VERTEX
8
CUT
10
-32.4453
20
-68.7097
0
VERTEX
8
CUT
10
-32.4425
20
-68.7114
0
VERTEX
8
CUT
10
-32.4211
20
-68.7244
0
VERTEX
8
CUT
10
-32.3686
20
-68.7551
0
VERTEX
8
CUT
10
-32.3240
20
-68.7793
0
VERTEX
8
CUT
10
-32.2674
20
-68.8078
0
VERTEX
8
CUT
10
-32.2442
20
-68.8190
0
VERTEX
8
CUT
10
-32.2405
20
-68.8207
0
VERTEX
8
CUT
10
-32.2288
20
-68.8260
0
VERTEX
8
CUT
10
-32.2180
20
-68.8308
0
VERTEX
8
CUT
10
-32.1947
20
-68.8407
0
VERTEX
8
CUT
10
-32.1859
20
-68.8443
0
VERTEX
8
CUT
10
-32.1744
20
-68.8489
0
VERTEX
8
CUT
10
-32.1396
20
-68.8624
0
VERTEX
8
CUT
10
-32.1279
20
-68.8668
0
VERTEX
8
CUT
10
-32.1034
20
-68.8759
0
VERTEX
8
CUT
10
-32.0807
20
-68.8839
0
VERTEX
8
CUT
10
-32.0591
20
-68.8912
0
VERTEX
8
CUT
10
-32.0481
20
-68.8948
0
VERTEX
8
CUT
10
-32.0151
20
-68.9054
0
VERTEX
8
CUT
10
-32.0040
20
-68.9089
0
VERTEX
8
CUT
10
-31.9707
20
-68.9190
0
VERTEX
8
CUT
10
-31.9596
20
-68.9223
0
VERTEX
8
CUT
10
-31.9382
20
-68.9285
0
VERTEX
8
CUT
10
-31.9281
20
-68.9314
0
VERTEX
8
CUT
10
-31.8979
20
-68.9397
0
VERTEX
8
CUT
10
-31.8878
20
-68.9424
0
VERTEX
8
CUT
10
-31.8575
20
-68.9503
0
VERTEX
8
CUT
10
-31.8473
20
-68.9529
0
VERTEX
8
CUT
10
-31.8169
20
-68.9604
0
VERTEX
8
CUT
10
-31.8067
20
-68.9628
0
VERTEX
8
CUT
10
-31.7312
20
-68.9804
0
VERTEX
8
CUT
10
-31.7223
20
-68.9825
0
VERTEX
8
CUT
10
-31.6954
20
-68.9884
0
VERTEX
8
CUT
10
-31.6864
20
-68.9904
0
VERTEX
8
CUT
10
-31.6594
20
-68.9960
0
VERTEX
8
CUT
10
-31.6504
20
-68.9978
0
VERTEX
8
CUT
10
-31.6234
20
-69.0032
0
VERTEX
8
CUT
10
-31.6143
20
-69.0049
0
VERTEX
8
CUT
10
-31.4778
20
-69.0302
0
VERTEX
8
CUT
10
-31.4700
20
-69.0316
0
VERTEX
8
CUT
10
-31.4466
20
-69.0357
0
VERTEX
8
CUT
10
-31.4388
20
-69.0370
0
VERTEX
8
CUT
10
-31.4154
20
-69.0408
0
VERTEX
8
CUT
10
-31.4076
20
-69.0421
0
VERTEX
8
CUT
10
-31.3841
20
-69.0457
0
VERTEX
8
CUT
10
-31.3763
20
-69.0469
0
VERTEX
8
CUT
10
-31.1748
20
-69.0760
0
VERTEX
8
CUT
10
-31.1682
20
-69.0770
0
VERTEX
8
CUT
10
-31.1483
20
-69.0797
0
VERTEX
8
CUT
10
-31.1416
20
-69.0805
0
VERTEX
8
CUT
10
-31.1217
20
-69.0831
0
VERTEX
8
CUT
10
-31.1150
20
-69.0839
0
VERTEX
8
CUT
10
-31.0951
20
-69.0863
0
VERTEX
8
CUT
10
-31.0884
20
-69.0870
0
VERTEX
8
CUT
10
-30.8202
20
-69.1167
0
VERTEX
8
CUT
10
-30.8146
20
-69.1173
0
VERTEX
8
CUT
10
-30.7979
20
-69.1190
0
VERTEX
8
CUT
10
-30.7923
20
-69.1196
0
VERTEX
8
CUT
10
-30.7756
20
-69.1212
0
VERTEX
8
CUT
10
-30.7701
20
-69.1217
0
VERTEX
8
CUT
10
-30.7533
20
-69.1232
0
VERTEX
8
CUT
10
-30.7478
20
-69.1237
0
VERTEX
8
CUT
10
-30.4122
20
-69.1513
0
VERTEX
8
CUT
10
-30.4075
20
-69.1516
0
VERTEX
8
CUT
10
-30.3937
20
-69.1527
0
VERTEX
8
CUT
10
-30.3891
20
-69.1530
0
VERTEX
8
CUT
10
-30.3753
20
-69.1540
0
VERTEX
8
CUT
10
-30.3706
20
-69.1543
0
VERTEX
8
CUT
10
-30.3568
20
-69.1552
0
VERTEX
8
CUT
10
-30.3522
20
-69.1555
0
VERTEX
8
CUT
10
-29.9491
20
-69.1793
0
VERTEX
8
CUT
10
-29.9453
20
-69.1795
0
VERTEX
8
CUT
10
-29.9340
20
-69.1801
0
VERTEX
8
CUT
10
-29.9302
20
-69.1803
0
VERTEX
8
CUT
10
-29.9189
20
-69.1809
0
VERTEX
8
CUT
10
-29.9151
20
-69.1811
0
VERTEX
8
CUT
10
-29.9037
20
-69.1816
0
VERTEX
8
CUT
10
-29.9000
20
-69.1817
0
VERTEX
8
CUT
10
-29.4959
20
-69.1979
0
VERTEX
8
CUT
10
-29.4879
20
-69.1982
0
VERTEX
8
CUT
10
-29.4639
20
-69.1989
0
VERTEX
8
CUT
10
-29.4559
20
-69.1991
0
VERTEX
8
CUT
10
-29.4320
20
-69.1996
0
VERTEX
8
CUT
10
-29.4240
20
-69.1997
0
VERTEX
8
CUT
10
-29.3999
20
-69.2000
0
VERTEX
8
CUT
10
-29.3919
20
-69.2000
0
VERTEX
8
CUT
10
-28.5218
20
-69.2000
0
SEQEND
0
POLYLINE
8
CUT
66
1
70
1
0
VERTEX
8
CUT
10
17.9869
20
-50.2996
0
VERTEX
8
CUT
10
17.4506
20
-50.2820
0
VERTEX
8
CUT
10
17.4245
20
-50.2803
0
VERTEX
8
CUT
10
16.8905
20
-50.2277
0
VERTEX
8
CUT
10
16.8646
20
-50.2243
0
VERTEX
8
CUT
10
16.3351
20
-50.1369
0
VERTEX
8
CUT
10
16.3095
20
-50.1318
0
VERTEX
8
CUT
10
15.7869
20
-50.0099
0
VERTEX
8
CUT
10
15.7616
20
-50.0032
0
VERTEX
8
CUT
10
15.2481
20
-49.8474
0
VERTEX
8
CUT
10
15.2234
20
-49.8390
0
VERTEX
8
CUT
10
14.7212
20
-49.6500
0
VERTEX
8
CUT
10
14.6970
20
-49.6400
0
VERTEX
8
CUT
10
14.2082
20
-49.4185
0
VERTEX
8
CUT
10
14.1848
20
-49.4069
0
VERTEX
8
CUT
10
13.7115
20
-49.1540
0
VERTEX
8
CUT
10
13.6889
20
-49.1409
0
VERTEX
8
CUT
10
13.2332
20
-48.8576
0
VERTEX
8
CUT
10
13.2115
20
-48.8430
0
VERTEX
8
CUT
10
12.7753
20
-48.5305
0
VERTEX
8
CUT
10
12.7545
20
-48.5145
0
VERTEX
8
CUT
10
12.3397
20
-48.1741
0
VERTEX
8
CUT
10
12.3201
20
-48.1569
0
VERTEX
8
CUT
10
11.9284
20
-47.7901
0
VERTEX
8
CUT
10
11.9099
20
-47.7716
0
VERTEX
8
CUT
10
11.5431
20
-47.3799
0
VERTEX
8
CUT
10
11.5259
20
-47.3603
0
VERTEX
8
CUT
10
11.1855
20
-46.9455
0
VERTEX
8
CUT
10
11.1695
20
-46.9247
0
VERTEX
8
CUT
10
10.8570
20
-46.4885
0
VERTEX
8
CUT
10
10.8424
20
-46.4668
0
VERTEX
8
CUT
10
10.5591
20
-46.0111
0
VERTEX
8
CUT
10
10.5460
20
-45.9885
0
VERTEX
8
CUT
10
10.2931
20
-45.5152
0
VERTEX
8
CUT
10
10.2815
20
-45.4918
0
VERTEX
8
CUT
10
10.0600
20
-45.0030
0
VERTEX
8
CUT
10
10.0500
20
-44.9788
0
VERTEX
8
CUT
10
9.8610
20
-44.4766
0
VERTEX
8
CUT
10
9.8526
20
-44.4519
0
VERTEX
8
CUT
10
9.6968
20
-43.9384
0
VERTEX
8
CUT
10
9.6901
20
-43.9131
0
VERTEX
8
CUT
10
9.5682
20
-43.3905
0
VERTEX
8
CUT
10
9.5631
20
-43.3649
0
VERTEX
8
CUT
10
9.4757
20
-42.8354
0
VERTEX
8
CUT
10
9.4723
20
-42.8095
0
VERTEX
8
CUT
10
9.4197
20
-42.2755
0
VERTEX
8
CUT
10
9.4180
20
-42.2494
0
VERTEX
8
CUT
10
9.4004
20
-41.7131
0
VERTEX
8
CUT
10
9.4004
20
-41.6869
0
VERTEX
8
CUT
10
9.4180
20
-41.1506
0
VERTEX
8
CUT
10
9.4197
20
-41.1245
0
VERTEX
8
CUT
10
9.4723
20
-40.5905
0
VERTEX
8
CUT
10
9.4757
20
-40.5646
0
VERTEX
8
CUT
10
9.5631
20
-40.0351
0
VERTEX
8
CUT
10
9.5682
20
-40.0095
0
VERTEX
8
CUT
10
9.6901
20
-39.4869
0
VERTEX
8
CUT
10
9.6968
20
-39.4616
0
VERTEX
8
CUT
10
9.8526
20
-38.9481
0
VERTEX
8
CUT
10
9.8610
20
-38.9234
0
VERTEX
8
CUT
10
10.0500
20
-38.4212
0
VERTEX
8
CUT
10
10.0600
20
-38.3970
0
VERTEX
8
CUT
10
10.2815
20
-37.9082
0
VERTEX
8
CUT
10
10.2931
20
-37.8848
0
VERTEX
8
CUT
10
10.5460
20
-37.4115
0
VERTEX
8
CUT
10
10.5591
20
-37.3889
0
VERTEX
8
CUT
10
10.8424
20
-36.9332
0
VERTEX
8
CUT
10
10.8570
20
-36.9115
0
VERTEX
8
CUT
10
11.1695
20
-36.4753
0
VERTEX
8
CUT
10
11.1855
20
-36.4545
0
VERTEX
8
CUT
10
11.5259
20
-36.0397
0
VERTEX
8
CUT
10
11.5431
20
-36.0201
0
VERTEX
8
CUT
10
11.9099
20
-35.6284
0
VERTEX
8
CUT
10
11.9284
20
-35.6099
0
VERTEX
8
CUT
10
12.3201
20
-35.2431
0
VERTEX
8
CUT
10
12.3397
20
-35.2259
0
VERTEX
8
CUT
10
12.7545
20
-34.8855
0
VERTEX
8
CUT
10
12.7753
20
-34.8695
0
VERTEX
8
CUT
10
13.2115
20
-34.5570
0
VERTEX
8
CUT
10
13.2332
20
-34.5424
0
VERTEX
8
CUT
10
13.6889
20
-34.2591
0
VERTEX
8
CUT
10
13.7115
20
-34.2460
0
VERTEX
8
CUT
10
14.1848
20
-33.9931
0
VERTEX
8
CUT
10
14.2082
20
-33.9815
0
VERTEX
8
CUT
10
14.6970
20
-33.7600
0
VERTEX
8
CUT
10
14.7212
20
-33.7500
0
VERTEX
8
CUT
10
15.2234
20
-33.5610
0
VERTEX
8
CUT
10
15.2481
20
-33.5526
0
VERTEX
8
CUT
10
15.7616
20
-33.3968
0
VERTEX
8
CUT
10
15.7869
20
-33.3901
0
VERTEX
8
CUT
10
16.3095
20
-33.2682
0
VERTEX
8
CUT
10
16.3351
20
-33.2631
0
VERTEX
8
CUT
10
16.8646
20
-33.1757
0
VERTEX
8
CUT
10
16.8905
20
-33.1723
0
VERTEX
8
CUT
10
17.4245
20
-33.1197
0
VERTEX
8
CUT
10
17.4506
20
-33.1180
0
VERTEX
8
CUT
10
17.9869
20
-33.1004
0
VERTEX
8
CUT
10
18.0131
20
-33.1004
0
VERTEX
8
CUT
10
18.5494
20
-33.1180
0
VERTEX
8
CUT
10
18.5755
20
-33.1197
0
VERTEX
8
CUT
10
19.1095
20
-33.1723
0
VERTEX
8
CUT
10
19.1354
20
-33.1757
0
VERTEX
8
CUT
10
19.6649
20
-33.2631
0
VERTEX
8
CUT
10
19.6905
20
-33.2682
0
VERTEX
8
CUT
10
20.2131
20
-33.3901
0
VERTEX
8
CUT
10
20.2384
20
-33.3968
0
VERTEX
8
CUT
10
20.7519
20
-33.5526
0
VERTEX
8
CUT
10
20.7766
20
-33.5610
0
VERTEX
8
CUT
10
21.2788
20
-33.7500
0
VERTEX
8
CUT
10
21.3030
20
-33.7600
0
VERTEX
8
CUT
10
21.7918
20
-33.9815
0
VERTEX
8
CUT
10
21.8152
20
-33.9931
0
VERTEX
8
CUT
10
22.2885
20
-34.2460
0
VERTEX
8
CUT
10
22.3111
20
-34.2591
0
VERTEX
8
CUT
10
22.7668
20
-34.5424
0
VERTEX
8
CUT
10
22.7885
20
-34.5570
0
VERTEX
8
CUT
10
23.2247
20
-34.8695
0
VERTEX
8
CUT
10
23.2455
20
-34.8855
0
VERTEX
8
CUT
10
23.6603
20
-35.2259
0
VERTEX
8
CUT
10
23.6799
20
-35.2431
0
VERTEX
8
CUT
10
24.0716
20
-35.6099
0
VERTEX
8
CUT
10
24.0901
20
-35.6284
0
VERTEX
8
CUT
10
24.4569
20
-36.0201
0
VERTEX
8
CUT
10
24.4741
20
-36.0397
0
VERTEX
8
CUT
10
24.8145
20
-36.4545
0
VERTEX
8
CUT
10
24.8305
20
-36.4753
0
VERTEX
8
CUT
10
25.1430
20
-36.9115
0
VERTEX
8
CUT
10
25.1576
20
-36.9332
0
VERTEX
8
CUT
10
25.4409
20
-37.3889
0
VERTEX
8
CUT
10
25.4540
20
-37.4115
0
VERTEX
8
CUT
10
25.7069
20
-37.8848
0
VERTEX
8
CUT
10
25.7185
20
-37.9082
0
VERTEX
8
CUT
10
25.9400
20
-38.3970
0
VERTEX
8
CUT
10
25.9500
20
-38.4212
0
VERTEX
8
CUT
10
26.1390
20
-38.9234
0
VERTEX
8
CUT
10
26.1474
20
-38.9481
0
VERTEX
8
CUT
10
26.3032
20
-39.4616
0
VERTEX
8
CUT
10
26.3099
20
-39.4869
0
VERTEX
8
CUT
10
26.4318
20
-40.0095
0
VERTEX
8
CUT
10
26.4369
20
-40.0351
0
VERTEX
8
CUT
10
26.5243
20
-40.5646
0
VERTEX
8
CUT
10
26.5277
20
-40.5905
0
VERTEX
8
CUT
10
26.5803
20
-41.1245
0
VERTEX
8
CUT
10
26.5820
20
-41.1506
0
VERTEX
8
CUT
10
26.5996
20
-41.6869
0
VERTEX
8
CUT
10
26.5996
20
-41.7131
0
VERTEX
8
CUT
10
26.5820
20
-42.2494
0
VERTEX
8
CUT
10
26.5803
20
-42.2755
0
VERTEX
8
CUT
10
26.5277
20
-42.8095
0
VERTEX
8
CUT
10
26.5243
20
-42.8354
0
VERTEX
8
CUT
10
26.4369
20
-43.3649
0
VERTEX
8
CUT
10
26.4318
20
-43.3905
0
VERTEX
8
CUT
10
26.3099
20
-43.9131
0
VERTEX
8
CUT
10
26.3032
20
-43.9384
0
VERTEX
8
CUT
10
26.1474
20
-44.4519
0
VERTEX
8
CUT
10
26.1390
20
-44.4766
0
VERTEX
8
CUT
10
25.9500
20
-44.9788
0
VERTEX
8
CUT
10
25.9400
20
-45.0030
0
VERTEX
8
CUT
10
25.7185
20
-45.4918
0
VERTEX
8
CUT
10
25.7069
20
-45.5152
0
VERTEX
8
CUT
10
25.4540
20
-45.9885
0
VERTEX
8
CUT
10
25.4409
20
-46.0111
0
VERTEX
8
CUT
10
25.1576
20
-46.4668
0
VERTEX
8
CUT
10
25.1430
20
-46.4885
0
VERTEX
8
CUT
10
24.8305
20
-46.9247
0
VERTEX
8
CUT
10
24.8145
20
-46.9455
0
VERTEX
8
CUT
10
24.4741
20
-47.3603
0
VERTEX
8
CUT
10
24.4569
20
-47.3799
0
VERTEX
8
CUT
10
24.0901
20
-47.7716
0
VERTEX
8
CUT
10
24.0716
20
-47.7901
0
VERTEX
8
CUT
10
23.6799
20
-48.1569
0
VERTEX
8
CUT
10
23.6603
20
-48.1741
0
VERTEX
8
CUT
10
23.2455
20
-48.5145
0
VERTEX
8
CUT
10
23.2247
20
-48.5305
0
VERTEX
8
CUT
10
22.7885
20
-48.8430
0
VERTEX
8
CUT
10
22.7668
20
-48.8576
0
VERTEX
8
CUT
10
22.3111
20
-49.1409
0
VERTEX
8
CUT
10
22.2885
20
-49.1540
0
VERTEX
8
CUT
10
21.8152
20
-49.4069
0
VERTEX
8
CUT
10
21.7918
20
-49.4185
0
VERTEX
8
CUT
10
21.3030
20
-49.6400
0
VERTEX
8
CUT
10
21.2788
20
-49.6500
0
VERTEX
8
CUT
10
20.7766
20
-49.8390
0
VERTEX
8
CUT
10
20.7519
20
-49.8474
0
VERTEX
8
CUT
10
20.2384
20
-50.0032
0
VERTEX
8
CUT
10
20.2131
20
-50.0099
0
VERTEX
8
CUT
10
19.6905
20
-50.1318
0
VERTEX
8
CUT
10
19.6649
20
-50.1369
0
VERTEX
8
CUT
10
19.1354
20
-50.2243
0
VERTEX
8
CUT
10
19.1095
20
-50.2277
0
VERTEX
8
CUT
10
18.5755
20
-50.2803
0
VERTEX
8
CUT
10
18.5494
20
-50.2820
0
VERTEX
8
CUT
10
18.0131
20
-50.2996
0
SEQEND
0
POLYLINE
8
CUT
66
1
70
1
0
VERTEX
8
CUT
10
-18.0131
20
-50.2996
0
VERTEX
8
CUT
10
-18.5494
20
-50.2820
0
VERTEX
8
CUT
10
-18.5755
20
-50.2803
0
VERTEX
8
CUT
10
-19.1095
20
-50.2277
0
VERTEX
8
CUT
10
-19.1354
20
-50.2243
0
VERTEX
8
CUT
10
-19.6649
20
-50.1369
0
VERTEX
8
CUT
10
-19.6905
20
-50.1318
0
VERTEX
8
CUT
10
-20.2131
20
-50.0099
0
VERTEX
8
CUT
10
-20.2384
20
-50.0032
0
VERTEX
8
CUT
10
-20.7519
20
-49.8474
0
VERTEX
8
CUT
10
-20.7766
20
-49.8390
0
VERTEX
8
CUT
10
-21.2788
20
-49.6500
0
VERTEX
8
CUT
10
-21.3030
20
-49.6400
0
VERTEX
8
CUT
10
-21.7918
20
-49.4185
0
VERTEX
8
CUT
10
-21.8152
20
-49.4069
0
VERTEX
8
CUT
10
-22.2885
20
-49.1540
0
VERTEX
8
CUT
10
-22.3111
20
-49.1409
0
VERTEX
8
CUT
10
-22.7668
20
-48.8576
0
VERTEX
8
CUT
10
-22.7885
20
-48.8430
0
VERTEX
8
CUT
10
-23.2247
20
-48.5305
0
VERTEX
8
CUT
10
-23.2455
20
-48.5145
0
VERTEX
8
CUT
10
-23.6603
20
-48.1741
0
VERTEX
8
CUT
10
-23.6799
20
-48.1569
0
VERTEX
8
CUT
10
-24.0716
20
-47.7901
0
VERTEX
8
CUT
10
-24.0901
20
-47.7716
0
VERTEX
8
CUT
10
-24.4569
20
-47.3799
0
VERTEX
8
CUT
10
-24.4741
20
-47.3603
0
VERTEX
8
CUT
10
-24.8145
20
-46.9455
0
VERTEX
8
CUT
10
-24.8305
20
-46.9247
0
VERTEX
8
CUT
10
-25.1430
20
-46.4885
0
VERTEX
8
CUT
10
-25.1576
20
-46.4668
0
VERTEX
8
CUT
10
-25.4409
20
-46.0111
0
VERTEX
8
CUT
10
-25.4540
20
-45.9885
0
VERTEX
8
CUT
10
-25.7069
20
-45.5152
0
VERTEX
8
CUT
10
-25.7185
20
-45.4918
0
VERTEX
8
CUT
10
-25.9400
20
-45.0030
0
VERTEX
8
CUT
10
-25.9500
20
-44.9788
0
VERTEX
8
CUT
10
-26.1390
20
-44.4766
0
VERTEX
8
CUT
10
-26.1474
20
-44.4519
0
VERTEX
8
CUT
10
-26.3032
20
-43.9384
0
VERTEX
8
CUT
10
-26.3099
20
-43.9131
0
VERTEX
8
CUT
10
-26.4318
20
-43.3905
0
VERTEX
8
CUT
10
-26.4369
20
-43.3649
0
VERTEX
8
CUT
10
-26.5243
20
-42.8354
0
VERTEX
8
CUT
10
-26.5277
20
-42.8095
0
VERTEX
8
CUT
10
-26.5803
20
-42.2755
0
VERTEX
8
CUT
10
-26.5820
20
-42.2494
0
VERTEX
8
CUT
10
-26.5996
20
-41.7131
0
VERTEX
8
CUT
10
-26.5996
20
-41.6869
0
VERTEX
8
CUT
10
-26.5820
20
-41.1506
0
VERTEX
8
CUT
10
-26.5803
20
-41.1245
0
VERTEX
8
CUT
10
-26.5277
20
-40.5905
0
VERTEX
8
CUT
10
-26.5243
20
-40.5646
0
VERTEX
8
CUT
10
-26.4369
20
-40.0351
0
VERTEX
8
CUT
10
-26.4318
20
-40.0095
0
VERTEX
8
CUT
10
-26.3099
20
-39.4869
0
VERTEX
8
CUT
10
-26.3032
20
-39.4616
0
VERTEX
8
CUT
10
-26.1474
20
-38.9481
0
VERTEX
8
CUT
10
-26.1390
20
-38.9234
0
VERTEX
8
CUT
10
-25.9500
20
-38.4212
0
VERTEX
8
CUT
10
-25.9400
20
-38.3970
0
VERTEX
8
CUT
10
-25.7185
20
-37.9082
0
VERTEX
8
CUT
10
-25.7069
20
-37.8848
0
VERTEX
8
CUT
10
-25.4540
20
-37.4115
0
VERTEX
8
CUT
10
-25.4409
20
-37.3889
0
VERTEX
8
CUT
10
-25.1576
20
-36.9332
0
VERTEX
8
CUT
10
-25.1430
20
-36.9115
0
VERTEX
8
CUT
10
-24.8305
20
-36.4753
0
VERTEX
8
CUT
10
-24.8145
20
-36.4545
0
VERTEX
8
CUT
10
-24.4741
20
-36.0397
0
VERTEX
8
CUT
10
-24.4569
20
-36.0201
0
VERTEX
8
CUT
10
-24.0901
20
-35.6284
0
VERTEX
8
CUT
10
-24.0716
20
-35.6099
0
VERTEX
8
CUT
10
-23.6799
20
-35.2431
0
VERTEX
8
CUT
10
-23.6603
20
-35.2259
0
VERTEX
8
CUT
10
-23.2455
20
-34.8855
0
VERTEX
8
CUT
10
-23.2247
20
-34.8695
0
VERTEX
8
CUT
10
-22.7885
20
-34.5570
0
VERTEX
8
CUT
10
-22.7668
20
-34.5424
0
VERTEX
8
CUT
10
-22.3111
20
-34.2591
0
VERTEX
8
CUT
10
-22.2885
20
-34.2460
0
VERTEX
8
CUT
10
-21.8152
20
-33.9931
0
VERTEX
8
CUT
10
-21.7918
20
-33.9815
0
VERTEX
8
CUT
10
-21.3030
20
-33.7600
0
VERTEX
8
CUT
10
-21.2788
20
-33.7500
0
VERTEX
8
CUT
10
-20.7766
20
-33.5610
0
VERTEX
8
CUT
10
-20.7519
20
-33.5526
0
VERTEX
8
CUT
10
-20.2384
20
-33.3968
0
VERTEX
8
CUT
10
-20.2131
20
-33.3901
0
VERTEX
8
CUT
10
-19.6905
20
-33.2682
0
VERTEX
8
CUT
10
-19.6649
20
-33.2631
0
VERTEX
8
CUT
10
-19.1354
20
-33.1757
0
VERTEX
8
CUT
10
-19.1095
20
-33.1723
0
VERTEX
8
CUT
10
-18.5755
20
-33.1197
0
VERTEX
8
CUT
10
-18.5494
20
-33.1180
0
VERTEX
8
CUT
10
-18.0131
20
-33.1004
0
VERTEX
8
CUT
10
-17.9869
20
-33.1004
0
VERTEX
8
CUT
10
-17.4506
20
-33.1180
0
VERTEX
8
CUT
10
-17.4245
20
-33.1197
0
VERTEX
8
CUT
10
-16.8905
20
-33.1723
0
VERTEX
8
CUT
10
-16.8646
20
-33.1757
0
VERTEX
8
CUT
10
-16.3351
20
-33.2631
0
VERTEX
8
CUT
10
-16.3095
20
-33.2682
0
VERTEX
8
CUT
10
-15.7869
20
-33.3901
0
VERTEX
8
CUT
10
-15.7616
20
-33.3968
0
VERTEX
8
CUT
10
-15.2481
20
-33.5526
0
VERTEX
8
CUT
10
-15.2234
20
-33.5610
0
VERTEX
8
CUT
10
-14.7212
20
-33.7500
0
VERTEX
8
CUT
10
-14.6970
20
-33.7600
0
VERTEX
8
CUT
10
-14.2082
20
-33.9815
0
VERTEX
8
CUT
10
-14.1848
20
-33.9931
0
VERTEX
8
CUT
10
-13.7115
20
-34.2460
0
VERTEX
8
CUT
10
-13.6889
20
-34.2591
0
VERTEX
8
CUT
10
-13.2332
20
-34.5424
0
VERTEX
8
CUT
10
-13.2115
20
-34.5570
0
VERTEX
8
CUT
10
-12.7753
20
-34.8695
0
VERTEX
8
CUT
10
-12.7545
20
-34.8855
0
VERTEX
8
CUT
10
-12.3397
20
-35.2259
0
VERTEX
8
CUT
10
-12.3201
20
-35.2431
0
VERTEX
8
CUT
10
-11.9284
20
-35.6099
0
VERTEX
8
CUT
10
-11.9099
20
-35.6284
0
VERTEX
8
CUT
10
-11.5431
20
-36.0201
0
VERTEX
8
CUT
10
-11.5259
20
-36.0397
0
VERTEX
8
CUT
10
-11.1855
20
-36.4545
0
VERTEX
8
CUT
10
-11.1695
20
-36.4753
0
VERTEX
8
CUT
10
-10.8570
20
-36.9115
0
VERTEX
8
CUT
10
-10.8424
20
-36.9332
0
VERTEX
8
CUT
10
-10.5591
20
-37.3889
0
VERTEX
8
CUT
10
-10.5460
20
-37.4115
0
VERTEX
8
CUT
10
-10.2931
20
-37.8848
0
VERTEX
8
CUT
10
-10.2815
20
-37.9082
0
VERTEX
8
CUT
10
-10.0600
20
-38.3970
0
VERTEX
8
CUT
10
-10.0500
20
-38.4212
0
VERTEX
8
CUT
10
-9.8610
20
-38.9234
0
VERTEX
8
CUT
10
-9.8526
20
-38.9481
0
VERTEX
8
CUT
10
-9.6968
20
-39.4616
0
VERTEX
8
CUT
10
-9.6901
20
-39.4869
0
VERTEX
8
CUT
10
-9.5682
20
-40.0095
0
VERTEX
8
CUT
10
-9.5631
20
-40.0351
0
VERTEX
8
CUT
10
-9.4757
20
-40.5646
0
VERTEX
8
CUT
10
-9.4723
20
-40.5905
0
VERTEX
8
CUT
10
-9.4197
20
-41.1245
0
VERTEX
8
CUT
10
-9.4180
20
-41.1506
0
VERTEX
8
CUT
10
-9.4004
20
-41.6869
0
VERTEX
8
CUT
10
-9.4004
20
-41.7131
0
VERTEX
8
CUT
10
-9.4180
20
-42.2494
0
VERTEX
8
CUT
10
-9.4197
20
-42.2755
0
VERTEX
8
CUT
10
-9.4723
20
-42.8095
0
VERTEX
8
CUT
10
-9.4757
20
-42.8354
0
VERTEX
8
CUT
10
-9.5631
20
-43.3649
0
VERTEX
8
CUT
10
-9.5682
20
-43.3905
0
VERTEX
8
CUT
10
-9.6901
20
-43.9131
0
VERTEX
8
CUT
10
-9.6968
20
-43.9384
0
VERTEX
8
CUT
10
-9.8526
20
-44.4519
0
VERTEX
8
CUT
10
-9.8610
20
-44.4766
0
VERTEX
8
CUT
10
-10.0500
20
-44.9788
0
VERTEX
8
CUT
10
-10.0600
20
-45.0030
0
VERTEX
8
CUT
10
-10.2815
20
-45.4918
0
VERTEX
8
CUT
10
-10.2931
20
-45.5152
0
VERTEX
8
CUT
10
-10.5460
20
-45.9885
0
VERTEX
8
CUT
10
-10.5591
20
-46.0111
0
VERTEX
8
CUT
10
-10.8424
20
-46.4668
0
VERTEX
8
CUT
10
-10.8570
20
-46.4885
0
VERTEX
8
CUT
10
-11.1695
20
-46.9247
0
VERTEX
8
CUT
10
-11.1855
20
-46.9455
0
VERTEX
8
CUT
10
-11.5259
20
-47.3603
0
VERTEX
8
CUT
10
-11.5431
20
-47.3799
0
VERTEX
8
CUT
10
-11.9099
20
-47.7716
0
VERTEX
8
CUT
10
-11.9284
20
-47.7901
0
VERTEX
8
CUT
10
-12.3201
20
-48.1569
0
VERTEX
8
CUT
10
-12.3397
20
-48.1741
0
VERTEX
8
CUT
10
-12.7545
20
-48.5145
0
VERTEX
8
CUT
10
-12.7753
20
-48.5305
0
VERTEX
8
CUT
10
-13.2115
20
-48.8430
0
VERTEX
8
CUT
10
-13.2332
20
-48.8576
0
VERTEX
8
CUT
10
-13.6889
20
-49.1409
0
VERTEX
8
CUT
10
-13.7115
20
-49.1540
0
VERTEX
8
CUT
10
-14.1848
20
-49.4069
0
VERTEX
8
CUT
10
-14.2082
20
-49.4185
0
VERTEX
8
CUT
10
-14.6970
20
-49.6400
0
VERTEX
8
CUT
10
-14.7212
20
-49.6500
0
VERTEX
8
CUT
10
-15.2234
20
-49.8390
0
VERTEX
8
CUT
10
-15.2481
20
-49.8474
0
VERTEX
8
CUT
10
-15.7616
20
-50.0032
0
VERTEX
8
CUT
10
-15.7869
20
-50.0099
0
VERTEX
8
CUT
10
-16.3095
20
-50.1318
0
VERTEX
8
CUT
10
-16.3351
20
-50.1369
0
VERTEX
8
CUT
10
-16.8646
20
-50.2243
0
VERTEX
8
CUT
10
-16.8905
20
-50.2277
0
VERTEX
8
CUT
10
-17.4245
20
-50.2803
0
VERTEX
8
CUT
10
-17.4506
20
-50.2820
0
VERTEX
8
CUT
10
-17.9869
20
-50.2996
0
SEQEND
0
POLYLINE
8
CUT
66
1
70
1
0
VERTEX
8
CUT
10
-18.9935
20
-64.2000
0
VERTEX
8
CUT
10
-19.0065
20
-64.1998
0
VERTEX
8
CUT
10
-19.2878
20
-64.1906
0
VERTEX
8
CUT
10
-19.3139
20
-64.1889
0
VERTEX
8
CUT
10
-19.5874
20
-64.1619
0
VERTEX
8
CUT
10
-19.6133
20
-64.1585
0
VERTEX
8
CUT
10
-19.8845
20
-64.1137
0
VERTEX
8
CUT
10
-19.9102
20
-64.1086
0
VERTEX
8
CUT
10
-20.1778
20
-64.0462
0
VERTEX
8
CUT
10
-20.2031
20
-64.0395
0
VERTEX
8
CUT
10
-20.4661
20
-63.9597
0
VERTEX
8
CUT
10
-20.4909
20
-63.9513
0
VERTEX
8
CUT
10
-20.7481
20
-63.8545
0
VERTEX
8
CUT
10
-20.7723
20
-63.8444
0
VERTEX
8
CUT
10
-21.0226
20
-63.7310
0
VERTEX
8
CUT
10
-21.0461
20
-63.7194
0
VERTEX
8
CUT
10
-21.2885
20
-63.5899
0
VERTEX
8
CUT
10
-21.3111
20
-63.5768
0
VERTEX
8
CUT
10
-21.5445
20
-63.4317
0
VERTEX
8
CUT
10
-21.5663
20
-63.4171
0
VERTEX
8
CUT
10
-21.7897
20
-63.2571
0
VERTEX
8
CUT
10
-21.8104
20
-63.2411
0
VERTEX
8
CUT
10
-22.0229
20
-63.0668
0
VERTEX
8
CUT
10
-22.0425
20
-63.0495
0
VERTEX
8
CUT
10
-22.2431
20
-62.8616
0
VERTEX
8
CUT
10
-22.2616
20
-62.8431
0
VERTEX
8
CUT
10
-22.4495
20
-62.6425
0
VERTEX
8
CUT
10
-22.4668
20
-62.6229
0
VERTEX
8
CUT
10
-22.6411
20
-62.4104
0
VERTEX
8
CUT
10
-22.6571
20
-62.3897
0
VERTEX
8
CUT
10
-22.8171
20
-62.1663
0
VERTEX
8
CUT
10
-22.8317
20
-62.1445
0
VERTEX
8
CUT
10
-22.9768
20
-61.9111
0
VERTEX
8
CUT
10
-22.9899
20
-61.8885
0
VERTEX
8
CUT
10
-23.1194
20
-61.6461
0
VERTEX
8
CUT
10
-23.1310
20
-61.6226
0
VERTEX
8
CUT
10
-23.2444
20
-61.3723
0
VERTEX
8
CUT
10
-23.2545
20
-61.3481
0
VERTEX
8
CUT
10
-23.3513
20
-61.0909
0
VERTEX
8
CUT
10
-23.3597
20
-61.0661
0
VERTEX
8
CUT
10
-23.4395
20
-60.8031
0
VERTEX
8
CUT
10
-23.4462
20
-60.7778
0
VERTEX
8
CUT
10
-23.5086
20
-60.5102
0
VERTEX
8
CUT
10
-23.5137
20
-60.4845
0
VERTEX
8
CUT
10
-23.5585
20
-60.2133
0
VERTEX
8
CUT
10
-23.5619
20
-60.1874
0
VERTEX
8
CUT
10
-23.5889
20
-59.9139
0
VERTEX
8
CUT
10
-23.5906
20
-59.8878
0
VERTEX
8
CUT
10
-23.5998
20
-59.6065
0
VERTEX
8
CUT
10
-23.6000
20
-59.5935
0
VERTEX
8
CUT
10
-23.6000
20
-58.4065
0
VERTEX
8
CUT
10
-23.5998
20
-58.3935
0
VERTEX
8
CUT
10
-23.5906
20
-58.1122
0
VERTEX
8
CUT
10
-23.5889
20
-58.0861
0
VERTEX
8
CUT
10
-23.5619
20
-57.8126
0
VERTEX
8
CUT
10
-23.5585
20
-57.7867
0
VERTEX
8
CUT
10
-23.5137
20
-57.5155
0
VERTEX
8
CUT
10
-23.5086
20
-57.4898
0
VERTEX
8
CUT
10
-23.4462
20
-57.2222
0
VERTEX
8
CUT
10
-23.4395
20
-57.1969
0
VERTEX
8
CUT
10
-23.3597
20
-56.9339
0
VERTEX
8
CUT
10
-23.3513
20
-56.9091
0
VERTEX
8
CUT
10
-23.2545
20
-56.6519
0
VERTEX
8
CUT
10
-23.2444
20
-56.6277
0
VERTEX
8
CUT
10
-23.1310
20
-56.3774
0
VERTEX
8
CUT
10
-23.1194
20
-56.3539
0
VERTEX
8
CUT
10
-22.9899
20
-56.1115
0
VERTEX
8
CUT
10
-22.9768
20
-56.0889
0
VERTEX
8
CUT
10
-22.8317
20
-55.8555
0
VERTEX
8
CUT
10
-22.8171
20
-55.8337
0
VERTEX
8
CUT
10
-22.6571
20
-55.6103
0
VERTEX
8
CUT
10
-22.6411
20
-55.5896
0
VERTEX
8
CUT
10
-22.4668
20
-55.3771
0
VERTEX
8
CUT
10
-22.4495
20
-55.3575
0
VERTEX
8
CUT
10
-22.2616
20
-55.1569
0
VERTEX
8
CUT
10
-22.2431
20
-55.1384
0
VERTEX
8
CUT
10
-22.0425
20
-54.9505
0
VERTEX
8
CUT
10
-22.0229
20
-54.9332
0
VERTEX
8
CUT
10
-21.8104
20
-54.7589
0
VERTEX
8
CUT
10
-21.7897
20
-54.7429
0
VERTEX
8
CUT
10
-21.5663
20
-54.5829
0
VERTEX
8
CUT
10
-21.5445
20
-54.5683
0
VERTEX
8
CUT
10
-21.3111
20
-54.4232
0
VERTEX
8
CUT
10
-21.2885
20
-54.4101
0
VERTEX
8
CUT
10
-21.0461
20
-54.2806
0
VERTEX
8
CUT
10
-21.0226
20
-54.2690
0
VERTEX
8
CUT
10
-20.7723
20
-54.1556
0
VERTEX
8
CUT
10
-20.7481
20
-54.1455
0
VERTEX
8
CUT
10
-20.4909
20
-54.0487
0
VERTEX
8
CUT
10
-20.4661
20
-54.0403
0
VERTEX
8
CUT
10
-20.2031
20
-53.9605
0
VERTEX
8
CUT
10
-20.1778
20
-53.9538
0
VERTEX
8
CUT
10
-19.9102
20
-53.8914
0
VERTEX
8
CUT
10
-19.8845
20
-53.8863
0
VERTEX
8
CUT
10
-19.6133
20
-53.8415
0
VERTEX
8
CUT
10
-19.5874
20
-53.8381
0
VERTEX
8
CUT
10
-19.3139
20
-53.8111
0
VERTEX
8
CUT
10
-19.2878
20
-53.8094
0
VERTEX
8
CUT
10
-19.0065
20
-53.8002
0
VERTEX
8
CUT
10
-18.9935
20
-53.8000
0
VERTEX
8
CUT
10
18.9935
20
-53.8000
0
VERTEX
8
CUT
10
19.0065
20
-53.8002
0
VERTEX
8
CUT
10
19.2878
20
-53.8094
0
VERTEX
8
CUT
10
19.3139
20
-53.8111
0
VERTEX
8
CUT
10
19.5874
20
-53.8381
0
VERTEX
8
CUT
10
19.6133
20
-53.8415
0
VERTEX
8
CUT
10
19.8845
20
-53.8863
0
VERTEX
8
CUT
10
19.9102
20
-53.8914
0
VERTEX
8
CUT
10
20.1778
20
-53.9538
0
VERTEX
8
CUT
10
20.2031
20
-53.9605
0
VERTEX
8
CUT
10
20.4661
20
-54.0403
0
VERTEX
8
CUT
10
20.4909
20
-54.0487
0
VERTEX
8
CUT
10
20.7481
20
-54.1455
0
VERTEX
8
CUT
10
20.7723
20
-54.1556
0
VERTEX
8
CUT
10
21.0226
20
-54.2690
0
VERTEX
8
CUT
10
21.0461
20
-54.2806
0
VERTEX
8
CUT
10
21.2885
20
-54.4101
0
VERTEX
8
CUT
10
21.3111
20
-54.4232
0
VERTEX
8
CUT
10
21.5445
20
-54.5683
0
VERTEX
8
CUT
10
21.5663
20
-54.5829
0
VERTEX
8
CUT
10
21.7897
20
-54.7429
0
VERTEX
8
CUT
10
21.8104
20
-54.7589
0
VERTEX
8
CUT
10
22.0229
20
-54.9332
0
VERTEX
8
CUT
10
22.0425
20
-54.9505
0
VERTEX
8
CUT
10
22.2431
20
-55.1384
0
VERTEX
8
CUT
10
22.2616
20
-55.1569
0
VERTEX
8
CUT
10
22.4495
20
-55.3575
0
VERTEX
8
CUT
10
22.4668
20
-55.3771
0
VERTEX
8
CUT
10
22.6411
20
-55.5896
0
VERTEX
8
CUT
10
22.6571
20
-55.6103
0
VERTEX
8
CUT
10
22.8171
20
-55.8337
0
VERTEX
8
CUT
10
22.8317
20
-55.8555
0
VERTEX
8
CUT
10
22.9768
20
-56.0889
0
VERTEX
8
CUT
10
22.9899
20
-56.1115
0
VERTEX
8
CUT
10
23.1194
20
-56.3539
0
VERTEX
8
CUT
10
23.1310
20
-56.3774
0
VERTEX
8
CUT
10
23.2444
20
-56.6277
0
VERTEX
8
CUT
10
23.2545
20
-56.6519
0
VERTEX
8
CUT
10
23.3513
20
-56.9091
0
VERTEX
8
CUT
10
23.3597
20
-56.9339
0
VERTEX
8
CUT
10
23.4395
20
-57.1969
0
VERTEX
8
CUT
10
23.4462
20
-57.2222
0
VERTEX
8
CUT
10
23.5086
20
-57.4898
0
VERTEX
8
CUT
10
23.5137
20
-57.5155
0
VERTEX
8
CUT
10
23.5585
20
-57.7867
0
VERTEX
8
CUT
10
23.5619
20
-57.8126
0
VERTEX
8
CUT
10
23.5889
20
-58.0861
0
VERTEX
8
CUT
10
23.5906
20
-58.1122
0
VERTEX
8
CUT
10
23.5998
20
-58.3935
0
VERTEX
8
CUT
10
23.6000
20
-58.4065
0
VERTEX
8
CUT
10
23.6000
20
-59.5935
0
VERTEX
8
CUT
10
23.5998
20
-59.6065
0
VERTEX
8
CUT
10
23.5906
20
-59.8878
0
VERTEX
8
CUT
10
23.5889
20
-59.9139
0
VERTEX
8
CUT
10
23.5619
20
-60.1874
0
VERTEX
8
CUT
10
23.5585
20
-60.2133
0
VERTEX
8
CUT
10
23.5137
20
-60.4845
0
VERTEX
8
CUT
10
23.5086
20
-60.5102
0
VERTEX
8
CUT
10
23.4462
20
-60.7778
0
VERTEX
8
CUT
10
23.4395
20
-60.8031
0
VERTEX
8
CUT
10
23.3597
20
-61.0661
0
VERTEX
8
CUT
10
23.3513
20
-61.0909
0
VERTEX
8
CUT
10
23.2545
20
-61.3481
0
VERTEX
8
CUT
10
23.2444
20
-61.3723
0
VERTEX
8
CUT
10
23.1310
20
-61.6226
0
VERTEX
8
CUT
10
23.1194
20
-61.6461
0
VERTEX
8
CUT
10
22.9899
20
-61.8885
0
VERTEX
8
CUT
10
22.9768
20
-61.9111
0
VERTEX
8
CUT
10
22.8317
20
-62.1445
0
VERTEX
8
CUT
10
22.8171
20
-62.1663
0
VERTEX
8
CUT
10
22.6571
20
-62.3897
0
VERTEX
8
CUT
10
22.6411
20
-62.4104
0
VERTEX
8
CUT
10
22.4668
20
-62.6229
0
VERTEX
8
CUT
10
22.4495
20
-62.6425
0
VERTEX
8
CUT
10
22.2616
20
-62.8431
0
VERTEX
8
CUT
10
22.2431
20
-62.8616
0
VERTEX
8
CUT
10
22.0425
20
-63.0495
0
VERTEX
8
CUT
10
22.0229
20
-63.0668
0
VERTEX
8
CUT
10
21.8104
20
-63.2411
0
VERTEX
8
CUT
10
21.7897
20
-63.2571
0
VERTEX
8
CUT
10
21.5663
20
-63.4171
0
VERTEX
8
CUT
10
21.5445
20
-63.4317
0
VERTEX
8
CUT
10
21.3111
20
-63.5768
0
VERTEX
8
CUT
10
21.2885
20
-63.5899
0
VERTEX
8
CUT
10
21.0461
20
-63.7194
0
VERTEX
8
CUT
10
21.0226
20
-63.7310
0
VERTEX
8
CUT
10
20.7723
20
-63.8444
0
VERTEX
8
CUT
10
20.7481
20
-63.8545
0
VERTEX
8
CUT
10
20.4909
20
-63.9513
0
VERTEX
8
CUT
10
20.4661
20
-63.9597
0
VERTEX
8
CUT
10
20.2031
20
-64.0395
0
VERTEX
8
CUT
10
20.1778
20
-64.0462
0
VERTEX
8
CUT
10
19.9102
20
-64.1086
0
VERTEX
8
CUT
10
19.8845
20
-64.1137
0
VERTEX
8
CUT
10
19.6133
20
-64.1585
0
VERTEX
8
CUT
10
19.5874
20
-64.1619
0
VERTEX
8
CUT
10
19.3139
20
-64.1889
0
VERTEX
8
CUT
10
19.2878
20
-64.1906
0
VERTEX
8
CUT
10
19.0065
20
-64.1998
0
VERTEX
8
CUT
10
18.9935
20
-64.2000
0
SEQEND
0
ENDSEC
0
EOF
