  0
SECTION
  2
BLOCKS
  0
ENDSEC
  0
SECTION
  2
ENTITIES
  0
LINE
  8
0
 10
34.6185
 20
-67.0702
 11
35.2323
 21
-66.9894
  0
LINE
  8
0
 10
35.2323
 20
-66.9894
 11
35.837
 21
-66.8554
  0
LINE
  8
0
 10
35.837
 20
-66.8554
 11
36.4273
 21
-66.6693
  0
LINE
  8
0
 10
36.4273
 20
-66.6693
 11
36.9995
 21
-66.4322
  0
LINE
  8
0
 10
36.9995
 20
-66.4322
 11
37.2767
 21
-66.2879
  0
LINE
  8
0
 10
37.2767
 20
-66.2879
 11
37
 21
-66.3
  0
LINE
  8
0
 10
37
 20
-66.3
 11
36.7124
 21
-66.2874
  0
LINE
  8
0
 10
36.7124
 20
-66.2874
 11
36.427
 21
-66.2499
  0
LINE
  8
0
 10
36.427
 20
-66.2499
 11
36.1459
 21
-66.1875
  0
LINE
  8
0
 10
36.1459
 20
-66.1875
 11
35.8713
 21
-66.101
  0
LINE
  8
0
 10
35.8713
 20
-66.101
 11
35.6053
 21
-65.9908
  0
LINE
  8
0
 10
35.6053
 20
-65.9908
 11
35.35
 21
-65.8579
  0
LINE
  8
0
 10
35.35
 20
-65.8579
 11
35.1072
 21
-65.7032
  0
LINE
  8
0
 10
35.1072
 20
-65.7032
 11
34.8788
 21
-65.5279
  0
LINE
  8
0
 10
34.8788
 20
-65.5279
 11
34.6665
 21
-65.3335
  0
LINE
  8
0
 10
34.6665
 20
-65.3335
 11
34.472
 21
-65.1212
  0
LINE
  8
0
 10
34.472
 20
-65.1212
 11
34.2968
 21
-64.8928
  0
LINE
  8
0
 10
34.2968
 20
-64.8928
 11
34.1421
 21
-64.65
  0
LINE
  8
0
 10
34.1421
 20
-64.65
 11
34.0092
 21
-64.3946
  0
LINE
  8
0
 10
34.0092
 20
-64.3946
 11
33.899
 21
-64.1287
  0
LINE
  8
0
 10
33.899
 20
-64.1287
 11
33.8124
 21
-63.8541
  0
LINE
  8
0
 10
33.8124
 20
-63.8541
 11
33.7501
 21
-63.573
  0
LINE
  8
0
 10
33.7501
 20
-63.573
 11
33.7126
 21
-63.2876
  0
LINE
  8
0
 10
33.7126
 20
-63.2876
 11
33.7
 21
-63
  0
LINE
  8
0
 10
33.7
 20
-63
 11
33.7126
 21
-62.7124
  0
LINE
  8
0
 10
33.7126
 20
-62.7124
 11
33.7501
 21
-62.427
  0
LINE
  8
0
 10
33.7501
 20
-62.427
 11
33.8124
 21
-62.1459
  0
LINE
  8
0
 10
33.8124
 20
-62.1459
 11
33.899
 21
-61.8713
  0
LINE
  8
0
 10
33.899
 20
-61.8713
 11
34.0092
 21
-61.6053
  0
LINE
  8
0
 10
34.0092
 20
-61.6053
 11
34.1421
 21
-61.35
  0
LINE
  8
0
 10
34.1421
 20
-61.35
 11
34.2968
 21
-61.1072
  0
LINE
  8
0
 10
34.2968
 20
-61.1072
 11
34.472
 21
-60.8788
  0
LINE
  8
0
 10
34.472
 20
-60.8788
 11
34.6665
 21
-60.6665
  0
LINE
  8
0
 10
34.6665
 20
-60.6665
 11
34.8788
 21
-60.472
  0
LINE
  8
0
 10
34.8788
 20
-60.472
 11
35.1072
 21
-60.2968
  0
LINE
  8
0
 10
35.1072
 20
-60.2968
 11
35.35
 21
-60.1421
  0
LINE
  8
0
 10
35.35
 20
-60.1421
 11
35.6053
 21
-60.0092
  0
LINE
  8
0
 10
35.6053
 20
-60.0092
 11
35.8713
 21
-59.899
  0
LINE
  8
0
 10
35.8713
 20
-59.899
 11
36.1459
 21
-59.8124
  0
LINE
  8
0
 10
36.1459
 20
-59.8124
 11
36.427
 21
-59.7501
  0
LINE
  8
0
 10
36.427
 20
-59.7501
 11
36.7124
 21
-59.7126
  0
LINE
  8
0
 10
36.7124
 20
-59.7126
 11
37
 21
-59.7
  0
LINE
  8
0
 10
37
 20
-59.7
 11
37.2876
 21
-59.7126
  0
LINE
  8
0
 10
37.2876
 20
-59.7126
 11
37.573
 21
-59.7501
  0
LINE
  8
0
 10
37.573
 20
-59.7501
 11
37.8541
 21
-59.8124
  0
LINE
  8
0
 10
37.8541
 20
-59.8124
 11
38.1287
 21
-59.899
  0
LINE
  8
0
 10
38.1287
 20
-59.899
 11
38.3946
 21
-60.0092
  0
LINE
  8
0
 10
38.3946
 20
-60.0092
 11
38.65
 21
-60.1421
  0
LINE
  8
0
 10
38.65
 20
-60.1421
 11
38.8928
 21
-60.2968
  0
LINE
  8
0
 10
38.8928
 20
-60.2968
 11
39.1212
 21
-60.472
  0
LINE
  8
0
 10
39.1212
 20
-60.472
 11
39.3335
 21
-60.6665
  0
LINE
  8
0
 10
39.3335
 20
-60.6665
 11
39.5279
 21
-60.8788
  0
LINE
  8
0
 10
39.5279
 20
-60.8788
 11
39.7032
 21
-61.1072
  0
LINE
  8
0
 10
39.7032
 20
-61.1072
 11
39.8579
 21
-61.35
  0
LINE
  8
0
 10
39.8579
 20
-61.35
 11
39.9908
 21
-61.6053
  0
LINE
  8
0
 10
39.9908
 20
-61.6053
 11
40.101
 21
-61.8713
  0
LINE
  8
0
 10
40.101
 20
-61.8713
 11
40.1875
 21
-62.1459
  0
LINE
  8
0
 10
40.1875
 20
-62.1459
 11
40.2499
 21
-62.427
  0
LINE
  8
0
 10
40.2499
 20
-62.427
 11
40.2874
 21
-62.7124
  0
LINE
  8
0
 10
40.2874
 20
-62.7124
 11
40.3
 21
-63
  0
LINE
  8
0
 10
40.3
 20
-63
 11
40.2879
 21
-63.2767
  0
LINE
  8
0
 10
40.2879
 20
-63.2767
 11
40.4322
 21
-62.9995
  0
LINE
  8
0
 10
40.4322
 20
-62.9995
 11
40.6693
 21
-62.4273
  0
LINE
  8
0
 10
40.6693
 20
-62.4273
 11
40.8554
 21
-61.837
  0
LINE
  8
0
 10
40.8554
 20
-61.837
 11
40.9894
 21
-61.2323
  0
LINE
  8
0
 10
40.9894
 20
-61.2323
 11
41.0702
 21
-60.6185
  0
LINE
  8
0
 10
41.0702
 20
-60.6185
 11
41.0972
 21
-60
  0
LINE
  8
0
 10
41.0972
 20
-60
 11
41.0662
 21
-59.2888
  0
LINE
  8
0
 10
41.0662
 20
-59.2888
 11
40.0803
 21
-44.575
  0
LINE
  8
0
 10
40.0803
 20
-44.575
 11
39.0539
 21
-33.3
  0
LINE
  8
0
 10
39.0539
 20
-33.3
 11
-39.0539
 21
-33.3
  0
LINE
  8
0
 10
-39.0539
 20
-33.3
 11
-40.0803
 21
-44.575
  0
LINE
  8
0
 10
-40.0803
 20
-44.575
 11
-41.0662
 21
-59.2888
  0
LINE
  8
0
 10
-41.0662
 20
-59.2888
 11
-41.0972
 21
-60
  0
LINE
  8
0
 10
-41.0972
 20
-60
 11
-41.0702
 21
-60.6185
  0
LINE
  8
0
 10
-41.0702
 20
-60.6185
 11
-40.9894
 21
-61.2323
  0
LINE
  8
0
 10
-40.9894
 20
-61.2323
 11
-40.8554
 21
-61.837
  0
LINE
  8
0
 10
-40.8554
 20
-61.837
 11
-40.6693
 21
-62.4273
  0
LINE
  8
0
 10
-40.6693
 20
-62.4273
 11
-40.4322
 21
-62.9995
  0
LINE
  8
0
 10
-40.4322
 20
-62.9995
 11
-40.2879
 21
-63.2767
  0
LINE
  8
0
 10
-40.2879
 20
-63.2767
 11
-40.3
 21
-63
  0
LINE
  8
0
 10
-40.3
 20
-63
 11
-40.2874
 21
-62.7124
  0
LINE
  8
0
 10
-40.2874
 20
-62.7124
 11
-40.2499
 21
-62.427
  0
LINE
  8
0
 10
-40.2499
 20
-62.427
 11
-40.1875
 21
-62.1459
  0
LINE
  8
0
 10
-40.1875
 20
-62.1459
 11
-40.101
 21
-61.8713
  0
LINE
  8
0
 10
-40.101
 20
-61.8713
 11
-39.9908
 21
-61.6053
  0
LINE
  8
0
 10
-39.9908
 20
-61.6053
 11
-39.8579
 21
-61.35
  0
LINE
  8
0
 10
-39.8579
 20
-61.35
 11
-39.7032
 21
-61.1072
  0
LINE
  8
0
 10
-39.7032
 20
-61.1072
 11
-39.5279
 21
-60.8788
  0
LINE
  8
0
 10
-39.5279
 20
-60.8788
 11
-39.3335
 21
-60.6665
  0
LINE
  8
0
 10
-39.3335
 20
-60.6665
 11
-39.1212
 21
-60.472
  0
LINE
  8
0
 10
-39.1212
 20
-60.472
 11
-38.8928
 21
-60.2968
  0
LINE
  8
0
 10
-38.8928
 20
-60.2968
 11
-38.65
 21
-60.1421
  0
LINE
  8
0
 10
-38.65
 20
-60.1421
 11
-38.3946
 21
-60.0092
  0
LINE
  8
0
 10
-38.3946
 20
-60.0092
 11
-38.1287
 21
-59.899
  0
LINE
  8
0
 10
-38.1287
 20
-59.899
 11
-37.8541
 21
-59.8124
  0
LINE
  8
0
 10
-37.8541
 20
-59.8124
 11
-37.573
 21
-59.7501
  0
LINE
  8
0
 10
-37.573
 20
-59.7501
 11
-37.2876
 21
-59.7126
  0
LINE
  8
0
 10
-37.2876
 20
-59.7126
 11
-37
 21
-59.7
  0
LINE
  8
0
 10
-37
 20
-59.7
 11
-36.7124
 21
-59.7126
  0
LINE
  8
0
 10
-36.7124
 20
-59.7126
 11
-36.427
 21
-59.7501
  0
LINE
  8
0
 10
-36.427
 20
-59.7501
 11
-36.1459
 21
-59.8124
  0
LINE
  8
0
 10
-36.1459
 20
-59.8124
 11
-35.8713
 21
-59.899
  0
LINE
  8
0
 10
-35.8713
 20
-59.899
 11
-35.6053
 21
-60.0092
  0
LINE
  8
0
 10
-35.6053
 20
-60.0092
 11
-35.35
 21
-60.1421
  0
LINE
  8
0
 10
-35.35
 20
-60.1421
 11
-35.1072
 21
-60.2968
  0
LINE
  8
0
 10
-35.1072
 20
-60.2968
 11
-34.8788
 21
-60.472
  0
LINE
  8
0
 10
-34.8788
 20
-60.472
 11
-34.6665
 21
-60.6665
  0
LINE
  8
0
 10
-34.6665
 20
-60.6665
 11
-34.472
 21
-60.8788
  0
LINE
  8
0
 10
-34.472
 20
-60.8788
 11
-34.2968
 21
-61.1072
  0
LINE
  8
0
 10
-34.2968
 20
-61.1072
 11
-34.1421
 21
-61.35
  0
LINE
  8
0
 10
-34.1421
 20
-61.35
 11
-34.0092
 21
-61.6053
  0
LINE
  8
0
 10
-34.0092
 20
-61.6053
 11
-33.899
 21
-61.8713
  0
LINE
  8
0
 10
-33.899
 20
-61.8713
 11
-33.8124
 21
-62.1459
  0
LINE
  8
0
 10
-33.8124
 20
-62.1459
 11
-33.7501
 21
-62.427
  0
LINE
  8
0
 10
-33.7501
 20
-62.427
 11
-33.7126
 21
-62.7124
  0
LINE
  8
0
 10
-33.7126
 20
-62.7124
 11
-33.7
 21
-63
  0
LINE
  8
0
 10
-33.7
 20
-63
 11
-33.7126
 21
-63.2876
  0
LINE
  8
0
 10
-33.7126
 20
-63.2876
 11
-33.7501
 21
-63.573
  0
LINE
  8
0
 10
-33.7501
 20
-63.573
 11
-33.8124
 21
-63.8541
  0
LINE
  8
0
 10
-33.8124
 20
-63.8541
 11
-33.899
 21
-64.1287
  0
LINE
  8
0
 10
-33.899
 20
-64.1287
 11
-34.0092
 21
-64.3946
  0
LINE
  8
0
 10
-34.0092
 20
-64.3946
 11
-34.1421
 21
-64.65
  0
LINE
  8
0
 10
-34.1421
 20
-64.65
 11
-34.2968
 21
-64.8928
  0
LINE
  8
0
 10
-34.2968
 20
-64.8928
 11
-34.472
 21
-65.1212
  0
LINE
  8
0
 10
-34.472
 20
-65.1212
 11
-34.6665
 21
-65.3335
  0
LINE
  8
0
 10
-34.6665
 20
-65.3335
 11
-34.8788
 21
-65.5279
  0
LINE
  8
0
 10
-34.8788
 20
-65.5279
 11
-35.1072
 21
-65.7032
  0
LINE
  8
0
 10
-35.1072
 20
-65.7032
 11
-35.35
 21
-65.8579
  0
LINE
  8
0
 10
-35.35
 20
-65.8579
 11
-35.6053
 21
-65.9908
  0
LINE
  8
0
 10
-35.6053
 20
-65.9908
 11
-35.8713
 21
-66.101
  0
LINE
  8
0
 10
-35.8713
 20
-66.101
 11
-36.1459
 21
-66.1875
  0
LINE
  8
0
 10
-36.1459
 20
-66.1875
 11
-36.427
 21
-66.2499
  0
LINE
  8
0
 10
-36.427
 20
-66.2499
 11
-36.7124
 21
-66.2874
  0
LINE
  8
0
 10
-36.7124
 20
-66.2874
 11
-37
 21
-66.3
  0
LINE
  8
0
 10
-37
 20
-66.3
 11
-37.2767
 21
-66.2879
  0
LINE
  8
0
 10
-37.2767
 20
-66.2879
 11
-36.9995
 21
-66.4322
  0
LINE
  8
0
 10
-36.9995
 20
-66.4322
 11
-36.4273
 21
-66.6693
  0
LINE
  8
0
 10
-36.4273
 20
-66.6693
 11
-35.837
 21
-66.8554
  0
LINE
  8
0
 10
-35.837
 20
-66.8554
 11
-35.2323
 21
-66.9894
  0
LINE
  8
0
 10
-35.2323
 20
-66.9894
 11
-34.6185
 21
-67.0702
  0
LINE
  8
0
 10
-34.6185
 20
-67.0702
 11
-33.9367
 21
-67.1
  0
LINE
  8
0
 10
-33.9367
 20
-67.1
 11
33.9367
 21
-67.1
  0
LINE
  8
0
 10
33.9367
 20
-67.1
 11
34.6185
 21
-67.0702
  0
LINE
  8
0
 10
-30.0959
 20
-37.5958
 11
-30.191
 21
-37.5833
  0
LINE
  8
0
 10
-30.191
 20
-37.5833
 11
-30.2847
 21
-37.5625
  0
LINE
  8
0
 10
-30.2847
 20
-37.5625
 11
-30.3762
 21
-37.5337
  0
LINE
  8
0
 10
-30.3762
 20
-37.5337
 11
-30.4649
 21
-37.4969
  0
LINE
  8
0
 10
-30.4649
 20
-37.4969
 11
-30.55
 21
-37.4526
  0
LINE
  8
0
 10
-30.55
 20
-37.4526
 11
-30.6309
 21
-37.4011
  0
LINE
  8
0
 10
-30.6309
 20
-37.4011
 11
-30.7071
 21
-37.3426
  0
LINE
  8
0
 10
-30.7071
 20
-37.3426
 11
-30.7778
 21
-37.2778
  0
LINE
  8
0
 10
-30.7778
 20
-37.2778
 11
-30.8426
 21
-37.2071
  0
LINE
  8
0
 10
-30.8426
 20
-37.2071
 11
-30.9011
 21
-37.1309
  0
LINE
  8
0
 10
-30.9011
 20
-37.1309
 11
-30.9526
 21
-37.05
  0
LINE
  8
0
 10
-30.9526
 20
-37.05
 11
-30.9969
 21
-36.9649
  0
LINE
  8
0
 10
-30.9969
 20
-36.9649
 11
-31.0337
 21
-36.8762
  0
LINE
  8
0
 10
-31.0337
 20
-36.8762
 11
-31.0625
 21
-36.7847
  0
LINE
  8
0
 10
-31.0625
 20
-36.7847
 11
-31.0833
 21
-36.691
  0
LINE
  8
0
 10
-31.0833
 20
-36.691
 11
-31.0958
 21
-36.5959
  0
LINE
  8
0
 10
-31.0958
 20
-36.5959
 11
-31.1
 21
-36.5
  0
LINE
  8
0
 10
-31.1
 20
-36.5
 11
-31.0958
 21
-36.4041
  0
LINE
  8
0
 10
-31.0958
 20
-36.4041
 11
-31.0833
 21
-36.309
  0
LINE
  8
0
 10
-31.0833
 20
-36.309
 11
-31.0625
 21
-36.2153
  0
LINE
  8
0
 10
-31.0625
 20
-36.2153
 11
-31.0337
 21
-36.1238
  0
LINE
  8
0
 10
-31.0337
 20
-36.1238
 11
-30.9969
 21
-36.0351
  0
LINE
  8
0
 10
-30.9969
 20
-36.0351
 11
-30.9526
 21
-35.95
  0
LINE
  8
0
 10
-30.9526
 20
-35.95
 11
-30.9011
 21
-35.8691
  0
LINE
  8
0
 10
-30.9011
 20
-35.8691
 11
-30.8426
 21
-35.7929
  0
LINE
  8
0
 10
-30.8426
 20
-35.7929
 11
-30.7778
 21
-35.7222
  0
LINE
  8
0
 10
-30.7778
 20
-35.7222
 11
-30.7071
 21
-35.6573
  0
LINE
  8
0
 10
-30.7071
 20
-35.6573
 11
-30.6309
 21
-35.5989
  0
LINE
  8
0
 10
-30.6309
 20
-35.5989
 11
-30.55
 21
-35.5474
  0
LINE
  8
0
 10
-30.55
 20
-35.5474
 11
-30.4649
 21
-35.5031
  0
LINE
  8
0
 10
-30.4649
 20
-35.5031
 11
-30.3762
 21
-35.4663
  0
LINE
  8
0
 10
-30.3762
 20
-35.4663
 11
-30.2847
 21
-35.4375
  0
LINE
  8
0
 10
-30.2847
 20
-35.4375
 11
-30.191
 21
-35.4167
  0
LINE
  8
0
 10
-30.191
 20
-35.4167
 11
-30.0959
 21
-35.4042
  0
LINE
  8
0
 10
-30.0959
 20
-35.4042
 11
-30
 21
-35.4
  0
LINE
  8
0
 10
-30
 20
-35.4
 11
-29.9041
 21
-35.4042
  0
LINE
  8
0
 10
-29.9041
 20
-35.4042
 11
-29.809
 21
-35.4167
  0
LINE
  8
0
 10
-29.809
 20
-35.4167
 11
-29.7153
 21
-35.4375
  0
LINE
  8
0
 10
-29.7153
 20
-35.4375
 11
-29.6238
 21
-35.4663
  0
LINE
  8
0
 10
-29.6238
 20
-35.4663
 11
-29.5351
 21
-35.5031
  0
LINE
  8
0
 10
-29.5351
 20
-35.5031
 11
-29.45
 21
-35.5474
  0
LINE
  8
0
 10
-29.45
 20
-35.5474
 11
-29.3691
 21
-35.5989
  0
LINE
  8
0
 10
-29.3691
 20
-35.5989
 11
-29.2929
 21
-35.6573
  0
LINE
  8
0
 10
-29.2929
 20
-35.6573
 11
-29.2222
 21
-35.7222
  0
LINE
  8
0
 10
-29.2222
 20
-35.7222
 11
-29.1573
 21
-35.7929
  0
LINE
  8
0
 10
-29.1573
 20
-35.7929
 11
-29.0989
 21
-35.8691
  0
LINE
  8
0
 10
-29.0989
 20
-35.8691
 11
-29.0474
 21
-35.95
  0
LINE
  8
0
 10
-29.0474
 20
-35.95
 11
-29.0031
 21
-36.0351
  0
LINE
  8
0
 10
-29.0031
 20
-36.0351
 11
-28.9663
 21
-36.1238
  0
LINE
  8
0
 10
-28.9663
 20
-36.1238
 11
-28.9375
 21
-36.2153
  0
LINE
  8
0
 10
-28.9375
 20
-36.2153
 11
-28.9167
 21
-36.309
  0
LINE
  8
0
 10
-28.9167
 20
-36.309
 11
-28.9042
 21
-36.4041
  0
LINE
  8
0
 10
-28.9042
 20
-36.4041
 11
-28.9
 21
-36.5
  0
LINE
  8
0
 10
-28.9
 20
-36.5
 11
-28.9042
 21
-36.5959
  0
LINE
  8
0
 10
-28.9042
 20
-36.5959
 11
-28.9167
 21
-36.691
  0
LINE
  8
0
 10
-28.9167
 20
-36.691
 11
-28.9375
 21
-36.7847
  0
LINE
  8
0
 10
-28.9375
 20
-36.7847
 11
-28.9663
 21
-36.8762
  0
LINE
  8
0
 10
-28.9663
 20
-36.8762
 11
-29.0031
 21
-36.9649
  0
LINE
  8
0
 10
-29.0031
 20
-36.9649
 11
-29.0474
 21
-37.05
  0
LINE
  8
0
 10
-29.0474
 20
-37.05
 11
-29.0989
 21
-37.1309
  0
LINE
  8
0
 10
-29.0989
 20
-37.1309
 11
-29.1573
 21
-37.2071
  0
LINE
  8
0
 10
-29.1573
 20
-37.2071
 11
-29.2222
 21
-37.2778
  0
LINE
  8
0
 10
-29.2222
 20
-37.2778
 11
-29.2929
 21
-37.3426
  0
LINE
  8
0
 10
-29.2929
 20
-37.3426
 11
-29.3691
 21
-37.4011
  0
LINE
  8
0
 10
-29.3691
 20
-37.4011
 11
-29.45
 21
-37.4526
  0
LINE
  8
0
 10
-29.45
 20
-37.4526
 11
-29.5351
 21
-37.4969
  0
LINE
  8
0
 10
-29.5351
 20
-37.4969
 11
-29.6238
 21
-37.5337
  0
LINE
  8
0
 10
-29.6238
 20
-37.5337
 11
-29.7153
 21
-37.5625
  0
LINE
  8
0
 10
-29.7153
 20
-37.5625
 11
-29.809
 21
-37.5833
  0
LINE
  8
0
 10
-29.809
 20
-37.5833
 11
-29.9041
 21
-37.5958
  0
LINE
  8
0
 10
-29.9041
 20
-37.5958
 11
-30
 21
-37.6
  0
LINE
  8
0
 10
-30
 20
-37.6
 11
-30.0959
 21
-37.5958
  0
LINE
  8
0
 10
29.9041
 20
-37.5958
 11
29.809
 21
-37.5833
  0
LINE
  8
0
 10
29.809
 20
-37.5833
 11
29.7153
 21
-37.5625
  0
LINE
  8
0
 10
29.7153
 20
-37.5625
 11
29.6238
 21
-37.5337
  0
LINE
  8
0
 10
29.6238
 20
-37.5337
 11
29.5351
 21
-37.4969
  0
LINE
  8
0
 10
29.5351
 20
-37.4969
 11
29.45
 21
-37.4526
  0
LINE
  8
0
 10
29.45
 20
-37.4526
 11
29.3691
 21
-37.4011
  0
LINE
  8
0
 10
29.3691
 20
-37.4011
 11
29.2929
 21
-37.3426
  0
LINE
  8
0
 10
29.2929
 20
-37.3426
 11
29.2222
 21
-37.2778
  0
LINE
  8
0
 10
29.2222
 20
-37.2778
 11
29.1573
 21
-37.2071
  0
LINE
  8
0
 10
29.1573
 20
-37.2071
 11
29.0989
 21
-37.1309
  0
LINE
  8
0
 10
29.0989
 20
-37.1309
 11
29.0474
 21
-37.05
  0
LINE
  8
0
 10
29.0474
 20
-37.05
 11
29.0031
 21
-36.9649
  0
LINE
  8
0
 10
29.0031
 20
-36.9649
 11
28.9663
 21
-36.8762
  0
LINE
  8
0
 10
28.9663
 20
-36.8762
 11
28.9375
 21
-36.7847
  0
LINE
  8
0
 10
28.9375
 20
-36.7847
 11
28.9167
 21
-36.691
  0
LINE
  8
0
 10
28.9167
 20
-36.691
 11
28.9042
 21
-36.5959
  0
LINE
  8
0
 10
28.9042
 20
-36.5959
 11
28.9
 21
-36.5
  0
LINE
  8
0
 10
28.9
 20
-36.5
 11
28.9042
 21
-36.4041
  0
LINE
  8
0
 10
28.9042
 20
-36.4041
 11
28.9167
 21
-36.309
  0
LINE
  8
0
 10
28.9167
 20
-36.309
 11
28.9375
 21
-36.2153
  0
LINE
  8
0
 10
28.9375
 20
-36.2153
 11
28.9663
 21
-36.1238
  0
LINE
  8
0
 10
28.9663
 20
-36.1238
 11
29.0031
 21
-36.0351
  0
LINE
  8
0
 10
29.0031
 20
-36.0351
 11
29.0474
 21
-35.95
  0
LINE
  8
0
 10
29.0474
 20
-35.95
 11
29.0989
 21
-35.8691
  0
LINE
  8
0
 10
29.0989
 20
-35.8691
 11
29.1573
 21
-35.7929
  0
LINE
  8
0
 10
29.1573
 20
-35.7929
 11
29.2222
 21
-35.7222
  0
LINE
  8
0
 10
29.2222
 20
-35.7222
 11
29.2929
 21
-35.6573
  0
LINE
  8
0
 10
29.2929
 20
-35.6573
 11
29.3691
 21
-35.5989
  0
LINE
  8
0
 10
29.3691
 20
-35.5989
 11
29.45
 21
-35.5474
  0
LINE
  8
0
 10
29.45
 20
-35.5474
 11
29.5351
 21
-35.5031
  0
LINE
  8
0
 10
29.5351
 20
-35.5031
 11
29.6238
 21
-35.4663
  0
LINE
  8
0
 10
29.6238
 20
-35.4663
 11
29.7153
 21
-35.4375
  0
LINE
  8
0
 10
29.7153
 20
-35.4375
 11
29.809
 21
-35.4167
  0
LINE
  8
0
 10
29.809
 20
-35.4167
 11
29.9041
 21
-35.4042
  0
LINE
  8
0
 10
29.9041
 20
-35.4042
 11
30
 21
-35.4
  0
LINE
  8
0
 10
30
 20
-35.4
 11
30.0959
 21
-35.4042
  0
LINE
  8
0
 10
30.0959
 20
-35.4042
 11
30.191
 21
-35.4167
  0
LINE
  8
0
 10
30.191
 20
-35.4167
 11
30.2847
 21
-35.4375
  0
LINE
  8
0
 10
30.2847
 20
-35.4375
 11
30.3762
 21
-35.4663
  0
LINE
  8
0
 10
30.3762
 20
-35.4663
 11
30.4649
 21
-35.5031
  0
LINE
  8
0
 10
30.4649
 20
-35.5031
 11
30.55
 21
-35.5474
  0
LINE
  8
0
 10
30.55
 20
-35.5474
 11
30.6309
 21
-35.5989
  0
LINE
  8
0
 10
30.6309
 20
-35.5989
 11
30.7071
 21
-35.6573
  0
LINE
  8
0
 10
30.7071
 20
-35.6573
 11
30.7778
 21
-35.7222
  0
LINE
  8
0
 10
30.7778
 20
-35.7222
 11
30.8426
 21
-35.7929
  0
LINE
  8
0
 10
30.8426
 20
-35.7929
 11
30.9011
 21
-35.8691
  0
LINE
  8
0
 10
30.9011
 20
-35.8691
 11
30.9526
 21
-35.95
  0
LINE
  8
0
 10
30.9526
 20
-35.95
 11
30.9969
 21
-36.0351
  0
LINE
  8
0
 10
30.9969
 20
-36.0351
 11
31.0337
 21
-36.1238
  0
LINE
  8
0
 10
31.0337
 20
-36.1238
 11
31.0625
 21
-36.2153
  0
LINE
  8
0
 10
31.0625
 20
-36.2153
 11
31.0833
 21
-36.309
  0
LINE
  8
0
 10
31.0833
 20
-36.309
 11
31.0958
 21
-36.4041
  0
LINE
  8
0
 10
31.0958
 20
-36.4041
 11
31.1
 21
-36.5
  0
LINE
  8
0
 10
31.1
 20
-36.5
 11
31.0958
 21
-36.5959
  0
LINE
  8
0
 10
31.0958
 20
-36.5959
 11
31.0833
 21
-36.691
  0
LINE
  8
0
 10
31.0833
 20
-36.691
 11
31.0625
 21
-36.7847
  0
LINE
  8
0
 10
31.0625
 20
-36.7847
 11
31.0337
 21
-36.8762
  0
LINE
  8
0
 10
31.0337
 20
-36.8762
 11
30.9969
 21
-36.9649
  0
LINE
  8
0
 10
30.9969
 20
-36.9649
 11
30.9526
 21
-37.05
  0
LINE
  8
0
 10
30.9526
 20
-37.05
 11
30.9011
 21
-37.1309
  0
LINE
  8
0
 10
30.9011
 20
-37.1309
 11
30.8426
 21
-37.2071
  0
LINE
  8
0
 10
30.8426
 20
-37.2071
 11
30.7778
 21
-37.2778
  0
LINE
  8
0
 10
30.7778
 20
-37.2778
 11
30.7071
 21
-37.3426
  0
LINE
  8
0
 10
30.7071
 20
-37.3426
 11
30.6309
 21
-37.4011
  0
LINE
  8
0
 10
30.6309
 20
-37.4011
 11
30.55
 21
-37.4526
  0
LINE
  8
0
 10
30.55
 20
-37.4526
 11
30.4649
 21
-37.4969
  0
LINE
  8
0
 10
30.4649
 20
-37.4969
 11
30.3762
 21
-37.5337
  0
LINE
  8
0
 10
30.3762
 20
-37.5337
 11
30.2847
 21
-37.5625
  0
LINE
  8
0
 10
30.2847
 20
-37.5625
 11
30.191
 21
-37.5833
  0
LINE
  8
0
 10
30.191
 20
-37.5833
 11
30.0959
 21
-37.5958
  0
LINE
  8
0
 10
30.0959
 20
-37.5958
 11
30
 21
-37.6
  0
LINE
  8
0
 10
30
 20
-37.6
 11
29.9041
 21
-37.5958
  0
LINE
  8
0
 10
-0.566498
 20
-53.4753
 11
-1.12871
 21
-53.4012
  0
LINE
  8
0
 10
-1.12871
 20
-53.4012
 11
-1.68231
 21
-53.2785
  0
LINE
  8
0
 10
-1.68231
 20
-53.2785
 11
-2.22313
 21
-53.108
  0
LINE
  8
0
 10
-2.22313
 20
-53.108
 11
-2.74701
 21
-52.891
  0
LINE
  8
0
 10
-2.74701
 20
-52.891
 11
-3.25
 21
-52.6292
  0
LINE
  8
0
 10
-3.25
 20
-52.6292
 11
-3.72824
 21
-52.3245
  0
LINE
  8
0
 10
-3.72824
 20
-52.3245
 11
-4.17812
 21
-51.9793
  0
LINE
  8
0
 10
-4.17812
 20
-51.9793
 11
-4.59619
 21
-51.5962
  0
LINE
  8
0
 10
-4.59619
 20
-51.5962
 11
-4.97928
 21
-51.1781
  0
LINE
  8
0
 10
-4.97928
 20
-51.1781
 11
-5.32448
 21
-50.7282
  0
LINE
  8
0
 10
-5.32448
 20
-50.7282
 11
-5.62915
 21
-50.25
  0
LINE
  8
0
 10
-5.62915
 20
-50.25
 11
-5.89099
 21
-49.747
  0
LINE
  8
0
 10
-5.89099
 20
-49.747
 11
-6.108
 21
-49.2231
  0
LINE
  8
0
 10
-6.108
 20
-49.2231
 11
-6.2785
 21
-48.6823
  0
LINE
  8
0
 10
-6.2785
 20
-48.6823
 11
-6.40125
 21
-48.1287
  0
LINE
  8
0
 10
-6.40125
 20
-48.1287
 11
-6.47527
 21
-47.5665
  0
LINE
  8
0
 10
-6.47527
 20
-47.5665
 11
-6.5
 21
-47
  0
LINE
  8
0
 10
-6.5
 20
-47
 11
-6.47527
 21
-46.4335
  0
LINE
  8
0
 10
-6.47527
 20
-46.4335
 11
-6.40125
 21
-45.8713
  0
LINE
  8
0
 10
-6.40125
 20
-45.8713
 11
-6.2785
 21
-45.3177
  0
LINE
  8
0
 10
-6.2785
 20
-45.3177
 11
-6.108
 21
-44.7769
  0
LINE
  8
0
 10
-6.108
 20
-44.7769
 11
-5.89099
 21
-44.253
  0
LINE
  8
0
 10
-5.89099
 20
-44.253
 11
-5.62915
 21
-43.75
  0
LINE
  8
0
 10
-5.62915
 20
-43.75
 11
-5.32448
 21
-43.2717
  0
LINE
  8
0
 10
-5.32448
 20
-43.2717
 11
-4.97928
 21
-42.8219
  0
LINE
  8
0
 10
-4.97928
 20
-42.8219
 11
-4.59619
 21
-42.4038
  0
LINE
  8
0
 10
-4.59619
 20
-42.4038
 11
-4.17812
 21
-42.0207
  0
LINE
  8
0
 10
-4.17812
 20
-42.0207
 11
-3.72824
 21
-41.6755
  0
LINE
  8
0
 10
-3.72824
 20
-41.6755
 11
-3.25
 21
-41.3708
  0
LINE
  8
0
 10
-3.25
 20
-41.3708
 11
-2.74701
 21
-41.109
  0
LINE
  8
0
 10
-2.74701
 20
-41.109
 11
-2.22313
 21
-40.892
  0
LINE
  8
0
 10
-2.22313
 20
-40.892
 11
-1.68231
 21
-40.7215
  0
LINE
  8
0
 10
-1.68231
 20
-40.7215
 11
-1.12871
 21
-40.5987
  0
LINE
  8
0
 10
-1.12871
 20
-40.5987
 11
-0.566498
 21
-40.5247
  0
LINE
  8
0
 10
-0.566498
 20
-40.5247
 11
0
 21
-40.5
  0
LINE
  8
0
 10
0
 20
-40.5
 11
0.566498
 21
-40.5247
  0
LINE
  8
0
 10
0.566498
 20
-40.5247
 11
1.12871
 21
-40.5987
  0
LINE
  8
0
 10
1.12871
 20
-40.5987
 11
1.68231
 21
-40.7215
  0
LINE
  8
0
 10
1.68231
 20
-40.7215
 11
2.22313
 21
-40.892
  0
LINE
  8
0
 10
2.22313
 20
-40.892
 11
2.74701
 21
-41.109
  0
LINE
  8
0
 10
2.74701
 20
-41.109
 11
3.25
 21
-41.3708
  0
LINE
  8
0
 10
3.25
 20
-41.3708
 11
3.72824
 21
-41.6755
  0
LINE
  8
0
 10
3.72824
 20
-41.6755
 11
4.17812
 21
-42.0207
  0
LINE
  8
0
 10
4.17812
 20
-42.0207
 11
4.59619
 21
-42.4038
  0
LINE
  8
0
 10
4.59619
 20
-42.4038
 11
4.97928
 21
-42.8219
  0
LINE
  8
0
 10
4.97928
 20
-42.8219
 11
5.32448
 21
-43.2717
  0
LINE
  8
0
 10
5.32448
 20
-43.2717
 11
5.62915
 21
-43.75
  0
LINE
  8
0
 10
5.62915
 20
-43.75
 11
5.89099
 21
-44.253
  0
LINE
  8
0
 10
5.89099
 20
-44.253
 11
6.108
 21
-44.7769
  0
LINE
  8
0
 10
6.108
 20
-44.7769
 11
6.2785
 21
-45.3177
  0
LINE
  8
0
 10
6.2785
 20
-45.3177
 11
6.40125
 21
-45.8713
  0
LINE
  8
0
 10
6.40125
 20
-45.8713
 11
6.47527
 21
-46.4335
  0
LINE
  8
0
 10
6.47527
 20
-46.4335
 11
6.5
 21
-47
  0
LINE
  8
0
 10
6.5
 20
-47
 11
6.47527
 21
-47.5665
  0
LINE
  8
0
 10
6.47527
 20
-47.5665
 11
6.40125
 21
-48.1287
  0
LINE
  8
0
 10
6.40125
 20
-48.1287
 11
6.2785
 21
-48.6823
  0
LINE
  8
0
 10
6.2785
 20
-48.6823
 11
6.108
 21
-49.2231
  0
LINE
  8
0
 10
6.108
 20
-49.2231
 11
5.89099
 21
-49.747
  0
LINE
  8
0
 10
5.89099
 20
-49.747
 11
5.62915
 21
-50.25
  0
LINE
  8
0
 10
5.62915
 20
-50.25
 11
5.32448
 21
-50.7282
  0
LINE
  8
0
 10
5.32448
 20
-50.7282
 11
4.97928
 21
-51.1781
  0
LINE
  8
0
 10
4.97928
 20
-51.1781
 11
4.59619
 21
-51.5962
  0
LINE
  8
0
 10
4.59619
 20
-51.5962
 11
4.17812
 21
-51.9793
  0
LINE
  8
0
 10
4.17812
 20
-51.9793
 11
3.72824
 21
-52.3245
  0
LINE
  8
0
 10
3.72824
 20
-52.3245
 11
3.25
 21
-52.6292
  0
LINE
  8
0
 10
3.25
 20
-52.6292
 11
2.74701
 21
-52.891
  0
LINE
  8
0
 10
2.74701
 20
-52.891
 11
2.22313
 21
-53.108
  0
LINE
  8
0
 10
2.22313
 20
-53.108
 11
1.68231
 21
-53.2785
  0
LINE
  8
0
 10
1.68231
 20
-53.2785
 11
1.12871
 21
-53.4012
  0
LINE
  8
0
 10
1.12871
 20
-53.4012
 11
0.566498
 21
-53.4753
  0
LINE
  8
0
 10
0.566498
 20
-53.4753
 11
0
 21
-53.5
  0
LINE
  8
0
 10
0
 20
-53.5
 11
-0.566498
 21
-53.4753
  0
ENDSEC
  0
SECTION
  2
OBJECTS
  0
DICTIONARY
  0
ENDSEC
  0
EOF
