  0
SECTION
  2
BLOCKS
  0
ENDSEC
  0
SECTION
  2
ENTITIES
  0
LINE
  8
0
 10
32.7259
 20
-68.7952
 11
33.5123
 21
-68.688
  0
LINE
  8
0
 10
33.5123
 20
-68.688
 11
34.2864
 21
-68.5126
  0
LINE
  8
0
 10
34.2864
 20
-68.5126
 11
35.0422
 21
-68.2705
  0
LINE
  8
0
 10
35.0422
 20
-68.2705
 11
35.7739
 21
-67.9634
  0
LINE
  8
0
 10
35.7739
 20
-67.9634
 11
36.4763
 21
-67.5936
  0
LINE
  8
0
 10
36.4763
 20
-67.5936
 11
37.1434
 21
-67.1643
  0
LINE
  8
0
 10
37.1434
 20
-67.1643
 11
37.7711
 21
-66.6781
  0
LINE
  8
0
 10
37.7711
 20
-66.6781
 11
38.3536
 21
-66.1393
  0
LINE
  8
0
 10
38.3536
 20
-66.1393
 11
38.8872
 21
-65.5516
  0
LINE
  8
0
 10
38.8872
 20
-65.5516
 11
39.3673
 21
-64.9199
  0
LINE
  8
0
 10
39.3673
 20
-64.9199
 11
39.7906
 21
-64.2486
  0
LINE
  8
0
 10
39.7906
 20
-64.2486
 11
40.1539
 21
-63.5428
  0
LINE
  8
0
 10
40.1539
 20
-63.5428
 11
40.4542
 21
-62.8083
  0
LINE
  8
0
 10
40.4542
 20
-62.8083
 11
40.6893
 21
-62.0503
  0
LINE
  8
0
 10
40.6893
 20
-62.0503
 11
40.8561
 21
-61.2813
  0
LINE
  8
0
 10
40.8561
 20
-61.2813
 11
40.9705
 21
-60.3446
  0
LINE
  8
0
 10
40.9705
 20
-60.3446
 11
40.9796
 21
-60.2033
  0
LINE
  8
0
 10
40.9796
 20
-60.2033
 11
41.0069
 21
-59.6982
  0
LINE
  8
0
 10
41.0069
 20
-59.6982
 11
41.014
 21
-59.5477
  0
LINE
  8
0
 10
41.014
 20
-59.5477
 11
41.0365
 21
-58.9829
  0
LINE
  8
0
 10
41.0365
 20
-58.9829
 11
41.0403
 21
-58.8711
  0
LINE
  8
0
 10
41.0403
 20
-58.8711
 11
41.0584
 21
-58.2473
  0
LINE
  8
0
 10
41.0584
 20
-58.2473
 11
41.0603
 21
-58.1712
  0
LINE
  8
0
 10
41.0603
 20
-58.1712
 11
41.0748
 21
-57.4965
  0
LINE
  8
0
 10
41.0748
 20
-57.4965
 11
41.0758
 21
-57.4447
  0
LINE
  8
0
 10
41.0758
 20
-57.4447
 11
41.0882
 21
-56.7219
  0
LINE
  8
0
 10
41.0882
 20
-56.7219
 11
41.1005
 21
-55.9438
  0
LINE
  8
0
 10
41.1005
 20
-55.9438
 11
41.1115
 21
-55.2028
  0
LINE
  8
0
 10
41.1115
 20
-55.2028
 11
41.112
 21
-55.1608
  0
LINE
  8
0
 10
41.112
 20
-55.1608
 11
41.1199
 21
-54.4262
  0
LINE
  8
0
 10
41.1199
 20
-54.4262
 11
41.1203
 21
-54.3697
  0
LINE
  8
0
 10
41.1203
 20
-54.3697
 11
41.124
 21
-53.6407
  0
LINE
  8
0
 10
41.124
 20
-53.6407
 11
41.1241
 21
-53.5648
  0
LINE
  8
0
 10
41.1241
 20
-53.5648
 11
41.1224
 21
-52.8459
  0
LINE
  8
0
 10
41.1224
 20
-52.8459
 11
41.1217
 21
-52.7494
  0
LINE
  8
0
 10
41.1217
 20
-52.7494
 11
41.1136
 21
-52.0439
  0
LINE
  8
0
 10
41.1136
 20
-52.0439
 11
41.1117
 21
-51.931
  0
LINE
  8
0
 10
41.1117
 20
-51.931
 11
41.0963
 21
-51.2431
  0
LINE
  8
0
 10
41.0963
 20
-51.2431
 11
41.0926
 21
-51.1127
  0
LINE
  8
0
 10
41.0926
 20
-51.1127
 11
41.0692
 21
-50.4377
  0
LINE
  8
0
 10
41.0692
 20
-50.4377
 11
41.063
 21
-50.2901
  0
LINE
  8
0
 10
41.063
 20
-50.2901
 11
41.0311
 21
-49.6405
  0
LINE
  8
0
 10
41.0311
 20
-49.6405
 11
41.0212
 21
-49.4684
  0
LINE
  8
0
 10
41.0212
 20
-49.4684
 11
40.9806
 21
-48.8473
  0
LINE
  8
0
 10
40.9806
 20
-48.8473
 11
40.9662
 21
-48.6544
  0
LINE
  8
0
 10
40.9662
 20
-48.6544
 11
40.9166
 21
-48.0619
  0
LINE
  8
0
 10
40.9166
 20
-48.0619
 11
40.8965
 21
-47.8481
  0
LINE
  8
0
 10
40.8965
 20
-47.8481
 11
40.8385
 21
-47.2926
  0
LINE
  8
0
 10
40.8385
 20
-47.2926
 11
40.8108
 21
-47.0536
  0
LINE
  8
0
 10
40.8108
 20
-47.0536
 11
40.7463
 21
-46.5475
  0
LINE
  8
0
 10
40.7463
 20
-46.5475
 11
40.7063
 21
-46.2645
  0
LINE
  8
0
 10
40.7063
 20
-46.2645
 11
40.6329
 21
-45.7916
  0
LINE
  8
0
 10
40.6329
 20
-45.7916
 11
40.5852
 21
-45.5092
  0
LINE
  8
0
 10
40.5852
 20
-45.5092
 11
40.4937
 21
-45.0099
  0
LINE
  8
0
 10
40.4937
 20
-45.0099
 11
40.4468
 21
-44.7693
  0
LINE
  8
0
 10
40.4468
 20
-44.7693
 11
40.3323
 21
-44.217
  0
LINE
  8
0
 10
40.3323
 20
-44.217
 11
40.2887
 21
-44.0165
  0
LINE
  8
0
 10
40.2887
 20
-44.0165
 11
40.1513
 21
-43.4131
  0
LINE
  8
0
 10
40.1513
 20
-43.4131
 11
40.113
 21
-43.2511
  0
LINE
  8
0
 10
40.113
 20
-43.2511
 11
39.9547
 21
-42.603
  0
LINE
  8
0
 10
39.9547
 20
-42.603
 11
39.9232
 21
-42.4774
  0
LINE
  8
0
 10
39.9232
 20
-42.4774
 11
39.7427
 21
-41.776
  0
LINE
  8
0
 10
39.7427
 20
-41.776
 11
39.7209
 21
-41.6926
  0
LINE
  8
0
 10
39.7209
 20
-41.6926
 11
39.5216
 21
-40.9448
  0
LINE
  8
0
 10
39.5216
 20
-40.9448
 11
39.5089
 21
-40.8977
  0
LINE
  8
0
 10
39.5089
 20
-40.8977
 11
39.2892
 21
-40.0894
  0
LINE
  8
0
 10
39.2892
 20
-40.0894
 11
39.062
 21
-39.2589
  0
LINE
  8
0
 10
39.062
 20
-39.2589
 11
38.8338
 21
-38.4183
  0
LINE
  8
0
 10
38.8338
 20
-38.4183
 11
38.6072
 21
-37.5651
  0
LINE
  8
0
 10
38.6072
 20
-37.5651
 11
38.3898
 21
-36.7162
  0
LINE
  8
0
 10
38.3898
 20
-36.7162
 11
38.199
 21
-35.9778
  0
LINE
  8
0
 10
38.199
 20
-35.9778
 11
38.1638
 21
-35.8453
  0
LINE
  8
0
 10
38.1638
 20
-35.8453
 11
37.9756
 21
-35.155
  0
LINE
  8
0
 10
37.9756
 20
-35.155
 11
37.9501
 21
-35.0633
  0
LINE
  8
0
 10
37.9501
 20
-35.0633
 11
37.7407
 21
-34.3225
  0
LINE
  8
0
 10
37.7407
 20
-34.3225
 11
37.726
 21
-34.2711
  0
LINE
  8
0
 10
37.726
 20
-34.2711
 11
37.4933
 21
-33.4644
  0
LINE
  8
0
 10
37.4933
 20
-33.4644
 11
37.4456
 21
-33.3
  0
LINE
  8
0
 10
37.4456
 20
-33.3
 11
-37.4456
 21
-33.3
  0
LINE
  8
0
 10
-37.4456
 20
-33.3
 11
-37.4933
 21
-33.4644
  0
LINE
  8
0
 10
-37.4933
 20
-33.4644
 11
-37.726
 21
-34.2711
  0
LINE
  8
0
 10
-37.726
 20
-34.2711
 11
-37.7407
 21
-34.3225
  0
LINE
  8
0
 10
-37.7407
 20
-34.3225
 11
-37.9501
 21
-35.0633
  0
LINE
  8
0
 10
-37.9501
 20
-35.0633
 11
-37.9756
 21
-35.155
  0
LINE
  8
0
 10
-37.9756
 20
-35.155
 11
-38.1638
 21
-35.8453
  0
LINE
  8
0
 10
-38.1638
 20
-35.8453
 11
-38.199
 21
-35.9778
  0
LINE
  8
0
 10
-38.199
 20
-35.9778
 11
-38.3898
 21
-36.7162
  0
LINE
  8
0
 10
-38.3898
 20
-36.7162
 11
-38.6072
 21
-37.5651
  0
LINE
  8
0
 10
-38.6072
 20
-37.5651
 11
-38.8338
 21
-38.4183
  0
LINE
  8
0
 10
-38.8338
 20
-38.4183
 11
-39.062
 21
-39.2589
  0
LINE
  8
0
 10
-39.062
 20
-39.2589
 11
-39.2892
 21
-40.0894
  0
LINE
  8
0
 10
-39.2892
 20
-40.0894
 11
-39.5089
 21
-40.8977
  0
LINE
  8
0
 10
-39.5089
 20
-40.8977
 11
-39.5216
 21
-40.9448
  0
LINE
  8
0
 10
-39.5216
 20
-40.9448
 11
-39.7209
 21
-41.6926
  0
LINE
  8
0
 10
-39.7209
 20
-41.6926
 11
-39.7427
 21
-41.776
  0
LINE
  8
0
 10
-39.7427
 20
-41.776
 11
-39.9232
 21
-42.4774
  0
LINE
  8
0
 10
-39.9232
 20
-42.4774
 11
-39.9547
 21
-42.603
  0
LINE
  8
0
 10
-39.9547
 20
-42.603
 11
-40.113
 21
-43.2511
  0
LINE
  8
0
 10
-40.113
 20
-43.2511
 11
-40.1513
 21
-43.4131
  0
LINE
  8
0
 10
-40.1513
 20
-43.4131
 11
-40.2887
 21
-44.0165
  0
LINE
  8
0
 10
-40.2887
 20
-44.0165
 11
-40.3323
 21
-44.217
  0
LINE
  8
0
 10
-40.3323
 20
-44.217
 11
-40.4468
 21
-44.7693
  0
LINE
  8
0
 10
-40.4468
 20
-44.7693
 11
-40.4937
 21
-45.0099
  0
LINE
  8
0
 10
-40.4937
 20
-45.0099
 11
-40.5852
 21
-45.5092
  0
LINE
  8
0
 10
-40.5852
 20
-45.5092
 11
-40.6329
 21
-45.7916
  0
LINE
  8
0
 10
-40.6329
 20
-45.7916
 11
-40.7063
 21
-46.2645
  0
LINE
  8
0
 10
-40.7063
 20
-46.2645
 11
-40.7463
 21
-46.5475
  0
LINE
  8
0
 10
-40.7463
 20
-46.5475
 11
-40.8108
 21
-47.0536
  0
LINE
  8
0
 10
-40.8108
 20
-47.0536
 11
-40.8385
 21
-47.2926
  0
LINE
  8
0
 10
-40.8385
 20
-47.2926
 11
-40.8965
 21
-47.8481
  0
LINE
  8
0
 10
-40.8965
 20
-47.8481
 11
-40.9166
 21
-48.0619
  0
LINE
  8
0
 10
-40.9166
 20
-48.0619
 11
-40.9662
 21
-48.6544
  0
LINE
  8
0
 10
-40.9662
 20
-48.6544
 11
-40.9806
 21
-48.8473
  0
LINE
  8
0
 10
-40.9806
 20
-48.8473
 11
-41.0212
 21
-49.4684
  0
LINE
  8
0
 10
-41.0212
 20
-49.4684
 11
-41.0311
 21
-49.6405
  0
LINE
  8
0
 10
-41.0311
 20
-49.6405
 11
-41.063
 21
-50.2901
  0
LINE
  8
0
 10
-41.063
 20
-50.2901
 11
-41.0692
 21
-50.4377
  0
LINE
  8
0
 10
-41.0692
 20
-50.4377
 11
-41.0926
 21
-51.1127
  0
LINE
  8
0
 10
-41.0926
 20
-51.1127
 11
-41.0963
 21
-51.2431
  0
LINE
  8
0
 10
-41.0963
 20
-51.2431
 11
-41.1117
 21
-51.931
  0
LINE
  8
0
 10
-41.1117
 20
-51.931
 11
-41.1136
 21
-52.0439
  0
LINE
  8
0
 10
-41.1136
 20
-52.0439
 11
-41.1217
 21
-52.7494
  0
LINE
  8
0
 10
-41.1217
 20
-52.7494
 11
-41.1224
 21
-52.8459
  0
LINE
  8
0
 10
-41.1224
 20
-52.8459
 11
-41.1241
 21
-53.5648
  0
LINE
  8
0
 10
-41.1241
 20
-53.5648
 11
-41.124
 21
-53.6407
  0
LINE
  8
0
 10
-41.124
 20
-53.6407
 11
-41.1203
 21
-54.3697
  0
LINE
  8
0
 10
-41.1203
 20
-54.3697
 11
-41.1199
 21
-54.4262
  0
LINE
  8
0
 10
-41.1199
 20
-54.4262
 11
-41.112
 21
-55.1608
  0
LINE
  8
0
 10
-41.112
 20
-55.1608
 11
-41.1115
 21
-55.2028
  0
LINE
  8
0
 10
-41.1115
 20
-55.2028
 11
-41.1003
 21
-55.9572
  0
LINE
  8
0
 10
-41.1003
 20
-55.9572
 11
-41.088
 21
-56.7334
  0
LINE
  8
0
 10
-41.088
 20
-56.7334
 11
-41.0758
 21
-57.4447
  0
LINE
  8
0
 10
-41.0758
 20
-57.4447
 11
-41.0748
 21
-57.4965
  0
LINE
  8
0
 10
-41.0748
 20
-57.4965
 11
-41.0603
 21
-58.1712
  0
LINE
  8
0
 10
-41.0603
 20
-58.1712
 11
-41.0584
 21
-58.2473
  0
LINE
  8
0
 10
-41.0584
 20
-58.2473
 11
-41.0403
 21
-58.8711
  0
LINE
  8
0
 10
-41.0403
 20
-58.8711
 11
-41.0365
 21
-58.9829
  0
LINE
  8
0
 10
-41.0365
 20
-58.9829
 11
-41.014
 21
-59.5477
  0
LINE
  8
0
 10
-41.014
 20
-59.5477
 11
-41.0069
 21
-59.6982
  0
LINE
  8
0
 10
-41.0069
 20
-59.6982
 11
-40.9796
 21
-60.2033
  0
LINE
  8
0
 10
-40.9796
 20
-60.2033
 11
-40.9701
 21
-60.3511
  0
LINE
  8
0
 10
-40.9701
 20
-60.3511
 11
-40.8715
 21
-61.1906
  0
LINE
  8
0
 10
-40.8715
 20
-61.1906
 11
-40.7106
 21
-61.9678
  0
LINE
  8
0
 10
-40.7106
 20
-61.9678
 11
-40.4825
 21
-62.728
  0
LINE
  8
0
 10
-40.4825
 20
-62.728
 11
-40.1891
 21
-63.4653
  0
LINE
  8
0
 10
-40.1891
 20
-63.4653
 11
-39.8326
 21
-64.1743
  0
LINE
  8
0
 10
-39.8326
 20
-64.1743
 11
-39.4155
 21
-64.8497
  0
LINE
  8
0
 10
-39.4155
 20
-64.8497
 11
-38.9412
 21
-65.4859
  0
LINE
  8
0
 10
-38.9412
 20
-65.4859
 11
-38.4134
 21
-66.0784
  0
LINE
  8
0
 10
-38.4134
 20
-66.0784
 11
-37.8357
 21
-66.6228
  0
LINE
  8
0
 10
-37.8357
 20
-66.6228
 11
-37.2129
 21
-67.1147
  0
LINE
  8
0
 10
-37.2129
 20
-67.1147
 11
-36.5496
 21
-67.5504
  0
LINE
  8
0
 10
-36.5496
 20
-67.5504
 11
-35.8508
 21
-67.9267
  0
LINE
  8
0
 10
-35.8508
 20
-67.9267
 11
-35.122
 21
-68.2406
  0
LINE
  8
0
 10
-35.122
 20
-68.2406
 11
-34.3684
 21
-68.4898
  0
LINE
  8
0
 10
-34.3684
 20
-68.4898
 11
-33.596
 21
-68.6724
  0
LINE
  8
0
 10
-33.596
 20
-68.6724
 11
-32.8108
 21
-68.787
  0
LINE
  8
0
 10
-32.8108
 20
-68.787
 11
-32.0252
 21
-68.8323
  0
LINE
  8
0
 10
-32.0252
 20
-68.8323
 11
-31.0704
 21
-68.7995
  0
LINE
  8
0
 10
-31.0704
 20
-68.7995
 11
-30.6751
 21
-68.7668
  0
LINE
  8
0
 10
-30.6751
 20
-68.7668
 11
-30.4959
 21
-68.7504
  0
LINE
  8
0
 10
-30.4959
 20
-68.7504
 11
-29.7162
 21
-68.6723
  0
LINE
  8
0
 10
-29.7162
 20
-68.6723
 11
-29.6051
 21
-68.6606
  0
LINE
  8
0
 10
-29.6051
 20
-68.6606
 11
-28.7008
 21
-68.5602
  0
LINE
  8
0
 10
-28.7008
 20
-68.5602
 11
-28.6514
 21
-68.5546
  0
LINE
  8
0
 10
-28.6514
 20
-68.5546
 11
-27.6365
 21
-68.4365
  0
LINE
  8
0
 10
-27.6365
 20
-68.4365
 11
-26.5347
 21
-68.3077
  0
LINE
  8
0
 10
-26.5347
 20
-68.3077
 11
-25.3828
 21
-68.1776
  0
LINE
  8
0
 10
-25.3828
 20
-68.1776
 11
-24.1653
 21
-68.0496
  0
LINE
  8
0
 10
-24.1653
 20
-68.0496
 11
-22.8899
 21
-67.9297
  0
LINE
  8
0
 10
-22.8899
 20
-67.9297
 11
-21.5543
 21
-67.8228
  0
LINE
  8
0
 10
-21.5543
 20
-67.8228
 11
-20.1691
 21
-67.7349
  0
LINE
  8
0
 10
-20.1691
 20
-67.7349
 11
-18.7288
 21
-67.6585
  0
LINE
  8
0
 10
-18.7288
 20
-67.6585
 11
-17.2082
 21
-67.5824
  0
LINE
  8
0
 10
-17.2082
 20
-67.5824
 11
-15.6276
 21
-67.5081
  0
LINE
  8
0
 10
-15.6276
 20
-67.5081
 11
-13.9718
 21
-67.4358
  0
LINE
  8
0
 10
-13.9718
 20
-67.4358
 11
-12.2747
 21
-67.3676
  0
LINE
  8
0
 10
-12.2747
 20
-67.3676
 11
-10.537
 21
-67.3042
  0
LINE
  8
0
 10
-10.537
 20
-67.3042
 11
-8.77419
 21
-67.2471
  0
LINE
  8
0
 10
-8.77419
 20
-67.2471
 11
-6.99959
 21
-67.1976
  0
LINE
  8
0
 10
-6.99959
 20
-67.1976
 11
-5.2222
 21
-67.1568
  0
LINE
  8
0
 10
-5.2222
 20
-67.1568
 11
-3.45518
 21
-67.1261
  0
LINE
  8
0
 10
-3.45518
 20
-67.1261
 11
-1.71181
 21
-67.1067
  0
LINE
  8
0
 10
-1.71181
 20
-67.1067
 11
0
 21
-67.1
  0
LINE
  8
0
 10
0
 20
-67.1
 11
1.71181
 21
-67.1067
  0
LINE
  8
0
 10
1.71181
 20
-67.1067
 11
3.45518
 21
-67.1261
  0
LINE
  8
0
 10
3.45518
 20
-67.1261
 11
5.2222
 21
-67.1568
  0
LINE
  8
0
 10
5.2222
 20
-67.1568
 11
6.99959
 21
-67.1976
  0
LINE
  8
0
 10
6.99959
 20
-67.1976
 11
8.77419
 21
-67.2471
  0
LINE
  8
0
 10
8.77419
 20
-67.2471
 11
10.537
 21
-67.3042
  0
LINE
  8
0
 10
10.537
 20
-67.3042
 11
12.2747
 21
-67.3676
  0
LINE
  8
0
 10
12.2747
 20
-67.3676
 11
13.9718
 21
-67.4358
  0
LINE
  8
0
 10
13.9718
 20
-67.4358
 11
15.6276
 21
-67.5081
  0
LINE
  8
0
 10
15.6276
 20
-67.5081
 11
17.2082
 21
-67.5824
  0
LINE
  8
0
 10
17.2082
 20
-67.5824
 11
18.7288
 21
-67.6585
  0
LINE
  8
0
 10
18.7288
 20
-67.6585
 11
20.1691
 21
-67.7349
  0
LINE
  8
0
 10
20.1691
 20
-67.7349
 11
21.5543
 21
-67.8228
  0
LINE
  8
0
 10
21.5543
 20
-67.8228
 11
22.8899
 21
-67.9297
  0
LINE
  8
0
 10
22.8899
 20
-67.9297
 11
24.1653
 21
-68.0496
  0
LINE
  8
0
 10
24.1653
 20
-68.0496
 11
25.3828
 21
-68.1776
  0
LINE
  8
0
 10
25.3828
 20
-68.1776
 11
26.5347
 21
-68.3077
  0
LINE
  8
0
 10
26.5347
 20
-68.3077
 11
27.6406
 21
-68.4369
  0
LINE
  8
0
 10
27.6406
 20
-68.4369
 11
28.6521
 21
-68.5547
  0
LINE
  8
0
 10
28.6521
 20
-68.5547
 11
28.7008
 21
-68.5602
  0
LINE
  8
0
 10
28.7008
 20
-68.5602
 11
29.6051
 21
-68.6606
  0
LINE
  8
0
 10
29.6051
 20
-68.6606
 11
29.7162
 21
-68.6723
  0
LINE
  8
0
 10
29.7162
 20
-68.6723
 11
30.4959
 21
-68.7504
  0
LINE
  8
0
 10
30.4959
 20
-68.7504
 11
30.6751
 21
-68.7668
  0
LINE
  8
0
 10
30.6751
 20
-68.7668
 11
31.077
 21
-68.8
  0
LINE
  8
0
 10
31.077
 20
-68.8
 11
31.9334
 21
-68.8335
  0
LINE
  8
0
 10
31.9334
 20
-68.8335
 11
32.7259
 21
-68.7952
  0
LINE
  8
0
 10
-30.0959
 20
-37.5958
 11
-30.191
 21
-37.5833
  0
LINE
  8
0
 10
-30.191
 20
-37.5833
 11
-30.2847
 21
-37.5625
  0
LINE
  8
0
 10
-30.2847
 20
-37.5625
 11
-30.3762
 21
-37.5337
  0
LINE
  8
0
 10
-30.3762
 20
-37.5337
 11
-30.4649
 21
-37.4969
  0
LINE
  8
0
 10
-30.4649
 20
-37.4969
 11
-30.55
 21
-37.4526
  0
LINE
  8
0
 10
-30.55
 20
-37.4526
 11
-30.6309
 21
-37.4011
  0
LINE
  8
0
 10
-30.6309
 20
-37.4011
 11
-30.7071
 21
-37.3426
  0
LINE
  8
0
 10
-30.7071
 20
-37.3426
 11
-30.7778
 21
-37.2778
  0
LINE
  8
0
 10
-30.7778
 20
-37.2778
 11
-30.8426
 21
-37.2071
  0
LINE
  8
0
 10
-30.8426
 20
-37.2071
 11
-30.9011
 21
-37.1309
  0
LINE
  8
0
 10
-30.9011
 20
-37.1309
 11
-30.9526
 21
-37.05
  0
LINE
  8
0
 10
-30.9526
 20
-37.05
 11
-30.9969
 21
-36.9649
  0
LINE
  8
0
 10
-30.9969
 20
-36.9649
 11
-31.0337
 21
-36.8762
  0
LINE
  8
0
 10
-31.0337
 20
-36.8762
 11
-31.0625
 21
-36.7847
  0
LINE
  8
0
 10
-31.0625
 20
-36.7847
 11
-31.0833
 21
-36.691
  0
LINE
  8
0
 10
-31.0833
 20
-36.691
 11
-31.0958
 21
-36.5959
  0
LINE
  8
0
 10
-31.0958
 20
-36.5959
 11
-31.1
 21
-36.5
  0
LINE
  8
0
 10
-31.1
 20
-36.5
 11
-31.0958
 21
-36.4041
  0
LINE
  8
0
 10
-31.0958
 20
-36.4041
 11
-31.0833
 21
-36.309
  0
LINE
  8
0
 10
-31.0833
 20
-36.309
 11
-31.0625
 21
-36.2153
  0
LINE
  8
0
 10
-31.0625
 20
-36.2153
 11
-31.0337
 21
-36.1238
  0
LINE
  8
0
 10
-31.0337
 20
-36.1238
 11
-30.9969
 21
-36.0351
  0
LINE
  8
0
 10
-30.9969
 20
-36.0351
 11
-30.9526
 21
-35.95
  0
LINE
  8
0
 10
-30.9526
 20
-35.95
 11
-30.9011
 21
-35.8691
  0
LINE
  8
0
 10
-30.9011
 20
-35.8691
 11
-30.8426
 21
-35.7929
  0
LINE
  8
0
 10
-30.8426
 20
-35.7929
 11
-30.7778
 21
-35.7222
  0
LINE
  8
0
 10
-30.7778
 20
-35.7222
 11
-30.7071
 21
-35.6573
  0
LINE
  8
0
 10
-30.7071
 20
-35.6573
 11
-30.6309
 21
-35.5989
  0
LINE
  8
0
 10
-30.6309
 20
-35.5989
 11
-30.55
 21
-35.5474
  0
LINE
  8
0
 10
-30.55
 20
-35.5474
 11
-30.4649
 21
-35.5031
  0
LINE
  8
0
 10
-30.4649
 20
-35.5031
 11
-30.3762
 21
-35.4663
  0
LINE
  8
0
 10
-30.3762
 20
-35.4663
 11
-30.2847
 21
-35.4375
  0
LINE
  8
0
 10
-30.2847
 20
-35.4375
 11
-30.191
 21
-35.4167
  0
LINE
  8
0
 10
-30.191
 20
-35.4167
 11
-30.0959
 21
-35.4042
  0
LINE
  8
0
 10
-30.0959
 20
-35.4042
 11
-30
 21
-35.4
  0
LINE
  8
0
 10
-30
 20
-35.4
 11
-29.9041
 21
-35.4042
  0
LINE
  8
0
 10
-29.9041
 20
-35.4042
 11
-29.809
 21
-35.4167
  0
LINE
  8
0
 10
-29.809
 20
-35.4167
 11
-29.7153
 21
-35.4375
  0
LINE
  8
0
 10
-29.7153
 20
-35.4375
 11
-29.6238
 21
-35.4663
  0
LINE
  8
0
 10
-29.6238
 20
-35.4663
 11
-29.5351
 21
-35.5031
  0
LINE
  8
0
 10
-29.5351
 20
-35.5031
 11
-29.45
 21
-35.5474
  0
LINE
  8
0
 10
-29.45
 20
-35.5474
 11
-29.3691
 21
-35.5989
  0
LINE
  8
0
 10
-29.3691
 20
-35.5989
 11
-29.2929
 21
-35.6573
  0
LINE
  8
0
 10
-29.2929
 20
-35.6573
 11
-29.2222
 21
-35.7222
  0
LINE
  8
0
 10
-29.2222
 20
-35.7222
 11
-29.1573
 21
-35.7929
  0
LINE
  8
0
 10
-29.1573
 20
-35.7929
 11
-29.0989
 21
-35.8691
  0
LINE
  8
0
 10
-29.0989
 20
-35.8691
 11
-29.0474
 21
-35.95
  0
LINE
  8
0
 10
-29.0474
 20
-35.95
 11
-29.0031
 21
-36.0351
  0
LINE
  8
0
 10
-29.0031
 20
-36.0351
 11
-28.9663
 21
-36.1238
  0
LINE
  8
0
 10
-28.9663
 20
-36.1238
 11
-28.9375
 21
-36.2153
  0
LINE
  8
0
 10
-28.9375
 20
-36.2153
 11
-28.9167
 21
-36.309
  0
LINE
  8
0
 10
-28.9167
 20
-36.309
 11
-28.9042
 21
-36.4041
  0
LINE
  8
0
 10
-28.9042
 20
-36.4041
 11
-28.9
 21
-36.5
  0
LINE
  8
0
 10
-28.9
 20
-36.5
 11
-28.9042
 21
-36.5959
  0
LINE
  8
0
 10
-28.9042
 20
-36.5959
 11
-28.9167
 21
-36.691
  0
LINE
  8
0
 10
-28.9167
 20
-36.691
 11
-28.9375
 21
-36.7847
  0
LINE
  8
0
 10
-28.9375
 20
-36.7847
 11
-28.9663
 21
-36.8762
  0
LINE
  8
0
 10
-28.9663
 20
-36.8762
 11
-29.0031
 21
-36.9649
  0
LINE
  8
0
 10
-29.0031
 20
-36.9649
 11
-29.0474
 21
-37.05
  0
LINE
  8
0
 10
-29.0474
 20
-37.05
 11
-29.0989
 21
-37.1309
  0
LINE
  8
0
 10
-29.0989
 20
-37.1309
 11
-29.1573
 21
-37.2071
  0
LINE
  8
0
 10
-29.1573
 20
-37.2071
 11
-29.2222
 21
-37.2778
  0
LINE
  8
0
 10
-29.2222
 20
-37.2778
 11
-29.2929
 21
-37.3426
  0
LINE
  8
0
 10
-29.2929
 20
-37.3426
 11
-29.3691
 21
-37.4011
  0
LINE
  8
0
 10
-29.3691
 20
-37.4011
 11
-29.45
 21
-37.4526
  0
LINE
  8
0
 10
-29.45
 20
-37.4526
 11
-29.5351
 21
-37.4969
  0
LINE
  8
0
 10
-29.5351
 20
-37.4969
 11
-29.6238
 21
-37.5337
  0
LINE
  8
0
 10
-29.6238
 20
-37.5337
 11
-29.7153
 21
-37.5625
  0
LINE
  8
0
 10
-29.7153
 20
-37.5625
 11
-29.809
 21
-37.5833
  0
LINE
  8
0
 10
-29.809
 20
-37.5833
 11
-29.9041
 21
-37.5958
  0
LINE
  8
0
 10
-29.9041
 20
-37.5958
 11
-30
 21
-37.6
  0
LINE
  8
0
 10
-30
 20
-37.6
 11
-30.0959
 21
-37.5958
  0
LINE
  8
0
 10
29.9041
 20
-37.5958
 11
29.809
 21
-37.5833
  0
LINE
  8
0
 10
29.809
 20
-37.5833
 11
29.7153
 21
-37.5625
  0
LINE
  8
0
 10
29.7153
 20
-37.5625
 11
29.6238
 21
-37.5337
  0
LINE
  8
0
 10
29.6238
 20
-37.5337
 11
29.5351
 21
-37.4969
  0
LINE
  8
0
 10
29.5351
 20
-37.4969
 11
29.45
 21
-37.4526
  0
LINE
  8
0
 10
29.45
 20
-37.4526
 11
29.3691
 21
-37.4011
  0
LINE
  8
0
 10
29.3691
 20
-37.4011
 11
29.2929
 21
-37.3426
  0
LINE
  8
0
 10
29.2929
 20
-37.3426
 11
29.2222
 21
-37.2778
  0
LINE
  8
0
 10
29.2222
 20
-37.2778
 11
29.1573
 21
-37.2071
  0
LINE
  8
0
 10
29.1573
 20
-37.2071
 11
29.0989
 21
-37.1309
  0
LINE
  8
0
 10
29.0989
 20
-37.1309
 11
29.0474
 21
-37.05
  0
LINE
  8
0
 10
29.0474
 20
-37.05
 11
29.0031
 21
-36.9649
  0
LINE
  8
0
 10
29.0031
 20
-36.9649
 11
28.9663
 21
-36.8762
  0
LINE
  8
0
 10
28.9663
 20
-36.8762
 11
28.9375
 21
-36.7847
  0
LINE
  8
0
 10
28.9375
 20
-36.7847
 11
28.9167
 21
-36.691
  0
LINE
  8
0
 10
28.9167
 20
-36.691
 11
28.9042
 21
-36.5959
  0
LINE
  8
0
 10
28.9042
 20
-36.5959
 11
28.9
 21
-36.5
  0
LINE
  8
0
 10
28.9
 20
-36.5
 11
28.9042
 21
-36.4041
  0
LINE
  8
0
 10
28.9042
 20
-36.4041
 11
28.9167
 21
-36.309
  0
LINE
  8
0
 10
28.9167
 20
-36.309
 11
28.9375
 21
-36.2153
  0
LINE
  8
0
 10
28.9375
 20
-36.2153
 11
28.9663
 21
-36.1238
  0
LINE
  8
0
 10
28.9663
 20
-36.1238
 11
29.0031
 21
-36.0351
  0
LINE
  8
0
 10
29.0031
 20
-36.0351
 11
29.0474
 21
-35.95
  0
LINE
  8
0
 10
29.0474
 20
-35.95
 11
29.0989
 21
-35.8691
  0
LINE
  8
0
 10
29.0989
 20
-35.8691
 11
29.1573
 21
-35.7929
  0
LINE
  8
0
 10
29.1573
 20
-35.7929
 11
29.2222
 21
-35.7222
  0
LINE
  8
0
 10
29.2222
 20
-35.7222
 11
29.2929
 21
-35.6573
  0
LINE
  8
0
 10
29.2929
 20
-35.6573
 11
29.3691
 21
-35.5989
  0
LINE
  8
0
 10
29.3691
 20
-35.5989
 11
29.45
 21
-35.5474
  0
LINE
  8
0
 10
29.45
 20
-35.5474
 11
29.5351
 21
-35.5031
  0
LINE
  8
0
 10
29.5351
 20
-35.5031
 11
29.6238
 21
-35.4663
  0
LINE
  8
0
 10
29.6238
 20
-35.4663
 11
29.7153
 21
-35.4375
  0
LINE
  8
0
 10
29.7153
 20
-35.4375
 11
29.809
 21
-35.4167
  0
LINE
  8
0
 10
29.809
 20
-35.4167
 11
29.9041
 21
-35.4042
  0
LINE
  8
0
 10
29.9041
 20
-35.4042
 11
30
 21
-35.4
  0
LINE
  8
0
 10
30
 20
-35.4
 11
30.0959
 21
-35.4042
  0
LINE
  8
0
 10
30.0959
 20
-35.4042
 11
30.191
 21
-35.4167
  0
LINE
  8
0
 10
30.191
 20
-35.4167
 11
30.2847
 21
-35.4375
  0
LINE
  8
0
 10
30.2847
 20
-35.4375
 11
30.3762
 21
-35.4663
  0
LINE
  8
0
 10
30.3762
 20
-35.4663
 11
30.4649
 21
-35.5031
  0
LINE
  8
0
 10
30.4649
 20
-35.5031
 11
30.55
 21
-35.5474
  0
LINE
  8
0
 10
30.55
 20
-35.5474
 11
30.6309
 21
-35.5989
  0
LINE
  8
0
 10
30.6309
 20
-35.5989
 11
30.7071
 21
-35.6573
  0
LINE
  8
0
 10
30.7071
 20
-35.6573
 11
30.7778
 21
-35.7222
  0
LINE
  8
0
 10
30.7778
 20
-35.7222
 11
30.8426
 21
-35.7929
  0
LINE
  8
0
 10
30.8426
 20
-35.7929
 11
30.9011
 21
-35.8691
  0
LINE
  8
0
 10
30.9011
 20
-35.8691
 11
30.9526
 21
-35.95
  0
LINE
  8
0
 10
30.9526
 20
-35.95
 11
30.9969
 21
-36.0351
  0
LINE
  8
0
 10
30.9969
 20
-36.0351
 11
31.0337
 21
-36.1238
  0
LINE
  8
0
 10
31.0337
 20
-36.1238
 11
31.0625
 21
-36.2153
  0
LINE
  8
0
 10
31.0625
 20
-36.2153
 11
31.0833
 21
-36.309
  0
LINE
  8
0
 10
31.0833
 20
-36.309
 11
31.0958
 21
-36.4041
  0
LINE
  8
0
 10
31.0958
 20
-36.4041
 11
31.1
 21
-36.5
  0
LINE
  8
0
 10
31.1
 20
-36.5
 11
31.0958
 21
-36.5959
  0
LINE
  8
0
 10
31.0958
 20
-36.5959
 11
31.0833
 21
-36.691
  0
LINE
  8
0
 10
31.0833
 20
-36.691
 11
31.0625
 21
-36.7847
  0
LINE
  8
0
 10
31.0625
 20
-36.7847
 11
31.0337
 21
-36.8762
  0
LINE
  8
0
 10
31.0337
 20
-36.8762
 11
30.9969
 21
-36.9649
  0
LINE
  8
0
 10
30.9969
 20
-36.9649
 11
30.9526
 21
-37.05
  0
LINE
  8
0
 10
30.9526
 20
-37.05
 11
30.9011
 21
-37.1309
  0
LINE
  8
0
 10
30.9011
 20
-37.1309
 11
30.8426
 21
-37.2071
  0
LINE
  8
0
 10
30.8426
 20
-37.2071
 11
30.7778
 21
-37.2778
  0
LINE
  8
0
 10
30.7778
 20
-37.2778
 11
30.7071
 21
-37.3426
  0
LINE
  8
0
 10
30.7071
 20
-37.3426
 11
30.6309
 21
-37.4011
  0
LINE
  8
0
 10
30.6309
 20
-37.4011
 11
30.55
 21
-37.4526
  0
LINE
  8
0
 10
30.55
 20
-37.4526
 11
30.4649
 21
-37.4969
  0
LINE
  8
0
 10
30.4649
 20
-37.4969
 11
30.3762
 21
-37.5337
  0
LINE
  8
0
 10
30.3762
 20
-37.5337
 11
30.2847
 21
-37.5625
  0
LINE
  8
0
 10
30.2847
 20
-37.5625
 11
30.191
 21
-37.5833
  0
LINE
  8
0
 10
30.191
 20
-37.5833
 11
30.0959
 21
-37.5958
  0
LINE
  8
0
 10
30.0959
 20
-37.5958
 11
30
 21
-37.6
  0
LINE
  8
0
 10
30
 20
-37.6
 11
29.9041
 21
-37.5958
  0
LINE
  8
0
 10
-0.566498
 20
-53.4753
 11
-1.12871
 21
-53.4012
  0
LINE
  8
0
 10
-1.12871
 20
-53.4012
 11
-1.68231
 21
-53.2785
  0
LINE
  8
0
 10
-1.68231
 20
-53.2785
 11
-2.22313
 21
-53.108
  0
LINE
  8
0
 10
-2.22313
 20
-53.108
 11
-2.74701
 21
-52.891
  0
LINE
  8
0
 10
-2.74701
 20
-52.891
 11
-3.25
 21
-52.6292
  0
LINE
  8
0
 10
-3.25
 20
-52.6292
 11
-3.72824
 21
-52.3245
  0
LINE
  8
0
 10
-3.72824
 20
-52.3245
 11
-4.17812
 21
-51.9793
  0
LINE
  8
0
 10
-4.17812
 20
-51.9793
 11
-4.59619
 21
-51.5962
  0
LINE
  8
0
 10
-4.59619
 20
-51.5962
 11
-4.97928
 21
-51.1781
  0
LINE
  8
0
 10
-4.97928
 20
-51.1781
 11
-5.32448
 21
-50.7282
  0
LINE
  8
0
 10
-5.32448
 20
-50.7282
 11
-5.62915
 21
-50.25
  0
LINE
  8
0
 10
-5.62915
 20
-50.25
 11
-5.89099
 21
-49.747
  0
LINE
  8
0
 10
-5.89099
 20
-49.747
 11
-6.108
 21
-49.2231
  0
LINE
  8
0
 10
-6.108
 20
-49.2231
 11
-6.2785
 21
-48.6823
  0
LINE
  8
0
 10
-6.2785
 20
-48.6823
 11
-6.40125
 21
-48.1287
  0
LINE
  8
0
 10
-6.40125
 20
-48.1287
 11
-6.47527
 21
-47.5665
  0
LINE
  8
0
 10
-6.47527
 20
-47.5665
 11
-6.5
 21
-47
  0
LINE
  8
0
 10
-6.5
 20
-47
 11
-6.47527
 21
-46.4335
  0
LINE
  8
0
 10
-6.47527
 20
-46.4335
 11
-6.40125
 21
-45.8713
  0
LINE
  8
0
 10
-6.40125
 20
-45.8713
 11
-6.2785
 21
-45.3177
  0
LINE
  8
0
 10
-6.2785
 20
-45.3177
 11
-6.108
 21
-44.7769
  0
LINE
  8
0
 10
-6.108
 20
-44.7769
 11
-5.89099
 21
-44.253
  0
LINE
  8
0
 10
-5.89099
 20
-44.253
 11
-5.62915
 21
-43.75
  0
LINE
  8
0
 10
-5.62915
 20
-43.75
 11
-5.32448
 21
-43.2717
  0
LINE
  8
0
 10
-5.32448
 20
-43.2717
 11
-4.97928
 21
-42.8219
  0
LINE
  8
0
 10
-4.97928
 20
-42.8219
 11
-4.59619
 21
-42.4038
  0
LINE
  8
0
 10
-4.59619
 20
-42.4038
 11
-4.17812
 21
-42.0207
  0
LINE
  8
0
 10
-4.17812
 20
-42.0207
 11
-3.72824
 21
-41.6755
  0
LINE
  8
0
 10
-3.72824
 20
-41.6755
 11
-3.25
 21
-41.3708
  0
LINE
  8
0
 10
-3.25
 20
-41.3708
 11
-2.74701
 21
-41.109
  0
LINE
  8
0
 10
-2.74701
 20
-41.109
 11
-2.22313
 21
-40.892
  0
LINE
  8
0
 10
-2.22313
 20
-40.892
 11
-1.68231
 21
-40.7215
  0
LINE
  8
0
 10
-1.68231
 20
-40.7215
 11
-1.12871
 21
-40.5987
  0
LINE
  8
0
 10
-1.12871
 20
-40.5987
 11
-0.566498
 21
-40.5247
  0
LINE
  8
0
 10
-0.566498
 20
-40.5247
 11
0
 21
-40.5
  0
LINE
  8
0
 10
0
 20
-40.5
 11
0.566498
 21
-40.5247
  0
LINE
  8
0
 10
0.566498
 20
-40.5247
 11
1.12871
 21
-40.5987
  0
LINE
  8
0
 10
1.12871
 20
-40.5987
 11
1.68231
 21
-40.7215
  0
LINE
  8
0
 10
1.68231
 20
-40.7215
 11
2.22313
 21
-40.892
  0
LINE
  8
0
 10
2.22313
 20
-40.892
 11
2.74701
 21
-41.109
  0
LINE
  8
0
 10
2.74701
 20
-41.109
 11
3.25
 21
-41.3708
  0
LINE
  8
0
 10
3.25
 20
-41.3708
 11
3.72824
 21
-41.6755
  0
LINE
  8
0
 10
3.72824
 20
-41.6755
 11
4.17812
 21
-42.0207
  0
LINE
  8
0
 10
4.17812
 20
-42.0207
 11
4.59619
 21
-42.4038
  0
LINE
  8
0
 10
4.59619
 20
-42.4038
 11
4.97928
 21
-42.8219
  0
LINE
  8
0
 10
4.97928
 20
-42.8219
 11
5.32448
 21
-43.2717
  0
LINE
  8
0
 10
5.32448
 20
-43.2717
 11
5.62915
 21
-43.75
  0
LINE
  8
0
 10
5.62915
 20
-43.75
 11
5.89099
 21
-44.253
  0
LINE
  8
0
 10
5.89099
 20
-44.253
 11
6.108
 21
-44.7769
  0
LINE
  8
0
 10
6.108
 20
-44.7769
 11
6.2785
 21
-45.3177
  0
LINE
  8
0
 10
6.2785
 20
-45.3177
 11
6.40125
 21
-45.8713
  0
LINE
  8
0
 10
6.40125
 20
-45.8713
 11
6.47527
 21
-46.4335
  0
LINE
  8
0
 10
6.47527
 20
-46.4335
 11
6.5
 21
-47
  0
LINE
  8
0
 10
6.5
 20
-47
 11
6.47527
 21
-47.5665
  0
LINE
  8
0
 10
6.47527
 20
-47.5665
 11
6.40125
 21
-48.1287
  0
LINE
  8
0
 10
6.40125
 20
-48.1287
 11
6.2785
 21
-48.6823
  0
LINE
  8
0
 10
6.2785
 20
-48.6823
 11
6.108
 21
-49.2231
  0
LINE
  8
0
 10
6.108
 20
-49.2231
 11
5.89099
 21
-49.747
  0
LINE
  8
0
 10
5.89099
 20
-49.747
 11
5.62915
 21
-50.25
  0
LINE
  8
0
 10
5.62915
 20
-50.25
 11
5.32448
 21
-50.7282
  0
LINE
  8
0
 10
5.32448
 20
-50.7282
 11
4.97928
 21
-51.1781
  0
LINE
  8
0
 10
4.97928
 20
-51.1781
 11
4.59619
 21
-51.5962
  0
LINE
  8
0
 10
4.59619
 20
-51.5962
 11
4.17812
 21
-51.9793
  0
LINE
  8
0
 10
4.17812
 20
-51.9793
 11
3.72824
 21
-52.3245
  0
LINE
  8
0
 10
3.72824
 20
-52.3245
 11
3.25
 21
-52.6292
  0
LINE
  8
0
 10
3.25
 20
-52.6292
 11
2.74701
 21
-52.891
  0
LINE
  8
0
 10
2.74701
 20
-52.891
 11
2.22313
 21
-53.108
  0
LINE
  8
0
 10
2.22313
 20
-53.108
 11
1.68231
 21
-53.2785
  0
LINE
  8
0
 10
1.68231
 20
-53.2785
 11
1.12871
 21
-53.4012
  0
LINE
  8
0
 10
1.12871
 20
-53.4012
 11
0.566498
 21
-53.4753
  0
LINE
  8
0
 10
0.566498
 20
-53.4753
 11
0
 21
-53.5
  0
LINE
  8
0
 10
0
 20
-53.5
 11
-0.566498
 21
-53.4753
  0
LINE
  8
0
 10
-35.2876
 20
-66.2874
 11
-35.573
 21
-66.2499
  0
LINE
  8
0
 10
-35.573
 20
-66.2499
 11
-35.8541
 21
-66.1875
  0
LINE
  8
0
 10
-35.8541
 20
-66.1875
 11
-36.1287
 21
-66.101
  0
LINE
  8
0
 10
-36.1287
 20
-66.101
 11
-36.3946
 21
-65.9908
  0
LINE
  8
0
 10
-36.3946
 20
-65.9908
 11
-36.65
 21
-65.8579
  0
LINE
  8
0
 10
-36.65
 20
-65.8579
 11
-36.8928
 21
-65.7032
  0
LINE
  8
0
 10
-36.8928
 20
-65.7032
 11
-37.1212
 21
-65.5279
  0
LINE
  8
0
 10
-37.1212
 20
-65.5279
 11
-37.3335
 21
-65.3335
  0
LINE
  8
0
 10
-37.3335
 20
-65.3335
 11
-37.5279
 21
-65.1212
  0
LINE
  8
0
 10
-37.5279
 20
-65.1212
 11
-37.7032
 21
-64.8928
  0
LINE
  8
0
 10
-37.7032
 20
-64.8928
 11
-37.8579
 21
-64.65
  0
LINE
  8
0
 10
-37.8579
 20
-64.65
 11
-37.9908
 21
-64.3946
  0
LINE
  8
0
 10
-37.9908
 20
-64.3946
 11
-38.101
 21
-64.1287
  0
LINE
  8
0
 10
-38.101
 20
-64.1287
 11
-38.1875
 21
-63.8541
  0
LINE
  8
0
 10
-38.1875
 20
-63.8541
 11
-38.2499
 21
-63.573
  0
LINE
  8
0
 10
-38.2499
 20
-63.573
 11
-38.2874
 21
-63.2876
  0
LINE
  8
0
 10
-38.2874
 20
-63.2876
 11
-38.3
 21
-63
  0
LINE
  8
0
 10
-38.3
 20
-63
 11
-38.2874
 21
-62.7124
  0
LINE
  8
0
 10
-38.2874
 20
-62.7124
 11
-38.2499
 21
-62.427
  0
LINE
  8
0
 10
-38.2499
 20
-62.427
 11
-38.1875
 21
-62.1459
  0
LINE
  8
0
 10
-38.1875
 20
-62.1459
 11
-38.101
 21
-61.8713
  0
LINE
  8
0
 10
-38.101
 20
-61.8713
 11
-37.9908
 21
-61.6053
  0
LINE
  8
0
 10
-37.9908
 20
-61.6053
 11
-37.8579
 21
-61.35
  0
LINE
  8
0
 10
-37.8579
 20
-61.35
 11
-37.7032
 21
-61.1072
  0
LINE
  8
0
 10
-37.7032
 20
-61.1072
 11
-37.5279
 21
-60.8788
  0
LINE
  8
0
 10
-37.5279
 20
-60.8788
 11
-37.3335
 21
-60.6665
  0
LINE
  8
0
 10
-37.3335
 20
-60.6665
 11
-37.1212
 21
-60.472
  0
LINE
  8
0
 10
-37.1212
 20
-60.472
 11
-36.8928
 21
-60.2968
  0
LINE
  8
0
 10
-36.8928
 20
-60.2968
 11
-36.65
 21
-60.1421
  0
LINE
  8
0
 10
-36.65
 20
-60.1421
 11
-36.3946
 21
-60.0092
  0
LINE
  8
0
 10
-36.3946
 20
-60.0092
 11
-36.1287
 21
-59.899
  0
LINE
  8
0
 10
-36.1287
 20
-59.899
 11
-35.8541
 21
-59.8124
  0
LINE
  8
0
 10
-35.8541
 20
-59.8124
 11
-35.573
 21
-59.7501
  0
LINE
  8
0
 10
-35.573
 20
-59.7501
 11
-35.2876
 21
-59.7126
  0
LINE
  8
0
 10
-35.2876
 20
-59.7126
 11
-35
 21
-59.7
  0
LINE
  8
0
 10
-35
 20
-59.7
 11
-34.7124
 21
-59.7126
  0
LINE
  8
0
 10
-34.7124
 20
-59.7126
 11
-34.427
 21
-59.7501
  0
LINE
  8
0
 10
-34.427
 20
-59.7501
 11
-34.1459
 21
-59.8124
  0
LINE
  8
0
 10
-34.1459
 20
-59.8124
 11
-33.8713
 21
-59.899
  0
LINE
  8
0
 10
-33.8713
 20
-59.899
 11
-33.6053
 21
-60.0092
  0
LINE
  8
0
 10
-33.6053
 20
-60.0092
 11
-33.35
 21
-60.1421
  0
LINE
  8
0
 10
-33.35
 20
-60.1421
 11
-33.1072
 21
-60.2968
  0
LINE
  8
0
 10
-33.1072
 20
-60.2968
 11
-32.8788
 21
-60.472
  0
LINE
  8
0
 10
-32.8788
 20
-60.472
 11
-32.6665
 21
-60.6665
  0
LINE
  8
0
 10
-32.6665
 20
-60.6665
 11
-32.472
 21
-60.8788
  0
LINE
  8
0
 10
-32.472
 20
-60.8788
 11
-32.2968
 21
-61.1072
  0
LINE
  8
0
 10
-32.2968
 20
-61.1072
 11
-32.1421
 21
-61.35
  0
LINE
  8
0
 10
-32.1421
 20
-61.35
 11
-32.0092
 21
-61.6053
  0
LINE
  8
0
 10
-32.0092
 20
-61.6053
 11
-31.899
 21
-61.8713
  0
LINE
  8
0
 10
-31.899
 20
-61.8713
 11
-31.8124
 21
-62.1459
  0
LINE
  8
0
 10
-31.8124
 20
-62.1459
 11
-31.7501
 21
-62.427
  0
LINE
  8
0
 10
-31.7501
 20
-62.427
 11
-31.7126
 21
-62.7124
  0
LINE
  8
0
 10
-31.7126
 20
-62.7124
 11
-31.7
 21
-63
  0
LINE
  8
0
 10
-31.7
 20
-63
 11
-31.7126
 21
-63.2876
  0
LINE
  8
0
 10
-31.7126
 20
-63.2876
 11
-31.7501
 21
-63.573
  0
LINE
  8
0
 10
-31.7501
 20
-63.573
 11
-31.8124
 21
-63.8541
  0
LINE
  8
0
 10
-31.8124
 20
-63.8541
 11
-31.899
 21
-64.1287
  0
LINE
  8
0
 10
-31.899
 20
-64.1287
 11
-32.0092
 21
-64.3946
  0
LINE
  8
0
 10
-32.0092
 20
-64.3946
 11
-32.1421
 21
-64.65
  0
LINE
  8
0
 10
-32.1421
 20
-64.65
 11
-32.2968
 21
-64.8928
  0
LINE
  8
0
 10
-32.2968
 20
-64.8928
 11
-32.472
 21
-65.1212
  0
LINE
  8
0
 10
-32.472
 20
-65.1212
 11
-32.6665
 21
-65.3335
  0
LINE
  8
0
 10
-32.6665
 20
-65.3335
 11
-32.8788
 21
-65.5279
  0
LINE
  8
0
 10
-32.8788
 20
-65.5279
 11
-33.1072
 21
-65.7032
  0
LINE
  8
0
 10
-33.1072
 20
-65.7032
 11
-33.35
 21
-65.8579
  0
LINE
  8
0
 10
-33.35
 20
-65.8579
 11
-33.6053
 21
-65.9908
  0
LINE
  8
0
 10
-33.6053
 20
-65.9908
 11
-33.8713
 21
-66.101
  0
LINE
  8
0
 10
-33.8713
 20
-66.101
 11
-34.1459
 21
-66.1875
  0
LINE
  8
0
 10
-34.1459
 20
-66.1875
 11
-34.427
 21
-66.2499
  0
LINE
  8
0
 10
-34.427
 20
-66.2499
 11
-34.7124
 21
-66.2874
  0
LINE
  8
0
 10
-34.7124
 20
-66.2874
 11
-35
 21
-66.3
  0
LINE
  8
0
 10
-35
 20
-66.3
 11
-35.2876
 21
-66.2874
  0
LINE
  8
0
 10
34.7124
 20
-66.2874
 11
34.427
 21
-66.2499
  0
LINE
  8
0
 10
34.427
 20
-66.2499
 11
34.1459
 21
-66.1875
  0
LINE
  8
0
 10
34.1459
 20
-66.1875
 11
33.8713
 21
-66.101
  0
LINE
  8
0
 10
33.8713
 20
-66.101
 11
33.6053
 21
-65.9908
  0
LINE
  8
0
 10
33.6053
 20
-65.9908
 11
33.35
 21
-65.8579
  0
LINE
  8
0
 10
33.35
 20
-65.8579
 11
33.1072
 21
-65.7032
  0
LINE
  8
0
 10
33.1072
 20
-65.7032
 11
32.8788
 21
-65.5279
  0
LINE
  8
0
 10
32.8788
 20
-65.5279
 11
32.6665
 21
-65.3335
  0
LINE
  8
0
 10
32.6665
 20
-65.3335
 11
32.472
 21
-65.1212
  0
LINE
  8
0
 10
32.472
 20
-65.1212
 11
32.2968
 21
-64.8928
  0
LINE
  8
0
 10
32.2968
 20
-64.8928
 11
32.1421
 21
-64.65
  0
LINE
  8
0
 10
32.1421
 20
-64.65
 11
32.0092
 21
-64.3946
  0
LINE
  8
0
 10
32.0092
 20
-64.3946
 11
31.899
 21
-64.1287
  0
LINE
  8
0
 10
31.899
 20
-64.1287
 11
31.8124
 21
-63.8541
  0
LINE
  8
0
 10
31.8124
 20
-63.8541
 11
31.7501
 21
-63.573
  0
LINE
  8
0
 10
31.7501
 20
-63.573
 11
31.7126
 21
-63.2876
  0
LINE
  8
0
 10
31.7126
 20
-63.2876
 11
31.7
 21
-63
  0
LINE
  8
0
 10
31.7
 20
-63
 11
31.7126
 21
-62.7124
  0
LINE
  8
0
 10
31.7126
 20
-62.7124
 11
31.7501
 21
-62.427
  0
LINE
  8
0
 10
31.7501
 20
-62.427
 11
31.8124
 21
-62.1459
  0
LINE
  8
0
 10
31.8124
 20
-62.1459
 11
31.899
 21
-61.8713
  0
LINE
  8
0
 10
31.899
 20
-61.8713
 11
32.0092
 21
-61.6053
  0
LINE
  8
0
 10
32.0092
 20
-61.6053
 11
32.1421
 21
-61.35
  0
LINE
  8
0
 10
32.1421
 20
-61.35
 11
32.2968
 21
-61.1072
  0
LINE
  8
0
 10
32.2968
 20
-61.1072
 11
32.472
 21
-60.8788
  0
LINE
  8
0
 10
32.472
 20
-60.8788
 11
32.6665
 21
-60.6665
  0
LINE
  8
0
 10
32.6665
 20
-60.6665
 11
32.8788
 21
-60.472
  0
LINE
  8
0
 10
32.8788
 20
-60.472
 11
33.1072
 21
-60.2968
  0
LINE
  8
0
 10
33.1072
 20
-60.2968
 11
33.35
 21
-60.1421
  0
LINE
  8
0
 10
33.35
 20
-60.1421
 11
33.6053
 21
-60.0092
  0
LINE
  8
0
 10
33.6053
 20
-60.0092
 11
33.8713
 21
-59.899
  0
LINE
  8
0
 10
33.8713
 20
-59.899
 11
34.1459
 21
-59.8124
  0
LINE
  8
0
 10
34.1459
 20
-59.8124
 11
34.427
 21
-59.7501
  0
LINE
  8
0
 10
34.427
 20
-59.7501
 11
34.7124
 21
-59.7126
  0
LINE
  8
0
 10
34.7124
 20
-59.7126
 11
35
 21
-59.7
  0
LINE
  8
0
 10
35
 20
-59.7
 11
35.2876
 21
-59.7126
  0
LINE
  8
0
 10
35.2876
 20
-59.7126
 11
35.573
 21
-59.7501
  0
LINE
  8
0
 10
35.573
 20
-59.7501
 11
35.8541
 21
-59.8124
  0
LINE
  8
0
 10
35.8541
 20
-59.8124
 11
36.1287
 21
-59.899
  0
LINE
  8
0
 10
36.1287
 20
-59.899
 11
36.3946
 21
-60.0092
  0
LINE
  8
0
 10
36.3946
 20
-60.0092
 11
36.65
 21
-60.1421
  0
LINE
  8
0
 10
36.65
 20
-60.1421
 11
36.8928
 21
-60.2968
  0
LINE
  8
0
 10
36.8928
 20
-60.2968
 11
37.1212
 21
-60.472
  0
LINE
  8
0
 10
37.1212
 20
-60.472
 11
37.3335
 21
-60.6665
  0
LINE
  8
0
 10
37.3335
 20
-60.6665
 11
37.5279
 21
-60.8788
  0
LINE
  8
0
 10
37.5279
 20
-60.8788
 11
37.7032
 21
-61.1072
  0
LINE
  8
0
 10
37.7032
 20
-61.1072
 11
37.8579
 21
-61.35
  0
LINE
  8
0
 10
37.8579
 20
-61.35
 11
37.9908
 21
-61.6053
  0
LINE
  8
0
 10
37.9908
 20
-61.6053
 11
38.101
 21
-61.8713
  0
LINE
  8
0
 10
38.101
 20
-61.8713
 11
38.1875
 21
-62.1459
  0
LINE
  8
0
 10
38.1875
 20
-62.1459
 11
38.2499
 21
-62.427
  0
LINE
  8
0
 10
38.2499
 20
-62.427
 11
38.2874
 21
-62.7124
  0
LINE
  8
0
 10
38.2874
 20
-62.7124
 11
38.3
 21
-63
  0
LINE
  8
0
 10
38.3
 20
-63
 11
38.2874
 21
-63.2876
  0
LINE
  8
0
 10
38.2874
 20
-63.2876
 11
38.2499
 21
-63.573
  0
LINE
  8
0
 10
38.2499
 20
-63.573
 11
38.1875
 21
-63.8541
  0
LINE
  8
0
 10
38.1875
 20
-63.8541
 11
38.101
 21
-64.1287
  0
LINE
  8
0
 10
38.101
 20
-64.1287
 11
37.9908
 21
-64.3946
  0
LINE
  8
0
 10
37.9908
 20
-64.3946
 11
37.8579
 21
-64.65
  0
LINE
  8
0
 10
37.8579
 20
-64.65
 11
37.7032
 21
-64.8928
  0
LINE
  8
0
 10
37.7032
 20
-64.8928
 11
37.5279
 21
-65.1212
  0
LINE
  8
0
 10
37.5279
 20
-65.1212
 11
37.3335
 21
-65.3335
  0
LINE
  8
0
 10
37.3335
 20
-65.3335
 11
37.1212
 21
-65.5279
  0
LINE
  8
0
 10
37.1212
 20
-65.5279
 11
36.8928
 21
-65.7032
  0
LINE
  8
0
 10
36.8928
 20
-65.7032
 11
36.65
 21
-65.8579
  0
LINE
  8
0
 10
36.65
 20
-65.8579
 11
36.3946
 21
-65.9908
  0
LINE
  8
0
 10
36.3946
 20
-65.9908
 11
36.1287
 21
-66.101
  0
LINE
  8
0
 10
36.1287
 20
-66.101
 11
35.8541
 21
-66.1875
  0
LINE
  8
0
 10
35.8541
 20
-66.1875
 11
35.573
 21
-66.2499
  0
LINE
  8
0
 10
35.573
 20
-66.2499
 11
35.2876
 21
-66.2874
  0
LINE
  8
0
 10
35.2876
 20
-66.2874
 11
35
 21
-66.3
  0
LINE
  8
0
 10
35
 20
-66.3
 11
34.7124
 21
-66.2874
  0
ENDSEC
  0
SECTION
  2
OBJECTS
  0
DICTIONARY
  0
ENDSEC
  0
EOF
