  0
SECTION
  2
BLOCKS
  0
ENDSEC
  0
SECTION
  2
ENTITIES
  0
LINE
  8
0
 10
-28.1998
 20
-50.9948
 11
-26.2396
 21
-54.1398
  0
LINE
  8
0
 10
-26.2396
 20
-54.1398
 11
-21.7604
 21
-50.4398
  0
LINE
  8
0
 10
-21.7604
 20
-50.4398
 11
-19.5203
 21
-52.6597
  0
LINE
  8
0
 10
-19.5203
 20
-52.6597
 11
-14.4801
 21
-51.5498
  0
LINE
  8
0
 10
-14.4801
 20
-51.5498
 11
-11.4001
 21
-48.9598
  0
LINE
  8
0
 10
-11.4001
 20
-48.9598
 11
-10
 21
-44.5202
  0
LINE
  8
0
 10
-10
 20
-44.5202
 11
-10.8404
 21
-40.4502
  0
LINE
  8
0
 10
-10.8404
 20
-40.4502
 11
-13.9204
 21
-37.8602
  0
LINE
  8
0
 10
-13.9204
 20
-37.8602
 11
-17.2803
 21
-36.75
  0
LINE
  8
0
 10
-17.2803
 20
-36.75
 11
-21.2003
 21
-37.4902
  0
LINE
  8
0
 10
-21.2003
 20
-37.4902
 11
-27.3599
 21
-39.8952
  0
LINE
  8
0
 10
-27.3599
 20
-39.8952
 11
-33.5199
 21
-43.7801
  0
LINE
  8
0
 10
-33.5199
 20
-43.7801
 11
-37.1596
 21
-48.59
  0
LINE
  8
0
 10
-37.1596
 20
-48.59
 11
-38
 21
-53.0298
  0
LINE
  8
0
 10
-38
 20
-53.0298
 11
-34.6397
 21
-51.735
  0
LINE
  8
0
 10
-34.6397
 20
-51.735
 11
-32.9598
 21
-55.25
  0
LINE
  8
0
 10
-32.9598
 20
-55.25
 11
-28.1998
 21
-50.9948
  0
LINE
  8
0
 10
34.6397
 20
-51.735
 11
38
 21
-53.0298
  0
LINE
  8
0
 10
38
 20
-53.0298
 11
37.1596
 21
-48.59
  0
LINE
  8
0
 10
37.1596
 20
-48.59
 11
33.5199
 21
-43.7801
  0
LINE
  8
0
 10
33.5199
 20
-43.7801
 11
27.3599
 21
-39.8952
  0
LINE
  8
0
 10
27.3599
 20
-39.8952
 11
21.2003
 21
-37.4902
  0
LINE
  8
0
 10
21.2003
 20
-37.4902
 11
17.2803
 21
-36.75
  0
LINE
  8
0
 10
17.2803
 20
-36.75
 11
13.9204
 21
-37.8602
  0
LINE
  8
0
 10
13.9204
 20
-37.8602
 11
10.8404
 21
-40.4502
  0
LINE
  8
0
 10
10.8404
 20
-40.4502
 11
10
 21
-44.5202
  0
LINE
  8
0
 10
10
 20
-44.5202
 11
11.4001
 21
-48.9598
  0
LINE
  8
0
 10
11.4001
 20
-48.9598
 11
14.4801
 21
-51.5498
  0
LINE
  8
0
 10
14.4801
 20
-51.5498
 11
19.5203
 21
-52.6597
  0
LINE
  8
0
 10
19.5203
 20
-52.6597
 11
21.7604
 21
-50.4398
  0
LINE
  8
0
 10
21.7604
 20
-50.4398
 11
26.2396
 21
-54.1398
  0
LINE
  8
0
 10
26.2396
 20
-54.1398
 11
28.1998
 21
-50.9948
  0
LINE
  8
0
 10
28.1998
 20
-50.9948
 11
32.9598
 21
-55.25
  0
LINE
  8
0
 10
32.9598
 20
-55.25
 11
34.6397
 21
-51.735
  0
LINE
  8
0
 10
19.2615
 20
-65.6886
 11
19.5209
 21
-65.6544
  0
LINE
  8
0
 10
19.5209
 20
-65.6544
 11
19.7764
 21
-65.5978
  0
LINE
  8
0
 10
19.7764
 20
-65.5978
 11
20.026
 21
-65.5191
  0
LINE
  8
0
 10
20.026
 20
-65.5191
 11
20.2679
 21
-65.4189
  0
LINE
  8
0
 10
20.2679
 20
-65.4189
 11
20.5
 21
-65.2981
  0
LINE
  8
0
 10
20.5
 20
-65.2981
 11
20.7207
 21
-65.1574
  0
LINE
  8
0
 10
20.7207
 20
-65.1574
 11
20.9284
 21
-64.9981
  0
LINE
  8
0
 10
20.9284
 20
-64.9981
 11
21.1213
 21
-64.8213
  0
LINE
  8
0
 10
21.1213
 20
-64.8213
 11
21.2981
 21
-64.6284
  0
LINE
  8
0
 10
21.2981
 20
-64.6284
 11
21.4574
 21
-64.4207
  0
LINE
  8
0
 10
21.4574
 20
-64.4207
 11
21.5981
 21
-64.2
  0
LINE
  8
0
 10
21.5981
 20
-64.2
 11
21.7189
 21
-63.9678
  0
LINE
  8
0
 10
21.7189
 20
-63.9678
 11
21.8191
 21
-63.726
  0
LINE
  8
0
 10
21.8191
 20
-63.726
 11
21.8978
 21
-63.4764
  0
LINE
  8
0
 10
21.8978
 20
-63.4764
 11
21.9544
 21
-63.2209
  0
LINE
  8
0
 10
21.9544
 20
-63.2209
 11
21.9886
 21
-62.9615
  0
LINE
  8
0
 10
21.9886
 20
-62.9615
 11
22
 21
-62.7
  0
LINE
  8
0
 10
22
 20
-62.7
 11
22
 21
-59.7
  0
LINE
  8
0
 10
22
 20
-59.7
 11
21.9886
 21
-59.4385
  0
LINE
  8
0
 10
21.9886
 20
-59.4385
 11
21.9544
 21
-59.1791
  0
LINE
  8
0
 10
21.9544
 20
-59.1791
 11
21.8978
 21
-58.9236
  0
LINE
  8
0
 10
21.8978
 20
-58.9236
 11
21.8191
 21
-58.674
  0
LINE
  8
0
 10
21.8191
 20
-58.674
 11
21.7189
 21
-58.4321
  0
LINE
  8
0
 10
21.7189
 20
-58.4321
 11
21.5981
 21
-58.2
  0
LINE
  8
0
 10
21.5981
 20
-58.2
 11
21.4574
 21
-57.9793
  0
LINE
  8
0
 10
21.4574
 20
-57.9793
 11
21.2981
 21
-57.7716
  0
LINE
  8
0
 10
21.2981
 20
-57.7716
 11
21.1213
 21
-57.5787
  0
LINE
  8
0
 10
21.1213
 20
-57.5787
 11
20.9284
 21
-57.4019
  0
LINE
  8
0
 10
20.9284
 20
-57.4019
 11
20.7207
 21
-57.2426
  0
LINE
  8
0
 10
20.7207
 20
-57.2426
 11
20.5
 21
-57.1019
  0
LINE
  8
0
 10
20.5
 20
-57.1019
 11
20.2679
 21
-56.9811
  0
LINE
  8
0
 10
20.2679
 20
-56.9811
 11
20.026
 21
-56.8809
  0
LINE
  8
0
 10
20.026
 20
-56.8809
 11
19.7764
 21
-56.8022
  0
LINE
  8
0
 10
19.7764
 20
-56.8022
 11
19.5209
 21
-56.7456
  0
LINE
  8
0
 10
19.5209
 20
-56.7456
 11
19.2615
 21
-56.7114
  0
LINE
  8
0
 10
19.2615
 20
-56.7114
 11
19
 21
-56.7
  0
LINE
  8
0
 10
19
 20
-56.7
 11
-19
 21
-56.7
  0
LINE
  8
0
 10
-19
 20
-56.7
 11
-19.2615
 21
-56.7114
  0
LINE
  8
0
 10
-19.2615
 20
-56.7114
 11
-19.5209
 21
-56.7456
  0
LINE
  8
0
 10
-19.5209
 20
-56.7456
 11
-19.7764
 21
-56.8022
  0
LINE
  8
0
 10
-19.7764
 20
-56.8022
 11
-20.026
 21
-56.8809
  0
LINE
  8
0
 10
-20.026
 20
-56.8809
 11
-20.2679
 21
-56.9811
  0
LINE
  8
0
 10
-20.2679
 20
-56.9811
 11
-20.5
 21
-57.1019
  0
LINE
  8
0
 10
-20.5
 20
-57.1019
 11
-20.7207
 21
-57.2426
  0
LINE
  8
0
 10
-20.7207
 20
-57.2426
 11
-20.9284
 21
-57.4019
  0
LINE
  8
0
 10
-20.9284
 20
-57.4019
 11
-21.1213
 21
-57.5787
  0
LINE
  8
0
 10
-21.1213
 20
-57.5787
 11
-21.2981
 21
-57.7716
  0
LINE
  8
0
 10
-21.2981
 20
-57.7716
 11
-21.4574
 21
-57.9793
  0
LINE
  8
0
 10
-21.4574
 20
-57.9793
 11
-21.5981
 21
-58.2
  0
LINE
  8
0
 10
-21.5981
 20
-58.2
 11
-21.7189
 21
-58.4321
  0
LINE
  8
0
 10
-21.7189
 20
-58.4321
 11
-21.8191
 21
-58.674
  0
LINE
  8
0
 10
-21.8191
 20
-58.674
 11
-21.8978
 21
-58.9236
  0
LINE
  8
0
 10
-21.8978
 20
-58.9236
 11
-21.9544
 21
-59.1791
  0
LINE
  8
0
 10
-21.9544
 20
-59.1791
 11
-21.9886
 21
-59.4385
  0
LINE
  8
0
 10
-21.9886
 20
-59.4385
 11
-22
 21
-59.7
  0
LINE
  8
0
 10
-22
 20
-59.7
 11
-22
 21
-62.7
  0
LINE
  8
0
 10
-22
 20
-62.7
 11
-21.9886
 21
-62.9615
  0
LINE
  8
0
 10
-21.9886
 20
-62.9615
 11
-21.9544
 21
-63.2209
  0
LINE
  8
0
 10
-21.9544
 20
-63.2209
 11
-21.8978
 21
-63.4764
  0
LINE
  8
0
 10
-21.8978
 20
-63.4764
 11
-21.8191
 21
-63.726
  0
LINE
  8
0
 10
-21.8191
 20
-63.726
 11
-21.7189
 21
-63.9678
  0
LINE
  8
0
 10
-21.7189
 20
-63.9678
 11
-21.5981
 21
-64.2
  0
LINE
  8
0
 10
-21.5981
 20
-64.2
 11
-21.4574
 21
-64.4207
  0
LINE
  8
0
 10
-21.4574
 20
-64.4207
 11
-21.2981
 21
-64.6284
  0
LINE
  8
0
 10
-21.2981
 20
-64.6284
 11
-21.1213
 21
-64.8213
  0
LINE
  8
0
 10
-21.1213
 20
-64.8213
 11
-20.9284
 21
-64.9981
  0
LINE
  8
0
 10
-20.9284
 20
-64.9981
 11
-20.7207
 21
-65.1574
  0
LINE
  8
0
 10
-20.7207
 20
-65.1574
 11
-20.5
 21
-65.2981
  0
LINE
  8
0
 10
-20.5
 20
-65.2981
 11
-20.2679
 21
-65.4189
  0
LINE
  8
0
 10
-20.2679
 20
-65.4189
 11
-20.026
 21
-65.5191
  0
LINE
  8
0
 10
-20.026
 20
-65.5191
 11
-19.7764
 21
-65.5978
  0
LINE
  8
0
 10
-19.7764
 20
-65.5978
 11
-19.5209
 21
-65.6544
  0
LINE
  8
0
 10
-19.5209
 20
-65.6544
 11
-19.2615
 21
-65.6886
  0
LINE
  8
0
 10
-19.2615
 20
-65.6886
 11
-19
 21
-65.7
  0
LINE
  8
0
 10
-19
 20
-65.7
 11
19
 21
-65.7
  0
LINE
  8
0
 10
19
 20
-65.7
 11
19.2615
 21
-65.6886
  0
ENDSEC
  0
SECTION
  2
OBJECTS
  0
DICTIONARY
  0
ENDSEC
  0
EOF
