  0
SECTION
  2
BLOCKS
  0
ENDSEC
  0
SECTION
  2
ENTITIES
  0
LINE
  8
0
 10
29.7679
 20
-68.175
 11
30.5425
 21
-68.2525
  0
LINE
  8
0
 10
30.5425
 20
-68.2525
 11
30.7194
 21
-68.2687
  0
LINE
  8
0
 10
30.7194
 20
-68.2687
 11
31.1074
 21
-68.3009
  0
LINE
  8
0
 10
31.1074
 20
-68.3009
 11
31.931
 21
-68.333
  0
LINE
  8
0
 10
31.931
 20
-68.333
 11
32.68
 21
-68.2968
  0
LINE
  8
0
 10
32.68
 20
-68.2968
 11
33.4231
 21
-68.1955
  0
LINE
  8
0
 10
33.4231
 20
-68.1955
 11
34.1547
 21
-68.0298
  0
LINE
  8
0
 10
34.1547
 20
-68.0298
 11
34.8687
 21
-67.801
  0
LINE
  8
0
 10
34.8687
 20
-67.801
 11
35.5604
 21
-67.5108
  0
LINE
  8
0
 10
35.5604
 20
-67.5108
 11
36.2242
 21
-67.1613
  0
LINE
  8
0
 10
36.2242
 20
-67.1613
 11
36.8544
 21
-66.7557
  0
LINE
  8
0
 10
36.8544
 20
-66.7557
 11
37.4476
 21
-66.2962
  0
LINE
  8
0
 10
37.4476
 20
-66.2962
 11
37.9981
 21
-65.787
  0
LINE
  8
0
 10
37.9981
 20
-65.787
 11
38.5023
 21
-65.2316
  0
LINE
  8
0
 10
38.5023
 20
-65.2316
 11
38.956
 21
-64.6348
  0
LINE
  8
0
 10
38.956
 20
-64.6348
 11
39.356
 21
-64.0003
  0
LINE
  8
0
 10
39.356
 20
-64.0003
 11
39.6994
 21
-63.3333
  0
LINE
  8
0
 10
39.6994
 20
-63.3333
 11
39.9831
 21
-62.6394
  0
LINE
  8
0
 10
39.9831
 20
-62.6394
 11
40.2053
 21
-61.923
  0
LINE
  8
0
 10
40.2053
 20
-61.923
 11
40.3626
 21
-61.1977
  0
LINE
  8
0
 10
40.3626
 20
-61.1977
 11
40.4725
 21
-60.2982
  0
LINE
  8
0
 10
40.4725
 20
-60.2982
 11
40.4804
 21
-60.1744
  0
LINE
  8
0
 10
40.4804
 20
-60.1744
 11
40.5075
 21
-59.6733
  0
LINE
  8
0
 10
40.5075
 20
-59.6733
 11
40.5144
 21
-59.5258
  0
LINE
  8
0
 10
40.5144
 20
-59.5258
 11
40.5367
 21
-58.9657
  0
LINE
  8
0
 10
40.5367
 20
-58.9657
 11
40.5406
 21
-58.8539
  0
LINE
  8
0
 10
40.5406
 20
-58.8539
 11
40.5585
 21
-58.2347
  0
LINE
  8
0
 10
40.5585
 20
-58.2347
 11
40.5605
 21
-58.1586
  0
LINE
  8
0
 10
40.5605
 20
-58.1586
 11
40.5749
 21
-57.4867
  0
LINE
  8
0
 10
40.5749
 20
-57.4867
 11
40.5759
 21
-57.4361
  0
LINE
  8
0
 10
40.5759
 20
-57.4361
 11
40.5882
 21
-56.7139
  0
LINE
  8
0
 10
40.5882
 20
-56.7139
 11
40.6006
 21
-55.9359
  0
LINE
  8
0
 10
40.6006
 20
-55.9359
 11
40.6115
 21
-55.1965
  0
LINE
  8
0
 10
40.6115
 20
-55.1965
 11
40.612
 21
-55.1554
  0
LINE
  8
0
 10
40.612
 20
-55.1554
 11
40.6199
 21
-54.4222
  0
LINE
  8
0
 10
40.6199
 20
-54.4222
 11
40.6203
 21
-54.3672
  0
LINE
  8
0
 10
40.6203
 20
-54.3672
 11
40.624
 21
-53.6381
  0
LINE
  8
0
 10
40.624
 20
-53.6381
 11
40.6241
 21
-53.566
  0
LINE
  8
0
 10
40.6241
 20
-53.566
 11
40.6224
 21
-52.8472
  0
LINE
  8
0
 10
40.6224
 20
-52.8472
 11
40.6217
 21
-52.7552
  0
LINE
  8
0
 10
40.6217
 20
-52.7552
 11
40.6136
 21
-52.0496
  0
LINE
  8
0
 10
40.6136
 20
-52.0496
 11
40.6118
 21
-51.9421
  0
LINE
  8
0
 10
40.6118
 20
-51.9421
 11
40.5965
 21
-51.256
  0
LINE
  8
0
 10
40.5965
 20
-51.256
 11
40.5928
 21
-51.1275
  0
LINE
  8
0
 10
40.5928
 20
-51.1275
 11
40.5695
 21
-50.457
  0
LINE
  8
0
 10
40.5695
 20
-50.457
 11
40.5636
 21
-50.3146
  0
LINE
  8
0
 10
40.5636
 20
-50.3146
 11
40.5318
 21
-49.6671
  0
LINE
  8
0
 10
40.5318
 20
-49.6671
 11
40.5221
 21
-49.4978
  0
LINE
  8
0
 10
40.5221
 20
-49.4978
 11
40.4818
 21
-48.8818
  0
LINE
  8
0
 10
40.4818
 20
-48.8818
 11
40.4679
 21
-48.6949
  0
LINE
  8
0
 10
40.4679
 20
-48.6949
 11
40.4185
 21
-48.1055
  0
LINE
  8
0
 10
40.4185
 20
-48.1055
 11
40.399
 21
-47.8978
  0
LINE
  8
0
 10
40.399
 20
-47.8978
 11
40.3415
 21
-47.3471
  0
LINE
  8
0
 10
40.3415
 20
-47.3471
 11
40.3145
 21
-47.1142
  0
LINE
  8
0
 10
40.3145
 20
-47.1142
 11
40.2508
 21
-46.6144
  0
LINE
  8
0
 10
40.2508
 20
-46.6144
 11
40.2116
 21
-46.3368
  0
LINE
  8
0
 10
40.2116
 20
-46.3368
 11
40.1395
 21
-45.8723
  0
LINE
  8
0
 10
40.1395
 20
-45.8723
 11
40.0927
 21
-45.5959
  0
LINE
  8
0
 10
40.0927
 20
-45.5959
 11
40.0023
 21
-45.1022
  0
LINE
  8
0
 10
40.0023
 20
-45.1022
 11
39.9567
 21
-44.8685
  0
LINE
  8
0
 10
39.9567
 20
-44.8685
 11
39.8431
 21
-44.3204
  0
LINE
  8
0
 10
39.8431
 20
-44.3204
 11
39.8006
 21
-44.1251
  0
LINE
  8
0
 10
39.8006
 20
-44.1251
 11
39.6644
 21
-43.5268
  0
LINE
  8
0
 10
39.6644
 20
-43.5268
 11
39.6266
 21
-43.367
  0
LINE
  8
0
 10
39.6266
 20
-43.367
 11
39.4692
 21
-42.7226
  0
LINE
  8
0
 10
39.4692
 20
-42.7226
 11
39.4389
 21
-42.602
  0
LINE
  8
0
 10
39.4389
 20
-42.602
 11
39.2585
 21
-41.9009
  0
LINE
  8
0
 10
39.2585
 20
-41.9009
 11
39.2372
 21
-41.8193
  0
LINE
  8
0
 10
39.2372
 20
-41.8193
 11
39.0388
 21
-41.0749
  0
LINE
  8
0
 10
39.0388
 20
-41.0749
 11
39.0264
 21
-41.0289
  0
LINE
  8
0
 10
39.0264
 20
-41.0289
 11
38.8069
 21
-40.2213
  0
LINE
  8
0
 10
38.8069
 20
-40.2213
 11
38.5796
 21
-39.3904
  0
LINE
  8
0
 10
38.5796
 20
-39.3904
 11
38.3509
 21
-38.5479
  0
LINE
  8
0
 10
38.3509
 20
-38.5479
 11
38.1234
 21
-37.6913
  0
LINE
  8
0
 10
38.1234
 20
-37.6913
 11
37.9054
 21
-36.8403
  0
LINE
  8
0
 10
37.9054
 20
-36.8403
 11
37.7157
 21
-36.1061
  0
LINE
  8
0
 10
37.7157
 20
-36.1061
 11
37.6808
 21
-35.9747
  0
LINE
  8
0
 10
37.6808
 20
-35.9747
 11
37.4938
 21
-35.2887
  0
LINE
  8
0
 10
37.4938
 20
-35.2887
 11
37.4683
 21
-35.197
  0
LINE
  8
0
 10
37.4683
 20
-35.197
 11
37.2599
 21
-34.4598
  0
LINE
  8
0
 10
37.2599
 20
-34.4598
 11
37.2452
 21
-34.4084
  0
LINE
  8
0
 10
37.2452
 20
-34.4084
 11
37.0697
 21
-33.8
  0
LINE
  8
0
 10
37.0697
 20
-33.8
 11
-37.0697
 21
-33.8
  0
LINE
  8
0
 10
-37.0697
 20
-33.8
 11
-37.2452
 21
-34.4084
  0
LINE
  8
0
 10
-37.2452
 20
-34.4084
 11
-37.2599
 21
-34.4598
  0
LINE
  8
0
 10
-37.2599
 20
-34.4598
 11
-37.4683
 21
-35.197
  0
LINE
  8
0
 10
-37.4683
 20
-35.197
 11
-37.4938
 21
-35.2887
  0
LINE
  8
0
 10
-37.4938
 20
-35.2887
 11
-37.6808
 21
-35.9747
  0
LINE
  8
0
 10
-37.6808
 20
-35.9747
 11
-37.7157
 21
-36.1061
  0
LINE
  8
0
 10
-37.7157
 20
-36.1061
 11
-37.9054
 21
-36.8403
  0
LINE
  8
0
 10
-37.9054
 20
-36.8403
 11
-38.1234
 21
-37.6913
  0
LINE
  8
0
 10
-38.1234
 20
-37.6913
 11
-38.3509
 21
-38.5479
  0
LINE
  8
0
 10
-38.3509
 20
-38.5479
 11
-38.5796
 21
-39.3904
  0
LINE
  8
0
 10
-38.5796
 20
-39.3904
 11
-38.8069
 21
-40.2213
  0
LINE
  8
0
 10
-38.8069
 20
-40.2213
 11
-39.0264
 21
-41.0289
  0
LINE
  8
0
 10
-39.0264
 20
-41.0289
 11
-39.0388
 21
-41.0749
  0
LINE
  8
0
 10
-39.0388
 20
-41.0749
 11
-39.2372
 21
-41.8193
  0
LINE
  8
0
 10
-39.2372
 20
-41.8193
 11
-39.2585
 21
-41.9009
  0
LINE
  8
0
 10
-39.2585
 20
-41.9009
 11
-39.4389
 21
-42.602
  0
LINE
  8
0
 10
-39.4389
 20
-42.602
 11
-39.4692
 21
-42.7226
  0
LINE
  8
0
 10
-39.4692
 20
-42.7226
 11
-39.6266
 21
-43.367
  0
LINE
  8
0
 10
-39.6266
 20
-43.367
 11
-39.6644
 21
-43.5268
  0
LINE
  8
0
 10
-39.6644
 20
-43.5268
 11
-39.8006
 21
-44.1251
  0
LINE
  8
0
 10
-39.8006
 20
-44.1251
 11
-39.8431
 21
-44.3204
  0
LINE
  8
0
 10
-39.8431
 20
-44.3204
 11
-39.9567
 21
-44.8685
  0
LINE
  8
0
 10
-39.9567
 20
-44.8685
 11
-40.0023
 21
-45.1022
  0
LINE
  8
0
 10
-40.0023
 20
-45.1022
 11
-40.0927
 21
-45.5959
  0
LINE
  8
0
 10
-40.0927
 20
-45.5959
 11
-40.1395
 21
-45.8723
  0
LINE
  8
0
 10
-40.1395
 20
-45.8723
 11
-40.2116
 21
-46.3368
  0
LINE
  8
0
 10
-40.2116
 20
-46.3368
 11
-40.2508
 21
-46.6144
  0
LINE
  8
0
 10
-40.2508
 20
-46.6144
 11
-40.3145
 21
-47.1142
  0
LINE
  8
0
 10
-40.3145
 20
-47.1142
 11
-40.3415
 21
-47.3471
  0
LINE
  8
0
 10
-40.3415
 20
-47.3471
 11
-40.399
 21
-47.8978
  0
LINE
  8
0
 10
-40.399
 20
-47.8978
 11
-40.4185
 21
-48.1055
  0
LINE
  8
0
 10
-40.4185
 20
-48.1055
 11
-40.4679
 21
-48.6949
  0
LINE
  8
0
 10
-40.4679
 20
-48.6949
 11
-40.4818
 21
-48.8818
  0
LINE
  8
0
 10
-40.4818
 20
-48.8818
 11
-40.5221
 21
-49.4978
  0
LINE
  8
0
 10
-40.5221
 20
-49.4978
 11
-40.5318
 21
-49.6671
  0
LINE
  8
0
 10
-40.5318
 20
-49.6671
 11
-40.5636
 21
-50.3146
  0
LINE
  8
0
 10
-40.5636
 20
-50.3146
 11
-40.5695
 21
-50.457
  0
LINE
  8
0
 10
-40.5695
 20
-50.457
 11
-40.5928
 21
-51.1275
  0
LINE
  8
0
 10
-40.5928
 20
-51.1275
 11
-40.5965
 21
-51.256
  0
LINE
  8
0
 10
-40.5965
 20
-51.256
 11
-40.6118
 21
-51.9421
  0
LINE
  8
0
 10
-40.6118
 20
-51.9421
 11
-40.6136
 21
-52.0496
  0
LINE
  8
0
 10
-40.6136
 20
-52.0496
 11
-40.6217
 21
-52.7552
  0
LINE
  8
0
 10
-40.6217
 20
-52.7552
 11
-40.6224
 21
-52.8472
  0
LINE
  8
0
 10
-40.6224
 20
-52.8472
 11
-40.6241
 21
-53.5641
  0
LINE
  8
0
 10
-40.6241
 20
-53.5641
 11
-40.624
 21
-53.6381
  0
LINE
  8
0
 10
-40.624
 20
-53.6381
 11
-40.6204
 21
-54.3656
  0
LINE
  8
0
 10
-40.6204
 20
-54.3656
 11
-40.6199
 21
-54.4208
  0
LINE
  8
0
 10
-40.6199
 20
-54.4208
 11
-40.612
 21
-55.1544
  0
LINE
  8
0
 10
-40.612
 20
-55.1544
 11
-40.6115
 21
-55.1954
  0
LINE
  8
0
 10
-40.6115
 20
-55.1954
 11
-40.6004
 21
-55.9492
  0
LINE
  8
0
 10
-40.6004
 20
-55.9492
 11
-40.5881
 21
-56.7248
  0
LINE
  8
0
 10
-40.5881
 20
-56.7248
 11
-40.5759
 21
-57.4351
  0
LINE
  8
0
 10
-40.5759
 20
-57.4351
 11
-40.5749
 21
-57.4869
  0
LINE
  8
0
 10
-40.5749
 20
-57.4869
 11
-40.5604
 21
-58.1586
  0
LINE
  8
0
 10
-40.5604
 20
-58.1586
 11
-40.5585
 21
-58.2347
  0
LINE
  8
0
 10
-40.5585
 20
-58.2347
 11
-40.5406
 21
-58.8539
  0
LINE
  8
0
 10
-40.5406
 20
-58.8539
 11
-40.5367
 21
-58.9657
  0
LINE
  8
0
 10
-40.5367
 20
-58.9657
 11
-40.5144
 21
-59.5258
  0
LINE
  8
0
 10
-40.5144
 20
-59.5258
 11
-40.5075
 21
-59.6733
  0
LINE
  8
0
 10
-40.5075
 20
-59.6733
 11
-40.4805
 21
-60.173
  0
LINE
  8
0
 10
-40.4805
 20
-60.173
 11
-40.472
 21
-60.3062
  0
LINE
  8
0
 10
-40.472
 20
-60.3062
 11
-40.3775
 21
-61.1106
  0
LINE
  8
0
 10
-40.3775
 20
-61.1106
 11
-40.2254
 21
-61.845
  0
LINE
  8
0
 10
-40.2254
 20
-61.845
 11
-40.0099
 21
-62.5634
  0
LINE
  8
0
 10
-40.0099
 20
-62.5634
 11
-39.7326
 21
-63.2602
  0
LINE
  8
0
 10
-39.7326
 20
-63.2602
 11
-39.3957
 21
-63.9301
  0
LINE
  8
0
 10
-39.3957
 20
-63.9301
 11
-39.0015
 21
-64.5684
  0
LINE
  8
0
 10
-39.0015
 20
-64.5684
 11
-38.5533
 21
-65.1697
  0
LINE
  8
0
 10
-38.5533
 20
-65.1697
 11
-38.0546
 21
-65.7295
  0
LINE
  8
0
 10
-38.0546
 20
-65.7295
 11
-37.5087
 21
-66.244
  0
LINE
  8
0
 10
-37.5087
 20
-66.244
 11
-36.9201
 21
-66.7088
  0
LINE
  8
0
 10
-36.9201
 20
-66.7088
 11
-36.2934
 21
-67.1205
  0
LINE
  8
0
 10
-36.2934
 20
-67.1205
 11
-35.6329
 21
-67.4761
  0
LINE
  8
0
 10
-35.6329
 20
-67.4761
 11
-34.9443
 21
-67.7727
  0
LINE
  8
0
 10
-34.9443
 20
-67.7727
 11
-34.2321
 21
-68.0083
  0
LINE
  8
0
 10
-34.2321
 20
-68.0083
 11
-33.5022
 21
-68.1808
  0
LINE
  8
0
 10
-33.5022
 20
-68.1808
 11
-32.7602
 21
-68.2891
  0
LINE
  8
0
 10
-32.7602
 20
-68.2891
 11
-32.0194
 21
-68.3318
  0
LINE
  8
0
 10
-32.0194
 20
-68.3318
 11
-31.0995
 21
-68.3002
  0
LINE
  8
0
 10
-31.0995
 20
-68.3002
 11
-30.7194
 21
-68.2687
  0
LINE
  8
0
 10
-30.7194
 20
-68.2687
 11
-30.5425
 21
-68.2525
  0
LINE
  8
0
 10
-30.5425
 20
-68.2525
 11
-29.7679
 21
-68.175
  0
LINE
  8
0
 10
-29.7679
 20
-68.175
 11
-29.6593
 21
-68.1636
  0
LINE
  8
0
 10
-29.6593
 20
-68.1636
 11
-28.756
 21
-68.0633
  0
LINE
  8
0
 10
-28.756
 20
-68.0633
 11
-28.7079
 21
-68.0578
  0
LINE
  8
0
 10
-28.7079
 20
-68.0578
 11
-27.6944
 21
-67.9398
  0
LINE
  8
0
 10
-27.6944
 20
-67.9398
 11
-26.5918
 21
-67.811
  0
LINE
  8
0
 10
-26.5918
 20
-67.811
 11
-25.437
 21
-67.6806
  0
LINE
  8
0
 10
-25.437
 20
-67.6806
 11
-24.2148
 21
-67.552
  0
LINE
  8
0
 10
-24.2148
 20
-67.552
 11
-22.9332
 21
-67.4315
  0
LINE
  8
0
 10
-22.9332
 20
-67.4315
 11
-21.5901
 21
-67.3241
  0
LINE
  8
0
 10
-21.5901
 20
-67.3241
 11
-20.1982
 21
-67.2357
  0
LINE
  8
0
 10
-20.1982
 20
-67.2357
 11
-18.7546
 21
-67.1591
  0
LINE
  8
0
 10
-18.7546
 20
-67.1591
 11
-17.2324
 21
-67.083
  0
LINE
  8
0
 10
-17.2324
 20
-67.083
 11
-15.6503
 21
-67.0087
  0
LINE
  8
0
 10
-15.6503
 20
-67.0087
 11
-13.9928
 21
-66.9362
  0
LINE
  8
0
 10
-13.9928
 20
-66.9362
 11
-12.2939
 21
-66.8679
  0
LINE
  8
0
 10
-12.2939
 20
-66.8679
 11
-10.5542
 21
-66.8045
  0
LINE
  8
0
 10
-10.5542
 20
-66.8045
 11
-8.78926
 21
-66.7473
  0
LINE
  8
0
 10
-8.78926
 20
-66.7473
 11
-7.0123
 21
-66.6977
  0
LINE
  8
0
 10
-7.0123
 20
-66.6977
 11
-5.23227
 21
-66.6569
  0
LINE
  8
0
 10
-5.23227
 20
-66.6569
 11
-3.46231
 21
-66.6261
  0
LINE
  8
0
 10
-3.46231
 20
-66.6261
 11
-1.71558
 21
-66.6067
  0
LINE
  8
0
 10
-1.71558
 20
-66.6067
 11
0
 21
-66.6
  0
LINE
  8
0
 10
0
 20
-66.6
 11
1.71558
 21
-66.6067
  0
LINE
  8
0
 10
1.71558
 20
-66.6067
 11
3.46231
 21
-66.6261
  0
LINE
  8
0
 10
3.46231
 20
-66.6261
 11
5.23227
 21
-66.6569
  0
LINE
  8
0
 10
5.23227
 20
-66.6569
 11
7.0123
 21
-66.6977
  0
LINE
  8
0
 10
7.0123
 20
-66.6977
 11
8.78926
 21
-66.7473
  0
LINE
  8
0
 10
8.78926
 20
-66.7473
 11
10.5542
 21
-66.8045
  0
LINE
  8
0
 10
10.5542
 20
-66.8045
 11
12.2939
 21
-66.8679
  0
LINE
  8
0
 10
12.2939
 20
-66.8679
 11
13.9928
 21
-66.9362
  0
LINE
  8
0
 10
13.9928
 20
-66.9362
 11
15.6503
 21
-67.0087
  0
LINE
  8
0
 10
15.6503
 20
-67.0087
 11
17.2324
 21
-67.083
  0
LINE
  8
0
 10
17.2324
 20
-67.083
 11
18.7546
 21
-67.1591
  0
LINE
  8
0
 10
18.7546
 20
-67.1591
 11
20.1982
 21
-67.2357
  0
LINE
  8
0
 10
20.1982
 20
-67.2357
 11
21.5901
 21
-67.3241
  0
LINE
  8
0
 10
21.5901
 20
-67.3241
 11
22.9332
 21
-67.4315
  0
LINE
  8
0
 10
22.9332
 20
-67.4315
 11
24.2148
 21
-67.552
  0
LINE
  8
0
 10
24.2148
 20
-67.552
 11
25.437
 21
-67.6806
  0
LINE
  8
0
 10
25.437
 20
-67.6806
 11
26.5918
 21
-67.811
  0
LINE
  8
0
 10
26.5918
 20
-67.811
 11
27.6987
 21
-67.9403
  0
LINE
  8
0
 10
27.6987
 20
-67.9403
 11
28.7099
 21
-68.058
  0
LINE
  8
0
 10
28.7099
 20
-68.058
 11
28.756
 21
-68.0633
  0
LINE
  8
0
 10
28.756
 20
-68.0633
 11
29.6593
 21
-68.1636
  0
LINE
  8
0
 10
29.6593
 20
-68.1636
 11
29.7679
 21
-68.175
  0
LINE
  8
0
 10
-30.1395
 20
-38.0944
 11
-30.2779
 21
-38.0762
  0
LINE
  8
0
 10
-30.2779
 20
-38.0762
 11
-30.4142
 21
-38.0459
  0
LINE
  8
0
 10
-30.4142
 20
-38.0459
 11
-30.5474
 21
-38.004
  0
LINE
  8
0
 10
-30.5474
 20
-38.004
 11
-30.6764
 21
-37.9505
  0
LINE
  8
0
 10
-30.6764
 20
-37.9505
 11
-30.8002
 21
-37.886
  0
LINE
  8
0
 10
-30.8002
 20
-37.886
 11
-30.918
 21
-37.811
  0
LINE
  8
0
 10
-30.918
 20
-37.811
 11
-31.0287
 21
-37.726
  0
LINE
  8
0
 10
-31.0287
 20
-37.726
 11
-31.1317
 21
-37.6317
  0
LINE
  8
0
 10
-31.1317
 20
-37.6317
 11
-31.226
 21
-37.5287
  0
LINE
  8
0
 10
-31.226
 20
-37.5287
 11
-31.311
 21
-37.418
  0
LINE
  8
0
 10
-31.311
 20
-37.418
 11
-31.386
 21
-37.3002
  0
LINE
  8
0
 10
-31.386
 20
-37.3002
 11
-31.4505
 21
-37.1764
  0
LINE
  8
0
 10
-31.4505
 20
-37.1764
 11
-31.504
 21
-37.0474
  0
LINE
  8
0
 10
-31.504
 20
-37.0474
 11
-31.5459
 21
-36.9142
  0
LINE
  8
0
 10
-31.5459
 20
-36.9142
 11
-31.5762
 21
-36.7779
  0
LINE
  8
0
 10
-31.5762
 20
-36.7779
 11
-31.5944
 21
-36.6395
  0
LINE
  8
0
 10
-31.5944
 20
-36.6395
 11
-31.6005
 21
-36.5
  0
LINE
  8
0
 10
-31.6005
 20
-36.5
 11
-31.5944
 21
-36.3605
  0
LINE
  8
0
 10
-31.5944
 20
-36.3605
 11
-31.5762
 21
-36.2221
  0
LINE
  8
0
 10
-31.5762
 20
-36.2221
 11
-31.5459
 21
-36.0858
  0
LINE
  8
0
 10
-31.5459
 20
-36.0858
 11
-31.504
 21
-35.9526
  0
LINE
  8
0
 10
-31.504
 20
-35.9526
 11
-31.4505
 21
-35.8236
  0
LINE
  8
0
 10
-31.4505
 20
-35.8236
 11
-31.386
 21
-35.6998
  0
LINE
  8
0
 10
-31.386
 20
-35.6998
 11
-31.311
 21
-35.582
  0
LINE
  8
0
 10
-31.311
 20
-35.582
 11
-31.226
 21
-35.4713
  0
LINE
  8
0
 10
-31.226
 20
-35.4713
 11
-31.1317
 21
-35.3683
  0
LINE
  8
0
 10
-31.1317
 20
-35.3683
 11
-31.0287
 21
-35.2739
  0
LINE
  8
0
 10
-31.0287
 20
-35.2739
 11
-30.918
 21
-35.1889
  0
LINE
  8
0
 10
-30.918
 20
-35.1889
 11
-30.8002
 21
-35.1139
  0
LINE
  8
0
 10
-30.8002
 20
-35.1139
 11
-30.6764
 21
-35.0495
  0
LINE
  8
0
 10
-30.6764
 20
-35.0495
 11
-30.5474
 21
-34.996
  0
LINE
  8
0
 10
-30.5474
 20
-34.996
 11
-30.4142
 21
-34.954
  0
LINE
  8
0
 10
-30.4142
 20
-34.954
 11
-30.2779
 21
-34.9238
  0
LINE
  8
0
 10
-30.2779
 20
-34.9238
 11
-30.1395
 21
-34.9056
  0
LINE
  8
0
 10
-30.1395
 20
-34.9056
 11
-30
 21
-34.8995
  0
LINE
  8
0
 10
-30
 20
-34.8995
 11
-29.8605
 21
-34.9056
  0
LINE
  8
0
 10
-29.8605
 20
-34.9056
 11
-29.7221
 21
-34.9238
  0
LINE
  8
0
 10
-29.7221
 20
-34.9238
 11
-29.5858
 21
-34.954
  0
LINE
  8
0
 10
-29.5858
 20
-34.954
 11
-29.4526
 21
-34.996
  0
LINE
  8
0
 10
-29.4526
 20
-34.996
 11
-29.3236
 21
-35.0495
  0
LINE
  8
0
 10
-29.3236
 20
-35.0495
 11
-29.1998
 21
-35.1139
  0
LINE
  8
0
 10
-29.1998
 20
-35.1139
 11
-29.082
 21
-35.1889
  0
LINE
  8
0
 10
-29.082
 20
-35.1889
 11
-28.9713
 21
-35.2739
  0
LINE
  8
0
 10
-28.9713
 20
-35.2739
 11
-28.8683
 21
-35.3683
  0
LINE
  8
0
 10
-28.8683
 20
-35.3683
 11
-28.7739
 21
-35.4713
  0
LINE
  8
0
 10
-28.7739
 20
-35.4713
 11
-28.6889
 21
-35.582
  0
LINE
  8
0
 10
-28.6889
 20
-35.582
 11
-28.6139
 21
-35.6998
  0
LINE
  8
0
 10
-28.6139
 20
-35.6998
 11
-28.5495
 21
-35.8236
  0
LINE
  8
0
 10
-28.5495
 20
-35.8236
 11
-28.496
 21
-35.9526
  0
LINE
  8
0
 10
-28.496
 20
-35.9526
 11
-28.454
 21
-36.0858
  0
LINE
  8
0
 10
-28.454
 20
-36.0858
 11
-28.4238
 21
-36.2221
  0
LINE
  8
0
 10
-28.4238
 20
-36.2221
 11
-28.4056
 21
-36.3605
  0
LINE
  8
0
 10
-28.4056
 20
-36.3605
 11
-28.3995
 21
-36.5
  0
LINE
  8
0
 10
-28.3995
 20
-36.5
 11
-28.4056
 21
-36.6395
  0
LINE
  8
0
 10
-28.4056
 20
-36.6395
 11
-28.4238
 21
-36.7779
  0
LINE
  8
0
 10
-28.4238
 20
-36.7779
 11
-28.454
 21
-36.9142
  0
LINE
  8
0
 10
-28.454
 20
-36.9142
 11
-28.496
 21
-37.0474
  0
LINE
  8
0
 10
-28.496
 20
-37.0474
 11
-28.5495
 21
-37.1764
  0
LINE
  8
0
 10
-28.5495
 20
-37.1764
 11
-28.6139
 21
-37.3002
  0
LINE
  8
0
 10
-28.6139
 20
-37.3002
 11
-28.6889
 21
-37.418
  0
LINE
  8
0
 10
-28.6889
 20
-37.418
 11
-28.7739
 21
-37.5287
  0
LINE
  8
0
 10
-28.7739
 20
-37.5287
 11
-28.8683
 21
-37.6317
  0
LINE
  8
0
 10
-28.8683
 20
-37.6317
 11
-28.9713
 21
-37.726
  0
LINE
  8
0
 10
-28.9713
 20
-37.726
 11
-29.082
 21
-37.811
  0
LINE
  8
0
 10
-29.082
 20
-37.811
 11
-29.1998
 21
-37.886
  0
LINE
  8
0
 10
-29.1998
 20
-37.886
 11
-29.3236
 21
-37.9505
  0
LINE
  8
0
 10
-29.3236
 20
-37.9505
 11
-29.4526
 21
-38.004
  0
LINE
  8
0
 10
-29.4526
 20
-38.004
 11
-29.5858
 21
-38.0459
  0
LINE
  8
0
 10
-29.5858
 20
-38.0459
 11
-29.7221
 21
-38.0762
  0
LINE
  8
0
 10
-29.7221
 20
-38.0762
 11
-29.8605
 21
-38.0944
  0
LINE
  8
0
 10
-29.8605
 20
-38.0944
 11
-30
 21
-38.1005
  0
LINE
  8
0
 10
-30
 20
-38.1005
 11
-30.1395
 21
-38.0944
  0
LINE
  8
0
 10
29.8605
 20
-38.0944
 11
29.7221
 21
-38.0762
  0
LINE
  8
0
 10
29.7221
 20
-38.0762
 11
29.5858
 21
-38.0459
  0
LINE
  8
0
 10
29.5858
 20
-38.0459
 11
29.4526
 21
-38.004
  0
LINE
  8
0
 10
29.4526
 20
-38.004
 11
29.3236
 21
-37.9505
  0
LINE
  8
0
 10
29.3236
 20
-37.9505
 11
29.1998
 21
-37.886
  0
LINE
  8
0
 10
29.1998
 20
-37.886
 11
29.082
 21
-37.811
  0
LINE
  8
0
 10
29.082
 20
-37.811
 11
28.9713
 21
-37.726
  0
LINE
  8
0
 10
28.9713
 20
-37.726
 11
28.8683
 21
-37.6317
  0
LINE
  8
0
 10
28.8683
 20
-37.6317
 11
28.7739
 21
-37.5287
  0
LINE
  8
0
 10
28.7739
 20
-37.5287
 11
28.6889
 21
-37.418
  0
LINE
  8
0
 10
28.6889
 20
-37.418
 11
28.6139
 21
-37.3002
  0
LINE
  8
0
 10
28.6139
 20
-37.3002
 11
28.5495
 21
-37.1764
  0
LINE
  8
0
 10
28.5495
 20
-37.1764
 11
28.496
 21
-37.0474
  0
LINE
  8
0
 10
28.496
 20
-37.0474
 11
28.454
 21
-36.9142
  0
LINE
  8
0
 10
28.454
 20
-36.9142
 11
28.4238
 21
-36.7779
  0
LINE
  8
0
 10
28.4238
 20
-36.7779
 11
28.4056
 21
-36.6395
  0
LINE
  8
0
 10
28.4056
 20
-36.6395
 11
28.3995
 21
-36.5
  0
LINE
  8
0
 10
28.3995
 20
-36.5
 11
28.4056
 21
-36.3605
  0
LINE
  8
0
 10
28.4056
 20
-36.3605
 11
28.4238
 21
-36.2221
  0
LINE
  8
0
 10
28.4238
 20
-36.2221
 11
28.454
 21
-36.0858
  0
LINE
  8
0
 10
28.454
 20
-36.0858
 11
28.496
 21
-35.9526
  0
LINE
  8
0
 10
28.496
 20
-35.9526
 11
28.5495
 21
-35.8236
  0
LINE
  8
0
 10
28.5495
 20
-35.8236
 11
28.6139
 21
-35.6998
  0
LINE
  8
0
 10
28.6139
 20
-35.6998
 11
28.6889
 21
-35.582
  0
LINE
  8
0
 10
28.6889
 20
-35.582
 11
28.7739
 21
-35.4713
  0
LINE
  8
0
 10
28.7739
 20
-35.4713
 11
28.8683
 21
-35.3683
  0
LINE
  8
0
 10
28.8683
 20
-35.3683
 11
28.9713
 21
-35.2739
  0
LINE
  8
0
 10
28.9713
 20
-35.2739
 11
29.082
 21
-35.1889
  0
LINE
  8
0
 10
29.082
 20
-35.1889
 11
29.1998
 21
-35.1139
  0
LINE
  8
0
 10
29.1998
 20
-35.1139
 11
29.3236
 21
-35.0495
  0
LINE
  8
0
 10
29.3236
 20
-35.0495
 11
29.4526
 21
-34.996
  0
LINE
  8
0
 10
29.4526
 20
-34.996
 11
29.5858
 21
-34.954
  0
LINE
  8
0
 10
29.5858
 20
-34.954
 11
29.7221
 21
-34.9238
  0
LINE
  8
0
 10
29.7221
 20
-34.9238
 11
29.8605
 21
-34.9056
  0
LINE
  8
0
 10
29.8605
 20
-34.9056
 11
30
 21
-34.8995
  0
LINE
  8
0
 10
30
 20
-34.8995
 11
30.1395
 21
-34.9056
  0
LINE
  8
0
 10
30.1395
 20
-34.9056
 11
30.2779
 21
-34.9238
  0
LINE
  8
0
 10
30.2779
 20
-34.9238
 11
30.4142
 21
-34.954
  0
LINE
  8
0
 10
30.4142
 20
-34.954
 11
30.5474
 21
-34.996
  0
LINE
  8
0
 10
30.5474
 20
-34.996
 11
30.6764
 21
-35.0495
  0
LINE
  8
0
 10
30.6764
 20
-35.0495
 11
30.8002
 21
-35.1139
  0
LINE
  8
0
 10
30.8002
 20
-35.1139
 11
30.918
 21
-35.1889
  0
LINE
  8
0
 10
30.918
 20
-35.1889
 11
31.0287
 21
-35.2739
  0
LINE
  8
0
 10
31.0287
 20
-35.2739
 11
31.1317
 21
-35.3683
  0
LINE
  8
0
 10
31.1317
 20
-35.3683
 11
31.226
 21
-35.4713
  0
LINE
  8
0
 10
31.226
 20
-35.4713
 11
31.311
 21
-35.582
  0
LINE
  8
0
 10
31.311
 20
-35.582
 11
31.386
 21
-35.6998
  0
LINE
  8
0
 10
31.386
 20
-35.6998
 11
31.4505
 21
-35.8236
  0
LINE
  8
0
 10
31.4505
 20
-35.8236
 11
31.504
 21
-35.9526
  0
LINE
  8
0
 10
31.504
 20
-35.9526
 11
31.5459
 21
-36.0858
  0
LINE
  8
0
 10
31.5459
 20
-36.0858
 11
31.5762
 21
-36.2221
  0
LINE
  8
0
 10
31.5762
 20
-36.2221
 11
31.5944
 21
-36.3605
  0
LINE
  8
0
 10
31.5944
 20
-36.3605
 11
31.6005
 21
-36.5
  0
LINE
  8
0
 10
31.6005
 20
-36.5
 11
31.5944
 21
-36.6395
  0
LINE
  8
0
 10
31.5944
 20
-36.6395
 11
31.5762
 21
-36.7779
  0
LINE
  8
0
 10
31.5762
 20
-36.7779
 11
31.5459
 21
-36.9142
  0
LINE
  8
0
 10
31.5459
 20
-36.9142
 11
31.504
 21
-37.0474
  0
LINE
  8
0
 10
31.504
 20
-37.0474
 11
31.4505
 21
-37.1764
  0
LINE
  8
0
 10
31.4505
 20
-37.1764
 11
31.386
 21
-37.3002
  0
LINE
  8
0
 10
31.386
 20
-37.3002
 11
31.311
 21
-37.418
  0
LINE
  8
0
 10
31.311
 20
-37.418
 11
31.226
 21
-37.5287
  0
LINE
  8
0
 10
31.226
 20
-37.5287
 11
31.1317
 21
-37.6317
  0
LINE
  8
0
 10
31.1317
 20
-37.6317
 11
31.0287
 21
-37.726
  0
LINE
  8
0
 10
31.0287
 20
-37.726
 11
30.918
 21
-37.811
  0
LINE
  8
0
 10
30.918
 20
-37.811
 11
30.8002
 21
-37.886
  0
LINE
  8
0
 10
30.8002
 20
-37.886
 11
30.6764
 21
-37.9505
  0
LINE
  8
0
 10
30.6764
 20
-37.9505
 11
30.5474
 21
-38.004
  0
LINE
  8
0
 10
30.5474
 20
-38.004
 11
30.4142
 21
-38.0459
  0
LINE
  8
0
 10
30.4142
 20
-38.0459
 11
30.2779
 21
-38.0762
  0
LINE
  8
0
 10
30.2779
 20
-38.0762
 11
30.1395
 21
-38.0944
  0
LINE
  8
0
 10
30.1395
 20
-38.0944
 11
30
 21
-38.1005
  0
LINE
  8
0
 10
30
 20
-38.1005
 11
29.8605
 21
-38.0944
  0
LINE
  8
0
 10
-0.610123
 20
-53.9738
 11
-1.21562
 21
-53.8941
  0
LINE
  8
0
 10
-1.21562
 20
-53.8941
 11
-1.81184
 21
-53.7619
  0
LINE
  8
0
 10
-1.81184
 20
-53.7619
 11
-2.3943
 21
-53.5783
  0
LINE
  8
0
 10
-2.3943
 20
-53.5783
 11
-2.95853
 21
-53.3446
  0
LINE
  8
0
 10
-2.95853
 20
-53.3446
 11
-3.50024
 21
-53.0626
  0
LINE
  8
0
 10
-3.50024
 20
-53.0626
 11
-4.0153
 21
-52.7345
  0
LINE
  8
0
 10
-4.0153
 20
-52.7345
 11
-4.49982
 21
-52.3627
  0
LINE
  8
0
 10
-4.49982
 20
-52.3627
 11
-4.95009
 21
-51.9501
  0
LINE
  8
0
 10
-4.95009
 20
-51.9501
 11
-5.36267
 21
-51.4998
  0
LINE
  8
0
 10
-5.36267
 20
-51.4998
 11
-5.73445
 21
-51.0153
  0
LINE
  8
0
 10
-5.73445
 20
-51.0153
 11
-6.06258
 21
-50.5002
  0
LINE
  8
0
 10
-6.06258
 20
-50.5002
 11
-6.34457
 21
-49.9585
  0
LINE
  8
0
 10
-6.34457
 20
-49.9585
 11
-6.57829
 21
-49.3943
  0
LINE
  8
0
 10
-6.57829
 20
-49.3943
 11
-6.76193
 21
-48.8118
  0
LINE
  8
0
 10
-6.76193
 20
-48.8118
 11
-6.89412
 21
-48.2156
  0
LINE
  8
0
 10
-6.89412
 20
-48.2156
 11
-6.97383
 21
-47.6101
  0
LINE
  8
0
 10
-6.97383
 20
-47.6101
 11
-7.00047
 21
-47
  0
LINE
  8
0
 10
-7.00047
 20
-47
 11
-6.97383
 21
-46.3899
  0
LINE
  8
0
 10
-6.97383
 20
-46.3899
 11
-6.89412
 21
-45.7844
  0
LINE
  8
0
 10
-6.89412
 20
-45.7844
 11
-6.76193
 21
-45.1881
  0
LINE
  8
0
 10
-6.76193
 20
-45.1881
 11
-6.57829
 21
-44.6057
  0
LINE
  8
0
 10
-6.57829
 20
-44.6057
 11
-6.34457
 21
-44.0415
  0
LINE
  8
0
 10
-6.34457
 20
-44.0415
 11
-6.06258
 21
-43.4998
  0
LINE
  8
0
 10
-6.06258
 20
-43.4998
 11
-5.73445
 21
-42.9847
  0
LINE
  8
0
 10
-5.73445
 20
-42.9847
 11
-5.36267
 21
-42.5002
  0
LINE
  8
0
 10
-5.36267
 20
-42.5002
 11
-4.95009
 21
-42.0499
  0
LINE
  8
0
 10
-4.95009
 20
-42.0499
 11
-4.49982
 21
-41.6373
  0
LINE
  8
0
 10
-4.49982
 20
-41.6373
 11
-4.0153
 21
-41.2655
  0
LINE
  8
0
 10
-4.0153
 20
-41.2655
 11
-3.50024
 21
-40.9374
  0
LINE
  8
0
 10
-3.50024
 20
-40.9374
 11
-2.95853
 21
-40.6554
  0
LINE
  8
0
 10
-2.95853
 20
-40.6554
 11
-2.3943
 21
-40.4217
  0
LINE
  8
0
 10
-2.3943
 20
-40.4217
 11
-1.81184
 21
-40.2381
  0
LINE
  8
0
 10
-1.81184
 20
-40.2381
 11
-1.21562
 21
-40.1059
  0
LINE
  8
0
 10
-1.21562
 20
-40.1059
 11
-0.610107
 21
-40.0262
  0
LINE
  8
0
 10
-0.610107
 20
-40.0262
 11
0
 21
-39.9995
  0
LINE
  8
0
 10
0
 20
-39.9995
 11
0.610107
 21
-40.0262
  0
LINE
  8
0
 10
0.610107
 20
-40.0262
 11
1.21562
 21
-40.1059
  0
LINE
  8
0
 10
1.21562
 20
-40.1059
 11
1.81184
 21
-40.2381
  0
LINE
  8
0
 10
1.81184
 20
-40.2381
 11
2.3943
 21
-40.4217
  0
LINE
  8
0
 10
2.3943
 20
-40.4217
 11
2.95853
 21
-40.6554
  0
LINE
  8
0
 10
2.95853
 20
-40.6554
 11
3.50024
 21
-40.9374
  0
LINE
  8
0
 10
3.50024
 20
-40.9374
 11
4.0153
 21
-41.2655
  0
LINE
  8
0
 10
4.0153
 20
-41.2655
 11
4.49982
 21
-41.6373
  0
LINE
  8
0
 10
4.49982
 20
-41.6373
 11
4.95009
 21
-42.0499
  0
LINE
  8
0
 10
4.95009
 20
-42.0499
 11
5.36267
 21
-42.5002
  0
LINE
  8
0
 10
5.36267
 20
-42.5002
 11
5.73445
 21
-42.9847
  0
LINE
  8
0
 10
5.73445
 20
-42.9847
 11
6.06258
 21
-43.4998
  0
LINE
  8
0
 10
6.06258
 20
-43.4998
 11
6.34457
 21
-44.0415
  0
LINE
  8
0
 10
6.34457
 20
-44.0415
 11
6.57829
 21
-44.6057
  0
LINE
  8
0
 10
6.57829
 20
-44.6057
 11
6.76193
 21
-45.1881
  0
LINE
  8
0
 10
6.76193
 20
-45.1881
 11
6.89412
 21
-45.7844
  0
LINE
  8
0
 10
6.89412
 20
-45.7844
 11
6.97383
 21
-46.3899
  0
LINE
  8
0
 10
6.97383
 20
-46.3899
 11
7.00047
 21
-47
  0
LINE
  8
0
 10
7.00047
 20
-47
 11
6.97383
 21
-47.6101
  0
LINE
  8
0
 10
6.97383
 20
-47.6101
 11
6.89412
 21
-48.2156
  0
LINE
  8
0
 10
6.89412
 20
-48.2156
 11
6.76193
 21
-48.8118
  0
LINE
  8
0
 10
6.76193
 20
-48.8118
 11
6.57829
 21
-49.3943
  0
LINE
  8
0
 10
6.57829
 20
-49.3943
 11
6.34457
 21
-49.9585
  0
LINE
  8
0
 10
6.34457
 20
-49.9585
 11
6.06258
 21
-50.5002
  0
LINE
  8
0
 10
6.06258
 20
-50.5002
 11
5.73445
 21
-51.0153
  0
LINE
  8
0
 10
5.73445
 20
-51.0153
 11
5.36267
 21
-51.4998
  0
LINE
  8
0
 10
5.36267
 20
-51.4998
 11
4.95009
 21
-51.9501
  0
LINE
  8
0
 10
4.95009
 20
-51.9501
 11
4.49982
 21
-52.3627
  0
LINE
  8
0
 10
4.49982
 20
-52.3627
 11
4.0153
 21
-52.7345
  0
LINE
  8
0
 10
4.0153
 20
-52.7345
 11
3.50024
 21
-53.0626
  0
LINE
  8
0
 10
3.50024
 20
-53.0626
 11
2.95853
 21
-53.3446
  0
LINE
  8
0
 10
2.95853
 20
-53.3446
 11
2.3943
 21
-53.5783
  0
LINE
  8
0
 10
2.3943
 20
-53.5783
 11
1.81184
 21
-53.7619
  0
LINE
  8
0
 10
1.81184
 20
-53.7619
 11
1.21562
 21
-53.8941
  0
LINE
  8
0
 10
1.21562
 20
-53.8941
 11
0.610123
 21
-53.9738
  0
LINE
  8
0
 10
0.610123
 20
-53.9738
 11
0
 21
-54.0005
  0
LINE
  8
0
 10
0
 20
-54.0005
 11
-0.610123
 21
-53.9738
  0
LINE
  8
0
 10
-35.3312
 20
-66.786
 11
-35.6599
 21
-66.7427
  0
LINE
  8
0
 10
-35.6599
 20
-66.7427
 11
-35.9836
 21
-66.671
  0
LINE
  8
0
 10
-35.9836
 20
-66.671
 11
-36.2998
 21
-66.5713
  0
LINE
  8
0
 10
-36.2998
 20
-66.5713
 11
-36.6062
 21
-66.4444
  0
LINE
  8
0
 10
-36.6062
 20
-66.4444
 11
-36.9002
 21
-66.2913
  0
LINE
  8
0
 10
-36.9002
 20
-66.2913
 11
-37.1799
 21
-66.1132
  0
LINE
  8
0
 10
-37.1799
 20
-66.1132
 11
-37.4429
 21
-65.9113
  0
LINE
  8
0
 10
-37.4429
 20
-65.9113
 11
-37.6873
 21
-65.6873
  0
LINE
  8
0
 10
-37.6873
 20
-65.6873
 11
-37.9113
 21
-65.4429
  0
LINE
  8
0
 10
-37.9113
 20
-65.4429
 11
-38.1132
 21
-65.1799
  0
LINE
  8
0
 10
-38.1132
 20
-65.1799
 11
-38.2913
 21
-64.9002
  0
LINE
  8
0
 10
-38.2913
 20
-64.9002
 11
-38.4444
 21
-64.6062
  0
LINE
  8
0
 10
-38.4444
 20
-64.6062
 11
-38.5713
 21
-64.2998
  0
LINE
  8
0
 10
-38.5713
 20
-64.2998
 11
-38.671
 21
-63.9836
  0
LINE
  8
0
 10
-38.671
 20
-63.9836
 11
-38.7427
 21
-63.6599
  0
LINE
  8
0
 10
-38.7427
 20
-63.6599
 11
-38.786
 21
-63.3312
  0
LINE
  8
0
 10
-38.786
 20
-63.3312
 11
-38.8005
 21
-63
  0
LINE
  8
0
 10
-38.8005
 20
-63
 11
-38.786
 21
-62.6688
  0
LINE
  8
0
 10
-38.786
 20
-62.6688
 11
-38.7427
 21
-62.3401
  0
LINE
  8
0
 10
-38.7427
 20
-62.3401
 11
-38.671
 21
-62.0164
  0
LINE
  8
0
 10
-38.671
 20
-62.0164
 11
-38.5713
 21
-61.7001
  0
LINE
  8
0
 10
-38.5713
 20
-61.7001
 11
-38.4444
 21
-61.3938
  0
LINE
  8
0
 10
-38.4444
 20
-61.3938
 11
-38.2913
 21
-61.0997
  0
LINE
  8
0
 10
-38.2913
 20
-61.0997
 11
-38.1132
 21
-60.8201
  0
LINE
  8
0
 10
-38.1132
 20
-60.8201
 11
-37.9113
 21
-60.5571
  0
LINE
  8
0
 10
-37.9113
 20
-60.5571
 11
-37.6873
 21
-60.3126
  0
LINE
  8
0
 10
-37.6873
 20
-60.3126
 11
-37.4429
 21
-60.0887
  0
LINE
  8
0
 10
-37.4429
 20
-60.0887
 11
-37.1799
 21
-59.8868
  0
LINE
  8
0
 10
-37.1799
 20
-59.8868
 11
-36.9002
 21
-59.7087
  0
LINE
  8
0
 10
-36.9002
 20
-59.7087
 11
-36.6062
 21
-59.5556
  0
LINE
  8
0
 10
-36.6062
 20
-59.5556
 11
-36.2998
 21
-59.4287
  0
LINE
  8
0
 10
-36.2998
 20
-59.4287
 11
-35.9836
 21
-59.329
  0
LINE
  8
0
 10
-35.9836
 20
-59.329
 11
-35.6599
 21
-59.2572
  0
LINE
  8
0
 10
-35.6599
 20
-59.2572
 11
-35.3312
 21
-59.214
  0
LINE
  8
0
 10
-35.3312
 20
-59.214
 11
-35
 21
-59.1995
  0
LINE
  8
0
 10
-35
 20
-59.1995
 11
-34.6688
 21
-59.214
  0
LINE
  8
0
 10
-34.6688
 20
-59.214
 11
-34.3401
 21
-59.2572
  0
LINE
  8
0
 10
-34.3401
 20
-59.2572
 11
-34.0164
 21
-59.329
  0
LINE
  8
0
 10
-34.0164
 20
-59.329
 11
-33.7001
 21
-59.4287
  0
LINE
  8
0
 10
-33.7001
 20
-59.4287
 11
-33.3938
 21
-59.5556
  0
LINE
  8
0
 10
-33.3938
 20
-59.5556
 11
-33.0997
 21
-59.7087
  0
LINE
  8
0
 10
-33.0997
 20
-59.7087
 11
-32.8201
 21
-59.8868
  0
LINE
  8
0
 10
-32.8201
 20
-59.8868
 11
-32.5571
 21
-60.0887
  0
LINE
  8
0
 10
-32.5571
 20
-60.0887
 11
-32.3126
 21
-60.3126
  0
LINE
  8
0
 10
-32.3126
 20
-60.3126
 11
-32.0887
 21
-60.5571
  0
LINE
  8
0
 10
-32.0887
 20
-60.5571
 11
-31.8868
 21
-60.8201
  0
LINE
  8
0
 10
-31.8868
 20
-60.8201
 11
-31.7087
 21
-61.0997
  0
LINE
  8
0
 10
-31.7087
 20
-61.0997
 11
-31.5556
 21
-61.3938
  0
LINE
  8
0
 10
-31.5556
 20
-61.3938
 11
-31.4287
 21
-61.7001
  0
LINE
  8
0
 10
-31.4287
 20
-61.7001
 11
-31.329
 21
-62.0164
  0
LINE
  8
0
 10
-31.329
 20
-62.0164
 11
-31.2572
 21
-62.3401
  0
LINE
  8
0
 10
-31.2572
 20
-62.3401
 11
-31.214
 21
-62.6688
  0
LINE
  8
0
 10
-31.214
 20
-62.6688
 11
-31.1995
 21
-63
  0
LINE
  8
0
 10
-31.1995
 20
-63
 11
-31.214
 21
-63.3312
  0
LINE
  8
0
 10
-31.214
 20
-63.3312
 11
-31.2572
 21
-63.6599
  0
LINE
  8
0
 10
-31.2572
 20
-63.6599
 11
-31.329
 21
-63.9836
  0
LINE
  8
0
 10
-31.329
 20
-63.9836
 11
-31.4287
 21
-64.2998
  0
LINE
  8
0
 10
-31.4287
 20
-64.2998
 11
-31.5556
 21
-64.6062
  0
LINE
  8
0
 10
-31.5556
 20
-64.6062
 11
-31.7087
 21
-64.9002
  0
LINE
  8
0
 10
-31.7087
 20
-64.9002
 11
-31.8868
 21
-65.1799
  0
LINE
  8
0
 10
-31.8868
 20
-65.1799
 11
-32.0887
 21
-65.4429
  0
LINE
  8
0
 10
-32.0887
 20
-65.4429
 11
-32.3126
 21
-65.6873
  0
LINE
  8
0
 10
-32.3126
 20
-65.6873
 11
-32.5571
 21
-65.9113
  0
LINE
  8
0
 10
-32.5571
 20
-65.9113
 11
-32.8201
 21
-66.1132
  0
LINE
  8
0
 10
-32.8201
 20
-66.1132
 11
-33.0997
 21
-66.2913
  0
LINE
  8
0
 10
-33.0997
 20
-66.2913
 11
-33.3938
 21
-66.4444
  0
LINE
  8
0
 10
-33.3938
 20
-66.4444
 11
-33.7001
 21
-66.5713
  0
LINE
  8
0
 10
-33.7001
 20
-66.5713
 11
-34.0164
 21
-66.671
  0
LINE
  8
0
 10
-34.0164
 20
-66.671
 11
-34.3401
 21
-66.7427
  0
LINE
  8
0
 10
-34.3401
 20
-66.7427
 11
-34.6688
 21
-66.786
  0
LINE
  8
0
 10
-34.6688
 20
-66.786
 11
-35
 21
-66.8005
  0
LINE
  8
0
 10
-35
 20
-66.8005
 11
-35.3312
 21
-66.786
  0
LINE
  8
0
 10
34.6688
 20
-66.786
 11
34.3401
 21
-66.7427
  0
LINE
  8
0
 10
34.3401
 20
-66.7427
 11
34.0164
 21
-66.671
  0
LINE
  8
0
 10
34.0164
 20
-66.671
 11
33.7001
 21
-66.5713
  0
LINE
  8
0
 10
33.7001
 20
-66.5713
 11
33.3938
 21
-66.4444
  0
LINE
  8
0
 10
33.3938
 20
-66.4444
 11
33.0997
 21
-66.2913
  0
LINE
  8
0
 10
33.0997
 20
-66.2913
 11
32.8201
 21
-66.1132
  0
LINE
  8
0
 10
32.8201
 20
-66.1132
 11
32.5571
 21
-65.9113
  0
LINE
  8
0
 10
32.5571
 20
-65.9113
 11
32.3126
 21
-65.6873
  0
LINE
  8
0
 10
32.3126
 20
-65.6873
 11
32.0887
 21
-65.4429
  0
LINE
  8
0
 10
32.0887
 20
-65.4429
 11
31.8868
 21
-65.1799
  0
LINE
  8
0
 10
31.8868
 20
-65.1799
 11
31.7087
 21
-64.9002
  0
LINE
  8
0
 10
31.7087
 20
-64.9002
 11
31.5556
 21
-64.6062
  0
LINE
  8
0
 10
31.5556
 20
-64.6062
 11
31.4287
 21
-64.2998
  0
LINE
  8
0
 10
31.4287
 20
-64.2998
 11
31.329
 21
-63.9836
  0
LINE
  8
0
 10
31.329
 20
-63.9836
 11
31.2572
 21
-63.6599
  0
LINE
  8
0
 10
31.2572
 20
-63.6599
 11
31.214
 21
-63.3312
  0
LINE
  8
0
 10
31.214
 20
-63.3312
 11
31.1995
 21
-63
  0
LINE
  8
0
 10
31.1995
 20
-63
 11
31.214
 21
-62.6688
  0
LINE
  8
0
 10
31.214
 20
-62.6688
 11
31.2572
 21
-62.3401
  0
LINE
  8
0
 10
31.2572
 20
-62.3401
 11
31.329
 21
-62.0164
  0
LINE
  8
0
 10
31.329
 20
-62.0164
 11
31.4287
 21
-61.7001
  0
LINE
  8
0
 10
31.4287
 20
-61.7001
 11
31.5556
 21
-61.3938
  0
LINE
  8
0
 10
31.5556
 20
-61.3938
 11
31.7087
 21
-61.0997
  0
LINE
  8
0
 10
31.7087
 20
-61.0997
 11
31.8868
 21
-60.8201
  0
LINE
  8
0
 10
31.8868
 20
-60.8201
 11
32.0887
 21
-60.5571
  0
LINE
  8
0
 10
32.0887
 20
-60.5571
 11
32.3126
 21
-60.3126
  0
LINE
  8
0
 10
32.3126
 20
-60.3126
 11
32.5571
 21
-60.0887
  0
LINE
  8
0
 10
32.5571
 20
-60.0887
 11
32.8201
 21
-59.8868
  0
LINE
  8
0
 10
32.8201
 20
-59.8868
 11
33.0997
 21
-59.7087
  0
LINE
  8
0
 10
33.0997
 20
-59.7087
 11
33.3938
 21
-59.5556
  0
LINE
  8
0
 10
33.3938
 20
-59.5556
 11
33.7001
 21
-59.4287
  0
LINE
  8
0
 10
33.7001
 20
-59.4287
 11
34.0164
 21
-59.329
  0
LINE
  8
0
 10
34.0164
 20
-59.329
 11
34.3401
 21
-59.2572
  0
LINE
  8
0
 10
34.3401
 20
-59.2572
 11
34.6688
 21
-59.214
  0
LINE
  8
0
 10
34.6688
 20
-59.214
 11
35
 21
-59.1995
  0
LINE
  8
0
 10
35
 20
-59.1995
 11
35.3312
 21
-59.214
  0
LINE
  8
0
 10
35.3312
 20
-59.214
 11
35.6599
 21
-59.2572
  0
LINE
  8
0
 10
35.6599
 20
-59.2572
 11
35.9836
 21
-59.329
  0
LINE
  8
0
 10
35.9836
 20
-59.329
 11
36.2998
 21
-59.4287
  0
LINE
  8
0
 10
36.2998
 20
-59.4287
 11
36.6062
 21
-59.5556
  0
LINE
  8
0
 10
36.6062
 20
-59.5556
 11
36.9002
 21
-59.7087
  0
LINE
  8
0
 10
36.9002
 20
-59.7087
 11
37.1799
 21
-59.8868
  0
LINE
  8
0
 10
37.1799
 20
-59.8868
 11
37.4429
 21
-60.0887
  0
LINE
  8
0
 10
37.4429
 20
-60.0887
 11
37.6873
 21
-60.3126
  0
LINE
  8
0
 10
37.6873
 20
-60.3126
 11
37.9113
 21
-60.5571
  0
LINE
  8
0
 10
37.9113
 20
-60.5571
 11
38.1132
 21
-60.8201
  0
LINE
  8
0
 10
38.1132
 20
-60.8201
 11
38.2913
 21
-61.0997
  0
LINE
  8
0
 10
38.2913
 20
-61.0997
 11
38.4444
 21
-61.3938
  0
LINE
  8
0
 10
38.4444
 20
-61.3938
 11
38.5713
 21
-61.7001
  0
LINE
  8
0
 10
38.5713
 20
-61.7001
 11
38.671
 21
-62.0164
  0
LINE
  8
0
 10
38.671
 20
-62.0164
 11
38.7427
 21
-62.3401
  0
LINE
  8
0
 10
38.7427
 20
-62.3401
 11
38.786
 21
-62.6688
  0
LINE
  8
0
 10
38.786
 20
-62.6688
 11
38.8005
 21
-63
  0
LINE
  8
0
 10
38.8005
 20
-63
 11
38.786
 21
-63.3312
  0
LINE
  8
0
 10
38.786
 20
-63.3312
 11
38.7427
 21
-63.6599
  0
LINE
  8
0
 10
38.7427
 20
-63.6599
 11
38.671
 21
-63.9836
  0
LINE
  8
0
 10
38.671
 20
-63.9836
 11
38.5713
 21
-64.2998
  0
LINE
  8
0
 10
38.5713
 20
-64.2998
 11
38.4444
 21
-64.6062
  0
LINE
  8
0
 10
38.4444
 20
-64.6062
 11
38.2913
 21
-64.9002
  0
LINE
  8
0
 10
38.2913
 20
-64.9002
 11
38.1132
 21
-65.1799
  0
LINE
  8
0
 10
38.1132
 20
-65.1799
 11
37.9113
 21
-65.4429
  0
LINE
  8
0
 10
37.9113
 20
-65.4429
 11
37.6873
 21
-65.6873
  0
LINE
  8
0
 10
37.6873
 20
-65.6873
 11
37.4429
 21
-65.9113
  0
LINE
  8
0
 10
37.4429
 20
-65.9113
 11
37.1799
 21
-66.1132
  0
LINE
  8
0
 10
37.1799
 20
-66.1132
 11
36.9002
 21
-66.2913
  0
LINE
  8
0
 10
36.9002
 20
-66.2913
 11
36.6062
 21
-66.4444
  0
LINE
  8
0
 10
36.6062
 20
-66.4444
 11
36.2998
 21
-66.5713
  0
LINE
  8
0
 10
36.2998
 20
-66.5713
 11
35.9836
 21
-66.671
  0
LINE
  8
0
 10
35.9836
 20
-66.671
 11
35.6599
 21
-66.7427
  0
LINE
  8
0
 10
35.6599
 20
-66.7427
 11
35.3312
 21
-66.786
  0
LINE
  8
0
 10
35.3312
 20
-66.786
 11
35
 21
-66.8005
  0
LINE
  8
0
 10
35
 20
-66.8005
 11
34.6688
 21
-66.786
  0
ENDSEC
  0
SECTION
  2
OBJECTS
  0
DICTIONARY
  0
ENDSEC
  0
EOF
