  0
SECTION
  2
BLOCKS
  0
ENDSEC
  0
SECTION
  2
ENTITIES
  0
LINE
  8
0
 10
34.5749
 20
-66.5717
 11
35.1455
 21
-66.4965
  0
LINE
  8
0
 10
35.1455
 20
-66.4965
 11
35.3899
 21
-66.4424
  0
LINE
  8
0
 10
35.3899
 20
-66.4424
 11
35.0997
 21
-66.2913
  0
LINE
  8
0
 10
35.0997
 20
-66.2913
 11
34.8201
 21
-66.1132
  0
LINE
  8
0
 10
34.8201
 20
-66.1132
 11
34.5571
 21
-65.9113
  0
LINE
  8
0
 10
34.5571
 20
-65.9113
 11
34.3126
 21
-65.6873
  0
LINE
  8
0
 10
34.3126
 20
-65.6873
 11
34.0887
 21
-65.4429
  0
LINE
  8
0
 10
34.0887
 20
-65.4429
 11
33.8868
 21
-65.1799
  0
LINE
  8
0
 10
33.8868
 20
-65.1799
 11
33.7087
 21
-64.9002
  0
LINE
  8
0
 10
33.7087
 20
-64.9002
 11
33.5556
 21
-64.6062
  0
LINE
  8
0
 10
33.5556
 20
-64.6062
 11
33.4287
 21
-64.2998
  0
LINE
  8
0
 10
33.4287
 20
-64.2998
 11
33.329
 21
-63.9836
  0
LINE
  8
0
 10
33.329
 20
-63.9836
 11
33.2572
 21
-63.6599
  0
LINE
  8
0
 10
33.2572
 20
-63.6599
 11
33.214
 21
-63.3312
  0
LINE
  8
0
 10
33.214
 20
-63.3312
 11
33.1995
 21
-63
  0
LINE
  8
0
 10
33.1995
 20
-63
 11
33.214
 21
-62.6688
  0
LINE
  8
0
 10
33.214
 20
-62.6688
 11
33.2572
 21
-62.3401
  0
LINE
  8
0
 10
33.2572
 20
-62.3401
 11
33.329
 21
-62.0164
  0
LINE
  8
0
 10
33.329
 20
-62.0164
 11
33.4287
 21
-61.7001
  0
LINE
  8
0
 10
33.4287
 20
-61.7001
 11
33.5556
 21
-61.3938
  0
LINE
  8
0
 10
33.5556
 20
-61.3938
 11
33.7087
 21
-61.0997
  0
LINE
  8
0
 10
33.7087
 20
-61.0997
 11
33.8868
 21
-60.8201
  0
LINE
  8
0
 10
33.8868
 20
-60.8201
 11
34.0887
 21
-60.5571
  0
LINE
  8
0
 10
34.0887
 20
-60.5571
 11
34.3126
 21
-60.3126
  0
LINE
  8
0
 10
34.3126
 20
-60.3126
 11
34.5571
 21
-60.0887
  0
LINE
  8
0
 10
34.5571
 20
-60.0887
 11
34.8201
 21
-59.8868
  0
LINE
  8
0
 10
34.8201
 20
-59.8868
 11
35.0997
 21
-59.7087
  0
LINE
  8
0
 10
35.0997
 20
-59.7087
 11
35.3938
 21
-59.5556
  0
LINE
  8
0
 10
35.3938
 20
-59.5556
 11
35.7001
 21
-59.4287
  0
LINE
  8
0
 10
35.7001
 20
-59.4287
 11
36.0164
 21
-59.329
  0
LINE
  8
0
 10
36.0164
 20
-59.329
 11
36.3401
 21
-59.2572
  0
LINE
  8
0
 10
36.3401
 20
-59.2572
 11
36.6688
 21
-59.214
  0
LINE
  8
0
 10
36.6688
 20
-59.214
 11
37
 21
-59.1995
  0
LINE
  8
0
 10
37
 20
-59.1995
 11
37.3312
 21
-59.214
  0
LINE
  8
0
 10
37.3312
 20
-59.214
 11
37.6599
 21
-59.2572
  0
LINE
  8
0
 10
37.6599
 20
-59.2572
 11
37.9836
 21
-59.329
  0
LINE
  8
0
 10
37.9836
 20
-59.329
 11
38.2998
 21
-59.4287
  0
LINE
  8
0
 10
38.2998
 20
-59.4287
 11
38.6062
 21
-59.5556
  0
LINE
  8
0
 10
38.6062
 20
-59.5556
 11
38.9002
 21
-59.7087
  0
LINE
  8
0
 10
38.9002
 20
-59.7087
 11
39.1799
 21
-59.8868
  0
LINE
  8
0
 10
39.1799
 20
-59.8868
 11
39.4429
 21
-60.0887
  0
LINE
  8
0
 10
39.4429
 20
-60.0887
 11
39.6873
 21
-60.3126
  0
LINE
  8
0
 10
39.6873
 20
-60.3126
 11
39.9113
 21
-60.5571
  0
LINE
  8
0
 10
39.9113
 20
-60.5571
 11
40.1132
 21
-60.8201
  0
LINE
  8
0
 10
40.1132
 20
-60.8201
 11
40.2913
 21
-61.0997
  0
LINE
  8
0
 10
40.2913
 20
-61.0997
 11
40.4424
 21
-61.3899
  0
LINE
  8
0
 10
40.4424
 20
-61.3899
 11
40.4965
 21
-61.1455
  0
LINE
  8
0
 10
40.4965
 20
-61.1455
 11
40.5717
 21
-60.5749
  0
LINE
  8
0
 10
40.5717
 20
-60.5749
 11
40.5968
 21
-60
  0
LINE
  8
0
 10
40.5968
 20
-60
 11
40.5669
 21
-59.3166
  0
LINE
  8
0
 10
40.5669
 20
-59.3166
 11
39.5818
 21
-44.6142
  0
LINE
  8
0
 10
39.5818
 20
-44.6142
 11
38.5973
 21
-33.8
  0
LINE
  8
0
 10
38.5973
 20
-33.8
 11
-38.5973
 21
-33.8
  0
LINE
  8
0
 10
-38.5973
 20
-33.8
 11
-39.5818
 21
-44.6142
  0
LINE
  8
0
 10
-39.5818
 20
-44.6142
 11
-40.5669
 21
-59.3166
  0
LINE
  8
0
 10
-40.5669
 20
-59.3166
 11
-40.5968
 21
-60
  0
LINE
  8
0
 10
-40.5968
 20
-60
 11
-40.5717
 21
-60.5749
  0
LINE
  8
0
 10
-40.5717
 20
-60.5749
 11
-40.4965
 21
-61.1455
  0
LINE
  8
0
 10
-40.4965
 20
-61.1455
 11
-40.4424
 21
-61.3899
  0
LINE
  8
0
 10
-40.4424
 20
-61.3899
 11
-40.2913
 21
-61.0997
  0
LINE
  8
0
 10
-40.2913
 20
-61.0997
 11
-40.1132
 21
-60.8201
  0
LINE
  8
0
 10
-40.1132
 20
-60.8201
 11
-39.9113
 21
-60.5571
  0
LINE
  8
0
 10
-39.9113
 20
-60.5571
 11
-39.6873
 21
-60.3126
  0
LINE
  8
0
 10
-39.6873
 20
-60.3126
 11
-39.4429
 21
-60.0887
  0
LINE
  8
0
 10
-39.4429
 20
-60.0887
 11
-39.1799
 21
-59.8868
  0
LINE
  8
0
 10
-39.1799
 20
-59.8868
 11
-38.9002
 21
-59.7087
  0
LINE
  8
0
 10
-38.9002
 20
-59.7087
 11
-38.6062
 21
-59.5556
  0
LINE
  8
0
 10
-38.6062
 20
-59.5556
 11
-38.2998
 21
-59.4287
  0
LINE
  8
0
 10
-38.2998
 20
-59.4287
 11
-37.9836
 21
-59.329
  0
LINE
  8
0
 10
-37.9836
 20
-59.329
 11
-37.6599
 21
-59.2572
  0
LINE
  8
0
 10
-37.6599
 20
-59.2572
 11
-37.3312
 21
-59.214
  0
LINE
  8
0
 10
-37.3312
 20
-59.214
 11
-37
 21
-59.1995
  0
LINE
  8
0
 10
-37
 20
-59.1995
 11
-36.6688
 21
-59.214
  0
LINE
  8
0
 10
-36.6688
 20
-59.214
 11
-36.3401
 21
-59.2572
  0
LINE
  8
0
 10
-36.3401
 20
-59.2572
 11
-36.0164
 21
-59.329
  0
LINE
  8
0
 10
-36.0164
 20
-59.329
 11
-35.7001
 21
-59.4287
  0
LINE
  8
0
 10
-35.7001
 20
-59.4287
 11
-35.3938
 21
-59.5556
  0
LINE
  8
0
 10
-35.3938
 20
-59.5556
 11
-35.0997
 21
-59.7087
  0
LINE
  8
0
 10
-35.0997
 20
-59.7087
 11
-34.8201
 21
-59.8868
  0
LINE
  8
0
 10
-34.8201
 20
-59.8868
 11
-34.5571
 21
-60.0887
  0
LINE
  8
0
 10
-34.5571
 20
-60.0887
 11
-34.3126
 21
-60.3126
  0
LINE
  8
0
 10
-34.3126
 20
-60.3126
 11
-34.0887
 21
-60.5571
  0
LINE
  8
0
 10
-34.0887
 20
-60.5571
 11
-33.8868
 21
-60.8201
  0
LINE
  8
0
 10
-33.8868
 20
-60.8201
 11
-33.7087
 21
-61.0997
  0
LINE
  8
0
 10
-33.7087
 20
-61.0997
 11
-33.5556
 21
-61.3938
  0
LINE
  8
0
 10
-33.5556
 20
-61.3938
 11
-33.4287
 21
-61.7001
  0
LINE
  8
0
 10
-33.4287
 20
-61.7001
 11
-33.329
 21
-62.0164
  0
LINE
  8
0
 10
-33.329
 20
-62.0164
 11
-33.2572
 21
-62.3401
  0
LINE
  8
0
 10
-33.2572
 20
-62.3401
 11
-33.214
 21
-62.6688
  0
LINE
  8
0
 10
-33.214
 20
-62.6688
 11
-33.1995
 21
-63
  0
LINE
  8
0
 10
-33.1995
 20
-63
 11
-33.214
 21
-63.3312
  0
LINE
  8
0
 10
-33.214
 20
-63.3312
 11
-33.2572
 21
-63.6599
  0
LINE
  8
0
 10
-33.2572
 20
-63.6599
 11
-33.329
 21
-63.9836
  0
LINE
  8
0
 10
-33.329
 20
-63.9836
 11
-33.4287
 21
-64.2998
  0
LINE
  8
0
 10
-33.4287
 20
-64.2998
 11
-33.5556
 21
-64.6062
  0
LINE
  8
0
 10
-33.5556
 20
-64.6062
 11
-33.7087
 21
-64.9002
  0
LINE
  8
0
 10
-33.7087
 20
-64.9002
 11
-33.8868
 21
-65.1799
  0
LINE
  8
0
 10
-33.8868
 20
-65.1799
 11
-34.0887
 21
-65.4429
  0
LINE
  8
0
 10
-34.0887
 20
-65.4429
 11
-34.3126
 21
-65.6873
  0
LINE
  8
0
 10
-34.3126
 20
-65.6873
 11
-34.5571
 21
-65.9113
  0
LINE
  8
0
 10
-34.5571
 20
-65.9113
 11
-34.8201
 21
-66.1132
  0
LINE
  8
0
 10
-34.8201
 20
-66.1132
 11
-35.0997
 21
-66.2913
  0
LINE
  8
0
 10
-35.0997
 20
-66.2913
 11
-35.3899
 21
-66.4424
  0
LINE
  8
0
 10
-35.3899
 20
-66.4424
 11
-35.1455
 21
-66.4965
  0
LINE
  8
0
 10
-35.1455
 20
-66.4965
 11
-34.5749
 21
-66.5717
  0
LINE
  8
0
 10
-34.5749
 20
-66.5717
 11
-33.9258
 21
-66.6
  0
LINE
  8
0
 10
-33.9258
 20
-66.6
 11
33.9258
 21
-66.6
  0
LINE
  8
0
 10
33.9258
 20
-66.6
 11
34.5749
 21
-66.5717
  0
LINE
  8
0
 10
29.8605
 20
-38.0944
 11
29.7221
 21
-38.0762
  0
LINE
  8
0
 10
29.7221
 20
-38.0762
 11
29.5858
 21
-38.0459
  0
LINE
  8
0
 10
29.5858
 20
-38.0459
 11
29.4526
 21
-38.004
  0
LINE
  8
0
 10
29.4526
 20
-38.004
 11
29.3236
 21
-37.9505
  0
LINE
  8
0
 10
29.3236
 20
-37.9505
 11
29.1998
 21
-37.886
  0
LINE
  8
0
 10
29.1998
 20
-37.886
 11
29.082
 21
-37.811
  0
LINE
  8
0
 10
29.082
 20
-37.811
 11
28.9713
 21
-37.726
  0
LINE
  8
0
 10
28.9713
 20
-37.726
 11
28.8683
 21
-37.6317
  0
LINE
  8
0
 10
28.8683
 20
-37.6317
 11
28.7739
 21
-37.5287
  0
LINE
  8
0
 10
28.7739
 20
-37.5287
 11
28.6889
 21
-37.418
  0
LINE
  8
0
 10
28.6889
 20
-37.418
 11
28.6139
 21
-37.3002
  0
LINE
  8
0
 10
28.6139
 20
-37.3002
 11
28.5495
 21
-37.1764
  0
LINE
  8
0
 10
28.5495
 20
-37.1764
 11
28.496
 21
-37.0474
  0
LINE
  8
0
 10
28.496
 20
-37.0474
 11
28.454
 21
-36.9142
  0
LINE
  8
0
 10
28.454
 20
-36.9142
 11
28.4238
 21
-36.7779
  0
LINE
  8
0
 10
28.4238
 20
-36.7779
 11
28.4056
 21
-36.6395
  0
LINE
  8
0
 10
28.4056
 20
-36.6395
 11
28.3995
 21
-36.5
  0
LINE
  8
0
 10
28.3995
 20
-36.5
 11
28.4056
 21
-36.3605
  0
LINE
  8
0
 10
28.4056
 20
-36.3605
 11
28.4238
 21
-36.2221
  0
LINE
  8
0
 10
28.4238
 20
-36.2221
 11
28.454
 21
-36.0858
  0
LINE
  8
0
 10
28.454
 20
-36.0858
 11
28.496
 21
-35.9526
  0
LINE
  8
0
 10
28.496
 20
-35.9526
 11
28.5495
 21
-35.8236
  0
LINE
  8
0
 10
28.5495
 20
-35.8236
 11
28.6139
 21
-35.6998
  0
LINE
  8
0
 10
28.6139
 20
-35.6998
 11
28.6889
 21
-35.582
  0
LINE
  8
0
 10
28.6889
 20
-35.582
 11
28.7739
 21
-35.4713
  0
LINE
  8
0
 10
28.7739
 20
-35.4713
 11
28.8683
 21
-35.3683
  0
LINE
  8
0
 10
28.8683
 20
-35.3683
 11
28.9713
 21
-35.2739
  0
LINE
  8
0
 10
28.9713
 20
-35.2739
 11
29.082
 21
-35.1889
  0
LINE
  8
0
 10
29.082
 20
-35.1889
 11
29.1998
 21
-35.1139
  0
LINE
  8
0
 10
29.1998
 20
-35.1139
 11
29.3236
 21
-35.0495
  0
LINE
  8
0
 10
29.3236
 20
-35.0495
 11
29.4526
 21
-34.996
  0
LINE
  8
0
 10
29.4526
 20
-34.996
 11
29.5858
 21
-34.954
  0
LINE
  8
0
 10
29.5858
 20
-34.954
 11
29.7221
 21
-34.9238
  0
LINE
  8
0
 10
29.7221
 20
-34.9238
 11
29.8605
 21
-34.9056
  0
LINE
  8
0
 10
29.8605
 20
-34.9056
 11
30
 21
-34.8995
  0
LINE
  8
0
 10
30
 20
-34.8995
 11
30.1395
 21
-34.9056
  0
LINE
  8
0
 10
30.1395
 20
-34.9056
 11
30.2779
 21
-34.9238
  0
LINE
  8
0
 10
30.2779
 20
-34.9238
 11
30.4142
 21
-34.954
  0
LINE
  8
0
 10
30.4142
 20
-34.954
 11
30.5474
 21
-34.996
  0
LINE
  8
0
 10
30.5474
 20
-34.996
 11
30.6764
 21
-35.0495
  0
LINE
  8
0
 10
30.6764
 20
-35.0495
 11
30.8002
 21
-35.1139
  0
LINE
  8
0
 10
30.8002
 20
-35.1139
 11
30.918
 21
-35.1889
  0
LINE
  8
0
 10
30.918
 20
-35.1889
 11
31.0287
 21
-35.2739
  0
LINE
  8
0
 10
31.0287
 20
-35.2739
 11
31.1317
 21
-35.3683
  0
LINE
  8
0
 10
31.1317
 20
-35.3683
 11
31.226
 21
-35.4713
  0
LINE
  8
0
 10
31.226
 20
-35.4713
 11
31.311
 21
-35.582
  0
LINE
  8
0
 10
31.311
 20
-35.582
 11
31.386
 21
-35.6998
  0
LINE
  8
0
 10
31.386
 20
-35.6998
 11
31.4505
 21
-35.8236
  0
LINE
  8
0
 10
31.4505
 20
-35.8236
 11
31.504
 21
-35.9526
  0
LINE
  8
0
 10
31.504
 20
-35.9526
 11
31.5459
 21
-36.0858
  0
LINE
  8
0
 10
31.5459
 20
-36.0858
 11
31.5762
 21
-36.2221
  0
LINE
  8
0
 10
31.5762
 20
-36.2221
 11
31.5944
 21
-36.3605
  0
LINE
  8
0
 10
31.5944
 20
-36.3605
 11
31.6005
 21
-36.5
  0
LINE
  8
0
 10
31.6005
 20
-36.5
 11
31.5944
 21
-36.6395
  0
LINE
  8
0
 10
31.5944
 20
-36.6395
 11
31.5762
 21
-36.7779
  0
LINE
  8
0
 10
31.5762
 20
-36.7779
 11
31.5459
 21
-36.9142
  0
LINE
  8
0
 10
31.5459
 20
-36.9142
 11
31.504
 21
-37.0474
  0
LINE
  8
0
 10
31.504
 20
-37.0474
 11
31.4505
 21
-37.1764
  0
LINE
  8
0
 10
31.4505
 20
-37.1764
 11
31.386
 21
-37.3002
  0
LINE
  8
0
 10
31.386
 20
-37.3002
 11
31.311
 21
-37.418
  0
LINE
  8
0
 10
31.311
 20
-37.418
 11
31.226
 21
-37.5287
  0
LINE
  8
0
 10
31.226
 20
-37.5287
 11
31.1317
 21
-37.6317
  0
LINE
  8
0
 10
31.1317
 20
-37.6317
 11
31.0287
 21
-37.726
  0
LINE
  8
0
 10
31.0287
 20
-37.726
 11
30.918
 21
-37.811
  0
LINE
  8
0
 10
30.918
 20
-37.811
 11
30.8002
 21
-37.886
  0
LINE
  8
0
 10
30.8002
 20
-37.886
 11
30.6764
 21
-37.9505
  0
LINE
  8
0
 10
30.6764
 20
-37.9505
 11
30.5474
 21
-38.004
  0
LINE
  8
0
 10
30.5474
 20
-38.004
 11
30.4142
 21
-38.0459
  0
LINE
  8
0
 10
30.4142
 20
-38.0459
 11
30.2779
 21
-38.0762
  0
LINE
  8
0
 10
30.2779
 20
-38.0762
 11
30.1395
 21
-38.0944
  0
LINE
  8
0
 10
30.1395
 20
-38.0944
 11
30
 21
-38.1005
  0
LINE
  8
0
 10
30
 20
-38.1005
 11
29.8605
 21
-38.0944
  0
LINE
  8
0
 10
-30.1395
 20
-38.0944
 11
-30.2779
 21
-38.0762
  0
LINE
  8
0
 10
-30.2779
 20
-38.0762
 11
-30.4142
 21
-38.0459
  0
LINE
  8
0
 10
-30.4142
 20
-38.0459
 11
-30.5474
 21
-38.004
  0
LINE
  8
0
 10
-30.5474
 20
-38.004
 11
-30.6764
 21
-37.9505
  0
LINE
  8
0
 10
-30.6764
 20
-37.9505
 11
-30.8002
 21
-37.886
  0
LINE
  8
0
 10
-30.8002
 20
-37.886
 11
-30.918
 21
-37.811
  0
LINE
  8
0
 10
-30.918
 20
-37.811
 11
-31.0287
 21
-37.726
  0
LINE
  8
0
 10
-31.0287
 20
-37.726
 11
-31.1317
 21
-37.6317
  0
LINE
  8
0
 10
-31.1317
 20
-37.6317
 11
-31.226
 21
-37.5287
  0
LINE
  8
0
 10
-31.226
 20
-37.5287
 11
-31.311
 21
-37.418
  0
LINE
  8
0
 10
-31.311
 20
-37.418
 11
-31.386
 21
-37.3002
  0
LINE
  8
0
 10
-31.386
 20
-37.3002
 11
-31.4505
 21
-37.1764
  0
LINE
  8
0
 10
-31.4505
 20
-37.1764
 11
-31.504
 21
-37.0474
  0
LINE
  8
0
 10
-31.504
 20
-37.0474
 11
-31.5459
 21
-36.9142
  0
LINE
  8
0
 10
-31.5459
 20
-36.9142
 11
-31.5762
 21
-36.7779
  0
LINE
  8
0
 10
-31.5762
 20
-36.7779
 11
-31.5944
 21
-36.6395
  0
LINE
  8
0
 10
-31.5944
 20
-36.6395
 11
-31.6005
 21
-36.5
  0
LINE
  8
0
 10
-31.6005
 20
-36.5
 11
-31.5944
 21
-36.3605
  0
LINE
  8
0
 10
-31.5944
 20
-36.3605
 11
-31.5762
 21
-36.2221
  0
LINE
  8
0
 10
-31.5762
 20
-36.2221
 11
-31.5459
 21
-36.0858
  0
LINE
  8
0
 10
-31.5459
 20
-36.0858
 11
-31.504
 21
-35.9526
  0
LINE
  8
0
 10
-31.504
 20
-35.9526
 11
-31.4505
 21
-35.8236
  0
LINE
  8
0
 10
-31.4505
 20
-35.8236
 11
-31.386
 21
-35.6998
  0
LINE
  8
0
 10
-31.386
 20
-35.6998
 11
-31.311
 21
-35.582
  0
LINE
  8
0
 10
-31.311
 20
-35.582
 11
-31.226
 21
-35.4713
  0
LINE
  8
0
 10
-31.226
 20
-35.4713
 11
-31.1317
 21
-35.3683
  0
LINE
  8
0
 10
-31.1317
 20
-35.3683
 11
-31.0287
 21
-35.2739
  0
LINE
  8
0
 10
-31.0287
 20
-35.2739
 11
-30.918
 21
-35.1889
  0
LINE
  8
0
 10
-30.918
 20
-35.1889
 11
-30.8002
 21
-35.1139
  0
LINE
  8
0
 10
-30.8002
 20
-35.1139
 11
-30.6764
 21
-35.0495
  0
LINE
  8
0
 10
-30.6764
 20
-35.0495
 11
-30.5474
 21
-34.996
  0
LINE
  8
0
 10
-30.5474
 20
-34.996
 11
-30.4142
 21
-34.954
  0
LINE
  8
0
 10
-30.4142
 20
-34.954
 11
-30.2779
 21
-34.9238
  0
LINE
  8
0
 10
-30.2779
 20
-34.9238
 11
-30.1395
 21
-34.9056
  0
LINE
  8
0
 10
-30.1395
 20
-34.9056
 11
-30
 21
-34.8995
  0
LINE
  8
0
 10
-30
 20
-34.8995
 11
-29.8605
 21
-34.9056
  0
LINE
  8
0
 10
-29.8605
 20
-34.9056
 11
-29.7221
 21
-34.9238
  0
LINE
  8
0
 10
-29.7221
 20
-34.9238
 11
-29.5858
 21
-34.954
  0
LINE
  8
0
 10
-29.5858
 20
-34.954
 11
-29.4526
 21
-34.996
  0
LINE
  8
0
 10
-29.4526
 20
-34.996
 11
-29.3236
 21
-35.0495
  0
LINE
  8
0
 10
-29.3236
 20
-35.0495
 11
-29.1998
 21
-35.1139
  0
LINE
  8
0
 10
-29.1998
 20
-35.1139
 11
-29.082
 21
-35.1889
  0
LINE
  8
0
 10
-29.082
 20
-35.1889
 11
-28.9713
 21
-35.2739
  0
LINE
  8
0
 10
-28.9713
 20
-35.2739
 11
-28.8683
 21
-35.3683
  0
LINE
  8
0
 10
-28.8683
 20
-35.3683
 11
-28.7739
 21
-35.4713
  0
LINE
  8
0
 10
-28.7739
 20
-35.4713
 11
-28.6889
 21
-35.582
  0
LINE
  8
0
 10
-28.6889
 20
-35.582
 11
-28.6139
 21
-35.6998
  0
LINE
  8
0
 10
-28.6139
 20
-35.6998
 11
-28.5495
 21
-35.8236
  0
LINE
  8
0
 10
-28.5495
 20
-35.8236
 11
-28.496
 21
-35.9526
  0
LINE
  8
0
 10
-28.496
 20
-35.9526
 11
-28.454
 21
-36.0858
  0
LINE
  8
0
 10
-28.454
 20
-36.0858
 11
-28.4238
 21
-36.2221
  0
LINE
  8
0
 10
-28.4238
 20
-36.2221
 11
-28.4056
 21
-36.3605
  0
LINE
  8
0
 10
-28.4056
 20
-36.3605
 11
-28.3995
 21
-36.5
  0
LINE
  8
0
 10
-28.3995
 20
-36.5
 11
-28.4056
 21
-36.6395
  0
LINE
  8
0
 10
-28.4056
 20
-36.6395
 11
-28.4238
 21
-36.7779
  0
LINE
  8
0
 10
-28.4238
 20
-36.7779
 11
-28.454
 21
-36.9142
  0
LINE
  8
0
 10
-28.454
 20
-36.9142
 11
-28.496
 21
-37.0474
  0
LINE
  8
0
 10
-28.496
 20
-37.0474
 11
-28.5495
 21
-37.1764
  0
LINE
  8
0
 10
-28.5495
 20
-37.1764
 11
-28.6139
 21
-37.3002
  0
LINE
  8
0
 10
-28.6139
 20
-37.3002
 11
-28.6889
 21
-37.418
  0
LINE
  8
0
 10
-28.6889
 20
-37.418
 11
-28.7739
 21
-37.5287
  0
LINE
  8
0
 10
-28.7739
 20
-37.5287
 11
-28.8683
 21
-37.6317
  0
LINE
  8
0
 10
-28.8683
 20
-37.6317
 11
-28.9713
 21
-37.726
  0
LINE
  8
0
 10
-28.9713
 20
-37.726
 11
-29.082
 21
-37.811
  0
LINE
  8
0
 10
-29.082
 20
-37.811
 11
-29.1998
 21
-37.886
  0
LINE
  8
0
 10
-29.1998
 20
-37.886
 11
-29.3236
 21
-37.9505
  0
LINE
  8
0
 10
-29.3236
 20
-37.9505
 11
-29.4526
 21
-38.004
  0
LINE
  8
0
 10
-29.4526
 20
-38.004
 11
-29.5858
 21
-38.0459
  0
LINE
  8
0
 10
-29.5858
 20
-38.0459
 11
-29.7221
 21
-38.0762
  0
LINE
  8
0
 10
-29.7221
 20
-38.0762
 11
-29.8605
 21
-38.0944
  0
LINE
  8
0
 10
-29.8605
 20
-38.0944
 11
-30
 21
-38.1005
  0
LINE
  8
0
 10
-30
 20
-38.1005
 11
-30.1395
 21
-38.0944
  0
LINE
  8
0
 10
-0.610123
 20
-53.9738
 11
-1.21562
 21
-53.8941
  0
LINE
  8
0
 10
-1.21562
 20
-53.8941
 11
-1.81184
 21
-53.7619
  0
LINE
  8
0
 10
-1.81184
 20
-53.7619
 11
-2.3943
 21
-53.5783
  0
LINE
  8
0
 10
-2.3943
 20
-53.5783
 11
-2.95853
 21
-53.3446
  0
LINE
  8
0
 10
-2.95853
 20
-53.3446
 11
-3.50024
 21
-53.0626
  0
LINE
  8
0
 10
-3.50024
 20
-53.0626
 11
-4.0153
 21
-52.7345
  0
LINE
  8
0
 10
-4.0153
 20
-52.7345
 11
-4.49982
 21
-52.3627
  0
LINE
  8
0
 10
-4.49982
 20
-52.3627
 11
-4.95009
 21
-51.9501
  0
LINE
  8
0
 10
-4.95009
 20
-51.9501
 11
-5.36267
 21
-51.4998
  0
LINE
  8
0
 10
-5.36267
 20
-51.4998
 11
-5.73445
 21
-51.0153
  0
LINE
  8
0
 10
-5.73445
 20
-51.0153
 11
-6.06258
 21
-50.5002
  0
LINE
  8
0
 10
-6.06258
 20
-50.5002
 11
-6.34457
 21
-49.9585
  0
LINE
  8
0
 10
-6.34457
 20
-49.9585
 11
-6.57829
 21
-49.3943
  0
LINE
  8
0
 10
-6.57829
 20
-49.3943
 11
-6.76193
 21
-48.8118
  0
LINE
  8
0
 10
-6.76193
 20
-48.8118
 11
-6.89412
 21
-48.2156
  0
LINE
  8
0
 10
-6.89412
 20
-48.2156
 11
-6.97383
 21
-47.6101
  0
LINE
  8
0
 10
-6.97383
 20
-47.6101
 11
-7.00047
 21
-47
  0
LINE
  8
0
 10
-7.00047
 20
-47
 11
-6.97383
 21
-46.3899
  0
LINE
  8
0
 10
-6.97383
 20
-46.3899
 11
-6.89412
 21
-45.7844
  0
LINE
  8
0
 10
-6.89412
 20
-45.7844
 11
-6.76193
 21
-45.1881
  0
LINE
  8
0
 10
-6.76193
 20
-45.1881
 11
-6.57829
 21
-44.6057
  0
LINE
  8
0
 10
-6.57829
 20
-44.6057
 11
-6.34457
 21
-44.0415
  0
LINE
  8
0
 10
-6.34457
 20
-44.0415
 11
-6.06258
 21
-43.4998
  0
LINE
  8
0
 10
-6.06258
 20
-43.4998
 11
-5.73445
 21
-42.9847
  0
LINE
  8
0
 10
-5.73445
 20
-42.9847
 11
-5.36267
 21
-42.5002
  0
LINE
  8
0
 10
-5.36267
 20
-42.5002
 11
-4.95009
 21
-42.0499
  0
LINE
  8
0
 10
-4.95009
 20
-42.0499
 11
-4.49982
 21
-41.6373
  0
LINE
  8
0
 10
-4.49982
 20
-41.6373
 11
-4.0153
 21
-41.2655
  0
LINE
  8
0
 10
-4.0153
 20
-41.2655
 11
-3.50024
 21
-40.9374
  0
LINE
  8
0
 10
-3.50024
 20
-40.9374
 11
-2.95853
 21
-40.6554
  0
LINE
  8
0
 10
-2.95853
 20
-40.6554
 11
-2.3943
 21
-40.4217
  0
LINE
  8
0
 10
-2.3943
 20
-40.4217
 11
-1.81184
 21
-40.2381
  0
LINE
  8
0
 10
-1.81184
 20
-40.2381
 11
-1.21562
 21
-40.1059
  0
LINE
  8
0
 10
-1.21562
 20
-40.1059
 11
-0.610107
 21
-40.0262
  0
LINE
  8
0
 10
-0.610107
 20
-40.0262
 11
0
 21
-39.9995
  0
LINE
  8
0
 10
0
 20
-39.9995
 11
0.610107
 21
-40.0262
  0
LINE
  8
0
 10
0.610107
 20
-40.0262
 11
1.21562
 21
-40.1059
  0
LINE
  8
0
 10
1.21562
 20
-40.1059
 11
1.81184
 21
-40.2381
  0
LINE
  8
0
 10
1.81184
 20
-40.2381
 11
2.3943
 21
-40.4217
  0
LINE
  8
0
 10
2.3943
 20
-40.4217
 11
2.95853
 21
-40.6554
  0
LINE
  8
0
 10
2.95853
 20
-40.6554
 11
3.50024
 21
-40.9374
  0
LINE
  8
0
 10
3.50024
 20
-40.9374
 11
4.0153
 21
-41.2655
  0
LINE
  8
0
 10
4.0153
 20
-41.2655
 11
4.49982
 21
-41.6373
  0
LINE
  8
0
 10
4.49982
 20
-41.6373
 11
4.95009
 21
-42.0499
  0
LINE
  8
0
 10
4.95009
 20
-42.0499
 11
5.36267
 21
-42.5002
  0
LINE
  8
0
 10
5.36267
 20
-42.5002
 11
5.73445
 21
-42.9847
  0
LINE
  8
0
 10
5.73445
 20
-42.9847
 11
6.06258
 21
-43.4998
  0
LINE
  8
0
 10
6.06258
 20
-43.4998
 11
6.34457
 21
-44.0415
  0
LINE
  8
0
 10
6.34457
 20
-44.0415
 11
6.57829
 21
-44.6057
  0
LINE
  8
0
 10
6.57829
 20
-44.6057
 11
6.76193
 21
-45.1881
  0
LINE
  8
0
 10
6.76193
 20
-45.1881
 11
6.89412
 21
-45.7844
  0
LINE
  8
0
 10
6.89412
 20
-45.7844
 11
6.97383
 21
-46.3899
  0
LINE
  8
0
 10
6.97383
 20
-46.3899
 11
7.00047
 21
-47
  0
LINE
  8
0
 10
7.00047
 20
-47
 11
6.97383
 21
-47.6101
  0
LINE
  8
0
 10
6.97383
 20
-47.6101
 11
6.89412
 21
-48.2156
  0
LINE
  8
0
 10
6.89412
 20
-48.2156
 11
6.76193
 21
-48.8118
  0
LINE
  8
0
 10
6.76193
 20
-48.8118
 11
6.57829
 21
-49.3943
  0
LINE
  8
0
 10
6.57829
 20
-49.3943
 11
6.34457
 21
-49.9585
  0
LINE
  8
0
 10
6.34457
 20
-49.9585
 11
6.06258
 21
-50.5002
  0
LINE
  8
0
 10
6.06258
 20
-50.5002
 11
5.73445
 21
-51.0153
  0
LINE
  8
0
 10
5.73445
 20
-51.0153
 11
5.36267
 21
-51.4998
  0
LINE
  8
0
 10
5.36267
 20
-51.4998
 11
4.95009
 21
-51.9501
  0
LINE
  8
0
 10
4.95009
 20
-51.9501
 11
4.49982
 21
-52.3627
  0
LINE
  8
0
 10
4.49982
 20
-52.3627
 11
4.0153
 21
-52.7345
  0
LINE
  8
0
 10
4.0153
 20
-52.7345
 11
3.50024
 21
-53.0626
  0
LINE
  8
0
 10
3.50024
 20
-53.0626
 11
2.95853
 21
-53.3446
  0
LINE
  8
0
 10
2.95853
 20
-53.3446
 11
2.3943
 21
-53.5783
  0
LINE
  8
0
 10
2.3943
 20
-53.5783
 11
1.81184
 21
-53.7619
  0
LINE
  8
0
 10
1.81184
 20
-53.7619
 11
1.21562
 21
-53.8941
  0
LINE
  8
0
 10
1.21562
 20
-53.8941
 11
0.610123
 21
-53.9738
  0
LINE
  8
0
 10
0.610123
 20
-53.9738
 11
0
 21
-54.0005
  0
LINE
  8
0
 10
0
 20
-54.0005
 11
-0.610123
 21
-53.9738
  0
ENDSEC
  0
SECTION
  2
OBJECTS
  0
DICTIONARY
  0
ENDSEC
  0
EOF
