0
SECTION
2
HEADER
9
$INSUNITS
70
4
0
ENDSEC
0
SECTION
2
ENTITIES
0
POLYLINE
8
CUT
66
1
70
1
0
VERTEX
8
CUT
10
28.9107
20
-67.6071
0
VERTEX
8
CUT
10
28.9328
20
-67.6070
0
VERTEX
8
CUT
10
28.9391
20
-67.6069
0
VERTEX
8
CUT
10
29.3928
20
-67.6012
0
VERTEX
8
CUT
10
29.3986
20
-67.6011
0
VERTEX
8
CUT
10
29.4189
20
-67.6007
0
VERTEX
8
CUT
10
29.4246
20
-67.6005
0
VERTEX
8
CUT
10
29.4449
20
-67.6000
0
VERTEX
8
CUT
10
29.4506
20
-67.5998
0
VERTEX
8
CUT
10
29.4709
20
-67.5991
0
VERTEX
8
CUT
10
29.4767
20
-67.5989
0
VERTEX
8
CUT
10
29.9045
20
-67.5811
0
VERTEX
8
CUT
10
29.9090
20
-67.5809
0
VERTEX
8
CUT
10
29.9244
20
-67.5801
0
VERTEX
8
CUT
10
29.9289
20
-67.5799
0
VERTEX
8
CUT
10
29.9443
20
-67.5791
0
VERTEX
8
CUT
10
29.9487
20
-67.5789
0
VERTEX
8
CUT
10
29.9642
20
-67.5779
0
VERTEX
8
CUT
10
29.9686
20
-67.5777
0
VERTEX
8
CUT
10
30.3575
20
-67.5528
0
VERTEX
8
CUT
10
30.3627
20
-67.5525
0
VERTEX
8
CUT
10
30.3809
20
-67.5512
0
VERTEX
8
CUT
10
30.3861
20
-67.5508
0
VERTEX
8
CUT
10
30.4043
20
-67.5494
0
VERTEX
8
CUT
10
30.4095
20
-67.5490
0
VERTEX
8
CUT
10
30.4278
20
-67.5475
0
VERTEX
8
CUT
10
30.4330
20
-67.5470
0
VERTEX
8
CUT
10
30.7564
20
-67.5179
0
VERTEX
8
CUT
10
30.7625
20
-67.5173
0
VERTEX
8
CUT
10
30.7838
20
-67.5152
0
VERTEX
8
CUT
10
30.7899
20
-67.5146
0
VERTEX
8
CUT
10
30.8112
20
-67.5123
0
VERTEX
8
CUT
10
30.8173
20
-67.5117
0
VERTEX
8
CUT
10
30.8386
20
-67.5093
0
VERTEX
8
CUT
10
30.8447
20
-67.5086
0
VERTEX
8
CUT
10
31.1039
20
-67.4772
0
VERTEX
8
CUT
10
31.1109
20
-67.4763
0
VERTEX
8
CUT
10
31.1356
20
-67.4731
0
VERTEX
8
CUT
10
31.1427
20
-67.4721
0
VERTEX
8
CUT
10
31.1673
20
-67.4687
0
VERTEX
8
CUT
10
31.1743
20
-67.4677
0
VERTEX
8
CUT
10
31.1990
20
-67.4640
0
VERTEX
8
CUT
10
31.2060
20
-67.4630
0
VERTEX
8
CUT
10
31.4027
20
-67.4320
0
VERTEX
8
CUT
10
31.4108
20
-67.4307
0
VERTEX
8
CUT
10
31.4390
20
-67.4260
0
VERTEX
8
CUT
10
31.4470
20
-67.4246
0
VERTEX
8
CUT
10
31.4752
20
-67.4196
0
VERTEX
8
CUT
10
31.4832
20
-67.4181
0
VERTEX
8
CUT
10
31.5113
20
-67.4128
0
VERTEX
8
CUT
10
31.5193
20
-67.4112
0
VERTEX
8
CUT
10
31.6567
20
-67.3838
0
VERTEX
8
CUT
10
31.6658
20
-67.3819
0
VERTEX
8
CUT
10
31.6974
20
-67.3753
0
VERTEX
8
CUT
10
31.7064
20
-67.3733
0
VERTEX
8
CUT
10
31.7379
20
-67.3662
0
VERTEX
8
CUT
10
31.7469
20
-67.3642
0
VERTEX
8
CUT
10
31.7784
20
-67.3567
0
VERTEX
8
CUT
10
31.7874
20
-67.3546
0
VERTEX
8
CUT
10
31.8706
20
-67.3339
0
VERTEX
8
CUT
10
31.8805
20
-67.3314
0
VERTEX
8
CUT
10
31.9152
20
-67.3223
0
VERTEX
8
CUT
10
31.9251
20
-67.3197
0
VERTEX
8
CUT
10
31.9596
20
-67.3102
0
VERTEX
8
CUT
10
31.9695
20
-67.3074
0
VERTEX
8
CUT
10
32.0040
20
-67.2974
0
VERTEX
8
CUT
10
32.0138
20
-67.2945
0
VERTEX
8
CUT
10
32.0506
20
-67.2834
0
VERTEX
8
CUT
10
32.0611
20
-67.2801
0
VERTEX
8
CUT
10
32.0981
20
-67.2683
0
VERTEX
8
CUT
10
32.1087
20
-67.2649
0
VERTEX
8
CUT
10
32.1455
20
-67.2526
0
VERTEX
8
CUT
10
32.1560
20
-67.2490
0
VERTEX
8
CUT
10
32.1926
20
-67.2362
0
VERTEX
8
CUT
10
32.2031
20
-67.2325
0
VERTEX
8
CUT
10
32.2043
20
-67.2320
0
VERTEX
8
CUT
10
32.2152
20
-67.2280
0
VERTEX
8
CUT
10
32.2533
20
-67.2134
0
VERTEX
8
CUT
10
32.2641
20
-67.2092
0
VERTEX
8
CUT
10
32.3020
20
-67.1941
0
VERTEX
8
CUT
10
32.3128
20
-67.1897
0
VERTEX
8
CUT
10
32.3399
20
-67.1785
0
VERTEX
8
CUT
10
32.3615
20
-67.1692
0
VERTEX
8
CUT
10
32.3889
20
-67.1568
0
VERTEX
8
CUT
10
32.3997
20
-67.1519
0
VERTEX
8
CUT
10
32.4371
20
-67.1344
0
VERTEX
8
CUT
10
32.4477
20
-67.1293
0
VERTEX
8
CUT
10
32.4712
20
-67.1179
0
VERTEX
8
CUT
10
32.4921
20
-67.1074
0
VERTEX
8
CUT
10
32.5139
20
-67.0959
0
VERTEX
8
CUT
10
32.5241
20
-67.0905
0
VERTEX
8
CUT
10
32.5594
20
-67.0714
0
VERTEX
8
CUT
10
32.5695
20
-67.0659
0
VERTEX
8
CUT
10
32.5952
20
-67.0515
0
VERTEX
8
CUT
10
32.6145
20
-67.0403
0
VERTEX
8
CUT
10
32.6367
20
-67.0271
0
VERTEX
8
CUT
10
32.6459
20
-67.0215
0
VERTEX
8
CUT
10
32.6778
20
-67.0019
0
VERTEX
8
CUT
10
32.6868
20
-66.9962
0
VERTEX
8
CUT
10
32.7185
20
-66.9762
0
VERTEX
8
CUT
10
32.7275
20
-66.9704
0
VERTEX
8
CUT
10
32.7294
20
-66.9692
0
VERTEX
8
CUT
10
32.7373
20
-66.9639
0
VERTEX
8
CUT
10
32.7649
20
-66.9455
0
VERTEX
8
CUT
10
32.7727
20
-66.9402
0
VERTEX
8
CUT
10
32.8000
20
-66.9214
0
VERTEX
8
CUT
10
32.8078
20
-66.9160
0
VERTEX
8
CUT
10
32.8349
20
-66.8969
0
VERTEX
8
CUT
10
32.8426
20
-66.8914
0
VERTEX
8
CUT
10
32.8753
20
-66.8678
0
VERTEX
8
CUT
10
32.8817
20
-66.8631
0
VERTEX
8
CUT
10
32.9041
20
-66.8466
0
VERTEX
8
CUT
10
32.9104
20
-66.8419
0
VERTEX
8
CUT
10
32.9326
20
-66.8252
0
VERTEX
8
CUT
10
32.9389
20
-66.8204
0
VERTEX
8
CUT
10
32.9609
20
-66.8035
0
VERTEX
8
CUT
10
32.9671
20
-66.7986
0
VERTEX
8
CUT
10
33.0367
20
-66.7440
0
VERTEX
8
CUT
10
33.0416
20
-66.7402
0
VERTEX
8
CUT
10
33.0585
20
-66.7267
0
VERTEX
8
CUT
10
33.0634
20
-66.7228
0
VERTEX
8
CUT
10
33.0802
20
-66.7092
0
VERTEX
8
CUT
10
33.0850
20
-66.7052
0
VERTEX
8
CUT
10
33.1018
20
-66.6915
0
VERTEX
8
CUT
10
33.1065
20
-66.6875
0
VERTEX
8
CUT
10
33.1601
20
-66.6427
0
VERTEX
8
CUT
10
33.1677
20
-66.6363
0
VERTEX
8
CUT
10
33.1940
20
-66.6138
0
VERTEX
8
CUT
10
33.2015
20
-66.6073
0
VERTEX
8
CUT
10
33.2037
20
-66.6053
0
VERTEX
8
CUT
10
33.2224
20
-66.5883
0
VERTEX
8
CUT
10
33.2725
20
-66.5414
0
VERTEX
8
CUT
10
33.3121
20
-66.5017
0
VERTEX
8
CUT
10
33.3460
20
-66.4652
0
VERTEX
8
CUT
10
33.3862
20
-66.4183
0
VERTEX
8
CUT
10
33.4015
20
-66.3990
0
VERTEX
8
CUT
10
33.4375
20
-66.3500
0
VERTEX
8
CUT
10
33.4534
20
-66.3266
0
VERTEX
8
CUT
10
33.4842
20
-66.2772
0
VERTEX
8
CUT
10
33.5045
20
-66.2420
0
VERTEX
8
CUT
10
33.5298
20
-66.1943
0
VERTEX
8
CUT
10
33.5590
20
-66.1347
0
VERTEX
8
CUT
10
33.5699
20
-66.1113
0
VERTEX
8
CUT
10
33.5711
20
-66.1087
0
VERTEX
8
CUT
10
33.5760
20
-66.0975
0
VERTEX
8
CUT
10
33.5871
20
-66.0719
0
VERTEX
8
CUT
10
33.5958
20
-66.0508
0
VERTEX
8
CUT
10
33.6033
20
-66.0319
0
VERTEX
8
CUT
10
33.6072
20
-66.0220
0
VERTEX
8
CUT
10
33.6205
20
-65.9871
0
VERTEX
8
CUT
10
33.6243
20
-65.9771
0
VERTEX
8
CUT
10
33.6371
20
-65.9421
0
VERTEX
8
CUT
10
33.6407
20
-65.9321
0
VERTEX
8
CUT
10
33.6465
20
-65.9158
0
VERTEX
8
CUT
10
33.6494
20
-65.9073
0
VERTEX
8
CUT
10
33.6596
20
-65.8773
0
VERTEX
8
CUT
10
33.6625
20
-65.8687
0
VERTEX
8
CUT
10
33.6723
20
-65.8387
0
VERTEX
8
CUT
10
33.6750
20
-65.8300
0
VERTEX
8
CUT
10
33.6845
20
-65.7998
0
VERTEX
8
CUT
10
33.6872
20
-65.7912
0
VERTEX
8
CUT
10
33.7072
20
-65.7252
0
VERTEX
8
CUT
10
33.7093
20
-65.7181
0
VERTEX
8
CUT
10
33.7166
20
-65.6931
0
VERTEX
8
CUT
10
33.7186
20
-65.6859
0
VERTEX
8
CUT
10
33.7257
20
-65.6609
0
VERTEX
8
CUT
10
33.7277
20
-65.6537
0
VERTEX
8
CUT
10
33.7345
20
-65.6286
0
VERTEX
8
CUT
10
33.7364
20
-65.6214
0
VERTEX
8
CUT
10
33.7671
20
-65.5042
0
VERTEX
8
CUT
10
33.7686
20
-65.4984
0
VERTEX
8
CUT
10
33.7737
20
-65.4784
0
VERTEX
8
CUT
10
33.7751
20
-65.4727
0
VERTEX
8
CUT
10
33.7800
20
-65.4527
0
VERTEX
8
CUT
10
33.7814
20
-65.4470
0
VERTEX
8
CUT
10
33.7862
20
-65.4269
0
VERTEX
8
CUT
10
33.7876
20
-65.4211
0
VERTEX
8
CUT
10
33.8263
20
-65.2530
0
VERTEX
8
CUT
10
33.8273
20
-65.2487
0
VERTEX
8
CUT
10
33.8308
20
-65.2334
0
VERTEX
8
CUT
10
33.8317
20
-65.2291
0
VERTEX
8
CUT
10
33.8351
20
-65.2138
0
VERTEX
8
CUT
10
33.8360
20
-65.2095
0
VERTEX
8
CUT
10
33.8393
20
-65.1942
0
VERTEX
8
CUT
10
33.8402
20
-65.1898
0
VERTEX
8
CUT
10
33.8852
20
-64.9725
0
VERTEX
8
CUT
10
33.8859
20
-64.9694
0
VERTEX
8
CUT
10
33.8881
20
-64.9586
0
VERTEX
8
CUT
10
33.8887
20
-64.9555
0
VERTEX
8
CUT
10
33.8908
20
-64.9447
0
VERTEX
8
CUT
10
33.8914
20
-64.9416
0
VERTEX
8
CUT
10
33.8936
20
-64.9308
0
VERTEX
8
CUT
10
33.8942
20
-64.9277
0
VERTEX
8
CUT
10
33.9446
20
-64.6634
0
VERTEX
8
CUT
10
33.9450
20
-64.6614
0
VERTEX
8
CUT
10
33.9463
20
-64.6547
0
VERTEX
8
CUT
10
33.9466
20
-64.6527
0
VERTEX
8
CUT
10
33.9479
20
-64.6459
0
VERTEX
8
CUT
10
33.9482
20
-64.6440
0
VERTEX
8
CUT
10
33.9495
20
-64.6372
0
VERTEX
8
CUT
10
33.9498
20
-64.6353
0
VERTEX
8
CUT
10
34.0056
20
-64.3266
0
VERTEX
8
CUT
10
34.0058
20
-64.3257
0
VERTEX
8
CUT
10
34.0063
20
-64.3225
0
VERTEX
8
CUT
10
34.0065
20
-64.3216
0
VERTEX
8
CUT
10
34.0071
20
-64.3184
0
VERTEX
8
CUT
10
34.0072
20
-64.3175
0
VERTEX
8
CUT
10
34.0078
20
-64.3144
0
VERTEX
8
CUT
10
34.0080
20
-64.3135
0
VERTEX
8
CUT
10
34.0644
20
-63.9926
0
VERTEX
8
CUT
10
34.0731
20
-63.9282
0
VERTEX
8
CUT
10
34.0741
20
-63.9171
0
VERTEX
8
CUT
10
34.0930
20
-63.8276
0
VERTEX
8
CUT
10
34.0981
20
-63.8011
0
VERTEX
8
CUT
10
34.1302
20
-63.6186
0
VERTEX
8
CUT
10
34.1307
20
-63.6160
0
VERTEX
8
CUT
10
34.1323
20
-63.6069
0
VERTEX
8
CUT
10
34.1327
20
-63.6042
0
VERTEX
8
CUT
10
34.1343
20
-63.5951
0
VERTEX
8
CUT
10
34.1347
20
-63.5925
0
VERTEX
8
CUT
10
34.1362
20
-63.5833
0
VERTEX
8
CUT
10
34.1366
20
-63.5807
0
VERTEX
8
CUT
10
34.1854
20
-63.2805
0
VERTEX
8
CUT
10
34.1862
20
-63.2755
0
VERTEX
8
CUT
10
34.1889
20
-63.2580
0
VERTEX
8
CUT
10
34.1897
20
-63.2530
0
VERTEX
8
CUT
10
34.1923
20
-63.2355
0
VERTEX
8
CUT
10
34.1930
20
-63.2304
0
VERTEX
8
CUT
10
34.1955
20
-63.2129
0
VERTEX
8
CUT
10
34.1962
20
-63.2079
0
VERTEX
8
CUT
10
34.2379
20
-62.9025
0
VERTEX
8
CUT
10
34.2385
20
-62.8984
0
VERTEX
8
CUT
10
34.2404
20
-62.8839
0
VERTEX
8
CUT
10
34.2409
20
-62.8798
0
VERTEX
8
CUT
10
34.2427
20
-62.8653
0
VERTEX
8
CUT
10
34.2432
20
-62.8612
0
VERTEX
8
CUT
10
34.2450
20
-62.8467
0
VERTEX
8
CUT
10
34.2455
20
-62.8425
0
VERTEX
8
CUT
10
34.2857
20
-62.4934
0
VERTEX
8
CUT
10
34.2861
20
-62.4900
0
VERTEX
8
CUT
10
34.2874
20
-62.4780
0
VERTEX
8
CUT
10
34.2878
20
-62.4745
0
VERTEX
8
CUT
10
34.2891
20
-62.4625
0
VERTEX
8
CUT
10
34.2894
20
-62.4591
0
VERTEX
8
CUT
10
34.2907
20
-62.4470
0
VERTEX
8
CUT
10
34.2910
20
-62.4436
0
VERTEX
8
CUT
10
34.3288
20
-62.0576
0
VERTEX
8
CUT
10
34.3290
20
-62.0547
0
VERTEX
8
CUT
10
34.3300
20
-62.0446
0
VERTEX
8
CUT
10
34.3303
20
-62.0418
0
VERTEX
8
CUT
10
34.3312
20
-62.0317
0
VERTEX
8
CUT
10
34.3314
20
-62.0288
0
VERTEX
8
CUT
10
34.3323
20
-62.0188
0
VERTEX
8
CUT
10
34.3325
20
-62.0159
0
VERTEX
8
CUT
10
34.3673
20
-61.5987
0
VERTEX
8
CUT
10
34.3675
20
-61.5962
0
VERTEX
8
CUT
10
34.3681
20
-61.5878
0
VERTEX
8
CUT
10
34.3683
20
-61.5854
0
VERTEX
8
CUT
10
34.3690
20
-61.5770
0
VERTEX
8
CUT
10
34.3692
20
-61.5746
0
VERTEX
8
CUT
10
34.3698
20
-61.5661
0
VERTEX
8
CUT
10
34.3700
20
-61.5637
0
VERTEX
8
CUT
10
34.4015
20
-61.1202
0
VERTEX
8
CUT
10
34.4016
20
-61.1182
0
VERTEX
8
CUT
10
34.4021
20
-61.1111
0
VERTEX
8
CUT
10
34.4023
20
-61.1091
0
VERTEX
8
CUT
10
34.4027
20
-61.1020
0
VERTEX
8
CUT
10
34.4029
20
-61.1000
0
VERTEX
8
CUT
10
34.4033
20
-61.0930
0
VERTEX
8
CUT
10
34.4034
20
-61.0909
0
VERTEX
8
CUT
10
34.4318
20
-60.6254
0
VERTEX
8
CUT
10
34.4319
20
-60.6237
0
VERTEX
8
CUT
10
34.4323
20
-60.6178
0
VERTEX
8
CUT
10
34.4324
20
-60.6162
0
VERTEX
8
CUT
10
34.4327
20
-60.6103
0
VERTEX
8
CUT
10
34.4328
20
-60.6086
0
VERTEX
8
CUT
10
34.4331
20
-60.6027
0
VERTEX
8
CUT
10
34.4332
20
-60.6011
0
VERTEX
8
CUT
10
34.4586
20
-60.1175
0
VERTEX
8
CUT
10
34.4587
20
-60.1161
0
VERTEX
8
CUT
10
34.4589
20
-60.1113
0
VERTEX
8
CUT
10
34.4590
20
-60.1099
0
VERTEX
8
CUT
10
34.4592
20
-60.1050
0
VERTEX
8
CUT
10
34.4593
20
-60.1036
0
VERTEX
8
CUT
10
34.4595
20
-60.0988
0
VERTEX
8
CUT
10
34.4596
20
-60.0974
0
VERTEX
8
CUT
10
34.4823
20
-59.5994
0
VERTEX
8
CUT
10
34.4823
20
-59.5983
0
VERTEX
8
CUT
10
34.4825
20
-59.5943
0
VERTEX
8
CUT
10
34.4825
20
-59.5932
0
VERTEX
8
CUT
10
34.4827
20
-59.5893
0
VERTEX
8
CUT
10
34.4828
20
-59.5882
0
VERTEX
8
CUT
10
34.4829
20
-59.5843
0
VERTEX
8
CUT
10
34.4830
20
-59.5831
0
VERTEX
8
CUT
10
34.5033
20
-59.0740
0
VERTEX
8
CUT
10
34.5033
20
-59.0732
0
VERTEX
8
CUT
10
34.5035
20
-59.0701
0
VERTEX
8
CUT
10
34.5035
20
-59.0692
0
VERTEX
8
CUT
10
34.5036
20
-59.0661
0
VERTEX
8
CUT
10
34.5036
20
-59.0652
0
VERTEX
8
CUT
10
34.5038
20
-59.0622
0
VERTEX
8
CUT
10
34.5038
20
-59.0613
0
VERTEX
8
CUT
10
34.5222
20
-58.5442
0
VERTEX
8
CUT
10
34.5222
20
-58.5436
0
VERTEX
8
CUT
10
34.5223
20
-58.5413
0
VERTEX
8
CUT
10
34.5223
20
-58.5406
0
VERTEX
8
CUT
10
34.5224
20
-58.5383
0
VERTEX
8
CUT
10
34.5224
20
-58.5377
0
VERTEX
8
CUT
10
34.5225
20
-58.5354
0
VERTEX
8
CUT
10
34.5225
20
-58.5348
0
VERTEX
8
CUT
10
34.5393
20
-58.0126
0
VERTEX
8
CUT
10
34.5394
20
-58.0122
0
VERTEX
8
CUT
10
34.5394
20
-58.0107
0
VERTEX
8
CUT
10
34.5394
20
-58.0103
0
VERTEX
8
CUT
10
34.5395
20
-58.0088
0
VERTEX
8
CUT
10
34.5395
20
-58.0083
0
VERTEX
8
CUT
10
34.5395
20
-58.0068
0
VERTEX
8
CUT
10
34.5395
20
-58.0064
0
VERTEX
8
CUT
10
34.5553
20
-57.4820
0
VERTEX
8
CUT
10
34.5553
20
-57.4818
0
VERTEX
8
CUT
10
34.5554
20
-57.4810
0
VERTEX
8
CUT
10
34.5554
20
-57.4808
0
VERTEX
8
CUT
10
34.5554
20
-57.4801
0
VERTEX
8
CUT
10
34.5554
20
-57.4799
0
VERTEX
8
CUT
10
34.5554
20
-57.4791
0
VERTEX
8
CUT
10
34.5554
20
-57.4789
0
VERTEX
8
CUT
10
34.5706
20
-56.9551
0
VERTEX
8
CUT
10
34.5695
20
-56.9551
0
VERTEX
8
CUT
10
34.5695
20
-56.9550
0
VERTEX
8
CUT
10
34.5706
20
-56.9551
0
VERTEX
8
CUT
10
34.5706
20
-56.9549
0
VERTEX
8
CUT
10
34.5706
20
-56.9549
0
VERTEX
8
CUT
10
34.5706
20
-56.9548
0
VERTEX
8
CUT
10
34.5856
20
-56.4409
0
VERTEX
8
CUT
10
34.5856
20
-56.4409
0
VERTEX
8
CUT
10
34.5856
20
-56.4402
0
VERTEX
8
CUT
10
34.5856
20
-56.4402
0
VERTEX
8
CUT
10
34.5856
20
-56.4393
0
VERTEX
8
CUT
10
34.5856
20
-56.4393
0
VERTEX
8
CUT
10
34.5856
20
-56.4386
0
VERTEX
8
CUT
10
34.5856
20
-56.4386
0
VERTEX
8
CUT
10
34.5856
20
-56.4386
0
VERTEX
8
CUT
10
34.5858
20
-56.4324
0
VERTEX
8
CUT
10
34.5858
20
-56.4323
0
VERTEX
8
CUT
10
34.5858
20
-56.4317
0
VERTEX
8
CUT
10
34.5859
20
-56.4316
0
VERTEX
8
CUT
10
34.5859
20
-56.4308
0
VERTEX
8
CUT
10
34.5859
20
-56.4308
0
VERTEX
8
CUT
10
34.5859
20
-56.4307
0
VERTEX
8
CUT
10
34.5859
20
-56.4301
0
VERTEX
8
CUT
10
34.6010
20
-55.9317
0
VERTEX
8
CUT
10
34.6010
20
-55.9314
0
VERTEX
8
CUT
10
34.6010
20
-55.9303
0
VERTEX
8
CUT
10
34.6010
20
-55.9300
0
VERTEX
8
CUT
10
34.6011
20
-55.9288
0
VERTEX
8
CUT
10
34.6011
20
-55.9285
0
VERTEX
8
CUT
10
34.6011
20
-55.9274
0
VERTEX
8
CUT
10
34.6011
20
-55.9270
0
VERTEX
8
CUT
10
34.6151
20
-55.4389
0
VERTEX
8
CUT
10
34.6151
20
-55.4379
0
VERTEX
8
CUT
10
34.6152
20
-55.4345
0
VERTEX
8
CUT
10
34.6152
20
-55.4335
0
VERTEX
8
CUT
10
34.6153
20
-55.4301
0
VERTEX
8
CUT
10
34.6153
20
-55.4291
0
VERTEX
8
CUT
10
34.6154
20
-55.4256
0
VERTEX
8
CUT
10
34.6154
20
-55.4246
0
VERTEX
8
CUT
10
34.6270
20
-54.9347
0
VERTEX
8
CUT
10
34.6271
20
-54.9338
0
VERTEX
8
CUT
10
34.6271
20
-54.9306
0
VERTEX
8
CUT
10
34.6272
20
-54.9297
0
VERTEX
8
CUT
10
34.6272
20
-54.9265
0
VERTEX
8
CUT
10
34.6272
20
-54.9256
0
VERTEX
8
CUT
10
34.6273
20
-54.9224
0
VERTEX
8
CUT
10
34.6273
20
-54.9215
0
VERTEX
8
CUT
10
34.6369
20
-54.4224
0
VERTEX
8
CUT
10
34.6369
20
-54.4215
0
VERTEX
8
CUT
10
34.6370
20
-54.4186
0
VERTEX
8
CUT
10
34.6370
20
-54.4178
0
VERTEX
8
CUT
10
34.6370
20
-54.4148
0
VERTEX
8
CUT
10
34.6370
20
-54.4140
0
VERTEX
8
CUT
10
34.6371
20
-54.4110
0
VERTEX
8
CUT
10
34.6371
20
-54.4102
0
VERTEX
8
CUT
10
34.6446
20
-53.9043
0
VERTEX
8
CUT
10
34.6447
20
-53.9035
0
VERTEX
8
CUT
10
34.6447
20
-53.9008
0
VERTEX
8
CUT
10
34.6447
20
-53.9000
0
VERTEX
8
CUT
10
34.6447
20
-53.8972
0
VERTEX
8
CUT
10
34.6447
20
-53.8964
0
VERTEX
8
CUT
10
34.6448
20
-53.8937
0
VERTEX
8
CUT
10
34.6448
20
-53.8929
0
VERTEX
8
CUT
10
34.6504
20
-53.3828
0
VERTEX
8
CUT
10
34.6504
20
-53.3821
0
VERTEX
8
CUT
10
34.6504
20
-53.3795
0
VERTEX
8
CUT
10
34.6504
20
-53.3787
0
VERTEX
8
CUT
10
34.6505
20
-53.3761
0
VERTEX
8
CUT
10
34.6505
20
-53.3754
0
VERTEX
8
CUT
10
34.6505
20
-53.3728
0
VERTEX
8
CUT
10
34.6505
20
-53.3720
0
VERTEX
8
CUT
10
34.6542
20
-52.8603
0
VERTEX
8
CUT
10
34.6542
20
-52.8595
0
VERTEX
8
CUT
10
34.6542
20
-52.8570
0
VERTEX
8
CUT
10
34.6542
20
-52.8563
0
VERTEX
8
CUT
10
34.6542
20
-52.8538
0
VERTEX
8
CUT
10
34.6542
20
-52.8531
0
VERTEX
8
CUT
10
34.6542
20
-52.8506
0
VERTEX
8
CUT
10
34.6542
20
-52.8499
0
VERTEX
8
CUT
10
34.6561
20
-52.3389
0
VERTEX
8
CUT
10
34.6561
20
-52.3382
0
VERTEX
8
CUT
10
34.6561
20
-52.3357
0
VERTEX
8
CUT
10
34.6561
20
-52.3350
0
VERTEX
8
CUT
10
34.6561
20
-52.3327
0
VERTEX
8
CUT
10
34.6561
20
-52.3320
0
VERTEX
8
CUT
10
34.6561
20
-52.3295
0
VERTEX
8
CUT
10
34.6561
20
-52.3288
0
VERTEX
8
CUT
10
34.6562
20
-51.8210
0
VERTEX
8
CUT
10
34.6562
20
-51.8203
0
VERTEX
8
CUT
10
34.6562
20
-51.8179
0
VERTEX
8
CUT
10
34.6562
20
-51.8172
0
VERTEX
8
CUT
10
34.6562
20
-51.8149
0
VERTEX
8
CUT
10
34.6562
20
-51.8142
0
VERTEX
8
CUT
10
34.6562
20
-51.8118
0
VERTEX
8
CUT
10
34.6562
20
-51.8111
0
VERTEX
8
CUT
10
34.6546
20
-51.3088
0
VERTEX
8
CUT
10
34.6546
20
-51.3082
0
VERTEX
8
CUT
10
34.6546
20
-51.3058
0
VERTEX
8
CUT
10
34.6546
20
-51.3051
0
VERTEX
8
CUT
10
34.6546
20
-51.3028
0
VERTEX
8
CUT
10
34.6546
20
-51.3021
0
VERTEX
8
CUT
10
34.6546
20
-51.2998
0
VERTEX
8
CUT
10
34.6546
20
-51.2991
0
VERTEX
8
CUT
10
34.6514
20
-50.8048
0
VERTEX
8
CUT
10
34.6514
20
-50.8041
0
VERTEX
8
CUT
10
34.6514
20
-50.8017
0
VERTEX
8
CUT
10
34.6514
20
-50.8011
0
VERTEX
8
CUT
10
34.6513
20
-50.7987
0
VERTEX
8
CUT
10
34.6513
20
-50.7981
0
VERTEX
8
CUT
10
34.6513
20
-50.7957
0
VERTEX
8
CUT
10
34.6513
20
-50.7950
0
VERTEX
8
CUT
10
34.6465
20
-50.3111
0
VERTEX
8
CUT
10
34.6465
20
-50.3104
0
VERTEX
8
CUT
10
34.6465
20
-50.3080
0
VERTEX
8
CUT
10
34.6465
20
-50.3073
0
VERTEX
8
CUT
10
34.6465
20
-50.3050
0
VERTEX
8
CUT
10
34.6465
20
-50.3043
0
VERTEX
8
CUT
10
34.6464
20
-50.3019
0
VERTEX
8
CUT
10
34.6464
20
-50.3013
0
VERTEX
8
CUT
10
34.6402
20
-49.8301
0
VERTEX
8
CUT
10
34.6402
20
-49.8294
0
VERTEX
8
CUT
10
34.6401
20
-49.8270
0
VERTEX
8
CUT
10
34.6401
20
-49.8263
0
VERTEX
8
CUT
10
34.6401
20
-49.8238
0
VERTEX
8
CUT
10
34.6401
20
-49.8231
0
VERTEX
8
CUT
10
34.6400
20
-49.8207
0
VERTEX
8
CUT
10
34.6400
20
-49.8200
0
VERTEX
8
CUT
10
34.6324
20
-49.3642
0
VERTEX
8
CUT
10
34.6324
20
-49.3634
0
VERTEX
8
CUT
10
34.6323
20
-49.3609
0
VERTEX
8
CUT
10
34.6323
20
-49.3602
0
VERTEX
8
CUT
10
34.6323
20
-49.3576
0
VERTEX
8
CUT
10
34.6323
20
-49.3569
0
VERTEX
8
CUT
10
34.6322
20
-49.3543
0
VERTEX
8
CUT
10
34.6322
20
-49.3536
0
VERTEX
8
CUT
10
34.6233
20
-48.9157
0
VERTEX
8
CUT
10
34.6233
20
-48.9149
0
VERTEX
8
CUT
10
34.6232
20
-48.9122
0
VERTEX
8
CUT
10
34.6232
20
-48.9114
0
VERTEX
8
CUT
10
34.6231
20
-48.9087
0
VERTEX
8
CUT
10
34.6231
20
-48.9079
0
VERTEX
8
CUT
10
34.6230
20
-48.9052
0
VERTEX
8
CUT
10
34.6230
20
-48.9044
0
VERTEX
8
CUT
10
34.6129
20
-48.4870
0
VERTEX
8
CUT
10
34.6129
20
-48.4862
0
VERTEX
8
CUT
10
34.6128
20
-48.4832
0
VERTEX
8
CUT
10
34.6128
20
-48.4824
0
VERTEX
8
CUT
10
34.6127
20
-48.4795
0
VERTEX
8
CUT
10
34.6127
20
-48.4786
0
VERTEX
8
CUT
10
34.6126
20
-48.4757
0
VERTEX
8
CUT
10
34.6126
20
-48.4748
0
VERTEX
8
CUT
10
34.6012
20
-48.0767
0
VERTEX
8
CUT
10
34.6012
20
-48.0760
0
VERTEX
8
CUT
10
34.6011
20
-48.0739
0
VERTEX
8
CUT
10
34.6011
20
-48.0732
0
VERTEX
8
CUT
10
34.6010
20
-48.0710
0
VERTEX
8
CUT
10
34.6010
20
-48.0704
0
VERTEX
8
CUT
10
34.6010
20
-48.0682
0
VERTEX
8
CUT
10
34.6009
20
-48.0676
0
VERTEX
8
CUT
10
34.5888
20
-47.6852
0
VERTEX
8
CUT
10
34.5888
20
-47.6847
0
VERTEX
8
CUT
10
34.5888
20
-47.6831
0
VERTEX
8
CUT
10
34.5888
20
-47.6827
0
VERTEX
8
CUT
10
34.5887
20
-47.6811
0
VERTEX
8
CUT
10
34.5887
20
-47.6806
0
VERTEX
8
CUT
10
34.5886
20
-47.6790
0
VERTEX
8
CUT
10
34.5886
20
-47.6786
0
VERTEX
8
CUT
10
34.5763
20
-47.3144
0
VERTEX
8
CUT
10
34.5763
20
-47.3137
0
VERTEX
8
CUT
10
34.5762
20
-47.3115
0
VERTEX
8
CUT
10
34.5762
20
-47.3109
0
VERTEX
8
CUT
10
34.5761
20
-47.3087
0
VERTEX
8
CUT
10
34.5761
20
-47.3080
0
VERTEX
8
CUT
10
34.5760
20
-47.3058
0
VERTEX
8
CUT
10
34.5759
20
-47.3052
0
VERTEX
8
CUT
10
34.5632
20
-46.9625
0
VERTEX
8
CUT
10
34.5632
20
-46.9616
0
VERTEX
8
CUT
10
34.5631
20
-46.9588
0
VERTEX
8
CUT
10
34.5631
20
-46.9579
0
VERTEX
8
CUT
10
34.5630
20
-46.9550
0
VERTEX
8
CUT
10
34.5629
20
-46.9542
0
VERTEX
8
CUT
10
34.5628
20
-46.9513
0
VERTEX
8
CUT
10
34.5628
20
-46.9505
0
VERTEX
8
CUT
10
34.5495
20
-46.6283
0
VERTEX
8
CUT
10
34.5494
20
-46.6272
0
VERTEX
8
CUT
10
34.5493
20
-46.6236
0
VERTEX
8
CUT
10
34.5492
20
-46.6226
0
VERTEX
8
CUT
10
34.5491
20
-46.6189
0
VERTEX
8
CUT
10
34.5490
20
-46.6179
0
VERTEX
8
CUT
10
34.5489
20
-46.6142
0
VERTEX
8
CUT
10
34.5488
20
-46.6132
0
VERTEX
8
CUT
10
34.5348
20
-46.3104
0
VERTEX
8
CUT
10
34.5347
20
-46.3092
0
VERTEX
8
CUT
10
34.5345
20
-46.3048
0
VERTEX
8
CUT
10
34.5344
20
-46.3035
0
VERTEX
8
CUT
10
34.5342
20
-46.2991
0
VERTEX
8
CUT
10
34.5341
20
-46.2978
0
VERTEX
8
CUT
10
34.5339
20
-46.2934
0
VERTEX
8
CUT
10
34.5339
20
-46.2921
0
VERTEX
8
CUT
10
34.5188
20
-46.0076
0
VERTEX
8
CUT
10
34.5188
20
-46.0061
0
VERTEX
8
CUT
10
34.5185
20
-46.0009
0
VERTEX
8
CUT
10
34.5184
20
-45.9994
0
VERTEX
8
CUT
10
34.5181
20
-45.9942
0
VERTEX
8
CUT
10
34.5180
20
-45.9927
0
VERTEX
8
CUT
10
34.5177
20
-45.9874
0
VERTEX
8
CUT
10
34.5176
20
-45.9860
0
VERTEX
8
CUT
10
34.5015
20
-45.7182
0
VERTEX
8
CUT
10
34.5014
20
-45.7165
0
VERTEX
8
CUT
10
34.5010
20
-45.7105
0
VERTEX
8
CUT
10
34.5009
20
-45.7088
0
VERTEX
8
CUT
10
34.5005
20
-45.7027
0
VERTEX
8
CUT
10
34.5004
20
-45.7010
0
VERTEX
8
CUT
10
34.5000
20
-45.6950
0
VERTEX
8
CUT
10
34.4999
20
-45.6933
0
VERTEX
8
CUT
10
34.4825
20
-45.4409
0
VERTEX
8
CUT
10
34.4823
20
-45.4390
0
VERTEX
8
CUT
10
34.4818
20
-45.4321
0
VERTEX
8
CUT
10
34.4817
20
-45.4302
0
VERTEX
8
CUT
10
34.4812
20
-45.4234
0
VERTEX
8
CUT
10
34.4810
20
-45.4214
0
VERTEX
8
CUT
10
34.4805
20
-45.4146
0
VERTEX
8
CUT
10
34.4804
20
-45.4126
0
VERTEX
8
CUT
10
34.4616
20
-45.1739
0
VERTEX
8
CUT
10
34.4614
20
-45.1718
0
VERTEX
8
CUT
10
34.4608
20
-45.1642
0
VERTEX
8
CUT
10
34.4606
20
-45.1620
0
VERTEX
8
CUT
10
34.4600
20
-45.1545
0
VERTEX
8
CUT
10
34.4598
20
-45.1523
0
VERTEX
8
CUT
10
34.4591
20
-45.1447
0
VERTEX
8
CUT
10
34.4589
20
-45.1426
0
VERTEX
8
CUT
10
34.4386
20
-44.9156
0
VERTEX
8
CUT
10
34.4384
20
-44.9132
0
VERTEX
8
CUT
10
34.4376
20
-44.9050
0
VERTEX
8
CUT
10
34.4374
20
-44.9026
0
VERTEX
8
CUT
10
34.4366
20
-44.8944
0
VERTEX
8
CUT
10
34.4364
20
-44.8920
0
VERTEX
8
CUT
10
34.4355
20
-44.8838
0
VERTEX
8
CUT
10
34.4353
20
-44.8814
0
VERTEX
8
CUT
10
34.4132
20
-44.6640
0
VERTEX
8
CUT
10
34.4129
20
-44.6615
0
VERTEX
8
CUT
10
34.4120
20
-44.6527
0
VERTEX
8
CUT
10
34.4118
20
-44.6502
0
VERTEX
8
CUT
10
34.4108
20
-44.6414
0
VERTEX
8
CUT
10
34.4105
20
-44.6388
0
VERTEX
8
CUT
10
34.4095
20
-44.6300
0
VERTEX
8
CUT
10
34.4093
20
-44.6275
0
VERTEX
8
CUT
10
34.3852
20
-44.4174
0
VERTEX
8
CUT
10
34.3849
20
-44.4147
0
VERTEX
8
CUT
10
34.3838
20
-44.4055
0
VERTEX
8
CUT
10
34.3835
20
-44.4028
0
VERTEX
8
CUT
10
34.3824
20
-44.3936
0
VERTEX
8
CUT
10
34.3820
20
-44.3909
0
VERTEX
8
CUT
10
34.3809
20
-44.3817
0
VERTEX
8
CUT
10
34.3806
20
-44.3790
0
VERTEX
8
CUT
10
34.3543
20
-44.1736
0
VERTEX
8
CUT
10
34.3539
20
-44.1709
0
VERTEX
8
CUT
10
34.3527
20
-44.1613
0
VERTEX
8
CUT
10
34.3523
20
-44.1586
0
VERTEX
8
CUT
10
34.3510
20
-44.1491
0
VERTEX
8
CUT
10
34.3506
20
-44.1463
0
VERTEX
8
CUT
10
34.3493
20
-44.1368
0
VERTEX
8
CUT
10
34.3489
20
-44.1340
0
VERTEX
8
CUT
10
34.3201
20
-43.9308
0
VERTEX
8
CUT
10
34.3197
20
-43.9280
0
VERTEX
8
CUT
10
34.3183
20
-43.9183
0
VERTEX
8
CUT
10
34.3178
20
-43.9155
0
VERTEX
8
CUT
10
34.3164
20
-43.9058
0
VERTEX
8
CUT
10
34.3160
20
-43.9031
0
VERTEX
8
CUT
10
34.3145
20
-43.8934
0
VERTEX
8
CUT
10
34.3141
20
-43.8906
0
VERTEX
8
CUT
10
34.2822
20
-43.6868
0
VERTEX
8
CUT
10
34.2818
20
-43.6840
0
VERTEX
8
CUT
10
34.2802
20
-43.6743
0
VERTEX
8
CUT
10
34.2798
20
-43.6716
0
VERTEX
8
CUT
10
34.2782
20
-43.6619
0
VERTEX
8
CUT
10
34.2778
20
-43.6592
0
VERTEX
8
CUT
10
34.2761
20
-43.6495
0
VERTEX
8
CUT
10
34.2757
20
-43.6468
0
VERTEX
8
CUT
10
34.2425
20
-43.4526
0
VERTEX
8
CUT
10
34.2419
20
-43.4489
0
VERTEX
8
CUT
10
34.2396
20
-43.4360
0
VERTEX
8
CUT
10
34.2390
20
-43.4323
0
VERTEX
8
CUT
10
34.2367
20
-43.4194
0
VERTEX
8
CUT
10
34.2360
20
-43.4158
0
VERTEX
8
CUT
10
34.2336
20
-43.4029
0
VERTEX
8
CUT
10
34.2329
20
-43.3992
0
VERTEX
8
CUT
10
34.2006
20
-43.2289
0
VERTEX
8
CUT
10
34.1997
20
-43.2244
0
VERTEX
8
CUT
10
34.1966
20
-43.2088
0
VERTEX
8
CUT
10
34.1958
20
-43.2044
0
VERTEX
8
CUT
10
34.1926
20
-43.1887
0
VERTEX
8
CUT
10
34.1917
20
-43.1843
0
VERTEX
8
CUT
10
34.1885
20
-43.1687
0
VERTEX
8
CUT
10
34.1875
20
-43.1642
0
VERTEX
8
CUT
10
34.1537
20
-43.0061
0
VERTEX
8
CUT
10
34.1528
20
-43.0019
0
VERTEX
8
CUT
10
34.1496
20
-42.9873
0
VERTEX
8
CUT
10
34.1487
20
-42.9832
0
VERTEX
8
CUT
10
34.1454
20
-42.9686
0
VERTEX
8
CUT
10
34.1445
20
-42.9644
0
VERTEX
8
CUT
10
34.1411
20
-42.9499
0
VERTEX
8
CUT
10
34.1402
20
-42.9458
0
VERTEX
8
CUT
10
34.1021
20
-42.7846
0
VERTEX
8
CUT
10
34.1012
20
-42.7808
0
VERTEX
8
CUT
10
34.0980
20
-42.7674
0
VERTEX
8
CUT
10
34.0970
20
-42.7635
0
VERTEX
8
CUT
10
34.0937
20
-42.7501
0
VERTEX
8
CUT
10
34.0928
20
-42.7463
0
VERTEX
8
CUT
10
34.0894
20
-42.7329
0
VERTEX
8
CUT
10
34.0884
20
-42.7291
0
VERTEX
8
CUT
10
34.0460
20
-42.5638
0
VERTEX
8
CUT
10
34.0451
20
-42.5603
0
VERTEX
8
CUT
10
34.0419
20
-42.5481
0
VERTEX
8
CUT
10
34.0410
20
-42.5446
0
VERTEX
8
CUT
10
34.0377
20
-42.5325
0
VERTEX
8
CUT
10
34.0368
20
-42.5290
0
VERTEX
8
CUT
10
34.0335
20
-42.5169
0
VERTEX
8
CUT
10
34.0325
20
-42.5134
0
VERTEX
8
CUT
10
33.9854
20
-42.3429
0
VERTEX
8
CUT
10
33.9846
20
-42.3398
0
VERTEX
8
CUT
10
33.9815
20
-42.3289
0
VERTEX
8
CUT
10
33.9807
20
-42.3258
0
VERTEX
8
CUT
10
33.9776
20
-42.3150
0
VERTEX
8
CUT
10
33.9767
20
-42.3119
0
VERTEX
8
CUT
10
33.9735
20
-42.3011
0
VERTEX
8
CUT
10
33.9726
20
-42.2980
0
VERTEX
8
CUT
10
33.9207
20
-42.1212
0
VERTEX
8
CUT
10
33.9199
20
-42.1185
0
VERTEX
8
CUT
10
33.9171
20
-42.1091
0
VERTEX
8
CUT
10
33.9163
20
-42.1064
0
VERTEX
8
CUT
10
33.9135
20
-42.0969
0
VERTEX
8
CUT
10
33.9127
20
-42.0942
0
VERTEX
8
CUT
10
33.9098
20
-42.0848
0
VERTEX
8
CUT
10
33.9089
20
-42.0821
0
VERTEX
8
CUT
10
33.8521
20
-41.8982
0
VERTEX
8
CUT
10
33.8514
20
-41.8959
0
VERTEX
8
CUT
10
33.8489
20
-41.8879
0
VERTEX
8
CUT
10
33.8482
20
-41.8856
0
VERTEX
8
CUT
10
33.8457
20
-41.8776
0
VERTEX
8
CUT
10
33.8449
20
-41.8753
0
VERTEX
8
CUT
10
33.8424
20
-41.8673
0
VERTEX
8
CUT
10
33.8417
20
-41.8651
0
VERTEX
8
CUT
10
33.7798
20
-41.6732
0
VERTEX
8
CUT
10
33.7792
20
-41.6713
0
VERTEX
8
CUT
10
33.7771
20
-41.6648
0
VERTEX
8
CUT
10
33.7765
20
-41.6629
0
VERTEX
8
CUT
10
33.7744
20
-41.6564
0
VERTEX
8
CUT
10
33.7738
20
-41.6546
0
VERTEX
8
CUT
10
33.7716
20
-41.6481
0
VERTEX
8
CUT
10
33.7710
20
-41.6462
0
VERTEX
8
CUT
10
33.7042
20
-41.4455
0
VERTEX
8
CUT
10
33.7037
20
-41.4441
0
VERTEX
8
CUT
10
33.7020
20
-41.4392
0
VERTEX
8
CUT
10
33.7016
20
-41.4378
0
VERTEX
8
CUT
10
33.6999
20
-41.4328
0
VERTEX
8
CUT
10
33.6994
20
-41.4314
0
VERTEX
8
CUT
10
33.6977
20
-41.4264
0
VERTEX
8
CUT
10
33.6973
20
-41.4250
0
VERTEX
8
CUT
10
33.6255
20
-41.2148
0
VERTEX
8
CUT
10
33.6252
20
-41.2138
0
VERTEX
8
CUT
10
33.6240
20
-41.2105
0
VERTEX
8
CUT
10
33.6237
20
-41.2095
0
VERTEX
8
CUT
10
33.6225
20
-41.2061
0
VERTEX
8
CUT
10
33.6222
20
-41.2052
0
VERTEX
8
CUT
10
33.6210
20
-41.2018
0
VERTEX
8
CUT
10
33.6207
20
-41.2008
0
VERTEX
8
CUT
10
33.5442
20
-40.9804
0
VERTEX
8
CUT
10
33.5440
20
-40.9799
0
VERTEX
8
CUT
10
33.5434
20
-40.9781
0
VERTEX
8
CUT
10
33.5432
20
-40.9776
0
VERTEX
8
CUT
10
33.5426
20
-40.9759
0
VERTEX
8
CUT
10
33.5424
20
-40.9754
0
VERTEX
8
CUT
10
33.5418
20
-40.9736
0
VERTEX
8
CUT
10
33.5417
20
-40.9731
0
VERTEX
8
CUT
10
33.4607
20
-40.7418
0
VERTEX
8
CUT
10
33.4607
20
-40.7418
0
VERTEX
8
CUT
10
33.4607
20
-40.7417
0
VERTEX
8
CUT
10
33.4606
20
-40.7416
0
VERTEX
8
CUT
10
33.4606
20
-40.7415
0
VERTEX
8
CUT
10
33.4606
20
-40.7414
0
VERTEX
8
CUT
10
33.4605
20
-40.7413
0
VERTEX
8
CUT
10
33.4605
20
-40.7412
0
VERTEX
8
CUT
10
33.3801
20
-40.5116
0
VERTEX
8
CUT
10
33.3797
20
-40.5104
0
VERTEX
8
CUT
10
33.3796
20
-40.5102
0
VERTEX
8
CUT
10
33.3791
20
-40.5088
0
VERTEX
8
CUT
10
33.3790
20
-40.5086
0
VERTEX
8
CUT
10
33.3786
20
-40.5074
0
VERTEX
8
CUT
10
33.3786
20
-40.5073
0
VERTEX
8
CUT
10
33.3746
20
-40.4959
0
VERTEX
8
CUT
10
33.3746
20
-40.4958
0
VERTEX
8
CUT
10
33.3741
20
-40.4946
0
VERTEX
8
CUT
10
33.3741
20
-40.4945
0
VERTEX
8
CUT
10
33.3736
20
-40.4930
0
VERTEX
8
CUT
10
33.3735
20
-40.4928
0
VERTEX
8
CUT
10
33.3731
20
-40.4916
0
VERTEX
8
CUT
10
33.3731
20
-40.4915
0
VERTEX
8
CUT
10
33.2987
20
-40.2776
0
VERTEX
8
CUT
10
33.2986
20
-40.2773
0
VERTEX
8
CUT
10
33.2978
20
-40.2749
0
VERTEX
8
CUT
10
33.2977
20
-40.2746
0
VERTEX
8
CUT
10
33.2966
20
-40.2714
0
VERTEX
8
CUT
10
33.2965
20
-40.2712
0
VERTEX
8
CUT
10
33.2956
20
-40.2687
0
VERTEX
8
CUT
10
33.2955
20
-40.2684
0
VERTEX
8
CUT
10
33.2873
20
-40.2446
0
VERTEX
8
CUT
10
33.2873
20
-40.2444
0
VERTEX
8
CUT
10
33.2864
20
-40.2419
0
VERTEX
8
CUT
10
33.2863
20
-40.2416
0
VERTEX
8
CUT
10
33.2852
20
-40.2384
0
VERTEX
8
CUT
10
33.2851
20
-40.2382
0
VERTEX
8
CUT
10
33.2843
20
-40.2357
0
VERTEX
8
CUT
10
33.2842
20
-40.2354
0
VERTEX
8
CUT
10
33.2166
20
-40.0379
0
VERTEX
8
CUT
10
33.2165
20
-40.0375
0
VERTEX
8
CUT
10
33.2152
20
-40.0337
0
VERTEX
8
CUT
10
33.2150
20
-40.0334
0
VERTEX
8
CUT
10
33.2134
20
-40.0285
0
VERTEX
8
CUT
10
33.2133
20
-40.0281
0
VERTEX
8
CUT
10
33.2120
20
-40.0243
0
VERTEX
8
CUT
10
33.2118
20
-40.0239
0
VERTEX
8
CUT
10
33.1996
20
-39.9876
0
VERTEX
8
CUT
10
33.1994
20
-39.9873
0
VERTEX
8
CUT
10
33.1981
20
-39.9834
0
VERTEX
8
CUT
10
33.1980
20
-39.9831
0
VERTEX
8
CUT
10
33.1964
20
-39.9782
0
VERTEX
8
CUT
10
33.1963
20
-39.9779
0
VERTEX
8
CUT
10
33.1950
20
-39.9740
0
VERTEX
8
CUT
10
33.1949
20
-39.9737
0
VERTEX
8
CUT
10
33.1254
20
-39.7656
0
VERTEX
8
CUT
10
33.1254
20
-39.7656
0
VERTEX
8
CUT
10
33.1253
20
-39.7654
0
VERTEX
8
CUT
10
33.1251
20
-39.7646
0
VERTEX
8
CUT
10
33.1250
20
-39.7645
0
VERTEX
8
CUT
10
33.1250
20
-39.7645
0
VERTEX
8
CUT
10
33.1246
20
-39.7634
0
VERTEX
8
CUT
10
33.1243
20
-39.7625
0
VERTEX
8
CUT
10
33.1243
20
-39.7624
0
VERTEX
8
CUT
10
33.1216
20
-39.7544
0
VERTEX
8
CUT
10
33.1216
20
-39.7544
0
VERTEX
8
CUT
10
33.1216
20
-39.7543
0
VERTEX
8
CUT
10
33.1213
20
-39.7534
0
VERTEX
8
CUT
10
33.1213
20
-39.7533
0
VERTEX
8
CUT
10
33.1209
20
-39.7523
0
VERTEX
8
CUT
10
33.1209
20
-39.7523
0
VERTEX
8
CUT
10
33.1209
20
-39.7522
0
VERTEX
8
CUT
10
33.1206
20
-39.7513
0
VERTEX
8
CUT
10
33.0480
20
-39.5328
0
VERTEX
8
CUT
10
33.0477
20
-39.5318
0
VERTEX
8
CUT
10
33.0465
20
-39.5281
0
VERTEX
8
CUT
10
33.0461
20
-39.5271
0
VERTEX
8
CUT
10
33.0449
20
-39.5235
0
VERTEX
8
CUT
10
33.0446
20
-39.5224
0
VERTEX
8
CUT
10
33.0434
20
-39.5188
0
VERTEX
8
CUT
10
33.0430
20
-39.5178
0
VERTEX
8
CUT
10
32.9717
20
-39.3069
0
VERTEX
8
CUT
10
32.9714
20
-39.3059
0
VERTEX
8
CUT
10
32.9702
20
-39.3026
0
VERTEX
8
CUT
10
32.9699
20
-39.3017
0
VERTEX
8
CUT
10
32.9688
20
-39.2984
0
VERTEX
8
CUT
10
32.9685
20
-39.2974
0
VERTEX
8
CUT
10
32.9673
20
-39.2941
0
VERTEX
8
CUT
10
32.9670
20
-39.2932
0
VERTEX
8
CUT
10
32.8939
20
-39.0806
0
VERTEX
8
CUT
10
32.8936
20
-39.0797
0
VERTEX
8
CUT
10
32.8926
20
-39.0767
0
VERTEX
8
CUT
10
32.8923
20
-39.0758
0
VERTEX
8
CUT
10
32.8912
20
-39.0728
0
VERTEX
8
CUT
10
32.8909
20
-39.0719
0
VERTEX
8
CUT
10
32.8899
20
-39.0689
0
VERTEX
8
CUT
10
32.8896
20
-39.0681
0
VERTEX
8
CUT
10
32.8149
20
-38.8542
0
VERTEX
8
CUT
10
32.8147
20
-38.8534
0
VERTEX
8
CUT
10
32.8137
20
-38.8506
0
VERTEX
8
CUT
10
32.8134
20
-38.8499
0
VERTEX
8
CUT
10
32.8125
20
-38.8471
0
VERTEX
8
CUT
10
32.8122
20
-38.8463
0
VERTEX
8
CUT
10
32.8112
20
-38.8436
0
VERTEX
8
CUT
10
32.8110
20
-38.8428
0
VERTEX
8
CUT
10
32.7350
20
-38.6280
0
VERTEX
8
CUT
10
32.7348
20
-38.6273
0
VERTEX
8
CUT
10
32.7339
20
-38.6248
0
VERTEX
8
CUT
10
32.7336
20
-38.6241
0
VERTEX
8
CUT
10
32.7328
20
-38.6217
0
VERTEX
8
CUT
10
32.7325
20
-38.6210
0
VERTEX
8
CUT
10
32.7316
20
-38.6185
0
VERTEX
8
CUT
10
32.7314
20
-38.6178
0
VERTEX
8
CUT
10
32.6543
20
-38.4024
0
VERTEX
8
CUT
10
32.6541
20
-38.4018
0
VERTEX
8
CUT
10
32.6533
20
-38.3996
0
VERTEX
8
CUT
10
32.6531
20
-38.3989
0
VERTEX
8
CUT
10
32.6523
20
-38.3967
0
VERTEX
8
CUT
10
32.6520
20
-38.3961
0
VERTEX
8
CUT
10
32.6513
20
-38.3939
0
VERTEX
8
CUT
10
32.6510
20
-38.3933
0
VERTEX
8
CUT
10
32.5731
20
-38.1777
0
VERTEX
8
CUT
10
32.5729
20
-38.1771
0
VERTEX
8
CUT
10
32.5722
20
-38.1752
0
VERTEX
8
CUT
10
32.5720
20
-38.1746
0
VERTEX
8
CUT
10
32.5713
20
-38.1727
0
VERTEX
8
CUT
10
32.5711
20
-38.1721
0
VERTEX
8
CUT
10
32.5703
20
-38.1702
0
VERTEX
8
CUT
10
32.5701
20
-38.1696
0
VERTEX
8
CUT
10
32.4915
20
-37.9541
0
VERTEX
8
CUT
10
32.4913
20
-37.9536
0
VERTEX
8
CUT
10
32.4907
20
-37.9519
0
VERTEX
8
CUT
10
32.4905
20
-37.9515
0
VERTEX
8
CUT
10
32.4899
20
-37.9498
0
VERTEX
8
CUT
10
32.4897
20
-37.9493
0
VERTEX
8
CUT
10
32.4891
20
-37.9476
0
VERTEX
8
CUT
10
32.4889
20
-37.9471
0
VERTEX
8
CUT
10
32.4098
20
-37.7320
0
VERTEX
8
CUT
10
32.4097
20
-37.7316
0
VERTEX
8
CUT
10
32.4091
20
-37.7302
0
VERTEX
8
CUT
10
32.4090
20
-37.7298
0
VERTEX
8
CUT
10
32.4085
20
-37.7283
0
VERTEX
8
CUT
10
32.4083
20
-37.7279
0
VERTEX
8
CUT
10
32.4078
20
-37.7265
0
VERTEX
8
CUT
10
32.4076
20
-37.7261
0
VERTEX
8
CUT
10
32.3282
20
-37.5116
0
VERTEX
8
CUT
10
32.3281
20
-37.5113
0
VERTEX
8
CUT
10
32.3277
20
-37.5102
0
VERTEX
8
CUT
10
32.3275
20
-37.5098
0
VERTEX
8
CUT
10
32.3271
20
-37.5087
0
VERTEX
8
CUT
10
32.3270
20
-37.5083
0
VERTEX
8
CUT
10
32.3266
20
-37.5072
0
VERTEX
8
CUT
10
32.3264
20
-37.5068
0
VERTEX
8
CUT
10
32.2469
20
-37.2933
0
VERTEX
8
CUT
10
32.2469
20
-37.2931
0
VERTEX
8
CUT
10
32.2465
20
-37.2922
0
VERTEX
8
CUT
10
32.2464
20
-37.2919
0
VERTEX
8
CUT
10
32.2461
20
-37.2910
0
VERTEX
8
CUT
10
32.2460
20
-37.2908
0
VERTEX
8
CUT
10
32.2457
20
-37.2899
0
VERTEX
8
CUT
10
32.2456
20
-37.2896
0
VERTEX
8
CUT
10
32.1662
20
-37.0774
0
VERTEX
8
CUT
10
32.1661
20
-37.0772
0
VERTEX
8
CUT
10
32.1659
20
-37.0765
0
VERTEX
8
CUT
10
32.1658
20
-37.0763
0
VERTEX
8
CUT
10
32.1656
20
-37.0757
0
VERTEX
8
CUT
10
32.1655
20
-37.0755
0
VERTEX
8
CUT
10
32.1652
20
-37.0748
0
VERTEX
8
CUT
10
32.1652
20
-37.0746
0
VERTEX
8
CUT
10
32.0862
20
-36.8640
0
VERTEX
8
CUT
10
32.0861
20
-36.8639
0
VERTEX
8
CUT
10
32.0860
20
-36.8635
0
VERTEX
8
CUT
10
32.0860
20
-36.8634
0
VERTEX
8
CUT
10
32.0858
20
-36.8629
0
VERTEX
8
CUT
10
32.0857
20
-36.8628
0
VERTEX
8
CUT
10
32.0856
20
-36.8626
0
VERTEX
8
CUT
10
32.0856
20
-36.8624
0
VERTEX
8
CUT
10
32.0071
20
-36.6534
0
VERTEX
8
CUT
10
32.0070
20
-36.6533
0
VERTEX
8
CUT
10
32.0069
20
-36.6530
0
VERTEX
8
CUT
10
32.0069
20
-36.6530
0
VERTEX
8
CUT
10
31.9298
20
-36.4477
0
VERTEX
8
CUT
10
31.9297
20
-36.4475
0
VERTEX
8
CUT
10
31.9296
20
-36.4473
0
VERTEX
8
CUT
10
31.9296
20
-36.4471
0
VERTEX
8
CUT
10
31.9296
20
-36.4471
0
VERTEX
8
CUT
10
31.9295
20
-36.4471
0
VERTEX
8
CUT
10
31.9295
20
-36.4471
0
VERTEX
8
CUT
10
31.9289
20
-36.4453
0
VERTEX
8
CUT
10
31.9289
20
-36.4453
0
VERTEX
8
CUT
10
31.9289
20
-36.4453
0
VERTEX
8
CUT
10
31.9289
20
-36.4453
0
VERTEX
8
CUT
10
31.9287
20
-36.4450
0
VERTEX
8
CUT
10
31.9287
20
-36.4448
0
VERTEX
8
CUT
10
31.9286
20
-36.4447
0
VERTEX
8
CUT
10
31.8583
20
-36.2574
0
VERTEX
8
CUT
10
31.8579
20
-36.2563
0
VERTEX
8
CUT
10
31.8565
20
-36.2526
0
VERTEX
8
CUT
10
31.8561
20
-36.2516
0
VERTEX
8
CUT
10
31.8548
20
-36.2479
0
VERTEX
8
CUT
10
31.8544
20
-36.2469
0
VERTEX
8
CUT
10
31.8530
20
-36.2432
0
VERTEX
8
CUT
10
31.8526
20
-36.2422
0
VERTEX
8
CUT
10
31.7928
20
-36.0856
0
VERTEX
8
CUT
10
31.7920
20
-36.0836
0
VERTEX
8
CUT
10
31.7893
20
-36.0765
0
VERTEX
8
CUT
10
31.7885
20
-36.0745
0
VERTEX
8
CUT
10
31.7857
20
-36.0674
0
VERTEX
8
CUT
10
31.7850
20
-36.0653
0
VERTEX
8
CUT
10
31.7822
20
-36.0582
0
VERTEX
8
CUT
10
31.7814
20
-36.0562
0
VERTEX
8
CUT
10
31.7251
20
-35.9134
0
VERTEX
8
CUT
10
31.7244
20
-35.9117
0
VERTEX
8
CUT
10
31.7220
20
-35.9057
0
VERTEX
8
CUT
10
31.7213
20
-35.9040
0
VERTEX
8
CUT
10
31.7190
20
-35.8980
0
VERTEX
8
CUT
10
31.7183
20
-35.8963
0
VERTEX
8
CUT
10
31.7159
20
-35.8903
0
VERTEX
8
CUT
10
31.7152
20
-35.8886
0
VERTEX
8
CUT
10
31.6557
20
-35.7417
0
VERTEX
8
CUT
10
31.6551
20
-35.7403
0
VERTEX
8
CUT
10
31.6532
20
-35.7355
0
VERTEX
8
CUT
10
31.6526
20
-35.7342
0
VERTEX
8
CUT
10
31.6506
20
-35.7294
0
VERTEX
8
CUT
10
31.6501
20
-35.7280
0
VERTEX
8
CUT
10
31.6481
20
-35.7232
0
VERTEX
8
CUT
10
31.6475
20
-35.7219
0
VERTEX
8
CUT
10
31.5846
20
-35.5696
0
VERTEX
8
CUT
10
31.5842
20
-35.5686
0
VERTEX
8
CUT
10
31.5827
20
-35.5652
0
VERTEX
8
CUT
10
31.5823
20
-35.5642
0
VERTEX
8
CUT
10
31.5808
20
-35.5606
0
VERTEX
8
CUT
10
31.5804
20
-35.5596
0
VERTEX
8
CUT
10
31.5790
20
-35.5561
0
VERTEX
8
CUT
10
31.5785
20
-35.5551
0
VERTEX
8
CUT
10
31.5120
20
-35.3966
0
VERTEX
8
CUT
10
31.5117
20
-35.3960
0
VERTEX
8
CUT
10
31.5108
20
-35.3939
0
VERTEX
8
CUT
10
31.5106
20
-35.3933
0
VERTEX
8
CUT
10
31.5097
20
-35.3911
0
VERTEX
8
CUT
10
31.5094
20
-35.3905
0
VERTEX
8
CUT
10
31.5085
20
-35.3884
0
VERTEX
8
CUT
10
31.5082
20
-35.3878
0
VERTEX
8
CUT
10
31.4379
20
-35.2219
0
VERTEX
8
CUT
10
31.4379
20
-35.2217
0
VERTEX
8
CUT
10
31.4376
20
-35.2211
0
VERTEX
8
CUT
10
31.4375
20
-35.2208
0
VERTEX
8
CUT
10
31.4372
20
-35.2201
0
VERTEX
8
CUT
10
31.4371
20
-35.2199
0
VERTEX
8
CUT
10
31.4368
20
-35.2192
0
VERTEX
8
CUT
10
31.4367
20
-35.2190
0
VERTEX
8
CUT
10
31.3656
20
-35.0518
0
VERTEX
8
CUT
10
31.3656
20
-35.0518
0
VERTEX
8
CUT
10
31.3656
20
-35.0518
0
VERTEX
8
CUT
10
31.3653
20
-35.0511
0
VERTEX
8
CUT
10
31.3653
20
-35.0511
0
VERTEX
8
CUT
10
31.3653
20
-35.0511
0
VERTEX
8
CUT
10
31.3649
20
-35.0503
0
VERTEX
8
CUT
10
31.3647
20
-35.0496
0
VERTEX
8
CUT
10
31.3646
20
-35.0496
0
VERTEX
8
CUT
10
31.3621
20
-35.0435
0
VERTEX
8
CUT
10
31.3618
20
-35.0428
0
VERTEX
8
CUT
10
31.3614
20
-35.0420
0
VERTEX
8
CUT
10
31.3614
20
-35.0420
0
VERTEX
8
CUT
10
31.3612
20
-35.0414
0
VERTEX
8
CUT
10
31.3612
20
-35.0414
0
VERTEX
8
CUT
10
31.3611
20
-35.0412
0
VERTEX
8
CUT
10
31.2951
20
-34.8854
0
VERTEX
8
CUT
10
31.2950
20
-34.8852
0
VERTEX
8
CUT
10
31.2942
20
-34.8833
0
VERTEX
8
CUT
10
31.2941
20
-34.8832
0
VERTEX
8
CUT
10
31.2931
20
-34.8808
0
VERTEX
8
CUT
10
31.2931
20
-34.8806
0
VERTEX
8
CUT
10
31.2923
20
-34.8788
0
VERTEX
8
CUT
10
31.2922
20
-34.8786
0
VERTEX
8
CUT
10
31.2848
20
-34.8609
0
VERTEX
8
CUT
10
31.2847
20
-34.8608
0
VERTEX
8
CUT
10
31.2839
20
-34.8589
0
VERTEX
8
CUT
10
31.2838
20
-34.8587
0
VERTEX
8
CUT
10
31.2828
20
-34.8564
0
VERTEX
8
CUT
10
31.2827
20
-34.8561
0
VERTEX
8
CUT
10
31.2820
20
-34.8543
0
VERTEX
8
CUT
10
31.2819
20
-34.8541
0
VERTEX
8
CUT
10
31.2239
20
-34.7157
0
VERTEX
8
CUT
10
31.2237
20
-34.7154
0
VERTEX
8
CUT
10
31.2224
20
-34.7123
0
VERTEX
8
CUT
10
31.2223
20
-34.7120
0
VERTEX
8
CUT
10
31.2206
20
-34.7080
0
VERTEX
8
CUT
10
31.2205
20
-34.7077
0
VERTEX
8
CUT
10
31.2192
20
-34.7045
0
VERTEX
8
CUT
10
31.2191
20
-34.7043
0
VERTEX
8
CUT
10
31.2067
20
-34.6745
0
VERTEX
8
CUT
10
31.2066
20
-34.6742
0
VERTEX
8
CUT
10
31.2053
20
-34.6711
0
VERTEX
8
CUT
10
31.2052
20
-34.6708
0
VERTEX
8
CUT
10
31.2035
20
-34.6667
0
VERTEX
8
CUT
10
31.2034
20
-34.6665
0
VERTEX
8
CUT
10
31.2021
20
-34.6633
0
VERTEX
8
CUT
10
31.2020
20
-34.6630
0
VERTEX
8
CUT
10
31.1522
20
-34.5422
0
VERTEX
8
CUT
10
31.1520
20
-34.5418
0
VERTEX
8
CUT
10
31.1502
20
-34.5373
0
VERTEX
8
CUT
10
31.1500
20
-34.5369
0
VERTEX
8
CUT
10
31.1477
20
-34.5312
0
VERTEX
8
CUT
10
31.1475
20
-34.5308
0
VERTEX
8
CUT
10
31.1457
20
-34.5264
0
VERTEX
8
CUT
10
31.1455
20
-34.5260
0
VERTEX
8
CUT
10
31.1283
20
-34.4837
0
VERTEX
8
CUT
10
31.1282
20
-34.4833
0
VERTEX
8
CUT
10
31.1263
20
-34.4788
0
VERTEX
8
CUT
10
31.1262
20
-34.4784
0
VERTEX
8
CUT
10
31.1239
20
-34.4727
0
VERTEX
8
CUT
10
31.1237
20
-34.4723
0
VERTEX
8
CUT
10
31.1219
20
-34.4678
0
VERTEX
8
CUT
10
31.1217
20
-34.4675
0
VERTEX
8
CUT
10
31.0802
20
-34.3642
0
VERTEX
8
CUT
10
31.0800
20
-34.3637
0
VERTEX
8
CUT
10
31.0777
20
-34.3579
0
VERTEX
8
CUT
10
31.0775
20
-34.3573
0
VERTEX
8
CUT
10
31.0746
20
-34.3499
0
VERTEX
8
CUT
10
31.0743
20
-34.3494
0
VERTEX
8
CUT
10
31.0720
20
-34.3436
0
VERTEX
8
CUT
10
31.0718
20
-34.3431
0
VERTEX
8
CUT
10
31.0501
20
-34.2880
0
VERTEX
8
CUT
10
31.0499
20
-34.2875
0
VERTEX
8
CUT
10
31.0476
20
-34.2817
0
VERTEX
8
CUT
10
31.0474
20
-34.2811
0
VERTEX
8
CUT
10
31.0445
20
-34.2737
0
VERTEX
8
CUT
10
31.0442
20
-34.2732
0
VERTEX
8
CUT
10
31.0420
20
-34.2674
0
VERTEX
8
CUT
10
31.0418
20
-34.2669
0
VERTEX
8
CUT
10
31.0084
20
-34.1811
0
VERTEX
8
CUT
10
31.0082
20
-34.1804
0
VERTEX
8
CUT
10
31.0054
20
-34.1732
0
VERTEX
8
CUT
10
31.0051
20
-34.1726
0
VERTEX
8
CUT
10
31.0016
20
-34.1634
0
VERTEX
8
CUT
10
31.0014
20
-34.1628
0
VERTEX
8
CUT
10
30.9986
20
-34.1556
0
VERTEX
8
CUT
10
30.9984
20
-34.1549
0
VERTEX
8
CUT
10
30.9725
20
-34.0870
0
VERTEX
8
CUT
10
30.9722
20
-34.0863
0
VERTEX
8
CUT
10
30.9695
20
-34.0791
0
VERTEX
8
CUT
10
30.9693
20
-34.0785
0
VERTEX
8
CUT
10
30.9658
20
-34.0693
0
VERTEX
8
CUT
10
30.9656
20
-34.0686
0
VERTEX
8
CUT
10
30.9629
20
-34.0614
0
VERTEX
8
CUT
10
30.9626
20
-34.0608
0
VERTEX
8
CUT
10
30.9371
20
-33.9922
0
VERTEX
8
CUT
10
30.9368
20
-33.9914
0
VERTEX
8
CUT
10
30.9336
20
-33.9828
0
VERTEX
8
CUT
10
30.9333
20
-33.9821
0
VERTEX
8
CUT
10
30.9293
20
-33.9712
0
VERTEX
8
CUT
10
30.9290
20
-33.9704
0
VERTEX
8
CUT
10
30.9259
20
-33.9618
0
VERTEX
8
CUT
10
30.9256
20
-33.9611
0
VERTEX
8
CUT
10
30.8962
20
-33.8801
0
VERTEX
8
CUT
10
30.8959
20
-33.8793
0
VERTEX
8
CUT
10
30.8928
20
-33.8707
0
VERTEX
8
CUT
10
30.8925
20
-33.8699
0
VERTEX
8
CUT
10
30.8886
20
-33.8590
0
VERTEX
8
CUT
10
30.8883
20
-33.8582
0
VERTEX
8
CUT
10
30.8853
20
-33.8496
0
VERTEX
8
CUT
10
30.8850
20
-33.8489
0
VERTEX
8
CUT
10
30.8666
20
-33.7969
0
VERTEX
8
CUT
10
30.8663
20
-33.7960
0
VERTEX
8
CUT
10
30.8628
20
-33.7861
0
VERTEX
8
CUT
10
30.8625
20
-33.7852
0
VERTEX
8
CUT
10
30.8581
20
-33.7726
0
VERTEX
8
CUT
10
30.8578
20
-33.7717
0
VERTEX
8
CUT
10
30.8544
20
-33.7618
0
VERTEX
8
CUT
10
30.8540
20
-33.7609
0
VERTEX
8
CUT
10
30.8218
20
-33.6670
0
VERTEX
8
CUT
10
30.8215
20
-33.6661
0
VERTEX
8
CUT
10
30.8181
20
-33.6561
0
VERTEX
8
CUT
10
30.8178
20
-33.6552
0
VERTEX
8
CUT
10
30.8135
20
-33.6426
0
VERTEX
8
CUT
10
30.8132
20
-33.6417
0
VERTEX
8
CUT
10
30.8099
20
-33.6317
0
VERTEX
8
CUT
10
30.8096
20
-33.6308
0
VERTEX
8
CUT
10
30.7976
20
-33.5949
0
VERTEX
8
CUT
10
30.7973
20
-33.5939
0
VERTEX
8
CUT
10
30.7936
20
-33.5826
0
VERTEX
8
CUT
10
30.7933
20
-33.5816
0
VERTEX
8
CUT
10
30.7886
20
-33.5673
0
VERTEX
8
CUT
10
30.7883
20
-33.5663
0
VERTEX
8
CUT
10
30.7846
20
-33.5550
0
VERTEX
8
CUT
10
30.7843
20
-33.5540
0
VERTEX
8
CUT
10
30.7501
20
-33.4475
0
VERTEX
8
CUT
10
30.7498
20
-33.4465
0
VERTEX
8
CUT
10
30.7462
20
-33.4352
0
VERTEX
8
CUT
10
30.7459
20
-33.4342
0
VERTEX
8
CUT
10
30.7414
20
-33.4198
0
VERTEX
8
CUT
10
30.7411
20
-33.4188
0
VERTEX
8
CUT
10
30.7375
20
-33.4075
0
VERTEX
8
CUT
10
30.7372
20
-33.4064
0
VERTEX
8
CUT
10
30.7175
20
-33.3426
0
VERTEX
8
CUT
10
30.7173
20
-33.3421
0
VERTEX
8
CUT
10
30.7156
20
-33.3365
0
VERTEX
8
CUT
10
30.7155
20
-33.3360
0
VERTEX
8
CUT
10
30.7133
20
-33.3290
0
VERTEX
8
CUT
10
30.7132
20
-33.3285
0
VERTEX
8
CUT
10
30.7115
20
-33.3229
0
VERTEX
8
CUT
10
30.7113
20
-33.3224
0
VERTEX
8
CUT
10
30.6954
20
-33.2698
0
VERTEX
8
CUT
10
30.6952
20
-33.2693
0
VERTEX
8
CUT
10
30.6936
20
-33.2638
0
VERTEX
8
CUT
10
30.6934
20
-33.2633
0
VERTEX
8
CUT
10
30.6913
20
-33.2562
0
VERTEX
8
CUT
10
30.6911
20
-33.2557
0
VERTEX
8
CUT
10
30.6895
20
-33.2501
0
VERTEX
8
CUT
10
30.6893
20
-33.2496
0
VERTEX
8
CUT
10
30.6510
20
-33.1207
0
VERTEX
8
CUT
10
30.6510
20
-33.1207
0
VERTEX
8
CUT
10
30.6509
20
-33.1204
0
VERTEX
8
CUT
10
30.6509
20
-33.1203
0
VERTEX
8
CUT
10
30.6078
20
-32.9757
0
VERTEX
8
CUT
10
30.6078
20
-32.9756
0
VERTEX
8
CUT
10
30.6073
20
-32.9740
0
VERTEX
8
CUT
10
30.6073
20
-32.9739
0
VERTEX
8
CUT
10
30.6067
20
-32.9719
0
VERTEX
8
CUT
10
30.6067
20
-32.9718
0
VERTEX
8
CUT
10
30.6062
20
-32.9703
0
VERTEX
8
CUT
10
30.6062
20
-32.9701
0
VERTEX
8
CUT
10
30.6019
20
-32.9556
0
VERTEX
8
CUT
10
30.6018
20
-32.9554
0
VERTEX
8
CUT
10
30.6014
20
-32.9539
0
VERTEX
8
CUT
10
30.6014
20
-32.9538
0
VERTEX
8
CUT
10
30.6008
20
-32.9518
0
VERTEX
8
CUT
10
30.6007
20
-32.9517
0
VERTEX
8
CUT
10
30.6003
20
-32.9501
0
VERTEX
8
CUT
10
30.6002
20
-32.9499
0
VERTEX
8
CUT
10
30.5657
20
-32.8327
0
VERTEX
8
CUT
10
30.5656
20
-32.8324
0
VERTEX
8
CUT
10
30.5646
20
-32.8291
0
VERTEX
8
CUT
10
30.5646
20
-32.8288
0
VERTEX
8
CUT
10
30.5633
20
-32.8245
0
VERTEX
8
CUT
10
30.5632
20
-32.8242
0
VERTEX
8
CUT
10
30.5622
20
-32.8209
0
VERTEX
8
CUT
10
30.5622
20
-32.8205
0
VERTEX
8
CUT
10
30.5530
20
-32.7889
0
VERTEX
8
CUT
10
30.5529
20
-32.7886
0
VERTEX
8
CUT
10
30.5519
20
-32.7853
0
VERTEX
8
CUT
10
30.5518
20
-32.7850
0
VERTEX
8
CUT
10
30.5506
20
-32.7807
0
VERTEX
8
CUT
10
30.5505
20
-32.7804
0
VERTEX
8
CUT
10
30.5495
20
-32.7771
0
VERTEX
8
CUT
10
30.5494
20
-32.7768
0
VERTEX
8
CUT
10
30.5238
20
-32.6877
0
VERTEX
8
CUT
10
30.5237
20
-32.6872
0
VERTEX
8
CUT
10
30.5222
20
-32.6819
0
VERTEX
8
CUT
10
30.5220
20
-32.6815
0
VERTEX
8
CUT
10
30.5202
20
-32.6748
0
VERTEX
8
CUT
10
30.5200
20
-32.6743
0
VERTEX
8
CUT
10
30.5185
20
-32.6691
0
VERTEX
8
CUT
10
30.5184
20
-32.6686
0
VERTEX
8
CUT
10
30.5044
20
-32.6190
0
VERTEX
8
CUT
10
30.5043
20
-32.6185
0
VERTEX
8
CUT
10
30.5028
20
-32.6132
0
VERTEX
8
CUT
10
30.5027
20
-32.6128
0
VERTEX
8
CUT
10
30.5008
20
-32.6061
0
VERTEX
8
CUT
10
30.5006
20
-32.6056
0
VERTEX
8
CUT
10
30.4992
20
-32.6003
0
VERTEX
8
CUT
10
30.4991
20
-32.5999
0
VERTEX
8
CUT
10
30.4818
20
-32.5374
0
VERTEX
8
CUT
10
30.4816
20
-32.5367
0
VERTEX
8
CUT
10
30.4796
20
-32.5296
0
VERTEX
8
CUT
10
30.4794
20
-32.5290
0
VERTEX
8
CUT
10
30.4770
20
-32.5199
0
VERTEX
8
CUT
10
30.4768
20
-32.5193
0
VERTEX
8
CUT
10
30.4749
20
-32.5122
0
VERTEX
8
CUT
10
30.4747
20
-32.5115
0
VERTEX
8
CUT
10
30.4566
20
-32.4442
0
VERTEX
8
CUT
10
30.4564
20
-32.4436
0
VERTEX
8
CUT
10
30.4545
20
-32.4365
0
VERTEX
8
CUT
10
30.4543
20
-32.4358
0
VERTEX
8
CUT
10
30.4519
20
-32.4268
0
VERTEX
8
CUT
10
30.4517
20
-32.4261
0
VERTEX
8
CUT
10
30.4498
20
-32.4190
0
VERTEX
8
CUT
10
30.4497
20
-32.4183
0
VERTEX
8
CUT
10
30.4394
20
-32.3792
0
VERTEX
8
CUT
10
30.4392
20
-32.3784
0
VERTEX
8
CUT
10
30.4369
20
-32.3696
0
VERTEX
8
CUT
10
30.4367
20
-32.3688
0
VERTEX
8
CUT
10
30.4338
20
-32.3576
0
VERTEX
8
CUT
10
30.4336
20
-32.3568
0
VERTEX
8
CUT
10
30.4314
20
-32.3480
0
VERTEX
8
CUT
10
30.4312
20
-32.3472
0
VERTEX
8
CUT
10
30.4101
20
-32.2641
0
VERTEX
8
CUT
10
30.4099
20
-32.2633
0
VERTEX
8
CUT
10
30.4077
20
-32.2545
0
VERTEX
8
CUT
10
30.4075
20
-32.2537
0
VERTEX
8
CUT
10
30.4047
20
-32.2425
0
VERTEX
8
CUT
10
30.4045
20
-32.2417
0
VERTEX
8
CUT
10
30.4023
20
-32.2328
0
VERTEX
8
CUT
10
30.4021
20
-32.2320
0
VERTEX
8
CUT
10
30.3970
20
-32.2112
0
VERTEX
8
CUT
10
30.3968
20
-32.2103
0
VERTEX
8
CUT
10
30.3943
20
-32.2001
0
VERTEX
8
CUT
10
30.3941
20
-32.1992
0
VERTEX
8
CUT
10
30.3910
20
-32.1863
0
VERTEX
8
CUT
10
30.3908
20
-32.1854
0
VERTEX
8
CUT
10
30.3884
20
-32.1752
0
VERTEX
8
CUT
10
30.3881
20
-32.1743
0
VERTEX
8
CUT
10
30.3656
20
-32.0784
0
VERTEX
8
CUT
10
30.3654
20
-32.0774
0
VERTEX
8
CUT
10
30.3630
20
-32.0673
0
VERTEX
8
CUT
10
30.3628
20
-32.0663
0
VERTEX
8
CUT
10
30.3598
20
-32.0534
0
VERTEX
8
CUT
10
30.3596
20
-32.0525
0
VERTEX
8
CUT
10
30.3573
20
-32.0423
0
VERTEX
8
CUT
10
30.3571
20
-32.0414
0
VERTEX
8
CUT
10
30.3551
20
-32.0322
0
VERTEX
8
CUT
10
30.3548
20
-32.0312
0
VERTEX
8
CUT
10
30.3524
20
-32.0202
0
VERTEX
8
CUT
10
30.3522
20
-32.0192
0
VERTEX
8
CUT
10
30.3491
20
-32.0051
0
VERTEX
8
CUT
10
30.3488
20
-32.0041
0
VERTEX
8
CUT
10
30.3464
20
-31.9930
0
VERTEX
8
CUT
10
30.3462
20
-31.9920
0
VERTEX
8
CUT
10
30.3238
20
-31.8873
0
VERTEX
8
CUT
10
30.3236
20
-31.8863
0
VERTEX
8
CUT
10
30.3213
20
-31.8752
0
VERTEX
8
CUT
10
30.3211
20
-31.8742
0
VERTEX
8
CUT
10
30.3181
20
-31.8601
0
VERTEX
8
CUT
10
30.3179
20
-31.8591
0
VERTEX
8
CUT
10
30.3156
20
-31.8480
0
VERTEX
8
CUT
10
30.3154
20
-31.8470
0
VERTEX
8
CUT
10
30.3144
20
-31.8420
0
VERTEX
8
CUT
10
30.3142
20
-31.8410
0
VERTEX
8
CUT
10
30.3119
20
-31.8295
0
VERTEX
8
CUT
10
30.3117
20
-31.8284
0
VERTEX
8
CUT
10
30.3088
20
-31.8138
0
VERTEX
8
CUT
10
30.3086
20
-31.8127
0
VERTEX
8
CUT
10
30.3063
20
-31.8012
0
VERTEX
8
CUT
10
30.3061
20
-31.8002
0
VERTEX
8
CUT
10
30.2852
20
-31.6913
0
VERTEX
8
CUT
10
30.2850
20
-31.6902
0
VERTEX
8
CUT
10
30.2828
20
-31.6787
0
VERTEX
8
CUT
10
30.2826
20
-31.6777
0
VERTEX
8
CUT
10
30.2799
20
-31.6630
0
VERTEX
8
CUT
10
30.2797
20
-31.6619
0
VERTEX
8
CUT
10
30.2776
20
-31.6504
0
VERTEX
8
CUT
10
30.2774
20
-31.6494
0
VERTEX
8
CUT
10
30.2758
20
-31.6408
0
VERTEX
8
CUT
10
30.2756
20
-31.6398
0
VERTEX
8
CUT
10
30.2736
20
-31.6283
0
VERTEX
8
CUT
10
30.2734
20
-31.6273
0
VERTEX
8
CUT
10
30.2708
20
-31.6126
0
VERTEX
8
CUT
10
30.2706
20
-31.6116
0
VERTEX
8
CUT
10
30.2687
20
-31.6001
0
VERTEX
8
CUT
10
30.2685
20
-31.5990
0
VERTEX
8
CUT
10
30.2500
20
-31.4903
0
VERTEX
8
CUT
10
30.2498
20
-31.4892
0
VERTEX
8
CUT
10
30.2479
20
-31.4777
0
VERTEX
8
CUT
10
30.2477
20
-31.4767
0
VERTEX
8
CUT
10
30.2453
20
-31.4620
0
VERTEX
8
CUT
10
30.2451
20
-31.4610
0
VERTEX
8
CUT
10
30.2432
20
-31.4495
0
VERTEX
8
CUT
10
30.2431
20
-31.4484
0
VERTEX
8
CUT
10
30.2400
20
-31.4292
0
VERTEX
8
CUT
10
30.2398
20
-31.4282
0
VERTEX
8
CUT
10
30.2381
20
-31.4171
0
VERTEX
8
CUT
10
30.2379
20
-31.4161
0
VERTEX
8
CUT
10
30.2358
20
-31.4020
0
VERTEX
8
CUT
10
30.2356
20
-31.4010
0
VERTEX
8
CUT
10
30.2339
20
-31.3899
0
VERTEX
8
CUT
10
30.2338
20
-31.3889
0
VERTEX
8
CUT
10
30.2182
20
-31.2839
0
VERTEX
8
CUT
10
30.2180
20
-31.2829
0
VERTEX
8
CUT
10
30.2164
20
-31.2718
0
VERTEX
8
CUT
10
30.2162
20
-31.2708
0
VERTEX
8
CUT
10
30.2142
20
-31.2567
0
VERTEX
8
CUT
10
30.2141
20
-31.2557
0
VERTEX
8
CUT
10
30.2125
20
-31.2446
0
VERTEX
8
CUT
10
30.2124
20
-31.2436
0
VERTEX
8
CUT
10
30.2074
20
-31.2075
0
VERTEX
8
CUT
10
30.2072
20
-31.2066
0
VERTEX
8
CUT
10
30.2058
20
-31.1962
0
VERTEX
8
CUT
10
30.2057
20
-31.1952
0
VERTEX
8
CUT
10
30.2039
20
-31.1820
0
VERTEX
8
CUT
10
30.2038
20
-31.1811
0
VERTEX
8
CUT
10
30.2024
20
-31.1707
0
VERTEX
8
CUT
10
30.2023
20
-31.1697
0
VERTEX
8
CUT
10
30.1897
20
-31.0714
0
VERTEX
8
CUT
10
30.1895
20
-31.0705
0
VERTEX
8
CUT
10
30.1882
20
-31.0601
0
VERTEX
8
CUT
10
30.1881
20
-31.0591
0
VERTEX
8
CUT
10
30.1865
20
-31.0459
0
VERTEX
8
CUT
10
30.1863
20
-31.0449
0
VERTEX
8
CUT
10
30.1851
20
-31.0345
0
VERTEX
8
CUT
10
30.1850
20
-31.0336
0
VERTEX
8
CUT
10
30.1781
20
-30.9758
0
VERTEX
8
CUT
10
30.1780
20
-30.9749
0
VERTEX
8
CUT
10
30.1769
20
-30.9654
0
VERTEX
8
CUT
10
30.1768
20
-30.9645
0
VERTEX
8
CUT
10
30.1754
20
-30.9524
0
VERTEX
8
CUT
10
30.1753
20
-30.9516
0
VERTEX
8
CUT
10
30.1742
20
-30.9421
0
VERTEX
8
CUT
10
30.1741
20
-30.9412
0
VERTEX
8
CUT
10
30.1642
20
-30.8513
0
VERTEX
8
CUT
10
30.1641
20
-30.8504
0
VERTEX
8
CUT
10
30.1631
20
-30.8409
0
VERTEX
8
CUT
10
30.1630
20
-30.8401
0
VERTEX
8
CUT
10
30.1617
20
-30.8279
0
VERTEX
8
CUT
10
30.1616
20
-30.8271
0
VERTEX
8
CUT
10
30.1606
20
-30.8176
0
VERTEX
8
CUT
10
30.1605
20
-30.8167
0
VERTEX
8
CUT
10
30.1521
20
-30.7335
0
VERTEX
8
CUT
10
30.1520
20
-30.7327
0
VERTEX
8
CUT
10
30.1512
20
-30.7242
0
VERTEX
8
CUT
10
30.1511
20
-30.7234
0
VERTEX
8
CUT
10
30.1500
20
-30.7126
0
VERTEX
8
CUT
10
30.1500
20
-30.7118
0
VERTEX
8
CUT
10
30.1491
20
-30.7033
0
VERTEX
8
CUT
10
30.1491
20
-30.7025
0
VERTEX
8
CUT
10
30.1415
20
-30.6219
0
VERTEX
8
CUT
10
30.1414
20
-30.6211
0
VERTEX
8
CUT
10
30.1407
20
-30.6126
0
VERTEX
8
CUT
10
30.1406
20
-30.6118
0
VERTEX
8
CUT
10
30.1396
20
-30.6010
0
VERTEX
8
CUT
10
30.1395
20
-30.6002
0
VERTEX
8
CUT
10
30.1388
20
-30.5917
0
VERTEX
8
CUT
10
30.1387
20
-30.5909
0
VERTEX
8
CUT
10
30.1337
20
-30.5320
0
VERTEX
8
CUT
10
30.1333
20
-30.5277
0
VERTEX
8
CUT
10
30.1298
20
-30.4807
0
VERTEX
8
CUT
10
30.1295
20
-30.4765
0
VERTEX
8
CUT
10
30.1257
20
-30.4167
0
VERTEX
8
CUT
10
30.1254
20
-30.4124
0
VERTEX
8
CUT
10
30.1229
20
-30.3654
0
VERTEX
8
CUT
10
30.1227
20
-30.3611
0
VERTEX
8
CUT
10
30.1037
20
-29.9166
0
VERTEX
8
CUT
10
30.1035
20
-29.9124
0
VERTEX
8
CUT
10
30.1020
20
-29.8653
0
VERTEX
8
CUT
10
30.1019
20
-29.8610
0
VERTEX
8
CUT
10
30.1006
20
-29.8012
0
VERTEX
8
CUT
10
30.1005
20
-29.7969
0
VERTEX
8
CUT
10
30.1000
20
-29.7498
0
VERTEX
8
CUT
10
30.1000
20
-29.7455
0
VERTEX
8
CUT
10
30.1000
20
54.9133
0
VERTEX
8
CUT
10
30.1000
20
54.9198
0
VERTEX
8
CUT
10
30.0998
20
54.9427
0
VERTEX
8
CUT
10
30.0997
20
54.9493
0
VERTEX
8
CUT
10
30.0993
20
54.9722
0
VERTEX
8
CUT
10
30.0992
20
54.9787
0
VERTEX
8
CUT
10
30.0986
20
55.0016
0
VERTEX
8
CUT
10
30.0984
20
55.0081
0
VERTEX
8
CUT
10
30.0877
20
55.3367
0
VERTEX
8
CUT
10
30.0872
20
55.3498
0
VERTEX
8
CUT
10
30.0849
20
55.3956
0
VERTEX
8
CUT
10
30.0842
20
55.4086
0
VERTEX
8
CUT
10
30.0812
20
55.4543
0
VERTEX
8
CUT
10
30.0802
20
55.4673
0
VERTEX
8
CUT
10
30.0765
20
55.5130
0
VERTEX
8
CUT
10
30.0753
20
55.5260
0
VERTEX
8
CUT
10
30.0516
20
55.7669
0
VERTEX
8
CUT
10
30.0502
20
55.7799
0
VERTEX
8
CUT
10
30.0449
20
55.8254
0
VERTEX
8
CUT
10
30.0433
20
55.8384
0
VERTEX
8
CUT
10
30.0374
20
55.8837
0
VERTEX
8
CUT
10
30.0356
20
55.8967
0
VERTEX
8
CUT
10
30.0288
20
55.9420
0
VERTEX
8
CUT
10
30.0268
20
55.9549
0
VERTEX
8
CUT
10
29.9874
20
56.1937
0
VERTEX
8
CUT
10
29.9851
20
56.2066
0
VERTEX
8
CUT
10
29.9769
20
56.2517
0
VERTEX
8
CUT
10
29.9745
20
56.2646
0
VERTEX
8
CUT
10
29.9656
20
56.3094
0
VERTEX
8
CUT
10
29.9629
20
56.3222
0
VERTEX
8
CUT
10
29.9532
20
56.3670
0
VERTEX
8
CUT
10
29.9504
20
56.3798
0
VERTEX
8
CUT
10
29.8954
20
56.6155
0
VERTEX
8
CUT
10
29.8923
20
56.6282
0
VERTEX
8
CUT
10
29.8812
20
56.6726
0
VERTEX
8
CUT
10
29.8779
20
56.6853
0
VERTEX
8
CUT
10
29.8661
20
56.7295
0
VERTEX
8
CUT
10
29.8626
20
56.7421
0
VERTEX
8
CUT
10
29.8500
20
56.7861
0
VERTEX
8
CUT
10
29.8463
20
56.7987
0
VERTEX
8
CUT
10
29.7761
20
57.0303
0
VERTEX
8
CUT
10
29.7722
20
57.0428
0
VERTEX
8
CUT
10
29.7582
20
57.0864
0
VERTEX
8
CUT
10
29.7540
20
57.0988
0
VERTEX
8
CUT
10
29.7393
20
57.1421
0
VERTEX
8
CUT
10
29.7350
20
57.1545
0
VERTEX
8
CUT
10
29.7196
20
57.1976
0
VERTEX
8
CUT
10
29.7151
20
57.2099
0
VERTEX
8
CUT
10
29.6298
20
57.4364
0
VERTEX
8
CUT
10
29.6251
20
57.4486
0
VERTEX
8
CUT
10
29.6083
20
57.4912
0
VERTEX
8
CUT
10
29.6034
20
57.5034
0
VERTEX
8
CUT
10
29.5859
20
57.5456
0
VERTEX
8
CUT
10
29.5808
20
57.5577
0
VERTEX
8
CUT
10
29.5626
20
57.5997
0
VERTEX
8
CUT
10
29.5573
20
57.6116
0
VERTEX
8
CUT
10
29.4574
20
57.8321
0
VERTEX
8
CUT
10
29.4519
20
57.8440
0
VERTEX
8
CUT
10
29.4323
20
57.8854
0
VERTEX
8
CUT
10
29.4266
20
57.8972
0
VERTEX
8
CUT
10
29.4064
20
57.9382
0
VERTEX
8
CUT
10
29.4005
20
57.9499
0
VERTEX
8
CUT
10
29.3796
20
57.9906
0
VERTEX
8
CUT
10
29.3735
20
58.0022
0
VERTEX
8
CUT
10
29.2594
20
58.2157
0
VERTEX
8
CUT
10
29.2531
20
58.2272
0
VERTEX
8
CUT
10
29.2309
20
58.2672
0
VERTEX
8
CUT
10
29.2244
20
58.2786
0
VERTEX
8
CUT
10
29.2016
20
58.3182
0
VERTEX
8
CUT
10
29.1949
20
58.3295
0
VERTEX
8
CUT
10
29.1714
20
58.3688
0
VERTEX
8
CUT
10
29.1645
20
58.3799
0
VERTEX
8
CUT
10
29.0367
20
58.5855
0
VERTEX
8
CUT
10
29.0297
20
58.5965
0
VERTEX
8
CUT
10
29.0049
20
58.6350
0
VERTEX
8
CUT
10
28.9977
20
58.6460
0
VERTEX
8
CUT
10
28.9723
20
58.6840
0
VERTEX
8
CUT
10
28.9650
20
58.6948
0
VERTEX
8
CUT
10
28.9389
20
58.7325
0
VERTEX
8
CUT
10
28.9314
20
58.7432
0
VERTEX
8
CUT
10
28.7904
20
58.9399
0
VERTEX
8
CUT
10
28.7827
20
58.9505
0
VERTEX
8
CUT
10
28.7554
20
58.9873
0
VERTEX
8
CUT
10
28.7475
20
58.9977
0
VERTEX
8
CUT
10
28.7197
20
59.0340
0
VERTEX
8
CUT
10
28.7116
20
59.0443
0
VERTEX
8
CUT
10
28.6831
20
59.0802
0
VERTEX
8
CUT
10
28.6749
20
59.0904
0
VERTEX
8
CUT
10
28.5214
20
59.2775
0
VERTEX
8
CUT
10
28.5130
20
59.2875
0
VERTEX
8
CUT
10
28.4833
20
59.3225
0
VERTEX
8
CUT
10
28.4748
20
59.3324
0
VERTEX
8
CUT
10
28.4447
20
59.3668
0
VERTEX
8
CUT
10
28.4359
20
59.3765
0
VERTEX
8
CUT
10
28.4052
20
59.4105
0
VERTEX
8
CUT
10
28.3963
20
59.4201
0
VERTEX
8
CUT
10
28.2309
20
59.5967
0
VERTEX
8
CUT
10
28.2218
20
59.6062
0
VERTEX
8
CUT
10
28.1900
20
59.6391
0
VERTEX
8
CUT
10
28.1808
20
59.6485
0
VERTEX
8
CUT
10
28.1485
20
59.6808
0
VERTEX
8
CUT
10
28.1391
20
59.6900
0
VERTEX
8
CUT
10
28.1062
20
59.7218
0
VERTEX
8
CUT
10
28.0967
20
59.7309
0
VERTEX
8
CUT
10
27.9201
20
59.8963
0
VERTEX
8
CUT
10
27.9105
20
59.9052
0
VERTEX
8
CUT
10
27.8765
20
59.9359
0
VERTEX
8
CUT
10
27.8668
20
59.9447
0
VERTEX
8
CUT
10
27.8324
20
59.9748
0
VERTEX
8
CUT
10
27.8225
20
59.9833
0
VERTEX
8
CUT
10
27.7875
20
60.0130
0
VERTEX
8
CUT
10
27.7775
20
60.0214
0
VERTEX
8
CUT
10
27.5904
20
60.1749
0
VERTEX
8
CUT
10
27.5802
20
60.1831
0
VERTEX
8
CUT
10
27.5443
20
60.2116
0
VERTEX
8
CUT
10
27.5340
20
60.2197
0
VERTEX
8
CUT
10
27.4977
20
60.2475
0
VERTEX
8
CUT
10
27.4873
20
60.2554
0
VERTEX
8
CUT
10
27.4505
20
60.2827
0
VERTEX
8
CUT
10
27.4399
20
60.2904
0
VERTEX
8
CUT
10
27.2432
20
60.4314
0
VERTEX
8
CUT
10
27.2325
20
60.4389
0
VERTEX
8
CUT
10
27.1948
20
60.4650
0
VERTEX
8
CUT
10
27.1840
20
60.4723
0
VERTEX
8
CUT
10
27.1460
20
60.4977
0
VERTEX
8
CUT
10
27.1350
20
60.5049
0
VERTEX
8
CUT
10
27.0965
20
60.5297
0
VERTEX
8
CUT
10
27.0855
20
60.5367
0
VERTEX
8
CUT
10
26.8799
20
60.6645
0
VERTEX
8
CUT
10
26.8688
20
60.6714
0
VERTEX
8
CUT
10
26.8295
20
60.6949
0
VERTEX
8
CUT
10
26.8182
20
60.7016
0
VERTEX
8
CUT
10
26.7786
20
60.7244
0
VERTEX
8
CUT
10
26.7672
20
60.7309
0
VERTEX
8
CUT
10
26.7272
20
60.7531
0
VERTEX
8
CUT
10
26.7157
20
60.7594
0
VERTEX
8
CUT
10
26.5022
20
60.8735
0
VERTEX
8
CUT
10
26.4906
20
60.8796
0
VERTEX
8
CUT
10
26.4499
20
60.9005
0
VERTEX
8
CUT
10
26.4382
20
60.9064
0
VERTEX
8
CUT
10
26.3972
20
60.9266
0
VERTEX
8
CUT
10
26.3854
20
60.9323
0
VERTEX
8
CUT
10
26.3440
20
60.9519
0
VERTEX
8
CUT
10
26.3321
20
60.9574
0
VERTEX
8
CUT
10
26.1116
20
61.0573
0
VERTEX
8
CUT
10
26.0997
20
61.0626
0
VERTEX
8
CUT
10
26.0577
20
61.0808
0
VERTEX
8
CUT
10
26.0456
20
61.0859
0
VERTEX
8
CUT
10
26.0034
20
61.1034
0
VERTEX
8
CUT
10
25.9912
20
61.1083
0
VERTEX
8
CUT
10
25.9486
20
61.1251
0
VERTEX
8
CUT
10
25.9364
20
61.1298
0
VERTEX
8
CUT
10
25.7099
20
61.2151
0
VERTEX
8
CUT
10
25.6976
20
61.2196
0
VERTEX
8
CUT
10
25.6545
20
61.2350
0
VERTEX
8
CUT
10
25.6421
20
61.2393
0
VERTEX
8
CUT
10
25.5988
20
61.2540
0
VERTEX
8
CUT
10
25.5864
20
61.2582
0
VERTEX
8
CUT
10
25.5428
20
61.2722
0
VERTEX
8
CUT
10
25.5303
20
61.2761
0
VERTEX
8
CUT
10
25.2987
20
61.3463
0
VERTEX
8
CUT
10
25.2861
20
61.3500
0
VERTEX
8
CUT
10
25.2421
20
61.3626
0
VERTEX
8
CUT
10
25.2295
20
61.3661
0
VERTEX
8
CUT
10
25.1853
20
61.3779
0
VERTEX
8
CUT
10
25.1726
20
61.3812
0
VERTEX
8
CUT
10
25.1282
20
61.3923
0
VERTEX
8
CUT
10
25.1155
20
61.3954
0
VERTEX
8
CUT
10
24.8798
20
61.4504
0
VERTEX
8
CUT
10
24.8670
20
61.4532
0
VERTEX
8
CUT
10
24.8222
20
61.4629
0
VERTEX
8
CUT
10
24.8094
20
61.4656
0
VERTEX
8
CUT
10
24.7646
20
61.4745
0
VERTEX
8
CUT
10
24.7517
20
61.4769
0
VERTEX
8
CUT
10
24.7066
20
61.4851
0
VERTEX
8
CUT
10
24.6937
20
61.4874
0
VERTEX
8
CUT
10
24.4549
20
61.5268
0
VERTEX
8
CUT
10
24.4420
20
61.5288
0
VERTEX
8
CUT
10
24.3967
20
61.5356
0
VERTEX
8
CUT
10
24.3837
20
61.5374
0
VERTEX
8
CUT
10
24.3384
20
61.5433
0
VERTEX
8
CUT
10
24.3254
20
61.5449
0
VERTEX
8
CUT
10
24.2799
20
61.5502
0
VERTEX
8
CUT
10
24.2669
20
61.5516
0
VERTEX
8
CUT
10
24.0260
20
61.5753
0
VERTEX
8
CUT
10
24.0130
20
61.5765
0
VERTEX
8
CUT
10
23.9673
20
61.5802
0
VERTEX
8
CUT
10
23.9543
20
61.5812
0
VERTEX
8
CUT
10
23.9086
20
61.5842
0
VERTEX
8
CUT
10
23.8956
20
61.5849
0
VERTEX
8
CUT
10
23.8498
20
61.5872
0
VERTEX
8
CUT
10
23.8367
20
61.5877
0
VERTEX
8
CUT
10
23.5081
20
61.5984
0
VERTEX
8
CUT
10
23.5016
20
61.5986
0
VERTEX
8
CUT
10
23.4787
20
61.5992
0
VERTEX
8
CUT
10
23.4722
20
61.5993
0
VERTEX
8
CUT
10
23.4493
20
61.5997
0
VERTEX
8
CUT
10
23.4427
20
61.5998
0
VERTEX
8
CUT
10
23.4198
20
61.6000
0
VERTEX
8
CUT
10
23.4133
20
61.6000
0
VERTEX
8
CUT
10
-23.4133
20
61.6000
0
VERTEX
8
CUT
10
-23.4198
20
61.6000
0
VERTEX
8
CUT
10
-23.4427
20
61.5998
0
VERTEX
8
CUT
10
-23.4493
20
61.5997
0
VERTEX
8
CUT
10
-23.4722
20
61.5993
0
VERTEX
8
CUT
10
-23.4787
20
61.5992
0
VERTEX
8
CUT
10
-23.5016
20
61.5986
0
VERTEX
8
CUT
10
-23.5081
20
61.5984
0
VERTEX
8
CUT
10
-23.8367
20
61.5877
0
VERTEX
8
CUT
10
-23.8498
20
61.5872
0
VERTEX
8
CUT
10
-23.8956
20
61.5849
0
VERTEX
8
CUT
10
-23.9086
20
61.5842
0
VERTEX
8
CUT
10
-23.9543
20
61.5812
0
VERTEX
8
CUT
10
-23.9673
20
61.5802
0
VERTEX
8
CUT
10
-24.0130
20
61.5765
0
VERTEX
8
CUT
10
-24.0260
20
61.5753
0
VERTEX
8
CUT
10
-24.2669
20
61.5516
0
VERTEX
8
CUT
10
-24.2799
20
61.5502
0
VERTEX
8
CUT
10
-24.3254
20
61.5449
0
VERTEX
8
CUT
10
-24.3384
20
61.5433
0
VERTEX
8
CUT
10
-24.3837
20
61.5374
0
VERTEX
8
CUT
10
-24.3967
20
61.5356
0
VERTEX
8
CUT
10
-24.4420
20
61.5288
0
VERTEX
8
CUT
10
-24.4549
20
61.5268
0
VERTEX
8
CUT
10
-24.6937
20
61.4874
0
VERTEX
8
CUT
10
-24.7066
20
61.4851
0
VERTEX
8
CUT
10
-24.7517
20
61.4769
0
VERTEX
8
CUT
10
-24.7646
20
61.4745
0
VERTEX
8
CUT
10
-24.8094
20
61.4656
0
VERTEX
8
CUT
10
-24.8222
20
61.4629
0
VERTEX
8
CUT
10
-24.8670
20
61.4532
0
VERTEX
8
CUT
10
-24.8798
20
61.4504
0
VERTEX
8
CUT
10
-25.1155
20
61.3954
0
VERTEX
8
CUT
10
-25.1282
20
61.3923
0
VERTEX
8
CUT
10
-25.1726
20
61.3812
0
VERTEX
8
CUT
10
-25.1853
20
61.3779
0
VERTEX
8
CUT
10
-25.2295
20
61.3661
0
VERTEX
8
CUT
10
-25.2421
20
61.3626
0
VERTEX
8
CUT
10
-25.2861
20
61.3500
0
VERTEX
8
CUT
10
-25.2987
20
61.3463
0
VERTEX
8
CUT
10
-25.5303
20
61.2761
0
VERTEX
8
CUT
10
-25.5428
20
61.2722
0
VERTEX
8
CUT
10
-25.5864
20
61.2582
0
VERTEX
8
CUT
10
-25.5988
20
61.2540
0
VERTEX
8
CUT
10
-25.6421
20
61.2393
0
VERTEX
8
CUT
10
-25.6545
20
61.2350
0
VERTEX
8
CUT
10
-25.6976
20
61.2196
0
VERTEX
8
CUT
10
-25.7099
20
61.2151
0
VERTEX
8
CUT
10
-25.9364
20
61.1298
0
VERTEX
8
CUT
10
-25.9486
20
61.1251
0
VERTEX
8
CUT
10
-25.9912
20
61.1083
0
VERTEX
8
CUT
10
-26.0034
20
61.1034
0
VERTEX
8
CUT
10
-26.0456
20
61.0859
0
VERTEX
8
CUT
10
-26.0577
20
61.0808
0
VERTEX
8
CUT
10
-26.0997
20
61.0626
0
VERTEX
8
CUT
10
-26.1116
20
61.0573
0
VERTEX
8
CUT
10
-26.3321
20
60.9574
0
VERTEX
8
CUT
10
-26.3440
20
60.9519
0
VERTEX
8
CUT
10
-26.3854
20
60.9323
0
VERTEX
8
CUT
10
-26.3972
20
60.9266
0
VERTEX
8
CUT
10
-26.4382
20
60.9064
0
VERTEX
8
CUT
10
-26.4499
20
60.9005
0
VERTEX
8
CUT
10
-26.4906
20
60.8796
0
VERTEX
8
CUT
10
-26.5022
20
60.8735
0
VERTEX
8
CUT
10
-26.7157
20
60.7594
0
VERTEX
8
CUT
10
-26.7272
20
60.7531
0
VERTEX
8
CUT
10
-26.7672
20
60.7309
0
VERTEX
8
CUT
10
-26.7786
20
60.7244
0
VERTEX
8
CUT
10
-26.8182
20
60.7016
0
VERTEX
8
CUT
10
-26.8295
20
60.6949
0
VERTEX
8
CUT
10
-26.8688
20
60.6714
0
VERTEX
8
CUT
10
-26.8799
20
60.6645
0
VERTEX
8
CUT
10
-27.0855
20
60.5367
0
VERTEX
8
CUT
10
-27.0965
20
60.5297
0
VERTEX
8
CUT
10
-27.1350
20
60.5049
0
VERTEX
8
CUT
10
-27.1460
20
60.4977
0
VERTEX
8
CUT
10
-27.1840
20
60.4723
0
VERTEX
8
CUT
10
-27.1948
20
60.4650
0
VERTEX
8
CUT
10
-27.2325
20
60.4389
0
VERTEX
8
CUT
10
-27.2432
20
60.4314
0
VERTEX
8
CUT
10
-27.4399
20
60.2904
0
VERTEX
8
CUT
10
-27.4505
20
60.2827
0
VERTEX
8
CUT
10
-27.4873
20
60.2554
0
VERTEX
8
CUT
10
-27.4977
20
60.2475
0
VERTEX
8
CUT
10
-27.5340
20
60.2197
0
VERTEX
8
CUT
10
-27.5443
20
60.2116
0
VERTEX
8
CUT
10
-27.5802
20
60.1831
0
VERTEX
8
CUT
10
-27.5904
20
60.1749
0
VERTEX
8
CUT
10
-27.7775
20
60.0214
0
VERTEX
8
CUT
10
-27.7875
20
60.0130
0
VERTEX
8
CUT
10
-27.8225
20
59.9833
0
VERTEX
8
CUT
10
-27.8324
20
59.9748
0
VERTEX
8
CUT
10
-27.8668
20
59.9447
0
VERTEX
8
CUT
10
-27.8765
20
59.9359
0
VERTEX
8
CUT
10
-27.9105
20
59.9052
0
VERTEX
8
CUT
10
-27.9201
20
59.8963
0
VERTEX
8
CUT
10
-28.0967
20
59.7309
0
VERTEX
8
CUT
10
-28.1062
20
59.7218
0
VERTEX
8
CUT
10
-28.1391
20
59.6900
0
VERTEX
8
CUT
10
-28.1485
20
59.6808
0
VERTEX
8
CUT
10
-28.1808
20
59.6485
0
VERTEX
8
CUT
10
-28.1900
20
59.6391
0
VERTEX
8
CUT
10
-28.2218
20
59.6062
0
VERTEX
8
CUT
10
-28.2309
20
59.5967
0
VERTEX
8
CUT
10
-28.3963
20
59.4201
0
VERTEX
8
CUT
10
-28.4052
20
59.4105
0
VERTEX
8
CUT
10
-28.4359
20
59.3765
0
VERTEX
8
CUT
10
-28.4447
20
59.3668
0
VERTEX
8
CUT
10
-28.4748
20
59.3324
0
VERTEX
8
CUT
10
-28.4833
20
59.3225
0
VERTEX
8
CUT
10
-28.5130
20
59.2875
0
VERTEX
8
CUT
10
-28.5214
20
59.2775
0
VERTEX
8
CUT
10
-28.6749
20
59.0904
0
VERTEX
8
CUT
10
-28.6831
20
59.0802
0
VERTEX
8
CUT
10
-28.7116
20
59.0443
0
VERTEX
8
CUT
10
-28.7197
20
59.0340
0
VERTEX
8
CUT
10
-28.7475
20
58.9977
0
VERTEX
8
CUT
10
-28.7554
20
58.9873
0
VERTEX
8
CUT
10
-28.7827
20
58.9505
0
VERTEX
8
CUT
10
-28.7904
20
58.9399
0
VERTEX
8
CUT
10
-28.9314
20
58.7432
0
VERTEX
8
CUT
10
-28.9389
20
58.7325
0
VERTEX
8
CUT
10
-28.9650
20
58.6948
0
VERTEX
8
CUT
10
-28.9723
20
58.6840
0
VERTEX
8
CUT
10
-28.9977
20
58.6460
0
VERTEX
8
CUT
10
-29.0049
20
58.6350
0
VERTEX
8
CUT
10
-29.0297
20
58.5965
0
VERTEX
8
CUT
10
-29.0367
20
58.5855
0
VERTEX
8
CUT
10
-29.1645
20
58.3799
0
VERTEX
8
CUT
10
-29.1714
20
58.3688
0
VERTEX
8
CUT
10
-29.1949
20
58.3295
0
VERTEX
8
CUT
10
-29.2016
20
58.3182
0
VERTEX
8
CUT
10
-29.2244
20
58.2786
0
VERTEX
8
CUT
10
-29.2309
20
58.2672
0
VERTEX
8
CUT
10
-29.2531
20
58.2272
0
VERTEX
8
CUT
10
-29.2594
20
58.2157
0
VERTEX
8
CUT
10
-29.3735
20
58.0022
0
VERTEX
8
CUT
10
-29.3796
20
57.9906
0
VERTEX
8
CUT
10
-29.4005
20
57.9499
0
VERTEX
8
CUT
10
-29.4064
20
57.9382
0
VERTEX
8
CUT
10
-29.4266
20
57.8972
0
VERTEX
8
CUT
10
-29.4323
20
57.8854
0
VERTEX
8
CUT
10
-29.4519
20
57.8440
0
VERTEX
8
CUT
10
-29.4574
20
57.8321
0
VERTEX
8
CUT
10
-29.5573
20
57.6116
0
VERTEX
8
CUT
10
-29.5626
20
57.5997
0
VERTEX
8
CUT
10
-29.5808
20
57.5577
0
VERTEX
8
CUT
10
-29.5859
20
57.5456
0
VERTEX
8
CUT
10
-29.6034
20
57.5034
0
VERTEX
8
CUT
10
-29.6083
20
57.4912
0
VERTEX
8
CUT
10
-29.6251
20
57.4486
0
VERTEX
8
CUT
10
-29.6298
20
57.4364
0
VERTEX
8
CUT
10
-29.7151
20
57.2099
0
VERTEX
8
CUT
10
-29.7196
20
57.1976
0
VERTEX
8
CUT
10
-29.7350
20
57.1545
0
VERTEX
8
CUT
10
-29.7393
20
57.1421
0
VERTEX
8
CUT
10
-29.7540
20
57.0988
0
VERTEX
8
CUT
10
-29.7582
20
57.0864
0
VERTEX
8
CUT
10
-29.7722
20
57.0428
0
VERTEX
8
CUT
10
-29.7761
20
57.0303
0
VERTEX
8
CUT
10
-29.8463
20
56.7987
0
VERTEX
8
CUT
10
-29.8500
20
56.7861
0
VERTEX
8
CUT
10
-29.8626
20
56.7421
0
VERTEX
8
CUT
10
-29.8661
20
56.7295
0
VERTEX
8
CUT
10
-29.8779
20
56.6853
0
VERTEX
8
CUT
10
-29.8812
20
56.6726
0
VERTEX
8
CUT
10
-29.8923
20
56.6282
0
VERTEX
8
CUT
10
-29.8954
20
56.6155
0
VERTEX
8
CUT
10
-29.9504
20
56.3798
0
VERTEX
8
CUT
10
-29.9532
20
56.3670
0
VERTEX
8
CUT
10
-29.9629
20
56.3222
0
VERTEX
8
CUT
10
-29.9656
20
56.3094
0
VERTEX
8
CUT
10
-29.9745
20
56.2646
0
VERTEX
8
CUT
10
-29.9769
20
56.2517
0
VERTEX
8
CUT
10
-29.9851
20
56.2066
0
VERTEX
8
CUT
10
-29.9874
20
56.1937
0
VERTEX
8
CUT
10
-30.0268
20
55.9549
0
VERTEX
8
CUT
10
-30.0288
20
55.9420
0
VERTEX
8
CUT
10
-30.0356
20
55.8967
0
VERTEX
8
CUT
10
-30.0374
20
55.8837
0
VERTEX
8
CUT
10
-30.0433
20
55.8384
0
VERTEX
8
CUT
10
-30.0449
20
55.8254
0
VERTEX
8
CUT
10
-30.0502
20
55.7799
0
VERTEX
8
CUT
10
-30.0516
20
55.7669
0
VERTEX
8
CUT
10
-30.0753
20
55.5260
0
VERTEX
8
CUT
10
-30.0765
20
55.5130
0
VERTEX
8
CUT
10
-30.0802
20
55.4673
0
VERTEX
8
CUT
10
-30.0812
20
55.4543
0
VERTEX
8
CUT
10
-30.0842
20
55.4086
0
VERTEX
8
CUT
10
-30.0849
20
55.3956
0
VERTEX
8
CUT
10
-30.0872
20
55.3498
0
VERTEX
8
CUT
10
-30.0877
20
55.3367
0
VERTEX
8
CUT
10
-30.0984
20
55.0081
0
VERTEX
8
CUT
10
-30.0986
20
55.0016
0
VERTEX
8
CUT
10
-30.0992
20
54.9787
0
VERTEX
8
CUT
10
-30.0993
20
54.9722
0
VERTEX
8
CUT
10
-30.0997
20
54.9493
0
VERTEX
8
CUT
10
-30.0998
20
54.9427
0
VERTEX
8
CUT
10
-30.1000
20
54.9198
0
VERTEX
8
CUT
10
-30.1000
20
54.9133
0
VERTEX
8
CUT
10
-30.1000
20
-29.7455
0
VERTEX
8
CUT
10
-30.1000
20
-29.7498
0
VERTEX
8
CUT
10
-30.1005
20
-29.7969
0
VERTEX
8
CUT
10
-30.1006
20
-29.8012
0
VERTEX
8
CUT
10
-30.1019
20
-29.8610
0
VERTEX
8
CUT
10
-30.1020
20
-29.8653
0
VERTEX
8
CUT
10
-30.1035
20
-29.9124
0
VERTEX
8
CUT
10
-30.1037
20
-29.9166
0
VERTEX
8
CUT
10
-30.1227
20
-30.3611
0
VERTEX
8
CUT
10
-30.1229
20
-30.3654
0
VERTEX
8
CUT
10
-30.1254
20
-30.4124
0
VERTEX
8
CUT
10
-30.1257
20
-30.4167
0
VERTEX
8
CUT
10
-30.1295
20
-30.4765
0
VERTEX
8
CUT
10
-30.1298
20
-30.4807
0
VERTEX
8
CUT
10
-30.1333
20
-30.5277
0
VERTEX
8
CUT
10
-30.1337
20
-30.5320
0
VERTEX
8
CUT
10
-30.1387
20
-30.5909
0
VERTEX
8
CUT
10
-30.1388
20
-30.5917
0
VERTEX
8
CUT
10
-30.1395
20
-30.6002
0
VERTEX
8
CUT
10
-30.1396
20
-30.6010
0
VERTEX
8
CUT
10
-30.1406
20
-30.6118
0
VERTEX
8
CUT
10
-30.1407
20
-30.6126
0
VERTEX
8
CUT
10
-30.1414
20
-30.6211
0
VERTEX
8
CUT
10
-30.1415
20
-30.6219
0
VERTEX
8
CUT
10
-30.1491
20
-30.7025
0
VERTEX
8
CUT
10
-30.1491
20
-30.7033
0
VERTEX
8
CUT
10
-30.1500
20
-30.7118
0
VERTEX
8
CUT
10
-30.1500
20
-30.7126
0
VERTEX
8
CUT
10
-30.1511
20
-30.7234
0
VERTEX
8
CUT
10
-30.1512
20
-30.7242
0
VERTEX
8
CUT
10
-30.1520
20
-30.7327
0
VERTEX
8
CUT
10
-30.1521
20
-30.7335
0
VERTEX
8
CUT
10
-30.1605
20
-30.8167
0
VERTEX
8
CUT
10
-30.1606
20
-30.8176
0
VERTEX
8
CUT
10
-30.1616
20
-30.8271
0
VERTEX
8
CUT
10
-30.1617
20
-30.8279
0
VERTEX
8
CUT
10
-30.1630
20
-30.8401
0
VERTEX
8
CUT
10
-30.1631
20
-30.8409
0
VERTEX
8
CUT
10
-30.1641
20
-30.8504
0
VERTEX
8
CUT
10
-30.1642
20
-30.8513
0
VERTEX
8
CUT
10
-30.1741
20
-30.9412
0
VERTEX
8
CUT
10
-30.1742
20
-30.9421
0
VERTEX
8
CUT
10
-30.1753
20
-30.9516
0
VERTEX
8
CUT
10
-30.1754
20
-30.9524
0
VERTEX
8
CUT
10
-30.1768
20
-30.9645
0
VERTEX
8
CUT
10
-30.1769
20
-30.9654
0
VERTEX
8
CUT
10
-30.1780
20
-30.9749
0
VERTEX
8
CUT
10
-30.1781
20
-30.9758
0
VERTEX
8
CUT
10
-30.1850
20
-31.0336
0
VERTEX
8
CUT
10
-30.1851
20
-31.0345
0
VERTEX
8
CUT
10
-30.1863
20
-31.0449
0
VERTEX
8
CUT
10
-30.1865
20
-31.0459
0
VERTEX
8
CUT
10
-30.1881
20
-31.0591
0
VERTEX
8
CUT
10
-30.1882
20
-31.0601
0
VERTEX
8
CUT
10
-30.1895
20
-31.0705
0
VERTEX
8
CUT
10
-30.1897
20
-31.0714
0
VERTEX
8
CUT
10
-30.2023
20
-31.1697
0
VERTEX
8
CUT
10
-30.2024
20
-31.1707
0
VERTEX
8
CUT
10
-30.2038
20
-31.1811
0
VERTEX
8
CUT
10
-30.2039
20
-31.1820
0
VERTEX
8
CUT
10
-30.2057
20
-31.1952
0
VERTEX
8
CUT
10
-30.2058
20
-31.1962
0
VERTEX
8
CUT
10
-30.2072
20
-31.2066
0
VERTEX
8
CUT
10
-30.2074
20
-31.2075
0
VERTEX
8
CUT
10
-30.2124
20
-31.2436
0
VERTEX
8
CUT
10
-30.2125
20
-31.2446
0
VERTEX
8
CUT
10
-30.2141
20
-31.2557
0
VERTEX
8
CUT
10
-30.2142
20
-31.2567
0
VERTEX
8
CUT
10
-30.2162
20
-31.2708
0
VERTEX
8
CUT
10
-30.2164
20
-31.2718
0
VERTEX
8
CUT
10
-30.2180
20
-31.2829
0
VERTEX
8
CUT
10
-30.2182
20
-31.2839
0
VERTEX
8
CUT
10
-30.2338
20
-31.3889
0
VERTEX
8
CUT
10
-30.2339
20
-31.3899
0
VERTEX
8
CUT
10
-30.2356
20
-31.4010
0
VERTEX
8
CUT
10
-30.2358
20
-31.4020
0
VERTEX
8
CUT
10
-30.2379
20
-31.4161
0
VERTEX
8
CUT
10
-30.2381
20
-31.4171
0
VERTEX
8
CUT
10
-30.2398
20
-31.4282
0
VERTEX
8
CUT
10
-30.2400
20
-31.4292
0
VERTEX
8
CUT
10
-30.2431
20
-31.4484
0
VERTEX
8
CUT
10
-30.2432
20
-31.4495
0
VERTEX
8
CUT
10
-30.2451
20
-31.4610
0
VERTEX
8
CUT
10
-30.2453
20
-31.4620
0
VERTEX
8
CUT
10
-30.2477
20
-31.4767
0
VERTEX
8
CUT
10
-30.2479
20
-31.4777
0
VERTEX
8
CUT
10
-30.2498
20
-31.4892
0
VERTEX
8
CUT
10
-30.2500
20
-31.4903
0
VERTEX
8
CUT
10
-30.2685
20
-31.5990
0
VERTEX
8
CUT
10
-30.2687
20
-31.6001
0
VERTEX
8
CUT
10
-30.2706
20
-31.6116
0
VERTEX
8
CUT
10
-30.2708
20
-31.6126
0
VERTEX
8
CUT
10
-30.2734
20
-31.6273
0
VERTEX
8
CUT
10
-30.2736
20
-31.6283
0
VERTEX
8
CUT
10
-30.2756
20
-31.6398
0
VERTEX
8
CUT
10
-30.2758
20
-31.6408
0
VERTEX
8
CUT
10
-30.2774
20
-31.6494
0
VERTEX
8
CUT
10
-30.2776
20
-31.6504
0
VERTEX
8
CUT
10
-30.2797
20
-31.6619
0
VERTEX
8
CUT
10
-30.2799
20
-31.6630
0
VERTEX
8
CUT
10
-30.2826
20
-31.6777
0
VERTEX
8
CUT
10
-30.2828
20
-31.6787
0
VERTEX
8
CUT
10
-30.2850
20
-31.6902
0
VERTEX
8
CUT
10
-30.2852
20
-31.6913
0
VERTEX
8
CUT
10
-30.3061
20
-31.8002
0
VERTEX
8
CUT
10
-30.3063
20
-31.8012
0
VERTEX
8
CUT
10
-30.3086
20
-31.8127
0
VERTEX
8
CUT
10
-30.3088
20
-31.8138
0
VERTEX
8
CUT
10
-30.3117
20
-31.8284
0
VERTEX
8
CUT
10
-30.3119
20
-31.8295
0
VERTEX
8
CUT
10
-30.3142
20
-31.8410
0
VERTEX
8
CUT
10
-30.3144
20
-31.8420
0
VERTEX
8
CUT
10
-30.3154
20
-31.8470
0
VERTEX
8
CUT
10
-30.3156
20
-31.8480
0
VERTEX
8
CUT
10
-30.3179
20
-31.8591
0
VERTEX
8
CUT
10
-30.3181
20
-31.8601
0
VERTEX
8
CUT
10
-30.3211
20
-31.8742
0
VERTEX
8
CUT
10
-30.3213
20
-31.8752
0
VERTEX
8
CUT
10
-30.3236
20
-31.8863
0
VERTEX
8
CUT
10
-30.3238
20
-31.8873
0
VERTEX
8
CUT
10
-30.3462
20
-31.9920
0
VERTEX
8
CUT
10
-30.3464
20
-31.9930
0
VERTEX
8
CUT
10
-30.3488
20
-32.0041
0
VERTEX
8
CUT
10
-30.3491
20
-32.0051
0
VERTEX
8
CUT
10
-30.3522
20
-32.0192
0
VERTEX
8
CUT
10
-30.3524
20
-32.0202
0
VERTEX
8
CUT
10
-30.3548
20
-32.0312
0
VERTEX
8
CUT
10
-30.3551
20
-32.0322
0
VERTEX
8
CUT
10
-30.3571
20
-32.0414
0
VERTEX
8
CUT
10
-30.3573
20
-32.0423
0
VERTEX
8
CUT
10
-30.3596
20
-32.0525
0
VERTEX
8
CUT
10
-30.3598
20
-32.0534
0
VERTEX
8
CUT
10
-30.3628
20
-32.0663
0
VERTEX
8
CUT
10
-30.3630
20
-32.0673
0
VERTEX
8
CUT
10
-30.3654
20
-32.0774
0
VERTEX
8
CUT
10
-30.3656
20
-32.0784
0
VERTEX
8
CUT
10
-30.3881
20
-32.1743
0
VERTEX
8
CUT
10
-30.3884
20
-32.1752
0
VERTEX
8
CUT
10
-30.3908
20
-32.1854
0
VERTEX
8
CUT
10
-30.3910
20
-32.1863
0
VERTEX
8
CUT
10
-30.3941
20
-32.1992
0
VERTEX
8
CUT
10
-30.3943
20
-32.2001
0
VERTEX
8
CUT
10
-30.3968
20
-32.2103
0
VERTEX
8
CUT
10
-30.3970
20
-32.2112
0
VERTEX
8
CUT
10
-30.4021
20
-32.2320
0
VERTEX
8
CUT
10
-30.4023
20
-32.2328
0
VERTEX
8
CUT
10
-30.4045
20
-32.2417
0
VERTEX
8
CUT
10
-30.4047
20
-32.2425
0
VERTEX
8
CUT
10
-30.4075
20
-32.2537
0
VERTEX
8
CUT
10
-30.4077
20
-32.2545
0
VERTEX
8
CUT
10
-30.4099
20
-32.2633
0
VERTEX
8
CUT
10
-30.4101
20
-32.2641
0
VERTEX
8
CUT
10
-30.4312
20
-32.3472
0
VERTEX
8
CUT
10
-30.4314
20
-32.3480
0
VERTEX
8
CUT
10
-30.4336
20
-32.3568
0
VERTEX
8
CUT
10
-30.4338
20
-32.3576
0
VERTEX
8
CUT
10
-30.4367
20
-32.3688
0
VERTEX
8
CUT
10
-30.4369
20
-32.3696
0
VERTEX
8
CUT
10
-30.4392
20
-32.3784
0
VERTEX
8
CUT
10
-30.4394
20
-32.3792
0
VERTEX
8
CUT
10
-30.4497
20
-32.4183
0
VERTEX
8
CUT
10
-30.4498
20
-32.4190
0
VERTEX
8
CUT
10
-30.4517
20
-32.4261
0
VERTEX
8
CUT
10
-30.4519
20
-32.4268
0
VERTEX
8
CUT
10
-30.4543
20
-32.4358
0
VERTEX
8
CUT
10
-30.4545
20
-32.4365
0
VERTEX
8
CUT
10
-30.4564
20
-32.4436
0
VERTEX
8
CUT
10
-30.4566
20
-32.4442
0
VERTEX
8
CUT
10
-30.4747
20
-32.5115
0
VERTEX
8
CUT
10
-30.4749
20
-32.5122
0
VERTEX
8
CUT
10
-30.4768
20
-32.5193
0
VERTEX
8
CUT
10
-30.4770
20
-32.5199
0
VERTEX
8
CUT
10
-30.4794
20
-32.5290
0
VERTEX
8
CUT
10
-30.4796
20
-32.5296
0
VERTEX
8
CUT
10
-30.4816
20
-32.5367
0
VERTEX
8
CUT
10
-30.4818
20
-32.5374
0
VERTEX
8
CUT
10
-30.4991
20
-32.5999
0
VERTEX
8
CUT
10
-30.4992
20
-32.6003
0
VERTEX
8
CUT
10
-30.5006
20
-32.6056
0
VERTEX
8
CUT
10
-30.5008
20
-32.6061
0
VERTEX
8
CUT
10
-30.5027
20
-32.6128
0
VERTEX
8
CUT
10
-30.5028
20
-32.6132
0
VERTEX
8
CUT
10
-30.5043
20
-32.6185
0
VERTEX
8
CUT
10
-30.5044
20
-32.6190
0
VERTEX
8
CUT
10
-30.5184
20
-32.6686
0
VERTEX
8
CUT
10
-30.5185
20
-32.6691
0
VERTEX
8
CUT
10
-30.5200
20
-32.6743
0
VERTEX
8
CUT
10
-30.5202
20
-32.6748
0
VERTEX
8
CUT
10
-30.5220
20
-32.6815
0
VERTEX
8
CUT
10
-30.5222
20
-32.6819
0
VERTEX
8
CUT
10
-30.5237
20
-32.6872
0
VERTEX
8
CUT
10
-30.5238
20
-32.6877
0
VERTEX
8
CUT
10
-30.5494
20
-32.7768
0
VERTEX
8
CUT
10
-30.5495
20
-32.7771
0
VERTEX
8
CUT
10
-30.5505
20
-32.7804
0
VERTEX
8
CUT
10
-30.5506
20
-32.7807
0
VERTEX
8
CUT
10
-30.5518
20
-32.7850
0
VERTEX
8
CUT
10
-30.5519
20
-32.7853
0
VERTEX
8
CUT
10
-30.5529
20
-32.7886
0
VERTEX
8
CUT
10
-30.5530
20
-32.7889
0
VERTEX
8
CUT
10
-30.5622
20
-32.8205
0
VERTEX
8
CUT
10
-30.5622
20
-32.8209
0
VERTEX
8
CUT
10
-30.5632
20
-32.8242
0
VERTEX
8
CUT
10
-30.5633
20
-32.8245
0
VERTEX
8
CUT
10
-30.5646
20
-32.8288
0
VERTEX
8
CUT
10
-30.5646
20
-32.8291
0
VERTEX
8
CUT
10
-30.5656
20
-32.8324
0
VERTEX
8
CUT
10
-30.5657
20
-32.8327
0
VERTEX
8
CUT
10
-30.6002
20
-32.9499
0
VERTEX
8
CUT
10
-30.6003
20
-32.9501
0
VERTEX
8
CUT
10
-30.6007
20
-32.9517
0
VERTEX
8
CUT
10
-30.6008
20
-32.9518
0
VERTEX
8
CUT
10
-30.6014
20
-32.9538
0
VERTEX
8
CUT
10
-30.6014
20
-32.9539
0
VERTEX
8
CUT
10
-30.6018
20
-32.9554
0
VERTEX
8
CUT
10
-30.6019
20
-32.9556
0
VERTEX
8
CUT
10
-30.6062
20
-32.9701
0
VERTEX
8
CUT
10
-30.6062
20
-32.9703
0
VERTEX
8
CUT
10
-30.6067
20
-32.9718
0
VERTEX
8
CUT
10
-30.6067
20
-32.9719
0
VERTEX
8
CUT
10
-30.6073
20
-32.9739
0
VERTEX
8
CUT
10
-30.6073
20
-32.9740
0
VERTEX
8
CUT
10
-30.6078
20
-32.9756
0
VERTEX
8
CUT
10
-30.6078
20
-32.9757
0
VERTEX
8
CUT
10
-30.6509
20
-33.1203
0
VERTEX
8
CUT
10
-30.6509
20
-33.1204
0
VERTEX
8
CUT
10
-30.6510
20
-33.1207
0
VERTEX
8
CUT
10
-30.6510
20
-33.1207
0
VERTEX
8
CUT
10
-30.6893
20
-33.2496
0
VERTEX
8
CUT
10
-30.6895
20
-33.2501
0
VERTEX
8
CUT
10
-30.6911
20
-33.2557
0
VERTEX
8
CUT
10
-30.6913
20
-33.2562
0
VERTEX
8
CUT
10
-30.6934
20
-33.2633
0
VERTEX
8
CUT
10
-30.6936
20
-33.2638
0
VERTEX
8
CUT
10
-30.6952
20
-33.2693
0
VERTEX
8
CUT
10
-30.6954
20
-33.2698
0
VERTEX
8
CUT
10
-30.7113
20
-33.3224
0
VERTEX
8
CUT
10
-30.7115
20
-33.3229
0
VERTEX
8
CUT
10
-30.7132
20
-33.3285
0
VERTEX
8
CUT
10
-30.7133
20
-33.3290
0
VERTEX
8
CUT
10
-30.7155
20
-33.3360
0
VERTEX
8
CUT
10
-30.7156
20
-33.3365
0
VERTEX
8
CUT
10
-30.7173
20
-33.3421
0
VERTEX
8
CUT
10
-30.7175
20
-33.3426
0
VERTEX
8
CUT
10
-30.7372
20
-33.4064
0
VERTEX
8
CUT
10
-30.7375
20
-33.4075
0
VERTEX
8
CUT
10
-30.7411
20
-33.4188
0
VERTEX
8
CUT
10
-30.7414
20
-33.4198
0
VERTEX
8
CUT
10
-30.7459
20
-33.4342
0
VERTEX
8
CUT
10
-30.7462
20
-33.4352
0
VERTEX
8
CUT
10
-30.7498
20
-33.4465
0
VERTEX
8
CUT
10
-30.7501
20
-33.4475
0
VERTEX
8
CUT
10
-30.7843
20
-33.5540
0
VERTEX
8
CUT
10
-30.7846
20
-33.5550
0
VERTEX
8
CUT
10
-30.7883
20
-33.5663
0
VERTEX
8
CUT
10
-30.7886
20
-33.5673
0
VERTEX
8
CUT
10
-30.7933
20
-33.5816
0
VERTEX
8
CUT
10
-30.7936
20
-33.5826
0
VERTEX
8
CUT
10
-30.7973
20
-33.5939
0
VERTEX
8
CUT
10
-30.7976
20
-33.5949
0
VERTEX
8
CUT
10
-30.8096
20
-33.6308
0
VERTEX
8
CUT
10
-30.8099
20
-33.6317
0
VERTEX
8
CUT
10
-30.8132
20
-33.6417
0
VERTEX
8
CUT
10
-30.8135
20
-33.6426
0
VERTEX
8
CUT
10
-30.8178
20
-33.6552
0
VERTEX
8
CUT
10
-30.8181
20
-33.6561
0
VERTEX
8
CUT
10
-30.8215
20
-33.6661
0
VERTEX
8
CUT
10
-30.8218
20
-33.6670
0
VERTEX
8
CUT
10
-30.8540
20
-33.7609
0
VERTEX
8
CUT
10
-30.8544
20
-33.7618
0
VERTEX
8
CUT
10
-30.8578
20
-33.7717
0
VERTEX
8
CUT
10
-30.8581
20
-33.7726
0
VERTEX
8
CUT
10
-30.8625
20
-33.7852
0
VERTEX
8
CUT
10
-30.8628
20
-33.7861
0
VERTEX
8
CUT
10
-30.8663
20
-33.7960
0
VERTEX
8
CUT
10
-30.8666
20
-33.7969
0
VERTEX
8
CUT
10
-30.8850
20
-33.8489
0
VERTEX
8
CUT
10
-30.8853
20
-33.8496
0
VERTEX
8
CUT
10
-30.8883
20
-33.8582
0
VERTEX
8
CUT
10
-30.8886
20
-33.8590
0
VERTEX
8
CUT
10
-30.8925
20
-33.8699
0
VERTEX
8
CUT
10
-30.8928
20
-33.8707
0
VERTEX
8
CUT
10
-30.8959
20
-33.8793
0
VERTEX
8
CUT
10
-30.8962
20
-33.8801
0
VERTEX
8
CUT
10
-30.9256
20
-33.9611
0
VERTEX
8
CUT
10
-30.9259
20
-33.9618
0
VERTEX
8
CUT
10
-30.9290
20
-33.9704
0
VERTEX
8
CUT
10
-30.9293
20
-33.9712
0
VERTEX
8
CUT
10
-30.9333
20
-33.9821
0
VERTEX
8
CUT
10
-30.9336
20
-33.9828
0
VERTEX
8
CUT
10
-30.9368
20
-33.9914
0
VERTEX
8
CUT
10
-30.9371
20
-33.9922
0
VERTEX
8
CUT
10
-30.9626
20
-34.0608
0
VERTEX
8
CUT
10
-30.9629
20
-34.0614
0
VERTEX
8
CUT
10
-30.9656
20
-34.0686
0
VERTEX
8
CUT
10
-30.9658
20
-34.0693
0
VERTEX
8
CUT
10
-30.9693
20
-34.0785
0
VERTEX
8
CUT
10
-30.9695
20
-34.0791
0
VERTEX
8
CUT
10
-30.9722
20
-34.0863
0
VERTEX
8
CUT
10
-30.9725
20
-34.0870
0
VERTEX
8
CUT
10
-30.9984
20
-34.1549
0
VERTEX
8
CUT
10
-30.9986
20
-34.1556
0
VERTEX
8
CUT
10
-31.0014
20
-34.1628
0
VERTEX
8
CUT
10
-31.0016
20
-34.1634
0
VERTEX
8
CUT
10
-31.0051
20
-34.1726
0
VERTEX
8
CUT
10
-31.0054
20
-34.1732
0
VERTEX
8
CUT
10
-31.0082
20
-34.1804
0
VERTEX
8
CUT
10
-31.0084
20
-34.1811
0
VERTEX
8
CUT
10
-31.0418
20
-34.2669
0
VERTEX
8
CUT
10
-31.0420
20
-34.2674
0
VERTEX
8
CUT
10
-31.0442
20
-34.2732
0
VERTEX
8
CUT
10
-31.0445
20
-34.2737
0
VERTEX
8
CUT
10
-31.0474
20
-34.2811
0
VERTEX
8
CUT
10
-31.0476
20
-34.2817
0
VERTEX
8
CUT
10
-31.0499
20
-34.2875
0
VERTEX
8
CUT
10
-31.0501
20
-34.2880
0
VERTEX
8
CUT
10
-31.0718
20
-34.3431
0
VERTEX
8
CUT
10
-31.0720
20
-34.3436
0
VERTEX
8
CUT
10
-31.0743
20
-34.3494
0
VERTEX
8
CUT
10
-31.0746
20
-34.3499
0
VERTEX
8
CUT
10
-31.0775
20
-34.3573
0
VERTEX
8
CUT
10
-31.0777
20
-34.3579
0
VERTEX
8
CUT
10
-31.0800
20
-34.3637
0
VERTEX
8
CUT
10
-31.0802
20
-34.3642
0
VERTEX
8
CUT
10
-31.1217
20
-34.4675
0
VERTEX
8
CUT
10
-31.1219
20
-34.4678
0
VERTEX
8
CUT
10
-31.1237
20
-34.4723
0
VERTEX
8
CUT
10
-31.1239
20
-34.4727
0
VERTEX
8
CUT
10
-31.1262
20
-34.4784
0
VERTEX
8
CUT
10
-31.1263
20
-34.4788
0
VERTEX
8
CUT
10
-31.1282
20
-34.4833
0
VERTEX
8
CUT
10
-31.1283
20
-34.4837
0
VERTEX
8
CUT
10
-31.1455
20
-34.5260
0
VERTEX
8
CUT
10
-31.1457
20
-34.5264
0
VERTEX
8
CUT
10
-31.1475
20
-34.5308
0
VERTEX
8
CUT
10
-31.1477
20
-34.5312
0
VERTEX
8
CUT
10
-31.1500
20
-34.5369
0
VERTEX
8
CUT
10
-31.1502
20
-34.5373
0
VERTEX
8
CUT
10
-31.1520
20
-34.5418
0
VERTEX
8
CUT
10
-31.1522
20
-34.5422
0
VERTEX
8
CUT
10
-31.2020
20
-34.6630
0
VERTEX
8
CUT
10
-31.2021
20
-34.6633
0
VERTEX
8
CUT
10
-31.2034
20
-34.6665
0
VERTEX
8
CUT
10
-31.2035
20
-34.6667
0
VERTEX
8
CUT
10
-31.2052
20
-34.6708
0
VERTEX
8
CUT
10
-31.2053
20
-34.6711
0
VERTEX
8
CUT
10
-31.2066
20
-34.6742
0
VERTEX
8
CUT
10
-31.2067
20
-34.6745
0
VERTEX
8
CUT
10
-31.2191
20
-34.7043
0
VERTEX
8
CUT
10
-31.2192
20
-34.7045
0
VERTEX
8
CUT
10
-31.2205
20
-34.7077
0
VERTEX
8
CUT
10
-31.2206
20
-34.7080
0
VERTEX
8
CUT
10
-31.2223
20
-34.7120
0
VERTEX
8
CUT
10
-31.2224
20
-34.7123
0
VERTEX
8
CUT
10
-31.2237
20
-34.7154
0
VERTEX
8
CUT
10
-31.2239
20
-34.7157
0
VERTEX
8
CUT
10
-31.2819
20
-34.8541
0
VERTEX
8
CUT
10
-31.2820
20
-34.8543
0
VERTEX
8
CUT
10
-31.2827
20
-34.8561
0
VERTEX
8
CUT
10
-31.2828
20
-34.8564
0
VERTEX
8
CUT
10
-31.2838
20
-34.8587
0
VERTEX
8
CUT
10
-31.2839
20
-34.8589
0
VERTEX
8
CUT
10
-31.2847
20
-34.8608
0
VERTEX
8
CUT
10
-31.2848
20
-34.8609
0
VERTEX
8
CUT
10
-31.2922
20
-34.8786
0
VERTEX
8
CUT
10
-31.2923
20
-34.8788
0
VERTEX
8
CUT
10
-31.2931
20
-34.8806
0
VERTEX
8
CUT
10
-31.2931
20
-34.8808
0
VERTEX
8
CUT
10
-31.2941
20
-34.8832
0
VERTEX
8
CUT
10
-31.2942
20
-34.8833
0
VERTEX
8
CUT
10
-31.2950
20
-34.8852
0
VERTEX
8
CUT
10
-31.2951
20
-34.8854
0
VERTEX
8
CUT
10
-31.3611
20
-35.0412
0
VERTEX
8
CUT
10
-31.3612
20
-35.0414
0
VERTEX
8
CUT
10
-31.3612
20
-35.0414
0
VERTEX
8
CUT
10
-31.3614
20
-35.0420
0
VERTEX
8
CUT
10
-31.3614
20
-35.0420
0
VERTEX
8
CUT
10
-31.3618
20
-35.0428
0
VERTEX
8
CUT
10
-31.3621
20
-35.0435
0
VERTEX
8
CUT
10
-31.3646
20
-35.0496
0
VERTEX
8
CUT
10
-31.3647
20
-35.0496
0
VERTEX
8
CUT
10
-31.3649
20
-35.0503
0
VERTEX
8
CUT
10
-31.3653
20
-35.0511
0
VERTEX
8
CUT
10
-31.3653
20
-35.0511
0
VERTEX
8
CUT
10
-31.3653
20
-35.0511
0
VERTEX
8
CUT
10
-31.3656
20
-35.0518
0
VERTEX
8
CUT
10
-31.3656
20
-35.0518
0
VERTEX
8
CUT
10
-31.3656
20
-35.0518
0
VERTEX
8
CUT
10
-31.4367
20
-35.2190
0
VERTEX
8
CUT
10
-31.4368
20
-35.2192
0
VERTEX
8
CUT
10
-31.4371
20
-35.2199
0
VERTEX
8
CUT
10
-31.4372
20
-35.2201
0
VERTEX
8
CUT
10
-31.4375
20
-35.2208
0
VERTEX
8
CUT
10
-31.4376
20
-35.2211
0
VERTEX
8
CUT
10
-31.4379
20
-35.2217
0
VERTEX
8
CUT
10
-31.4379
20
-35.2219
0
VERTEX
8
CUT
10
-31.5082
20
-35.3878
0
VERTEX
8
CUT
10
-31.5085
20
-35.3884
0
VERTEX
8
CUT
10
-31.5094
20
-35.3905
0
VERTEX
8
CUT
10
-31.5097
20
-35.3911
0
VERTEX
8
CUT
10
-31.5106
20
-35.3933
0
VERTEX
8
CUT
10
-31.5108
20
-35.3939
0
VERTEX
8
CUT
10
-31.5117
20
-35.3960
0
VERTEX
8
CUT
10
-31.5120
20
-35.3966
0
VERTEX
8
CUT
10
-31.5785
20
-35.5551
0
VERTEX
8
CUT
10
-31.5790
20
-35.5561
0
VERTEX
8
CUT
10
-31.5804
20
-35.5596
0
VERTEX
8
CUT
10
-31.5808
20
-35.5606
0
VERTEX
8
CUT
10
-31.5823
20
-35.5642
0
VERTEX
8
CUT
10
-31.5827
20
-35.5652
0
VERTEX
8
CUT
10
-31.5842
20
-35.5686
0
VERTEX
8
CUT
10
-31.5846
20
-35.5696
0
VERTEX
8
CUT
10
-31.6475
20
-35.7219
0
VERTEX
8
CUT
10
-31.6481
20
-35.7232
0
VERTEX
8
CUT
10
-31.6501
20
-35.7280
0
VERTEX
8
CUT
10
-31.6506
20
-35.7294
0
VERTEX
8
CUT
10
-31.6526
20
-35.7342
0
VERTEX
8
CUT
10
-31.6532
20
-35.7355
0
VERTEX
8
CUT
10
-31.6551
20
-35.7403
0
VERTEX
8
CUT
10
-31.6557
20
-35.7417
0
VERTEX
8
CUT
10
-31.7152
20
-35.8886
0
VERTEX
8
CUT
10
-31.7159
20
-35.8903
0
VERTEX
8
CUT
10
-31.7183
20
-35.8963
0
VERTEX
8
CUT
10
-31.7190
20
-35.8980
0
VERTEX
8
CUT
10
-31.7213
20
-35.9040
0
VERTEX
8
CUT
10
-31.7220
20
-35.9057
0
VERTEX
8
CUT
10
-31.7244
20
-35.9117
0
VERTEX
8
CUT
10
-31.7251
20
-35.9134
0
VERTEX
8
CUT
10
-31.7814
20
-36.0562
0
VERTEX
8
CUT
10
-31.7822
20
-36.0582
0
VERTEX
8
CUT
10
-31.7850
20
-36.0653
0
VERTEX
8
CUT
10
-31.7857
20
-36.0674
0
VERTEX
8
CUT
10
-31.7885
20
-36.0745
0
VERTEX
8
CUT
10
-31.7893
20
-36.0765
0
VERTEX
8
CUT
10
-31.7920
20
-36.0836
0
VERTEX
8
CUT
10
-31.7928
20
-36.0856
0
VERTEX
8
CUT
10
-31.8526
20
-36.2422
0
VERTEX
8
CUT
10
-31.8530
20
-36.2432
0
VERTEX
8
CUT
10
-31.8544
20
-36.2469
0
VERTEX
8
CUT
10
-31.8548
20
-36.2479
0
VERTEX
8
CUT
10
-31.8561
20
-36.2516
0
VERTEX
8
CUT
10
-31.8565
20
-36.2526
0
VERTEX
8
CUT
10
-31.8579
20
-36.2563
0
VERTEX
8
CUT
10
-31.8583
20
-36.2574
0
VERTEX
8
CUT
10
-31.9286
20
-36.4447
0
VERTEX
8
CUT
10
-31.9287
20
-36.4448
0
VERTEX
8
CUT
10
-31.9287
20
-36.4450
0
VERTEX
8
CUT
10
-31.9289
20
-36.4453
0
VERTEX
8
CUT
10
-31.9289
20
-36.4453
0
VERTEX
8
CUT
10
-31.9289
20
-36.4453
0
VERTEX
8
CUT
10
-31.9289
20
-36.4453
0
VERTEX
8
CUT
10
-31.9295
20
-36.4471
0
VERTEX
8
CUT
10
-31.9295
20
-36.4471
0
VERTEX
8
CUT
10
-31.9296
20
-36.4471
0
VERTEX
8
CUT
10
-31.9296
20
-36.4471
0
VERTEX
8
CUT
10
-31.9296
20
-36.4473
0
VERTEX
8
CUT
10
-31.9297
20
-36.4475
0
VERTEX
8
CUT
10
-31.9298
20
-36.4477
0
VERTEX
8
CUT
10
-32.0069
20
-36.6530
0
VERTEX
8
CUT
10
-32.0069
20
-36.6530
0
VERTEX
8
CUT
10
-32.0070
20
-36.6533
0
VERTEX
8
CUT
10
-32.0071
20
-36.6534
0
VERTEX
8
CUT
10
-32.0856
20
-36.8624
0
VERTEX
8
CUT
10
-32.0856
20
-36.8626
0
VERTEX
8
CUT
10
-32.0857
20
-36.8628
0
VERTEX
8
CUT
10
-32.0858
20
-36.8629
0
VERTEX
8
CUT
10
-32.0860
20
-36.8634
0
VERTEX
8
CUT
10
-32.0860
20
-36.8635
0
VERTEX
8
CUT
10
-32.0861
20
-36.8639
0
VERTEX
8
CUT
10
-32.0862
20
-36.8640
0
VERTEX
8
CUT
10
-32.1652
20
-37.0746
0
VERTEX
8
CUT
10
-32.1652
20
-37.0748
0
VERTEX
8
CUT
10
-32.1655
20
-37.0755
0
VERTEX
8
CUT
10
-32.1656
20
-37.0757
0
VERTEX
8
CUT
10
-32.1658
20
-37.0763
0
VERTEX
8
CUT
10
-32.1659
20
-37.0765
0
VERTEX
8
CUT
10
-32.1661
20
-37.0772
0
VERTEX
8
CUT
10
-32.1662
20
-37.0774
0
VERTEX
8
CUT
10
-32.2456
20
-37.2896
0
VERTEX
8
CUT
10
-32.2457
20
-37.2899
0
VERTEX
8
CUT
10
-32.2460
20
-37.2908
0
VERTEX
8
CUT
10
-32.2461
20
-37.2910
0
VERTEX
8
CUT
10
-32.2464
20
-37.2919
0
VERTEX
8
CUT
10
-32.2465
20
-37.2922
0
VERTEX
8
CUT
10
-32.2469
20
-37.2931
0
VERTEX
8
CUT
10
-32.2469
20
-37.2933
0
VERTEX
8
CUT
10
-32.3264
20
-37.5068
0
VERTEX
8
CUT
10
-32.3266
20
-37.5072
0
VERTEX
8
CUT
10
-32.3270
20
-37.5083
0
VERTEX
8
CUT
10
-32.3271
20
-37.5087
0
VERTEX
8
CUT
10
-32.3275
20
-37.5098
0
VERTEX
8
CUT
10
-32.3277
20
-37.5102
0
VERTEX
8
CUT
10
-32.3281
20
-37.5113
0
VERTEX
8
CUT
10
-32.3282
20
-37.5116
0
VERTEX
8
CUT
10
-32.4076
20
-37.7261
0
VERTEX
8
CUT
10
-32.4078
20
-37.7265
0
VERTEX
8
CUT
10
-32.4083
20
-37.7279
0
VERTEX
8
CUT
10
-32.4085
20
-37.7283
0
VERTEX
8
CUT
10
-32.4090
20
-37.7298
0
VERTEX
8
CUT
10
-32.4091
20
-37.7302
0
VERTEX
8
CUT
10
-32.4097
20
-37.7316
0
VERTEX
8
CUT
10
-32.4098
20
-37.7320
0
VERTEX
8
CUT
10
-32.4889
20
-37.9471
0
VERTEX
8
CUT
10
-32.4891
20
-37.9476
0
VERTEX
8
CUT
10
-32.4897
20
-37.9493
0
VERTEX
8
CUT
10
-32.4899
20
-37.9498
0
VERTEX
8
CUT
10
-32.4905
20
-37.9515
0
VERTEX
8
CUT
10
-32.4907
20
-37.9519
0
VERTEX
8
CUT
10
-32.4913
20
-37.9536
0
VERTEX
8
CUT
10
-32.4915
20
-37.9541
0
VERTEX
8
CUT
10
-32.5701
20
-38.1696
0
VERTEX
8
CUT
10
-32.5703
20
-38.1702
0
VERTEX
8
CUT
10
-32.5711
20
-38.1721
0
VERTEX
8
CUT
10
-32.5713
20
-38.1727
0
VERTEX
8
CUT
10
-32.5720
20
-38.1746
0
VERTEX
8
CUT
10
-32.5722
20
-38.1752
0
VERTEX
8
CUT
10
-32.5729
20
-38.1771
0
VERTEX
8
CUT
10
-32.5731
20
-38.1777
0
VERTEX
8
CUT
10
-32.6510
20
-38.3933
0
VERTEX
8
CUT
10
-32.6513
20
-38.3939
0
VERTEX
8
CUT
10
-32.6520
20
-38.3961
0
VERTEX
8
CUT
10
-32.6523
20
-38.3967
0
VERTEX
8
CUT
10
-32.6531
20
-38.3989
0
VERTEX
8
CUT
10
-32.6533
20
-38.3996
0
VERTEX
8
CUT
10
-32.6541
20
-38.4018
0
VERTEX
8
CUT
10
-32.6543
20
-38.4024
0
VERTEX
8
CUT
10
-32.7314
20
-38.6178
0
VERTEX
8
CUT
10
-32.7316
20
-38.6185
0
VERTEX
8
CUT
10
-32.7325
20
-38.6210
0
VERTEX
8
CUT
10
-32.7328
20
-38.6217
0
VERTEX
8
CUT
10
-32.7336
20
-38.6241
0
VERTEX
8
CUT
10
-32.7339
20
-38.6248
0
VERTEX
8
CUT
10
-32.7348
20
-38.6273
0
VERTEX
8
CUT
10
-32.7350
20
-38.6280
0
VERTEX
8
CUT
10
-32.8110
20
-38.8428
0
VERTEX
8
CUT
10
-32.8112
20
-38.8436
0
VERTEX
8
CUT
10
-32.8122
20
-38.8463
0
VERTEX
8
CUT
10
-32.8125
20
-38.8471
0
VERTEX
8
CUT
10
-32.8134
20
-38.8499
0
VERTEX
8
CUT
10
-32.8137
20
-38.8506
0
VERTEX
8
CUT
10
-32.8147
20
-38.8534
0
VERTEX
8
CUT
10
-32.8149
20
-38.8542
0
VERTEX
8
CUT
10
-32.8896
20
-39.0681
0
VERTEX
8
CUT
10
-32.8899
20
-39.0689
0
VERTEX
8
CUT
10
-32.8909
20
-39.0719
0
VERTEX
8
CUT
10
-32.8912
20
-39.0728
0
VERTEX
8
CUT
10
-32.8923
20
-39.0758
0
VERTEX
8
CUT
10
-32.8926
20
-39.0767
0
VERTEX
8
CUT
10
-32.8936
20
-39.0797
0
VERTEX
8
CUT
10
-32.8939
20
-39.0806
0
VERTEX
8
CUT
10
-32.9670
20
-39.2932
0
VERTEX
8
CUT
10
-32.9673
20
-39.2941
0
VERTEX
8
CUT
10
-32.9685
20
-39.2974
0
VERTEX
8
CUT
10
-32.9688
20
-39.2984
0
VERTEX
8
CUT
10
-32.9699
20
-39.3017
0
VERTEX
8
CUT
10
-32.9702
20
-39.3026
0
VERTEX
8
CUT
10
-32.9714
20
-39.3059
0
VERTEX
8
CUT
10
-32.9717
20
-39.3069
0
VERTEX
8
CUT
10
-33.0430
20
-39.5178
0
VERTEX
8
CUT
10
-33.0434
20
-39.5188
0
VERTEX
8
CUT
10
-33.0446
20
-39.5224
0
VERTEX
8
CUT
10
-33.0449
20
-39.5235
0
VERTEX
8
CUT
10
-33.0461
20
-39.5271
0
VERTEX
8
CUT
10
-33.0465
20
-39.5281
0
VERTEX
8
CUT
10
-33.0477
20
-39.5318
0
VERTEX
8
CUT
10
-33.0480
20
-39.5328
0
VERTEX
8
CUT
10
-33.1206
20
-39.7513
0
VERTEX
8
CUT
10
-33.1209
20
-39.7522
0
VERTEX
8
CUT
10
-33.1209
20
-39.7523
0
VERTEX
8
CUT
10
-33.1209
20
-39.7523
0
VERTEX
8
CUT
10
-33.1213
20
-39.7533
0
VERTEX
8
CUT
10
-33.1213
20
-39.7534
0
VERTEX
8
CUT
10
-33.1216
20
-39.7543
0
VERTEX
8
CUT
10
-33.1216
20
-39.7544
0
VERTEX
8
CUT
10
-33.1216
20
-39.7544
0
VERTEX
8
CUT
10
-33.1243
20
-39.7624
0
VERTEX
8
CUT
10
-33.1243
20
-39.7625
0
VERTEX
8
CUT
10
-33.1246
20
-39.7634
0
VERTEX
8
CUT
10
-33.1250
20
-39.7645
0
VERTEX
8
CUT
10
-33.1250
20
-39.7645
0
VERTEX
8
CUT
10
-33.1251
20
-39.7646
0
VERTEX
8
CUT
10
-33.1253
20
-39.7654
0
VERTEX
8
CUT
10
-33.1254
20
-39.7656
0
VERTEX
8
CUT
10
-33.1254
20
-39.7656
0
VERTEX
8
CUT
10
-33.1949
20
-39.9737
0
VERTEX
8
CUT
10
-33.1950
20
-39.9740
0
VERTEX
8
CUT
10
-33.1963
20
-39.9779
0
VERTEX
8
CUT
10
-33.1964
20
-39.9782
0
VERTEX
8
CUT
10
-33.1980
20
-39.9831
0
VERTEX
8
CUT
10
-33.1981
20
-39.9834
0
VERTEX
8
CUT
10
-33.1994
20
-39.9873
0
VERTEX
8
CUT
10
-33.1996
20
-39.9876
0
VERTEX
8
CUT
10
-33.2118
20
-40.0239
0
VERTEX
8
CUT
10
-33.2120
20
-40.0243
0
VERTEX
8
CUT
10
-33.2133
20
-40.0281
0
VERTEX
8
CUT
10
-33.2134
20
-40.0285
0
VERTEX
8
CUT
10
-33.2150
20
-40.0334
0
VERTEX
8
CUT
10
-33.2152
20
-40.0337
0
VERTEX
8
CUT
10
-33.2165
20
-40.0375
0
VERTEX
8
CUT
10
-33.2166
20
-40.0379
0
VERTEX
8
CUT
10
-33.2842
20
-40.2354
0
VERTEX
8
CUT
10
-33.2843
20
-40.2357
0
VERTEX
8
CUT
10
-33.2851
20
-40.2382
0
VERTEX
8
CUT
10
-33.2852
20
-40.2384
0
VERTEX
8
CUT
10
-33.2863
20
-40.2416
0
VERTEX
8
CUT
10
-33.2864
20
-40.2419
0
VERTEX
8
CUT
10
-33.2873
20
-40.2444
0
VERTEX
8
CUT
10
-33.2873
20
-40.2446
0
VERTEX
8
CUT
10
-33.2955
20
-40.2684
0
VERTEX
8
CUT
10
-33.2956
20
-40.2687
0
VERTEX
8
CUT
10
-33.2965
20
-40.2712
0
VERTEX
8
CUT
10
-33.2966
20
-40.2714
0
VERTEX
8
CUT
10
-33.2977
20
-40.2746
0
VERTEX
8
CUT
10
-33.2978
20
-40.2749
0
VERTEX
8
CUT
10
-33.2986
20
-40.2773
0
VERTEX
8
CUT
10
-33.2987
20
-40.2776
0
VERTEX
8
CUT
10
-33.3731
20
-40.4915
0
VERTEX
8
CUT
10
-33.3731
20
-40.4916
0
VERTEX
8
CUT
10
-33.3735
20
-40.4928
0
VERTEX
8
CUT
10
-33.3736
20
-40.4930
0
VERTEX
8
CUT
10
-33.3741
20
-40.4945
0
VERTEX
8
CUT
10
-33.3741
20
-40.4946
0
VERTEX
8
CUT
10
-33.3746
20
-40.4958
0
VERTEX
8
CUT
10
-33.3746
20
-40.4959
0
VERTEX
8
CUT
10
-33.3786
20
-40.5073
0
VERTEX
8
CUT
10
-33.3786
20
-40.5074
0
VERTEX
8
CUT
10
-33.3790
20
-40.5086
0
VERTEX
8
CUT
10
-33.3791
20
-40.5088
0
VERTEX
8
CUT
10
-33.3796
20
-40.5102
0
VERTEX
8
CUT
10
-33.3797
20
-40.5104
0
VERTEX
8
CUT
10
-33.3801
20
-40.5116
0
VERTEX
8
CUT
10
-33.4605
20
-40.7412
0
VERTEX
8
CUT
10
-33.4605
20
-40.7413
0
VERTEX
8
CUT
10
-33.4606
20
-40.7414
0
VERTEX
8
CUT
10
-33.4606
20
-40.7415
0
VERTEX
8
CUT
10
-33.4606
20
-40.7416
0
VERTEX
8
CUT
10
-33.4607
20
-40.7417
0
VERTEX
8
CUT
10
-33.4607
20
-40.7418
0
VERTEX
8
CUT
10
-33.4607
20
-40.7418
0
VERTEX
8
CUT
10
-33.5417
20
-40.9731
0
VERTEX
8
CUT
10
-33.5418
20
-40.9736
0
VERTEX
8
CUT
10
-33.5424
20
-40.9754
0
VERTEX
8
CUT
10
-33.5426
20
-40.9759
0
VERTEX
8
CUT
10
-33.5432
20
-40.9776
0
VERTEX
8
CUT
10
-33.5434
20
-40.9781
0
VERTEX
8
CUT
10
-33.5440
20
-40.9799
0
VERTEX
8
CUT
10
-33.5442
20
-40.9804
0
VERTEX
8
CUT
10
-33.6207
20
-41.2008
0
VERTEX
8
CUT
10
-33.6210
20
-41.2018
0
VERTEX
8
CUT
10
-33.6222
20
-41.2052
0
VERTEX
8
CUT
10
-33.6225
20
-41.2061
0
VERTEX
8
CUT
10
-33.6237
20
-41.2095
0
VERTEX
8
CUT
10
-33.6240
20
-41.2105
0
VERTEX
8
CUT
10
-33.6252
20
-41.2138
0
VERTEX
8
CUT
10
-33.6255
20
-41.2148
0
VERTEX
8
CUT
10
-33.6973
20
-41.4250
0
VERTEX
8
CUT
10
-33.6977
20
-41.4264
0
VERTEX
8
CUT
10
-33.6994
20
-41.4314
0
VERTEX
8
CUT
10
-33.6999
20
-41.4328
0
VERTEX
8
CUT
10
-33.7016
20
-41.4378
0
VERTEX
8
CUT
10
-33.7020
20
-41.4392
0
VERTEX
8
CUT
10
-33.7037
20
-41.4441
0
VERTEX
8
CUT
10
-33.7042
20
-41.4455
0
VERTEX
8
CUT
10
-33.7710
20
-41.6462
0
VERTEX
8
CUT
10
-33.7716
20
-41.6481
0
VERTEX
8
CUT
10
-33.7738
20
-41.6546
0
VERTEX
8
CUT
10
-33.7744
20
-41.6564
0
VERTEX
8
CUT
10
-33.7765
20
-41.6629
0
VERTEX
8
CUT
10
-33.7771
20
-41.6648
0
VERTEX
8
CUT
10
-33.7792
20
-41.6713
0
VERTEX
8
CUT
10
-33.7798
20
-41.6732
0
VERTEX
8
CUT
10
-33.8417
20
-41.8651
0
VERTEX
8
CUT
10
-33.8424
20
-41.8673
0
VERTEX
8
CUT
10
-33.8449
20
-41.8753
0
VERTEX
8
CUT
10
-33.8457
20
-41.8776
0
VERTEX
8
CUT
10
-33.8482
20
-41.8856
0
VERTEX
8
CUT
10
-33.8489
20
-41.8879
0
VERTEX
8
CUT
10
-33.8514
20
-41.8959
0
VERTEX
8
CUT
10
-33.8521
20
-41.8982
0
VERTEX
8
CUT
10
-33.9089
20
-42.0821
0
VERTEX
8
CUT
10
-33.9098
20
-42.0848
0
VERTEX
8
CUT
10
-33.9127
20
-42.0942
0
VERTEX
8
CUT
10
-33.9135
20
-42.0969
0
VERTEX
8
CUT
10
-33.9163
20
-42.1064
0
VERTEX
8
CUT
10
-33.9171
20
-42.1091
0
VERTEX
8
CUT
10
-33.9199
20
-42.1185
0
VERTEX
8
CUT
10
-33.9207
20
-42.1212
0
VERTEX
8
CUT
10
-33.9726
20
-42.2980
0
VERTEX
8
CUT
10
-33.9735
20
-42.3011
0
VERTEX
8
CUT
10
-33.9767
20
-42.3119
0
VERTEX
8
CUT
10
-33.9776
20
-42.3150
0
VERTEX
8
CUT
10
-33.9807
20
-42.3258
0
VERTEX
8
CUT
10
-33.9815
20
-42.3289
0
VERTEX
8
CUT
10
-33.9846
20
-42.3398
0
VERTEX
8
CUT
10
-33.9854
20
-42.3429
0
VERTEX
8
CUT
10
-34.0325
20
-42.5134
0
VERTEX
8
CUT
10
-34.0335
20
-42.5169
0
VERTEX
8
CUT
10
-34.0368
20
-42.5290
0
VERTEX
8
CUT
10
-34.0377
20
-42.5325
0
VERTEX
8
CUT
10
-34.0410
20
-42.5446
0
VERTEX
8
CUT
10
-34.0419
20
-42.5481
0
VERTEX
8
CUT
10
-34.0451
20
-42.5603
0
VERTEX
8
CUT
10
-34.0460
20
-42.5638
0
VERTEX
8
CUT
10
-34.0884
20
-42.7291
0
VERTEX
8
CUT
10
-34.0894
20
-42.7329
0
VERTEX
8
CUT
10
-34.0928
20
-42.7463
0
VERTEX
8
CUT
10
-34.0937
20
-42.7501
0
VERTEX
8
CUT
10
-34.0970
20
-42.7635
0
VERTEX
8
CUT
10
-34.0980
20
-42.7674
0
VERTEX
8
CUT
10
-34.1012
20
-42.7808
0
VERTEX
8
CUT
10
-34.1021
20
-42.7846
0
VERTEX
8
CUT
10
-34.1402
20
-42.9458
0
VERTEX
8
CUT
10
-34.1411
20
-42.9499
0
VERTEX
8
CUT
10
-34.1445
20
-42.9644
0
VERTEX
8
CUT
10
-34.1454
20
-42.9686
0
VERTEX
8
CUT
10
-34.1487
20
-42.9832
0
VERTEX
8
CUT
10
-34.1496
20
-42.9873
0
VERTEX
8
CUT
10
-34.1528
20
-43.0019
0
VERTEX
8
CUT
10
-34.1537
20
-43.0061
0
VERTEX
8
CUT
10
-34.1875
20
-43.1642
0
VERTEX
8
CUT
10
-34.1885
20
-43.1687
0
VERTEX
8
CUT
10
-34.1917
20
-43.1843
0
VERTEX
8
CUT
10
-34.1926
20
-43.1887
0
VERTEX
8
CUT
10
-34.1958
20
-43.2044
0
VERTEX
8
CUT
10
-34.1966
20
-43.2088
0
VERTEX
8
CUT
10
-34.1997
20
-43.2244
0
VERTEX
8
CUT
10
-34.2006
20
-43.2289
0
VERTEX
8
CUT
10
-34.2329
20
-43.3992
0
VERTEX
8
CUT
10
-34.2336
20
-43.4029
0
VERTEX
8
CUT
10
-34.2360
20
-43.4158
0
VERTEX
8
CUT
10
-34.2367
20
-43.4194
0
VERTEX
8
CUT
10
-34.2390
20
-43.4323
0
VERTEX
8
CUT
10
-34.2396
20
-43.4360
0
VERTEX
8
CUT
10
-34.2419
20
-43.4489
0
VERTEX
8
CUT
10
-34.2425
20
-43.4526
0
VERTEX
8
CUT
10
-34.2757
20
-43.6468
0
VERTEX
8
CUT
10
-34.2761
20
-43.6495
0
VERTEX
8
CUT
10
-34.2778
20
-43.6592
0
VERTEX
8
CUT
10
-34.2782
20
-43.6619
0
VERTEX
8
CUT
10
-34.2798
20
-43.6716
0
VERTEX
8
CUT
10
-34.2802
20
-43.6743
0
VERTEX
8
CUT
10
-34.2818
20
-43.6840
0
VERTEX
8
CUT
10
-34.2822
20
-43.6868
0
VERTEX
8
CUT
10
-34.3141
20
-43.8906
0
VERTEX
8
CUT
10
-34.3145
20
-43.8934
0
VERTEX
8
CUT
10
-34.3160
20
-43.9031
0
VERTEX
8
CUT
10
-34.3164
20
-43.9058
0
VERTEX
8
CUT
10
-34.3178
20
-43.9155
0
VERTEX
8
CUT
10
-34.3183
20
-43.9183
0
VERTEX
8
CUT
10
-34.3197
20
-43.9280
0
VERTEX
8
CUT
10
-34.3201
20
-43.9308
0
VERTEX
8
CUT
10
-34.3489
20
-44.1340
0
VERTEX
8
CUT
10
-34.3493
20
-44.1368
0
VERTEX
8
CUT
10
-34.3506
20
-44.1463
0
VERTEX
8
CUT
10
-34.3510
20
-44.1491
0
VERTEX
8
CUT
10
-34.3523
20
-44.1586
0
VERTEX
8
CUT
10
-34.3527
20
-44.1613
0
VERTEX
8
CUT
10
-34.3539
20
-44.1709
0
VERTEX
8
CUT
10
-34.3543
20
-44.1736
0
VERTEX
8
CUT
10
-34.3806
20
-44.3790
0
VERTEX
8
CUT
10
-34.3809
20
-44.3817
0
VERTEX
8
CUT
10
-34.3820
20
-44.3909
0
VERTEX
8
CUT
10
-34.3824
20
-44.3936
0
VERTEX
8
CUT
10
-34.3835
20
-44.4028
0
VERTEX
8
CUT
10
-34.3838
20
-44.4055
0
VERTEX
8
CUT
10
-34.3849
20
-44.4147
0
VERTEX
8
CUT
10
-34.3852
20
-44.4174
0
VERTEX
8
CUT
10
-34.4093
20
-44.6275
0
VERTEX
8
CUT
10
-34.4095
20
-44.6300
0
VERTEX
8
CUT
10
-34.4105
20
-44.6388
0
VERTEX
8
CUT
10
-34.4108
20
-44.6414
0
VERTEX
8
CUT
10
-34.4118
20
-44.6502
0
VERTEX
8
CUT
10
-34.4120
20
-44.6527
0
VERTEX
8
CUT
10
-34.4129
20
-44.6615
0
VERTEX
8
CUT
10
-34.4132
20
-44.6640
0
VERTEX
8
CUT
10
-34.4353
20
-44.8814
0
VERTEX
8
CUT
10
-34.4355
20
-44.8838
0
VERTEX
8
CUT
10
-34.4364
20
-44.8920
0
VERTEX
8
CUT
10
-34.4366
20
-44.8944
0
VERTEX
8
CUT
10
-34.4374
20
-44.9026
0
VERTEX
8
CUT
10
-34.4376
20
-44.9050
0
VERTEX
8
CUT
10
-34.4384
20
-44.9132
0
VERTEX
8
CUT
10
-34.4386
20
-44.9156
0
VERTEX
8
CUT
10
-34.4589
20
-45.1426
0
VERTEX
8
CUT
10
-34.4591
20
-45.1447
0
VERTEX
8
CUT
10
-34.4598
20
-45.1523
0
VERTEX
8
CUT
10
-34.4600
20
-45.1545
0
VERTEX
8
CUT
10
-34.4606
20
-45.1620
0
VERTEX
8
CUT
10
-34.4608
20
-45.1642
0
VERTEX
8
CUT
10
-34.4614
20
-45.1718
0
VERTEX
8
CUT
10
-34.4616
20
-45.1739
0
VERTEX
8
CUT
10
-34.4804
20
-45.4126
0
VERTEX
8
CUT
10
-34.4805
20
-45.4146
0
VERTEX
8
CUT
10
-34.4810
20
-45.4214
0
VERTEX
8
CUT
10
-34.4812
20
-45.4234
0
VERTEX
8
CUT
10
-34.4817
20
-45.4302
0
VERTEX
8
CUT
10
-34.4818
20
-45.4321
0
VERTEX
8
CUT
10
-34.4823
20
-45.4390
0
VERTEX
8
CUT
10
-34.4825
20
-45.4409
0
VERTEX
8
CUT
10
-34.4999
20
-45.6933
0
VERTEX
8
CUT
10
-34.5000
20
-45.6950
0
VERTEX
8
CUT
10
-34.5004
20
-45.7010
0
VERTEX
8
CUT
10
-34.5005
20
-45.7027
0
VERTEX
8
CUT
10
-34.5009
20
-45.7088
0
VERTEX
8
CUT
10
-34.5010
20
-45.7105
0
VERTEX
8
CUT
10
-34.5014
20
-45.7165
0
VERTEX
8
CUT
10
-34.5015
20
-45.7182
0
VERTEX
8
CUT
10
-34.5176
20
-45.9860
0
VERTEX
8
CUT
10
-34.5177
20
-45.9874
0
VERTEX
8
CUT
10
-34.5180
20
-45.9927
0
VERTEX
8
CUT
10
-34.5181
20
-45.9942
0
VERTEX
8
CUT
10
-34.5184
20
-45.9994
0
VERTEX
8
CUT
10
-34.5185
20
-46.0009
0
VERTEX
8
CUT
10
-34.5188
20
-46.0061
0
VERTEX
8
CUT
10
-34.5188
20
-46.0076
0
VERTEX
8
CUT
10
-34.5339
20
-46.2921
0
VERTEX
8
CUT
10
-34.5339
20
-46.2934
0
VERTEX
8
CUT
10
-34.5341
20
-46.2978
0
VERTEX
8
CUT
10
-34.5342
20
-46.2991
0
VERTEX
8
CUT
10
-34.5344
20
-46.3035
0
VERTEX
8
CUT
10
-34.5345
20
-46.3048
0
VERTEX
8
CUT
10
-34.5347
20
-46.3092
0
VERTEX
8
CUT
10
-34.5348
20
-46.3104
0
VERTEX
8
CUT
10
-34.5488
20
-46.6132
0
VERTEX
8
CUT
10
-34.5489
20
-46.6142
0
VERTEX
8
CUT
10
-34.5490
20
-46.6179
0
VERTEX
8
CUT
10
-34.5491
20
-46.6189
0
VERTEX
8
CUT
10
-34.5492
20
-46.6226
0
VERTEX
8
CUT
10
-34.5493
20
-46.6236
0
VERTEX
8
CUT
10
-34.5494
20
-46.6272
0
VERTEX
8
CUT
10
-34.5495
20
-46.6283
0
VERTEX
8
CUT
10
-34.5628
20
-46.9505
0
VERTEX
8
CUT
10
-34.5628
20
-46.9513
0
VERTEX
8
CUT
10
-34.5629
20
-46.9542
0
VERTEX
8
CUT
10
-34.5630
20
-46.9550
0
VERTEX
8
CUT
10
-34.5631
20
-46.9579
0
VERTEX
8
CUT
10
-34.5631
20
-46.9588
0
VERTEX
8
CUT
10
-34.5632
20
-46.9616
0
VERTEX
8
CUT
10
-34.5632
20
-46.9625
0
VERTEX
8
CUT
10
-34.5759
20
-47.3052
0
VERTEX
8
CUT
10
-34.5760
20
-47.3058
0
VERTEX
8
CUT
10
-34.5761
20
-47.3080
0
VERTEX
8
CUT
10
-34.5761
20
-47.3087
0
VERTEX
8
CUT
10
-34.5762
20
-47.3109
0
VERTEX
8
CUT
10
-34.5762
20
-47.3115
0
VERTEX
8
CUT
10
-34.5763
20
-47.3137
0
VERTEX
8
CUT
10
-34.5763
20
-47.3144
0
VERTEX
8
CUT
10
-34.5886
20
-47.6786
0
VERTEX
8
CUT
10
-34.5886
20
-47.6790
0
VERTEX
8
CUT
10
-34.5887
20
-47.6806
0
VERTEX
8
CUT
10
-34.5887
20
-47.6811
0
VERTEX
8
CUT
10
-34.5888
20
-47.6827
0
VERTEX
8
CUT
10
-34.5888
20
-47.6831
0
VERTEX
8
CUT
10
-34.5888
20
-47.6847
0
VERTEX
8
CUT
10
-34.5888
20
-47.6852
0
VERTEX
8
CUT
10
-34.6009
20
-48.0676
0
VERTEX
8
CUT
10
-34.6010
20
-48.0682
0
VERTEX
8
CUT
10
-34.6010
20
-48.0704
0
VERTEX
8
CUT
10
-34.6010
20
-48.0710
0
VERTEX
8
CUT
10
-34.6011
20
-48.0732
0
VERTEX
8
CUT
10
-34.6011
20
-48.0739
0
VERTEX
8
CUT
10
-34.6012
20
-48.0760
0
VERTEX
8
CUT
10
-34.6012
20
-48.0767
0
VERTEX
8
CUT
10
-34.6126
20
-48.4748
0
VERTEX
8
CUT
10
-34.6126
20
-48.4757
0
VERTEX
8
CUT
10
-34.6127
20
-48.4786
0
VERTEX
8
CUT
10
-34.6127
20
-48.4795
0
VERTEX
8
CUT
10
-34.6128
20
-48.4824
0
VERTEX
8
CUT
10
-34.6128
20
-48.4832
0
VERTEX
8
CUT
10
-34.6129
20
-48.4862
0
VERTEX
8
CUT
10
-34.6129
20
-48.4870
0
VERTEX
8
CUT
10
-34.6230
20
-48.9044
0
VERTEX
8
CUT
10
-34.6230
20
-48.9052
0
VERTEX
8
CUT
10
-34.6231
20
-48.9079
0
VERTEX
8
CUT
10
-34.6231
20
-48.9087
0
VERTEX
8
CUT
10
-34.6232
20
-48.9114
0
VERTEX
8
CUT
10
-34.6232
20
-48.9122
0
VERTEX
8
CUT
10
-34.6233
20
-48.9149
0
VERTEX
8
CUT
10
-34.6233
20
-48.9157
0
VERTEX
8
CUT
10
-34.6322
20
-49.3536
0
VERTEX
8
CUT
10
-34.6322
20
-49.3543
0
VERTEX
8
CUT
10
-34.6323
20
-49.3569
0
VERTEX
8
CUT
10
-34.6323
20
-49.3576
0
VERTEX
8
CUT
10
-34.6323
20
-49.3602
0
VERTEX
8
CUT
10
-34.6323
20
-49.3609
0
VERTEX
8
CUT
10
-34.6324
20
-49.3634
0
VERTEX
8
CUT
10
-34.6324
20
-49.3642
0
VERTEX
8
CUT
10
-34.6400
20
-49.8200
0
VERTEX
8
CUT
10
-34.6400
20
-49.8207
0
VERTEX
8
CUT
10
-34.6401
20
-49.8231
0
VERTEX
8
CUT
10
-34.6401
20
-49.8238
0
VERTEX
8
CUT
10
-34.6401
20
-49.8263
0
VERTEX
8
CUT
10
-34.6401
20
-49.8270
0
VERTEX
8
CUT
10
-34.6402
20
-49.8294
0
VERTEX
8
CUT
10
-34.6402
20
-49.8301
0
VERTEX
8
CUT
10
-34.6464
20
-50.3013
0
VERTEX
8
CUT
10
-34.6464
20
-50.3019
0
VERTEX
8
CUT
10
-34.6465
20
-50.3043
0
VERTEX
8
CUT
10
-34.6465
20
-50.3050
0
VERTEX
8
CUT
10
-34.6465
20
-50.3073
0
VERTEX
8
CUT
10
-34.6465
20
-50.3080
0
VERTEX
8
CUT
10
-34.6465
20
-50.3104
0
VERTEX
8
CUT
10
-34.6465
20
-50.3111
0
VERTEX
8
CUT
10
-34.6513
20
-50.7950
0
VERTEX
8
CUT
10
-34.6513
20
-50.7957
0
VERTEX
8
CUT
10
-34.6513
20
-50.7981
0
VERTEX
8
CUT
10
-34.6513
20
-50.7987
0
VERTEX
8
CUT
10
-34.6514
20
-50.8011
0
VERTEX
8
CUT
10
-34.6514
20
-50.8017
0
VERTEX
8
CUT
10
-34.6514
20
-50.8041
0
VERTEX
8
CUT
10
-34.6514
20
-50.8048
0
VERTEX
8
CUT
10
-34.6546
20
-51.2991
0
VERTEX
8
CUT
10
-34.6546
20
-51.2998
0
VERTEX
8
CUT
10
-34.6546
20
-51.3021
0
VERTEX
8
CUT
10
-34.6546
20
-51.3028
0
VERTEX
8
CUT
10
-34.6546
20
-51.3051
0
VERTEX
8
CUT
10
-34.6546
20
-51.3058
0
VERTEX
8
CUT
10
-34.6546
20
-51.3082
0
VERTEX
8
CUT
10
-34.6546
20
-51.3088
0
VERTEX
8
CUT
10
-34.6562
20
-51.8111
0
VERTEX
8
CUT
10
-34.6562
20
-51.8118
0
VERTEX
8
CUT
10
-34.6562
20
-51.8142
0
VERTEX
8
CUT
10
-34.6562
20
-51.8149
0
VERTEX
8
CUT
10
-34.6562
20
-51.8172
0
VERTEX
8
CUT
10
-34.6562
20
-51.8179
0
VERTEX
8
CUT
10
-34.6562
20
-51.8203
0
VERTEX
8
CUT
10
-34.6562
20
-51.8210
0
VERTEX
8
CUT
10
-34.6561
20
-52.3288
0
VERTEX
8
CUT
10
-34.6561
20
-52.3295
0
VERTEX
8
CUT
10
-34.6561
20
-52.3320
0
VERTEX
8
CUT
10
-34.6561
20
-52.3327
0
VERTEX
8
CUT
10
-34.6561
20
-52.3350
0
VERTEX
8
CUT
10
-34.6561
20
-52.3357
0
VERTEX
8
CUT
10
-34.6561
20
-52.3382
0
VERTEX
8
CUT
10
-34.6561
20
-52.3389
0
VERTEX
8
CUT
10
-34.6542
20
-52.8499
0
VERTEX
8
CUT
10
-34.6542
20
-52.8506
0
VERTEX
8
CUT
10
-34.6542
20
-52.8531
0
VERTEX
8
CUT
10
-34.6542
20
-52.8538
0
VERTEX
8
CUT
10
-34.6542
20
-52.8563
0
VERTEX
8
CUT
10
-34.6542
20
-52.8570
0
VERTEX
8
CUT
10
-34.6542
20
-52.8595
0
VERTEX
8
CUT
10
-34.6542
20
-52.8603
0
VERTEX
8
CUT
10
-34.6505
20
-53.3720
0
VERTEX
8
CUT
10
-34.6505
20
-53.3728
0
VERTEX
8
CUT
10
-34.6505
20
-53.3754
0
VERTEX
8
CUT
10
-34.6505
20
-53.3761
0
VERTEX
8
CUT
10
-34.6504
20
-53.3787
0
VERTEX
8
CUT
10
-34.6504
20
-53.3795
0
VERTEX
8
CUT
10
-34.6504
20
-53.3821
0
VERTEX
8
CUT
10
-34.6504
20
-53.3828
0
VERTEX
8
CUT
10
-34.6448
20
-53.8929
0
VERTEX
8
CUT
10
-34.6448
20
-53.8937
0
VERTEX
8
CUT
10
-34.6447
20
-53.8964
0
VERTEX
8
CUT
10
-34.6447
20
-53.8972
0
VERTEX
8
CUT
10
-34.6447
20
-53.9000
0
VERTEX
8
CUT
10
-34.6447
20
-53.9008
0
VERTEX
8
CUT
10
-34.6447
20
-53.9035
0
VERTEX
8
CUT
10
-34.6446
20
-53.9043
0
VERTEX
8
CUT
10
-34.6371
20
-54.4102
0
VERTEX
8
CUT
10
-34.6371
20
-54.4110
0
VERTEX
8
CUT
10
-34.6370
20
-54.4140
0
VERTEX
8
CUT
10
-34.6370
20
-54.4148
0
VERTEX
8
CUT
10
-34.6370
20
-54.4178
0
VERTEX
8
CUT
10
-34.6370
20
-54.4186
0
VERTEX
8
CUT
10
-34.6369
20
-54.4215
0
VERTEX
8
CUT
10
-34.6369
20
-54.4224
0
VERTEX
8
CUT
10
-34.6273
20
-54.9215
0
VERTEX
8
CUT
10
-34.6273
20
-54.9224
0
VERTEX
8
CUT
10
-34.6272
20
-54.9256
0
VERTEX
8
CUT
10
-34.6272
20
-54.9265
0
VERTEX
8
CUT
10
-34.6272
20
-54.9297
0
VERTEX
8
CUT
10
-34.6271
20
-54.9306
0
VERTEX
8
CUT
10
-34.6271
20
-54.9338
0
VERTEX
8
CUT
10
-34.6270
20
-54.9347
0
VERTEX
8
CUT
10
-34.6154
20
-55.4246
0
VERTEX
8
CUT
10
-34.6154
20
-55.4256
0
VERTEX
8
CUT
10
-34.6153
20
-55.4291
0
VERTEX
8
CUT
10
-34.6153
20
-55.4301
0
VERTEX
8
CUT
10
-34.6152
20
-55.4335
0
VERTEX
8
CUT
10
-34.6152
20
-55.4345
0
VERTEX
8
CUT
10
-34.6151
20
-55.4379
0
VERTEX
8
CUT
10
-34.6151
20
-55.4389
0
VERTEX
8
CUT
10
-34.6011
20
-55.9270
0
VERTEX
8
CUT
10
-34.6011
20
-55.9274
0
VERTEX
8
CUT
10
-34.6011
20
-55.9285
0
VERTEX
8
CUT
10
-34.6011
20
-55.9288
0
VERTEX
8
CUT
10
-34.6010
20
-55.9300
0
VERTEX
8
CUT
10
-34.6010
20
-55.9303
0
VERTEX
8
CUT
10
-34.6010
20
-55.9314
0
VERTEX
8
CUT
10
-34.6010
20
-55.9317
0
VERTEX
8
CUT
10
-34.5859
20
-56.4301
0
VERTEX
8
CUT
10
-34.5859
20
-56.4307
0
VERTEX
8
CUT
10
-34.5859
20
-56.4308
0
VERTEX
8
CUT
10
-34.5859
20
-56.4308
0
VERTEX
8
CUT
10
-34.5859
20
-56.4316
0
VERTEX
8
CUT
10
-34.5858
20
-56.4317
0
VERTEX
8
CUT
10
-34.5858
20
-56.4323
0
VERTEX
8
CUT
10
-34.5858
20
-56.4324
0
VERTEX
8
CUT
10
-34.5856
20
-56.4386
0
VERTEX
8
CUT
10
-34.5856
20
-56.4386
0
VERTEX
8
CUT
10
-34.5856
20
-56.4386
0
VERTEX
8
CUT
10
-34.5856
20
-56.4393
0
VERTEX
8
CUT
10
-34.5856
20
-56.4393
0
VERTEX
8
CUT
10
-34.5856
20
-56.4402
0
VERTEX
8
CUT
10
-34.5856
20
-56.4402
0
VERTEX
8
CUT
10
-34.5856
20
-56.4409
0
VERTEX
8
CUT
10
-34.5856
20
-56.4409
0
VERTEX
8
CUT
10
-34.5706
20
-56.9548
0
VERTEX
8
CUT
10
-34.5706
20
-56.9549
0
VERTEX
8
CUT
10
-34.5706
20
-56.9549
0
VERTEX
8
CUT
10
-34.5706
20
-56.9551
0
VERTEX
8
CUT
10
-34.5696
20
-56.9550
0
VERTEX
8
CUT
10
-34.5696
20
-56.9551
0
VERTEX
8
CUT
10
-34.5706
20
-56.9551
0
VERTEX
8
CUT
10
-34.5554
20
-57.4789
0
VERTEX
8
CUT
10
-34.5554
20
-57.4791
0
VERTEX
8
CUT
10
-34.5554
20
-57.4799
0
VERTEX
8
CUT
10
-34.5554
20
-57.4801
0
VERTEX
8
CUT
10
-34.5554
20
-57.4808
0
VERTEX
8
CUT
10
-34.5554
20
-57.4810
0
VERTEX
8
CUT
10
-34.5553
20
-57.4818
0
VERTEX
8
CUT
10
-34.5553
20
-57.4820
0
VERTEX
8
CUT
10
-34.5395
20
-58.0064
0
VERTEX
8
CUT
10
-34.5395
20
-58.0068
0
VERTEX
8
CUT
10
-34.5395
20
-58.0083
0
VERTEX
8
CUT
10
-34.5395
20
-58.0088
0
VERTEX
8
CUT
10
-34.5394
20
-58.0103
0
VERTEX
8
CUT
10
-34.5394
20
-58.0107
0
VERTEX
8
CUT
10
-34.5394
20
-58.0122
0
VERTEX
8
CUT
10
-34.5393
20
-58.0126
0
VERTEX
8
CUT
10
-34.5225
20
-58.5348
0
VERTEX
8
CUT
10
-34.5225
20
-58.5354
0
VERTEX
8
CUT
10
-34.5224
20
-58.5377
0
VERTEX
8
CUT
10
-34.5224
20
-58.5383
0
VERTEX
8
CUT
10
-34.5223
20
-58.5406
0
VERTEX
8
CUT
10
-34.5223
20
-58.5413
0
VERTEX
8
CUT
10
-34.5222
20
-58.5436
0
VERTEX
8
CUT
10
-34.5222
20
-58.5442
0
VERTEX
8
CUT
10
-34.5038
20
-59.0613
0
VERTEX
8
CUT
10
-34.5038
20
-59.0622
0
VERTEX
8
CUT
10
-34.5036
20
-59.0652
0
VERTEX
8
CUT
10
-34.5036
20
-59.0661
0
VERTEX
8
CUT
10
-34.5035
20
-59.0692
0
VERTEX
8
CUT
10
-34.5035
20
-59.0701
0
VERTEX
8
CUT
10
-34.5033
20
-59.0732
0
VERTEX
8
CUT
10
-34.5033
20
-59.0740
0
VERTEX
8
CUT
10
-34.4830
20
-59.5831
0
VERTEX
8
CUT
10
-34.4829
20
-59.5843
0
VERTEX
8
CUT
10
-34.4828
20
-59.5882
0
VERTEX
8
CUT
10
-34.4827
20
-59.5893
0
VERTEX
8
CUT
10
-34.4825
20
-59.5932
0
VERTEX
8
CUT
10
-34.4825
20
-59.5943
0
VERTEX
8
CUT
10
-34.4823
20
-59.5983
0
VERTEX
8
CUT
10
-34.4823
20
-59.5994
0
VERTEX
8
CUT
10
-34.4596
20
-60.0974
0
VERTEX
8
CUT
10
-34.4595
20
-60.0988
0
VERTEX
8
CUT
10
-34.4593
20
-60.1036
0
VERTEX
8
CUT
10
-34.4592
20
-60.1050
0
VERTEX
8
CUT
10
-34.4590
20
-60.1099
0
VERTEX
8
CUT
10
-34.4589
20
-60.1113
0
VERTEX
8
CUT
10
-34.4587
20
-60.1161
0
VERTEX
8
CUT
10
-34.4586
20
-60.1175
0
VERTEX
8
CUT
10
-34.4332
20
-60.6011
0
VERTEX
8
CUT
10
-34.4331
20
-60.6027
0
VERTEX
8
CUT
10
-34.4328
20
-60.6086
0
VERTEX
8
CUT
10
-34.4327
20
-60.6103
0
VERTEX
8
CUT
10
-34.4324
20
-60.6162
0
VERTEX
8
CUT
10
-34.4323
20
-60.6178
0
VERTEX
8
CUT
10
-34.4319
20
-60.6237
0
VERTEX
8
CUT
10
-34.4318
20
-60.6254
0
VERTEX
8
CUT
10
-34.4034
20
-61.0909
0
VERTEX
8
CUT
10
-34.4033
20
-61.0930
0
VERTEX
8
CUT
10
-34.4029
20
-61.1000
0
VERTEX
8
CUT
10
-34.4027
20
-61.1020
0
VERTEX
8
CUT
10
-34.4023
20
-61.1091
0
VERTEX
8
CUT
10
-34.4021
20
-61.1111
0
VERTEX
8
CUT
10
-34.4016
20
-61.1182
0
VERTEX
8
CUT
10
-34.4015
20
-61.1202
0
VERTEX
8
CUT
10
-34.3700
20
-61.5637
0
VERTEX
8
CUT
10
-34.3698
20
-61.5661
0
VERTEX
8
CUT
10
-34.3692
20
-61.5746
0
VERTEX
8
CUT
10
-34.3690
20
-61.5770
0
VERTEX
8
CUT
10
-34.3683
20
-61.5854
0
VERTEX
8
CUT
10
-34.3681
20
-61.5878
0
VERTEX
8
CUT
10
-34.3675
20
-61.5962
0
VERTEX
8
CUT
10
-34.3673
20
-61.5987
0
VERTEX
8
CUT
10
-34.3325
20
-62.0159
0
VERTEX
8
CUT
10
-34.3323
20
-62.0188
0
VERTEX
8
CUT
10
-34.3314
20
-62.0288
0
VERTEX
8
CUT
10
-34.3312
20
-62.0317
0
VERTEX
8
CUT
10
-34.3303
20
-62.0418
0
VERTEX
8
CUT
10
-34.3300
20
-62.0446
0
VERTEX
8
CUT
10
-34.3290
20
-62.0547
0
VERTEX
8
CUT
10
-34.3288
20
-62.0576
0
VERTEX
8
CUT
10
-34.2910
20
-62.4436
0
VERTEX
8
CUT
10
-34.2907
20
-62.4470
0
VERTEX
8
CUT
10
-34.2894
20
-62.4591
0
VERTEX
8
CUT
10
-34.2891
20
-62.4625
0
VERTEX
8
CUT
10
-34.2878
20
-62.4745
0
VERTEX
8
CUT
10
-34.2874
20
-62.4780
0
VERTEX
8
CUT
10
-34.2861
20
-62.4900
0
VERTEX
8
CUT
10
-34.2857
20
-62.4934
0
VERTEX
8
CUT
10
-34.2455
20
-62.8425
0
VERTEX
8
CUT
10
-34.2450
20
-62.8467
0
VERTEX
8
CUT
10
-34.2432
20
-62.8612
0
VERTEX
8
CUT
10
-34.2427
20
-62.8653
0
VERTEX
8
CUT
10
-34.2409
20
-62.8798
0
VERTEX
8
CUT
10
-34.2404
20
-62.8839
0
VERTEX
8
CUT
10
-34.2385
20
-62.8984
0
VERTEX
8
CUT
10
-34.2379
20
-62.9025
0
VERTEX
8
CUT
10
-34.1962
20
-63.2079
0
VERTEX
8
CUT
10
-34.1955
20
-63.2129
0
VERTEX
8
CUT
10
-34.1930
20
-63.2304
0
VERTEX
8
CUT
10
-34.1923
20
-63.2355
0
VERTEX
8
CUT
10
-34.1897
20
-63.2530
0
VERTEX
8
CUT
10
-34.1889
20
-63.2580
0
VERTEX
8
CUT
10
-34.1862
20
-63.2755
0
VERTEX
8
CUT
10
-34.1854
20
-63.2805
0
VERTEX
8
CUT
10
-34.1366
20
-63.5807
0
VERTEX
8
CUT
10
-34.1362
20
-63.5833
0
VERTEX
8
CUT
10
-34.1347
20
-63.5925
0
VERTEX
8
CUT
10
-34.1343
20
-63.5951
0
VERTEX
8
CUT
10
-34.1327
20
-63.6042
0
VERTEX
8
CUT
10
-34.1323
20
-63.6069
0
VERTEX
8
CUT
10
-34.1307
20
-63.6160
0
VERTEX
8
CUT
10
-34.1302
20
-63.6186
0
VERTEX
8
CUT
10
-34.1073
20
-63.7488
0
VERTEX
8
CUT
10
-34.0944
20
-63.8005
0
VERTEX
8
CUT
10
-34.0847
20
-63.8733
0
VERTEX
8
CUT
10
-34.0796
20
-63.9061
0
VERTEX
8
CUT
10
-34.0696
20
-63.9629
0
VERTEX
8
CUT
10
-34.0097
20
-63.9524
0
VERTEX
8
CUT
10
-34.0097
20
-63.9525
0
VERTEX
8
CUT
10
-34.0696
20
-63.9631
0
VERTEX
8
CUT
10
-34.0080
20
-64.3135
0
VERTEX
8
CUT
10
-34.0078
20
-64.3144
0
VERTEX
8
CUT
10
-34.0072
20
-64.3175
0
VERTEX
8
CUT
10
-34.0071
20
-64.3184
0
VERTEX
8
CUT
10
-34.0065
20
-64.3216
0
VERTEX
8
CUT
10
-34.0063
20
-64.3225
0
VERTEX
8
CUT
10
-34.0058
20
-64.3257
0
VERTEX
8
CUT
10
-34.0056
20
-64.3266
0
VERTEX
8
CUT
10
-33.9498
20
-64.6353
0
VERTEX
8
CUT
10
-33.9495
20
-64.6372
0
VERTEX
8
CUT
10
-33.9482
20
-64.6440
0
VERTEX
8
CUT
10
-33.9479
20
-64.6459
0
VERTEX
8
CUT
10
-33.9466
20
-64.6527
0
VERTEX
8
CUT
10
-33.9463
20
-64.6547
0
VERTEX
8
CUT
10
-33.9450
20
-64.6614
0
VERTEX
8
CUT
10
-33.9446
20
-64.6634
0
VERTEX
8
CUT
10
-33.8942
20
-64.9277
0
VERTEX
8
CUT
10
-33.8936
20
-64.9308
0
VERTEX
8
CUT
10
-33.8914
20
-64.9416
0
VERTEX
8
CUT
10
-33.8908
20
-64.9447
0
VERTEX
8
CUT
10
-33.8887
20
-64.9555
0
VERTEX
8
CUT
10
-33.8881
20
-64.9586
0
VERTEX
8
CUT
10
-33.8859
20
-64.9694
0
VERTEX
8
CUT
10
-33.8852
20
-64.9725
0
VERTEX
8
CUT
10
-33.8402
20
-65.1898
0
VERTEX
8
CUT
10
-33.8393
20
-65.1942
0
VERTEX
8
CUT
10
-33.8360
20
-65.2095
0
VERTEX
8
CUT
10
-33.8351
20
-65.2138
0
VERTEX
8
CUT
10
-33.8317
20
-65.2291
0
VERTEX
8
CUT
10
-33.8308
20
-65.2334
0
VERTEX
8
CUT
10
-33.8273
20
-65.2487
0
VERTEX
8
CUT
10
-33.8263
20
-65.2530
0
VERTEX
8
CUT
10
-33.7876
20
-65.4211
0
VERTEX
8
CUT
10
-33.7862
20
-65.4269
0
VERTEX
8
CUT
10
-33.7814
20
-65.4470
0
VERTEX
8
CUT
10
-33.7800
20
-65.4527
0
VERTEX
8
CUT
10
-33.7751
20
-65.4727
0
VERTEX
8
CUT
10
-33.7737
20
-65.4784
0
VERTEX
8
CUT
10
-33.7686
20
-65.4984
0
VERTEX
8
CUT
10
-33.7671
20
-65.5042
0
VERTEX
8
CUT
10
-33.7364
20
-65.6214
0
VERTEX
8
CUT
10
-33.7345
20
-65.6286
0
VERTEX
8
CUT
10
-33.7277
20
-65.6537
0
VERTEX
8
CUT
10
-33.7257
20
-65.6609
0
VERTEX
8
CUT
10
-33.7186
20
-65.6859
0
VERTEX
8
CUT
10
-33.7166
20
-65.6931
0
VERTEX
8
CUT
10
-33.7093
20
-65.7181
0
VERTEX
8
CUT
10
-33.7072
20
-65.7252
0
VERTEX
8
CUT
10
-33.6872
20
-65.7912
0
VERTEX
8
CUT
10
-33.6845
20
-65.7998
0
VERTEX
8
CUT
10
-33.6750
20
-65.8300
0
VERTEX
8
CUT
10
-33.6723
20
-65.8387
0
VERTEX
8
CUT
10
-33.6625
20
-65.8687
0
VERTEX
8
CUT
10
-33.6596
20
-65.8773
0
VERTEX
8
CUT
10
-33.6494
20
-65.9073
0
VERTEX
8
CUT
10
-33.6465
20
-65.9158
0
VERTEX
8
CUT
10
-33.6407
20
-65.9321
0
VERTEX
8
CUT
10
-33.6371
20
-65.9421
0
VERTEX
8
CUT
10
-33.6243
20
-65.9771
0
VERTEX
8
CUT
10
-33.6205
20
-65.9871
0
VERTEX
8
CUT
10
-33.6072
20
-66.0220
0
VERTEX
8
CUT
10
-33.6033
20
-66.0319
0
VERTEX
8
CUT
10
-33.5958
20
-66.0508
0
VERTEX
8
CUT
10
-33.5871
20
-66.0719
0
VERTEX
8
CUT
10
-33.5760
20
-66.0975
0
VERTEX
8
CUT
10
-33.5711
20
-66.1087
0
VERTEX
8
CUT
10
-33.5699
20
-66.1113
0
VERTEX
8
CUT
10
-33.5590
20
-66.1347
0
VERTEX
8
CUT
10
-33.5298
20
-66.1943
0
VERTEX
8
CUT
10
-33.5045
20
-66.2420
0
VERTEX
8
CUT
10
-33.4842
20
-66.2772
0
VERTEX
8
CUT
10
-33.4534
20
-66.3266
0
VERTEX
8
CUT
10
-33.4375
20
-66.3500
0
VERTEX
8
CUT
10
-33.4015
20
-66.3990
0
VERTEX
8
CUT
10
-33.3862
20
-66.4183
0
VERTEX
8
CUT
10
-33.3460
20
-66.4652
0
VERTEX
8
CUT
10
-33.3121
20
-66.5017
0
VERTEX
8
CUT
10
-33.2725
20
-66.5414
0
VERTEX
8
CUT
10
-33.2224
20
-66.5883
0
VERTEX
8
CUT
10
-33.2037
20
-66.6053
0
VERTEX
8
CUT
10
-33.2015
20
-66.6073
0
VERTEX
8
CUT
10
-33.1940
20
-66.6138
0
VERTEX
8
CUT
10
-33.1677
20
-66.6363
0
VERTEX
8
CUT
10
-33.1601
20
-66.6427
0
VERTEX
8
CUT
10
-33.1065
20
-66.6875
0
VERTEX
8
CUT
10
-33.1018
20
-66.6915
0
VERTEX
8
CUT
10
-33.0850
20
-66.7052
0
VERTEX
8
CUT
10
-33.0802
20
-66.7092
0
VERTEX
8
CUT
10
-33.0634
20
-66.7228
0
VERTEX
8
CUT
10
-33.0585
20
-66.7267
0
VERTEX
8
CUT
10
-33.0416
20
-66.7402
0
VERTEX
8
CUT
10
-33.0367
20
-66.7440
0
VERTEX
8
CUT
10
-32.9671
20
-66.7986
0
VERTEX
8
CUT
10
-32.9609
20
-66.8035
0
VERTEX
8
CUT
10
-32.9389
20
-66.8204
0
VERTEX
8
CUT
10
-32.9326
20
-66.8252
0
VERTEX
8
CUT
10
-32.9104
20
-66.8419
0
VERTEX
8
CUT
10
-32.9041
20
-66.8466
0
VERTEX
8
CUT
10
-32.8817
20
-66.8631
0
VERTEX
8
CUT
10
-32.8753
20
-66.8678
0
VERTEX
8
CUT
10
-32.8426
20
-66.8914
0
VERTEX
8
CUT
10
-32.8349
20
-66.8969
0
VERTEX
8
CUT
10
-32.8078
20
-66.9160
0
VERTEX
8
CUT
10
-32.8000
20
-66.9214
0
VERTEX
8
CUT
10
-32.7727
20
-66.9402
0
VERTEX
8
CUT
10
-32.7649
20
-66.9455
0
VERTEX
8
CUT
10
-32.7373
20
-66.9639
0
VERTEX
8
CUT
10
-32.7294
20
-66.9692
0
VERTEX
8
CUT
10
-32.7275
20
-66.9704
0
VERTEX
8
CUT
10
-32.7185
20
-66.9762
0
VERTEX
8
CUT
10
-32.6868
20
-66.9962
0
VERTEX
8
CUT
10
-32.6778
20
-67.0019
0
VERTEX
8
CUT
10
-32.6459
20
-67.0215
0
VERTEX
8
CUT
10
-32.6367
20
-67.0271
0
VERTEX
8
CUT
10
-32.6145
20
-67.0403
0
VERTEX
8
CUT
10
-32.5952
20
-67.0515
0
VERTEX
8
CUT
10
-32.5695
20
-67.0659
0
VERTEX
8
CUT
10
-32.5594
20
-67.0714
0
VERTEX
8
CUT
10
-32.5241
20
-67.0905
0
VERTEX
8
CUT
10
-32.5139
20
-67.0959
0
VERTEX
8
CUT
10
-32.4921
20
-67.1074
0
VERTEX
8
CUT
10
-32.4712
20
-67.1179
0
VERTEX
8
CUT
10
-32.4477
20
-67.1293
0
VERTEX
8
CUT
10
-32.4371
20
-67.1344
0
VERTEX
8
CUT
10
-32.3997
20
-67.1519
0
VERTEX
8
CUT
10
-32.3889
20
-67.1568
0
VERTEX
8
CUT
10
-32.3615
20
-67.1692
0
VERTEX
8
CUT
10
-32.3399
20
-67.1785
0
VERTEX
8
CUT
10
-32.3128
20
-67.1897
0
VERTEX
8
CUT
10
-32.3020
20
-67.1941
0
VERTEX
8
CUT
10
-32.2641
20
-67.2092
0
VERTEX
8
CUT
10
-32.2533
20
-67.2134
0
VERTEX
8
CUT
10
-32.2152
20
-67.2280
0
VERTEX
8
CUT
10
-32.2043
20
-67.2320
0
VERTEX
8
CUT
10
-32.2031
20
-67.2325
0
VERTEX
8
CUT
10
-32.1926
20
-67.2362
0
VERTEX
8
CUT
10
-32.1560
20
-67.2490
0
VERTEX
8
CUT
10
-32.1455
20
-67.2526
0
VERTEX
8
CUT
10
-32.1087
20
-67.2649
0
VERTEX
8
CUT
10
-32.0981
20
-67.2683
0
VERTEX
8
CUT
10
-32.0611
20
-67.2801
0
VERTEX
8
CUT
10
-32.0506
20
-67.2834
0
VERTEX
8
CUT
10
-32.0138
20
-67.2945
0
VERTEX
8
CUT
10
-32.0040
20
-67.2974
0
VERTEX
8
CUT
10
-31.9695
20
-67.3074
0
VERTEX
8
CUT
10
-31.9596
20
-67.3102
0
VERTEX
8
CUT
10
-31.9251
20
-67.3197
0
VERTEX
8
CUT
10
-31.9152
20
-67.3223
0
VERTEX
8
CUT
10
-31.8805
20
-67.3314
0
VERTEX
8
CUT
10
-31.8706
20
-67.3339
0
VERTEX
8
CUT
10
-31.7874
20
-67.3546
0
VERTEX
8
CUT
10
-31.7784
20
-67.3567
0
VERTEX
8
CUT
10
-31.7469
20
-67.3642
0
VERTEX
8
CUT
10
-31.7379
20
-67.3662
0
VERTEX
8
CUT
10
-31.7064
20
-67.3733
0
VERTEX
8
CUT
10
-31.6974
20
-67.3753
0
VERTEX
8
CUT
10
-31.6658
20
-67.3819
0
VERTEX
8
CUT
10
-31.6567
20
-67.3838
0
VERTEX
8
CUT
10
-31.5193
20
-67.4112
0
VERTEX
8
CUT
10
-31.5113
20
-67.4128
0
VERTEX
8
CUT
10
-31.4832
20
-67.4181
0
VERTEX
8
CUT
10
-31.4752
20
-67.4196
0
VERTEX
8
CUT
10
-31.4470
20
-67.4246
0
VERTEX
8
CUT
10
-31.4390
20
-67.4260
0
VERTEX
8
CUT
10
-31.4108
20
-67.4307
0
VERTEX
8
CUT
10
-31.4027
20
-67.4320
0
VERTEX
8
CUT
10
-31.2060
20
-67.4630
0
VERTEX
8
CUT
10
-31.1990
20
-67.4640
0
VERTEX
8
CUT
10
-31.1743
20
-67.4677
0
VERTEX
8
CUT
10
-31.1673
20
-67.4687
0
VERTEX
8
CUT
10
-31.1427
20
-67.4721
0
VERTEX
8
CUT
10
-31.1356
20
-67.4731
0
VERTEX
8
CUT
10
-31.1109
20
-67.4763
0
VERTEX
8
CUT
10
-31.1039
20
-67.4772
0
VERTEX
8
CUT
10
-30.8447
20
-67.5086
0
VERTEX
8
CUT
10
-30.8386
20
-67.5093
0
VERTEX
8
CUT
10
-30.8173
20
-67.5117
0
VERTEX
8
CUT
10
-30.8112
20
-67.5123
0
VERTEX
8
CUT
10
-30.7899
20
-67.5146
0
VERTEX
8
CUT
10
-30.7838
20
-67.5152
0
VERTEX
8
CUT
10
-30.7625
20
-67.5173
0
VERTEX
8
CUT
10
-30.7564
20
-67.5179
0
VERTEX
8
CUT
10
-30.4330
20
-67.5470
0
VERTEX
8
CUT
10
-30.4278
20
-67.5475
0
VERTEX
8
CUT
10
-30.4095
20
-67.5490
0
VERTEX
8
CUT
10
-30.4043
20
-67.5494
0
VERTEX
8
CUT
10
-30.3861
20
-67.5508
0
VERTEX
8
CUT
10
-30.3809
20
-67.5512
0
VERTEX
8
CUT
10
-30.3627
20
-67.5525
0
VERTEX
8
CUT
10
-30.3575
20
-67.5528
0
VERTEX
8
CUT
10
-29.9686
20
-67.5777
0
VERTEX
8
CUT
10
-29.9642
20
-67.5779
0
VERTEX
8
CUT
10
-29.9487
20
-67.5789
0
VERTEX
8
CUT
10
-29.9443
20
-67.5791
0
VERTEX
8
CUT
10
-29.9289
20
-67.5799
0
VERTEX
8
CUT
10
-29.9244
20
-67.5801
0
VERTEX
8
CUT
10
-29.9090
20
-67.5809
0
VERTEX
8
CUT
10
-29.9045
20
-67.5811
0
VERTEX
8
CUT
10
-29.4767
20
-67.5989
0
VERTEX
8
CUT
10
-29.4709
20
-67.5991
0
VERTEX
8
CUT
10
-29.4506
20
-67.5998
0
VERTEX
8
CUT
10
-29.4449
20
-67.6000
0
VERTEX
8
CUT
10
-29.4246
20
-67.6005
0
VERTEX
8
CUT
10
-29.4189
20
-67.6007
0
VERTEX
8
CUT
10
-29.3986
20
-67.6011
0
VERTEX
8
CUT
10
-29.3928
20
-67.6012
0
VERTEX
8
CUT
10
-28.9391
20
-67.6069
0
VERTEX
8
CUT
10
-28.9328
20
-67.6070
0
VERTEX
8
CUT
10
-28.9107
20
-67.6071
0
VERTEX
8
CUT
10
-28.9044
20
-67.6071
0
VERTEX
8
CUT
10
-28.8823
20
-67.6070
0
VERTEX
8
CUT
10
-28.8760
20
-67.6070
0
VERTEX
8
CUT
10
-28.8539
20
-67.6068
0
VERTEX
8
CUT
10
-28.8476
20
-67.6067
0
VERTEX
8
CUT
10
-28.3309
20
-67.5969
0
VERTEX
8
CUT
10
-28.3261
20
-67.5968
0
VERTEX
8
CUT
10
-28.3092
20
-67.5964
0
VERTEX
8
CUT
10
-28.3044
20
-67.5963
0
VERTEX
8
CUT
10
-28.2876
20
-67.5958
0
VERTEX
8
CUT
10
-28.2828
20
-67.5956
0
VERTEX
8
CUT
10
-28.2660
20
-67.5950
0
VERTEX
8
CUT
10
-28.2612
20
-67.5948
0
VERTEX
8
CUT
10
-27.6634
20
-67.5691
0
VERTEX
8
CUT
10
-27.6598
20
-67.5690
0
VERTEX
8
CUT
10
-27.6469
20
-67.5684
0
VERTEX
8
CUT
10
-27.6433
20
-67.5682
0
VERTEX
8
CUT
10
-27.6304
20
-67.5675
0
VERTEX
8
CUT
10
-27.6268
20
-67.5673
0
VERTEX
8
CUT
10
-27.6140
20
-67.5666
0
VERTEX
8
CUT
10
-27.6103
20
-67.5664
0
VERTEX
8
CUT
10
-26.9436
20
-67.5255
0
VERTEX
8
CUT
10
-26.9409
20
-67.5253
0
VERTEX
8
CUT
10
-26.9312
20
-67.5247
0
VERTEX
8
CUT
10
-26.9284
20
-67.5245
0
VERTEX
8
CUT
10
-26.9188
20
-67.5238
0
VERTEX
8
CUT
10
-26.9160
20
-67.5237
0
VERTEX
8
CUT
10
-26.9064
20
-67.5230
0
VERTEX
8
CUT
10
-26.9036
20
-67.5228
0
VERTEX
8
CUT
10
-26.1777
20
-67.4682
0
VERTEX
8
CUT
10
-26.1756
20
-67.4680
0
VERTEX
8
CUT
10
-26.1685
20
-67.4674
0
VERTEX
8
CUT
10
-26.1665
20
-67.4673
0
VERTEX
8
CUT
10
-26.1594
20
-67.4667
0
VERTEX
8
CUT
10
-26.1574
20
-67.4666
0
VERTEX
8
CUT
10
-26.1503
20
-67.4660
0
VERTEX
8
CUT
10
-26.1483
20
-67.4658
0
VERTEX
8
CUT
10
-25.3710
20
-67.3994
0
VERTEX
8
CUT
10
-25.3696
20
-67.3993
0
VERTEX
8
CUT
10
-25.3647
20
-67.3988
0
VERTEX
8
CUT
10
-25.3633
20
-67.3987
0
VERTEX
8
CUT
10
-25.3583
20
-67.3983
0
VERTEX
8
CUT
10
-25.3569
20
-67.3981
0
VERTEX
8
CUT
10
-25.3519
20
-67.3977
0
VERTEX
8
CUT
10
-25.3505
20
-67.3976
0
VERTEX
8
CUT
10
-24.5289
20
-67.3215
0
VERTEX
8
CUT
10
-24.5280
20
-67.3214
0
VERTEX
8
CUT
10
-24.5249
20
-67.3211
0
VERTEX
8
CUT
10
-24.5240
20
-67.3210
0
VERTEX
8
CUT
10
-24.5209
20
-67.3207
0
VERTEX
8
CUT
10
-24.5201
20
-67.3206
0
VERTEX
8
CUT
10
-24.5170
20
-67.3203
0
VERTEX
8
CUT
10
-24.5161
20
-67.3203
0
VERTEX
8
CUT
10
-24.3227
20
-67.3015
0
VERTEX
8
CUT
10
-23.7823
20
-67.0136
0
VERTEX
8
CUT
10
-23.6000
20
-66.5052
0
VERTEX
8
CUT
10
-23.6000
20
-59.7065
0
VERTEX
8
CUT
10
-23.5998
20
-59.6935
0
VERTEX
8
CUT
10
-23.5906
20
-59.4122
0
VERTEX
8
CUT
10
-23.5889
20
-59.3861
0
VERTEX
8
CUT
10
-23.5619
20
-59.1126
0
VERTEX
8
CUT
10
-23.5585
20
-59.0867
0
VERTEX
8
CUT
10
-23.5137
20
-58.8155
0
VERTEX
8
CUT
10
-23.5086
20
-58.7898
0
VERTEX
8
CUT
10
-23.4462
20
-58.5222
0
VERTEX
8
CUT
10
-23.4395
20
-58.4969
0
VERTEX
8
CUT
10
-23.3597
20
-58.2339
0
VERTEX
8
CUT
10
-23.3513
20
-58.2091
0
VERTEX
8
CUT
10
-23.2545
20
-57.9519
0
VERTEX
8
CUT
10
-23.2444
20
-57.9277
0
VERTEX
8
CUT
10
-23.1310
20
-57.6774
0
VERTEX
8
CUT
10
-23.1194
20
-57.6539
0
VERTEX
8
CUT
10
-22.9899
20
-57.4115
0
VERTEX
8
CUT
10
-22.9768
20
-57.3889
0
VERTEX
8
CUT
10
-22.8317
20
-57.1555
0
VERTEX
8
CUT
10
-22.8171
20
-57.1337
0
VERTEX
8
CUT
10
-22.6571
20
-56.9103
0
VERTEX
8
CUT
10
-22.6411
20
-56.8896
0
VERTEX
8
CUT
10
-22.4668
20
-56.6771
0
VERTEX
8
CUT
10
-22.4495
20
-56.6575
0
VERTEX
8
CUT
10
-22.2616
20
-56.4569
0
VERTEX
8
CUT
10
-22.2431
20
-56.4384
0
VERTEX
8
CUT
10
-22.0425
20
-56.2505
0
VERTEX
8
CUT
10
-22.0229
20
-56.2332
0
VERTEX
8
CUT
10
-21.8104
20
-56.0589
0
VERTEX
8
CUT
10
-21.7897
20
-56.0429
0
VERTEX
8
CUT
10
-21.5663
20
-55.8829
0
VERTEX
8
CUT
10
-21.5445
20
-55.8683
0
VERTEX
8
CUT
10
-21.3111
20
-55.7232
0
VERTEX
8
CUT
10
-21.2885
20
-55.7101
0
VERTEX
8
CUT
10
-21.0461
20
-55.5806
0
VERTEX
8
CUT
10
-21.0226
20
-55.5690
0
VERTEX
8
CUT
10
-20.7723
20
-55.4556
0
VERTEX
8
CUT
10
-20.7481
20
-55.4455
0
VERTEX
8
CUT
10
-20.4909
20
-55.3487
0
VERTEX
8
CUT
10
-20.4661
20
-55.3403
0
VERTEX
8
CUT
10
-20.2031
20
-55.2605
0
VERTEX
8
CUT
10
-20.1778
20
-55.2538
0
VERTEX
8
CUT
10
-19.9102
20
-55.1914
0
VERTEX
8
CUT
10
-19.8845
20
-55.1863
0
VERTEX
8
CUT
10
-19.6133
20
-55.1415
0
VERTEX
8
CUT
10
-19.5874
20
-55.1381
0
VERTEX
8
CUT
10
-19.3139
20
-55.1111
0
VERTEX
8
CUT
10
-19.2878
20
-55.1094
0
VERTEX
8
CUT
10
-19.0065
20
-55.1002
0
VERTEX
8
CUT
10
-18.9935
20
-55.1000
0
VERTEX
8
CUT
10
18.9935
20
-55.1000
0
VERTEX
8
CUT
10
19.0065
20
-55.1002
0
VERTEX
8
CUT
10
19.2878
20
-55.1094
0
VERTEX
8
CUT
10
19.3139
20
-55.1111
0
VERTEX
8
CUT
10
19.5874
20
-55.1381
0
VERTEX
8
CUT
10
19.6133
20
-55.1415
0
VERTEX
8
CUT
10
19.8845
20
-55.1863
0
VERTEX
8
CUT
10
19.9102
20
-55.1914
0
VERTEX
8
CUT
10
20.1778
20
-55.2538
0
VERTEX
8
CUT
10
20.2031
20
-55.2605
0
VERTEX
8
CUT
10
20.4661
20
-55.3403
0
VERTEX
8
CUT
10
20.4909
20
-55.3487
0
VERTEX
8
CUT
10
20.7481
20
-55.4455
0
VERTEX
8
CUT
10
20.7723
20
-55.4556
0
VERTEX
8
CUT
10
21.0226
20
-55.5690
0
VERTEX
8
CUT
10
21.0461
20
-55.5806
0
VERTEX
8
CUT
10
21.2885
20
-55.7101
0
VERTEX
8
CUT
10
21.3111
20
-55.7232
0
VERTEX
8
CUT
10
21.5445
20
-55.8683
0
VERTEX
8
CUT
10
21.5663
20
-55.8829
0
VERTEX
8
CUT
10
21.7897
20
-56.0429
0
VERTEX
8
CUT
10
21.8104
20
-56.0589
0
VERTEX
8
CUT
10
22.0229
20
-56.2332
0
VERTEX
8
CUT
10
22.0425
20
-56.2505
0
VERTEX
8
CUT
10
22.2431
20
-56.4384
0
VERTEX
8
CUT
10
22.2616
20
-56.4569
0
VERTEX
8
CUT
10
22.4495
20
-56.6575
0
VERTEX
8
CUT
10
22.4668
20
-56.6771
0
VERTEX
8
CUT
10
22.6411
20
-56.8896
0
VERTEX
8
CUT
10
22.6571
20
-56.9103
0
VERTEX
8
CUT
10
22.8171
20
-57.1337
0
VERTEX
8
CUT
10
22.8317
20
-57.1555
0
VERTEX
8
CUT
10
22.9768
20
-57.3889
0
VERTEX
8
CUT
10
22.9899
20
-57.4115
0
VERTEX
8
CUT
10
23.1194
20
-57.6539
0
VERTEX
8
CUT
10
23.1310
20
-57.6774
0
VERTEX
8
CUT
10
23.2444
20
-57.9277
0
VERTEX
8
CUT
10
23.2545
20
-57.9519
0
VERTEX
8
CUT
10
23.3513
20
-58.2091
0
VERTEX
8
CUT
10
23.3597
20
-58.2339
0
VERTEX
8
CUT
10
23.4395
20
-58.4969
0
VERTEX
8
CUT
10
23.4462
20
-58.5222
0
VERTEX
8
CUT
10
23.5086
20
-58.7898
0
VERTEX
8
CUT
10
23.5137
20
-58.8155
0
VERTEX
8
CUT
10
23.5585
20
-59.0867
0
VERTEX
8
CUT
10
23.5619
20
-59.1126
0
VERTEX
8
CUT
10
23.5889
20
-59.3861
0
VERTEX
8
CUT
10
23.5906
20
-59.4122
0
VERTEX
8
CUT
10
23.5998
20
-59.6935
0
VERTEX
8
CUT
10
23.6000
20
-59.7065
0
VERTEX
8
CUT
10
23.6000
20
-66.5052
0
VERTEX
8
CUT
10
23.8343
20
-67.0709
0
VERTEX
8
CUT
10
24.3227
20
-67.3015
0
VERTEX
8
CUT
10
24.5161
20
-67.3203
0
VERTEX
8
CUT
10
24.5170
20
-67.3203
0
VERTEX
8
CUT
10
24.5201
20
-67.3206
0
VERTEX
8
CUT
10
24.5209
20
-67.3207
0
VERTEX
8
CUT
10
24.5240
20
-67.3210
0
VERTEX
8
CUT
10
24.5249
20
-67.3211
0
VERTEX
8
CUT
10
24.5280
20
-67.3214
0
VERTEX
8
CUT
10
24.5289
20
-67.3215
0
VERTEX
8
CUT
10
25.3505
20
-67.3976
0
VERTEX
8
CUT
10
25.3519
20
-67.3977
0
VERTEX
8
CUT
10
25.3569
20
-67.3981
0
VERTEX
8
CUT
10
25.3583
20
-67.3983
0
VERTEX
8
CUT
10
25.3633
20
-67.3987
0
VERTEX
8
CUT
10
25.3647
20
-67.3988
0
VERTEX
8
CUT
10
25.3696
20
-67.3993
0
VERTEX
8
CUT
10
25.3710
20
-67.3994
0
VERTEX
8
CUT
10
26.1483
20
-67.4658
0
VERTEX
8
CUT
10
26.1503
20
-67.4660
0
VERTEX
8
CUT
10
26.1574
20
-67.4666
0
VERTEX
8
CUT
10
26.1594
20
-67.4667
0
VERTEX
8
CUT
10
26.1665
20
-67.4673
0
VERTEX
8
CUT
10
26.1685
20
-67.4674
0
VERTEX
8
CUT
10
26.1756
20
-67.4680
0
VERTEX
8
CUT
10
26.1777
20
-67.4682
0
VERTEX
8
CUT
10
26.9036
20
-67.5228
0
VERTEX
8
CUT
10
26.9064
20
-67.5230
0
VERTEX
8
CUT
10
26.9160
20
-67.5237
0
VERTEX
8
CUT
10
26.9188
20
-67.5238
0
VERTEX
8
CUT
10
26.9284
20
-67.5245
0
VERTEX
8
CUT
10
26.9312
20
-67.5247
0
VERTEX
8
CUT
10
26.9409
20
-67.5253
0
VERTEX
8
CUT
10
26.9436
20
-67.5255
0
VERTEX
8
CUT
10
27.6103
20
-67.5664
0
VERTEX
8
CUT
10
27.6140
20
-67.5666
0
VERTEX
8
CUT
10
27.6268
20
-67.5673
0
VERTEX
8
CUT
10
27.6304
20
-67.5675
0
VERTEX
8
CUT
10
27.6433
20
-67.5682
0
VERTEX
8
CUT
10
27.6469
20
-67.5684
0
VERTEX
8
CUT
10
27.6598
20
-67.5690
0
VERTEX
8
CUT
10
27.6634
20
-67.5691
0
VERTEX
8
CUT
10
28.2612
20
-67.5948
0
VERTEX
8
CUT
10
28.2660
20
-67.5950
0
VERTEX
8
CUT
10
28.2828
20
-67.5956
0
VERTEX
8
CUT
10
28.2876
20
-67.5958
0
VERTEX
8
CUT
10
28.3044
20
-67.5963
0
VERTEX
8
CUT
10
28.3092
20
-67.5964
0
VERTEX
8
CUT
10
28.3261
20
-67.5968
0
VERTEX
8
CUT
10
28.3309
20
-67.5969
0
VERTEX
8
CUT
10
28.8476
20
-67.6067
0
VERTEX
8
CUT
10
28.8539
20
-67.6068
0
VERTEX
8
CUT
10
28.8760
20
-67.6070
0
VERTEX
8
CUT
10
28.8823
20
-67.6070
0
VERTEX
8
CUT
10
28.9044
20
-67.6071
0
SEQEND
0
POLYLINE
8
CUT
66
1
70
1
0
VERTEX
8
CUT
10
17.9869
20
-53.3996
0
VERTEX
8
CUT
10
17.3852
20
-53.3799
0
VERTEX
8
CUT
10
17.3591
20
-53.3782
0
VERTEX
8
CUT
10
16.7600
20
-53.3192
0
VERTEX
8
CUT
10
16.7340
20
-53.3157
0
VERTEX
8
CUT
10
16.1400
20
-53.2177
0
VERTEX
8
CUT
10
16.1144
20
-53.2126
0
VERTEX
8
CUT
10
15.5281
20
-53.0759
0
VERTEX
8
CUT
10
15.5028
20
-53.0691
0
VERTEX
8
CUT
10
14.9267
20
-52.8943
0
VERTEX
8
CUT
10
14.9019
20
-52.8859
0
VERTEX
8
CUT
10
14.3385
20
-52.6739
0
VERTEX
8
CUT
10
14.3143
20
-52.6638
0
VERTEX
8
CUT
10
13.7660
20
-52.4154
0
VERTEX
8
CUT
10
13.7425
20
-52.4038
0
VERTEX
8
CUT
10
13.2115
20
-52.1200
0
VERTEX
8
CUT
10
13.1889
20
-52.1069
0
VERTEX
8
CUT
10
12.6776
20
-51.7890
0
VERTEX
8
CUT
10
12.6559
20
-51.7745
0
VERTEX
8
CUT
10
12.1665
20
-51.4238
0
VERTEX
8
CUT
10
12.1458
20
-51.4079
0
VERTEX
8
CUT
10
11.6804
20
-51.0260
0
VERTEX
8
CUT
10
11.6607
20
-51.0087
0
VERTEX
8
CUT
10
11.2213
20
-50.5972
0
VERTEX
8
CUT
10
11.2028
20
-50.5787
0
VERTEX
8
CUT
10
10.7913
20
-50.1393
0
VERTEX
8
CUT
10
10.7740
20
-50.1196
0
VERTEX
8
CUT
10
10.3921
20
-49.6542
0
VERTEX
8
CUT
10
10.3762
20
-49.6335
0
VERTEX
8
CUT
10
10.0255
20
-49.1441
0
VERTEX
8
CUT
10
10.0110
20
-49.1224
0
VERTEX
8
CUT
10
9.6931
20
-48.6111
0
VERTEX
8
CUT
10
9.6800
20
-48.5885
0
VERTEX
8
CUT
10
9.3962
20
-48.0575
0
VERTEX
8
CUT
10
9.3846
20
-48.0340
0
VERTEX
8
CUT
10
9.1362
20
-47.4857
0
VERTEX
8
CUT
10
9.1261
20
-47.4615
0
VERTEX
8
CUT
10
8.9141
20
-46.8981
0
VERTEX
8
CUT
10
8.9057
20
-46.8733
0
VERTEX
8
CUT
10
8.7309
20
-46.2972
0
VERTEX
8
CUT
10
8.7241
20
-46.2719
0
VERTEX
8
CUT
10
8.5874
20
-45.6856
0
VERTEX
8
CUT
10
8.5823
20
-45.6600
0
VERTEX
8
CUT
10
8.4843
20
-45.0660
0
VERTEX
8
CUT
10
8.4808
20
-45.0400
0
VERTEX
8
CUT
10
8.4218
20
-44.4409
0
VERTEX
8
CUT
10
8.4201
20
-44.4148
0
VERTEX
8
CUT
10
8.4004
20
-43.8131
0
VERTEX
8
CUT
10
8.4004
20
-43.7869
0
VERTEX
8
CUT
10
8.4201
20
-43.1852
0
VERTEX
8
CUT
10
8.4218
20
-43.1591
0
VERTEX
8
CUT
10
8.4808
20
-42.5600
0
VERTEX
8
CUT
10
8.4843
20
-42.5340
0
VERTEX
8
CUT
10
8.5823
20
-41.9400
0
VERTEX
8
CUT
10
8.5874
20
-41.9144
0
VERTEX
8
CUT
10
8.7241
20
-41.3281
0
VERTEX
8
CUT
10
8.7309
20
-41.3028
0
VERTEX
8
CUT
10
8.9057
20
-40.7267
0
VERTEX
8
CUT
10
8.9141
20
-40.7019
0
VERTEX
8
CUT
10
9.1261
20
-40.1385
0
VERTEX
8
CUT
10
9.1362
20
-40.1143
0
VERTEX
8
CUT
10
9.3846
20
-39.5660
0
VERTEX
8
CUT
10
9.3962
20
-39.5425
0
VERTEX
8
CUT
10
9.6800
20
-39.0115
0
VERTEX
8
CUT
10
9.6931
20
-38.9889
0
VERTEX
8
CUT
10
10.0110
20
-38.4776
0
VERTEX
8
CUT
10
10.0255
20
-38.4559
0
VERTEX
8
CUT
10
10.3762
20
-37.9665
0
VERTEX
8
CUT
10
10.3921
20
-37.9458
0
VERTEX
8
CUT
10
10.7740
20
-37.4804
0
VERTEX
8
CUT
10
10.7913
20
-37.4607
0
VERTEX
8
CUT
10
11.2028
20
-37.0213
0
VERTEX
8
CUT
10
11.2213
20
-37.0028
0
VERTEX
8
CUT
10
11.6607
20
-36.5913
0
VERTEX
8
CUT
10
11.6804
20
-36.5740
0
VERTEX
8
CUT
10
12.1458
20
-36.1921
0
VERTEX
8
CUT
10
12.1665
20
-36.1762
0
VERTEX
8
CUT
10
12.6559
20
-35.8255
0
VERTEX
8
CUT
10
12.6776
20
-35.8110
0
VERTEX
8
CUT
10
13.1889
20
-35.4931
0
VERTEX
8
CUT
10
13.2115
20
-35.4800
0
VERTEX
8
CUT
10
13.7425
20
-35.1962
0
VERTEX
8
CUT
10
13.7660
20
-35.1846
0
VERTEX
8
CUT
10
14.3143
20
-34.9362
0
VERTEX
8
CUT
10
14.3385
20
-34.9261
0
VERTEX
8
CUT
10
14.9019
20
-34.7141
0
VERTEX
8
CUT
10
14.9267
20
-34.7057
0
VERTEX
8
CUT
10
15.5028
20
-34.5309
0
VERTEX
8
CUT
10
15.5281
20
-34.5241
0
VERTEX
8
CUT
10
16.1144
20
-34.3874
0
VERTEX
8
CUT
10
16.1400
20
-34.3823
0
VERTEX
8
CUT
10
16.7340
20
-34.2843
0
VERTEX
8
CUT
10
16.7600
20
-34.2808
0
VERTEX
8
CUT
10
17.3591
20
-34.2218
0
VERTEX
8
CUT
10
17.3852
20
-34.2201
0
VERTEX
8
CUT
10
17.9869
20
-34.2004
0
VERTEX
8
CUT
10
18.0131
20
-34.2004
0
VERTEX
8
CUT
10
18.6148
20
-34.2201
0
VERTEX
8
CUT
10
18.6409
20
-34.2218
0
VERTEX
8
CUT
10
19.2400
20
-34.2808
0
VERTEX
8
CUT
10
19.2660
20
-34.2843
0
VERTEX
8
CUT
10
19.8600
20
-34.3823
0
VERTEX
8
CUT
10
19.8856
20
-34.3874
0
VERTEX
8
CUT
10
20.4719
20
-34.5241
0
VERTEX
8
CUT
10
20.4972
20
-34.5309
0
VERTEX
8
CUT
10
21.0733
20
-34.7057
0
VERTEX
8
CUT
10
21.0981
20
-34.7141
0
VERTEX
8
CUT
10
21.6615
20
-34.9261
0
VERTEX
8
CUT
10
21.6857
20
-34.9362
0
VERTEX
8
CUT
10
22.2340
20
-35.1846
0
VERTEX
8
CUT
10
22.2575
20
-35.1962
0
VERTEX
8
CUT
10
22.7885
20
-35.4800
0
VERTEX
8
CUT
10
22.8111
20
-35.4931
0
VERTEX
8
CUT
10
23.3224
20
-35.8110
0
VERTEX
8
CUT
10
23.3441
20
-35.8255
0
VERTEX
8
CUT
10
23.8335
20
-36.1762
0
VERTEX
8
CUT
10
23.8542
20
-36.1921
0
VERTEX
8
CUT
10
24.3196
20
-36.5740
0
VERTEX
8
CUT
10
24.3393
20
-36.5913
0
VERTEX
8
CUT
10
24.7787
20
-37.0028
0
VERTEX
8
CUT
10
24.7972
20
-37.0213
0
VERTEX
8
CUT
10
25.2087
20
-37.4607
0
VERTEX
8
CUT
10
25.2260
20
-37.4804
0
VERTEX
8
CUT
10
25.6079
20
-37.9458
0
VERTEX
8
CUT
10
25.6238
20
-37.9665
0
VERTEX
8
CUT
10
25.9745
20
-38.4559
0
VERTEX
8
CUT
10
25.9890
20
-38.4776
0
VERTEX
8
CUT
10
26.3069
20
-38.9889
0
VERTEX
8
CUT
10
26.3200
20
-39.0115
0
VERTEX
8
CUT
10
26.6038
20
-39.5425
0
VERTEX
8
CUT
10
26.6154
20
-39.5660
0
VERTEX
8
CUT
10
26.8638
20
-40.1143
0
VERTEX
8
CUT
10
26.8739
20
-40.1385
0
VERTEX
8
CUT
10
27.0859
20
-40.7019
0
VERTEX
8
CUT
10
27.0943
20
-40.7267
0
VERTEX
8
CUT
10
27.2691
20
-41.3028
0
VERTEX
8
CUT
10
27.2759
20
-41.3281
0
VERTEX
8
CUT
10
27.4126
20
-41.9144
0
VERTEX
8
CUT
10
27.4177
20
-41.9400
0
VERTEX
8
CUT
10
27.5157
20
-42.5340
0
VERTEX
8
CUT
10
27.5192
20
-42.5600
0
VERTEX
8
CUT
10
27.5782
20
-43.1591
0
VERTEX
8
CUT
10
27.5799
20
-43.1852
0
VERTEX
8
CUT
10
27.5996
20
-43.7869
0
VERTEX
8
CUT
10
27.5996
20
-43.8131
0
VERTEX
8
CUT
10
27.5799
20
-44.4148
0
VERTEX
8
CUT
10
27.5782
20
-44.4409
0
VERTEX
8
CUT
10
27.5192
20
-45.0400
0
VERTEX
8
CUT
10
27.5157
20
-45.0660
0
VERTEX
8
CUT
10
27.4177
20
-45.6600
0
VERTEX
8
CUT
10
27.4126
20
-45.6856
0
VERTEX
8
CUT
10
27.2759
20
-46.2719
0
VERTEX
8
CUT
10
27.2691
20
-46.2972
0
VERTEX
8
CUT
10
27.0943
20
-46.8733
0
VERTEX
8
CUT
10
27.0859
20
-46.8981
0
VERTEX
8
CUT
10
26.8739
20
-47.4615
0
VERTEX
8
CUT
10
26.8638
20
-47.4857
0
VERTEX
8
CUT
10
26.6154
20
-48.0340
0
VERTEX
8
CUT
10
26.6038
20
-48.0575
0
VERTEX
8
CUT
10
26.3200
20
-48.5885
0
VERTEX
8
CUT
10
26.3069
20
-48.6111
0
VERTEX
8
CUT
10
25.9890
20
-49.1224
0
VERTEX
8
CUT
10
25.9745
20
-49.1441
0
VERTEX
8
CUT
10
25.6238
20
-49.6335
0
VERTEX
8
CUT
10
25.6079
20
-49.6542
0
VERTEX
8
CUT
10
25.2260
20
-50.1196
0
VERTEX
8
CUT
10
25.2087
20
-50.1393
0
VERTEX
8
CUT
10
24.7972
20
-50.5787
0
VERTEX
8
CUT
10
24.7787
20
-50.5972
0
VERTEX
8
CUT
10
24.3393
20
-51.0087
0
VERTEX
8
CUT
10
24.3196
20
-51.0260
0
VERTEX
8
CUT
10
23.8542
20
-51.4079
0
VERTEX
8
CUT
10
23.8335
20
-51.4238
0
VERTEX
8
CUT
10
23.3441
20
-51.7745
0
VERTEX
8
CUT
10
23.3224
20
-51.7890
0
VERTEX
8
CUT
10
22.8111
20
-52.1069
0
VERTEX
8
CUT
10
22.7885
20
-52.1200
0
VERTEX
8
CUT
10
22.2575
20
-52.4038
0
VERTEX
8
CUT
10
22.2340
20
-52.4154
0
VERTEX
8
CUT
10
21.6857
20
-52.6638
0
VERTEX
8
CUT
10
21.6615
20
-52.6739
0
VERTEX
8
CUT
10
21.0981
20
-52.8859
0
VERTEX
8
CUT
10
21.0733
20
-52.8943
0
VERTEX
8
CUT
10
20.4972
20
-53.0691
0
VERTEX
8
CUT
10
20.4719
20
-53.0759
0
VERTEX
8
CUT
10
19.8856
20
-53.2126
0
VERTEX
8
CUT
10
19.8600
20
-53.2177
0
VERTEX
8
CUT
10
19.2660
20
-53.3157
0
VERTEX
8
CUT
10
19.2400
20
-53.3192
0
VERTEX
8
CUT
10
18.6409
20
-53.3782
0
VERTEX
8
CUT
10
18.6148
20
-53.3799
0
VERTEX
8
CUT
10
18.0131
20
-53.3996
0
SEQEND
0
POLYLINE
8
CUT
66
1
70
1
0
VERTEX
8
CUT
10
-18.0131
20
-53.3996
0
VERTEX
8
CUT
10
-18.6148
20
-53.3799
0
VERTEX
8
CUT
10
-18.6409
20
-53.3782
0
VERTEX
8
CUT
10
-19.2400
20
-53.3192
0
VERTEX
8
CUT
10
-19.2660
20
-53.3157
0
VERTEX
8
CUT
10
-19.8600
20
-53.2177
0
VERTEX
8
CUT
10
-19.8856
20
-53.2126
0
VERTEX
8
CUT
10
-20.4719
20
-53.0759
0
VERTEX
8
CUT
10
-20.4972
20
-53.0691
0
VERTEX
8
CUT
10
-21.0733
20
-52.8943
0
VERTEX
8
CUT
10
-21.0981
20
-52.8859
0
VERTEX
8
CUT
10
-21.6615
20
-52.6739
0
VERTEX
8
CUT
10
-21.6857
20
-52.6638
0
VERTEX
8
CUT
10
-22.2340
20
-52.4154
0
VERTEX
8
CUT
10
-22.2575
20
-52.4038
0
VERTEX
8
CUT
10
-22.7885
20
-52.1200
0
VERTEX
8
CUT
10
-22.8111
20
-52.1069
0
VERTEX
8
CUT
10
-23.3224
20
-51.7890
0
VERTEX
8
CUT
10
-23.3441
20
-51.7745
0
VERTEX
8
CUT
10
-23.8335
20
-51.4238
0
VERTEX
8
CUT
10
-23.8542
20
-51.4079
0
VERTEX
8
CUT
10
-24.3196
20
-51.0260
0
VERTEX
8
CUT
10
-24.3393
20
-51.0087
0
VERTEX
8
CUT
10
-24.7787
20
-50.5972
0
VERTEX
8
CUT
10
-24.7972
20
-50.5787
0
VERTEX
8
CUT
10
-25.2087
20
-50.1393
0
VERTEX
8
CUT
10
-25.2260
20
-50.1196
0
VERTEX
8
CUT
10
-25.6079
20
-49.6542
0
VERTEX
8
CUT
10
-25.6238
20
-49.6335
0
VERTEX
8
CUT
10
-25.9745
20
-49.1441
0
VERTEX
8
CUT
10
-25.9890
20
-49.1224
0
VERTEX
8
CUT
10
-26.3069
20
-48.6111
0
VERTEX
8
CUT
10
-26.3200
20
-48.5885
0
VERTEX
8
CUT
10
-26.6038
20
-48.0575
0
VERTEX
8
CUT
10
-26.6154
20
-48.0340
0
VERTEX
8
CUT
10
-26.8638
20
-47.4857
0
VERTEX
8
CUT
10
-26.8739
20
-47.4615
0
VERTEX
8
CUT
10
-27.0859
20
-46.8981
0
VERTEX
8
CUT
10
-27.0943
20
-46.8733
0
VERTEX
8
CUT
10
-27.2691
20
-46.2972
0
VERTEX
8
CUT
10
-27.2759
20
-46.2719
0
VERTEX
8
CUT
10
-27.4126
20
-45.6856
0
VERTEX
8
CUT
10
-27.4177
20
-45.6600
0
VERTEX
8
CUT
10
-27.5157
20
-45.0660
0
VERTEX
8
CUT
10
-27.5192
20
-45.0400
0
VERTEX
8
CUT
10
-27.5782
20
-44.4409
0
VERTEX
8
CUT
10
-27.5799
20
-44.4148
0
VERTEX
8
CUT
10
-27.5996
20
-43.8131
0
VERTEX
8
CUT
10
-27.5996
20
-43.7869
0
VERTEX
8
CUT
10
-27.5799
20
-43.1852
0
VERTEX
8
CUT
10
-27.5782
20
-43.1591
0
VERTEX
8
CUT
10
-27.5192
20
-42.5600
0
VERTEX
8
CUT
10
-27.5157
20
-42.5340
0
VERTEX
8
CUT
10
-27.4177
20
-41.9400
0
VERTEX
8
CUT
10
-27.4126
20
-41.9144
0
VERTEX
8
CUT
10
-27.2759
20
-41.3281
0
VERTEX
8
CUT
10
-27.2691
20
-41.3028
0
VERTEX
8
CUT
10
-27.0943
20
-40.7267
0
VERTEX
8
CUT
10
-27.0859
20
-40.7019
0
VERTEX
8
CUT
10
-26.8739
20
-40.1385
0
VERTEX
8
CUT
10
-26.8638
20
-40.1143
0
VERTEX
8
CUT
10
-26.6154
20
-39.5660
0
VERTEX
8
CUT
10
-26.6038
20
-39.5425
0
VERTEX
8
CUT
10
-26.3200
20
-39.0115
0
VERTEX
8
CUT
10
-26.3069
20
-38.9889
0
VERTEX
8
CUT
10
-25.9890
20
-38.4776
0
VERTEX
8
CUT
10
-25.9745
20
-38.4559
0
VERTEX
8
CUT
10
-25.6238
20
-37.9665
0
VERTEX
8
CUT
10
-25.6079
20
-37.9458
0
VERTEX
8
CUT
10
-25.2260
20
-37.4804
0
VERTEX
8
CUT
10
-25.2087
20
-37.4607
0
VERTEX
8
CUT
10
-24.7972
20
-37.0213
0
VERTEX
8
CUT
10
-24.7787
20
-37.0028
0
VERTEX
8
CUT
10
-24.3393
20
-36.5913
0
VERTEX
8
CUT
10
-24.3196
20
-36.5740
0
VERTEX
8
CUT
10
-23.8542
20
-36.1921
0
VERTEX
8
CUT
10
-23.8335
20
-36.1762
0
VERTEX
8
CUT
10
-23.3441
20
-35.8255
0
VERTEX
8
CUT
10
-23.3224
20
-35.8110
0
VERTEX
8
CUT
10
-22.8111
20
-35.4931
0
VERTEX
8
CUT
10
-22.7885
20
-35.4800
0
VERTEX
8
CUT
10
-22.2575
20
-35.1962
0
VERTEX
8
CUT
10
-22.2340
20
-35.1846
0
VERTEX
8
CUT
10
-21.6857
20
-34.9362
0
VERTEX
8
CUT
10
-21.6615
20
-34.9261
0
VERTEX
8
CUT
10
-21.0981
20
-34.7141
0
VERTEX
8
CUT
10
-21.0733
20
-34.7057
0
VERTEX
8
CUT
10
-20.4972
20
-34.5309
0
VERTEX
8
CUT
10
-20.4719
20
-34.5241
0
VERTEX
8
CUT
10
-19.8856
20
-34.3874
0
VERTEX
8
CUT
10
-19.8600
20
-34.3823
0
VERTEX
8
CUT
10
-19.2660
20
-34.2843
0
VERTEX
8
CUT
10
-19.2400
20
-34.2808
0
VERTEX
8
CUT
10
-18.6409
20
-34.2218
0
VERTEX
8
CUT
10
-18.6148
20
-34.2201
0
VERTEX
8
CUT
10
-18.0131
20
-34.2004
0
VERTEX
8
CUT
10
-17.9869
20
-34.2004
0
VERTEX
8
CUT
10
-17.3852
20
-34.2201
0
VERTEX
8
CUT
10
-17.3591
20
-34.2218
0
VERTEX
8
CUT
10
-16.7600
20
-34.2808
0
VERTEX
8
CUT
10
-16.7340
20
-34.2843
0
VERTEX
8
CUT
10
-16.1400
20
-34.3823
0
VERTEX
8
CUT
10
-16.1144
20
-34.3874
0
VERTEX
8
CUT
10
-15.5281
20
-34.5241
0
VERTEX
8
CUT
10
-15.5028
20
-34.5309
0
VERTEX
8
CUT
10
-14.9267
20
-34.7057
0
VERTEX
8
CUT
10
-14.9019
20
-34.7141
0
VERTEX
8
CUT
10
-14.3385
20
-34.9261
0
VERTEX
8
CUT
10
-14.3143
20
-34.9362
0
VERTEX
8
CUT
10
-13.7660
20
-35.1846
0
VERTEX
8
CUT
10
-13.7425
20
-35.1962
0
VERTEX
8
CUT
10
-13.2115
20
-35.4800
0
VERTEX
8
CUT
10
-13.1889
20
-35.4931
0
VERTEX
8
CUT
10
-12.6776
20
-35.8110
0
VERTEX
8
CUT
10
-12.6559
20
-35.8255
0
VERTEX
8
CUT
10
-12.1665
20
-36.1762
0
VERTEX
8
CUT
10
-12.1458
20
-36.1921
0
VERTEX
8
CUT
10
-11.6804
20
-36.5740
0
VERTEX
8
CUT
10
-11.6607
20
-36.5913
0
VERTEX
8
CUT
10
-11.2213
20
-37.0028
0
VERTEX
8
CUT
10
-11.2028
20
-37.0213
0
VERTEX
8
CUT
10
-10.7913
20
-37.4607
0
VERTEX
8
CUT
10
-10.7740
20
-37.4804
0
VERTEX
8
CUT
10
-10.3921
20
-37.9458
0
VERTEX
8
CUT
10
-10.3762
20
-37.9665
0
VERTEX
8
CUT
10
-10.0255
20
-38.4559
0
VERTEX
8
CUT
10
-10.0110
20
-38.4776
0
VERTEX
8
CUT
10
-9.6931
20
-38.9889
0
VERTEX
8
CUT
10
-9.6800
20
-39.0115
0
VERTEX
8
CUT
10
-9.3962
20
-39.5425
0
VERTEX
8
CUT
10
-9.3846
20
-39.5660
0
VERTEX
8
CUT
10
-9.1362
20
-40.1143
0
VERTEX
8
CUT
10
-9.1261
20
-40.1385
0
VERTEX
8
CUT
10
-8.9141
20
-40.7019
0
VERTEX
8
CUT
10
-8.9057
20
-40.7267
0
VERTEX
8
CUT
10
-8.7309
20
-41.3028
0
VERTEX
8
CUT
10
-8.7241
20
-41.3281
0
VERTEX
8
CUT
10
-8.5874
20
-41.9144
0
VERTEX
8
CUT
10
-8.5823
20
-41.9400
0
VERTEX
8
CUT
10
-8.4843
20
-42.5340
0
VERTEX
8
CUT
10
-8.4808
20
-42.5600
0
VERTEX
8
CUT
10
-8.4218
20
-43.1591
0
VERTEX
8
CUT
10
-8.4201
20
-43.1852
0
VERTEX
8
CUT
10
-8.4004
20
-43.7869
0
VERTEX
8
CUT
10
-8.4004
20
-43.8131
0
VERTEX
8
CUT
10
-8.4201
20
-44.4148
0
VERTEX
8
CUT
10
-8.4218
20
-44.4409
0
VERTEX
8
CUT
10
-8.4808
20
-45.0400
0
VERTEX
8
CUT
10
-8.4843
20
-45.0660
0
VERTEX
8
CUT
10
-8.5823
20
-45.6600
0
VERTEX
8
CUT
10
-8.5874
20
-45.6856
0
VERTEX
8
CUT
10
-8.7241
20
-46.2719
0
VERTEX
8
CUT
10
-8.7309
20
-46.2972
0
VERTEX
8
CUT
10
-8.9057
20
-46.8733
0
VERTEX
8
CUT
10
-8.9141
20
-46.8981
0
VERTEX
8
CUT
10
-9.1261
20
-47.4615
0
VERTEX
8
CUT
10
-9.1362
20
-47.4857
0
VERTEX
8
CUT
10
-9.3846
20
-48.0340
0
VERTEX
8
CUT
10
-9.3962
20
-48.0575
0
VERTEX
8
CUT
10
-9.6800
20
-48.5885
0
VERTEX
8
CUT
10
-9.6931
20
-48.6111
0
VERTEX
8
CUT
10
-10.0110
20
-49.1224
0
VERTEX
8
CUT
10
-10.0255
20
-49.1441
0
VERTEX
8
CUT
10
-10.3762
20
-49.6335
0
VERTEX
8
CUT
10
-10.3921
20
-49.6542
0
VERTEX
8
CUT
10
-10.7740
20
-50.1196
0
VERTEX
8
CUT
10
-10.7913
20
-50.1393
0
VERTEX
8
CUT
10
-11.2028
20
-50.5787
0
VERTEX
8
CUT
10
-11.2213
20
-50.5972
0
VERTEX
8
CUT
10
-11.6607
20
-51.0087
0
VERTEX
8
CUT
10
-11.6804
20
-51.0260
0
VERTEX
8
CUT
10
-12.1458
20
-51.4079
0
VERTEX
8
CUT
10
-12.1665
20
-51.4238
0
VERTEX
8
CUT
10
-12.6559
20
-51.7745
0
VERTEX
8
CUT
10
-12.6776
20
-51.7890
0
VERTEX
8
CUT
10
-13.1889
20
-52.1069
0
VERTEX
8
CUT
10
-13.2115
20
-52.1200
0
VERTEX
8
CUT
10
-13.7425
20
-52.4038
0
VERTEX
8
CUT
10
-13.7660
20
-52.4154
0
VERTEX
8
CUT
10
-14.3143
20
-52.6638
0
VERTEX
8
CUT
10
-14.3385
20
-52.6739
0
VERTEX
8
CUT
10
-14.9019
20
-52.8859
0
VERTEX
8
CUT
10
-14.9267
20
-52.8943
0
VERTEX
8
CUT
10
-15.5028
20
-53.0691
0
VERTEX
8
CUT
10
-15.5281
20
-53.0759
0
VERTEX
8
CUT
10
-16.1144
20
-53.2126
0
VERTEX
8
CUT
10
-16.1400
20
-53.2177
0
VERTEX
8
CUT
10
-16.7340
20
-53.3157
0
VERTEX
8
CUT
10
-16.7600
20
-53.3192
0
VERTEX
8
CUT
10
-17.3591
20
-53.3782
0
VERTEX
8
CUT
10
-17.3852
20
-53.3799
0
VERTEX
8
CUT
10
-17.9869
20
-53.3996
0
SEQEND
0
ENDSEC
0
EOF
