0
SECTION
2
HEADER
9
$INSUNITS
70
4
0
ENDSEC
0
SECTION
2
ENTITIES
0
POLYLINE
8
CUT
66
1
70
1
0
VERTEX
8
CUT
10
34.4380
20
-67.6002
0
VERTEX
8
CUT
10
34.4570
20
-67.6000
0
VERTEX
8
CUT
10
34.4760
20
-67.5998
0
VERTEX
8
CUT
10
34.4950
20
-67.5994
0
VERTEX
8
CUT
10
35.0491
20
-67.5858
0
VERTEX
8
CUT
10
35.0609
20
-67.5855
0
VERTEX
8
CUT
10
35.0726
20
-67.5851
0
VERTEX
8
CUT
10
35.0843
20
-67.5847
0
VERTEX
8
CUT
10
35.6112
20
-67.5649
0
VERTEX
8
CUT
10
35.6254
20
-67.5643
0
VERTEX
8
CUT
10
35.6396
20
-67.5637
0
VERTEX
8
CUT
10
35.6537
20
-67.5630
0
VERTEX
8
CUT
10
36.1274
20
-67.5377
0
VERTEX
8
CUT
10
36.1443
20
-67.5367
0
VERTEX
8
CUT
10
36.1612
20
-67.5357
0
VERTEX
8
CUT
10
36.1781
20
-67.5345
0
VERTEX
8
CUT
10
36.5993
20
-67.5041
0
VERTEX
8
CUT
10
36.6193
20
-67.5025
0
VERTEX
8
CUT
10
36.6392
20
-67.5009
0
VERTEX
8
CUT
10
36.6592
20
-67.4991
0
VERTEX
8
CUT
10
37.0285
20
-67.4641
0
VERTEX
8
CUT
10
37.0518
20
-67.4618
0
VERTEX
8
CUT
10
37.0751
20
-67.4592
0
VERTEX
8
CUT
10
37.0984
20
-67.4566
0
VERTEX
8
CUT
10
37.4168
20
-67.4180
0
VERTEX
8
CUT
10
37.4437
20
-67.4146
0
VERTEX
8
CUT
10
37.4706
20
-67.4109
0
VERTEX
8
CUT
10
37.4975
20
-67.4070
0
VERTEX
8
CUT
10
37.7665
20
-67.3662
0
VERTEX
8
CUT
10
37.7971
20
-67.3613
0
VERTEX
8
CUT
10
37.8276
20
-67.3561
0
VERTEX
8
CUT
10
37.8581
20
-67.3507
0
VERTEX
8
CUT
10
38.0799
20
-67.3092
0
VERTEX
8
CUT
10
38.1142
20
-67.3024
0
VERTEX
8
CUT
10
38.1484
20
-67.2953
0
VERTEX
8
CUT
10
38.1825
20
-67.2879
0
VERTEX
8
CUT
10
38.3605
20
-67.2474
0
VERTEX
8
CUT
10
38.3981
20
-67.2384
0
VERTEX
8
CUT
10
38.4356
20
-67.2290
0
VERTEX
8
CUT
10
38.4731
20
-67.2192
0
VERTEX
8
CUT
10
38.6120
20
-67.1812
0
VERTEX
8
CUT
10
38.6524
20
-67.1697
0
VERTEX
8
CUT
10
38.6927
20
-67.1576
0
VERTEX
8
CUT
10
38.7329
20
-67.1451
0
VERTEX
8
CUT
10
38.8392
20
-67.1106
0
VERTEX
8
CUT
10
38.8817
20
-67.0963
0
VERTEX
8
CUT
10
38.9239
20
-67.0814
0
VERTEX
8
CUT
10
38.9660
20
-67.0660
0
VERTEX
8
CUT
10
39.0475
20
-67.0350
0
VERTEX
8
CUT
10
39.0909
20
-67.0178
0
VERTEX
8
CUT
10
39.1340
20
-67.0002
0
VERTEX
8
CUT
10
39.1769
20
-66.9819
0
VERTEX
8
CUT
10
39.2428
20
-66.9528
0
VERTEX
8
CUT
10
39.2859
20
-66.9332
0
VERTEX
8
CUT
10
39.3286
20
-66.9130
0
VERTEX
8
CUT
10
39.3711
20
-66.8922
0
VERTEX
8
CUT
10
39.4309
20
-66.8620
0
VERTEX
8
CUT
10
39.4723
20
-66.8404
0
VERTEX
8
CUT
10
39.5134
20
-66.8183
0
VERTEX
8
CUT
10
39.5542
20
-66.7957
0
VERTEX
8
CUT
10
39.6173
20
-66.7596
0
VERTEX
8
CUT
10
39.6558
20
-66.7369
0
VERTEX
8
CUT
10
39.6941
20
-66.7137
0
VERTEX
8
CUT
10
39.7321
20
-66.6900
0
VERTEX
8
CUT
10
39.7713
20
-66.6650
0
VERTEX
8
CUT
10
39.8184
20
-66.6338
0
VERTEX
8
CUT
10
39.8649
20
-66.6019
0
VERTEX
8
CUT
10
39.8928
20
-66.5821
0
VERTEX
8
CUT
10
39.9371
20
-66.5483
0
VERTEX
8
CUT
10
39.9525
20
-66.5360
0
VERTEX
8
CUT
10
40.0502
20
-66.4514
0
VERTEX
8
CUT
10
40.1269
20
-66.3730
0
VERTEX
8
CUT
10
40.1954
20
-66.2905
0
VERTEX
8
CUT
10
40.2603
20
-66.1982
0
VERTEX
8
CUT
10
40.3218
20
-66.0953
0
VERTEX
8
CUT
10
40.3339
20
-66.0733
0
VERTEX
8
CUT
10
40.3565
20
-66.0306
0
VERTEX
8
CUT
10
40.3738
20
-65.9952
0
VERTEX
8
CUT
10
40.3967
20
-65.9463
0
VERTEX
8
CUT
10
40.4190
20
-65.8970
0
VERTEX
8
CUT
10
40.4270
20
-65.8785
0
VERTEX
8
CUT
10
40.4449
20
-65.8357
0
VERTEX
8
CUT
10
40.4622
20
-65.7928
0
VERTEX
8
CUT
10
40.4790
20
-65.7496
0
VERTEX
8
CUT
10
40.5041
20
-65.6823
0
VERTEX
8
CUT
10
40.5172
20
-65.6461
0
VERTEX
8
CUT
10
40.5299
20
-65.6098
0
VERTEX
8
CUT
10
40.5422
20
-65.5734
0
VERTEX
8
CUT
10
40.5808
20
-65.4548
0
VERTEX
8
CUT
10
40.5901
20
-65.4254
0
VERTEX
8
CUT
10
40.5991
20
-65.3959
0
VERTEX
8
CUT
10
40.6079
20
-65.3663
0
VERTEX
8
CUT
10
40.6569
20
-65.1961
0
VERTEX
8
CUT
10
40.6633
20
-65.1733
0
VERTEX
8
CUT
10
40.6696
20
-65.1505
0
VERTEX
8
CUT
10
40.6757
20
-65.1277
0
VERTEX
8
CUT
10
40.7330
20
-64.9071
0
VERTEX
8
CUT
10
40.7372
20
-64.8907
0
VERTEX
8
CUT
10
40.7413
20
-64.8742
0
VERTEX
8
CUT
10
40.7453
20
-64.8577
0
VERTEX
8
CUT
10
40.8098
20
-64.5889
0
VERTEX
8
CUT
10
40.8123
20
-64.5784
0
VERTEX
8
CUT
10
40.8147
20
-64.5678
0
VERTEX
8
CUT
10
40.8172
20
-64.5572
0
VERTEX
8
CUT
10
40.8886
20
-64.2427
0
VERTEX
8
CUT
10
40.8898
20
-64.2376
0
VERTEX
8
CUT
10
40.8909
20
-64.2324
0
VERTEX
8
CUT
10
40.8921
20
-64.2273
0
VERTEX
8
CUT
10
40.9710
20
-63.8698
0
VERTEX
8
CUT
10
40.9711
20
-63.8695
0
VERTEX
8
CUT
10
40.9712
20
-63.8691
0
VERTEX
8
CUT
10
40.9712
20
-63.8689
0
VERTEX
8
CUT
10
41.0473
20
-63.5239
0
VERTEX
8
CUT
10
41.0505
20
-63.5094
0
VERTEX
8
CUT
10
41.0535
20
-63.4950
0
VERTEX
8
CUT
10
41.0565
20
-63.4805
0
VERTEX
8
CUT
10
41.1149
20
-63.1934
0
VERTEX
8
CUT
10
41.1204
20
-63.1656
0
VERTEX
8
CUT
10
41.1256
20
-63.1379
0
VERTEX
8
CUT
10
41.1305
20
-63.1100
0
VERTEX
8
CUT
10
41.1794
20
-62.8241
0
VERTEX
8
CUT
10
41.1832
20
-62.8009
0
VERTEX
8
CUT
10
41.1869
20
-62.7776
0
VERTEX
8
CUT
10
41.1904
20
-62.7543
0
VERTEX
8
CUT
10
41.2381
20
-62.4236
0
VERTEX
8
CUT
10
41.2408
20
-62.4040
0
VERTEX
8
CUT
10
41.2434
20
-62.3844
0
VERTEX
8
CUT
10
41.2459
20
-62.3648
0
VERTEX
8
CUT
10
41.2908
20
-61.9959
0
VERTEX
8
CUT
10
41.2927
20
-61.9793
0
VERTEX
8
CUT
10
41.2946
20
-61.9628
0
VERTEX
8
CUT
10
41.2964
20
-61.9462
0
VERTEX
8
CUT
10
41.3377
20
-61.5449
0
VERTEX
8
CUT
10
41.3391
20
-61.5309
0
VERTEX
8
CUT
10
41.3404
20
-61.5169
0
VERTEX
8
CUT
10
41.3417
20
-61.5029
0
VERTEX
8
CUT
10
41.3791
20
-61.0740
0
VERTEX
8
CUT
10
41.3801
20
-61.0622
0
VERTEX
8
CUT
10
41.3810
20
-61.0504
0
VERTEX
8
CUT
10
41.3820
20
-61.0385
0
VERTEX
8
CUT
10
41.4154
20
-60.5866
0
VERTEX
8
CUT
10
41.4161
20
-60.5766
0
VERTEX
8
CUT
10
41.4168
20
-60.5667
0
VERTEX
8
CUT
10
41.4174
20
-60.5567
0
VERTEX
8
CUT
10
41.4470
20
-60.0856
0
VERTEX
8
CUT
10
41.4475
20
-60.0773
0
VERTEX
8
CUT
10
41.4480
20
-60.0690
0
VERTEX
8
CUT
10
41.4484
20
-60.0607
0
VERTEX
8
CUT
10
41.4745
20
-59.5741
0
VERTEX
8
CUT
10
41.4748
20
-59.5673
0
VERTEX
8
CUT
10
41.4752
20
-59.5605
0
VERTEX
8
CUT
10
41.4755
20
-59.5536
0
VERTEX
8
CUT
10
41.4984
20
-59.0548
0
VERTEX
8
CUT
10
41.4986
20
-59.0493
0
VERTEX
8
CUT
10
41.4989
20
-59.0439
0
VERTEX
8
CUT
10
41.4991
20
-59.0384
0
VERTEX
8
CUT
10
41.5193
20
-58.5304
0
VERTEX
8
CUT
10
41.5195
20
-58.5262
0
VERTEX
8
CUT
10
41.5197
20
-58.5221
0
VERTEX
8
CUT
10
41.5198
20
-58.5179
0
VERTEX
8
CUT
10
41.5379
20
-58.0036
0
VERTEX
8
CUT
10
41.5380
20
-58.0007
0
VERTEX
8
CUT
10
41.5381
20
-57.9977
0
VERTEX
8
CUT
10
41.5382
20
-57.9948
0
VERTEX
8
CUT
10
41.5547
20
-57.4769
0
VERTEX
8
CUT
10
41.5548
20
-57.4752
0
VERTEX
8
CUT
10
41.5548
20
-57.4734
0
VERTEX
8
CUT
10
41.5549
20
-57.4717
0
VERTEX
8
CUT
10
41.5705
20
-56.9527
0
VERTEX
8
CUT
10
41.5705
20
-56.9522
0
VERTEX
8
CUT
10
41.5705
20
-56.9517
0
VERTEX
8
CUT
10
41.5705
20
-56.9512
0
VERTEX
8
CUT
10
41.5856
20
-56.4385
0
VERTEX
8
CUT
10
41.5856
20
-56.4380
0
VERTEX
8
CUT
10
41.5856
20
-56.4374
0
VERTEX
8
CUT
10
41.5857
20
-56.4368
0
VERTEX
8
CUT
10
41.5858
20
-56.4323
0
VERTEX
8
CUT
10
41.5858
20
-56.4317
0
VERTEX
8
CUT
10
41.5858
20
-56.4311
0
VERTEX
8
CUT
10
41.5858
20
-56.4306
0
VERTEX
8
CUT
10
41.6010
20
-55.9297
0
VERTEX
8
CUT
10
41.6011
20
-55.9289
0
VERTEX
8
CUT
10
41.6011
20
-55.9280
0
VERTEX
8
CUT
10
41.6011
20
-55.9271
0
VERTEX
8
CUT
10
41.6155
20
-55.4349
0
VERTEX
8
CUT
10
41.6156
20
-55.4314
0
VERTEX
8
CUT
10
41.6157
20
-55.4278
0
VERTEX
8
CUT
10
41.6158
20
-55.4243
0
VERTEX
8
CUT
10
41.6283
20
-54.9319
0
VERTEX
8
CUT
10
41.6284
20
-54.9282
0
VERTEX
8
CUT
10
41.6285
20
-54.9244
0
VERTEX
8
CUT
10
41.6286
20
-54.9207
0
VERTEX
8
CUT
10
41.6392
20
-54.4232
0
VERTEX
8
CUT
10
41.6392
20
-54.4192
0
VERTEX
8
CUT
10
41.6393
20
-54.4153
0
VERTEX
8
CUT
10
41.6394
20
-54.4113
0
VERTEX
8
CUT
10
41.6478
20
-53.9108
0
VERTEX
8
CUT
10
41.6479
20
-53.9065
0
VERTEX
8
CUT
10
41.6479
20
-53.9023
0
VERTEX
8
CUT
10
41.6480
20
-53.8980
0
VERTEX
8
CUT
10
41.6540
20
-53.3966
0
VERTEX
8
CUT
10
41.6541
20
-53.3921
0
VERTEX
8
CUT
10
41.6541
20
-53.3875
0
VERTEX
8
CUT
10
41.6542
20
-53.3830
0
VERTEX
8
CUT
10
41.6577
20
-52.8828
0
VERTEX
8
CUT
10
41.6577
20
-52.8779
0
VERTEX
8
CUT
10
41.6577
20
-52.8730
0
VERTEX
8
CUT
10
41.6577
20
-52.8681
0
VERTEX
8
CUT
10
41.6585
20
-52.3714
0
VERTEX
8
CUT
10
41.6585
20
-52.3661
0
VERTEX
8
CUT
10
41.6585
20
-52.3607
0
VERTEX
8
CUT
10
41.6585
20
-52.3554
0
VERTEX
8
CUT
10
41.6563
20
-51.8645
0
VERTEX
8
CUT
10
41.6563
20
-51.8586
0
VERTEX
8
CUT
10
41.6563
20
-51.8528
0
VERTEX
8
CUT
10
41.6562
20
-51.8470
0
VERTEX
8
CUT
10
41.6510
20
-51.3641
0
VERTEX
8
CUT
10
41.6509
20
-51.3577
0
VERTEX
8
CUT
10
41.6508
20
-51.3513
0
VERTEX
8
CUT
10
41.6507
20
-51.3450
0
VERTEX
8
CUT
10
41.6422
20
-50.8725
0
VERTEX
8
CUT
10
41.6421
20
-50.8654
0
VERTEX
8
CUT
10
41.6420
20
-50.8584
0
VERTEX
8
CUT
10
41.6418
20
-50.8514
0
VERTEX
8
CUT
10
41.6300
20
-50.3918
0
VERTEX
8
CUT
10
41.6297
20
-50.3840
0
VERTEX
8
CUT
10
41.6295
20
-50.3762
0
VERTEX
8
CUT
10
41.6293
20
-50.3684
0
VERTEX
8
CUT
10
41.6140
20
-49.9244
0
VERTEX
8
CUT
10
41.6137
20
-49.9157
0
VERTEX
8
CUT
10
41.6133
20
-49.9070
0
VERTEX
8
CUT
10
41.6130
20
-49.8982
0
VERTEX
8
CUT
10
41.5942
20
-49.4726
0
VERTEX
8
CUT
10
41.5937
20
-49.4628
0
VERTEX
8
CUT
10
41.5932
20
-49.4530
0
VERTEX
8
CUT
10
41.5927
20
-49.4432
0
VERTEX
8
CUT
10
41.5705
20
-49.0389
0
VERTEX
8
CUT
10
41.5698
20
-49.0278
0
VERTEX
8
CUT
10
41.5692
20
-49.0167
0
VERTEX
8
CUT
10
41.5685
20
-49.0056
0
VERTEX
8
CUT
10
41.5429
20
-48.6261
0
VERTEX
8
CUT
10
41.5420
20
-48.6133
0
VERTEX
8
CUT
10
41.5410
20
-48.6006
0
VERTEX
8
CUT
10
41.5400
20
-48.5879
0
VERTEX
8
CUT
10
41.5099
20
-48.2189
0
VERTEX
8
CUT
10
41.5092
20
-48.2106
0
VERTEX
8
CUT
10
41.5085
20
-48.2023
0
VERTEX
8
CUT
10
41.5077
20
-48.1940
0
VERTEX
8
CUT
10
41.4734
20
-47.8167
0
VERTEX
8
CUT
10
41.4731
20
-47.8129
0
VERTEX
8
CUT
10
41.4727
20
-47.8091
0
VERTEX
8
CUT
10
41.4724
20
-47.8054
0
VERTEX
8
CUT
10
41.4371
20
-47.4347
0
VERTEX
8
CUT
10
41.4365
20
-47.4290
0
VERTEX
8
CUT
10
41.4359
20
-47.4233
0
VERTEX
8
CUT
10
41.4354
20
-47.4176
0
VERTEX
8
CUT
10
41.4002
20
-47.0713
0
VERTEX
8
CUT
10
41.3994
20
-47.0635
0
VERTEX
8
CUT
10
41.3985
20
-47.0558
0
VERTEX
8
CUT
10
41.3977
20
-47.0480
0
VERTEX
8
CUT
10
41.3622
20
-46.7261
0
VERTEX
8
CUT
10
41.3610
20
-46.7161
0
VERTEX
8
CUT
10
41.3599
20
-46.7061
0
VERTEX
8
CUT
10
41.3587
20
-46.6961
0
VERTEX
8
CUT
10
41.3224
20
-46.3984
0
VERTEX
8
CUT
10
41.3209
20
-46.3861
0
VERTEX
8
CUT
10
41.3193
20
-46.3738
0
VERTEX
8
CUT
10
41.3177
20
-46.3615
0
VERTEX
8
CUT
10
41.2805
20
-46.0876
0
VERTEX
8
CUT
10
41.2784
20
-46.0729
0
VERTEX
8
CUT
10
41.2763
20
-46.0582
0
VERTEX
8
CUT
10
41.2741
20
-46.0435
0
VERTEX
8
CUT
10
41.2359
20
-45.7928
0
VERTEX
8
CUT
10
41.2332
20
-45.7757
0
VERTEX
8
CUT
10
41.2304
20
-45.7586
0
VERTEX
8
CUT
10
41.2275
20
-45.7414
0
VERTEX
8
CUT
10
41.1882
20
-45.5132
0
VERTEX
8
CUT
10
41.1847
20
-45.4936
0
VERTEX
8
CUT
10
41.1811
20
-45.4741
0
VERTEX
8
CUT
10
41.1774
20
-45.4546
0
VERTEX
8
CUT
10
41.1370
20
-45.2475
0
VERTEX
8
CUT
10
41.1326
20
-45.2256
0
VERTEX
8
CUT
10
41.1280
20
-45.2038
0
VERTEX
8
CUT
10
41.1234
20
-45.1820
0
VERTEX
8
CUT
10
41.0819
20
-44.9945
0
VERTEX
8
CUT
10
41.0764
20
-44.9705
0
VERTEX
8
CUT
10
41.0708
20
-44.9465
0
VERTEX
8
CUT
10
41.0650
20
-44.9225
0
VERTEX
8
CUT
10
41.0225
20
-44.7526
0
VERTEX
8
CUT
10
41.0158
20
-44.7266
0
VERTEX
8
CUT
10
41.0089
20
-44.7007
0
VERTEX
8
CUT
10
41.0018
20
-44.6749
0
VERTEX
8
CUT
10
40.9582
20
-44.5200
0
VERTEX
8
CUT
10
40.9502
20
-44.4925
0
VERTEX
8
CUT
10
40.9420
20
-44.4650
0
VERTEX
8
CUT
10
40.9335
20
-44.4376
0
VERTEX
8
CUT
10
40.8883
20
-44.2949
0
VERTEX
8
CUT
10
40.8790
20
-44.2662
0
VERTEX
8
CUT
10
40.8693
20
-44.2375
0
VERTEX
8
CUT
10
40.8595
20
-44.2089
0
VERTEX
8
CUT
10
40.8122
20
-44.0752
0
VERTEX
8
CUT
10
40.8014
20
-44.0457
0
VERTEX
8
CUT
10
40.7904
20
-44.0162
0
VERTEX
8
CUT
10
40.7791
20
-43.9869
0
VERTEX
8
CUT
10
40.7287
20
-43.8587
0
VERTEX
8
CUT
10
40.7166
20
-43.8289
0
VERTEX
8
CUT
10
40.7043
20
-43.7991
0
VERTEX
8
CUT
10
40.6917
20
-43.7695
0
VERTEX
8
CUT
10
40.6429
20
-43.6577
0
VERTEX
8
CUT
10
40.6274
20
-43.6230
0
VERTEX
8
CUT
10
40.6115
20
-43.5885
0
VERTEX
8
CUT
10
40.5952
20
-43.5541
0
VERTEX
8
CUT
10
40.5531
20
-43.4678
0
VERTEX
8
CUT
10
40.5344
20
-43.4305
0
VERTEX
8
CUT
10
40.5153
20
-43.3934
0
VERTEX
8
CUT
10
40.4957
20
-43.3565
0
VERTEX
8
CUT
10
40.4512
20
-43.2751
0
VERTEX
8
CUT
10
40.4323
20
-43.2413
0
VERTEX
8
CUT
10
40.4131
20
-43.2078
0
VERTEX
8
CUT
10
40.3934
20
-43.1744
0
VERTEX
8
CUT
10
40.3366
20
-43.0802
0
VERTEX
8
CUT
10
40.3180
20
-43.0500
0
VERTEX
8
CUT
10
40.2991
20
-43.0200
0
VERTEX
8
CUT
10
40.2799
20
-42.9902
0
VERTEX
8
CUT
10
40.2093
20
-42.8829
0
VERTEX
8
CUT
10
40.1914
20
-42.8563
0
VERTEX
8
CUT
10
40.1733
20
-42.8297
0
VERTEX
8
CUT
10
40.1549
20
-42.8034
0
VERTEX
8
CUT
10
40.0694
20
-42.6830
0
VERTEX
8
CUT
10
40.0525
20
-42.6597
0
VERTEX
8
CUT
10
40.0355
20
-42.6365
0
VERTEX
8
CUT
10
40.0183
20
-42.6135
0
VERTEX
8
CUT
10
39.9170
20
-42.4802
0
VERTEX
8
CUT
10
39.9016
20
-42.4601
0
VERTEX
8
CUT
10
39.8859
20
-42.4402
0
VERTEX
8
CUT
10
39.8702
20
-42.4203
0
VERTEX
8
CUT
10
39.7528
20
-42.2746
0
VERTEX
8
CUT
10
39.7389
20
-42.2575
0
VERTEX
8
CUT
10
39.7249
20
-42.2405
0
VERTEX
8
CUT
10
39.7108
20
-42.2237
0
VERTEX
8
CUT
10
39.5772
20
-42.0659
0
VERTEX
8
CUT
10
39.5651
20
-42.0517
0
VERTEX
8
CUT
10
39.5529
20
-42.0375
0
VERTEX
8
CUT
10
39.5406
20
-42.0235
0
VERTEX
8
CUT
10
39.3910
20
-41.8540
0
VERTEX
8
CUT
10
39.3808
20
-41.8425
0
VERTEX
8
CUT
10
39.3705
20
-41.8310
0
VERTEX
8
CUT
10
39.3601
20
-41.8196
0
VERTEX
8
CUT
10
39.1948
20
-41.6387
0
VERTEX
8
CUT
10
39.1866
20
-41.6297
0
VERTEX
8
CUT
10
39.1784
20
-41.6208
0
VERTEX
8
CUT
10
39.1701
20
-41.6119
0
VERTEX
8
CUT
10
38.9896
20
-41.4197
0
VERTEX
8
CUT
10
38.9835
20
-41.4132
0
VERTEX
8
CUT
10
38.9773
20
-41.4067
0
VERTEX
8
CUT
10
38.9712
20
-41.4002
0
VERTEX
8
CUT
10
38.7762
20
-41.1966
0
VERTEX
8
CUT
10
38.7722
20
-41.1924
0
VERTEX
8
CUT
10
38.7682
20
-41.1883
0
VERTEX
8
CUT
10
38.7642
20
-41.1841
0
VERTEX
8
CUT
10
38.5555
20
-40.9690
0
VERTEX
8
CUT
10
38.5537
20
-40.9671
0
VERTEX
8
CUT
10
38.5519
20
-40.9653
0
VERTEX
8
CUT
10
38.5501
20
-40.9634
0
VERTEX
8
CUT
10
38.3314
20
-40.7391
0
VERTEX
8
CUT
10
38.3311
20
-40.7388
0
VERTEX
8
CUT
10
38.3307
20
-40.7385
0
VERTEX
8
CUT
10
38.3304
20
-40.7382
0
VERTEX
8
CUT
10
38.3280
20
-40.7356
0
VERTEX
8
CUT
10
38.3277
20
-40.7354
0
VERTEX
8
CUT
10
38.3274
20
-40.7350
0
VERTEX
8
CUT
10
38.3271
20
-40.7347
0
VERTEX
8
CUT
10
38.1139
20
-40.5158
0
VERTEX
8
CUT
10
38.1121
20
-40.5140
0
VERTEX
8
CUT
10
38.1099
20
-40.5117
0
VERTEX
8
CUT
10
38.1081
20
-40.5099
0
VERTEX
8
CUT
10
38.0926
20
-40.4939
0
VERTEX
8
CUT
10
38.0909
20
-40.4921
0
VERTEX
8
CUT
10
38.0886
20
-40.4898
0
VERTEX
8
CUT
10
38.0869
20
-40.4880
0
VERTEX
8
CUT
10
37.8922
20
-40.2865
0
VERTEX
8
CUT
10
37.8857
20
-40.2797
0
VERTEX
8
CUT
10
37.8791
20
-40.2730
0
VERTEX
8
CUT
10
37.8725
20
-40.2663
0
VERTEX
8
CUT
10
37.7081
20
-40.0996
0
VERTEX
8
CUT
10
37.6924
20
-40.0839
0
VERTEX
8
CUT
10
37.6766
20
-40.0683
0
VERTEX
8
CUT
10
37.6608
20
-40.0528
0
VERTEX
8
CUT
10
37.5073
20
-39.9046
0
VERTEX
8
CUT
10
37.4937
20
-39.8916
0
VERTEX
8
CUT
10
37.4801
20
-39.8788
0
VERTEX
8
CUT
10
37.4664
20
-39.8659
0
VERTEX
8
CUT
10
37.2929
20
-39.7054
0
VERTEX
8
CUT
10
37.2814
20
-39.6948
0
VERTEX
8
CUT
10
37.2697
20
-39.6842
0
VERTEX
8
CUT
10
37.2581
20
-39.6737
0
VERTEX
8
CUT
10
37.0668
20
-39.5027
0
VERTEX
8
CUT
10
37.0572
20
-39.4942
0
VERTEX
8
CUT
10
37.0476
20
-39.4857
0
VERTEX
8
CUT
10
37.0379
20
-39.4772
0
VERTEX
8
CUT
10
36.8308
20
-39.2974
0
VERTEX
8
CUT
10
36.8231
20
-39.2907
0
VERTEX
8
CUT
10
36.8153
20
-39.2841
0
VERTEX
8
CUT
10
36.8075
20
-39.2774
0
VERTEX
8
CUT
10
36.5867
20
-39.0900
0
VERTEX
8
CUT
10
36.5807
20
-39.0850
0
VERTEX
8
CUT
10
36.5748
20
-39.0800
0
VERTEX
8
CUT
10
36.5689
20
-39.0750
0
VERTEX
8
CUT
10
36.3360
20
-38.8808
0
VERTEX
8
CUT
10
36.3319
20
-38.8774
0
VERTEX
8
CUT
10
36.3278
20
-38.8740
0
VERTEX
8
CUT
10
36.3236
20
-38.8706
0
VERTEX
8
CUT
10
36.0804
20
-38.6702
0
VERTEX
8
CUT
10
36.0781
20
-38.6683
0
VERTEX
8
CUT
10
36.0758
20
-38.6664
0
VERTEX
8
CUT
10
36.0735
20
-38.6645
0
VERTEX
8
CUT
10
35.8215
20
-38.4583
0
VERTEX
8
CUT
10
35.8210
20
-38.4579
0
VERTEX
8
CUT
10
35.8206
20
-38.4575
0
VERTEX
8
CUT
10
35.8201
20
-38.4571
0
VERTEX
8
CUT
10
35.5702
20
-38.2529
0
VERTEX
8
CUT
10
35.5692
20
-38.2521
0
VERTEX
8
CUT
10
35.5680
20
-38.2511
0
VERTEX
8
CUT
10
35.5670
20
-38.2503
0
VERTEX
8
CUT
10
35.5585
20
-38.2433
0
VERTEX
8
CUT
10
35.5575
20
-38.2425
0
VERTEX
8
CUT
10
35.5563
20
-38.2415
0
VERTEX
8
CUT
10
35.5553
20
-38.2407
0
VERTEX
8
CUT
10
35.3220
20
-38.0492
0
VERTEX
8
CUT
10
35.3197
20
-38.0473
0
VERTEX
8
CUT
10
35.3168
20
-38.0449
0
VERTEX
8
CUT
10
35.3144
20
-38.0430
0
VERTEX
8
CUT
10
35.2941
20
-38.0262
0
VERTEX
8
CUT
10
35.2917
20
-38.0243
0
VERTEX
8
CUT
10
35.2888
20
-38.0219
0
VERTEX
8
CUT
10
35.2865
20
-38.0199
0
VERTEX
8
CUT
10
35.0754
20
-37.8449
0
VERTEX
8
CUT
10
35.0716
20
-37.8418
0
VERTEX
8
CUT
10
35.0669
20
-37.8378
0
VERTEX
8
CUT
10
35.0631
20
-37.8346
0
VERTEX
8
CUT
10
35.0300
20
-37.8069
0
VERTEX
8
CUT
10
35.0262
20
-37.8038
0
VERTEX
8
CUT
10
35.0214
20
-37.7998
0
VERTEX
8
CUT
10
35.0177
20
-37.7966
0
VERTEX
8
CUT
10
34.8318
20
-37.6399
0
VERTEX
8
CUT
10
34.8264
20
-37.6353
0
VERTEX
8
CUT
10
34.8196
20
-37.6296
0
VERTEX
8
CUT
10
34.8143
20
-37.6250
0
VERTEX
8
CUT
10
34.7672
20
-37.5849
0
VERTEX
8
CUT
10
34.7618
20
-37.5803
0
VERTEX
8
CUT
10
34.7551
20
-37.5745
0
VERTEX
8
CUT
10
34.7497
20
-37.5699
0
VERTEX
8
CUT
10
34.5925
20
-37.4341
0
VERTEX
8
CUT
10
34.5853
20
-37.4279
0
VERTEX
8
CUT
10
34.5763
20
-37.4200
0
VERTEX
8
CUT
10
34.5691
20
-37.4138
0
VERTEX
8
CUT
10
34.5065
20
-37.3588
0
VERTEX
8
CUT
10
34.4994
20
-37.3526
0
VERTEX
8
CUT
10
34.4905
20
-37.3447
0
VERTEX
8
CUT
10
34.4834
20
-37.3383
0
VERTEX
8
CUT
10
34.3586
20
-37.2271
0
VERTEX
8
CUT
10
34.3494
20
-37.2189
0
VERTEX
8
CUT
10
34.3379
20
-37.2085
0
VERTEX
8
CUT
10
34.3287
20
-37.2002
0
VERTEX
8
CUT
10
34.2486
20
-37.1273
0
VERTEX
8
CUT
10
34.2395
20
-37.1189
0
VERTEX
8
CUT
10
34.2281
20
-37.1085
0
VERTEX
8
CUT
10
34.2190
20
-37.1001
0
VERTEX
8
CUT
10
34.0937
20
-36.9836
0
VERTEX
8
CUT
10
34.0888
20
-36.9790
0
VERTEX
8
CUT
10
34.0827
20
-36.9733
0
VERTEX
8
CUT
10
34.0778
20
-36.9688
0
VERTEX
8
CUT
10
34.0353
20
-36.9288
0
VERTEX
8
CUT
10
34.0305
20
-36.9242
0
VERTEX
8
CUT
10
34.0244
20
-36.9185
0
VERTEX
8
CUT
10
34.0196
20
-36.9139
0
VERTEX
8
CUT
10
33.8547
20
-36.7572
0
VERTEX
8
CUT
10
33.8540
20
-36.7566
0
VERTEX
8
CUT
10
33.8532
20
-36.7559
0
VERTEX
8
CUT
10
33.8525
20
-36.7552
0
VERTEX
8
CUT
10
33.6677
20
-36.5799
0
VERTEX
8
CUT
10
33.6674
20
-36.5797
0
VERTEX
8
CUT
10
33.6671
20
-36.5794
0
VERTEX
8
CUT
10
33.6667
20
-36.5790
0
VERTEX
8
CUT
10
33.6640
20
-36.5764
0
VERTEX
8
CUT
10
33.6637
20
-36.5761
0
VERTEX
8
CUT
10
33.6633
20
-36.5758
0
VERTEX
8
CUT
10
33.6630
20
-36.5755
0
VERTEX
8
CUT
10
33.4884
20
-36.4097
0
VERTEX
8
CUT
10
33.4872
20
-36.4086
0
VERTEX
8
CUT
10
33.4857
20
-36.4072
0
VERTEX
8
CUT
10
33.4846
20
-36.4061
0
VERTEX
8
CUT
10
33.4743
20
-36.3963
0
VERTEX
8
CUT
10
33.4732
20
-36.3952
0
VERTEX
8
CUT
10
33.4717
20
-36.3938
0
VERTEX
8
CUT
10
33.4705
20
-36.3927
0
VERTEX
8
CUT
10
33.3116
20
-36.2410
0
VERTEX
8
CUT
10
33.3095
20
-36.2390
0
VERTEX
8
CUT
10
33.3069
20
-36.2365
0
VERTEX
8
CUT
10
33.3048
20
-36.2345
0
VERTEX
8
CUT
10
33.2865
20
-36.2169
0
VERTEX
8
CUT
10
33.2844
20
-36.2149
0
VERTEX
8
CUT
10
33.2818
20
-36.2124
0
VERTEX
8
CUT
10
33.2797
20
-36.2104
0
VERTEX
8
CUT
10
33.1373
20
-36.0731
0
VERTEX
8
CUT
10
33.1342
20
-36.0701
0
VERTEX
8
CUT
10
33.1304
20
-36.0664
0
VERTEX
8
CUT
10
33.1273
20
-36.0634
0
VERTEX
8
CUT
10
33.1003
20
-36.0372
0
VERTEX
8
CUT
10
33.0972
20
-36.0343
0
VERTEX
8
CUT
10
33.0934
20
-36.0305
0
VERTEX
8
CUT
10
33.0903
20
-36.0275
0
VERTEX
8
CUT
10
32.9652
20
-35.9051
0
VERTEX
8
CUT
10
32.9610
20
-35.9011
0
VERTEX
8
CUT
10
32.9559
20
-35.8960
0
VERTEX
8
CUT
10
32.9518
20
-35.8920
0
VERTEX
8
CUT
10
32.9157
20
-35.8564
0
VERTEX
8
CUT
10
32.9116
20
-35.8523
0
VERTEX
8
CUT
10
32.9065
20
-35.8472
0
VERTEX
8
CUT
10
32.9024
20
-35.8431
0
VERTEX
8
CUT
10
32.7950
20
-35.7361
0
VERTEX
8
CUT
10
32.7898
20
-35.7309
0
VERTEX
8
CUT
10
32.7833
20
-35.7244
0
VERTEX
8
CUT
10
32.7781
20
-35.7192
0
VERTEX
8
CUT
10
32.7327
20
-35.6733
0
VERTEX
8
CUT
10
32.7275
20
-35.6681
0
VERTEX
8
CUT
10
32.7211
20
-35.6615
0
VERTEX
8
CUT
10
32.7159
20
-35.6563
0
VERTEX
8
CUT
10
32.6267
20
-35.5651
0
VERTEX
8
CUT
10
32.6204
20
-35.5587
0
VERTEX
8
CUT
10
32.6125
20
-35.5505
0
VERTEX
8
CUT
10
32.6062
20
-35.5440
0
VERTEX
8
CUT
10
32.5513
20
-35.4871
0
VERTEX
8
CUT
10
32.5450
20
-35.4805
0
VERTEX
8
CUT
10
32.5372
20
-35.4724
0
VERTEX
8
CUT
10
32.5310
20
-35.4658
0
VERTEX
8
CUT
10
32.4601
20
-35.3912
0
VERTEX
8
CUT
10
32.4526
20
-35.3833
0
VERTEX
8
CUT
10
32.4434
20
-35.3735
0
VERTEX
8
CUT
10
32.4360
20
-35.3656
0
VERTEX
8
CUT
10
32.3716
20
-35.2966
0
VERTEX
8
CUT
10
32.3643
20
-35.2887
0
VERTEX
8
CUT
10
32.3573
20
-35.2812
0
VERTEX
8
CUT
10
32.2810
20
-35.1945
0
VERTEX
8
CUT
10
32.1972
20
-35.0946
0
VERTEX
8
CUT
10
32.1316
20
-35.0129
0
VERTEX
8
CUT
10
31.6146
20
-34.3389
0
VERTEX
8
CUT
10
31.4946
20
-34.1674
0
VERTEX
8
CUT
10
31.3544
20
-33.9473
0
VERTEX
8
CUT
10
31.2497
20
-33.7659
0
VERTEX
8
CUT
10
30.8879
20
-33.0706
0
VERTEX
8
CUT
10
30.7994
20
-32.8808
0
VERTEX
8
CUT
10
30.6996
20
-32.6397
0
VERTEX
8
CUT
10
30.6280
20
-32.4429
0
VERTEX
8
CUT
10
30.3924
20
-31.6953
0
VERTEX
8
CUT
10
30.3382
20
-31.4930
0
VERTEX
8
CUT
10
30.2818
20
-31.2382
0
VERTEX
8
CUT
10
30.2454
20
-31.0320
0
VERTEX
8
CUT
10
30.1368
20
-30.2060
0
VERTEX
8
CUT
10
30.1233
20
-30.0759
0
VERTEX
8
CUT
10
30.1109
20
-29.9131
0
VERTEX
8
CUT
10
30.1045
20
-29.7824
0
VERTEX
8
CUT
10
30.1009
20
-29.6197
0
VERTEX
8
CUT
10
30.1005
20
-29.5936
0
VERTEX
8
CUT
10
30.1001
20
-29.5610
0
VERTEX
8
CUT
10
30.1000
20
-29.5349
0
VERTEX
8
CUT
10
30.1000
20
54.9166
0
VERTEX
8
CUT
10
30.0998
20
54.9460
0
VERTEX
8
CUT
10
30.0993
20
54.9754
0
VERTEX
8
CUT
10
30.0986
20
55.0049
0
VERTEX
8
CUT
10
30.0875
20
55.3433
0
VERTEX
8
CUT
10
30.0846
20
55.4021
0
VERTEX
8
CUT
10
30.0807
20
55.4608
0
VERTEX
8
CUT
10
30.0759
20
55.5195
0
VERTEX
8
CUT
10
30.0509
20
55.7734
0
VERTEX
8
CUT
10
30.0442
20
55.8319
0
VERTEX
8
CUT
10
30.0365
20
55.8902
0
VERTEX
8
CUT
10
30.0279
20
55.9485
0
VERTEX
8
CUT
10
29.9863
20
56.2002
0
VERTEX
8
CUT
10
29.9758
20
56.2581
0
VERTEX
8
CUT
10
29.9643
20
56.3158
0
VERTEX
8
CUT
10
29.9519
20
56.3734
0
VERTEX
8
CUT
10
29.8939
20
56.6218
0
VERTEX
8
CUT
10
29.8796
20
56.6790
0
VERTEX
8
CUT
10
29.8644
20
56.7358
0
VERTEX
8
CUT
10
29.8482
20
56.7924
0
VERTEX
8
CUT
10
29.7742
20
57.0365
0
VERTEX
8
CUT
10
29.7561
20
57.0926
0
VERTEX
8
CUT
10
29.7372
20
57.1483
0
VERTEX
8
CUT
10
29.7174
20
57.2038
0
VERTEX
8
CUT
10
29.6275
20
57.4425
0
VERTEX
8
CUT
10
29.6059
20
57.4973
0
VERTEX
8
CUT
10
29.5834
20
57.5516
0
VERTEX
8
CUT
10
29.5600
20
57.6057
0
VERTEX
8
CUT
10
29.4547
20
57.8381
0
VERTEX
8
CUT
10
29.4295
20
57.8913
0
VERTEX
8
CUT
10
29.4035
20
57.9441
0
VERTEX
8
CUT
10
29.3766
20
57.9964
0
VERTEX
8
CUT
10
29.2563
20
58.2214
0
VERTEX
8
CUT
10
29.2277
20
58.2729
0
VERTEX
8
CUT
10
29.1983
20
58.3239
0
VERTEX
8
CUT
10
29.1680
20
58.3744
0
VERTEX
8
CUT
10
29.0333
20
58.5910
0
VERTEX
8
CUT
10
29.0014
20
58.6405
0
VERTEX
8
CUT
10
28.9687
20
58.6894
0
VERTEX
8
CUT
10
28.9352
20
58.7379
0
VERTEX
8
CUT
10
28.7866
20
58.9452
0
VERTEX
8
CUT
10
28.7515
20
58.9925
0
VERTEX
8
CUT
10
28.7157
20
59.0392
0
VERTEX
8
CUT
10
28.6791
20
59.0853
0
VERTEX
8
CUT
10
28.5172
20
59.2825
0
VERTEX
8
CUT
10
28.4791
20
59.3275
0
VERTEX
8
CUT
10
28.4403
20
59.3717
0
VERTEX
8
CUT
10
28.4008
20
59.4153
0
VERTEX
8
CUT
10
28.2264
20
59.6015
0
VERTEX
8
CUT
10
28.1854
20
59.6438
0
VERTEX
8
CUT
10
28.1438
20
59.6854
0
VERTEX
8
CUT
10
28.1015
20
59.7264
0
VERTEX
8
CUT
10
27.9153
20
59.9008
0
VERTEX
8
CUT
10
27.8717
20
59.9403
0
VERTEX
8
CUT
10
27.8275
20
59.9791
0
VERTEX
8
CUT
10
27.7825
20
60.0172
0
VERTEX
8
CUT
10
27.5853
20
60.1791
0
VERTEX
8
CUT
10
27.5392
20
60.2157
0
VERTEX
8
CUT
10
27.4925
20
60.2515
0
VERTEX
8
CUT
10
27.4452
20
60.2866
0
VERTEX
8
CUT
10
27.2379
20
60.4352
0
VERTEX
8
CUT
10
27.1894
20
60.4687
0
VERTEX
8
CUT
10
27.1405
20
60.5014
0
VERTEX
8
CUT
10
27.0910
20
60.5333
0
VERTEX
8
CUT
10
26.8744
20
60.6680
0
VERTEX
8
CUT
10
26.8239
20
60.6983
0
VERTEX
8
CUT
10
26.7729
20
60.7277
0
VERTEX
8
CUT
10
26.7214
20
60.7563
0
VERTEX
8
CUT
10
26.4964
20
60.8766
0
VERTEX
8
CUT
10
26.4441
20
60.9035
0
VERTEX
8
CUT
10
26.3913
20
60.9295
0
VERTEX
8
CUT
10
26.3381
20
60.9547
0
VERTEX
8
CUT
10
26.1057
20
61.0600
0
VERTEX
8
CUT
10
26.0516
20
61.0834
0
VERTEX
8
CUT
10
25.9973
20
61.1059
0
VERTEX
8
CUT
10
25.9425
20
61.1275
0
VERTEX
8
CUT
10
25.7038
20
61.2174
0
VERTEX
8
CUT
10
25.6483
20
61.2372
0
VERTEX
8
CUT
10
25.5926
20
61.2561
0
VERTEX
8
CUT
10
25.5365
20
61.2742
0
VERTEX
8
CUT
10
25.2924
20
61.3482
0
VERTEX
8
CUT
10
25.2358
20
61.3644
0
VERTEX
8
CUT
10
25.1790
20
61.3796
0
VERTEX
8
CUT
10
25.1218
20
61.3939
0
VERTEX
8
CUT
10
24.8734
20
61.4519
0
VERTEX
8
CUT
10
24.8158
20
61.4643
0
VERTEX
8
CUT
10
24.7581
20
61.4758
0
VERTEX
8
CUT
10
24.7002
20
61.4863
0
VERTEX
8
CUT
10
24.4485
20
61.5279
0
VERTEX
8
CUT
10
24.3902
20
61.5365
0
VERTEX
8
CUT
10
24.3319
20
61.5442
0
VERTEX
8
CUT
10
24.2734
20
61.5509
0
VERTEX
8
CUT
10
24.0195
20
61.5759
0
VERTEX
8
CUT
10
23.9608
20
61.5807
0
VERTEX
8
CUT
10
23.9021
20
61.5846
0
VERTEX
8
CUT
10
23.8433
20
61.5875
0
VERTEX
8
CUT
10
23.5049
20
61.5986
0
VERTEX
8
CUT
10
23.4754
20
61.5993
0
VERTEX
8
CUT
10
23.4460
20
61.5998
0
VERTEX
8
CUT
10
23.4166
20
61.6000
0
VERTEX
8
CUT
10
-23.4166
20
61.6000
0
VERTEX
8
CUT
10
-23.4460
20
61.5998
0
VERTEX
8
CUT
10
-23.4754
20
61.5993
0
VERTEX
8
CUT
10
-23.5049
20
61.5986
0
VERTEX
8
CUT
10
-23.8433
20
61.5875
0
VERTEX
8
CUT
10
-23.9021
20
61.5846
0
VERTEX
8
CUT
10
-23.9608
20
61.5807
0
VERTEX
8
CUT
10
-24.0195
20
61.5759
0
VERTEX
8
CUT
10
-24.2734
20
61.5509
0
VERTEX
8
CUT
10
-24.3319
20
61.5442
0
VERTEX
8
CUT
10
-24.3902
20
61.5365
0
VERTEX
8
CUT
10
-24.4485
20
61.5279
0
VERTEX
8
CUT
10
-24.7002
20
61.4863
0
VERTEX
8
CUT
10
-24.7581
20
61.4758
0
VERTEX
8
CUT
10
-24.8158
20
61.4643
0
VERTEX
8
CUT
10
-24.8734
20
61.4519
0
VERTEX
8
CUT
10
-25.1218
20
61.3939
0
VERTEX
8
CUT
10
-25.1790
20
61.3796
0
VERTEX
8
CUT
10
-25.2358
20
61.3644
0
VERTEX
8
CUT
10
-25.2924
20
61.3482
0
VERTEX
8
CUT
10
-25.5365
20
61.2742
0
VERTEX
8
CUT
10
-25.5926
20
61.2561
0
VERTEX
8
CUT
10
-25.6483
20
61.2372
0
VERTEX
8
CUT
10
-25.7038
20
61.2174
0
VERTEX
8
CUT
10
-25.9425
20
61.1275
0
VERTEX
8
CUT
10
-25.9973
20
61.1059
0
VERTEX
8
CUT
10
-26.0516
20
61.0834
0
VERTEX
8
CUT
10
-26.1057
20
61.0600
0
VERTEX
8
CUT
10
-26.3381
20
60.9547
0
VERTEX
8
CUT
10
-26.3913
20
60.9295
0
VERTEX
8
CUT
10
-26.4441
20
60.9035
0
VERTEX
8
CUT
10
-26.4964
20
60.8766
0
VERTEX
8
CUT
10
-26.7214
20
60.7563
0
VERTEX
8
CUT
10
-26.7729
20
60.7277
0
VERTEX
8
CUT
10
-26.8239
20
60.6983
0
VERTEX
8
CUT
10
-26.8744
20
60.6680
0
VERTEX
8
CUT
10
-27.0910
20
60.5333
0
VERTEX
8
CUT
10
-27.1405
20
60.5014
0
VERTEX
8
CUT
10
-27.1894
20
60.4687
0
VERTEX
8
CUT
10
-27.2379
20
60.4352
0
VERTEX
8
CUT
10
-27.4452
20
60.2866
0
VERTEX
8
CUT
10
-27.4925
20
60.2515
0
VERTEX
8
CUT
10
-27.5392
20
60.2157
0
VERTEX
8
CUT
10
-27.5853
20
60.1791
0
VERTEX
8
CUT
10
-27.7825
20
60.0172
0
VERTEX
8
CUT
10
-27.8275
20
59.9791
0
VERTEX
8
CUT
10
-27.8717
20
59.9403
0
VERTEX
8
CUT
10
-27.9153
20
59.9008
0
VERTEX
8
CUT
10
-28.1015
20
59.7264
0
VERTEX
8
CUT
10
-28.1438
20
59.6854
0
VERTEX
8
CUT
10
-28.1854
20
59.6438
0
VERTEX
8
CUT
10
-28.2264
20
59.6015
0
VERTEX
8
CUT
10
-28.4008
20
59.4153
0
VERTEX
8
CUT
10
-28.4403
20
59.3717
0
VERTEX
8
CUT
10
-28.4791
20
59.3275
0
VERTEX
8
CUT
10
-28.5172
20
59.2825
0
VERTEX
8
CUT
10
-28.6791
20
59.0853
0
VERTEX
8
CUT
10
-28.7157
20
59.0392
0
VERTEX
8
CUT
10
-28.7515
20
58.9925
0
VERTEX
8
CUT
10
-28.7866
20
58.9452
0
VERTEX
8
CUT
10
-28.9352
20
58.7379
0
VERTEX
8
CUT
10
-28.9687
20
58.6894
0
VERTEX
8
CUT
10
-29.0014
20
58.6405
0
VERTEX
8
CUT
10
-29.0333
20
58.5910
0
VERTEX
8
CUT
10
-29.1680
20
58.3744
0
VERTEX
8
CUT
10
-29.1983
20
58.3239
0
VERTEX
8
CUT
10
-29.2277
20
58.2729
0
VERTEX
8
CUT
10
-29.2563
20
58.2214
0
VERTEX
8
CUT
10
-29.3766
20
57.9964
0
VERTEX
8
CUT
10
-29.4035
20
57.9441
0
VERTEX
8
CUT
10
-29.4295
20
57.8913
0
VERTEX
8
CUT
10
-29.4547
20
57.8381
0
VERTEX
8
CUT
10
-29.5600
20
57.6057
0
VERTEX
8
CUT
10
-29.5834
20
57.5516
0
VERTEX
8
CUT
10
-29.6059
20
57.4973
0
VERTEX
8
CUT
10
-29.6275
20
57.4425
0
VERTEX
8
CUT
10
-29.7174
20
57.2038
0
VERTEX
8
CUT
10
-29.7372
20
57.1483
0
VERTEX
8
CUT
10
-29.7561
20
57.0926
0
VERTEX
8
CUT
10
-29.7742
20
57.0365
0
VERTEX
8
CUT
10
-29.8482
20
56.7924
0
VERTEX
8
CUT
10
-29.8644
20
56.7358
0
VERTEX
8
CUT
10
-29.8796
20
56.6790
0
VERTEX
8
CUT
10
-29.8939
20
56.6218
0
VERTEX
8
CUT
10
-29.9519
20
56.3734
0
VERTEX
8
CUT
10
-29.9643
20
56.3158
0
VERTEX
8
CUT
10
-29.9758
20
56.2581
0
VERTEX
8
CUT
10
-29.9863
20
56.2002
0
VERTEX
8
CUT
10
-30.0279
20
55.9485
0
VERTEX
8
CUT
10
-30.0365
20
55.8902
0
VERTEX
8
CUT
10
-30.0442
20
55.8319
0
VERTEX
8
CUT
10
-30.0509
20
55.7734
0
VERTEX
8
CUT
10
-30.0759
20
55.5195
0
VERTEX
8
CUT
10
-30.0807
20
55.4608
0
VERTEX
8
CUT
10
-30.0846
20
55.4021
0
VERTEX
8
CUT
10
-30.0875
20
55.3433
0
VERTEX
8
CUT
10
-30.0986
20
55.0049
0
VERTEX
8
CUT
10
-30.0993
20
54.9754
0
VERTEX
8
CUT
10
-30.0998
20
54.9460
0
VERTEX
8
CUT
10
-30.1000
20
54.9166
0
VERTEX
8
CUT
10
-30.1000
20
-29.4857
0
VERTEX
8
CUT
10
-30.1023
20
-29.5904
0
VERTEX
8
CUT
10
-30.1080
20
-29.7211
0
VERTEX
8
CUT
10
-30.1148
20
-29.8256
0
VERTEX
8
CUT
10
-30.1889
20
-30.6718
0
VERTEX
8
CUT
10
-30.2162
20
-30.8794
0
VERTEX
8
CUT
10
-30.2615
20
-31.1364
0
VERTEX
8
CUT
10
-30.3068
20
-31.3408
0
VERTEX
8
CUT
10
-30.5097
20
-32.0980
0
VERTEX
8
CUT
10
-30.5727
20
-32.2976
0
VERTEX
8
CUT
10
-30.6619
20
-32.5429
0
VERTEX
8
CUT
10
-30.7421
20
-32.7363
0
VERTEX
8
CUT
10
-31.0734
20
-33.4468
0
VERTEX
8
CUT
10
-31.1700
20
-33.6325
0
VERTEX
8
CUT
10
-31.3005
20
-33.8585
0
VERTEX
8
CUT
10
-31.4130
20
-34.0351
0
VERTEX
8
CUT
10
-31.8909
20
-34.7175
0
VERTEX
8
CUT
10
-31.9688
20
-34.8226
0
VERTEX
8
CUT
10
-32.0696
20
-34.9510
0
VERTEX
8
CUT
10
-32.1531
20
-35.0517
0
VERTEX
8
CUT
10
-32.2605
20
-35.1741
0
VERTEX
8
CUT
10
-32.2778
20
-35.1936
0
VERTEX
8
CUT
10
-32.2995
20
-35.2179
0
VERTEX
8
CUT
10
-32.3171
20
-35.2373
0
VERTEX
8
CUT
10
-32.3478
20
-35.2708
0
VERTEX
8
CUT
10
-32.3551
20
-35.2788
0
VERTEX
8
CUT
10
-32.3643
20
-35.2887
0
VERTEX
8
CUT
10
-32.3716
20
-35.2966
0
VERTEX
8
CUT
10
-32.4360
20
-35.3656
0
VERTEX
8
CUT
10
-32.4434
20
-35.3735
0
VERTEX
8
CUT
10
-32.4526
20
-35.3833
0
VERTEX
8
CUT
10
-32.4601
20
-35.3912
0
VERTEX
8
CUT
10
-32.5310
20
-35.4658
0
VERTEX
8
CUT
10
-32.5372
20
-35.4724
0
VERTEX
8
CUT
10
-32.5450
20
-35.4805
0
VERTEX
8
CUT
10
-32.5513
20
-35.4871
0
VERTEX
8
CUT
10
-32.6062
20
-35.5440
0
VERTEX
8
CUT
10
-32.6125
20
-35.5505
0
VERTEX
8
CUT
10
-32.6204
20
-35.5587
0
VERTEX
8
CUT
10
-32.6267
20
-35.5651
0
VERTEX
8
CUT
10
-32.7159
20
-35.6563
0
VERTEX
8
CUT
10
-32.7211
20
-35.6615
0
VERTEX
8
CUT
10
-32.7275
20
-35.6681
0
VERTEX
8
CUT
10
-32.7327
20
-35.6733
0
VERTEX
8
CUT
10
-32.7781
20
-35.7192
0
VERTEX
8
CUT
10
-32.7833
20
-35.7244
0
VERTEX
8
CUT
10
-32.7898
20
-35.7309
0
VERTEX
8
CUT
10
-32.7950
20
-35.7361
0
VERTEX
8
CUT
10
-32.9024
20
-35.8431
0
VERTEX
8
CUT
10
-32.9065
20
-35.8472
0
VERTEX
8
CUT
10
-32.9116
20
-35.8523
0
VERTEX
8
CUT
10
-32.9157
20
-35.8564
0
VERTEX
8
CUT
10
-32.9518
20
-35.8920
0
VERTEX
8
CUT
10
-32.9559
20
-35.8960
0
VERTEX
8
CUT
10
-32.9610
20
-35.9011
0
VERTEX
8
CUT
10
-32.9652
20
-35.9051
0
VERTEX
8
CUT
10
-33.0903
20
-36.0275
0
VERTEX
8
CUT
10
-33.0934
20
-36.0305
0
VERTEX
8
CUT
10
-33.0972
20
-36.0343
0
VERTEX
8
CUT
10
-33.1003
20
-36.0372
0
VERTEX
8
CUT
10
-33.1273
20
-36.0634
0
VERTEX
8
CUT
10
-33.1304
20
-36.0664
0
VERTEX
8
CUT
10
-33.1342
20
-36.0701
0
VERTEX
8
CUT
10
-33.1373
20
-36.0731
0
VERTEX
8
CUT
10
-33.2797
20
-36.2104
0
VERTEX
8
CUT
10
-33.2818
20
-36.2124
0
VERTEX
8
CUT
10
-33.2844
20
-36.2149
0
VERTEX
8
CUT
10
-33.2865
20
-36.2169
0
VERTEX
8
CUT
10
-33.3048
20
-36.2345
0
VERTEX
8
CUT
10
-33.3069
20
-36.2365
0
VERTEX
8
CUT
10
-33.3095
20
-36.2390
0
VERTEX
8
CUT
10
-33.3116
20
-36.2410
0
VERTEX
8
CUT
10
-33.4705
20
-36.3927
0
VERTEX
8
CUT
10
-33.4717
20
-36.3938
0
VERTEX
8
CUT
10
-33.4732
20
-36.3952
0
VERTEX
8
CUT
10
-33.4743
20
-36.3963
0
VERTEX
8
CUT
10
-33.4846
20
-36.4061
0
VERTEX
8
CUT
10
-33.4857
20
-36.4072
0
VERTEX
8
CUT
10
-33.4872
20
-36.4086
0
VERTEX
8
CUT
10
-33.4884
20
-36.4097
0
VERTEX
8
CUT
10
-33.6630
20
-36.5755
0
VERTEX
8
CUT
10
-33.6633
20
-36.5758
0
VERTEX
8
CUT
10
-33.6637
20
-36.5761
0
VERTEX
8
CUT
10
-33.6640
20
-36.5764
0
VERTEX
8
CUT
10
-33.6667
20
-36.5790
0
VERTEX
8
CUT
10
-33.6671
20
-36.5794
0
VERTEX
8
CUT
10
-33.6674
20
-36.5797
0
VERTEX
8
CUT
10
-33.6677
20
-36.5799
0
VERTEX
8
CUT
10
-33.8525
20
-36.7552
0
VERTEX
8
CUT
10
-33.8532
20
-36.7559
0
VERTEX
8
CUT
10
-33.8540
20
-36.7566
0
VERTEX
8
CUT
10
-33.8547
20
-36.7572
0
VERTEX
8
CUT
10
-34.0196
20
-36.9139
0
VERTEX
8
CUT
10
-34.0244
20
-36.9185
0
VERTEX
8
CUT
10
-34.0305
20
-36.9242
0
VERTEX
8
CUT
10
-34.0353
20
-36.9288
0
VERTEX
8
CUT
10
-34.0778
20
-36.9688
0
VERTEX
8
CUT
10
-34.0827
20
-36.9733
0
VERTEX
8
CUT
10
-34.0888
20
-36.9790
0
VERTEX
8
CUT
10
-34.0937
20
-36.9836
0
VERTEX
8
CUT
10
-34.2190
20
-37.1001
0
VERTEX
8
CUT
10
-34.2281
20
-37.1085
0
VERTEX
8
CUT
10
-34.2395
20
-37.1189
0
VERTEX
8
CUT
10
-34.2486
20
-37.1273
0
VERTEX
8
CUT
10
-34.3287
20
-37.2002
0
VERTEX
8
CUT
10
-34.3379
20
-37.2085
0
VERTEX
8
CUT
10
-34.3494
20
-37.2189
0
VERTEX
8
CUT
10
-34.3586
20
-37.2271
0
VERTEX
8
CUT
10
-34.4834
20
-37.3383
0
VERTEX
8
CUT
10
-34.4905
20
-37.3447
0
VERTEX
8
CUT
10
-34.4994
20
-37.3526
0
VERTEX
8
CUT
10
-34.5065
20
-37.3588
0
VERTEX
8
CUT
10
-34.5691
20
-37.4138
0
VERTEX
8
CUT
10
-34.5763
20
-37.4200
0
VERTEX
8
CUT
10
-34.5853
20
-37.4279
0
VERTEX
8
CUT
10
-34.5925
20
-37.4341
0
VERTEX
8
CUT
10
-34.7497
20
-37.5699
0
VERTEX
8
CUT
10
-34.7551
20
-37.5745
0
VERTEX
8
CUT
10
-34.7618
20
-37.5803
0
VERTEX
8
CUT
10
-34.7672
20
-37.5849
0
VERTEX
8
CUT
10
-34.8143
20
-37.6250
0
VERTEX
8
CUT
10
-34.8196
20
-37.6296
0
VERTEX
8
CUT
10
-34.8264
20
-37.6353
0
VERTEX
8
CUT
10
-34.8318
20
-37.6399
0
VERTEX
8
CUT
10
-35.0177
20
-37.7966
0
VERTEX
8
CUT
10
-35.0214
20
-37.7998
0
VERTEX
8
CUT
10
-35.0262
20
-37.8038
0
VERTEX
8
CUT
10
-35.0300
20
-37.8069
0
VERTEX
8
CUT
10
-35.0631
20
-37.8346
0
VERTEX
8
CUT
10
-35.0669
20
-37.8378
0
VERTEX
8
CUT
10
-35.0716
20
-37.8418
0
VERTEX
8
CUT
10
-35.0754
20
-37.8449
0
VERTEX
8
CUT
10
-35.2865
20
-38.0199
0
VERTEX
8
CUT
10
-35.2888
20
-38.0219
0
VERTEX
8
CUT
10
-35.2917
20
-38.0243
0
VERTEX
8
CUT
10
-35.2941
20
-38.0262
0
VERTEX
8
CUT
10
-35.3144
20
-38.0430
0
VERTEX
8
CUT
10
-35.3168
20
-38.0449
0
VERTEX
8
CUT
10
-35.3197
20
-38.0473
0
VERTEX
8
CUT
10
-35.3220
20
-38.0492
0
VERTEX
8
CUT
10
-35.5553
20
-38.2407
0
VERTEX
8
CUT
10
-35.5563
20
-38.2415
0
VERTEX
8
CUT
10
-35.5575
20
-38.2425
0
VERTEX
8
CUT
10
-35.5585
20
-38.2433
0
VERTEX
8
CUT
10
-35.5670
20
-38.2503
0
VERTEX
8
CUT
10
-35.5680
20
-38.2511
0
VERTEX
8
CUT
10
-35.5692
20
-38.2521
0
VERTEX
8
CUT
10
-35.5702
20
-38.2529
0
VERTEX
8
CUT
10
-35.8201
20
-38.4571
0
VERTEX
8
CUT
10
-35.8206
20
-38.4575
0
VERTEX
8
CUT
10
-35.8210
20
-38.4579
0
VERTEX
8
CUT
10
-35.8215
20
-38.4583
0
VERTEX
8
CUT
10
-36.0735
20
-38.6645
0
VERTEX
8
CUT
10
-36.0758
20
-38.6664
0
VERTEX
8
CUT
10
-36.0781
20
-38.6683
0
VERTEX
8
CUT
10
-36.0804
20
-38.6702
0
VERTEX
8
CUT
10
-36.3236
20
-38.8706
0
VERTEX
8
CUT
10
-36.3278
20
-38.8740
0
VERTEX
8
CUT
10
-36.3319
20
-38.8774
0
VERTEX
8
CUT
10
-36.3360
20
-38.8808
0
VERTEX
8
CUT
10
-36.5689
20
-39.0750
0
VERTEX
8
CUT
10
-36.5748
20
-39.0800
0
VERTEX
8
CUT
10
-36.5807
20
-39.0850
0
VERTEX
8
CUT
10
-36.5867
20
-39.0900
0
VERTEX
8
CUT
10
-36.8075
20
-39.2774
0
VERTEX
8
CUT
10
-36.8153
20
-39.2841
0
VERTEX
8
CUT
10
-36.8231
20
-39.2907
0
VERTEX
8
CUT
10
-36.8308
20
-39.2974
0
VERTEX
8
CUT
10
-37.0379
20
-39.4772
0
VERTEX
8
CUT
10
-37.0476
20
-39.4857
0
VERTEX
8
CUT
10
-37.0572
20
-39.4942
0
VERTEX
8
CUT
10
-37.0668
20
-39.5027
0
VERTEX
8
CUT
10
-37.2581
20
-39.6737
0
VERTEX
8
CUT
10
-37.2697
20
-39.6842
0
VERTEX
8
CUT
10
-37.2814
20
-39.6948
0
VERTEX
8
CUT
10
-37.2929
20
-39.7054
0
VERTEX
8
CUT
10
-37.4664
20
-39.8659
0
VERTEX
8
CUT
10
-37.4801
20
-39.8788
0
VERTEX
8
CUT
10
-37.4937
20
-39.8916
0
VERTEX
8
CUT
10
-37.5073
20
-39.9046
0
VERTEX
8
CUT
10
-37.6608
20
-40.0528
0
VERTEX
8
CUT
10
-37.6766
20
-40.0683
0
VERTEX
8
CUT
10
-37.6924
20
-40.0839
0
VERTEX
8
CUT
10
-37.7081
20
-40.0996
0
VERTEX
8
CUT
10
-37.8725
20
-40.2663
0
VERTEX
8
CUT
10
-37.8791
20
-40.2730
0
VERTEX
8
CUT
10
-37.8857
20
-40.2797
0
VERTEX
8
CUT
10
-37.8922
20
-40.2865
0
VERTEX
8
CUT
10
-38.0869
20
-40.4880
0
VERTEX
8
CUT
10
-38.0886
20
-40.4898
0
VERTEX
8
CUT
10
-38.0909
20
-40.4921
0
VERTEX
8
CUT
10
-38.0926
20
-40.4939
0
VERTEX
8
CUT
10
-38.1081
20
-40.5099
0
VERTEX
8
CUT
10
-38.1099
20
-40.5117
0
VERTEX
8
CUT
10
-38.1121
20
-40.5140
0
VERTEX
8
CUT
10
-38.1139
20
-40.5158
0
VERTEX
8
CUT
10
-38.3271
20
-40.7347
0
VERTEX
8
CUT
10
-38.3274
20
-40.7350
0
VERTEX
8
CUT
10
-38.3277
20
-40.7354
0
VERTEX
8
CUT
10
-38.3280
20
-40.7356
0
VERTEX
8
CUT
10
-38.3304
20
-40.7382
0
VERTEX
8
CUT
10
-38.3307
20
-40.7385
0
VERTEX
8
CUT
10
-38.3311
20
-40.7388
0
VERTEX
8
CUT
10
-38.3314
20
-40.7391
0
VERTEX
8
CUT
10
-38.5501
20
-40.9634
0
VERTEX
8
CUT
10
-38.5519
20
-40.9653
0
VERTEX
8
CUT
10
-38.5537
20
-40.9671
0
VERTEX
8
CUT
10
-38.5555
20
-40.9690
0
VERTEX
8
CUT
10
-38.7642
20
-41.1841
0
VERTEX
8
CUT
10
-38.7682
20
-41.1883
0
VERTEX
8
CUT
10
-38.7722
20
-41.1924
0
VERTEX
8
CUT
10
-38.7762
20
-41.1966
0
VERTEX
8
CUT
10
-38.9712
20
-41.4002
0
VERTEX
8
CUT
10
-38.9773
20
-41.4067
0
VERTEX
8
CUT
10
-38.9835
20
-41.4132
0
VERTEX
8
CUT
10
-38.9896
20
-41.4197
0
VERTEX
8
CUT
10
-39.1701
20
-41.6119
0
VERTEX
8
CUT
10
-39.1784
20
-41.6208
0
VERTEX
8
CUT
10
-39.1866
20
-41.6297
0
VERTEX
8
CUT
10
-39.1948
20
-41.6387
0
VERTEX
8
CUT
10
-39.3601
20
-41.8196
0
VERTEX
8
CUT
10
-39.3705
20
-41.8310
0
VERTEX
8
CUT
10
-39.3808
20
-41.8425
0
VERTEX
8
CUT
10
-39.3910
20
-41.8540
0
VERTEX
8
CUT
10
-39.5406
20
-42.0235
0
VERTEX
8
CUT
10
-39.5529
20
-42.0375
0
VERTEX
8
CUT
10
-39.5651
20
-42.0517
0
VERTEX
8
CUT
10
-39.5772
20
-42.0659
0
VERTEX
8
CUT
10
-39.7108
20
-42.2237
0
VERTEX
8
CUT
10
-39.7249
20
-42.2405
0
VERTEX
8
CUT
10
-39.7389
20
-42.2575
0
VERTEX
8
CUT
10
-39.7528
20
-42.2746
0
VERTEX
8
CUT
10
-39.8702
20
-42.4203
0
VERTEX
8
CUT
10
-39.8859
20
-42.4402
0
VERTEX
8
CUT
10
-39.9016
20
-42.4601
0
VERTEX
8
CUT
10
-39.9170
20
-42.4802
0
VERTEX
8
CUT
10
-40.0183
20
-42.6135
0
VERTEX
8
CUT
10
-40.0355
20
-42.6365
0
VERTEX
8
CUT
10
-40.0525
20
-42.6597
0
VERTEX
8
CUT
10
-40.0694
20
-42.6830
0
VERTEX
8
CUT
10
-40.1549
20
-42.8034
0
VERTEX
8
CUT
10
-40.1733
20
-42.8297
0
VERTEX
8
CUT
10
-40.1914
20
-42.8563
0
VERTEX
8
CUT
10
-40.2093
20
-42.8829
0
VERTEX
8
CUT
10
-40.2799
20
-42.9902
0
VERTEX
8
CUT
10
-40.2991
20
-43.0200
0
VERTEX
8
CUT
10
-40.3180
20
-43.0500
0
VERTEX
8
CUT
10
-40.3366
20
-43.0802
0
VERTEX
8
CUT
10
-40.3934
20
-43.1744
0
VERTEX
8
CUT
10
-40.4131
20
-43.2078
0
VERTEX
8
CUT
10
-40.4323
20
-43.2413
0
VERTEX
8
CUT
10
-40.4512
20
-43.2751
0
VERTEX
8
CUT
10
-40.4957
20
-43.3565
0
VERTEX
8
CUT
10
-40.5153
20
-43.3934
0
VERTEX
8
CUT
10
-40.5344
20
-43.4305
0
VERTEX
8
CUT
10
-40.5531
20
-43.4678
0
VERTEX
8
CUT
10
-40.5952
20
-43.5541
0
VERTEX
8
CUT
10
-40.6115
20
-43.5885
0
VERTEX
8
CUT
10
-40.6274
20
-43.6230
0
VERTEX
8
CUT
10
-40.6429
20
-43.6577
0
VERTEX
8
CUT
10
-40.6917
20
-43.7695
0
VERTEX
8
CUT
10
-40.7043
20
-43.7991
0
VERTEX
8
CUT
10
-40.7166
20
-43.8289
0
VERTEX
8
CUT
10
-40.7287
20
-43.8587
0
VERTEX
8
CUT
10
-40.7791
20
-43.9869
0
VERTEX
8
CUT
10
-40.7904
20
-44.0162
0
VERTEX
8
CUT
10
-40.8014
20
-44.0457
0
VERTEX
8
CUT
10
-40.8122
20
-44.0752
0
VERTEX
8
CUT
10
-40.8595
20
-44.2089
0
VERTEX
8
CUT
10
-40.8693
20
-44.2375
0
VERTEX
8
CUT
10
-40.8790
20
-44.2662
0
VERTEX
8
CUT
10
-40.8883
20
-44.2949
0
VERTEX
8
CUT
10
-40.9335
20
-44.4376
0
VERTEX
8
CUT
10
-40.9420
20
-44.4650
0
VERTEX
8
CUT
10
-40.9502
20
-44.4925
0
VERTEX
8
CUT
10
-40.9582
20
-44.5200
0
VERTEX
8
CUT
10
-41.0018
20
-44.6749
0
VERTEX
8
CUT
10
-41.0089
20
-44.7007
0
VERTEX
8
CUT
10
-41.0158
20
-44.7266
0
VERTEX
8
CUT
10
-41.0225
20
-44.7526
0
VERTEX
8
CUT
10
-41.0650
20
-44.9225
0
VERTEX
8
CUT
10
-41.0708
20
-44.9465
0
VERTEX
8
CUT
10
-41.0764
20
-44.9705
0
VERTEX
8
CUT
10
-41.0819
20
-44.9945
0
VERTEX
8
CUT
10
-41.1234
20
-45.1820
0
VERTEX
8
CUT
10
-41.1280
20
-45.2038
0
VERTEX
8
CUT
10
-41.1326
20
-45.2256
0
VERTEX
8
CUT
10
-41.1370
20
-45.2475
0
VERTEX
8
CUT
10
-41.1774
20
-45.4546
0
VERTEX
8
CUT
10
-41.1811
20
-45.4741
0
VERTEX
8
CUT
10
-41.1847
20
-45.4936
0
VERTEX
8
CUT
10
-41.1882
20
-45.5132
0
VERTEX
8
CUT
10
-41.2275
20
-45.7414
0
VERTEX
8
CUT
10
-41.2304
20
-45.7586
0
VERTEX
8
CUT
10
-41.2332
20
-45.7757
0
VERTEX
8
CUT
10
-41.2359
20
-45.7928
0
VERTEX
8
CUT
10
-41.2741
20
-46.0435
0
VERTEX
8
CUT
10
-41.2763
20
-46.0582
0
VERTEX
8
CUT
10
-41.2784
20
-46.0729
0
VERTEX
8
CUT
10
-41.2805
20
-46.0876
0
VERTEX
8
CUT
10
-41.3177
20
-46.3615
0
VERTEX
8
CUT
10
-41.3193
20
-46.3738
0
VERTEX
8
CUT
10
-41.3209
20
-46.3861
0
VERTEX
8
CUT
10
-41.3224
20
-46.3984
0
VERTEX
8
CUT
10
-41.3587
20
-46.6961
0
VERTEX
8
CUT
10
-41.3599
20
-46.7061
0
VERTEX
8
CUT
10
-41.3610
20
-46.7161
0
VERTEX
8
CUT
10
-41.3622
20
-46.7261
0
VERTEX
8
CUT
10
-41.3977
20
-47.0480
0
VERTEX
8
CUT
10
-41.3985
20
-47.0558
0
VERTEX
8
CUT
10
-41.3994
20
-47.0635
0
VERTEX
8
CUT
10
-41.4002
20
-47.0713
0
VERTEX
8
CUT
10
-41.4354
20
-47.4176
0
VERTEX
8
CUT
10
-41.4359
20
-47.4233
0
VERTEX
8
CUT
10
-41.4365
20
-47.4290
0
VERTEX
8
CUT
10
-41.4371
20
-47.4347
0
VERTEX
8
CUT
10
-41.4724
20
-47.8054
0
VERTEX
8
CUT
10
-41.4727
20
-47.8091
0
VERTEX
8
CUT
10
-41.4731
20
-47.8129
0
VERTEX
8
CUT
10
-41.4734
20
-47.8167
0
VERTEX
8
CUT
10
-41.5077
20
-48.1940
0
VERTEX
8
CUT
10
-41.5085
20
-48.2023
0
VERTEX
8
CUT
10
-41.5092
20
-48.2106
0
VERTEX
8
CUT
10
-41.5099
20
-48.2189
0
VERTEX
8
CUT
10
-41.5400
20
-48.5879
0
VERTEX
8
CUT
10
-41.5410
20
-48.6006
0
VERTEX
8
CUT
10
-41.5420
20
-48.6133
0
VERTEX
8
CUT
10
-41.5429
20
-48.6261
0
VERTEX
8
CUT
10
-41.5685
20
-49.0056
0
VERTEX
8
CUT
10
-41.5692
20
-49.0167
0
VERTEX
8
CUT
10
-41.5698
20
-49.0278
0
VERTEX
8
CUT
10
-41.5705
20
-49.0389
0
VERTEX
8
CUT
10
-41.5927
20
-49.4432
0
VERTEX
8
CUT
10
-41.5932
20
-49.4530
0
VERTEX
8
CUT
10
-41.5937
20
-49.4628
0
VERTEX
8
CUT
10
-41.5942
20
-49.4726
0
VERTEX
8
CUT
10
-41.6130
20
-49.8982
0
VERTEX
8
CUT
10
-41.6133
20
-49.9070
0
VERTEX
8
CUT
10
-41.6137
20
-49.9157
0
VERTEX
8
CUT
10
-41.6140
20
-49.9244
0
VERTEX
8
CUT
10
-41.6293
20
-50.3684
0
VERTEX
8
CUT
10
-41.6295
20
-50.3762
0
VERTEX
8
CUT
10
-41.6297
20
-50.3840
0
VERTEX
8
CUT
10
-41.6300
20
-50.3918
0
VERTEX
8
CUT
10
-41.6418
20
-50.8514
0
VERTEX
8
CUT
10
-41.6420
20
-50.8584
0
VERTEX
8
CUT
10
-41.6421
20
-50.8654
0
VERTEX
8
CUT
10
-41.6422
20
-50.8725
0
VERTEX
8
CUT
10
-41.6507
20
-51.3450
0
VERTEX
8
CUT
10
-41.6508
20
-51.3513
0
VERTEX
8
CUT
10
-41.6509
20
-51.3577
0
VERTEX
8
CUT
10
-41.6510
20
-51.3641
0
VERTEX
8
CUT
10
-41.6562
20
-51.8470
0
VERTEX
8
CUT
10
-41.6563
20
-51.8528
0
VERTEX
8
CUT
10
-41.6563
20
-51.8586
0
VERTEX
8
CUT
10
-41.6563
20
-51.8645
0
VERTEX
8
CUT
10
-41.6585
20
-52.3554
0
VERTEX
8
CUT
10
-41.6585
20
-52.3607
0
VERTEX
8
CUT
10
-41.6585
20
-52.3661
0
VERTEX
8
CUT
10
-41.6585
20
-52.3714
0
VERTEX
8
CUT
10
-41.6577
20
-52.8681
0
VERTEX
8
CUT
10
-41.6577
20
-52.8730
0
VERTEX
8
CUT
10
-41.6577
20
-52.8779
0
VERTEX
8
CUT
10
-41.6577
20
-52.8828
0
VERTEX
8
CUT
10
-41.6542
20
-53.3830
0
VERTEX
8
CUT
10
-41.6541
20
-53.3875
0
VERTEX
8
CUT
10
-41.6541
20
-53.3921
0
VERTEX
8
CUT
10
-41.6540
20
-53.3966
0
VERTEX
8
CUT
10
-41.6480
20
-53.8980
0
VERTEX
8
CUT
10
-41.6479
20
-53.9023
0
VERTEX
8
CUT
10
-41.6479
20
-53.9065
0
VERTEX
8
CUT
10
-41.6478
20
-53.9108
0
VERTEX
8
CUT
10
-41.6394
20
-54.4113
0
VERTEX
8
CUT
10
-41.6393
20
-54.4153
0
VERTEX
8
CUT
10
-41.6392
20
-54.4192
0
VERTEX
8
CUT
10
-41.6392
20
-54.4232
0
VERTEX
8
CUT
10
-41.6286
20
-54.9207
0
VERTEX
8
CUT
10
-41.6285
20
-54.9244
0
VERTEX
8
CUT
10
-41.6284
20
-54.9282
0
VERTEX
8
CUT
10
-41.6283
20
-54.9319
0
VERTEX
8
CUT
10
-41.6158
20
-55.4243
0
VERTEX
8
CUT
10
-41.6157
20
-55.4278
0
VERTEX
8
CUT
10
-41.6156
20
-55.4314
0
VERTEX
8
CUT
10
-41.6155
20
-55.4349
0
VERTEX
8
CUT
10
-41.6011
20
-55.9271
0
VERTEX
8
CUT
10
-41.6011
20
-55.9280
0
VERTEX
8
CUT
10
-41.6011
20
-55.9289
0
VERTEX
8
CUT
10
-41.6010
20
-55.9297
0
VERTEX
8
CUT
10
-41.5858
20
-56.4306
0
VERTEX
8
CUT
10
-41.5858
20
-56.4311
0
VERTEX
8
CUT
10
-41.5858
20
-56.4317
0
VERTEX
8
CUT
10
-41.5858
20
-56.4323
0
VERTEX
8
CUT
10
-41.5857
20
-56.4368
0
VERTEX
8
CUT
10
-41.5856
20
-56.4374
0
VERTEX
8
CUT
10
-41.5856
20
-56.4380
0
VERTEX
8
CUT
10
-41.5856
20
-56.4385
0
VERTEX
8
CUT
10
-41.5705
20
-56.9512
0
VERTEX
8
CUT
10
-41.5705
20
-56.9517
0
VERTEX
8
CUT
10
-41.5705
20
-56.9522
0
VERTEX
8
CUT
10
-41.5705
20
-56.9527
0
VERTEX
8
CUT
10
-41.5549
20
-57.4717
0
VERTEX
8
CUT
10
-41.5548
20
-57.4734
0
VERTEX
8
CUT
10
-41.5548
20
-57.4752
0
VERTEX
8
CUT
10
-41.5547
20
-57.4769
0
VERTEX
8
CUT
10
-41.5382
20
-57.9948
0
VERTEX
8
CUT
10
-41.5381
20
-57.9977
0
VERTEX
8
CUT
10
-41.5380
20
-58.0007
0
VERTEX
8
CUT
10
-41.5379
20
-58.0036
0
VERTEX
8
CUT
10
-41.5198
20
-58.5179
0
VERTEX
8
CUT
10
-41.5197
20
-58.5221
0
VERTEX
8
CUT
10
-41.5195
20
-58.5262
0
VERTEX
8
CUT
10
-41.5193
20
-58.5304
0
VERTEX
8
CUT
10
-41.4991
20
-59.0384
0
VERTEX
8
CUT
10
-41.4989
20
-59.0439
0
VERTEX
8
CUT
10
-41.4986
20
-59.0493
0
VERTEX
8
CUT
10
-41.4984
20
-59.0548
0
VERTEX
8
CUT
10
-41.4755
20
-59.5536
0
VERTEX
8
CUT
10
-41.4752
20
-59.5605
0
VERTEX
8
CUT
10
-41.4748
20
-59.5673
0
VERTEX
8
CUT
10
-41.4745
20
-59.5741
0
VERTEX
8
CUT
10
-41.4484
20
-60.0607
0
VERTEX
8
CUT
10
-41.4480
20
-60.0690
0
VERTEX
8
CUT
10
-41.4475
20
-60.0773
0
VERTEX
8
CUT
10
-41.4470
20
-60.0856
0
VERTEX
8
CUT
10
-41.4174
20
-60.5567
0
VERTEX
8
CUT
10
-41.4168
20
-60.5667
0
VERTEX
8
CUT
10
-41.4161
20
-60.5766
0
VERTEX
8
CUT
10
-41.4154
20
-60.5866
0
VERTEX
8
CUT
10
-41.3820
20
-61.0385
0
VERTEX
8
CUT
10
-41.3810
20
-61.0504
0
VERTEX
8
CUT
10
-41.3801
20
-61.0622
0
VERTEX
8
CUT
10
-41.3791
20
-61.0740
0
VERTEX
8
CUT
10
-41.3417
20
-61.5029
0
VERTEX
8
CUT
10
-41.3404
20
-61.5169
0
VERTEX
8
CUT
10
-41.3391
20
-61.5309
0
VERTEX
8
CUT
10
-41.3377
20
-61.5449
0
VERTEX
8
CUT
10
-41.2964
20
-61.9462
0
VERTEX
8
CUT
10
-41.2946
20
-61.9628
0
VERTEX
8
CUT
10
-41.2927
20
-61.9793
0
VERTEX
8
CUT
10
-41.2908
20
-61.9959
0
VERTEX
8
CUT
10
-41.2459
20
-62.3648
0
VERTEX
8
CUT
10
-41.2434
20
-62.3844
0
VERTEX
8
CUT
10
-41.2408
20
-62.4040
0
VERTEX
8
CUT
10
-41.2381
20
-62.4236
0
VERTEX
8
CUT
10
-41.1904
20
-62.7543
0
VERTEX
8
CUT
10
-41.1869
20
-62.7776
0
VERTEX
8
CUT
10
-41.1832
20
-62.8009
0
VERTEX
8
CUT
10
-41.1794
20
-62.8241
0
VERTEX
8
CUT
10
-41.1305
20
-63.1100
0
VERTEX
8
CUT
10
-41.1256
20
-63.1379
0
VERTEX
8
CUT
10
-41.1204
20
-63.1656
0
VERTEX
8
CUT
10
-41.1149
20
-63.1934
0
VERTEX
8
CUT
10
-41.0565
20
-63.4805
0
VERTEX
8
CUT
10
-41.0535
20
-63.4950
0
VERTEX
8
CUT
10
-41.0505
20
-63.5094
0
VERTEX
8
CUT
10
-41.0473
20
-63.5239
0
VERTEX
8
CUT
10
-40.9712
20
-63.8689
0
VERTEX
8
CUT
10
-40.9712
20
-63.8691
0
VERTEX
8
CUT
10
-40.9711
20
-63.8695
0
VERTEX
8
CUT
10
-40.9710
20
-63.8698
0
VERTEX
8
CUT
10
-40.8921
20
-64.2273
0
VERTEX
8
CUT
10
-40.8909
20
-64.2324
0
VERTEX
8
CUT
10
-40.8898
20
-64.2376
0
VERTEX
8
CUT
10
-40.8886
20
-64.2427
0
VERTEX
8
CUT
10
-40.8172
20
-64.5572
0
VERTEX
8
CUT
10
-40.8147
20
-64.5678
0
VERTEX
8
CUT
10
-40.8123
20
-64.5784
0
VERTEX
8
CUT
10
-40.8098
20
-64.5889
0
VERTEX
8
CUT
10
-40.7453
20
-64.8577
0
VERTEX
8
CUT
10
-40.7413
20
-64.8742
0
VERTEX
8
CUT
10
-40.7372
20
-64.8907
0
VERTEX
8
CUT
10
-40.7330
20
-64.9071
0
VERTEX
8
CUT
10
-40.6757
20
-65.1277
0
VERTEX
8
CUT
10
-40.6696
20
-65.1505
0
VERTEX
8
CUT
10
-40.6633
20
-65.1733
0
VERTEX
8
CUT
10
-40.6569
20
-65.1961
0
VERTEX
8
CUT
10
-40.6079
20
-65.3663
0
VERTEX
8
CUT
10
-40.5991
20
-65.3959
0
VERTEX
8
CUT
10
-40.5901
20
-65.4254
0
VERTEX
8
CUT
10
-40.5808
20
-65.4548
0
VERTEX
8
CUT
10
-40.5422
20
-65.5734
0
VERTEX
8
CUT
10
-40.5299
20
-65.6098
0
VERTEX
8
CUT
10
-40.5172
20
-65.6461
0
VERTEX
8
CUT
10
-40.5041
20
-65.6823
0
VERTEX
8
CUT
10
-40.4790
20
-65.7496
0
VERTEX
8
CUT
10
-40.4622
20
-65.7928
0
VERTEX
8
CUT
10
-40.4449
20
-65.8357
0
VERTEX
8
CUT
10
-40.4270
20
-65.8785
0
VERTEX
8
CUT
10
-40.4190
20
-65.8970
0
VERTEX
8
CUT
10
-40.3967
20
-65.9463
0
VERTEX
8
CUT
10
-40.3738
20
-65.9952
0
VERTEX
8
CUT
10
-40.3565
20
-66.0306
0
VERTEX
8
CUT
10
-40.3339
20
-66.0733
0
VERTEX
8
CUT
10
-40.3218
20
-66.0953
0
VERTEX
8
CUT
10
-40.2603
20
-66.1982
0
VERTEX
8
CUT
10
-40.1954
20
-66.2905
0
VERTEX
8
CUT
10
-40.1269
20
-66.3730
0
VERTEX
8
CUT
10
-40.0502
20
-66.4514
0
VERTEX
8
CUT
10
-39.9525
20
-66.5360
0
VERTEX
8
CUT
10
-39.9371
20
-66.5483
0
VERTEX
8
CUT
10
-39.8928
20
-66.5821
0
VERTEX
8
CUT
10
-39.8649
20
-66.6019
0
VERTEX
8
CUT
10
-39.8184
20
-66.6338
0
VERTEX
8
CUT
10
-39.7713
20
-66.6650
0
VERTEX
8
CUT
10
-39.7321
20
-66.6900
0
VERTEX
8
CUT
10
-39.6941
20
-66.7137
0
VERTEX
8
CUT
10
-39.6558
20
-66.7369
0
VERTEX
8
CUT
10
-39.6173
20
-66.7596
0
VERTEX
8
CUT
10
-39.5542
20
-66.7957
0
VERTEX
8
CUT
10
-39.5134
20
-66.8183
0
VERTEX
8
CUT
10
-39.4723
20
-66.8404
0
VERTEX
8
CUT
10
-39.4309
20
-66.8620
0
VERTEX
8
CUT
10
-39.3711
20
-66.8922
0
VERTEX
8
CUT
10
-39.3286
20
-66.9130
0
VERTEX
8
CUT
10
-39.2859
20
-66.9332
0
VERTEX
8
CUT
10
-39.2428
20
-66.9528
0
VERTEX
8
CUT
10
-39.1769
20
-66.9819
0
VERTEX
8
CUT
10
-39.1340
20
-67.0002
0
VERTEX
8
CUT
10
-39.0909
20
-67.0178
0
VERTEX
8
CUT
10
-39.0475
20
-67.0350
0
VERTEX
8
CUT
10
-38.9660
20
-67.0660
0
VERTEX
8
CUT
10
-38.9239
20
-67.0814
0
VERTEX
8
CUT
10
-38.8817
20
-67.0963
0
VERTEX
8
CUT
10
-38.8392
20
-67.1106
0
VERTEX
8
CUT
10
-38.7329
20
-67.1451
0
VERTEX
8
CUT
10
-38.6927
20
-67.1576
0
VERTEX
8
CUT
10
-38.6524
20
-67.1697
0
VERTEX
8
CUT
10
-38.6120
20
-67.1812
0
VERTEX
8
CUT
10
-38.4731
20
-67.2192
0
VERTEX
8
CUT
10
-38.4356
20
-67.2290
0
VERTEX
8
CUT
10
-38.3981
20
-67.2384
0
VERTEX
8
CUT
10
-38.3605
20
-67.2474
0
VERTEX
8
CUT
10
-38.1825
20
-67.2879
0
VERTEX
8
CUT
10
-38.1484
20
-67.2953
0
VERTEX
8
CUT
10
-38.1142
20
-67.3024
0
VERTEX
8
CUT
10
-38.0799
20
-67.3092
0
VERTEX
8
CUT
10
-37.8581
20
-67.3507
0
VERTEX
8
CUT
10
-37.8276
20
-67.3561
0
VERTEX
8
CUT
10
-37.7971
20
-67.3613
0
VERTEX
8
CUT
10
-37.7665
20
-67.3662
0
VERTEX
8
CUT
10
-37.4975
20
-67.4070
0
VERTEX
8
CUT
10
-37.4706
20
-67.4109
0
VERTEX
8
CUT
10
-37.4437
20
-67.4146
0
VERTEX
8
CUT
10
-37.4168
20
-67.4180
0
VERTEX
8
CUT
10
-37.0984
20
-67.4566
0
VERTEX
8
CUT
10
-37.0751
20
-67.4592
0
VERTEX
8
CUT
10
-37.0518
20
-67.4618
0
VERTEX
8
CUT
10
-37.0285
20
-67.4641
0
VERTEX
8
CUT
10
-36.6592
20
-67.4991
0
VERTEX
8
CUT
10
-36.6392
20
-67.5009
0
VERTEX
8
CUT
10
-36.6193
20
-67.5025
0
VERTEX
8
CUT
10
-36.5993
20
-67.5041
0
VERTEX
8
CUT
10
-36.1781
20
-67.5345
0
VERTEX
8
CUT
10
-36.1612
20
-67.5357
0
VERTEX
8
CUT
10
-36.1443
20
-67.5367
0
VERTEX
8
CUT
10
-36.1274
20
-67.5377
0
VERTEX
8
CUT
10
-35.6537
20
-67.5630
0
VERTEX
8
CUT
10
-35.6396
20
-67.5637
0
VERTEX
8
CUT
10
-35.6254
20
-67.5643
0
VERTEX
8
CUT
10
-35.6112
20
-67.5649
0
VERTEX
8
CUT
10
-35.0843
20
-67.5847
0
VERTEX
8
CUT
10
-35.0726
20
-67.5851
0
VERTEX
8
CUT
10
-35.0609
20
-67.5855
0
VERTEX
8
CUT
10
-35.0491
20
-67.5858
0
VERTEX
8
CUT
10
-34.4950
20
-67.5994
0
VERTEX
8
CUT
10
-34.4760
20
-67.5998
0
VERTEX
8
CUT
10
-34.4570
20
-67.6000
0
VERTEX
8
CUT
10
-34.4380
20
-67.6002
0
VERTEX
8
CUT
10
-33.8773
20
-67.6021
0
VERTEX
8
CUT
10
-33.8535
20
-67.6020
0
VERTEX
8
CUT
10
-33.8297
20
-67.6018
0
VERTEX
8
CUT
10
-33.8059
20
-67.6014
0
VERTEX
8
CUT
10
-33.2071
20
-67.5876
0
VERTEX
8
CUT
10
-33.1882
20
-67.5871
0
VERTEX
8
CUT
10
-33.1693
20
-67.5864
0
VERTEX
8
CUT
10
-33.1505
20
-67.5857
0
VERTEX
8
CUT
10
-32.4899
20
-67.5566
0
VERTEX
8
CUT
10
-32.4751
20
-67.5559
0
VERTEX
8
CUT
10
-32.4604
20
-67.5551
0
VERTEX
8
CUT
10
-32.4457
20
-67.5543
0
VERTEX
8
CUT
10
-31.7290
20
-67.5110
0
VERTEX
8
CUT
10
-31.7178
20
-67.5103
0
VERTEX
8
CUT
10
-31.7066
20
-67.5095
0
VERTEX
8
CUT
10
-31.6953
20
-67.5087
0
VERTEX
8
CUT
10
-30.9274
20
-67.4527
0
VERTEX
8
CUT
10
-30.9192
20
-67.4521
0
VERTEX
8
CUT
10
-30.9110
20
-67.4514
0
VERTEX
8
CUT
10
-30.9028
20
-67.4508
0
VERTEX
8
CUT
10
-30.0878
20
-67.3838
0
VERTEX
8
CUT
10
-30.0823
20
-67.3833
0
VERTEX
8
CUT
10
-30.0767
20
-67.3828
0
VERTEX
8
CUT
10
-30.0712
20
-67.3824
0
VERTEX
8
CUT
10
-29.2126
20
-67.3064
0
VERTEX
8
CUT
10
-29.2094
20
-67.3062
0
VERTEX
8
CUT
10
-29.2062
20
-67.3059
0
VERTEX
8
CUT
10
-29.2031
20
-67.3056
0
VERTEX
8
CUT
10
-28.3042
20
-67.2229
0
VERTEX
8
CUT
10
-28.3031
20
-67.2228
0
VERTEX
8
CUT
10
-28.3020
20
-67.2227
0
VERTEX
8
CUT
10
-28.3010
20
-67.2226
0
VERTEX
8
CUT
10
-27.3704
20
-67.1358
0
VERTEX
8
CUT
10
-27.3698
20
-67.1358
0
VERTEX
8
CUT
10
-27.3690
20
-67.1357
0
VERTEX
8
CUT
10
-27.3684
20
-67.1357
0
VERTEX
8
CUT
10
-27.3634
20
-67.1352
0
VERTEX
8
CUT
10
-27.3628
20
-67.1351
0
VERTEX
8
CUT
10
-27.3620
20
-67.1351
0
VERTEX
8
CUT
10
-27.3614
20
-67.1350
0
VERTEX
8
CUT
10
-26.4136
20
-67.0476
0
VERTEX
8
CUT
10
-26.4118
20
-67.0474
0
VERTEX
8
CUT
10
-26.4095
20
-67.0472
0
VERTEX
8
CUT
10
-26.4078
20
-67.0471
0
VERTEX
8
CUT
10
-26.3921
20
-67.0456
0
VERTEX
8
CUT
10
-26.3903
20
-67.0455
0
VERTEX
8
CUT
10
-26.3881
20
-67.0453
0
VERTEX
8
CUT
10
-26.3863
20
-67.0451
0
VERTEX
8
CUT
10
-25.4290
20
-66.9597
0
VERTEX
8
CUT
10
-25.4260
20
-66.9595
0
VERTEX
8
CUT
10
-25.4224
20
-66.9591
0
VERTEX
8
CUT
10
-25.4195
20
-66.9589
0
VERTEX
8
CUT
10
-25.3939
20
-66.9567
0
VERTEX
8
CUT
10
-25.3910
20
-66.9564
0
VERTEX
8
CUT
10
-25.3874
20
-66.9561
0
VERTEX
8
CUT
10
-25.3844
20
-66.9559
0
VERTEX
8
CUT
10
-24.4186
20
-66.8744
0
VERTEX
8
CUT
10
-24.4146
20
-66.8741
0
VERTEX
8
CUT
10
-24.4096
20
-66.8737
0
VERTEX
8
CUT
10
-24.4056
20
-66.8734
0
VERTEX
8
CUT
10
-24.3706
20
-66.8705
0
VERTEX
8
CUT
10
-24.3666
20
-66.8702
0
VERTEX
8
CUT
10
-24.3616
20
-66.8698
0
VERTEX
8
CUT
10
-24.3576
20
-66.8695
0
VERTEX
8
CUT
10
-23.3845
20
-66.7940
0
VERTEX
8
CUT
10
-23.3795
20
-66.7936
0
VERTEX
8
CUT
10
-23.3732
20
-66.7932
0
VERTEX
8
CUT
10
-23.3681
20
-66.7928
0
VERTEX
8
CUT
10
-23.3239
20
-66.7896
0
VERTEX
8
CUT
10
-23.3189
20
-66.7892
0
VERTEX
8
CUT
10
-23.3126
20
-66.7887
0
VERTEX
8
CUT
10
-23.3075
20
-66.7884
0
VERTEX
8
CUT
10
-22.3285
20
-66.7208
0
VERTEX
8
CUT
10
-22.3225
20
-66.7203
0
VERTEX
8
CUT
10
-22.3149
20
-66.7198
0
VERTEX
8
CUT
10
-22.3088
20
-66.7194
0
VERTEX
8
CUT
10
-22.2557
20
-66.7160
0
VERTEX
8
CUT
10
-22.2496
20
-66.7157
0
VERTEX
8
CUT
10
-22.2420
20
-66.7152
0
VERTEX
8
CUT
10
-22.2360
20
-66.7148
0
VERTEX
8
CUT
10
-21.3353
20
-66.6618
0
VERTEX
8
CUT
10
-21.5556
20
-66.5248
0
VERTEX
8
CUT
10
-21.8003
20
-66.3494
0
VERTEX
8
CUT
10
-22.0330
20
-66.1585
0
VERTEX
8
CUT
10
-22.2527
20
-65.9527
0
VERTEX
8
CUT
10
-22.4585
20
-65.7330
0
VERTEX
8
CUT
10
-22.6494
20
-65.5003
0
VERTEX
8
CUT
10
-22.8248
20
-65.2556
0
VERTEX
8
CUT
10
-22.9837
20
-65.0000
0
VERTEX
8
CUT
10
-23.1256
20
-64.7345
0
VERTEX
8
CUT
10
-23.2498
20
-64.4603
0
VERTEX
8
CUT
10
-23.3559
20
-64.1786
0
VERTEX
8
CUT
10
-23.4433
20
-63.8906
0
VERTEX
8
CUT
10
-23.5116
20
-63.5974
0
VERTEX
8
CUT
10
-23.5606
20
-63.3004
0
VERTEX
8
CUT
10
-23.5902
20
-63.0009
0
VERTEX
8
CUT
10
-23.6000
20
-62.7000
0
VERTEX
8
CUT
10
-23.6000
20
-59.7000
0
VERTEX
8
CUT
10
-23.5902
20
-59.3991
0
VERTEX
8
CUT
10
-23.5606
20
-59.0996
0
VERTEX
8
CUT
10
-23.5116
20
-58.8026
0
VERTEX
8
CUT
10
-23.4433
20
-58.5094
0
VERTEX
8
CUT
10
-23.3559
20
-58.2214
0
VERTEX
8
CUT
10
-23.2498
20
-57.9397
0
VERTEX
8
CUT
10
-23.1256
20
-57.6655
0
VERTEX
8
CUT
10
-22.9837
20
-57.4000
0
VERTEX
8
CUT
10
-22.8248
20
-57.1444
0
VERTEX
8
CUT
10
-22.6494
20
-56.8997
0
VERTEX
8
CUT
10
-22.4585
20
-56.6670
0
VERTEX
8
CUT
10
-22.2527
20
-56.4473
0
VERTEX
8
CUT
10
-22.0330
20
-56.2415
0
VERTEX
8
CUT
10
-21.8003
20
-56.0506
0
VERTEX
8
CUT
10
-21.5556
20
-55.8752
0
VERTEX
8
CUT
10
-21.3000
20
-55.7163
0
VERTEX
8
CUT
10
-21.0345
20
-55.5744
0
VERTEX
8
CUT
10
-20.7603
20
-55.4502
0
VERTEX
8
CUT
10
-20.4786
20
-55.3441
0
VERTEX
8
CUT
10
-20.1906
20
-55.2567
0
VERTEX
8
CUT
10
-19.8974
20
-55.1884
0
VERTEX
8
CUT
10
-19.6004
20
-55.1394
0
VERTEX
8
CUT
10
-19.3009
20
-55.1098
0
VERTEX
8
CUT
10
-19.0000
20
-55.1000
0
VERTEX
8
CUT
10
19.0000
20
-55.1000
0
VERTEX
8
CUT
10
19.3009
20
-55.1098
0
VERTEX
8
CUT
10
19.6004
20
-55.1394
0
VERTEX
8
CUT
10
19.8974
20
-55.1884
0
VERTEX
8
CUT
10
20.1906
20
-55.2567
0
VERTEX
8
CUT
10
20.4786
20
-55.3441
0
VERTEX
8
CUT
10
20.7603
20
-55.4502
0
VERTEX
8
CUT
10
21.0345
20
-55.5744
0
VERTEX
8
CUT
10
21.3000
20
-55.7163
0
VERTEX
8
CUT
10
21.5556
20
-55.8752
0
VERTEX
8
CUT
10
21.8003
20
-56.0506
0
VERTEX
8
CUT
10
22.0330
20
-56.2415
0
VERTEX
8
CUT
10
22.2527
20
-56.4473
0
VERTEX
8
CUT
10
22.4585
20
-56.6670
0
VERTEX
8
CUT
10
22.6494
20
-56.8997
0
VERTEX
8
CUT
10
22.8248
20
-57.1444
0
VERTEX
8
CUT
10
22.9837
20
-57.4000
0
VERTEX
8
CUT
10
23.1256
20
-57.6655
0
VERTEX
8
CUT
10
23.2498
20
-57.9397
0
VERTEX
8
CUT
10
23.3559
20
-58.2214
0
VERTEX
8
CUT
10
23.4433
20
-58.5094
0
VERTEX
8
CUT
10
23.5116
20
-58.8026
0
VERTEX
8
CUT
10
23.5606
20
-59.0996
0
VERTEX
8
CUT
10
23.5902
20
-59.3991
0
VERTEX
8
CUT
10
23.6000
20
-59.7000
0
VERTEX
8
CUT
10
23.6000
20
-62.7000
0
VERTEX
8
CUT
10
23.5902
20
-63.0009
0
VERTEX
8
CUT
10
23.5606
20
-63.3004
0
VERTEX
8
CUT
10
23.5116
20
-63.5974
0
VERTEX
8
CUT
10
23.4433
20
-63.8906
0
VERTEX
8
CUT
10
23.3559
20
-64.1786
0
VERTEX
8
CUT
10
23.2498
20
-64.4603
0
VERTEX
8
CUT
10
23.1256
20
-64.7345
0
VERTEX
8
CUT
10
22.9837
20
-65.0000
0
VERTEX
8
CUT
10
22.8248
20
-65.2556
0
VERTEX
8
CUT
10
22.6494
20
-65.5003
0
VERTEX
8
CUT
10
22.4585
20
-65.7330
0
VERTEX
8
CUT
10
22.2527
20
-65.9527
0
VERTEX
8
CUT
10
22.0330
20
-66.1585
0
VERTEX
8
CUT
10
21.8003
20
-66.3494
0
VERTEX
8
CUT
10
21.5556
20
-66.5248
0
VERTEX
8
CUT
10
21.3353
20
-66.6618
0
VERTEX
8
CUT
10
22.2360
20
-66.7148
0
VERTEX
8
CUT
10
22.2420
20
-66.7152
0
VERTEX
8
CUT
10
22.2496
20
-66.7157
0
VERTEX
8
CUT
10
22.2557
20
-66.7160
0
VERTEX
8
CUT
10
22.3088
20
-66.7194
0
VERTEX
8
CUT
10
22.3149
20
-66.7198
0
VERTEX
8
CUT
10
22.3225
20
-66.7203
0
VERTEX
8
CUT
10
22.3285
20
-66.7208
0
VERTEX
8
CUT
10
23.3075
20
-66.7884
0
VERTEX
8
CUT
10
23.3126
20
-66.7887
0
VERTEX
8
CUT
10
23.3189
20
-66.7892
0
VERTEX
8
CUT
10
23.3239
20
-66.7896
0
VERTEX
8
CUT
10
23.3681
20
-66.7928
0
VERTEX
8
CUT
10
23.3732
20
-66.7932
0
VERTEX
8
CUT
10
23.3795
20
-66.7936
0
VERTEX
8
CUT
10
23.3845
20
-66.7940
0
VERTEX
8
CUT
10
24.3576
20
-66.8695
0
VERTEX
8
CUT
10
24.3616
20
-66.8698
0
VERTEX
8
CUT
10
24.3666
20
-66.8702
0
VERTEX
8
CUT
10
24.3706
20
-66.8705
0
VERTEX
8
CUT
10
24.4056
20
-66.8734
0
VERTEX
8
CUT
10
24.4096
20
-66.8737
0
VERTEX
8
CUT
10
24.4146
20
-66.8741
0
VERTEX
8
CUT
10
24.4186
20
-66.8744
0
VERTEX
8
CUT
10
25.3844
20
-66.9559
0
VERTEX
8
CUT
10
25.3874
20
-66.9561
0
VERTEX
8
CUT
10
25.3910
20
-66.9564
0
VERTEX
8
CUT
10
25.3939
20
-66.9567
0
VERTEX
8
CUT
10
25.4195
20
-66.9589
0
VERTEX
8
CUT
10
25.4224
20
-66.9591
0
VERTEX
8
CUT
10
25.4260
20
-66.9595
0
VERTEX
8
CUT
10
25.4290
20
-66.9597
0
VERTEX
8
CUT
10
26.3863
20
-67.0451
0
VERTEX
8
CUT
10
26.3881
20
-67.0453
0
VERTEX
8
CUT
10
26.3903
20
-67.0455
0
VERTEX
8
CUT
10
26.3921
20
-67.0456
0
VERTEX
8
CUT
10
26.4078
20
-67.0471
0
VERTEX
8
CUT
10
26.4095
20
-67.0472
0
VERTEX
8
CUT
10
26.4118
20
-67.0474
0
VERTEX
8
CUT
10
26.4136
20
-67.0476
0
VERTEX
8
CUT
10
27.3614
20
-67.1350
0
VERTEX
8
CUT
10
27.3620
20
-67.1351
0
VERTEX
8
CUT
10
27.3628
20
-67.1351
0
VERTEX
8
CUT
10
27.3634
20
-67.1352
0
VERTEX
8
CUT
10
27.3684
20
-67.1357
0
VERTEX
8
CUT
10
27.3690
20
-67.1357
0
VERTEX
8
CUT
10
27.3698
20
-67.1358
0
VERTEX
8
CUT
10
27.3704
20
-67.1358
0
VERTEX
8
CUT
10
28.3010
20
-67.2226
0
VERTEX
8
CUT
10
28.3020
20
-67.2227
0
VERTEX
8
CUT
10
28.3031
20
-67.2228
0
VERTEX
8
CUT
10
28.3042
20
-67.2229
0
VERTEX
8
CUT
10
29.2031
20
-67.3056
0
VERTEX
8
CUT
10
29.2062
20
-67.3059
0
VERTEX
8
CUT
10
29.2094
20
-67.3062
0
VERTEX
8
CUT
10
29.2126
20
-67.3064
0
VERTEX
8
CUT
10
30.0712
20
-67.3824
0
VERTEX
8
CUT
10
30.0767
20
-67.3828
0
VERTEX
8
CUT
10
30.0823
20
-67.3833
0
VERTEX
8
CUT
10
30.0878
20
-67.3838
0
VERTEX
8
CUT
10
30.9028
20
-67.4508
0
VERTEX
8
CUT
10
30.9110
20
-67.4514
0
VERTEX
8
CUT
10
30.9192
20
-67.4521
0
VERTEX
8
CUT
10
30.9274
20
-67.4527
0
VERTEX
8
CUT
10
31.6953
20
-67.5087
0
VERTEX
8
CUT
10
31.7066
20
-67.5095
0
VERTEX
8
CUT
10
31.7178
20
-67.5103
0
VERTEX
8
CUT
10
31.7290
20
-67.5110
0
VERTEX
8
CUT
10
32.4457
20
-67.5543
0
VERTEX
8
CUT
10
32.4604
20
-67.5551
0
VERTEX
8
CUT
10
32.4751
20
-67.5559
0
VERTEX
8
CUT
10
32.4899
20
-67.5566
0
VERTEX
8
CUT
10
33.1505
20
-67.5857
0
VERTEX
8
CUT
10
33.1693
20
-67.5864
0
VERTEX
8
CUT
10
33.1882
20
-67.5871
0
VERTEX
8
CUT
10
33.2071
20
-67.5876
0
VERTEX
8
CUT
10
33.8059
20
-67.6014
0
VERTEX
8
CUT
10
33.8297
20
-67.6018
0
VERTEX
8
CUT
10
33.8535
20
-67.6020
0
VERTEX
8
CUT
10
33.8773
20
-67.6021
0
SEQEND
0
POLYLINE
8
CUT
66
1
70
1
0
VERTEX
8
CUT
10
-33.8652
20
-56.5693
0
VERTEX
8
CUT
10
-34.4036
20
-55.9400
0
VERTEX
8
CUT
10
-35.4454
20
-53.7602
0
VERTEX
8
CUT
10
-37.4246
20
-54.5230
0
VERTEX
8
CUT
10
-37.4715
20
-54.5402
0
VERTEX
8
CUT
10
-38.2974
20
-54.6021
0
VERTEX
8
CUT
10
-39.0436
20
-54.2428
0
VERTEX
8
CUT
10
-39.5102
20
-53.5585
0
VERTEX
8
CUT
10
-39.5721
20
-52.7326
0
VERTEX
8
CUT
10
-38.7321
20
-48.2926
0
VERTEX
8
CUT
10
-38.4359
20
-47.6245
0
VERTEX
8
CUT
10
-34.7959
20
-42.8145
0
VERTEX
8
CUT
10
-34.3735
20
-42.4267
0
VERTEX
8
CUT
10
-28.2135
20
-38.5417
0
VERTEX
8
CUT
10
-27.9419
20
-38.4046
0
VERTEX
8
CUT
10
-21.7819
20
-35.9996
0
VERTEX
8
CUT
10
-21.4968
20
-35.9178
0
VERTEX
8
CUT
10
-17.5768
20
-35.1778
0
VERTEX
8
CUT
10
-16.7781
20
-35.2308
0
VERTEX
8
CUT
10
-13.4181
20
-36.3408
0
VERTEX
8
CUT
10
-12.8902
20
-36.6354
0
VERTEX
8
CUT
10
-9.8102
20
-39.2254
0
VERTEX
8
CUT
10
-9.6447
20
-39.3864
0
VERTEX
8
CUT
10
-9.2730
20
-40.1266
0
VERTEX
8
CUT
10
-8.4330
20
-44.1966
0
VERTEX
8
CUT
10
-8.4741
20
-45.0012
0
VERTEX
8
CUT
10
-9.8741
20
-49.4412
0
VERTEX
8
CUT
10
-9.8959
20
-49.5056
0
VERTEX
8
CUT
10
-10.3702
20
-50.1846
0
VERTEX
8
CUT
10
-13.4502
20
-52.7746
0
VERTEX
8
CUT
10
-14.1359
20
-53.1126
0
VERTEX
8
CUT
10
-19.1759
20
-54.2226
0
VERTEX
8
CUT
10
-19.9272
20
-54.2073
0
VERTEX
8
CUT
10
-20.6463
20
-53.7964
0
VERTEX
8
CUT
10
-21.8577
20
-52.5958
0
VERTEX
8
CUT
10
-25.2211
20
-55.3737
0
VERTEX
8
CUT
10
-25.3937
20
-55.4979
0
VERTEX
8
CUT
10
-26.1861
20
-55.7391
0
VERTEX
8
CUT
10
-26.9928
20
-55.5518
0
VERTEX
8
CUT
10
-27.5979
20
-54.9863
0
VERTEX
8
CUT
10
-28.5518
20
-53.4556
0
VERTEX
8
CUT
10
-31.8937
20
-56.4429
0
VERTEX
8
CUT
10
-32.2700
20
-56.6936
0
VERTEX
8
CUT
10
-33.0843
20
-56.8452
0
SEQEND
0
POLYLINE
8
CUT
66
1
70
1
0
VERTEX
8
CUT
10
31.8937
20
-56.4429
0
VERTEX
8
CUT
10
28.5518
20
-53.4556
0
VERTEX
8
CUT
10
27.5979
20
-54.9863
0
VERTEX
8
CUT
10
27.4737
20
-55.1589
0
VERTEX
8
CUT
10
26.7989
20
-55.6392
0
VERTEX
8
CUT
10
25.9745
20
-55.7178
0
VERTEX
8
CUT
10
25.2211
20
-55.3737
0
VERTEX
8
CUT
10
21.8577
20
-52.5958
0
VERTEX
8
CUT
10
20.6463
20
-53.7964
0
VERTEX
8
CUT
10
20.0032
20
-54.1853
0
VERTEX
8
CUT
10
19.1759
20
-54.2226
0
VERTEX
8
CUT
10
14.1359
20
-53.1126
0
VERTEX
8
CUT
10
13.4502
20
-52.7746
0
VERTEX
8
CUT
10
10.3702
20
-50.1846
0
VERTEX
8
CUT
10
10.3191
20
-50.1397
0
VERTEX
8
CUT
10
9.8741
20
-49.4412
0
VERTEX
8
CUT
10
8.4741
20
-45.0012
0
VERTEX
8
CUT
10
8.4330
20
-44.1966
0
VERTEX
8
CUT
10
9.2730
20
-40.1266
0
VERTEX
8
CUT
10
9.3359
20
-39.9044
0
VERTEX
8
CUT
10
9.8102
20
-39.2254
0
VERTEX
8
CUT
10
12.8902
20
-36.6354
0
VERTEX
8
CUT
10
13.4181
20
-36.3408
0
VERTEX
8
CUT
10
16.7781
20
-35.2308
0
VERTEX
8
CUT
10
17.5768
20
-35.1778
0
VERTEX
8
CUT
10
21.4968
20
-35.9178
0
VERTEX
8
CUT
10
21.7819
20
-35.9996
0
VERTEX
8
CUT
10
27.9419
20
-38.4046
0
VERTEX
8
CUT
10
28.2135
20
-38.5417
0
VERTEX
8
CUT
10
34.3735
20
-42.4267
0
VERTEX
8
CUT
10
34.7959
20
-42.8145
0
VERTEX
8
CUT
10
38.4359
20
-47.6245
0
VERTEX
8
CUT
10
38.7321
20
-48.2926
0
VERTEX
8
CUT
10
39.5721
20
-52.7326
0
VERTEX
8
CUT
10
39.5806
20
-52.7818
0
VERTEX
8
CUT
10
39.4930
20
-53.6054
0
VERTEX
8
CUT
10
39.0052
20
-54.2748
0
VERTEX
8
CUT
10
38.2482
20
-54.6106
0
VERTEX
8
CUT
10
37.4246
20
-54.5230
0
VERTEX
8
CUT
10
35.4454
20
-53.7602
0
VERTEX
8
CUT
10
34.4036
20
-55.9400
0
VERTEX
8
CUT
10
34.1529
20
-56.3163
0
VERTEX
8
CUT
10
33.4599
20
-56.7699
0
VERTEX
8
CUT
10
32.6330
20
-56.8162
0
SEQEND
0
ENDSEC
0
EOF
