0
SECTION
2
HEADER
9
$INSUNITS
70
4
0
ENDSEC
0
SECTION
2
ENTITIES
0
POLYLINE
8
CUT
66
1
70
1
0
VERTEX
8
CUT
10
29.3124
20
-67.5999
0
VERTEX
8
CUT
10
29.3660
20
-67.5988
0
VERTEX
8
CUT
10
29.3813
20
-67.5984
0
VERTEX
8
CUT
10
29.4347
20
-67.5963
0
VERTEX
8
CUT
10
29.4500
20
-67.5956
0
VERTEX
8
CUT
10
29.5035
20
-67.5925
0
VERTEX
8
CUT
10
29.5187
20
-67.5915
0
VERTEX
8
CUT
10
29.8626
20
-67.5651
0
VERTEX
8
CUT
10
29.8639
20
-67.5650
0
VERTEX
8
CUT
10
29.8683
20
-67.5647
0
VERTEX
8
CUT
10
29.8696
20
-67.5646
0
VERTEX
8
CUT
10
29.8741
20
-67.5642
0
VERTEX
8
CUT
10
29.8754
20
-67.5641
0
VERTEX
8
CUT
10
29.8798
20
-67.5638
0
VERTEX
8
CUT
10
29.8811
20
-67.5637
0
VERTEX
8
CUT
10
30.3547
20
-67.5243
0
VERTEX
8
CUT
10
30.3567
20
-67.5241
0
VERTEX
8
CUT
10
30.3635
20
-67.5235
0
VERTEX
8
CUT
10
30.3655
20
-67.5234
0
VERTEX
8
CUT
10
30.3723
20
-67.5228
0
VERTEX
8
CUT
10
30.3743
20
-67.5226
0
VERTEX
8
CUT
10
30.3811
20
-67.5220
0
VERTEX
8
CUT
10
30.3830
20
-67.5218
0
VERTEX
8
CUT
10
30.7935
20
-67.4836
0
VERTEX
8
CUT
10
30.7963
20
-67.4833
0
VERTEX
8
CUT
10
30.8060
20
-67.4824
0
VERTEX
8
CUT
10
30.8088
20
-67.4821
0
VERTEX
8
CUT
10
30.8185
20
-67.4811
0
VERTEX
8
CUT
10
30.8213
20
-67.4809
0
VERTEX
8
CUT
10
30.8310
20
-67.4799
0
VERTEX
8
CUT
10
30.8338
20
-67.4796
0
VERTEX
8
CUT
10
31.1804
20
-67.4424
0
VERTEX
8
CUT
10
31.1841
20
-67.4420
0
VERTEX
8
CUT
10
31.1973
20
-67.4406
0
VERTEX
8
CUT
10
31.2011
20
-67.4401
0
VERTEX
8
CUT
10
31.2143
20
-67.4386
0
VERTEX
8
CUT
10
31.2180
20
-67.4381
0
VERTEX
8
CUT
10
31.2312
20
-67.4365
0
VERTEX
8
CUT
10
31.2350
20
-67.4361
0
VERTEX
8
CUT
10
31.5165
20
-67.4005
0
VERTEX
8
CUT
10
31.5214
20
-67.3999
0
VERTEX
8
CUT
10
31.5387
20
-67.3976
0
VERTEX
8
CUT
10
31.5436
20
-67.3969
0
VERTEX
8
CUT
10
31.5609
20
-67.3945
0
VERTEX
8
CUT
10
31.5658
20
-67.3938
0
VERTEX
8
CUT
10
31.5830
20
-67.3913
0
VERTEX
8
CUT
10
31.5879
20
-67.3906
0
VERTEX
8
CUT
10
31.8034
20
-67.3579
0
VERTEX
8
CUT
10
31.8097
20
-67.3569
0
VERTEX
8
CUT
10
31.8316
20
-67.3534
0
VERTEX
8
CUT
10
31.8378
20
-67.3524
0
VERTEX
8
CUT
10
31.8597
20
-67.3487
0
VERTEX
8
CUT
10
31.8659
20
-67.3477
0
VERTEX
8
CUT
10
31.8877
20
-67.3438
0
VERTEX
8
CUT
10
31.8939
20
-67.3427
0
VERTEX
8
CUT
10
32.0433
20
-67.3152
0
VERTEX
8
CUT
10
32.0510
20
-67.3137
0
VERTEX
8
CUT
10
32.0779
20
-67.3085
0
VERTEX
8
CUT
10
32.0855
20
-67.3070
0
VERTEX
8
CUT
10
32.1124
20
-67.3015
0
VERTEX
8
CUT
10
32.1200
20
-67.2999
0
VERTEX
8
CUT
10
32.1468
20
-67.2941
0
VERTEX
8
CUT
10
32.1544
20
-67.2924
0
VERTEX
8
CUT
10
32.2394
20
-67.2733
0
VERTEX
8
CUT
10
32.2486
20
-67.2712
0
VERTEX
8
CUT
10
32.2805
20
-67.2636
0
VERTEX
8
CUT
10
32.2896
20
-67.2614
0
VERTEX
8
CUT
10
32.3214
20
-67.2535
0
VERTEX
8
CUT
10
32.3305
20
-67.2511
0
VERTEX
8
CUT
10
32.3623
20
-67.2428
0
VERTEX
8
CUT
10
32.3713
20
-67.2404
0
VERTEX
8
CUT
10
32.3970
20
-67.2333
0
VERTEX
8
CUT
10
32.4075
20
-67.2304
0
VERTEX
8
CUT
10
32.4440
20
-67.2198
0
VERTEX
8
CUT
10
32.4544
20
-67.2167
0
VERTEX
8
CUT
10
32.4907
20
-67.2056
0
VERTEX
8
CUT
10
32.5011
20
-67.2024
0
VERTEX
8
CUT
10
32.5247
20
-67.1949
0
VERTEX
8
CUT
10
32.5464
20
-67.1876
0
VERTEX
8
CUT
10
32.5751
20
-67.1775
0
VERTEX
8
CUT
10
32.5865
20
-67.1734
0
VERTEX
8
CUT
10
32.5954
20
-67.1702
0
VERTEX
8
CUT
10
32.6187
20
-67.1612
0
VERTEX
8
CUT
10
32.6866
20
-67.1337
0
VERTEX
8
CUT
10
32.7333
20
-67.1131
0
VERTEX
8
CUT
10
32.7867
20
-67.0875
0
VERTEX
8
CUT
10
32.8326
20
-67.0635
0
VERTEX
8
CUT
10
32.8840
20
-67.0346
0
VERTEX
8
CUT
10
32.9269
20
-67.0086
0
VERTEX
8
CUT
10
32.9868
20
-66.9698
0
VERTEX
8
CUT
10
33.0071
20
-66.9562
0
VERTEX
8
CUT
10
33.0146
20
-66.9511
0
VERTEX
8
CUT
10
33.0241
20
-66.9443
0
VERTEX
8
CUT
10
33.0495
20
-66.9262
0
VERTEX
8
CUT
10
33.0671
20
-66.9132
0
VERTEX
8
CUT
10
33.0868
20
-66.8983
0
VERTEX
8
CUT
10
33.0949
20
-66.8921
0
VERTEX
8
CUT
10
33.1231
20
-66.8702
0
VERTEX
8
CUT
10
33.1311
20
-66.8639
0
VERTEX
8
CUT
10
33.1479
20
-66.8505
0
VERTEX
8
CUT
10
33.1658
20
-66.8358
0
VERTEX
8
CUT
10
33.1816
20
-66.8225
0
VERTEX
8
CUT
10
33.2135
20
-66.7939
0
VERTEX
8
CUT
10
33.2570
20
-66.7530
0
VERTEX
8
CUT
10
33.3015
20
-66.7076
0
VERTEX
8
CUT
10
33.3222
20
-66.6847
0
VERTEX
8
CUT
10
33.3647
20
-66.6336
0
VERTEX
8
CUT
10
33.3744
20
-66.6209
0
VERTEX
8
CUT
10
33.4110
20
-66.5689
0
VERTEX
8
CUT
10
33.4265
20
-66.5448
0
VERTEX
8
CUT
10
33.4568
20
-66.4939
0
VERTEX
8
CUT
10
33.4803
20
-66.4507
0
VERTEX
8
CUT
10
33.5044
20
-66.4027
0
VERTEX
8
CUT
10
33.5343
20
-66.3377
0
VERTEX
8
CUT
10
33.5446
20
-66.3145
0
VERTEX
8
CUT
10
33.5491
20
-66.3038
0
VERTEX
8
CUT
10
33.5537
20
-66.2928
0
VERTEX
8
CUT
10
33.5682
20
-66.2569
0
VERTEX
8
CUT
10
33.5762
20
-66.2364
0
VERTEX
8
CUT
10
33.5876
20
-66.2060
0
VERTEX
8
CUT
10
33.5911
20
-66.1965
0
VERTEX
8
CUT
10
33.6031
20
-66.1629
0
VERTEX
8
CUT
10
33.6065
20
-66.1533
0
VERTEX
8
CUT
10
33.6181
20
-66.1196
0
VERTEX
8
CUT
10
33.6214
20
-66.1100
0
VERTEX
8
CUT
10
33.6360
20
-66.0658
0
VERTEX
8
CUT
10
33.6386
20
-66.0577
0
VERTEX
8
CUT
10
33.6477
20
-66.0293
0
VERTEX
8
CUT
10
33.6503
20
-66.0212
0
VERTEX
8
CUT
10
33.6590
20
-65.9927
0
VERTEX
8
CUT
10
33.6615
20
-65.9845
0
VERTEX
8
CUT
10
33.6699
20
-65.9559
0
VERTEX
8
CUT
10
33.6723
20
-65.9478
0
VERTEX
8
CUT
10
33.6995
20
-65.8522
0
VERTEX
8
CUT
10
33.7013
20
-65.8456
0
VERTEX
8
CUT
10
33.7077
20
-65.8222
0
VERTEX
8
CUT
10
33.7095
20
-65.8155
0
VERTEX
8
CUT
10
33.7158
20
-65.7921
0
VERTEX
8
CUT
10
33.7175
20
-65.7854
0
VERTEX
8
CUT
10
33.7235
20
-65.7619
0
VERTEX
8
CUT
10
33.7252
20
-65.7552
0
VERTEX
8
CUT
10
33.7614
20
-65.6087
0
VERTEX
8
CUT
10
33.7627
20
-65.6034
0
VERTEX
8
CUT
10
33.7672
20
-65.5849
0
VERTEX
8
CUT
10
33.7684
20
-65.5796
0
VERTEX
8
CUT
10
33.7727
20
-65.5611
0
VERTEX
8
CUT
10
33.7739
20
-65.5558
0
VERTEX
8
CUT
10
33.7781
20
-65.5373
0
VERTEX
8
CUT
10
33.7793
20
-65.5320
0
VERTEX
8
CUT
10
33.8221
20
-65.3361
0
VERTEX
8
CUT
10
33.8229
20
-65.3321
0
VERTEX
8
CUT
10
33.8259
20
-65.3183
0
VERTEX
8
CUT
10
33.8267
20
-65.3143
0
VERTEX
8
CUT
10
33.8296
20
-65.3004
0
VERTEX
8
CUT
10
33.8304
20
-65.2964
0
VERTEX
8
CUT
10
33.8333
20
-65.2826
0
VERTEX
8
CUT
10
33.8341
20
-65.2786
0
VERTEX
8
CUT
10
33.8820
20
-65.0356
0
VERTEX
8
CUT
10
33.8825
20
-65.0329
0
VERTEX
8
CUT
10
33.8844
20
-65.0233
0
VERTEX
8
CUT
10
33.8849
20
-65.0205
0
VERTEX
8
CUT
10
33.8868
20
-65.0109
0
VERTEX
8
CUT
10
33.8873
20
-65.0082
0
VERTEX
8
CUT
10
33.8891
20
-64.9985
0
VERTEX
8
CUT
10
33.8896
20
-64.9958
0
VERTEX
8
CUT
10
33.9421
20
-64.7085
0
VERTEX
8
CUT
10
33.9424
20
-64.7068
0
VERTEX
8
CUT
10
33.9435
20
-64.7011
0
VERTEX
8
CUT
10
33.9438
20
-64.6995
0
VERTEX
8
CUT
10
33.9448
20
-64.6937
0
VERTEX
8
CUT
10
33.9451
20
-64.6921
0
VERTEX
8
CUT
10
33.9461
20
-64.6864
0
VERTEX
8
CUT
10
33.9464
20
-64.6847
0
VERTEX
8
CUT
10
34.0037
20
-64.3557
0
VERTEX
8
CUT
10
34.0038
20
-64.3551
0
VERTEX
8
CUT
10
34.0042
20
-64.3529
0
VERTEX
8
CUT
10
34.0043
20
-64.3523
0
VERTEX
8
CUT
10
34.0047
20
-64.3501
0
VERTEX
8
CUT
10
34.0048
20
-64.3494
0
VERTEX
8
CUT
10
34.0052
20
-64.3472
0
VERTEX
8
CUT
10
34.0053
20
-64.3466
0
VERTEX
8
CUT
10
34.0669
20
-63.9867
0
VERTEX
8
CUT
10
34.0669
20
-63.9867
0
VERTEX
8
CUT
10
34.0670
20
-63.9859
0
VERTEX
8
CUT
10
34.0672
20
-63.9849
0
VERTEX
8
CUT
10
34.0672
20
-63.9848
0
VERTEX
8
CUT
10
34.0672
20
-63.9848
0
VERTEX
8
CUT
10
34.0673
20
-63.9841
0
VERTEX
8
CUT
10
34.0673
20
-63.9840
0
VERTEX
8
CUT
10
34.0685
20
-63.9770
0
VERTEX
8
CUT
10
34.0686
20
-63.9769
0
VERTEX
8
CUT
10
34.0686
20
-63.9769
0
VERTEX
8
CUT
10
34.0687
20
-63.9762
0
VERTEX
8
CUT
10
34.0687
20
-63.9760
0
VERTEX
8
CUT
10
34.0689
20
-63.9751
0
VERTEX
8
CUT
10
34.0689
20
-63.9751
0
VERTEX
8
CUT
10
34.0690
20
-63.9744
0
VERTEX
8
CUT
10
34.0690
20
-63.9742
0
VERTEX
8
CUT
10
34.1295
20
-63.6234
0
VERTEX
8
CUT
10
34.1299
20
-63.6210
0
VERTEX
8
CUT
10
34.1313
20
-63.6127
0
VERTEX
8
CUT
10
34.1317
20
-63.6104
0
VERTEX
8
CUT
10
34.1331
20
-63.6021
0
VERTEX
8
CUT
10
34.1335
20
-63.5998
0
VERTEX
8
CUT
10
34.1348
20
-63.5915
0
VERTEX
8
CUT
10
34.1352
20
-63.5891
0
VERTEX
8
CUT
10
34.1851
20
-63.2778
0
VERTEX
8
CUT
10
34.1858
20
-63.2730
0
VERTEX
8
CUT
10
34.1884
20
-63.2561
0
VERTEX
8
CUT
10
34.1892
20
-63.2512
0
VERTEX
8
CUT
10
34.1917
20
-63.2343
0
VERTEX
8
CUT
10
34.1924
20
-63.2295
0
VERTEX
8
CUT
10
34.1948
20
-63.2125
0
VERTEX
8
CUT
10
34.1954
20
-63.2077
0
VERTEX
8
CUT
10
34.2378
20
-62.8945
0
VERTEX
8
CUT
10
34.2383
20
-62.8904
0
VERTEX
8
CUT
10
34.2401
20
-62.8764
0
VERTEX
8
CUT
10
34.2406
20
-62.8723
0
VERTEX
8
CUT
10
34.2424
20
-62.8583
0
VERTEX
8
CUT
10
34.2429
20
-62.8542
0
VERTEX
8
CUT
10
34.2446
20
-62.8401
0
VERTEX
8
CUT
10
34.2451
20
-62.8361
0
VERTEX
8
CUT
10
34.2857
20
-62.4818
0
VERTEX
8
CUT
10
34.2860
20
-62.4784
0
VERTEX
8
CUT
10
34.2873
20
-62.4667
0
VERTEX
8
CUT
10
34.2877
20
-62.4633
0
VERTEX
8
CUT
10
34.2889
20
-62.4515
0
VERTEX
8
CUT
10
34.2893
20
-62.4481
0
VERTEX
8
CUT
10
34.2905
20
-62.4364
0
VERTEX
8
CUT
10
34.2908
20
-62.4330
0
VERTEX
8
CUT
10
34.3288
20
-62.0438
0
VERTEX
8
CUT
10
34.3290
20
-62.0409
0
VERTEX
8
CUT
10
34.3300
20
-62.0310
0
VERTEX
8
CUT
10
34.3302
20
-62.0282
0
VERTEX
8
CUT
10
34.3311
20
-62.0183
0
VERTEX
8
CUT
10
34.3314
20
-62.0155
0
VERTEX
8
CUT
10
34.3322
20
-62.0056
0
VERTEX
8
CUT
10
34.3325
20
-62.0027
0
VERTEX
8
CUT
10
34.3673
20
-61.5838
0
VERTEX
8
CUT
10
34.3675
20
-61.5814
0
VERTEX
8
CUT
10
34.3681
20
-61.5731
0
VERTEX
8
CUT
10
34.3683
20
-61.5707
0
VERTEX
8
CUT
10
34.3690
20
-61.5624
0
VERTEX
8
CUT
10
34.3692
20
-61.5600
0
VERTEX
8
CUT
10
34.3698
20
-61.5517
0
VERTEX
8
CUT
10
34.3699
20
-61.5493
0
VERTEX
8
CUT
10
34.4015
20
-61.1053
0
VERTEX
8
CUT
10
34.4017
20
-61.1033
0
VERTEX
8
CUT
10
34.4021
20
-61.0963
0
VERTEX
8
CUT
10
34.4023
20
-61.0943
0
VERTEX
8
CUT
10
34.4027
20
-61.0873
0
VERTEX
8
CUT
10
34.4029
20
-61.0853
0
VERTEX
8
CUT
10
34.4033
20
-61.0783
0
VERTEX
8
CUT
10
34.4034
20
-61.0763
0
VERTEX
8
CUT
10
34.4318
20
-60.6112
0
VERTEX
8
CUT
10
34.4319
20
-60.6096
0
VERTEX
8
CUT
10
34.4323
20
-60.6037
0
VERTEX
8
CUT
10
34.4324
20
-60.6020
0
VERTEX
8
CUT
10
34.4327
20
-60.5962
0
VERTEX
8
CUT
10
34.4328
20
-60.5945
0
VERTEX
8
CUT
10
34.4331
20
-60.5887
0
VERTEX
8
CUT
10
34.4332
20
-60.5870
0
VERTEX
8
CUT
10
34.4586
20
-60.1046
0
VERTEX
8
CUT
10
34.4587
20
-60.1032
0
VERTEX
8
CUT
10
34.4589
20
-60.0984
0
VERTEX
8
CUT
10
34.4590
20
-60.0970
0
VERTEX
8
CUT
10
34.4592
20
-60.0922
0
VERTEX
8
CUT
10
34.4593
20
-60.0908
0
VERTEX
8
CUT
10
34.4595
20
-60.0860
0
VERTEX
8
CUT
10
34.4596
20
-60.0846
0
VERTEX
8
CUT
10
34.4823
20
-59.5883
0
VERTEX
8
CUT
10
34.4823
20
-59.5871
0
VERTEX
8
CUT
10
34.4825
20
-59.5832
0
VERTEX
8
CUT
10
34.4826
20
-59.5821
0
VERTEX
8
CUT
10
34.4827
20
-59.5782
0
VERTEX
8
CUT
10
34.4828
20
-59.5771
0
VERTEX
8
CUT
10
34.4829
20
-59.5731
0
VERTEX
8
CUT
10
34.4830
20
-59.5720
0
VERTEX
8
CUT
10
34.5033
20
-59.0649
0
VERTEX
8
CUT
10
34.5033
20
-59.0640
0
VERTEX
8
CUT
10
34.5035
20
-59.0609
0
VERTEX
8
CUT
10
34.5035
20
-59.0601
0
VERTEX
8
CUT
10
34.5036
20
-59.0570
0
VERTEX
8
CUT
10
34.5037
20
-59.0561
0
VERTEX
8
CUT
10
34.5038
20
-59.0530
0
VERTEX
8
CUT
10
34.5038
20
-59.0521
0
VERTEX
8
CUT
10
34.5222
20
-58.5372
0
VERTEX
8
CUT
10
34.5222
20
-58.5366
0
VERTEX
8
CUT
10
34.5223
20
-58.5343
0
VERTEX
8
CUT
10
34.5223
20
-58.5336
0
VERTEX
8
CUT
10
34.5224
20
-58.5313
0
VERTEX
8
CUT
10
34.5224
20
-58.5307
0
VERTEX
8
CUT
10
34.5225
20
-58.5284
0
VERTEX
8
CUT
10
34.5225
20
-58.5277
0
VERTEX
8
CUT
10
34.5394
20
-58.0077
0
VERTEX
8
CUT
10
34.5394
20
-58.0073
0
VERTEX
8
CUT
10
34.5394
20
-58.0058
0
VERTEX
8
CUT
10
34.5394
20
-58.0053
0
VERTEX
8
CUT
10
34.5395
20
-58.0038
0
VERTEX
8
CUT
10
34.5395
20
-58.0034
0
VERTEX
8
CUT
10
34.5395
20
-58.0018
0
VERTEX
8
CUT
10
34.5396
20
-58.0014
0
VERTEX
8
CUT
10
34.5553
20
-57.4790
0
VERTEX
8
CUT
10
34.5553
20
-57.4787
0
VERTEX
8
CUT
10
34.5554
20
-57.4780
0
VERTEX
8
CUT
10
34.5554
20
-57.4778
0
VERTEX
8
CUT
10
34.5554
20
-57.4770
0
VERTEX
8
CUT
10
34.5554
20
-57.4768
0
VERTEX
8
CUT
10
34.5554
20
-57.4760
0
VERTEX
8
CUT
10
34.5554
20
-57.4758
0
VERTEX
8
CUT
10
34.5706
20
-56.9534
0
VERTEX
8
CUT
10
34.5706
20
-56.9534
0
VERTEX
8
CUT
10
34.5856
20
-56.4403
0
VERTEX
8
CUT
10
34.5856
20
-56.4403
0
VERTEX
8
CUT
10
34.5856
20
-56.4396
0
VERTEX
8
CUT
10
34.5856
20
-56.4396
0
VERTEX
8
CUT
10
34.5856
20
-56.4388
0
VERTEX
8
CUT
10
34.5856
20
-56.4387
0
VERTEX
8
CUT
10
34.5856
20
-56.4381
0
VERTEX
8
CUT
10
34.5856
20
-56.4380
0
VERTEX
8
CUT
10
34.5858
20
-56.4321
0
VERTEX
8
CUT
10
34.5858
20
-56.4320
0
VERTEX
8
CUT
10
34.5858
20
-56.4313
0
VERTEX
8
CUT
10
34.5858
20
-56.4313
0
VERTEX
8
CUT
10
34.5859
20
-56.4305
0
VERTEX
8
CUT
10
34.5859
20
-56.4304
0
VERTEX
8
CUT
10
34.5859
20
-56.4298
0
VERTEX
8
CUT
10
34.5859
20
-56.4297
0
VERTEX
8
CUT
10
34.6010
20
-55.9317
0
VERTEX
8
CUT
10
34.6010
20
-55.9314
0
VERTEX
8
CUT
10
34.6010
20
-55.9303
0
VERTEX
8
CUT
10
34.6010
20
-55.9299
0
VERTEX
8
CUT
10
34.6011
20
-55.9288
0
VERTEX
8
CUT
10
34.6011
20
-55.9284
0
VERTEX
8
CUT
10
34.6011
20
-55.9273
0
VERTEX
8
CUT
10
34.6011
20
-55.9270
0
VERTEX
8
CUT
10
34.6151
20
-55.4389
0
VERTEX
8
CUT
10
34.6151
20
-55.4379
0
VERTEX
8
CUT
10
34.6152
20
-55.4345
0
VERTEX
8
CUT
10
34.6152
20
-55.4335
0
VERTEX
8
CUT
10
34.6153
20
-55.4301
0
VERTEX
8
CUT
10
34.6153
20
-55.4291
0
VERTEX
8
CUT
10
34.6154
20
-55.4256
0
VERTEX
8
CUT
10
34.6154
20
-55.4246
0
VERTEX
8
CUT
10
34.6270
20
-54.9347
0
VERTEX
8
CUT
10
34.6271
20
-54.9338
0
VERTEX
8
CUT
10
34.6271
20
-54.9306
0
VERTEX
8
CUT
10
34.6272
20
-54.9297
0
VERTEX
8
CUT
10
34.6272
20
-54.9265
0
VERTEX
8
CUT
10
34.6272
20
-54.9256
0
VERTEX
8
CUT
10
34.6273
20
-54.9224
0
VERTEX
8
CUT
10
34.6273
20
-54.9215
0
VERTEX
8
CUT
10
34.6369
20
-54.4224
0
VERTEX
8
CUT
10
34.6369
20
-54.4215
0
VERTEX
8
CUT
10
34.6370
20
-54.4186
0
VERTEX
8
CUT
10
34.6370
20
-54.4178
0
VERTEX
8
CUT
10
34.6370
20
-54.4148
0
VERTEX
8
CUT
10
34.6370
20
-54.4140
0
VERTEX
8
CUT
10
34.6371
20
-54.4110
0
VERTEX
8
CUT
10
34.6371
20
-54.4102
0
VERTEX
8
CUT
10
34.6446
20
-53.9043
0
VERTEX
8
CUT
10
34.6447
20
-53.9035
0
VERTEX
8
CUT
10
34.6447
20
-53.9008
0
VERTEX
8
CUT
10
34.6447
20
-53.9000
0
VERTEX
8
CUT
10
34.6447
20
-53.8972
0
VERTEX
8
CUT
10
34.6447
20
-53.8964
0
VERTEX
8
CUT
10
34.6448
20
-53.8937
0
VERTEX
8
CUT
10
34.6448
20
-53.8929
0
VERTEX
8
CUT
10
34.6504
20
-53.3828
0
VERTEX
8
CUT
10
34.6504
20
-53.3821
0
VERTEX
8
CUT
10
34.6504
20
-53.3795
0
VERTEX
8
CUT
10
34.6504
20
-53.3787
0
VERTEX
8
CUT
10
34.6505
20
-53.3761
0
VERTEX
8
CUT
10
34.6505
20
-53.3754
0
VERTEX
8
CUT
10
34.6505
20
-53.3728
0
VERTEX
8
CUT
10
34.6505
20
-53.3720
0
VERTEX
8
CUT
10
34.6542
20
-52.8603
0
VERTEX
8
CUT
10
34.6542
20
-52.8595
0
VERTEX
8
CUT
10
34.6542
20
-52.8570
0
VERTEX
8
CUT
10
34.6542
20
-52.8563
0
VERTEX
8
CUT
10
34.6542
20
-52.8538
0
VERTEX
8
CUT
10
34.6542
20
-52.8531
0
VERTEX
8
CUT
10
34.6542
20
-52.8506
0
VERTEX
8
CUT
10
34.6542
20
-52.8499
0
VERTEX
8
CUT
10
34.6561
20
-52.3389
0
VERTEX
8
CUT
10
34.6561
20
-52.3382
0
VERTEX
8
CUT
10
34.6561
20
-52.3357
0
VERTEX
8
CUT
10
34.6561
20
-52.3350
0
VERTEX
8
CUT
10
34.6561
20
-52.3327
0
VERTEX
8
CUT
10
34.6561
20
-52.3320
0
VERTEX
8
CUT
10
34.6561
20
-52.3295
0
VERTEX
8
CUT
10
34.6561
20
-52.3288
0
VERTEX
8
CUT
10
34.6562
20
-51.8210
0
VERTEX
8
CUT
10
34.6562
20
-51.8203
0
VERTEX
8
CUT
10
34.6562
20
-51.8179
0
VERTEX
8
CUT
10
34.6562
20
-51.8172
0
VERTEX
8
CUT
10
34.6562
20
-51.8149
0
VERTEX
8
CUT
10
34.6562
20
-51.8142
0
VERTEX
8
CUT
10
34.6562
20
-51.8118
0
VERTEX
8
CUT
10
34.6562
20
-51.8111
0
VERTEX
8
CUT
10
34.6546
20
-51.3088
0
VERTEX
8
CUT
10
34.6546
20
-51.3082
0
VERTEX
8
CUT
10
34.6546
20
-51.3058
0
VERTEX
8
CUT
10
34.6546
20
-51.3051
0
VERTEX
8
CUT
10
34.6546
20
-51.3028
0
VERTEX
8
CUT
10
34.6546
20
-51.3021
0
VERTEX
8
CUT
10
34.6546
20
-51.2998
0
VERTEX
8
CUT
10
34.6546
20
-51.2991
0
VERTEX
8
CUT
10
34.6514
20
-50.8048
0
VERTEX
8
CUT
10
34.6514
20
-50.8041
0
VERTEX
8
CUT
10
34.6514
20
-50.8017
0
VERTEX
8
CUT
10
34.6514
20
-50.8011
0
VERTEX
8
CUT
10
34.6513
20
-50.7987
0
VERTEX
8
CUT
10
34.6513
20
-50.7981
0
VERTEX
8
CUT
10
34.6513
20
-50.7957
0
VERTEX
8
CUT
10
34.6513
20
-50.7950
0
VERTEX
8
CUT
10
34.6465
20
-50.3111
0
VERTEX
8
CUT
10
34.6465
20
-50.3104
0
VERTEX
8
CUT
10
34.6465
20
-50.3080
0
VERTEX
8
CUT
10
34.6465
20
-50.3073
0
VERTEX
8
CUT
10
34.6465
20
-50.3050
0
VERTEX
8
CUT
10
34.6465
20
-50.3043
0
VERTEX
8
CUT
10
34.6464
20
-50.3019
0
VERTEX
8
CUT
10
34.6464
20
-50.3013
0
VERTEX
8
CUT
10
34.6402
20
-49.8301
0
VERTEX
8
CUT
10
34.6402
20
-49.8294
0
VERTEX
8
CUT
10
34.6401
20
-49.8270
0
VERTEX
8
CUT
10
34.6401
20
-49.8263
0
VERTEX
8
CUT
10
34.6401
20
-49.8238
0
VERTEX
8
CUT
10
34.6401
20
-49.8231
0
VERTEX
8
CUT
10
34.6400
20
-49.8207
0
VERTEX
8
CUT
10
34.6400
20
-49.8200
0
VERTEX
8
CUT
10
34.6324
20
-49.3642
0
VERTEX
8
CUT
10
34.6324
20
-49.3634
0
VERTEX
8
CUT
10
34.6323
20
-49.3609
0
VERTEX
8
CUT
10
34.6323
20
-49.3602
0
VERTEX
8
CUT
10
34.6323
20
-49.3576
0
VERTEX
8
CUT
10
34.6323
20
-49.3569
0
VERTEX
8
CUT
10
34.6322
20
-49.3543
0
VERTEX
8
CUT
10
34.6322
20
-49.3536
0
VERTEX
8
CUT
10
34.6233
20
-48.9157
0
VERTEX
8
CUT
10
34.6233
20
-48.9149
0
VERTEX
8
CUT
10
34.6232
20
-48.9122
0
VERTEX
8
CUT
10
34.6232
20
-48.9114
0
VERTEX
8
CUT
10
34.6231
20
-48.9087
0
VERTEX
8
CUT
10
34.6231
20
-48.9079
0
VERTEX
8
CUT
10
34.6230
20
-48.9052
0
VERTEX
8
CUT
10
34.6230
20
-48.9044
0
VERTEX
8
CUT
10
34.6129
20
-48.4870
0
VERTEX
8
CUT
10
34.6129
20
-48.4862
0
VERTEX
8
CUT
10
34.6128
20
-48.4832
0
VERTEX
8
CUT
10
34.6128
20
-48.4824
0
VERTEX
8
CUT
10
34.6127
20
-48.4795
0
VERTEX
8
CUT
10
34.6127
20
-48.4786
0
VERTEX
8
CUT
10
34.6126
20
-48.4757
0
VERTEX
8
CUT
10
34.6126
20
-48.4748
0
VERTEX
8
CUT
10
34.6012
20
-48.0767
0
VERTEX
8
CUT
10
34.6012
20
-48.0760
0
VERTEX
8
CUT
10
34.6011
20
-48.0739
0
VERTEX
8
CUT
10
34.6011
20
-48.0732
0
VERTEX
8
CUT
10
34.6010
20
-48.0710
0
VERTEX
8
CUT
10
34.6010
20
-48.0704
0
VERTEX
8
CUT
10
34.6010
20
-48.0682
0
VERTEX
8
CUT
10
34.6009
20
-48.0676
0
VERTEX
8
CUT
10
34.5888
20
-47.6852
0
VERTEX
8
CUT
10
34.5888
20
-47.6847
0
VERTEX
8
CUT
10
34.5888
20
-47.6831
0
VERTEX
8
CUT
10
34.5888
20
-47.6827
0
VERTEX
8
CUT
10
34.5887
20
-47.6811
0
VERTEX
8
CUT
10
34.5887
20
-47.6806
0
VERTEX
8
CUT
10
34.5886
20
-47.6790
0
VERTEX
8
CUT
10
34.5886
20
-47.6786
0
VERTEX
8
CUT
10
34.5763
20
-47.3144
0
VERTEX
8
CUT
10
34.5763
20
-47.3137
0
VERTEX
8
CUT
10
34.5762
20
-47.3115
0
VERTEX
8
CUT
10
34.5762
20
-47.3109
0
VERTEX
8
CUT
10
34.5761
20
-47.3087
0
VERTEX
8
CUT
10
34.5761
20
-47.3080
0
VERTEX
8
CUT
10
34.5760
20
-47.3058
0
VERTEX
8
CUT
10
34.5759
20
-47.3052
0
VERTEX
8
CUT
10
34.5632
20
-46.9625
0
VERTEX
8
CUT
10
34.5632
20
-46.9616
0
VERTEX
8
CUT
10
34.5631
20
-46.9588
0
VERTEX
8
CUT
10
34.5631
20
-46.9579
0
VERTEX
8
CUT
10
34.5630
20
-46.9550
0
VERTEX
8
CUT
10
34.5629
20
-46.9542
0
VERTEX
8
CUT
10
34.5628
20
-46.9513
0
VERTEX
8
CUT
10
34.5628
20
-46.9505
0
VERTEX
8
CUT
10
34.5495
20
-46.6283
0
VERTEX
8
CUT
10
34.5494
20
-46.6272
0
VERTEX
8
CUT
10
34.5493
20
-46.6236
0
VERTEX
8
CUT
10
34.5492
20
-46.6226
0
VERTEX
8
CUT
10
34.5491
20
-46.6189
0
VERTEX
8
CUT
10
34.5490
20
-46.6179
0
VERTEX
8
CUT
10
34.5489
20
-46.6142
0
VERTEX
8
CUT
10
34.5488
20
-46.6132
0
VERTEX
8
CUT
10
34.5348
20
-46.3104
0
VERTEX
8
CUT
10
34.5347
20
-46.3092
0
VERTEX
8
CUT
10
34.5345
20
-46.3048
0
VERTEX
8
CUT
10
34.5344
20
-46.3035
0
VERTEX
8
CUT
10
34.5342
20
-46.2991
0
VERTEX
8
CUT
10
34.5341
20
-46.2978
0
VERTEX
8
CUT
10
34.5339
20
-46.2934
0
VERTEX
8
CUT
10
34.5339
20
-46.2921
0
VERTEX
8
CUT
10
34.5188
20
-46.0076
0
VERTEX
8
CUT
10
34.5188
20
-46.0061
0
VERTEX
8
CUT
10
34.5185
20
-46.0009
0
VERTEX
8
CUT
10
34.5184
20
-45.9994
0
VERTEX
8
CUT
10
34.5181
20
-45.9942
0
VERTEX
8
CUT
10
34.5180
20
-45.9927
0
VERTEX
8
CUT
10
34.5177
20
-45.9874
0
VERTEX
8
CUT
10
34.5176
20
-45.9860
0
VERTEX
8
CUT
10
34.5015
20
-45.7182
0
VERTEX
8
CUT
10
34.5014
20
-45.7165
0
VERTEX
8
CUT
10
34.5010
20
-45.7105
0
VERTEX
8
CUT
10
34.5009
20
-45.7088
0
VERTEX
8
CUT
10
34.5005
20
-45.7027
0
VERTEX
8
CUT
10
34.5004
20
-45.7010
0
VERTEX
8
CUT
10
34.5000
20
-45.6950
0
VERTEX
8
CUT
10
34.4999
20
-45.6933
0
VERTEX
8
CUT
10
34.4825
20
-45.4409
0
VERTEX
8
CUT
10
34.4823
20
-45.4390
0
VERTEX
8
CUT
10
34.4818
20
-45.4321
0
VERTEX
8
CUT
10
34.4817
20
-45.4302
0
VERTEX
8
CUT
10
34.4812
20
-45.4234
0
VERTEX
8
CUT
10
34.4810
20
-45.4214
0
VERTEX
8
CUT
10
34.4805
20
-45.4146
0
VERTEX
8
CUT
10
34.4804
20
-45.4126
0
VERTEX
8
CUT
10
34.4616
20
-45.1739
0
VERTEX
8
CUT
10
34.4614
20
-45.1718
0
VERTEX
8
CUT
10
34.4608
20
-45.1642
0
VERTEX
8
CUT
10
34.4606
20
-45.1620
0
VERTEX
8
CUT
10
34.4600
20
-45.1545
0
VERTEX
8
CUT
10
34.4598
20
-45.1523
0
VERTEX
8
CUT
10
34.4591
20
-45.1447
0
VERTEX
8
CUT
10
34.4589
20
-45.1426
0
VERTEX
8
CUT
10
34.4386
20
-44.9156
0
VERTEX
8
CUT
10
34.4384
20
-44.9132
0
VERTEX
8
CUT
10
34.4376
20
-44.9050
0
VERTEX
8
CUT
10
34.4374
20
-44.9026
0
VERTEX
8
CUT
10
34.4366
20
-44.8944
0
VERTEX
8
CUT
10
34.4364
20
-44.8920
0
VERTEX
8
CUT
10
34.4355
20
-44.8838
0
VERTEX
8
CUT
10
34.4353
20
-44.8814
0
VERTEX
8
CUT
10
34.4132
20
-44.6640
0
VERTEX
8
CUT
10
34.4129
20
-44.6615
0
VERTEX
8
CUT
10
34.4120
20
-44.6527
0
VERTEX
8
CUT
10
34.4118
20
-44.6502
0
VERTEX
8
CUT
10
34.4108
20
-44.6414
0
VERTEX
8
CUT
10
34.4105
20
-44.6388
0
VERTEX
8
CUT
10
34.4095
20
-44.6300
0
VERTEX
8
CUT
10
34.4093
20
-44.6275
0
VERTEX
8
CUT
10
34.3852
20
-44.4174
0
VERTEX
8
CUT
10
34.3849
20
-44.4147
0
VERTEX
8
CUT
10
34.3838
20
-44.4055
0
VERTEX
8
CUT
10
34.3835
20
-44.4028
0
VERTEX
8
CUT
10
34.3824
20
-44.3936
0
VERTEX
8
CUT
10
34.3820
20
-44.3909
0
VERTEX
8
CUT
10
34.3809
20
-44.3817
0
VERTEX
8
CUT
10
34.3806
20
-44.3790
0
VERTEX
8
CUT
10
34.3543
20
-44.1736
0
VERTEX
8
CUT
10
34.3539
20
-44.1709
0
VERTEX
8
CUT
10
34.3527
20
-44.1613
0
VERTEX
8
CUT
10
34.3523
20
-44.1586
0
VERTEX
8
CUT
10
34.3510
20
-44.1491
0
VERTEX
8
CUT
10
34.3506
20
-44.1463
0
VERTEX
8
CUT
10
34.3493
20
-44.1368
0
VERTEX
8
CUT
10
34.3489
20
-44.1340
0
VERTEX
8
CUT
10
34.3201
20
-43.9308
0
VERTEX
8
CUT
10
34.3197
20
-43.9280
0
VERTEX
8
CUT
10
34.3183
20
-43.9183
0
VERTEX
8
CUT
10
34.3178
20
-43.9155
0
VERTEX
8
CUT
10
34.3164
20
-43.9058
0
VERTEX
8
CUT
10
34.3160
20
-43.9031
0
VERTEX
8
CUT
10
34.3145
20
-43.8934
0
VERTEX
8
CUT
10
34.3141
20
-43.8906
0
VERTEX
8
CUT
10
34.2822
20
-43.6868
0
VERTEX
8
CUT
10
34.2818
20
-43.6840
0
VERTEX
8
CUT
10
34.2802
20
-43.6743
0
VERTEX
8
CUT
10
34.2798
20
-43.6716
0
VERTEX
8
CUT
10
34.2782
20
-43.6619
0
VERTEX
8
CUT
10
34.2778
20
-43.6592
0
VERTEX
8
CUT
10
34.2761
20
-43.6495
0
VERTEX
8
CUT
10
34.2757
20
-43.6468
0
VERTEX
8
CUT
10
34.2425
20
-43.4526
0
VERTEX
8
CUT
10
34.2419
20
-43.4489
0
VERTEX
8
CUT
10
34.2396
20
-43.4360
0
VERTEX
8
CUT
10
34.2390
20
-43.4323
0
VERTEX
8
CUT
10
34.2367
20
-43.4194
0
VERTEX
8
CUT
10
34.2360
20
-43.4158
0
VERTEX
8
CUT
10
34.2336
20
-43.4029
0
VERTEX
8
CUT
10
34.2329
20
-43.3992
0
VERTEX
8
CUT
10
34.2006
20
-43.2289
0
VERTEX
8
CUT
10
34.1997
20
-43.2244
0
VERTEX
8
CUT
10
34.1966
20
-43.2088
0
VERTEX
8
CUT
10
34.1958
20
-43.2044
0
VERTEX
8
CUT
10
34.1926
20
-43.1887
0
VERTEX
8
CUT
10
34.1917
20
-43.1843
0
VERTEX
8
CUT
10
34.1885
20
-43.1687
0
VERTEX
8
CUT
10
34.1875
20
-43.1642
0
VERTEX
8
CUT
10
34.1537
20
-43.0061
0
VERTEX
8
CUT
10
34.1528
20
-43.0019
0
VERTEX
8
CUT
10
34.1496
20
-42.9873
0
VERTEX
8
CUT
10
34.1487
20
-42.9832
0
VERTEX
8
CUT
10
34.1454
20
-42.9686
0
VERTEX
8
CUT
10
34.1445
20
-42.9644
0
VERTEX
8
CUT
10
34.1411
20
-42.9499
0
VERTEX
8
CUT
10
34.1402
20
-42.9458
0
VERTEX
8
CUT
10
34.1021
20
-42.7846
0
VERTEX
8
CUT
10
34.1012
20
-42.7808
0
VERTEX
8
CUT
10
34.0980
20
-42.7674
0
VERTEX
8
CUT
10
34.0970
20
-42.7635
0
VERTEX
8
CUT
10
34.0937
20
-42.7501
0
VERTEX
8
CUT
10
34.0928
20
-42.7463
0
VERTEX
8
CUT
10
34.0894
20
-42.7329
0
VERTEX
8
CUT
10
34.0884
20
-42.7291
0
VERTEX
8
CUT
10
34.0460
20
-42.5638
0
VERTEX
8
CUT
10
34.0451
20
-42.5603
0
VERTEX
8
CUT
10
34.0419
20
-42.5481
0
VERTEX
8
CUT
10
34.0410
20
-42.5446
0
VERTEX
8
CUT
10
34.0377
20
-42.5325
0
VERTEX
8
CUT
10
34.0368
20
-42.5290
0
VERTEX
8
CUT
10
34.0335
20
-42.5169
0
VERTEX
8
CUT
10
34.0325
20
-42.5134
0
VERTEX
8
CUT
10
33.9854
20
-42.3429
0
VERTEX
8
CUT
10
33.9846
20
-42.3398
0
VERTEX
8
CUT
10
33.9815
20
-42.3289
0
VERTEX
8
CUT
10
33.9807
20
-42.3258
0
VERTEX
8
CUT
10
33.9776
20
-42.3150
0
VERTEX
8
CUT
10
33.9767
20
-42.3119
0
VERTEX
8
CUT
10
33.9735
20
-42.3011
0
VERTEX
8
CUT
10
33.9726
20
-42.2980
0
VERTEX
8
CUT
10
33.9207
20
-42.1212
0
VERTEX
8
CUT
10
33.9199
20
-42.1185
0
VERTEX
8
CUT
10
33.9171
20
-42.1091
0
VERTEX
8
CUT
10
33.9163
20
-42.1064
0
VERTEX
8
CUT
10
33.9135
20
-42.0969
0
VERTEX
8
CUT
10
33.9127
20
-42.0942
0
VERTEX
8
CUT
10
33.9098
20
-42.0848
0
VERTEX
8
CUT
10
33.9089
20
-42.0821
0
VERTEX
8
CUT
10
33.8521
20
-41.8982
0
VERTEX
8
CUT
10
33.8514
20
-41.8959
0
VERTEX
8
CUT
10
33.8489
20
-41.8879
0
VERTEX
8
CUT
10
33.8482
20
-41.8856
0
VERTEX
8
CUT
10
33.8457
20
-41.8776
0
VERTEX
8
CUT
10
33.8449
20
-41.8753
0
VERTEX
8
CUT
10
33.8424
20
-41.8673
0
VERTEX
8
CUT
10
33.8417
20
-41.8651
0
VERTEX
8
CUT
10
33.7798
20
-41.6732
0
VERTEX
8
CUT
10
33.7792
20
-41.6713
0
VERTEX
8
CUT
10
33.7771
20
-41.6648
0
VERTEX
8
CUT
10
33.7765
20
-41.6629
0
VERTEX
8
CUT
10
33.7744
20
-41.6564
0
VERTEX
8
CUT
10
33.7738
20
-41.6546
0
VERTEX
8
CUT
10
33.7716
20
-41.6481
0
VERTEX
8
CUT
10
33.7710
20
-41.6462
0
VERTEX
8
CUT
10
33.7042
20
-41.4455
0
VERTEX
8
CUT
10
33.7037
20
-41.4441
0
VERTEX
8
CUT
10
33.7020
20
-41.4392
0
VERTEX
8
CUT
10
33.7016
20
-41.4378
0
VERTEX
8
CUT
10
33.6999
20
-41.4328
0
VERTEX
8
CUT
10
33.6994
20
-41.4314
0
VERTEX
8
CUT
10
33.6977
20
-41.4264
0
VERTEX
8
CUT
10
33.6973
20
-41.4250
0
VERTEX
8
CUT
10
33.6255
20
-41.2148
0
VERTEX
8
CUT
10
33.6252
20
-41.2138
0
VERTEX
8
CUT
10
33.6240
20
-41.2105
0
VERTEX
8
CUT
10
33.6237
20
-41.2095
0
VERTEX
8
CUT
10
33.6225
20
-41.2061
0
VERTEX
8
CUT
10
33.6222
20
-41.2052
0
VERTEX
8
CUT
10
33.6210
20
-41.2018
0
VERTEX
8
CUT
10
33.6207
20
-41.2008
0
VERTEX
8
CUT
10
33.5442
20
-40.9804
0
VERTEX
8
CUT
10
33.5440
20
-40.9799
0
VERTEX
8
CUT
10
33.5434
20
-40.9781
0
VERTEX
8
CUT
10
33.5432
20
-40.9776
0
VERTEX
8
CUT
10
33.5426
20
-40.9759
0
VERTEX
8
CUT
10
33.5424
20
-40.9754
0
VERTEX
8
CUT
10
33.5418
20
-40.9736
0
VERTEX
8
CUT
10
33.5417
20
-40.9731
0
VERTEX
8
CUT
10
33.4607
20
-40.7418
0
VERTEX
8
CUT
10
33.4607
20
-40.7418
0
VERTEX
8
CUT
10
33.4607
20
-40.7417
0
VERTEX
8
CUT
10
33.4606
20
-40.7416
0
VERTEX
8
CUT
10
33.4606
20
-40.7415
0
VERTEX
8
CUT
10
33.4606
20
-40.7414
0
VERTEX
8
CUT
10
33.4605
20
-40.7413
0
VERTEX
8
CUT
10
33.4605
20
-40.7412
0
VERTEX
8
CUT
10
33.3801
20
-40.5116
0
VERTEX
8
CUT
10
33.3797
20
-40.5104
0
VERTEX
8
CUT
10
33.3796
20
-40.5102
0
VERTEX
8
CUT
10
33.3791
20
-40.5088
0
VERTEX
8
CUT
10
33.3790
20
-40.5086
0
VERTEX
8
CUT
10
33.3786
20
-40.5074
0
VERTEX
8
CUT
10
33.3786
20
-40.5073
0
VERTEX
8
CUT
10
33.3746
20
-40.4959
0
VERTEX
8
CUT
10
33.3746
20
-40.4958
0
VERTEX
8
CUT
10
33.3741
20
-40.4946
0
VERTEX
8
CUT
10
33.3741
20
-40.4945
0
VERTEX
8
CUT
10
33.3736
20
-40.4930
0
VERTEX
8
CUT
10
33.3735
20
-40.4928
0
VERTEX
8
CUT
10
33.3731
20
-40.4916
0
VERTEX
8
CUT
10
33.3731
20
-40.4915
0
VERTEX
8
CUT
10
33.2987
20
-40.2776
0
VERTEX
8
CUT
10
33.2986
20
-40.2773
0
VERTEX
8
CUT
10
33.2978
20
-40.2749
0
VERTEX
8
CUT
10
33.2977
20
-40.2746
0
VERTEX
8
CUT
10
33.2966
20
-40.2714
0
VERTEX
8
CUT
10
33.2965
20
-40.2712
0
VERTEX
8
CUT
10
33.2956
20
-40.2687
0
VERTEX
8
CUT
10
33.2955
20
-40.2684
0
VERTEX
8
CUT
10
33.2873
20
-40.2446
0
VERTEX
8
CUT
10
33.2873
20
-40.2444
0
VERTEX
8
CUT
10
33.2864
20
-40.2419
0
VERTEX
8
CUT
10
33.2863
20
-40.2416
0
VERTEX
8
CUT
10
33.2852
20
-40.2384
0
VERTEX
8
CUT
10
33.2851
20
-40.2382
0
VERTEX
8
CUT
10
33.2843
20
-40.2357
0
VERTEX
8
CUT
10
33.2842
20
-40.2354
0
VERTEX
8
CUT
10
33.2166
20
-40.0379
0
VERTEX
8
CUT
10
33.2165
20
-40.0375
0
VERTEX
8
CUT
10
33.2152
20
-40.0337
0
VERTEX
8
CUT
10
33.2150
20
-40.0334
0
VERTEX
8
CUT
10
33.2134
20
-40.0285
0
VERTEX
8
CUT
10
33.2133
20
-40.0281
0
VERTEX
8
CUT
10
33.2120
20
-40.0243
0
VERTEX
8
CUT
10
33.2118
20
-40.0239
0
VERTEX
8
CUT
10
33.1996
20
-39.9876
0
VERTEX
8
CUT
10
33.1994
20
-39.9873
0
VERTEX
8
CUT
10
33.1981
20
-39.9834
0
VERTEX
8
CUT
10
33.1980
20
-39.9831
0
VERTEX
8
CUT
10
33.1964
20
-39.9782
0
VERTEX
8
CUT
10
33.1963
20
-39.9779
0
VERTEX
8
CUT
10
33.1950
20
-39.9740
0
VERTEX
8
CUT
10
33.1949
20
-39.9737
0
VERTEX
8
CUT
10
33.1254
20
-39.7656
0
VERTEX
8
CUT
10
33.1254
20
-39.7656
0
VERTEX
8
CUT
10
33.1253
20
-39.7654
0
VERTEX
8
CUT
10
33.1251
20
-39.7646
0
VERTEX
8
CUT
10
33.1250
20
-39.7645
0
VERTEX
8
CUT
10
33.1250
20
-39.7645
0
VERTEX
8
CUT
10
33.1246
20
-39.7634
0
VERTEX
8
CUT
10
33.1243
20
-39.7625
0
VERTEX
8
CUT
10
33.1243
20
-39.7624
0
VERTEX
8
CUT
10
33.1216
20
-39.7544
0
VERTEX
8
CUT
10
33.1216
20
-39.7544
0
VERTEX
8
CUT
10
33.1216
20
-39.7543
0
VERTEX
8
CUT
10
33.1213
20
-39.7534
0
VERTEX
8
CUT
10
33.1213
20
-39.7533
0
VERTEX
8
CUT
10
33.1209
20
-39.7523
0
VERTEX
8
CUT
10
33.1209
20
-39.7523
0
VERTEX
8
CUT
10
33.1209
20
-39.7522
0
VERTEX
8
CUT
10
33.1206
20
-39.7513
0
VERTEX
8
CUT
10
33.0480
20
-39.5328
0
VERTEX
8
CUT
10
33.0477
20
-39.5318
0
VERTEX
8
CUT
10
33.0465
20
-39.5281
0
VERTEX
8
CUT
10
33.0461
20
-39.5271
0
VERTEX
8
CUT
10
33.0449
20
-39.5235
0
VERTEX
8
CUT
10
33.0446
20
-39.5224
0
VERTEX
8
CUT
10
33.0434
20
-39.5188
0
VERTEX
8
CUT
10
33.0430
20
-39.5178
0
VERTEX
8
CUT
10
32.9717
20
-39.3069
0
VERTEX
8
CUT
10
32.9714
20
-39.3059
0
VERTEX
8
CUT
10
32.9702
20
-39.3026
0
VERTEX
8
CUT
10
32.9699
20
-39.3017
0
VERTEX
8
CUT
10
32.9688
20
-39.2984
0
VERTEX
8
CUT
10
32.9685
20
-39.2974
0
VERTEX
8
CUT
10
32.9673
20
-39.2941
0
VERTEX
8
CUT
10
32.9670
20
-39.2932
0
VERTEX
8
CUT
10
32.8939
20
-39.0806
0
VERTEX
8
CUT
10
32.8936
20
-39.0797
0
VERTEX
8
CUT
10
32.8926
20
-39.0767
0
VERTEX
8
CUT
10
32.8923
20
-39.0758
0
VERTEX
8
CUT
10
32.8912
20
-39.0728
0
VERTEX
8
CUT
10
32.8909
20
-39.0719
0
VERTEX
8
CUT
10
32.8899
20
-39.0689
0
VERTEX
8
CUT
10
32.8896
20
-39.0681
0
VERTEX
8
CUT
10
32.8149
20
-38.8542
0
VERTEX
8
CUT
10
32.8147
20
-38.8534
0
VERTEX
8
CUT
10
32.8137
20
-38.8506
0
VERTEX
8
CUT
10
32.8134
20
-38.8499
0
VERTEX
8
CUT
10
32.8125
20
-38.8471
0
VERTEX
8
CUT
10
32.8122
20
-38.8463
0
VERTEX
8
CUT
10
32.8112
20
-38.8436
0
VERTEX
8
CUT
10
32.8110
20
-38.8428
0
VERTEX
8
CUT
10
32.7350
20
-38.6280
0
VERTEX
8
CUT
10
32.7348
20
-38.6273
0
VERTEX
8
CUT
10
32.7339
20
-38.6248
0
VERTEX
8
CUT
10
32.7336
20
-38.6241
0
VERTEX
8
CUT
10
32.7328
20
-38.6217
0
VERTEX
8
CUT
10
32.7325
20
-38.6210
0
VERTEX
8
CUT
10
32.7316
20
-38.6185
0
VERTEX
8
CUT
10
32.7314
20
-38.6178
0
VERTEX
8
CUT
10
32.6543
20
-38.4024
0
VERTEX
8
CUT
10
32.6541
20
-38.4018
0
VERTEX
8
CUT
10
32.6533
20
-38.3996
0
VERTEX
8
CUT
10
32.6531
20
-38.3989
0
VERTEX
8
CUT
10
32.6523
20
-38.3967
0
VERTEX
8
CUT
10
32.6520
20
-38.3961
0
VERTEX
8
CUT
10
32.6513
20
-38.3939
0
VERTEX
8
CUT
10
32.6510
20
-38.3933
0
VERTEX
8
CUT
10
32.5731
20
-38.1777
0
VERTEX
8
CUT
10
32.5729
20
-38.1771
0
VERTEX
8
CUT
10
32.5722
20
-38.1752
0
VERTEX
8
CUT
10
32.5720
20
-38.1746
0
VERTEX
8
CUT
10
32.5713
20
-38.1727
0
VERTEX
8
CUT
10
32.5711
20
-38.1721
0
VERTEX
8
CUT
10
32.5703
20
-38.1702
0
VERTEX
8
CUT
10
32.5701
20
-38.1696
0
VERTEX
8
CUT
10
32.4915
20
-37.9541
0
VERTEX
8
CUT
10
32.4913
20
-37.9536
0
VERTEX
8
CUT
10
32.4907
20
-37.9519
0
VERTEX
8
CUT
10
32.4905
20
-37.9515
0
VERTEX
8
CUT
10
32.4899
20
-37.9498
0
VERTEX
8
CUT
10
32.4897
20
-37.9493
0
VERTEX
8
CUT
10
32.4891
20
-37.9476
0
VERTEX
8
CUT
10
32.4889
20
-37.9471
0
VERTEX
8
CUT
10
32.4098
20
-37.7320
0
VERTEX
8
CUT
10
32.4097
20
-37.7316
0
VERTEX
8
CUT
10
32.4091
20
-37.7302
0
VERTEX
8
CUT
10
32.4090
20
-37.7298
0
VERTEX
8
CUT
10
32.4085
20
-37.7283
0
VERTEX
8
CUT
10
32.4083
20
-37.7279
0
VERTEX
8
CUT
10
32.4078
20
-37.7265
0
VERTEX
8
CUT
10
32.4076
20
-37.7261
0
VERTEX
8
CUT
10
32.3282
20
-37.5116
0
VERTEX
8
CUT
10
32.3281
20
-37.5113
0
VERTEX
8
CUT
10
32.3277
20
-37.5102
0
VERTEX
8
CUT
10
32.3275
20
-37.5098
0
VERTEX
8
CUT
10
32.3271
20
-37.5087
0
VERTEX
8
CUT
10
32.3270
20
-37.5083
0
VERTEX
8
CUT
10
32.3266
20
-37.5072
0
VERTEX
8
CUT
10
32.3264
20
-37.5068
0
VERTEX
8
CUT
10
32.2469
20
-37.2933
0
VERTEX
8
CUT
10
32.2469
20
-37.2931
0
VERTEX
8
CUT
10
32.2465
20
-37.2922
0
VERTEX
8
CUT
10
32.2464
20
-37.2919
0
VERTEX
8
CUT
10
32.2461
20
-37.2910
0
VERTEX
8
CUT
10
32.2460
20
-37.2908
0
VERTEX
8
CUT
10
32.2457
20
-37.2899
0
VERTEX
8
CUT
10
32.2456
20
-37.2896
0
VERTEX
8
CUT
10
32.1662
20
-37.0774
0
VERTEX
8
CUT
10
32.1661
20
-37.0772
0
VERTEX
8
CUT
10
32.1659
20
-37.0765
0
VERTEX
8
CUT
10
32.1658
20
-37.0763
0
VERTEX
8
CUT
10
32.1656
20
-37.0757
0
VERTEX
8
CUT
10
32.1655
20
-37.0755
0
VERTEX
8
CUT
10
32.1652
20
-37.0748
0
VERTEX
8
CUT
10
32.1652
20
-37.0746
0
VERTEX
8
CUT
10
32.0862
20
-36.8640
0
VERTEX
8
CUT
10
32.0861
20
-36.8639
0
VERTEX
8
CUT
10
32.0860
20
-36.8635
0
VERTEX
8
CUT
10
32.0860
20
-36.8634
0
VERTEX
8
CUT
10
32.0858
20
-36.8629
0
VERTEX
8
CUT
10
32.0857
20
-36.8628
0
VERTEX
8
CUT
10
32.0856
20
-36.8626
0
VERTEX
8
CUT
10
32.0856
20
-36.8624
0
VERTEX
8
CUT
10
32.0071
20
-36.6534
0
VERTEX
8
CUT
10
32.0070
20
-36.6533
0
VERTEX
8
CUT
10
32.0069
20
-36.6530
0
VERTEX
8
CUT
10
32.0069
20
-36.6530
0
VERTEX
8
CUT
10
31.9298
20
-36.4477
0
VERTEX
8
CUT
10
31.9297
20
-36.4475
0
VERTEX
8
CUT
10
31.9296
20
-36.4473
0
VERTEX
8
CUT
10
31.9296
20
-36.4471
0
VERTEX
8
CUT
10
31.9296
20
-36.4471
0
VERTEX
8
CUT
10
31.9295
20
-36.4471
0
VERTEX
8
CUT
10
31.9295
20
-36.4471
0
VERTEX
8
CUT
10
31.9289
20
-36.4453
0
VERTEX
8
CUT
10
31.9289
20
-36.4453
0
VERTEX
8
CUT
10
31.9289
20
-36.4453
0
VERTEX
8
CUT
10
31.9289
20
-36.4453
0
VERTEX
8
CUT
10
31.9287
20
-36.4450
0
VERTEX
8
CUT
10
31.9287
20
-36.4448
0
VERTEX
8
CUT
10
31.9286
20
-36.4447
0
VERTEX
8
CUT
10
31.8583
20
-36.2574
0
VERTEX
8
CUT
10
31.8579
20
-36.2563
0
VERTEX
8
CUT
10
31.8565
20
-36.2526
0
VERTEX
8
CUT
10
31.8561
20
-36.2516
0
VERTEX
8
CUT
10
31.8548
20
-36.2479
0
VERTEX
8
CUT
10
31.8544
20
-36.2469
0
VERTEX
8
CUT
10
31.8530
20
-36.2432
0
VERTEX
8
CUT
10
31.8526
20
-36.2422
0
VERTEX
8
CUT
10
31.7928
20
-36.0856
0
VERTEX
8
CUT
10
31.7920
20
-36.0836
0
VERTEX
8
CUT
10
31.7893
20
-36.0765
0
VERTEX
8
CUT
10
31.7885
20
-36.0745
0
VERTEX
8
CUT
10
31.7857
20
-36.0674
0
VERTEX
8
CUT
10
31.7850
20
-36.0653
0
VERTEX
8
CUT
10
31.7822
20
-36.0582
0
VERTEX
8
CUT
10
31.7814
20
-36.0562
0
VERTEX
8
CUT
10
31.7251
20
-35.9134
0
VERTEX
8
CUT
10
31.7244
20
-35.9117
0
VERTEX
8
CUT
10
31.7220
20
-35.9057
0
VERTEX
8
CUT
10
31.7213
20
-35.9040
0
VERTEX
8
CUT
10
31.7190
20
-35.8980
0
VERTEX
8
CUT
10
31.7183
20
-35.8963
0
VERTEX
8
CUT
10
31.7159
20
-35.8903
0
VERTEX
8
CUT
10
31.7152
20
-35.8886
0
VERTEX
8
CUT
10
31.6557
20
-35.7417
0
VERTEX
8
CUT
10
31.6551
20
-35.7403
0
VERTEX
8
CUT
10
31.6532
20
-35.7355
0
VERTEX
8
CUT
10
31.6526
20
-35.7342
0
VERTEX
8
CUT
10
31.6506
20
-35.7294
0
VERTEX
8
CUT
10
31.6501
20
-35.7280
0
VERTEX
8
CUT
10
31.6481
20
-35.7232
0
VERTEX
8
CUT
10
31.6475
20
-35.7219
0
VERTEX
8
CUT
10
31.5846
20
-35.5696
0
VERTEX
8
CUT
10
31.5842
20
-35.5686
0
VERTEX
8
CUT
10
31.5827
20
-35.5652
0
VERTEX
8
CUT
10
31.5823
20
-35.5642
0
VERTEX
8
CUT
10
31.5808
20
-35.5606
0
VERTEX
8
CUT
10
31.5804
20
-35.5596
0
VERTEX
8
CUT
10
31.5790
20
-35.5561
0
VERTEX
8
CUT
10
31.5785
20
-35.5551
0
VERTEX
8
CUT
10
31.5120
20
-35.3966
0
VERTEX
8
CUT
10
31.5117
20
-35.3960
0
VERTEX
8
CUT
10
31.5108
20
-35.3939
0
VERTEX
8
CUT
10
31.5106
20
-35.3933
0
VERTEX
8
CUT
10
31.5097
20
-35.3911
0
VERTEX
8
CUT
10
31.5094
20
-35.3905
0
VERTEX
8
CUT
10
31.5085
20
-35.3884
0
VERTEX
8
CUT
10
31.5082
20
-35.3878
0
VERTEX
8
CUT
10
31.4379
20
-35.2219
0
VERTEX
8
CUT
10
31.4379
20
-35.2217
0
VERTEX
8
CUT
10
31.4376
20
-35.2211
0
VERTEX
8
CUT
10
31.4375
20
-35.2208
0
VERTEX
8
CUT
10
31.4372
20
-35.2201
0
VERTEX
8
CUT
10
31.4371
20
-35.2199
0
VERTEX
8
CUT
10
31.4368
20
-35.2192
0
VERTEX
8
CUT
10
31.4367
20
-35.2190
0
VERTEX
8
CUT
10
31.3656
20
-35.0518
0
VERTEX
8
CUT
10
31.3656
20
-35.0518
0
VERTEX
8
CUT
10
31.3656
20
-35.0518
0
VERTEX
8
CUT
10
31.3653
20
-35.0511
0
VERTEX
8
CUT
10
31.3653
20
-35.0511
0
VERTEX
8
CUT
10
31.3653
20
-35.0511
0
VERTEX
8
CUT
10
31.3649
20
-35.0503
0
VERTEX
8
CUT
10
31.3647
20
-35.0496
0
VERTEX
8
CUT
10
31.3646
20
-35.0496
0
VERTEX
8
CUT
10
31.3621
20
-35.0435
0
VERTEX
8
CUT
10
31.3618
20
-35.0428
0
VERTEX
8
CUT
10
31.3614
20
-35.0420
0
VERTEX
8
CUT
10
31.3614
20
-35.0420
0
VERTEX
8
CUT
10
31.3612
20
-35.0414
0
VERTEX
8
CUT
10
31.3612
20
-35.0414
0
VERTEX
8
CUT
10
31.3611
20
-35.0412
0
VERTEX
8
CUT
10
31.2951
20
-34.8854
0
VERTEX
8
CUT
10
31.2950
20
-34.8852
0
VERTEX
8
CUT
10
31.2942
20
-34.8833
0
VERTEX
8
CUT
10
31.2941
20
-34.8832
0
VERTEX
8
CUT
10
31.2931
20
-34.8808
0
VERTEX
8
CUT
10
31.2931
20
-34.8806
0
VERTEX
8
CUT
10
31.2923
20
-34.8788
0
VERTEX
8
CUT
10
31.2922
20
-34.8786
0
VERTEX
8
CUT
10
31.2848
20
-34.8609
0
VERTEX
8
CUT
10
31.2847
20
-34.8608
0
VERTEX
8
CUT
10
31.2839
20
-34.8589
0
VERTEX
8
CUT
10
31.2838
20
-34.8587
0
VERTEX
8
CUT
10
31.2828
20
-34.8564
0
VERTEX
8
CUT
10
31.2827
20
-34.8561
0
VERTEX
8
CUT
10
31.2820
20
-34.8543
0
VERTEX
8
CUT
10
31.2819
20
-34.8541
0
VERTEX
8
CUT
10
31.2239
20
-34.7157
0
VERTEX
8
CUT
10
31.2237
20
-34.7154
0
VERTEX
8
CUT
10
31.2224
20
-34.7123
0
VERTEX
8
CUT
10
31.2223
20
-34.7120
0
VERTEX
8
CUT
10
31.2206
20
-34.7080
0
VERTEX
8
CUT
10
31.2205
20
-34.7077
0
VERTEX
8
CUT
10
31.2192
20
-34.7045
0
VERTEX
8
CUT
10
31.2191
20
-34.7043
0
VERTEX
8
CUT
10
31.2067
20
-34.6745
0
VERTEX
8
CUT
10
31.2066
20
-34.6742
0
VERTEX
8
CUT
10
31.2053
20
-34.6711
0
VERTEX
8
CUT
10
31.2052
20
-34.6708
0
VERTEX
8
CUT
10
31.2035
20
-34.6667
0
VERTEX
8
CUT
10
31.2034
20
-34.6665
0
VERTEX
8
CUT
10
31.2021
20
-34.6633
0
VERTEX
8
CUT
10
31.2020
20
-34.6630
0
VERTEX
8
CUT
10
31.1522
20
-34.5422
0
VERTEX
8
CUT
10
31.1520
20
-34.5418
0
VERTEX
8
CUT
10
31.1502
20
-34.5373
0
VERTEX
8
CUT
10
31.1500
20
-34.5369
0
VERTEX
8
CUT
10
31.1477
20
-34.5312
0
VERTEX
8
CUT
10
31.1475
20
-34.5308
0
VERTEX
8
CUT
10
31.1457
20
-34.5264
0
VERTEX
8
CUT
10
31.1455
20
-34.5260
0
VERTEX
8
CUT
10
31.1283
20
-34.4837
0
VERTEX
8
CUT
10
31.1282
20
-34.4833
0
VERTEX
8
CUT
10
31.1263
20
-34.4788
0
VERTEX
8
CUT
10
31.1262
20
-34.4784
0
VERTEX
8
CUT
10
31.1239
20
-34.4727
0
VERTEX
8
CUT
10
31.1237
20
-34.4723
0
VERTEX
8
CUT
10
31.1219
20
-34.4678
0
VERTEX
8
CUT
10
31.1217
20
-34.4675
0
VERTEX
8
CUT
10
31.0802
20
-34.3642
0
VERTEX
8
CUT
10
31.0800
20
-34.3637
0
VERTEX
8
CUT
10
31.0777
20
-34.3579
0
VERTEX
8
CUT
10
31.0775
20
-34.3573
0
VERTEX
8
CUT
10
31.0746
20
-34.3499
0
VERTEX
8
CUT
10
31.0743
20
-34.3494
0
VERTEX
8
CUT
10
31.0720
20
-34.3436
0
VERTEX
8
CUT
10
31.0718
20
-34.3431
0
VERTEX
8
CUT
10
31.0501
20
-34.2880
0
VERTEX
8
CUT
10
31.0499
20
-34.2875
0
VERTEX
8
CUT
10
31.0476
20
-34.2817
0
VERTEX
8
CUT
10
31.0474
20
-34.2811
0
VERTEX
8
CUT
10
31.0445
20
-34.2737
0
VERTEX
8
CUT
10
31.0442
20
-34.2732
0
VERTEX
8
CUT
10
31.0420
20
-34.2674
0
VERTEX
8
CUT
10
31.0418
20
-34.2669
0
VERTEX
8
CUT
10
31.0084
20
-34.1811
0
VERTEX
8
CUT
10
31.0082
20
-34.1804
0
VERTEX
8
CUT
10
31.0054
20
-34.1732
0
VERTEX
8
CUT
10
31.0051
20
-34.1726
0
VERTEX
8
CUT
10
31.0016
20
-34.1634
0
VERTEX
8
CUT
10
31.0014
20
-34.1628
0
VERTEX
8
CUT
10
30.9986
20
-34.1556
0
VERTEX
8
CUT
10
30.9984
20
-34.1549
0
VERTEX
8
CUT
10
30.9725
20
-34.0870
0
VERTEX
8
CUT
10
30.9722
20
-34.0863
0
VERTEX
8
CUT
10
30.9695
20
-34.0791
0
VERTEX
8
CUT
10
30.9693
20
-34.0785
0
VERTEX
8
CUT
10
30.9658
20
-34.0693
0
VERTEX
8
CUT
10
30.9656
20
-34.0686
0
VERTEX
8
CUT
10
30.9629
20
-34.0614
0
VERTEX
8
CUT
10
30.9626
20
-34.0608
0
VERTEX
8
CUT
10
30.9371
20
-33.9922
0
VERTEX
8
CUT
10
30.9368
20
-33.9914
0
VERTEX
8
CUT
10
30.9336
20
-33.9828
0
VERTEX
8
CUT
10
30.9333
20
-33.9821
0
VERTEX
8
CUT
10
30.9293
20
-33.9712
0
VERTEX
8
CUT
10
30.9290
20
-33.9704
0
VERTEX
8
CUT
10
30.9259
20
-33.9618
0
VERTEX
8
CUT
10
30.9256
20
-33.9611
0
VERTEX
8
CUT
10
30.8962
20
-33.8801
0
VERTEX
8
CUT
10
30.8959
20
-33.8793
0
VERTEX
8
CUT
10
30.8928
20
-33.8707
0
VERTEX
8
CUT
10
30.8925
20
-33.8699
0
VERTEX
8
CUT
10
30.8886
20
-33.8590
0
VERTEX
8
CUT
10
30.8883
20
-33.8582
0
VERTEX
8
CUT
10
30.8853
20
-33.8496
0
VERTEX
8
CUT
10
30.8850
20
-33.8489
0
VERTEX
8
CUT
10
30.8666
20
-33.7969
0
VERTEX
8
CUT
10
30.8663
20
-33.7960
0
VERTEX
8
CUT
10
30.8628
20
-33.7861
0
VERTEX
8
CUT
10
30.8625
20
-33.7852
0
VERTEX
8
CUT
10
30.8581
20
-33.7726
0
VERTEX
8
CUT
10
30.8578
20
-33.7717
0
VERTEX
8
CUT
10
30.8544
20
-33.7618
0
VERTEX
8
CUT
10
30.8540
20
-33.7609
0
VERTEX
8
CUT
10
30.8218
20
-33.6670
0
VERTEX
8
CUT
10
30.8215
20
-33.6661
0
VERTEX
8
CUT
10
30.8181
20
-33.6561
0
VERTEX
8
CUT
10
30.8178
20
-33.6552
0
VERTEX
8
CUT
10
30.8135
20
-33.6426
0
VERTEX
8
CUT
10
30.8132
20
-33.6417
0
VERTEX
8
CUT
10
30.8099
20
-33.6317
0
VERTEX
8
CUT
10
30.8096
20
-33.6308
0
VERTEX
8
CUT
10
30.7976
20
-33.5949
0
VERTEX
8
CUT
10
30.7973
20
-33.5939
0
VERTEX
8
CUT
10
30.7936
20
-33.5826
0
VERTEX
8
CUT
10
30.7933
20
-33.5816
0
VERTEX
8
CUT
10
30.7886
20
-33.5673
0
VERTEX
8
CUT
10
30.7883
20
-33.5663
0
VERTEX
8
CUT
10
30.7846
20
-33.5550
0
VERTEX
8
CUT
10
30.7843
20
-33.5540
0
VERTEX
8
CUT
10
30.7501
20
-33.4475
0
VERTEX
8
CUT
10
30.7498
20
-33.4465
0
VERTEX
8
CUT
10
30.7462
20
-33.4352
0
VERTEX
8
CUT
10
30.7459
20
-33.4342
0
VERTEX
8
CUT
10
30.7414
20
-33.4198
0
VERTEX
8
CUT
10
30.7411
20
-33.4188
0
VERTEX
8
CUT
10
30.7375
20
-33.4075
0
VERTEX
8
CUT
10
30.7372
20
-33.4064
0
VERTEX
8
CUT
10
30.7175
20
-33.3426
0
VERTEX
8
CUT
10
30.7173
20
-33.3421
0
VERTEX
8
CUT
10
30.7156
20
-33.3365
0
VERTEX
8
CUT
10
30.7155
20
-33.3360
0
VERTEX
8
CUT
10
30.7133
20
-33.3290
0
VERTEX
8
CUT
10
30.7132
20
-33.3285
0
VERTEX
8
CUT
10
30.7115
20
-33.3229
0
VERTEX
8
CUT
10
30.7113
20
-33.3224
0
VERTEX
8
CUT
10
30.6954
20
-33.2698
0
VERTEX
8
CUT
10
30.6952
20
-33.2693
0
VERTEX
8
CUT
10
30.6936
20
-33.2638
0
VERTEX
8
CUT
10
30.6934
20
-33.2633
0
VERTEX
8
CUT
10
30.6913
20
-33.2562
0
VERTEX
8
CUT
10
30.6911
20
-33.2557
0
VERTEX
8
CUT
10
30.6895
20
-33.2501
0
VERTEX
8
CUT
10
30.6893
20
-33.2496
0
VERTEX
8
CUT
10
30.6510
20
-33.1207
0
VERTEX
8
CUT
10
30.6510
20
-33.1207
0
VERTEX
8
CUT
10
30.6509
20
-33.1204
0
VERTEX
8
CUT
10
30.6509
20
-33.1203
0
VERTEX
8
CUT
10
30.6078
20
-32.9757
0
VERTEX
8
CUT
10
30.6078
20
-32.9756
0
VERTEX
8
CUT
10
30.6073
20
-32.9740
0
VERTEX
8
CUT
10
30.6073
20
-32.9739
0
VERTEX
8
CUT
10
30.6067
20
-32.9719
0
VERTEX
8
CUT
10
30.6067
20
-32.9718
0
VERTEX
8
CUT
10
30.6062
20
-32.9703
0
VERTEX
8
CUT
10
30.6062
20
-32.9701
0
VERTEX
8
CUT
10
30.6019
20
-32.9556
0
VERTEX
8
CUT
10
30.6018
20
-32.9554
0
VERTEX
8
CUT
10
30.6014
20
-32.9539
0
VERTEX
8
CUT
10
30.6014
20
-32.9538
0
VERTEX
8
CUT
10
30.6008
20
-32.9518
0
VERTEX
8
CUT
10
30.6007
20
-32.9517
0
VERTEX
8
CUT
10
30.6003
20
-32.9501
0
VERTEX
8
CUT
10
30.6002
20
-32.9499
0
VERTEX
8
CUT
10
30.5657
20
-32.8327
0
VERTEX
8
CUT
10
30.5656
20
-32.8324
0
VERTEX
8
CUT
10
30.5646
20
-32.8291
0
VERTEX
8
CUT
10
30.5646
20
-32.8288
0
VERTEX
8
CUT
10
30.5633
20
-32.8245
0
VERTEX
8
CUT
10
30.5632
20
-32.8242
0
VERTEX
8
CUT
10
30.5622
20
-32.8209
0
VERTEX
8
CUT
10
30.5622
20
-32.8205
0
VERTEX
8
CUT
10
30.5530
20
-32.7889
0
VERTEX
8
CUT
10
30.5529
20
-32.7886
0
VERTEX
8
CUT
10
30.5519
20
-32.7853
0
VERTEX
8
CUT
10
30.5518
20
-32.7850
0
VERTEX
8
CUT
10
30.5506
20
-32.7807
0
VERTEX
8
CUT
10
30.5505
20
-32.7804
0
VERTEX
8
CUT
10
30.5495
20
-32.7771
0
VERTEX
8
CUT
10
30.5494
20
-32.7768
0
VERTEX
8
CUT
10
30.5238
20
-32.6877
0
VERTEX
8
CUT
10
30.5237
20
-32.6872
0
VERTEX
8
CUT
10
30.5222
20
-32.6819
0
VERTEX
8
CUT
10
30.5220
20
-32.6815
0
VERTEX
8
CUT
10
30.5202
20
-32.6748
0
VERTEX
8
CUT
10
30.5200
20
-32.6743
0
VERTEX
8
CUT
10
30.5185
20
-32.6691
0
VERTEX
8
CUT
10
30.5184
20
-32.6686
0
VERTEX
8
CUT
10
30.5044
20
-32.6190
0
VERTEX
8
CUT
10
30.5043
20
-32.6185
0
VERTEX
8
CUT
10
30.5028
20
-32.6132
0
VERTEX
8
CUT
10
30.5027
20
-32.6128
0
VERTEX
8
CUT
10
30.5008
20
-32.6061
0
VERTEX
8
CUT
10
30.5006
20
-32.6056
0
VERTEX
8
CUT
10
30.4992
20
-32.6003
0
VERTEX
8
CUT
10
30.4991
20
-32.5999
0
VERTEX
8
CUT
10
30.4818
20
-32.5374
0
VERTEX
8
CUT
10
30.4816
20
-32.5367
0
VERTEX
8
CUT
10
30.4796
20
-32.5296
0
VERTEX
8
CUT
10
30.4794
20
-32.5290
0
VERTEX
8
CUT
10
30.4770
20
-32.5199
0
VERTEX
8
CUT
10
30.4768
20
-32.5193
0
VERTEX
8
CUT
10
30.4749
20
-32.5122
0
VERTEX
8
CUT
10
30.4747
20
-32.5115
0
VERTEX
8
CUT
10
30.4566
20
-32.4442
0
VERTEX
8
CUT
10
30.4564
20
-32.4436
0
VERTEX
8
CUT
10
30.4545
20
-32.4365
0
VERTEX
8
CUT
10
30.4543
20
-32.4358
0
VERTEX
8
CUT
10
30.4519
20
-32.4268
0
VERTEX
8
CUT
10
30.4517
20
-32.4261
0
VERTEX
8
CUT
10
30.4498
20
-32.4190
0
VERTEX
8
CUT
10
30.4497
20
-32.4183
0
VERTEX
8
CUT
10
30.4394
20
-32.3792
0
VERTEX
8
CUT
10
30.4392
20
-32.3784
0
VERTEX
8
CUT
10
30.4369
20
-32.3696
0
VERTEX
8
CUT
10
30.4367
20
-32.3688
0
VERTEX
8
CUT
10
30.4338
20
-32.3576
0
VERTEX
8
CUT
10
30.4336
20
-32.3568
0
VERTEX
8
CUT
10
30.4314
20
-32.3480
0
VERTEX
8
CUT
10
30.4312
20
-32.3472
0
VERTEX
8
CUT
10
30.4101
20
-32.2641
0
VERTEX
8
CUT
10
30.4099
20
-32.2633
0
VERTEX
8
CUT
10
30.4077
20
-32.2545
0
VERTEX
8
CUT
10
30.4075
20
-32.2537
0
VERTEX
8
CUT
10
30.4047
20
-32.2425
0
VERTEX
8
CUT
10
30.4045
20
-32.2417
0
VERTEX
8
CUT
10
30.4023
20
-32.2328
0
VERTEX
8
CUT
10
30.4021
20
-32.2320
0
VERTEX
8
CUT
10
30.3970
20
-32.2112
0
VERTEX
8
CUT
10
30.3968
20
-32.2103
0
VERTEX
8
CUT
10
30.3943
20
-32.2001
0
VERTEX
8
CUT
10
30.3941
20
-32.1992
0
VERTEX
8
CUT
10
30.3910
20
-32.1863
0
VERTEX
8
CUT
10
30.3908
20
-32.1854
0
VERTEX
8
CUT
10
30.3884
20
-32.1752
0
VERTEX
8
CUT
10
30.3881
20
-32.1743
0
VERTEX
8
CUT
10
30.3656
20
-32.0784
0
VERTEX
8
CUT
10
30.3654
20
-32.0774
0
VERTEX
8
CUT
10
30.3630
20
-32.0673
0
VERTEX
8
CUT
10
30.3628
20
-32.0663
0
VERTEX
8
CUT
10
30.3598
20
-32.0534
0
VERTEX
8
CUT
10
30.3596
20
-32.0525
0
VERTEX
8
CUT
10
30.3573
20
-32.0423
0
VERTEX
8
CUT
10
30.3571
20
-32.0414
0
VERTEX
8
CUT
10
30.3551
20
-32.0322
0
VERTEX
8
CUT
10
30.3548
20
-32.0312
0
VERTEX
8
CUT
10
30.3524
20
-32.0202
0
VERTEX
8
CUT
10
30.3522
20
-32.0192
0
VERTEX
8
CUT
10
30.3491
20
-32.0051
0
VERTEX
8
CUT
10
30.3488
20
-32.0041
0
VERTEX
8
CUT
10
30.3464
20
-31.9930
0
VERTEX
8
CUT
10
30.3462
20
-31.9920
0
VERTEX
8
CUT
10
30.3238
20
-31.8873
0
VERTEX
8
CUT
10
30.3236
20
-31.8863
0
VERTEX
8
CUT
10
30.3213
20
-31.8752
0
VERTEX
8
CUT
10
30.3211
20
-31.8742
0
VERTEX
8
CUT
10
30.3181
20
-31.8601
0
VERTEX
8
CUT
10
30.3179
20
-31.8591
0
VERTEX
8
CUT
10
30.3156
20
-31.8480
0
VERTEX
8
CUT
10
30.3154
20
-31.8470
0
VERTEX
8
CUT
10
30.3144
20
-31.8420
0
VERTEX
8
CUT
10
30.3142
20
-31.8410
0
VERTEX
8
CUT
10
30.3119
20
-31.8295
0
VERTEX
8
CUT
10
30.3117
20
-31.8284
0
VERTEX
8
CUT
10
30.3088
20
-31.8138
0
VERTEX
8
CUT
10
30.3086
20
-31.8127
0
VERTEX
8
CUT
10
30.3063
20
-31.8012
0
VERTEX
8
CUT
10
30.3061
20
-31.8002
0
VERTEX
8
CUT
10
30.2852
20
-31.6913
0
VERTEX
8
CUT
10
30.2850
20
-31.6902
0
VERTEX
8
CUT
10
30.2828
20
-31.6787
0
VERTEX
8
CUT
10
30.2826
20
-31.6777
0
VERTEX
8
CUT
10
30.2799
20
-31.6630
0
VERTEX
8
CUT
10
30.2797
20
-31.6619
0
VERTEX
8
CUT
10
30.2776
20
-31.6504
0
VERTEX
8
CUT
10
30.2774
20
-31.6494
0
VERTEX
8
CUT
10
30.2758
20
-31.6408
0
VERTEX
8
CUT
10
30.2756
20
-31.6398
0
VERTEX
8
CUT
10
30.2736
20
-31.6283
0
VERTEX
8
CUT
10
30.2734
20
-31.6273
0
VERTEX
8
CUT
10
30.2708
20
-31.6126
0
VERTEX
8
CUT
10
30.2706
20
-31.6116
0
VERTEX
8
CUT
10
30.2687
20
-31.6001
0
VERTEX
8
CUT
10
30.2685
20
-31.5990
0
VERTEX
8
CUT
10
30.2500
20
-31.4903
0
VERTEX
8
CUT
10
30.2498
20
-31.4892
0
VERTEX
8
CUT
10
30.2479
20
-31.4777
0
VERTEX
8
CUT
10
30.2477
20
-31.4767
0
VERTEX
8
CUT
10
30.2453
20
-31.4620
0
VERTEX
8
CUT
10
30.2451
20
-31.4610
0
VERTEX
8
CUT
10
30.2432
20
-31.4495
0
VERTEX
8
CUT
10
30.2431
20
-31.4484
0
VERTEX
8
CUT
10
30.2400
20
-31.4292
0
VERTEX
8
CUT
10
30.2398
20
-31.4282
0
VERTEX
8
CUT
10
30.2381
20
-31.4171
0
VERTEX
8
CUT
10
30.2379
20
-31.4161
0
VERTEX
8
CUT
10
30.2358
20
-31.4020
0
VERTEX
8
CUT
10
30.2356
20
-31.4010
0
VERTEX
8
CUT
10
30.2339
20
-31.3899
0
VERTEX
8
CUT
10
30.2338
20
-31.3889
0
VERTEX
8
CUT
10
30.2182
20
-31.2839
0
VERTEX
8
CUT
10
30.2180
20
-31.2829
0
VERTEX
8
CUT
10
30.2164
20
-31.2718
0
VERTEX
8
CUT
10
30.2162
20
-31.2708
0
VERTEX
8
CUT
10
30.2142
20
-31.2567
0
VERTEX
8
CUT
10
30.2141
20
-31.2557
0
VERTEX
8
CUT
10
30.2125
20
-31.2446
0
VERTEX
8
CUT
10
30.2124
20
-31.2436
0
VERTEX
8
CUT
10
30.2074
20
-31.2075
0
VERTEX
8
CUT
10
30.2072
20
-31.2066
0
VERTEX
8
CUT
10
30.2058
20
-31.1962
0
VERTEX
8
CUT
10
30.2057
20
-31.1952
0
VERTEX
8
CUT
10
30.2039
20
-31.1820
0
VERTEX
8
CUT
10
30.2038
20
-31.1811
0
VERTEX
8
CUT
10
30.2024
20
-31.1707
0
VERTEX
8
CUT
10
30.2023
20
-31.1697
0
VERTEX
8
CUT
10
30.1897
20
-31.0714
0
VERTEX
8
CUT
10
30.1895
20
-31.0705
0
VERTEX
8
CUT
10
30.1882
20
-31.0601
0
VERTEX
8
CUT
10
30.1881
20
-31.0591
0
VERTEX
8
CUT
10
30.1865
20
-31.0459
0
VERTEX
8
CUT
10
30.1863
20
-31.0449
0
VERTEX
8
CUT
10
30.1851
20
-31.0345
0
VERTEX
8
CUT
10
30.1850
20
-31.0336
0
VERTEX
8
CUT
10
30.1781
20
-30.9758
0
VERTEX
8
CUT
10
30.1780
20
-30.9749
0
VERTEX
8
CUT
10
30.1769
20
-30.9654
0
VERTEX
8
CUT
10
30.1768
20
-30.9645
0
VERTEX
8
CUT
10
30.1754
20
-30.9524
0
VERTEX
8
CUT
10
30.1753
20
-30.9516
0
VERTEX
8
CUT
10
30.1742
20
-30.9421
0
VERTEX
8
CUT
10
30.1741
20
-30.9412
0
VERTEX
8
CUT
10
30.1642
20
-30.8513
0
VERTEX
8
CUT
10
30.1641
20
-30.8504
0
VERTEX
8
CUT
10
30.1631
20
-30.8409
0
VERTEX
8
CUT
10
30.1630
20
-30.8401
0
VERTEX
8
CUT
10
30.1617
20
-30.8279
0
VERTEX
8
CUT
10
30.1616
20
-30.8271
0
VERTEX
8
CUT
10
30.1606
20
-30.8176
0
VERTEX
8
CUT
10
30.1605
20
-30.8167
0
VERTEX
8
CUT
10
30.1521
20
-30.7335
0
VERTEX
8
CUT
10
30.1520
20
-30.7327
0
VERTEX
8
CUT
10
30.1512
20
-30.7242
0
VERTEX
8
CUT
10
30.1511
20
-30.7234
0
VERTEX
8
CUT
10
30.1500
20
-30.7126
0
VERTEX
8
CUT
10
30.1500
20
-30.7118
0
VERTEX
8
CUT
10
30.1491
20
-30.7033
0
VERTEX
8
CUT
10
30.1491
20
-30.7025
0
VERTEX
8
CUT
10
30.1415
20
-30.6219
0
VERTEX
8
CUT
10
30.1414
20
-30.6211
0
VERTEX
8
CUT
10
30.1407
20
-30.6126
0
VERTEX
8
CUT
10
30.1406
20
-30.6118
0
VERTEX
8
CUT
10
30.1396
20
-30.6010
0
VERTEX
8
CUT
10
30.1395
20
-30.6002
0
VERTEX
8
CUT
10
30.1388
20
-30.5917
0
VERTEX
8
CUT
10
30.1387
20
-30.5909
0
VERTEX
8
CUT
10
30.1337
20
-30.5320
0
VERTEX
8
CUT
10
30.1333
20
-30.5277
0
VERTEX
8
CUT
10
30.1298
20
-30.4807
0
VERTEX
8
CUT
10
30.1295
20
-30.4765
0
VERTEX
8
CUT
10
30.1257
20
-30.4167
0
VERTEX
8
CUT
10
30.1254
20
-30.4124
0
VERTEX
8
CUT
10
30.1229
20
-30.3654
0
VERTEX
8
CUT
10
30.1227
20
-30.3611
0
VERTEX
8
CUT
10
30.1037
20
-29.9166
0
VERTEX
8
CUT
10
30.1035
20
-29.9124
0
VERTEX
8
CUT
10
30.1020
20
-29.8653
0
VERTEX
8
CUT
10
30.1019
20
-29.8610
0
VERTEX
8
CUT
10
30.1006
20
-29.8012
0
VERTEX
8
CUT
10
30.1005
20
-29.7969
0
VERTEX
8
CUT
10
30.1000
20
-29.7498
0
VERTEX
8
CUT
10
30.1000
20
-29.7455
0
VERTEX
8
CUT
10
30.1000
20
54.9133
0
VERTEX
8
CUT
10
30.1000
20
54.9198
0
VERTEX
8
CUT
10
30.0998
20
54.9427
0
VERTEX
8
CUT
10
30.0997
20
54.9493
0
VERTEX
8
CUT
10
30.0993
20
54.9722
0
VERTEX
8
CUT
10
30.0992
20
54.9787
0
VERTEX
8
CUT
10
30.0986
20
55.0016
0
VERTEX
8
CUT
10
30.0984
20
55.0081
0
VERTEX
8
CUT
10
30.0877
20
55.3367
0
VERTEX
8
CUT
10
30.0872
20
55.3498
0
VERTEX
8
CUT
10
30.0849
20
55.3956
0
VERTEX
8
CUT
10
30.0842
20
55.4086
0
VERTEX
8
CUT
10
30.0812
20
55.4543
0
VERTEX
8
CUT
10
30.0802
20
55.4673
0
VERTEX
8
CUT
10
30.0765
20
55.5130
0
VERTEX
8
CUT
10
30.0753
20
55.5260
0
VERTEX
8
CUT
10
30.0516
20
55.7669
0
VERTEX
8
CUT
10
30.0502
20
55.7799
0
VERTEX
8
CUT
10
30.0449
20
55.8254
0
VERTEX
8
CUT
10
30.0433
20
55.8384
0
VERTEX
8
CUT
10
30.0374
20
55.8837
0
VERTEX
8
CUT
10
30.0356
20
55.8967
0
VERTEX
8
CUT
10
30.0288
20
55.9420
0
VERTEX
8
CUT
10
30.0268
20
55.9549
0
VERTEX
8
CUT
10
29.9874
20
56.1937
0
VERTEX
8
CUT
10
29.9851
20
56.2066
0
VERTEX
8
CUT
10
29.9769
20
56.2517
0
VERTEX
8
CUT
10
29.9745
20
56.2646
0
VERTEX
8
CUT
10
29.9656
20
56.3094
0
VERTEX
8
CUT
10
29.9629
20
56.3222
0
VERTEX
8
CUT
10
29.9532
20
56.3670
0
VERTEX
8
CUT
10
29.9504
20
56.3798
0
VERTEX
8
CUT
10
29.8954
20
56.6155
0
VERTEX
8
CUT
10
29.8923
20
56.6282
0
VERTEX
8
CUT
10
29.8812
20
56.6726
0
VERTEX
8
CUT
10
29.8779
20
56.6853
0
VERTEX
8
CUT
10
29.8661
20
56.7295
0
VERTEX
8
CUT
10
29.8626
20
56.7421
0
VERTEX
8
CUT
10
29.8500
20
56.7861
0
VERTEX
8
CUT
10
29.8463
20
56.7987
0
VERTEX
8
CUT
10
29.7761
20
57.0303
0
VERTEX
8
CUT
10
29.7722
20
57.0428
0
VERTEX
8
CUT
10
29.7582
20
57.0864
0
VERTEX
8
CUT
10
29.7540
20
57.0988
0
VERTEX
8
CUT
10
29.7393
20
57.1421
0
VERTEX
8
CUT
10
29.7350
20
57.1545
0
VERTEX
8
CUT
10
29.7196
20
57.1976
0
VERTEX
8
CUT
10
29.7151
20
57.2099
0
VERTEX
8
CUT
10
29.6298
20
57.4364
0
VERTEX
8
CUT
10
29.6251
20
57.4486
0
VERTEX
8
CUT
10
29.6083
20
57.4912
0
VERTEX
8
CUT
10
29.6034
20
57.5034
0
VERTEX
8
CUT
10
29.5859
20
57.5456
0
VERTEX
8
CUT
10
29.5808
20
57.5577
0
VERTEX
8
CUT
10
29.5626
20
57.5997
0
VERTEX
8
CUT
10
29.5573
20
57.6116
0
VERTEX
8
CUT
10
29.4574
20
57.8321
0
VERTEX
8
CUT
10
29.4519
20
57.8440
0
VERTEX
8
CUT
10
29.4323
20
57.8854
0
VERTEX
8
CUT
10
29.4266
20
57.8972
0
VERTEX
8
CUT
10
29.4064
20
57.9382
0
VERTEX
8
CUT
10
29.4005
20
57.9499
0
VERTEX
8
CUT
10
29.3796
20
57.9906
0
VERTEX
8
CUT
10
29.3735
20
58.0022
0
VERTEX
8
CUT
10
29.2594
20
58.2157
0
VERTEX
8
CUT
10
29.2531
20
58.2272
0
VERTEX
8
CUT
10
29.2309
20
58.2672
0
VERTEX
8
CUT
10
29.2244
20
58.2786
0
VERTEX
8
CUT
10
29.2016
20
58.3182
0
VERTEX
8
CUT
10
29.1949
20
58.3295
0
VERTEX
8
CUT
10
29.1714
20
58.3688
0
VERTEX
8
CUT
10
29.1645
20
58.3799
0
VERTEX
8
CUT
10
29.0367
20
58.5855
0
VERTEX
8
CUT
10
29.0297
20
58.5965
0
VERTEX
8
CUT
10
29.0049
20
58.6350
0
VERTEX
8
CUT
10
28.9977
20
58.6460
0
VERTEX
8
CUT
10
28.9723
20
58.6840
0
VERTEX
8
CUT
10
28.9650
20
58.6948
0
VERTEX
8
CUT
10
28.9389
20
58.7325
0
VERTEX
8
CUT
10
28.9314
20
58.7432
0
VERTEX
8
CUT
10
28.7904
20
58.9399
0
VERTEX
8
CUT
10
28.7827
20
58.9505
0
VERTEX
8
CUT
10
28.7554
20
58.9873
0
VERTEX
8
CUT
10
28.7475
20
58.9977
0
VERTEX
8
CUT
10
28.7197
20
59.0340
0
VERTEX
8
CUT
10
28.7116
20
59.0443
0
VERTEX
8
CUT
10
28.6831
20
59.0802
0
VERTEX
8
CUT
10
28.6749
20
59.0904
0
VERTEX
8
CUT
10
28.5214
20
59.2775
0
VERTEX
8
CUT
10
28.5130
20
59.2875
0
VERTEX
8
CUT
10
28.4833
20
59.3225
0
VERTEX
8
CUT
10
28.4748
20
59.3324
0
VERTEX
8
CUT
10
28.4447
20
59.3668
0
VERTEX
8
CUT
10
28.4359
20
59.3765
0
VERTEX
8
CUT
10
28.4052
20
59.4105
0
VERTEX
8
CUT
10
28.3963
20
59.4201
0
VERTEX
8
CUT
10
28.2309
20
59.5967
0
VERTEX
8
CUT
10
28.2218
20
59.6062
0
VERTEX
8
CUT
10
28.1900
20
59.6391
0
VERTEX
8
CUT
10
28.1808
20
59.6485
0
VERTEX
8
CUT
10
28.1485
20
59.6808
0
VERTEX
8
CUT
10
28.1391
20
59.6900
0
VERTEX
8
CUT
10
28.1062
20
59.7218
0
VERTEX
8
CUT
10
28.0967
20
59.7309
0
VERTEX
8
CUT
10
27.9201
20
59.8963
0
VERTEX
8
CUT
10
27.9105
20
59.9052
0
VERTEX
8
CUT
10
27.8765
20
59.9359
0
VERTEX
8
CUT
10
27.8668
20
59.9447
0
VERTEX
8
CUT
10
27.8324
20
59.9748
0
VERTEX
8
CUT
10
27.8225
20
59.9833
0
VERTEX
8
CUT
10
27.7875
20
60.0130
0
VERTEX
8
CUT
10
27.7775
20
60.0214
0
VERTEX
8
CUT
10
27.5904
20
60.1749
0
VERTEX
8
CUT
10
27.5802
20
60.1831
0
VERTEX
8
CUT
10
27.5443
20
60.2116
0
VERTEX
8
CUT
10
27.5340
20
60.2197
0
VERTEX
8
CUT
10
27.4977
20
60.2475
0
VERTEX
8
CUT
10
27.4873
20
60.2554
0
VERTEX
8
CUT
10
27.4505
20
60.2827
0
VERTEX
8
CUT
10
27.4399
20
60.2904
0
VERTEX
8
CUT
10
27.2432
20
60.4314
0
VERTEX
8
CUT
10
27.2325
20
60.4389
0
VERTEX
8
CUT
10
27.1948
20
60.4650
0
VERTEX
8
CUT
10
27.1840
20
60.4723
0
VERTEX
8
CUT
10
27.1460
20
60.4977
0
VERTEX
8
CUT
10
27.1350
20
60.5049
0
VERTEX
8
CUT
10
27.0965
20
60.5297
0
VERTEX
8
CUT
10
27.0855
20
60.5367
0
VERTEX
8
CUT
10
26.8799
20
60.6645
0
VERTEX
8
CUT
10
26.8688
20
60.6714
0
VERTEX
8
CUT
10
26.8295
20
60.6949
0
VERTEX
8
CUT
10
26.8182
20
60.7016
0
VERTEX
8
CUT
10
26.7786
20
60.7244
0
VERTEX
8
CUT
10
26.7672
20
60.7309
0
VERTEX
8
CUT
10
26.7272
20
60.7531
0
VERTEX
8
CUT
10
26.7157
20
60.7594
0
VERTEX
8
CUT
10
26.5022
20
60.8735
0
VERTEX
8
CUT
10
26.4906
20
60.8796
0
VERTEX
8
CUT
10
26.4499
20
60.9005
0
VERTEX
8
CUT
10
26.4382
20
60.9064
0
VERTEX
8
CUT
10
26.3972
20
60.9266
0
VERTEX
8
CUT
10
26.3854
20
60.9323
0
VERTEX
8
CUT
10
26.3440
20
60.9519
0
VERTEX
8
CUT
10
26.3321
20
60.9574
0
VERTEX
8
CUT
10
26.1116
20
61.0573
0
VERTEX
8
CUT
10
26.0997
20
61.0626
0
VERTEX
8
CUT
10
26.0577
20
61.0808
0
VERTEX
8
CUT
10
26.0456
20
61.0859
0
VERTEX
8
CUT
10
26.0034
20
61.1034
0
VERTEX
8
CUT
10
25.9912
20
61.1083
0
VERTEX
8
CUT
10
25.9486
20
61.1251
0
VERTEX
8
CUT
10
25.9364
20
61.1298
0
VERTEX
8
CUT
10
25.7099
20
61.2151
0
VERTEX
8
CUT
10
25.6976
20
61.2196
0
VERTEX
8
CUT
10
25.6545
20
61.2350
0
VERTEX
8
CUT
10
25.6421
20
61.2393
0
VERTEX
8
CUT
10
25.5988
20
61.2540
0
VERTEX
8
CUT
10
25.5864
20
61.2582
0
VERTEX
8
CUT
10
25.5428
20
61.2722
0
VERTEX
8
CUT
10
25.5303
20
61.2761
0
VERTEX
8
CUT
10
25.2987
20
61.3463
0
VERTEX
8
CUT
10
25.2861
20
61.3500
0
VERTEX
8
CUT
10
25.2421
20
61.3626
0
VERTEX
8
CUT
10
25.2295
20
61.3661
0
VERTEX
8
CUT
10
25.1853
20
61.3779
0
VERTEX
8
CUT
10
25.1726
20
61.3812
0
VERTEX
8
CUT
10
25.1282
20
61.3923
0
VERTEX
8
CUT
10
25.1155
20
61.3954
0
VERTEX
8
CUT
10
24.8798
20
61.4504
0
VERTEX
8
CUT
10
24.8670
20
61.4532
0
VERTEX
8
CUT
10
24.8222
20
61.4629
0
VERTEX
8
CUT
10
24.8094
20
61.4656
0
VERTEX
8
CUT
10
24.7646
20
61.4745
0
VERTEX
8
CUT
10
24.7517
20
61.4769
0
VERTEX
8
CUT
10
24.7066
20
61.4851
0
VERTEX
8
CUT
10
24.6937
20
61.4874
0
VERTEX
8
CUT
10
24.4549
20
61.5268
0
VERTEX
8
CUT
10
24.4420
20
61.5288
0
VERTEX
8
CUT
10
24.3967
20
61.5356
0
VERTEX
8
CUT
10
24.3837
20
61.5374
0
VERTEX
8
CUT
10
24.3384
20
61.5433
0
VERTEX
8
CUT
10
24.3254
20
61.5449
0
VERTEX
8
CUT
10
24.2799
20
61.5502
0
VERTEX
8
CUT
10
24.2669
20
61.5516
0
VERTEX
8
CUT
10
24.0260
20
61.5753
0
VERTEX
8
CUT
10
24.0130
20
61.5765
0
VERTEX
8
CUT
10
23.9673
20
61.5802
0
VERTEX
8
CUT
10
23.9543
20
61.5812
0
VERTEX
8
CUT
10
23.9086
20
61.5842
0
VERTEX
8
CUT
10
23.8956
20
61.5849
0
VERTEX
8
CUT
10
23.8498
20
61.5872
0
VERTEX
8
CUT
10
23.8367
20
61.5877
0
VERTEX
8
CUT
10
23.5081
20
61.5984
0
VERTEX
8
CUT
10
23.5016
20
61.5986
0
VERTEX
8
CUT
10
23.4787
20
61.5992
0
VERTEX
8
CUT
10
23.4722
20
61.5993
0
VERTEX
8
CUT
10
23.4493
20
61.5997
0
VERTEX
8
CUT
10
23.4427
20
61.5998
0
VERTEX
8
CUT
10
23.4198
20
61.6000
0
VERTEX
8
CUT
10
23.4133
20
61.6000
0
VERTEX
8
CUT
10
-23.4133
20
61.6000
0
VERTEX
8
CUT
10
-23.4198
20
61.6000
0
VERTEX
8
CUT
10
-23.4427
20
61.5998
0
VERTEX
8
CUT
10
-23.4493
20
61.5997
0
VERTEX
8
CUT
10
-23.4722
20
61.5993
0
VERTEX
8
CUT
10
-23.4787
20
61.5992
0
VERTEX
8
CUT
10
-23.5016
20
61.5986
0
VERTEX
8
CUT
10
-23.5081
20
61.5984
0
VERTEX
8
CUT
10
-23.8367
20
61.5877
0
VERTEX
8
CUT
10
-23.8498
20
61.5872
0
VERTEX
8
CUT
10
-23.8956
20
61.5849
0
VERTEX
8
CUT
10
-23.9086
20
61.5842
0
VERTEX
8
CUT
10
-23.9543
20
61.5812
0
VERTEX
8
CUT
10
-23.9673
20
61.5802
0
VERTEX
8
CUT
10
-24.0130
20
61.5765
0
VERTEX
8
CUT
10
-24.0260
20
61.5753
0
VERTEX
8
CUT
10
-24.2669
20
61.5516
0
VERTEX
8
CUT
10
-24.2799
20
61.5502
0
VERTEX
8
CUT
10
-24.3254
20
61.5449
0
VERTEX
8
CUT
10
-24.3384
20
61.5433
0
VERTEX
8
CUT
10
-24.3837
20
61.5374
0
VERTEX
8
CUT
10
-24.3967
20
61.5356
0
VERTEX
8
CUT
10
-24.4420
20
61.5288
0
VERTEX
8
CUT
10
-24.4549
20
61.5268
0
VERTEX
8
CUT
10
-24.6937
20
61.4874
0
VERTEX
8
CUT
10
-24.7066
20
61.4851
0
VERTEX
8
CUT
10
-24.7517
20
61.4769
0
VERTEX
8
CUT
10
-24.7646
20
61.4745
0
VERTEX
8
CUT
10
-24.8094
20
61.4656
0
VERTEX
8
CUT
10
-24.8222
20
61.4629
0
VERTEX
8
CUT
10
-24.8670
20
61.4532
0
VERTEX
8
CUT
10
-24.8798
20
61.4504
0
VERTEX
8
CUT
10
-25.1155
20
61.3954
0
VERTEX
8
CUT
10
-25.1282
20
61.3923
0
VERTEX
8
CUT
10
-25.1726
20
61.3812
0
VERTEX
8
CUT
10
-25.1853
20
61.3779
0
VERTEX
8
CUT
10
-25.2295
20
61.3661
0
VERTEX
8
CUT
10
-25.2421
20
61.3626
0
VERTEX
8
CUT
10
-25.2861
20
61.3500
0
VERTEX
8
CUT
10
-25.2987
20
61.3463
0
VERTEX
8
CUT
10
-25.5303
20
61.2761
0
VERTEX
8
CUT
10
-25.5428
20
61.2722
0
VERTEX
8
CUT
10
-25.5864
20
61.2582
0
VERTEX
8
CUT
10
-25.5988
20
61.2540
0
VERTEX
8
CUT
10
-25.6421
20
61.2393
0
VERTEX
8
CUT
10
-25.6545
20
61.2350
0
VERTEX
8
CUT
10
-25.6976
20
61.2196
0
VERTEX
8
CUT
10
-25.7099
20
61.2151
0
VERTEX
8
CUT
10
-25.9364
20
61.1298
0
VERTEX
8
CUT
10
-25.9486
20
61.1251
0
VERTEX
8
CUT
10
-25.9912
20
61.1083
0
VERTEX
8
CUT
10
-26.0034
20
61.1034
0
VERTEX
8
CUT
10
-26.0456
20
61.0859
0
VERTEX
8
CUT
10
-26.0577
20
61.0808
0
VERTEX
8
CUT
10
-26.0997
20
61.0626
0
VERTEX
8
CUT
10
-26.1116
20
61.0573
0
VERTEX
8
CUT
10
-26.3321
20
60.9574
0
VERTEX
8
CUT
10
-26.3440
20
60.9519
0
VERTEX
8
CUT
10
-26.3854
20
60.9323
0
VERTEX
8
CUT
10
-26.3972
20
60.9266
0
VERTEX
8
CUT
10
-26.4382
20
60.9064
0
VERTEX
8
CUT
10
-26.4499
20
60.9005
0
VERTEX
8
CUT
10
-26.4906
20
60.8796
0
VERTEX
8
CUT
10
-26.5022
20
60.8735
0
VERTEX
8
CUT
10
-26.7157
20
60.7594
0
VERTEX
8
CUT
10
-26.7272
20
60.7531
0
VERTEX
8
CUT
10
-26.7672
20
60.7309
0
VERTEX
8
CUT
10
-26.7786
20
60.7244
0
VERTEX
8
CUT
10
-26.8182
20
60.7016
0
VERTEX
8
CUT
10
-26.8295
20
60.6949
0
VERTEX
8
CUT
10
-26.8688
20
60.6714
0
VERTEX
8
CUT
10
-26.8799
20
60.6645
0
VERTEX
8
CUT
10
-27.0855
20
60.5367
0
VERTEX
8
CUT
10
-27.0965
20
60.5297
0
VERTEX
8
CUT
10
-27.1350
20
60.5049
0
VERTEX
8
CUT
10
-27.1460
20
60.4977
0
VERTEX
8
CUT
10
-27.1840
20
60.4723
0
VERTEX
8
CUT
10
-27.1948
20
60.4650
0
VERTEX
8
CUT
10
-27.2325
20
60.4389
0
VERTEX
8
CUT
10
-27.2432
20
60.4314
0
VERTEX
8
CUT
10
-27.4399
20
60.2904
0
VERTEX
8
CUT
10
-27.4505
20
60.2827
0
VERTEX
8
CUT
10
-27.4873
20
60.2554
0
VERTEX
8
CUT
10
-27.4977
20
60.2475
0
VERTEX
8
CUT
10
-27.5340
20
60.2197
0
VERTEX
8
CUT
10
-27.5443
20
60.2116
0
VERTEX
8
CUT
10
-27.5802
20
60.1831
0
VERTEX
8
CUT
10
-27.5904
20
60.1749
0
VERTEX
8
CUT
10
-27.7775
20
60.0214
0
VERTEX
8
CUT
10
-27.7875
20
60.0130
0
VERTEX
8
CUT
10
-27.8225
20
59.9833
0
VERTEX
8
CUT
10
-27.8324
20
59.9748
0
VERTEX
8
CUT
10
-27.8668
20
59.9447
0
VERTEX
8
CUT
10
-27.8765
20
59.9359
0
VERTEX
8
CUT
10
-27.9105
20
59.9052
0
VERTEX
8
CUT
10
-27.9201
20
59.8963
0
VERTEX
8
CUT
10
-28.0967
20
59.7309
0
VERTEX
8
CUT
10
-28.1062
20
59.7218
0
VERTEX
8
CUT
10
-28.1391
20
59.6900
0
VERTEX
8
CUT
10
-28.1485
20
59.6808
0
VERTEX
8
CUT
10
-28.1808
20
59.6485
0
VERTEX
8
CUT
10
-28.1900
20
59.6391
0
VERTEX
8
CUT
10
-28.2218
20
59.6062
0
VERTEX
8
CUT
10
-28.2309
20
59.5967
0
VERTEX
8
CUT
10
-28.3963
20
59.4201
0
VERTEX
8
CUT
10
-28.4052
20
59.4105
0
VERTEX
8
CUT
10
-28.4359
20
59.3765
0
VERTEX
8
CUT
10
-28.4447
20
59.3668
0
VERTEX
8
CUT
10
-28.4748
20
59.3324
0
VERTEX
8
CUT
10
-28.4833
20
59.3225
0
VERTEX
8
CUT
10
-28.5130
20
59.2875
0
VERTEX
8
CUT
10
-28.5214
20
59.2775
0
VERTEX
8
CUT
10
-28.6749
20
59.0904
0
VERTEX
8
CUT
10
-28.6831
20
59.0802
0
VERTEX
8
CUT
10
-28.7116
20
59.0443
0
VERTEX
8
CUT
10
-28.7197
20
59.0340
0
VERTEX
8
CUT
10
-28.7475
20
58.9977
0
VERTEX
8
CUT
10
-28.7554
20
58.9873
0
VERTEX
8
CUT
10
-28.7827
20
58.9505
0
VERTEX
8
CUT
10
-28.7904
20
58.9399
0
VERTEX
8
CUT
10
-28.9314
20
58.7432
0
VERTEX
8
CUT
10
-28.9389
20
58.7325
0
VERTEX
8
CUT
10
-28.9650
20
58.6948
0
VERTEX
8
CUT
10
-28.9723
20
58.6840
0
VERTEX
8
CUT
10
-28.9977
20
58.6460
0
VERTEX
8
CUT
10
-29.0049
20
58.6350
0
VERTEX
8
CUT
10
-29.0297
20
58.5965
0
VERTEX
8
CUT
10
-29.0367
20
58.5855
0
VERTEX
8
CUT
10
-29.1645
20
58.3799
0
VERTEX
8
CUT
10
-29.1714
20
58.3688
0
VERTEX
8
CUT
10
-29.1949
20
58.3295
0
VERTEX
8
CUT
10
-29.2016
20
58.3182
0
VERTEX
8
CUT
10
-29.2244
20
58.2786
0
VERTEX
8
CUT
10
-29.2309
20
58.2672
0
VERTEX
8
CUT
10
-29.2531
20
58.2272
0
VERTEX
8
CUT
10
-29.2594
20
58.2157
0
VERTEX
8
CUT
10
-29.3735
20
58.0022
0
VERTEX
8
CUT
10
-29.3796
20
57.9906
0
VERTEX
8
CUT
10
-29.4005
20
57.9499
0
VERTEX
8
CUT
10
-29.4064
20
57.9382
0
VERTEX
8
CUT
10
-29.4266
20
57.8972
0
VERTEX
8
CUT
10
-29.4323
20
57.8854
0
VERTEX
8
CUT
10
-29.4519
20
57.8440
0
VERTEX
8
CUT
10
-29.4574
20
57.8321
0
VERTEX
8
CUT
10
-29.5573
20
57.6116
0
VERTEX
8
CUT
10
-29.5626
20
57.5997
0
VERTEX
8
CUT
10
-29.5808
20
57.5577
0
VERTEX
8
CUT
10
-29.5859
20
57.5456
0
VERTEX
8
CUT
10
-29.6034
20
57.5034
0
VERTEX
8
CUT
10
-29.6083
20
57.4912
0
VERTEX
8
CUT
10
-29.6251
20
57.4486
0
VERTEX
8
CUT
10
-29.6298
20
57.4364
0
VERTEX
8
CUT
10
-29.7151
20
57.2099
0
VERTEX
8
CUT
10
-29.7196
20
57.1976
0
VERTEX
8
CUT
10
-29.7350
20
57.1545
0
VERTEX
8
CUT
10
-29.7393
20
57.1421
0
VERTEX
8
CUT
10
-29.7540
20
57.0988
0
VERTEX
8
CUT
10
-29.7582
20
57.0864
0
VERTEX
8
CUT
10
-29.7722
20
57.0428
0
VERTEX
8
CUT
10
-29.7761
20
57.0303
0
VERTEX
8
CUT
10
-29.8463
20
56.7987
0
VERTEX
8
CUT
10
-29.8500
20
56.7861
0
VERTEX
8
CUT
10
-29.8626
20
56.7421
0
VERTEX
8
CUT
10
-29.8661
20
56.7295
0
VERTEX
8
CUT
10
-29.8779
20
56.6853
0
VERTEX
8
CUT
10
-29.8812
20
56.6726
0
VERTEX
8
CUT
10
-29.8923
20
56.6282
0
VERTEX
8
CUT
10
-29.8954
20
56.6155
0
VERTEX
8
CUT
10
-29.9504
20
56.3798
0
VERTEX
8
CUT
10
-29.9532
20
56.3670
0
VERTEX
8
CUT
10
-29.9629
20
56.3222
0
VERTEX
8
CUT
10
-29.9656
20
56.3094
0
VERTEX
8
CUT
10
-29.9745
20
56.2646
0
VERTEX
8
CUT
10
-29.9769
20
56.2517
0
VERTEX
8
CUT
10
-29.9851
20
56.2066
0
VERTEX
8
CUT
10
-29.9874
20
56.1937
0
VERTEX
8
CUT
10
-30.0268
20
55.9549
0
VERTEX
8
CUT
10
-30.0288
20
55.9420
0
VERTEX
8
CUT
10
-30.0356
20
55.8967
0
VERTEX
8
CUT
10
-30.0374
20
55.8837
0
VERTEX
8
CUT
10
-30.0433
20
55.8384
0
VERTEX
8
CUT
10
-30.0449
20
55.8254
0
VERTEX
8
CUT
10
-30.0502
20
55.7799
0
VERTEX
8
CUT
10
-30.0516
20
55.7669
0
VERTEX
8
CUT
10
-30.0753
20
55.5260
0
VERTEX
8
CUT
10
-30.0765
20
55.5130
0
VERTEX
8
CUT
10
-30.0802
20
55.4673
0
VERTEX
8
CUT
10
-30.0812
20
55.4543
0
VERTEX
8
CUT
10
-30.0842
20
55.4086
0
VERTEX
8
CUT
10
-30.0849
20
55.3956
0
VERTEX
8
CUT
10
-30.0872
20
55.3498
0
VERTEX
8
CUT
10
-30.0877
20
55.3367
0
VERTEX
8
CUT
10
-30.0984
20
55.0081
0
VERTEX
8
CUT
10
-30.0986
20
55.0016
0
VERTEX
8
CUT
10
-30.0992
20
54.9787
0
VERTEX
8
CUT
10
-30.0993
20
54.9722
0
VERTEX
8
CUT
10
-30.0997
20
54.9493
0
VERTEX
8
CUT
10
-30.0998
20
54.9427
0
VERTEX
8
CUT
10
-30.1000
20
54.9198
0
VERTEX
8
CUT
10
-30.1000
20
54.9133
0
VERTEX
8
CUT
10
-30.1000
20
-29.7455
0
VERTEX
8
CUT
10
-30.1000
20
-29.7498
0
VERTEX
8
CUT
10
-30.1005
20
-29.7969
0
VERTEX
8
CUT
10
-30.1006
20
-29.8012
0
VERTEX
8
CUT
10
-30.1019
20
-29.8610
0
VERTEX
8
CUT
10
-30.1020
20
-29.8653
0
VERTEX
8
CUT
10
-30.1035
20
-29.9124
0
VERTEX
8
CUT
10
-30.1037
20
-29.9166
0
VERTEX
8
CUT
10
-30.1227
20
-30.3611
0
VERTEX
8
CUT
10
-30.1229
20
-30.3654
0
VERTEX
8
CUT
10
-30.1254
20
-30.4124
0
VERTEX
8
CUT
10
-30.1257
20
-30.4167
0
VERTEX
8
CUT
10
-30.1295
20
-30.4765
0
VERTEX
8
CUT
10
-30.1298
20
-30.4807
0
VERTEX
8
CUT
10
-30.1333
20
-30.5277
0
VERTEX
8
CUT
10
-30.1337
20
-30.5320
0
VERTEX
8
CUT
10
-30.1387
20
-30.5909
0
VERTEX
8
CUT
10
-30.1388
20
-30.5917
0
VERTEX
8
CUT
10
-30.1395
20
-30.6002
0
VERTEX
8
CUT
10
-30.1396
20
-30.6010
0
VERTEX
8
CUT
10
-30.1406
20
-30.6118
0
VERTEX
8
CUT
10
-30.1407
20
-30.6126
0
VERTEX
8
CUT
10
-30.1414
20
-30.6211
0
VERTEX
8
CUT
10
-30.1415
20
-30.6219
0
VERTEX
8
CUT
10
-30.1491
20
-30.7025
0
VERTEX
8
CUT
10
-30.1491
20
-30.7033
0
VERTEX
8
CUT
10
-30.1500
20
-30.7118
0
VERTEX
8
CUT
10
-30.1500
20
-30.7126
0
VERTEX
8
CUT
10
-30.1511
20
-30.7234
0
VERTEX
8
CUT
10
-30.1512
20
-30.7242
0
VERTEX
8
CUT
10
-30.1520
20
-30.7327
0
VERTEX
8
CUT
10
-30.1521
20
-30.7335
0
VERTEX
8
CUT
10
-30.1605
20
-30.8167
0
VERTEX
8
CUT
10
-30.1606
20
-30.8176
0
VERTEX
8
CUT
10
-30.1616
20
-30.8271
0
VERTEX
8
CUT
10
-30.1617
20
-30.8279
0
VERTEX
8
CUT
10
-30.1630
20
-30.8401
0
VERTEX
8
CUT
10
-30.1631
20
-30.8409
0
VERTEX
8
CUT
10
-30.1641
20
-30.8504
0
VERTEX
8
CUT
10
-30.1642
20
-30.8513
0
VERTEX
8
CUT
10
-30.1741
20
-30.9412
0
VERTEX
8
CUT
10
-30.1742
20
-30.9421
0
VERTEX
8
CUT
10
-30.1753
20
-30.9516
0
VERTEX
8
CUT
10
-30.1754
20
-30.9524
0
VERTEX
8
CUT
10
-30.1768
20
-30.9645
0
VERTEX
8
CUT
10
-30.1769
20
-30.9654
0
VERTEX
8
CUT
10
-30.1780
20
-30.9749
0
VERTEX
8
CUT
10
-30.1781
20
-30.9758
0
VERTEX
8
CUT
10
-30.1850
20
-31.0336
0
VERTEX
8
CUT
10
-30.1851
20
-31.0345
0
VERTEX
8
CUT
10
-30.1863
20
-31.0449
0
VERTEX
8
CUT
10
-30.1865
20
-31.0459
0
VERTEX
8
CUT
10
-30.1881
20
-31.0591
0
VERTEX
8
CUT
10
-30.1882
20
-31.0601
0
VERTEX
8
CUT
10
-30.1895
20
-31.0705
0
VERTEX
8
CUT
10
-30.1897
20
-31.0714
0
VERTEX
8
CUT
10
-30.2023
20
-31.1697
0
VERTEX
8
CUT
10
-30.2024
20
-31.1707
0
VERTEX
8
CUT
10
-30.2038
20
-31.1811
0
VERTEX
8
CUT
10
-30.2039
20
-31.1820
0
VERTEX
8
CUT
10
-30.2057
20
-31.1952
0
VERTEX
8
CUT
10
-30.2058
20
-31.1962
0
VERTEX
8
CUT
10
-30.2072
20
-31.2066
0
VERTEX
8
CUT
10
-30.2074
20
-31.2075
0
VERTEX
8
CUT
10
-30.2124
20
-31.2436
0
VERTEX
8
CUT
10
-30.2125
20
-31.2446
0
VERTEX
8
CUT
10
-30.2141
20
-31.2557
0
VERTEX
8
CUT
10
-30.2142
20
-31.2567
0
VERTEX
8
CUT
10
-30.2162
20
-31.2708
0
VERTEX
8
CUT
10
-30.2164
20
-31.2718
0
VERTEX
8
CUT
10
-30.2180
20
-31.2829
0
VERTEX
8
CUT
10
-30.2182
20
-31.2839
0
VERTEX
8
CUT
10
-30.2338
20
-31.3889
0
VERTEX
8
CUT
10
-30.2339
20
-31.3899
0
VERTEX
8
CUT
10
-30.2356
20
-31.4010
0
VERTEX
8
CUT
10
-30.2358
20
-31.4020
0
VERTEX
8
CUT
10
-30.2379
20
-31.4161
0
VERTEX
8
CUT
10
-30.2381
20
-31.4171
0
VERTEX
8
CUT
10
-30.2398
20
-31.4282
0
VERTEX
8
CUT
10
-30.2400
20
-31.4292
0
VERTEX
8
CUT
10
-30.2431
20
-31.4484
0
VERTEX
8
CUT
10
-30.2432
20
-31.4495
0
VERTEX
8
CUT
10
-30.2451
20
-31.4610
0
VERTEX
8
CUT
10
-30.2453
20
-31.4620
0
VERTEX
8
CUT
10
-30.2477
20
-31.4767
0
VERTEX
8
CUT
10
-30.2479
20
-31.4777
0
VERTEX
8
CUT
10
-30.2498
20
-31.4892
0
VERTEX
8
CUT
10
-30.2500
20
-31.4903
0
VERTEX
8
CUT
10
-30.2685
20
-31.5990
0
VERTEX
8
CUT
10
-30.2687
20
-31.6001
0
VERTEX
8
CUT
10
-30.2706
20
-31.6116
0
VERTEX
8
CUT
10
-30.2708
20
-31.6126
0
VERTEX
8
CUT
10
-30.2734
20
-31.6273
0
VERTEX
8
CUT
10
-30.2736
20
-31.6283
0
VERTEX
8
CUT
10
-30.2756
20
-31.6398
0
VERTEX
8
CUT
10
-30.2758
20
-31.6408
0
VERTEX
8
CUT
10
-30.2774
20
-31.6494
0
VERTEX
8
CUT
10
-30.2776
20
-31.6504
0
VERTEX
8
CUT
10
-30.2797
20
-31.6619
0
VERTEX
8
CUT
10
-30.2799
20
-31.6630
0
VERTEX
8
CUT
10
-30.2826
20
-31.6777
0
VERTEX
8
CUT
10
-30.2828
20
-31.6787
0
VERTEX
8
CUT
10
-30.2850
20
-31.6902
0
VERTEX
8
CUT
10
-30.2852
20
-31.6913
0
VERTEX
8
CUT
10
-30.3061
20
-31.8002
0
VERTEX
8
CUT
10
-30.3063
20
-31.8012
0
VERTEX
8
CUT
10
-30.3086
20
-31.8127
0
VERTEX
8
CUT
10
-30.3088
20
-31.8138
0
VERTEX
8
CUT
10
-30.3117
20
-31.8284
0
VERTEX
8
CUT
10
-30.3119
20
-31.8295
0
VERTEX
8
CUT
10
-30.3142
20
-31.8410
0
VERTEX
8
CUT
10
-30.3144
20
-31.8420
0
VERTEX
8
CUT
10
-30.3154
20
-31.8470
0
VERTEX
8
CUT
10
-30.3156
20
-31.8480
0
VERTEX
8
CUT
10
-30.3179
20
-31.8591
0
VERTEX
8
CUT
10
-30.3181
20
-31.8601
0
VERTEX
8
CUT
10
-30.3211
20
-31.8742
0
VERTEX
8
CUT
10
-30.3213
20
-31.8752
0
VERTEX
8
CUT
10
-30.3236
20
-31.8863
0
VERTEX
8
CUT
10
-30.3238
20
-31.8873
0
VERTEX
8
CUT
10
-30.3462
20
-31.9920
0
VERTEX
8
CUT
10
-30.3464
20
-31.9930
0
VERTEX
8
CUT
10
-30.3488
20
-32.0041
0
VERTEX
8
CUT
10
-30.3491
20
-32.0051
0
VERTEX
8
CUT
10
-30.3522
20
-32.0192
0
VERTEX
8
CUT
10
-30.3524
20
-32.0202
0
VERTEX
8
CUT
10
-30.3548
20
-32.0312
0
VERTEX
8
CUT
10
-30.3551
20
-32.0322
0
VERTEX
8
CUT
10
-30.3571
20
-32.0414
0
VERTEX
8
CUT
10
-30.3573
20
-32.0423
0
VERTEX
8
CUT
10
-30.3596
20
-32.0525
0
VERTEX
8
CUT
10
-30.3598
20
-32.0534
0
VERTEX
8
CUT
10
-30.3628
20
-32.0663
0
VERTEX
8
CUT
10
-30.3630
20
-32.0673
0
VERTEX
8
CUT
10
-30.3654
20
-32.0774
0
VERTEX
8
CUT
10
-30.3656
20
-32.0784
0
VERTEX
8
CUT
10
-30.3881
20
-32.1743
0
VERTEX
8
CUT
10
-30.3884
20
-32.1752
0
VERTEX
8
CUT
10
-30.3908
20
-32.1854
0
VERTEX
8
CUT
10
-30.3910
20
-32.1863
0
VERTEX
8
CUT
10
-30.3941
20
-32.1992
0
VERTEX
8
CUT
10
-30.3943
20
-32.2001
0
VERTEX
8
CUT
10
-30.3968
20
-32.2103
0
VERTEX
8
CUT
10
-30.3970
20
-32.2112
0
VERTEX
8
CUT
10
-30.4021
20
-32.2320
0
VERTEX
8
CUT
10
-30.4023
20
-32.2328
0
VERTEX
8
CUT
10
-30.4045
20
-32.2417
0
VERTEX
8
CUT
10
-30.4047
20
-32.2425
0
VERTEX
8
CUT
10
-30.4075
20
-32.2537
0
VERTEX
8
CUT
10
-30.4077
20
-32.2545
0
VERTEX
8
CUT
10
-30.4099
20
-32.2633
0
VERTEX
8
CUT
10
-30.4101
20
-32.2641
0
VERTEX
8
CUT
10
-30.4312
20
-32.3472
0
VERTEX
8
CUT
10
-30.4314
20
-32.3480
0
VERTEX
8
CUT
10
-30.4336
20
-32.3568
0
VERTEX
8
CUT
10
-30.4338
20
-32.3576
0
VERTEX
8
CUT
10
-30.4367
20
-32.3688
0
VERTEX
8
CUT
10
-30.4369
20
-32.3696
0
VERTEX
8
CUT
10
-30.4392
20
-32.3784
0
VERTEX
8
CUT
10
-30.4394
20
-32.3792
0
VERTEX
8
CUT
10
-30.4497
20
-32.4183
0
VERTEX
8
CUT
10
-30.4498
20
-32.4190
0
VERTEX
8
CUT
10
-30.4517
20
-32.4261
0
VERTEX
8
CUT
10
-30.4519
20
-32.4268
0
VERTEX
8
CUT
10
-30.4543
20
-32.4358
0
VERTEX
8
CUT
10
-30.4545
20
-32.4365
0
VERTEX
8
CUT
10
-30.4564
20
-32.4436
0
VERTEX
8
CUT
10
-30.4566
20
-32.4442
0
VERTEX
8
CUT
10
-30.4747
20
-32.5115
0
VERTEX
8
CUT
10
-30.4749
20
-32.5122
0
VERTEX
8
CUT
10
-30.4768
20
-32.5193
0
VERTEX
8
CUT
10
-30.4770
20
-32.5199
0
VERTEX
8
CUT
10
-30.4794
20
-32.5290
0
VERTEX
8
CUT
10
-30.4796
20
-32.5296
0
VERTEX
8
CUT
10
-30.4816
20
-32.5367
0
VERTEX
8
CUT
10
-30.4818
20
-32.5374
0
VERTEX
8
CUT
10
-30.4991
20
-32.5999
0
VERTEX
8
CUT
10
-30.4992
20
-32.6003
0
VERTEX
8
CUT
10
-30.5006
20
-32.6056
0
VERTEX
8
CUT
10
-30.5008
20
-32.6061
0
VERTEX
8
CUT
10
-30.5027
20
-32.6128
0
VERTEX
8
CUT
10
-30.5028
20
-32.6132
0
VERTEX
8
CUT
10
-30.5043
20
-32.6185
0
VERTEX
8
CUT
10
-30.5044
20
-32.6190
0
VERTEX
8
CUT
10
-30.5184
20
-32.6686
0
VERTEX
8
CUT
10
-30.5185
20
-32.6691
0
VERTEX
8
CUT
10
-30.5200
20
-32.6743
0
VERTEX
8
CUT
10
-30.5202
20
-32.6748
0
VERTEX
8
CUT
10
-30.5220
20
-32.6815
0
VERTEX
8
CUT
10
-30.5222
20
-32.6819
0
VERTEX
8
CUT
10
-30.5237
20
-32.6872
0
VERTEX
8
CUT
10
-30.5238
20
-32.6877
0
VERTEX
8
CUT
10
-30.5494
20
-32.7768
0
VERTEX
8
CUT
10
-30.5495
20
-32.7771
0
VERTEX
8
CUT
10
-30.5505
20
-32.7804
0
VERTEX
8
CUT
10
-30.5506
20
-32.7807
0
VERTEX
8
CUT
10
-30.5518
20
-32.7850
0
VERTEX
8
CUT
10
-30.5519
20
-32.7853
0
VERTEX
8
CUT
10
-30.5529
20
-32.7886
0
VERTEX
8
CUT
10
-30.5530
20
-32.7889
0
VERTEX
8
CUT
10
-30.5622
20
-32.8205
0
VERTEX
8
CUT
10
-30.5622
20
-32.8209
0
VERTEX
8
CUT
10
-30.5632
20
-32.8242
0
VERTEX
8
CUT
10
-30.5633
20
-32.8245
0
VERTEX
8
CUT
10
-30.5646
20
-32.8288
0
VERTEX
8
CUT
10
-30.5646
20
-32.8291
0
VERTEX
8
CUT
10
-30.5656
20
-32.8324
0
VERTEX
8
CUT
10
-30.5657
20
-32.8327
0
VERTEX
8
CUT
10
-30.6002
20
-32.9499
0
VERTEX
8
CUT
10
-30.6003
20
-32.9501
0
VERTEX
8
CUT
10
-30.6007
20
-32.9517
0
VERTEX
8
CUT
10
-30.6008
20
-32.9518
0
VERTEX
8
CUT
10
-30.6014
20
-32.9538
0
VERTEX
8
CUT
10
-30.6014
20
-32.9539
0
VERTEX
8
CUT
10
-30.6018
20
-32.9554
0
VERTEX
8
CUT
10
-30.6019
20
-32.9556
0
VERTEX
8
CUT
10
-30.6062
20
-32.9701
0
VERTEX
8
CUT
10
-30.6062
20
-32.9703
0
VERTEX
8
CUT
10
-30.6067
20
-32.9718
0
VERTEX
8
CUT
10
-30.6067
20
-32.9719
0
VERTEX
8
CUT
10
-30.6073
20
-32.9739
0
VERTEX
8
CUT
10
-30.6073
20
-32.9740
0
VERTEX
8
CUT
10
-30.6078
20
-32.9756
0
VERTEX
8
CUT
10
-30.6078
20
-32.9757
0
VERTEX
8
CUT
10
-30.6509
20
-33.1203
0
VERTEX
8
CUT
10
-30.6509
20
-33.1204
0
VERTEX
8
CUT
10
-30.6510
20
-33.1207
0
VERTEX
8
CUT
10
-30.6510
20
-33.1207
0
VERTEX
8
CUT
10
-30.6893
20
-33.2496
0
VERTEX
8
CUT
10
-30.6895
20
-33.2501
0
VERTEX
8
CUT
10
-30.6911
20
-33.2557
0
VERTEX
8
CUT
10
-30.6913
20
-33.2562
0
VERTEX
8
CUT
10
-30.6934
20
-33.2633
0
VERTEX
8
CUT
10
-30.6936
20
-33.2638
0
VERTEX
8
CUT
10
-30.6952
20
-33.2693
0
VERTEX
8
CUT
10
-30.6954
20
-33.2698
0
VERTEX
8
CUT
10
-30.7113
20
-33.3224
0
VERTEX
8
CUT
10
-30.7115
20
-33.3229
0
VERTEX
8
CUT
10
-30.7132
20
-33.3285
0
VERTEX
8
CUT
10
-30.7133
20
-33.3290
0
VERTEX
8
CUT
10
-30.7155
20
-33.3360
0
VERTEX
8
CUT
10
-30.7156
20
-33.3365
0
VERTEX
8
CUT
10
-30.7173
20
-33.3421
0
VERTEX
8
CUT
10
-30.7175
20
-33.3426
0
VERTEX
8
CUT
10
-30.7372
20
-33.4064
0
VERTEX
8
CUT
10
-30.7375
20
-33.4075
0
VERTEX
8
CUT
10
-30.7411
20
-33.4188
0
VERTEX
8
CUT
10
-30.7414
20
-33.4198
0
VERTEX
8
CUT
10
-30.7459
20
-33.4342
0
VERTEX
8
CUT
10
-30.7462
20
-33.4352
0
VERTEX
8
CUT
10
-30.7498
20
-33.4465
0
VERTEX
8
CUT
10
-30.7501
20
-33.4475
0
VERTEX
8
CUT
10
-30.7843
20
-33.5540
0
VERTEX
8
CUT
10
-30.7846
20
-33.5550
0
VERTEX
8
CUT
10
-30.7883
20
-33.5663
0
VERTEX
8
CUT
10
-30.7886
20
-33.5673
0
VERTEX
8
CUT
10
-30.7933
20
-33.5816
0
VERTEX
8
CUT
10
-30.7936
20
-33.5826
0
VERTEX
8
CUT
10
-30.7973
20
-33.5939
0
VERTEX
8
CUT
10
-30.7976
20
-33.5949
0
VERTEX
8
CUT
10
-30.8096
20
-33.6308
0
VERTEX
8
CUT
10
-30.8099
20
-33.6317
0
VERTEX
8
CUT
10
-30.8132
20
-33.6417
0
VERTEX
8
CUT
10
-30.8135
20
-33.6426
0
VERTEX
8
CUT
10
-30.8178
20
-33.6552
0
VERTEX
8
CUT
10
-30.8181
20
-33.6561
0
VERTEX
8
CUT
10
-30.8215
20
-33.6661
0
VERTEX
8
CUT
10
-30.8218
20
-33.6670
0
VERTEX
8
CUT
10
-30.8540
20
-33.7609
0
VERTEX
8
CUT
10
-30.8544
20
-33.7618
0
VERTEX
8
CUT
10
-30.8578
20
-33.7717
0
VERTEX
8
CUT
10
-30.8581
20
-33.7726
0
VERTEX
8
CUT
10
-30.8625
20
-33.7852
0
VERTEX
8
CUT
10
-30.8628
20
-33.7861
0
VERTEX
8
CUT
10
-30.8663
20
-33.7960
0
VERTEX
8
CUT
10
-30.8666
20
-33.7969
0
VERTEX
8
CUT
10
-30.8850
20
-33.8489
0
VERTEX
8
CUT
10
-30.8853
20
-33.8496
0
VERTEX
8
CUT
10
-30.8883
20
-33.8582
0
VERTEX
8
CUT
10
-30.8886
20
-33.8590
0
VERTEX
8
CUT
10
-30.8925
20
-33.8699
0
VERTEX
8
CUT
10
-30.8928
20
-33.8707
0
VERTEX
8
CUT
10
-30.8959
20
-33.8793
0
VERTEX
8
CUT
10
-30.8962
20
-33.8801
0
VERTEX
8
CUT
10
-30.9256
20
-33.9611
0
VERTEX
8
CUT
10
-30.9259
20
-33.9618
0
VERTEX
8
CUT
10
-30.9290
20
-33.9704
0
VERTEX
8
CUT
10
-30.9293
20
-33.9712
0
VERTEX
8
CUT
10
-30.9333
20
-33.9821
0
VERTEX
8
CUT
10
-30.9336
20
-33.9828
0
VERTEX
8
CUT
10
-30.9368
20
-33.9914
0
VERTEX
8
CUT
10
-30.9371
20
-33.9922
0
VERTEX
8
CUT
10
-30.9626
20
-34.0608
0
VERTEX
8
CUT
10
-30.9629
20
-34.0614
0
VERTEX
8
CUT
10
-30.9656
20
-34.0686
0
VERTEX
8
CUT
10
-30.9658
20
-34.0693
0
VERTEX
8
CUT
10
-30.9693
20
-34.0785
0
VERTEX
8
CUT
10
-30.9695
20
-34.0791
0
VERTEX
8
CUT
10
-30.9722
20
-34.0863
0
VERTEX
8
CUT
10
-30.9725
20
-34.0870
0
VERTEX
8
CUT
10
-30.9984
20
-34.1549
0
VERTEX
8
CUT
10
-30.9986
20
-34.1556
0
VERTEX
8
CUT
10
-31.0014
20
-34.1628
0
VERTEX
8
CUT
10
-31.0016
20
-34.1634
0
VERTEX
8
CUT
10
-31.0051
20
-34.1726
0
VERTEX
8
CUT
10
-31.0054
20
-34.1732
0
VERTEX
8
CUT
10
-31.0082
20
-34.1804
0
VERTEX
8
CUT
10
-31.0084
20
-34.1811
0
VERTEX
8
CUT
10
-31.0418
20
-34.2669
0
VERTEX
8
CUT
10
-31.0420
20
-34.2674
0
VERTEX
8
CUT
10
-31.0442
20
-34.2732
0
VERTEX
8
CUT
10
-31.0445
20
-34.2737
0
VERTEX
8
CUT
10
-31.0474
20
-34.2811
0
VERTEX
8
CUT
10
-31.0476
20
-34.2817
0
VERTEX
8
CUT
10
-31.0499
20
-34.2875
0
VERTEX
8
CUT
10
-31.0501
20
-34.2880
0
VERTEX
8
CUT
10
-31.0718
20
-34.3431
0
VERTEX
8
CUT
10
-31.0720
20
-34.3436
0
VERTEX
8
CUT
10
-31.0743
20
-34.3494
0
VERTEX
8
CUT
10
-31.0746
20
-34.3499
0
VERTEX
8
CUT
10
-31.0775
20
-34.3573
0
VERTEX
8
CUT
10
-31.0777
20
-34.3579
0
VERTEX
8
CUT
10
-31.0800
20
-34.3637
0
VERTEX
8
CUT
10
-31.0802
20
-34.3642
0
VERTEX
8
CUT
10
-31.1217
20
-34.4675
0
VERTEX
8
CUT
10
-31.1219
20
-34.4678
0
VERTEX
8
CUT
10
-31.1237
20
-34.4723
0
VERTEX
8
CUT
10
-31.1239
20
-34.4727
0
VERTEX
8
CUT
10
-31.1262
20
-34.4784
0
VERTEX
8
CUT
10
-31.1263
20
-34.4788
0
VERTEX
8
CUT
10
-31.1282
20
-34.4833
0
VERTEX
8
CUT
10
-31.1283
20
-34.4837
0
VERTEX
8
CUT
10
-31.1455
20
-34.5260
0
VERTEX
8
CUT
10
-31.1457
20
-34.5264
0
VERTEX
8
CUT
10
-31.1475
20
-34.5308
0
VERTEX
8
CUT
10
-31.1477
20
-34.5312
0
VERTEX
8
CUT
10
-31.1500
20
-34.5369
0
VERTEX
8
CUT
10
-31.1502
20
-34.5373
0
VERTEX
8
CUT
10
-31.1520
20
-34.5418
0
VERTEX
8
CUT
10
-31.1522
20
-34.5422
0
VERTEX
8
CUT
10
-31.2020
20
-34.6630
0
VERTEX
8
CUT
10
-31.2021
20
-34.6633
0
VERTEX
8
CUT
10
-31.2034
20
-34.6665
0
VERTEX
8
CUT
10
-31.2035
20
-34.6667
0
VERTEX
8
CUT
10
-31.2052
20
-34.6708
0
VERTEX
8
CUT
10
-31.2053
20
-34.6711
0
VERTEX
8
CUT
10
-31.2066
20
-34.6742
0
VERTEX
8
CUT
10
-31.2067
20
-34.6745
0
VERTEX
8
CUT
10
-31.2191
20
-34.7043
0
VERTEX
8
CUT
10
-31.2192
20
-34.7045
0
VERTEX
8
CUT
10
-31.2205
20
-34.7077
0
VERTEX
8
CUT
10
-31.2206
20
-34.7080
0
VERTEX
8
CUT
10
-31.2223
20
-34.7120
0
VERTEX
8
CUT
10
-31.2224
20
-34.7123
0
VERTEX
8
CUT
10
-31.2237
20
-34.7154
0
VERTEX
8
CUT
10
-31.2239
20
-34.7157
0
VERTEX
8
CUT
10
-31.2819
20
-34.8541
0
VERTEX
8
CUT
10
-31.2820
20
-34.8543
0
VERTEX
8
CUT
10
-31.2827
20
-34.8561
0
VERTEX
8
CUT
10
-31.2828
20
-34.8564
0
VERTEX
8
CUT
10
-31.2838
20
-34.8587
0
VERTEX
8
CUT
10
-31.2839
20
-34.8589
0
VERTEX
8
CUT
10
-31.2847
20
-34.8608
0
VERTEX
8
CUT
10
-31.2848
20
-34.8609
0
VERTEX
8
CUT
10
-31.2922
20
-34.8786
0
VERTEX
8
CUT
10
-31.2923
20
-34.8788
0
VERTEX
8
CUT
10
-31.2931
20
-34.8806
0
VERTEX
8
CUT
10
-31.2931
20
-34.8808
0
VERTEX
8
CUT
10
-31.2941
20
-34.8832
0
VERTEX
8
CUT
10
-31.2942
20
-34.8833
0
VERTEX
8
CUT
10
-31.2950
20
-34.8852
0
VERTEX
8
CUT
10
-31.2951
20
-34.8854
0
VERTEX
8
CUT
10
-31.3611
20
-35.0412
0
VERTEX
8
CUT
10
-31.3612
20
-35.0414
0
VERTEX
8
CUT
10
-31.3612
20
-35.0414
0
VERTEX
8
CUT
10
-31.3614
20
-35.0420
0
VERTEX
8
CUT
10
-31.3614
20
-35.0420
0
VERTEX
8
CUT
10
-31.3618
20
-35.0428
0
VERTEX
8
CUT
10
-31.3621
20
-35.0435
0
VERTEX
8
CUT
10
-31.3646
20
-35.0496
0
VERTEX
8
CUT
10
-31.3647
20
-35.0496
0
VERTEX
8
CUT
10
-31.3649
20
-35.0503
0
VERTEX
8
CUT
10
-31.3653
20
-35.0511
0
VERTEX
8
CUT
10
-31.3653
20
-35.0511
0
VERTEX
8
CUT
10
-31.3653
20
-35.0511
0
VERTEX
8
CUT
10
-31.3656
20
-35.0518
0
VERTEX
8
CUT
10
-31.3656
20
-35.0518
0
VERTEX
8
CUT
10
-31.3656
20
-35.0518
0
VERTEX
8
CUT
10
-31.4367
20
-35.2190
0
VERTEX
8
CUT
10
-31.4368
20
-35.2192
0
VERTEX
8
CUT
10
-31.4371
20
-35.2199
0
VERTEX
8
CUT
10
-31.4372
20
-35.2201
0
VERTEX
8
CUT
10
-31.4375
20
-35.2208
0
VERTEX
8
CUT
10
-31.4376
20
-35.2211
0
VERTEX
8
CUT
10
-31.4379
20
-35.2217
0
VERTEX
8
CUT
10
-31.4379
20
-35.2219
0
VERTEX
8
CUT
10
-31.5082
20
-35.3878
0
VERTEX
8
CUT
10
-31.5085
20
-35.3884
0
VERTEX
8
CUT
10
-31.5094
20
-35.3905
0
VERTEX
8
CUT
10
-31.5097
20
-35.3911
0
VERTEX
8
CUT
10
-31.5106
20
-35.3933
0
VERTEX
8
CUT
10
-31.5108
20
-35.3939
0
VERTEX
8
CUT
10
-31.5117
20
-35.3960
0
VERTEX
8
CUT
10
-31.5120
20
-35.3966
0
VERTEX
8
CUT
10
-31.5785
20
-35.5551
0
VERTEX
8
CUT
10
-31.5790
20
-35.5561
0
VERTEX
8
CUT
10
-31.5804
20
-35.5596
0
VERTEX
8
CUT
10
-31.5808
20
-35.5606
0
VERTEX
8
CUT
10
-31.5823
20
-35.5642
0
VERTEX
8
CUT
10
-31.5827
20
-35.5652
0
VERTEX
8
CUT
10
-31.5842
20
-35.5686
0
VERTEX
8
CUT
10
-31.5846
20
-35.5696
0
VERTEX
8
CUT
10
-31.6475
20
-35.7219
0
VERTEX
8
CUT
10
-31.6481
20
-35.7232
0
VERTEX
8
CUT
10
-31.6501
20
-35.7280
0
VERTEX
8
CUT
10
-31.6506
20
-35.7294
0
VERTEX
8
CUT
10
-31.6526
20
-35.7342
0
VERTEX
8
CUT
10
-31.6532
20
-35.7355
0
VERTEX
8
CUT
10
-31.6551
20
-35.7403
0
VERTEX
8
CUT
10
-31.6557
20
-35.7417
0
VERTEX
8
CUT
10
-31.7152
20
-35.8886
0
VERTEX
8
CUT
10
-31.7159
20
-35.8903
0
VERTEX
8
CUT
10
-31.7183
20
-35.8963
0
VERTEX
8
CUT
10
-31.7190
20
-35.8980
0
VERTEX
8
CUT
10
-31.7213
20
-35.9040
0
VERTEX
8
CUT
10
-31.7220
20
-35.9057
0
VERTEX
8
CUT
10
-31.7244
20
-35.9117
0
VERTEX
8
CUT
10
-31.7251
20
-35.9134
0
VERTEX
8
CUT
10
-31.7814
20
-36.0562
0
VERTEX
8
CUT
10
-31.7822
20
-36.0582
0
VERTEX
8
CUT
10
-31.7850
20
-36.0653
0
VERTEX
8
CUT
10
-31.7857
20
-36.0674
0
VERTEX
8
CUT
10
-31.7885
20
-36.0745
0
VERTEX
8
CUT
10
-31.7893
20
-36.0765
0
VERTEX
8
CUT
10
-31.7920
20
-36.0836
0
VERTEX
8
CUT
10
-31.7928
20
-36.0856
0
VERTEX
8
CUT
10
-31.8526
20
-36.2422
0
VERTEX
8
CUT
10
-31.8530
20
-36.2432
0
VERTEX
8
CUT
10
-31.8544
20
-36.2469
0
VERTEX
8
CUT
10
-31.8548
20
-36.2479
0
VERTEX
8
CUT
10
-31.8561
20
-36.2516
0
VERTEX
8
CUT
10
-31.8565
20
-36.2526
0
VERTEX
8
CUT
10
-31.8579
20
-36.2563
0
VERTEX
8
CUT
10
-31.8583
20
-36.2574
0
VERTEX
8
CUT
10
-31.9286
20
-36.4447
0
VERTEX
8
CUT
10
-31.9287
20
-36.4448
0
VERTEX
8
CUT
10
-31.9287
20
-36.4450
0
VERTEX
8
CUT
10
-31.9289
20
-36.4453
0
VERTEX
8
CUT
10
-31.9289
20
-36.4453
0
VERTEX
8
CUT
10
-31.9289
20
-36.4453
0
VERTEX
8
CUT
10
-31.9289
20
-36.4453
0
VERTEX
8
CUT
10
-31.9295
20
-36.4471
0
VERTEX
8
CUT
10
-31.9295
20
-36.4471
0
VERTEX
8
CUT
10
-31.9296
20
-36.4471
0
VERTEX
8
CUT
10
-31.9296
20
-36.4471
0
VERTEX
8
CUT
10
-31.9296
20
-36.4473
0
VERTEX
8
CUT
10
-31.9297
20
-36.4475
0
VERTEX
8
CUT
10
-31.9298
20
-36.4477
0
VERTEX
8
CUT
10
-32.0069
20
-36.6530
0
VERTEX
8
CUT
10
-32.0069
20
-36.6530
0
VERTEX
8
CUT
10
-32.0070
20
-36.6533
0
VERTEX
8
CUT
10
-32.0071
20
-36.6534
0
VERTEX
8
CUT
10
-32.0856
20
-36.8624
0
VERTEX
8
CUT
10
-32.0856
20
-36.8626
0
VERTEX
8
CUT
10
-32.0857
20
-36.8628
0
VERTEX
8
CUT
10
-32.0858
20
-36.8629
0
VERTEX
8
CUT
10
-32.0860
20
-36.8634
0
VERTEX
8
CUT
10
-32.0860
20
-36.8635
0
VERTEX
8
CUT
10
-32.0861
20
-36.8639
0
VERTEX
8
CUT
10
-32.0862
20
-36.8640
0
VERTEX
8
CUT
10
-32.1652
20
-37.0746
0
VERTEX
8
CUT
10
-32.1652
20
-37.0748
0
VERTEX
8
CUT
10
-32.1655
20
-37.0755
0
VERTEX
8
CUT
10
-32.1656
20
-37.0757
0
VERTEX
8
CUT
10
-32.1658
20
-37.0763
0
VERTEX
8
CUT
10
-32.1659
20
-37.0765
0
VERTEX
8
CUT
10
-32.1661
20
-37.0772
0
VERTEX
8
CUT
10
-32.1662
20
-37.0774
0
VERTEX
8
CUT
10
-32.2456
20
-37.2896
0
VERTEX
8
CUT
10
-32.2457
20
-37.2899
0
VERTEX
8
CUT
10
-32.2460
20
-37.2908
0
VERTEX
8
CUT
10
-32.2461
20
-37.2910
0
VERTEX
8
CUT
10
-32.2464
20
-37.2919
0
VERTEX
8
CUT
10
-32.2465
20
-37.2922
0
VERTEX
8
CUT
10
-32.2469
20
-37.2931
0
VERTEX
8
CUT
10
-32.2469
20
-37.2933
0
VERTEX
8
CUT
10
-32.3264
20
-37.5068
0
VERTEX
8
CUT
10
-32.3266
20
-37.5072
0
VERTEX
8
CUT
10
-32.3270
20
-37.5083
0
VERTEX
8
CUT
10
-32.3271
20
-37.5087
0
VERTEX
8
CUT
10
-32.3275
20
-37.5098
0
VERTEX
8
CUT
10
-32.3277
20
-37.5102
0
VERTEX
8
CUT
10
-32.3281
20
-37.5113
0
VERTEX
8
CUT
10
-32.3282
20
-37.5116
0
VERTEX
8
CUT
10
-32.4076
20
-37.7261
0
VERTEX
8
CUT
10
-32.4078
20
-37.7265
0
VERTEX
8
CUT
10
-32.4083
20
-37.7279
0
VERTEX
8
CUT
10
-32.4085
20
-37.7283
0
VERTEX
8
CUT
10
-32.4090
20
-37.7298
0
VERTEX
8
CUT
10
-32.4091
20
-37.7302
0
VERTEX
8
CUT
10
-32.4097
20
-37.7316
0
VERTEX
8
CUT
10
-32.4098
20
-37.7320
0
VERTEX
8
CUT
10
-32.4889
20
-37.9471
0
VERTEX
8
CUT
10
-32.4891
20
-37.9476
0
VERTEX
8
CUT
10
-32.4897
20
-37.9493
0
VERTEX
8
CUT
10
-32.4899
20
-37.9498
0
VERTEX
8
CUT
10
-32.4905
20
-37.9515
0
VERTEX
8
CUT
10
-32.4907
20
-37.9519
0
VERTEX
8
CUT
10
-32.4913
20
-37.9536
0
VERTEX
8
CUT
10
-32.4915
20
-37.9541
0
VERTEX
8
CUT
10
-32.5701
20
-38.1696
0
VERTEX
8
CUT
10
-32.5703
20
-38.1702
0
VERTEX
8
CUT
10
-32.5711
20
-38.1721
0
VERTEX
8
CUT
10
-32.5713
20
-38.1727
0
VERTEX
8
CUT
10
-32.5720
20
-38.1746
0
VERTEX
8
CUT
10
-32.5722
20
-38.1752
0
VERTEX
8
CUT
10
-32.5729
20
-38.1771
0
VERTEX
8
CUT
10
-32.5731
20
-38.1777
0
VERTEX
8
CUT
10
-32.6510
20
-38.3933
0
VERTEX
8
CUT
10
-32.6513
20
-38.3939
0
VERTEX
8
CUT
10
-32.6520
20
-38.3961
0
VERTEX
8
CUT
10
-32.6523
20
-38.3967
0
VERTEX
8
CUT
10
-32.6531
20
-38.3989
0
VERTEX
8
CUT
10
-32.6533
20
-38.3996
0
VERTEX
8
CUT
10
-32.6541
20
-38.4018
0
VERTEX
8
CUT
10
-32.6543
20
-38.4024
0
VERTEX
8
CUT
10
-32.7314
20
-38.6178
0
VERTEX
8
CUT
10
-32.7316
20
-38.6185
0
VERTEX
8
CUT
10
-32.7325
20
-38.6210
0
VERTEX
8
CUT
10
-32.7328
20
-38.6217
0
VERTEX
8
CUT
10
-32.7336
20
-38.6241
0
VERTEX
8
CUT
10
-32.7339
20
-38.6248
0
VERTEX
8
CUT
10
-32.7348
20
-38.6273
0
VERTEX
8
CUT
10
-32.7350
20
-38.6280
0
VERTEX
8
CUT
10
-32.8110
20
-38.8428
0
VERTEX
8
CUT
10
-32.8112
20
-38.8436
0
VERTEX
8
CUT
10
-32.8122
20
-38.8463
0
VERTEX
8
CUT
10
-32.8125
20
-38.8471
0
VERTEX
8
CUT
10
-32.8134
20
-38.8499
0
VERTEX
8
CUT
10
-32.8137
20
-38.8506
0
VERTEX
8
CUT
10
-32.8147
20
-38.8534
0
VERTEX
8
CUT
10
-32.8149
20
-38.8542
0
VERTEX
8
CUT
10
-32.8896
20
-39.0681
0
VERTEX
8
CUT
10
-32.8899
20
-39.0689
0
VERTEX
8
CUT
10
-32.8909
20
-39.0719
0
VERTEX
8
CUT
10
-32.8912
20
-39.0728
0
VERTEX
8
CUT
10
-32.8923
20
-39.0758
0
VERTEX
8
CUT
10
-32.8926
20
-39.0767
0
VERTEX
8
CUT
10
-32.8936
20
-39.0797
0
VERTEX
8
CUT
10
-32.8939
20
-39.0806
0
VERTEX
8
CUT
10
-32.9670
20
-39.2932
0
VERTEX
8
CUT
10
-32.9673
20
-39.2941
0
VERTEX
8
CUT
10
-32.9685
20
-39.2974
0
VERTEX
8
CUT
10
-32.9688
20
-39.2984
0
VERTEX
8
CUT
10
-32.9699
20
-39.3017
0
VERTEX
8
CUT
10
-32.9702
20
-39.3026
0
VERTEX
8
CUT
10
-32.9714
20
-39.3059
0
VERTEX
8
CUT
10
-32.9717
20
-39.3069
0
VERTEX
8
CUT
10
-33.0430
20
-39.5178
0
VERTEX
8
CUT
10
-33.0434
20
-39.5188
0
VERTEX
8
CUT
10
-33.0446
20
-39.5224
0
VERTEX
8
CUT
10
-33.0449
20
-39.5235
0
VERTEX
8
CUT
10
-33.0461
20
-39.5271
0
VERTEX
8
CUT
10
-33.0465
20
-39.5281
0
VERTEX
8
CUT
10
-33.0477
20
-39.5318
0
VERTEX
8
CUT
10
-33.0480
20
-39.5328
0
VERTEX
8
CUT
10
-33.1206
20
-39.7513
0
VERTEX
8
CUT
10
-33.1209
20
-39.7522
0
VERTEX
8
CUT
10
-33.1209
20
-39.7523
0
VERTEX
8
CUT
10
-33.1209
20
-39.7523
0
VERTEX
8
CUT
10
-33.1213
20
-39.7533
0
VERTEX
8
CUT
10
-33.1213
20
-39.7534
0
VERTEX
8
CUT
10
-33.1216
20
-39.7543
0
VERTEX
8
CUT
10
-33.1216
20
-39.7544
0
VERTEX
8
CUT
10
-33.1216
20
-39.7544
0
VERTEX
8
CUT
10
-33.1243
20
-39.7624
0
VERTEX
8
CUT
10
-33.1243
20
-39.7625
0
VERTEX
8
CUT
10
-33.1246
20
-39.7634
0
VERTEX
8
CUT
10
-33.1250
20
-39.7645
0
VERTEX
8
CUT
10
-33.1250
20
-39.7645
0
VERTEX
8
CUT
10
-33.1251
20
-39.7646
0
VERTEX
8
CUT
10
-33.1253
20
-39.7654
0
VERTEX
8
CUT
10
-33.1254
20
-39.7656
0
VERTEX
8
CUT
10
-33.1254
20
-39.7656
0
VERTEX
8
CUT
10
-33.1949
20
-39.9737
0
VERTEX
8
CUT
10
-33.1950
20
-39.9740
0
VERTEX
8
CUT
10
-33.1963
20
-39.9779
0
VERTEX
8
CUT
10
-33.1964
20
-39.9782
0
VERTEX
8
CUT
10
-33.1980
20
-39.9831
0
VERTEX
8
CUT
10
-33.1981
20
-39.9834
0
VERTEX
8
CUT
10
-33.1994
20
-39.9873
0
VERTEX
8
CUT
10
-33.1996
20
-39.9876
0
VERTEX
8
CUT
10
-33.2118
20
-40.0239
0
VERTEX
8
CUT
10
-33.2120
20
-40.0243
0
VERTEX
8
CUT
10
-33.2133
20
-40.0281
0
VERTEX
8
CUT
10
-33.2134
20
-40.0285
0
VERTEX
8
CUT
10
-33.2150
20
-40.0334
0
VERTEX
8
CUT
10
-33.2152
20
-40.0337
0
VERTEX
8
CUT
10
-33.2165
20
-40.0375
0
VERTEX
8
CUT
10
-33.2166
20
-40.0379
0
VERTEX
8
CUT
10
-33.2842
20
-40.2354
0
VERTEX
8
CUT
10
-33.2843
20
-40.2357
0
VERTEX
8
CUT
10
-33.2851
20
-40.2382
0
VERTEX
8
CUT
10
-33.2852
20
-40.2384
0
VERTEX
8
CUT
10
-33.2863
20
-40.2416
0
VERTEX
8
CUT
10
-33.2864
20
-40.2419
0
VERTEX
8
CUT
10
-33.2873
20
-40.2444
0
VERTEX
8
CUT
10
-33.2873
20
-40.2446
0
VERTEX
8
CUT
10
-33.2955
20
-40.2684
0
VERTEX
8
CUT
10
-33.2956
20
-40.2687
0
VERTEX
8
CUT
10
-33.2965
20
-40.2712
0
VERTEX
8
CUT
10
-33.2966
20
-40.2714
0
VERTEX
8
CUT
10
-33.2977
20
-40.2746
0
VERTEX
8
CUT
10
-33.2978
20
-40.2749
0
VERTEX
8
CUT
10
-33.2986
20
-40.2773
0
VERTEX
8
CUT
10
-33.2987
20
-40.2776
0
VERTEX
8
CUT
10
-33.3731
20
-40.4915
0
VERTEX
8
CUT
10
-33.3731
20
-40.4916
0
VERTEX
8
CUT
10
-33.3735
20
-40.4928
0
VERTEX
8
CUT
10
-33.3736
20
-40.4930
0
VERTEX
8
CUT
10
-33.3741
20
-40.4945
0
VERTEX
8
CUT
10
-33.3741
20
-40.4946
0
VERTEX
8
CUT
10
-33.3746
20
-40.4958
0
VERTEX
8
CUT
10
-33.3746
20
-40.4959
0
VERTEX
8
CUT
10
-33.3786
20
-40.5073
0
VERTEX
8
CUT
10
-33.3786
20
-40.5074
0
VERTEX
8
CUT
10
-33.3790
20
-40.5086
0
VERTEX
8
CUT
10
-33.3791
20
-40.5088
0
VERTEX
8
CUT
10
-33.3796
20
-40.5102
0
VERTEX
8
CUT
10
-33.3797
20
-40.5104
0
VERTEX
8
CUT
10
-33.3801
20
-40.5116
0
VERTEX
8
CUT
10
-33.4605
20
-40.7412
0
VERTEX
8
CUT
10
-33.4605
20
-40.7413
0
VERTEX
8
CUT
10
-33.4606
20
-40.7414
0
VERTEX
8
CUT
10
-33.4606
20
-40.7415
0
VERTEX
8
CUT
10
-33.4606
20
-40.7416
0
VERTEX
8
CUT
10
-33.4607
20
-40.7417
0
VERTEX
8
CUT
10
-33.4607
20
-40.7418
0
VERTEX
8
CUT
10
-33.4607
20
-40.7418
0
VERTEX
8
CUT
10
-33.5417
20
-40.9731
0
VERTEX
8
CUT
10
-33.5418
20
-40.9736
0
VERTEX
8
CUT
10
-33.5424
20
-40.9754
0
VERTEX
8
CUT
10
-33.5426
20
-40.9759
0
VERTEX
8
CUT
10
-33.5432
20
-40.9776
0
VERTEX
8
CUT
10
-33.5434
20
-40.9781
0
VERTEX
8
CUT
10
-33.5440
20
-40.9799
0
VERTEX
8
CUT
10
-33.5442
20
-40.9804
0
VERTEX
8
CUT
10
-33.6207
20
-41.2008
0
VERTEX
8
CUT
10
-33.6210
20
-41.2018
0
VERTEX
8
CUT
10
-33.6222
20
-41.2052
0
VERTEX
8
CUT
10
-33.6225
20
-41.2061
0
VERTEX
8
CUT
10
-33.6237
20
-41.2095
0
VERTEX
8
CUT
10
-33.6240
20
-41.2105
0
VERTEX
8
CUT
10
-33.6252
20
-41.2138
0
VERTEX
8
CUT
10
-33.6255
20
-41.2148
0
VERTEX
8
CUT
10
-33.6973
20
-41.4250
0
VERTEX
8
CUT
10
-33.6977
20
-41.4264
0
VERTEX
8
CUT
10
-33.6994
20
-41.4314
0
VERTEX
8
CUT
10
-33.6999
20
-41.4328
0
VERTEX
8
CUT
10
-33.7016
20
-41.4378
0
VERTEX
8
CUT
10
-33.7020
20
-41.4392
0
VERTEX
8
CUT
10
-33.7037
20
-41.4441
0
VERTEX
8
CUT
10
-33.7042
20
-41.4455
0
VERTEX
8
CUT
10
-33.7710
20
-41.6462
0
VERTEX
8
CUT
10
-33.7716
20
-41.6481
0
VERTEX
8
CUT
10
-33.7738
20
-41.6546
0
VERTEX
8
CUT
10
-33.7744
20
-41.6564
0
VERTEX
8
CUT
10
-33.7765
20
-41.6629
0
VERTEX
8
CUT
10
-33.7771
20
-41.6648
0
VERTEX
8
CUT
10
-33.7792
20
-41.6713
0
VERTEX
8
CUT
10
-33.7798
20
-41.6732
0
VERTEX
8
CUT
10
-33.8417
20
-41.8651
0
VERTEX
8
CUT
10
-33.8424
20
-41.8673
0
VERTEX
8
CUT
10
-33.8449
20
-41.8753
0
VERTEX
8
CUT
10
-33.8457
20
-41.8776
0
VERTEX
8
CUT
10
-33.8482
20
-41.8856
0
VERTEX
8
CUT
10
-33.8489
20
-41.8879
0
VERTEX
8
CUT
10
-33.8514
20
-41.8959
0
VERTEX
8
CUT
10
-33.8521
20
-41.8982
0
VERTEX
8
CUT
10
-33.9089
20
-42.0821
0
VERTEX
8
CUT
10
-33.9098
20
-42.0848
0
VERTEX
8
CUT
10
-33.9127
20
-42.0942
0
VERTEX
8
CUT
10
-33.9135
20
-42.0969
0
VERTEX
8
CUT
10
-33.9163
20
-42.1064
0
VERTEX
8
CUT
10
-33.9171
20
-42.1091
0
VERTEX
8
CUT
10
-33.9199
20
-42.1185
0
VERTEX
8
CUT
10
-33.9207
20
-42.1212
0
VERTEX
8
CUT
10
-33.9726
20
-42.2980
0
VERTEX
8
CUT
10
-33.9735
20
-42.3011
0
VERTEX
8
CUT
10
-33.9767
20
-42.3119
0
VERTEX
8
CUT
10
-33.9776
20
-42.3150
0
VERTEX
8
CUT
10
-33.9807
20
-42.3258
0
VERTEX
8
CUT
10
-33.9815
20
-42.3289
0
VERTEX
8
CUT
10
-33.9846
20
-42.3398
0
VERTEX
8
CUT
10
-33.9854
20
-42.3429
0
VERTEX
8
CUT
10
-34.0325
20
-42.5134
0
VERTEX
8
CUT
10
-34.0335
20
-42.5169
0
VERTEX
8
CUT
10
-34.0368
20
-42.5290
0
VERTEX
8
CUT
10
-34.0377
20
-42.5325
0
VERTEX
8
CUT
10
-34.0410
20
-42.5446
0
VERTEX
8
CUT
10
-34.0419
20
-42.5481
0
VERTEX
8
CUT
10
-34.0451
20
-42.5603
0
VERTEX
8
CUT
10
-34.0460
20
-42.5638
0
VERTEX
8
CUT
10
-34.0884
20
-42.7291
0
VERTEX
8
CUT
10
-34.0894
20
-42.7329
0
VERTEX
8
CUT
10
-34.0928
20
-42.7463
0
VERTEX
8
CUT
10
-34.0937
20
-42.7501
0
VERTEX
8
CUT
10
-34.0970
20
-42.7635
0
VERTEX
8
CUT
10
-34.0980
20
-42.7674
0
VERTEX
8
CUT
10
-34.1012
20
-42.7808
0
VERTEX
8
CUT
10
-34.1021
20
-42.7846
0
VERTEX
8
CUT
10
-34.1402
20
-42.9458
0
VERTEX
8
CUT
10
-34.1411
20
-42.9499
0
VERTEX
8
CUT
10
-34.1445
20
-42.9644
0
VERTEX
8
CUT
10
-34.1454
20
-42.9686
0
VERTEX
8
CUT
10
-34.1487
20
-42.9832
0
VERTEX
8
CUT
10
-34.1496
20
-42.9873
0
VERTEX
8
CUT
10
-34.1528
20
-43.0019
0
VERTEX
8
CUT
10
-34.1537
20
-43.0061
0
VERTEX
8
CUT
10
-34.1875
20
-43.1642
0
VERTEX
8
CUT
10
-34.1885
20
-43.1687
0
VERTEX
8
CUT
10
-34.1917
20
-43.1843
0
VERTEX
8
CUT
10
-34.1926
20
-43.1887
0
VERTEX
8
CUT
10
-34.1958
20
-43.2044
0
VERTEX
8
CUT
10
-34.1966
20
-43.2088
0
VERTEX
8
CUT
10
-34.1997
20
-43.2244
0
VERTEX
8
CUT
10
-34.2006
20
-43.2289
0
VERTEX
8
CUT
10
-34.2329
20
-43.3992
0
VERTEX
8
CUT
10
-34.2336
20
-43.4029
0
VERTEX
8
CUT
10
-34.2360
20
-43.4158
0
VERTEX
8
CUT
10
-34.2367
20
-43.4194
0
VERTEX
8
CUT
10
-34.2390
20
-43.4323
0
VERTEX
8
CUT
10
-34.2396
20
-43.4360
0
VERTEX
8
CUT
10
-34.2419
20
-43.4489
0
VERTEX
8
CUT
10
-34.2425
20
-43.4526
0
VERTEX
8
CUT
10
-34.2757
20
-43.6468
0
VERTEX
8
CUT
10
-34.2761
20
-43.6495
0
VERTEX
8
CUT
10
-34.2778
20
-43.6592
0
VERTEX
8
CUT
10
-34.2782
20
-43.6619
0
VERTEX
8
CUT
10
-34.2798
20
-43.6716
0
VERTEX
8
CUT
10
-34.2802
20
-43.6743
0
VERTEX
8
CUT
10
-34.2818
20
-43.6840
0
VERTEX
8
CUT
10
-34.2822
20
-43.6868
0
VERTEX
8
CUT
10
-34.3141
20
-43.8906
0
VERTEX
8
CUT
10
-34.3145
20
-43.8934
0
VERTEX
8
CUT
10
-34.3160
20
-43.9031
0
VERTEX
8
CUT
10
-34.3164
20
-43.9058
0
VERTEX
8
CUT
10
-34.3178
20
-43.9155
0
VERTEX
8
CUT
10
-34.3183
20
-43.9183
0
VERTEX
8
CUT
10
-34.3197
20
-43.9280
0
VERTEX
8
CUT
10
-34.3201
20
-43.9308
0
VERTEX
8
CUT
10
-34.3489
20
-44.1340
0
VERTEX
8
CUT
10
-34.3493
20
-44.1368
0
VERTEX
8
CUT
10
-34.3506
20
-44.1463
0
VERTEX
8
CUT
10
-34.3510
20
-44.1491
0
VERTEX
8
CUT
10
-34.3523
20
-44.1586
0
VERTEX
8
CUT
10
-34.3527
20
-44.1613
0
VERTEX
8
CUT
10
-34.3539
20
-44.1709
0
VERTEX
8
CUT
10
-34.3543
20
-44.1736
0
VERTEX
8
CUT
10
-34.3806
20
-44.3790
0
VERTEX
8
CUT
10
-34.3809
20
-44.3817
0
VERTEX
8
CUT
10
-34.3820
20
-44.3909
0
VERTEX
8
CUT
10
-34.3824
20
-44.3936
0
VERTEX
8
CUT
10
-34.3835
20
-44.4028
0
VERTEX
8
CUT
10
-34.3838
20
-44.4055
0
VERTEX
8
CUT
10
-34.3849
20
-44.4147
0
VERTEX
8
CUT
10
-34.3852
20
-44.4174
0
VERTEX
8
CUT
10
-34.4093
20
-44.6275
0
VERTEX
8
CUT
10
-34.4095
20
-44.6300
0
VERTEX
8
CUT
10
-34.4105
20
-44.6388
0
VERTEX
8
CUT
10
-34.4108
20
-44.6414
0
VERTEX
8
CUT
10
-34.4118
20
-44.6502
0
VERTEX
8
CUT
10
-34.4120
20
-44.6527
0
VERTEX
8
CUT
10
-34.4129
20
-44.6615
0
VERTEX
8
CUT
10
-34.4132
20
-44.6640
0
VERTEX
8
CUT
10
-34.4353
20
-44.8814
0
VERTEX
8
CUT
10
-34.4355
20
-44.8838
0
VERTEX
8
CUT
10
-34.4364
20
-44.8920
0
VERTEX
8
CUT
10
-34.4366
20
-44.8944
0
VERTEX
8
CUT
10
-34.4374
20
-44.9026
0
VERTEX
8
CUT
10
-34.4376
20
-44.9050
0
VERTEX
8
CUT
10
-34.4384
20
-44.9132
0
VERTEX
8
CUT
10
-34.4386
20
-44.9156
0
VERTEX
8
CUT
10
-34.4589
20
-45.1426
0
VERTEX
8
CUT
10
-34.4591
20
-45.1447
0
VERTEX
8
CUT
10
-34.4598
20
-45.1523
0
VERTEX
8
CUT
10
-34.4600
20
-45.1545
0
VERTEX
8
CUT
10
-34.4606
20
-45.1620
0
VERTEX
8
CUT
10
-34.4608
20
-45.1642
0
VERTEX
8
CUT
10
-34.4614
20
-45.1718
0
VERTEX
8
CUT
10
-34.4616
20
-45.1739
0
VERTEX
8
CUT
10
-34.4804
20
-45.4126
0
VERTEX
8
CUT
10
-34.4805
20
-45.4146
0
VERTEX
8
CUT
10
-34.4810
20
-45.4214
0
VERTEX
8
CUT
10
-34.4812
20
-45.4234
0
VERTEX
8
CUT
10
-34.4817
20
-45.4302
0
VERTEX
8
CUT
10
-34.4818
20
-45.4321
0
VERTEX
8
CUT
10
-34.4823
20
-45.4390
0
VERTEX
8
CUT
10
-34.4825
20
-45.4409
0
VERTEX
8
CUT
10
-34.4999
20
-45.6933
0
VERTEX
8
CUT
10
-34.5000
20
-45.6950
0
VERTEX
8
CUT
10
-34.5004
20
-45.7010
0
VERTEX
8
CUT
10
-34.5005
20
-45.7027
0
VERTEX
8
CUT
10
-34.5009
20
-45.7088
0
VERTEX
8
CUT
10
-34.5010
20
-45.7105
0
VERTEX
8
CUT
10
-34.5014
20
-45.7165
0
VERTEX
8
CUT
10
-34.5015
20
-45.7182
0
VERTEX
8
CUT
10
-34.5176
20
-45.9860
0
VERTEX
8
CUT
10
-34.5177
20
-45.9874
0
VERTEX
8
CUT
10
-34.5180
20
-45.9927
0
VERTEX
8
CUT
10
-34.5181
20
-45.9942
0
VERTEX
8
CUT
10
-34.5184
20
-45.9994
0
VERTEX
8
CUT
10
-34.5185
20
-46.0009
0
VERTEX
8
CUT
10
-34.5188
20
-46.0061
0
VERTEX
8
CUT
10
-34.5188
20
-46.0076
0
VERTEX
8
CUT
10
-34.5339
20
-46.2921
0
VERTEX
8
CUT
10
-34.5339
20
-46.2934
0
VERTEX
8
CUT
10
-34.5341
20
-46.2978
0
VERTEX
8
CUT
10
-34.5342
20
-46.2991
0
VERTEX
8
CUT
10
-34.5344
20
-46.3035
0
VERTEX
8
CUT
10
-34.5345
20
-46.3048
0
VERTEX
8
CUT
10
-34.5347
20
-46.3092
0
VERTEX
8
CUT
10
-34.5348
20
-46.3104
0
VERTEX
8
CUT
10
-34.5488
20
-46.6132
0
VERTEX
8
CUT
10
-34.5489
20
-46.6142
0
VERTEX
8
CUT
10
-34.5490
20
-46.6179
0
VERTEX
8
CUT
10
-34.5491
20
-46.6189
0
VERTEX
8
CUT
10
-34.5492
20
-46.6226
0
VERTEX
8
CUT
10
-34.5493
20
-46.6236
0
VERTEX
8
CUT
10
-34.5494
20
-46.6272
0
VERTEX
8
CUT
10
-34.5495
20
-46.6283
0
VERTEX
8
CUT
10
-34.5628
20
-46.9505
0
VERTEX
8
CUT
10
-34.5628
20
-46.9513
0
VERTEX
8
CUT
10
-34.5629
20
-46.9542
0
VERTEX
8
CUT
10
-34.5630
20
-46.9550
0
VERTEX
8
CUT
10
-34.5631
20
-46.9579
0
VERTEX
8
CUT
10
-34.5631
20
-46.9588
0
VERTEX
8
CUT
10
-34.5632
20
-46.9616
0
VERTEX
8
CUT
10
-34.5632
20
-46.9625
0
VERTEX
8
CUT
10
-34.5759
20
-47.3052
0
VERTEX
8
CUT
10
-34.5760
20
-47.3058
0
VERTEX
8
CUT
10
-34.5761
20
-47.3080
0
VERTEX
8
CUT
10
-34.5761
20
-47.3087
0
VERTEX
8
CUT
10
-34.5762
20
-47.3109
0
VERTEX
8
CUT
10
-34.5762
20
-47.3115
0
VERTEX
8
CUT
10
-34.5763
20
-47.3137
0
VERTEX
8
CUT
10
-34.5763
20
-47.3144
0
VERTEX
8
CUT
10
-34.5886
20
-47.6786
0
VERTEX
8
CUT
10
-34.5886
20
-47.6790
0
VERTEX
8
CUT
10
-34.5887
20
-47.6806
0
VERTEX
8
CUT
10
-34.5887
20
-47.6811
0
VERTEX
8
CUT
10
-34.5888
20
-47.6827
0
VERTEX
8
CUT
10
-34.5888
20
-47.6831
0
VERTEX
8
CUT
10
-34.5888
20
-47.6847
0
VERTEX
8
CUT
10
-34.5888
20
-47.6852
0
VERTEX
8
CUT
10
-34.6009
20
-48.0676
0
VERTEX
8
CUT
10
-34.6010
20
-48.0682
0
VERTEX
8
CUT
10
-34.6010
20
-48.0704
0
VERTEX
8
CUT
10
-34.6010
20
-48.0710
0
VERTEX
8
CUT
10
-34.6011
20
-48.0732
0
VERTEX
8
CUT
10
-34.6011
20
-48.0739
0
VERTEX
8
CUT
10
-34.6012
20
-48.0760
0
VERTEX
8
CUT
10
-34.6012
20
-48.0767
0
VERTEX
8
CUT
10
-34.6126
20
-48.4748
0
VERTEX
8
CUT
10
-34.6126
20
-48.4757
0
VERTEX
8
CUT
10
-34.6127
20
-48.4786
0
VERTEX
8
CUT
10
-34.6127
20
-48.4795
0
VERTEX
8
CUT
10
-34.6128
20
-48.4824
0
VERTEX
8
CUT
10
-34.6128
20
-48.4832
0
VERTEX
8
CUT
10
-34.6129
20
-48.4862
0
VERTEX
8
CUT
10
-34.6129
20
-48.4870
0
VERTEX
8
CUT
10
-34.6230
20
-48.9044
0
VERTEX
8
CUT
10
-34.6230
20
-48.9052
0
VERTEX
8
CUT
10
-34.6231
20
-48.9079
0
VERTEX
8
CUT
10
-34.6231
20
-48.9087
0
VERTEX
8
CUT
10
-34.6232
20
-48.9114
0
VERTEX
8
CUT
10
-34.6232
20
-48.9122
0
VERTEX
8
CUT
10
-34.6233
20
-48.9149
0
VERTEX
8
CUT
10
-34.6233
20
-48.9157
0
VERTEX
8
CUT
10
-34.6322
20
-49.3536
0
VERTEX
8
CUT
10
-34.6322
20
-49.3543
0
VERTEX
8
CUT
10
-34.6323
20
-49.3569
0
VERTEX
8
CUT
10
-34.6323
20
-49.3576
0
VERTEX
8
CUT
10
-34.6323
20
-49.3602
0
VERTEX
8
CUT
10
-34.6323
20
-49.3609
0
VERTEX
8
CUT
10
-34.6324
20
-49.3634
0
VERTEX
8
CUT
10
-34.6324
20
-49.3642
0
VERTEX
8
CUT
10
-34.6400
20
-49.8200
0
VERTEX
8
CUT
10
-34.6400
20
-49.8207
0
VERTEX
8
CUT
10
-34.6401
20
-49.8231
0
VERTEX
8
CUT
10
-34.6401
20
-49.8238
0
VERTEX
8
CUT
10
-34.6401
20
-49.8263
0
VERTEX
8
CUT
10
-34.6401
20
-49.8270
0
VERTEX
8
CUT
10
-34.6402
20
-49.8294
0
VERTEX
8
CUT
10
-34.6402
20
-49.8301
0
VERTEX
8
CUT
10
-34.6464
20
-50.3013
0
VERTEX
8
CUT
10
-34.6464
20
-50.3019
0
VERTEX
8
CUT
10
-34.6465
20
-50.3043
0
VERTEX
8
CUT
10
-34.6465
20
-50.3050
0
VERTEX
8
CUT
10
-34.6465
20
-50.3073
0
VERTEX
8
CUT
10
-34.6465
20
-50.3080
0
VERTEX
8
CUT
10
-34.6465
20
-50.3104
0
VERTEX
8
CUT
10
-34.6465
20
-50.3111
0
VERTEX
8
CUT
10
-34.6513
20
-50.7950
0
VERTEX
8
CUT
10
-34.6513
20
-50.7957
0
VERTEX
8
CUT
10
-34.6513
20
-50.7981
0
VERTEX
8
CUT
10
-34.6513
20
-50.7987
0
VERTEX
8
CUT
10
-34.6514
20
-50.8011
0
VERTEX
8
CUT
10
-34.6514
20
-50.8017
0
VERTEX
8
CUT
10
-34.6514
20
-50.8041
0
VERTEX
8
CUT
10
-34.6514
20
-50.8048
0
VERTEX
8
CUT
10
-34.6546
20
-51.2991
0
VERTEX
8
CUT
10
-34.6546
20
-51.2998
0
VERTEX
8
CUT
10
-34.6546
20
-51.3021
0
VERTEX
8
CUT
10
-34.6546
20
-51.3028
0
VERTEX
8
CUT
10
-34.6546
20
-51.3051
0
VERTEX
8
CUT
10
-34.6546
20
-51.3058
0
VERTEX
8
CUT
10
-34.6546
20
-51.3082
0
VERTEX
8
CUT
10
-34.6546
20
-51.3088
0
VERTEX
8
CUT
10
-34.6562
20
-51.8111
0
VERTEX
8
CUT
10
-34.6562
20
-51.8118
0
VERTEX
8
CUT
10
-34.6562
20
-51.8142
0
VERTEX
8
CUT
10
-34.6562
20
-51.8149
0
VERTEX
8
CUT
10
-34.6562
20
-51.8172
0
VERTEX
8
CUT
10
-34.6562
20
-51.8179
0
VERTEX
8
CUT
10
-34.6562
20
-51.8203
0
VERTEX
8
CUT
10
-34.6562
20
-51.8210
0
VERTEX
8
CUT
10
-34.6561
20
-52.3288
0
VERTEX
8
CUT
10
-34.6561
20
-52.3295
0
VERTEX
8
CUT
10
-34.6561
20
-52.3320
0
VERTEX
8
CUT
10
-34.6561
20
-52.3327
0
VERTEX
8
CUT
10
-34.6561
20
-52.3350
0
VERTEX
8
CUT
10
-34.6561
20
-52.3357
0
VERTEX
8
CUT
10
-34.6561
20
-52.3382
0
VERTEX
8
CUT
10
-34.6561
20
-52.3389
0
VERTEX
8
CUT
10
-34.6542
20
-52.8499
0
VERTEX
8
CUT
10
-34.6542
20
-52.8506
0
VERTEX
8
CUT
10
-34.6542
20
-52.8531
0
VERTEX
8
CUT
10
-34.6542
20
-52.8538
0
VERTEX
8
CUT
10
-34.6542
20
-52.8563
0
VERTEX
8
CUT
10
-34.6542
20
-52.8570
0
VERTEX
8
CUT
10
-34.6542
20
-52.8595
0
VERTEX
8
CUT
10
-34.6542
20
-52.8603
0
VERTEX
8
CUT
10
-34.6505
20
-53.3720
0
VERTEX
8
CUT
10
-34.6505
20
-53.3728
0
VERTEX
8
CUT
10
-34.6505
20
-53.3754
0
VERTEX
8
CUT
10
-34.6505
20
-53.3761
0
VERTEX
8
CUT
10
-34.6504
20
-53.3787
0
VERTEX
8
CUT
10
-34.6504
20
-53.3795
0
VERTEX
8
CUT
10
-34.6504
20
-53.3821
0
VERTEX
8
CUT
10
-34.6504
20
-53.3828
0
VERTEX
8
CUT
10
-34.6448
20
-53.8929
0
VERTEX
8
CUT
10
-34.6448
20
-53.8937
0
VERTEX
8
CUT
10
-34.6447
20
-53.8964
0
VERTEX
8
CUT
10
-34.6447
20
-53.8972
0
VERTEX
8
CUT
10
-34.6447
20
-53.9000
0
VERTEX
8
CUT
10
-34.6447
20
-53.9008
0
VERTEX
8
CUT
10
-34.6447
20
-53.9035
0
VERTEX
8
CUT
10
-34.6446
20
-53.9043
0
VERTEX
8
CUT
10
-34.6371
20
-54.4102
0
VERTEX
8
CUT
10
-34.6371
20
-54.4110
0
VERTEX
8
CUT
10
-34.6370
20
-54.4140
0
VERTEX
8
CUT
10
-34.6370
20
-54.4148
0
VERTEX
8
CUT
10
-34.6370
20
-54.4178
0
VERTEX
8
CUT
10
-34.6370
20
-54.4186
0
VERTEX
8
CUT
10
-34.6369
20
-54.4215
0
VERTEX
8
CUT
10
-34.6369
20
-54.4224
0
VERTEX
8
CUT
10
-34.6273
20
-54.9215
0
VERTEX
8
CUT
10
-34.6273
20
-54.9224
0
VERTEX
8
CUT
10
-34.6272
20
-54.9256
0
VERTEX
8
CUT
10
-34.6272
20
-54.9265
0
VERTEX
8
CUT
10
-34.6272
20
-54.9297
0
VERTEX
8
CUT
10
-34.6271
20
-54.9306
0
VERTEX
8
CUT
10
-34.6271
20
-54.9338
0
VERTEX
8
CUT
10
-34.6270
20
-54.9347
0
VERTEX
8
CUT
10
-34.6154
20
-55.4246
0
VERTEX
8
CUT
10
-34.6154
20
-55.4256
0
VERTEX
8
CUT
10
-34.6153
20
-55.4291
0
VERTEX
8
CUT
10
-34.6153
20
-55.4301
0
VERTEX
8
CUT
10
-34.6152
20
-55.4335
0
VERTEX
8
CUT
10
-34.6152
20
-55.4345
0
VERTEX
8
CUT
10
-34.6151
20
-55.4379
0
VERTEX
8
CUT
10
-34.6151
20
-55.4389
0
VERTEX
8
CUT
10
-34.6011
20
-55.9270
0
VERTEX
8
CUT
10
-34.6011
20
-55.9273
0
VERTEX
8
CUT
10
-34.6011
20
-55.9284
0
VERTEX
8
CUT
10
-34.6011
20
-55.9288
0
VERTEX
8
CUT
10
-34.6010
20
-55.9299
0
VERTEX
8
CUT
10
-34.6010
20
-55.9303
0
VERTEX
8
CUT
10
-34.6010
20
-55.9314
0
VERTEX
8
CUT
10
-34.6010
20
-55.9317
0
VERTEX
8
CUT
10
-34.5859
20
-56.4297
0
VERTEX
8
CUT
10
-34.5859
20
-56.4298
0
VERTEX
8
CUT
10
-34.5859
20
-56.4304
0
VERTEX
8
CUT
10
-34.5859
20
-56.4305
0
VERTEX
8
CUT
10
-34.5858
20
-56.4313
0
VERTEX
8
CUT
10
-34.5858
20
-56.4313
0
VERTEX
8
CUT
10
-34.5858
20
-56.4320
0
VERTEX
8
CUT
10
-34.5858
20
-56.4321
0
VERTEX
8
CUT
10
-34.5856
20
-56.4380
0
VERTEX
8
CUT
10
-34.5856
20
-56.4381
0
VERTEX
8
CUT
10
-34.5856
20
-56.4387
0
VERTEX
8
CUT
10
-34.5856
20
-56.4388
0
VERTEX
8
CUT
10
-34.5856
20
-56.4396
0
VERTEX
8
CUT
10
-34.5856
20
-56.4396
0
VERTEX
8
CUT
10
-34.5856
20
-56.4403
0
VERTEX
8
CUT
10
-34.5856
20
-56.4403
0
VERTEX
8
CUT
10
-34.5706
20
-56.9534
0
VERTEX
8
CUT
10
-34.5706
20
-56.9534
0
VERTEX
8
CUT
10
-34.5554
20
-57.4758
0
VERTEX
8
CUT
10
-34.5554
20
-57.4760
0
VERTEX
8
CUT
10
-34.5554
20
-57.4768
0
VERTEX
8
CUT
10
-34.5554
20
-57.4770
0
VERTEX
8
CUT
10
-34.5554
20
-57.4778
0
VERTEX
8
CUT
10
-34.5554
20
-57.4780
0
VERTEX
8
CUT
10
-34.5553
20
-57.4787
0
VERTEX
8
CUT
10
-34.5553
20
-57.4790
0
VERTEX
8
CUT
10
-34.5396
20
-58.0014
0
VERTEX
8
CUT
10
-34.5395
20
-58.0018
0
VERTEX
8
CUT
10
-34.5395
20
-58.0034
0
VERTEX
8
CUT
10
-34.5395
20
-58.0038
0
VERTEX
8
CUT
10
-34.5394
20
-58.0053
0
VERTEX
8
CUT
10
-34.5394
20
-58.0058
0
VERTEX
8
CUT
10
-34.5394
20
-58.0073
0
VERTEX
8
CUT
10
-34.5394
20
-58.0077
0
VERTEX
8
CUT
10
-34.5225
20
-58.5277
0
VERTEX
8
CUT
10
-34.5225
20
-58.5284
0
VERTEX
8
CUT
10
-34.5224
20
-58.5307
0
VERTEX
8
CUT
10
-34.5224
20
-58.5313
0
VERTEX
8
CUT
10
-34.5223
20
-58.5336
0
VERTEX
8
CUT
10
-34.5223
20
-58.5343
0
VERTEX
8
CUT
10
-34.5222
20
-58.5366
0
VERTEX
8
CUT
10
-34.5222
20
-58.5372
0
VERTEX
8
CUT
10
-34.5038
20
-59.0521
0
VERTEX
8
CUT
10
-34.5038
20
-59.0530
0
VERTEX
8
CUT
10
-34.5037
20
-59.0561
0
VERTEX
8
CUT
10
-34.5036
20
-59.0570
0
VERTEX
8
CUT
10
-34.5035
20
-59.0601
0
VERTEX
8
CUT
10
-34.5035
20
-59.0609
0
VERTEX
8
CUT
10
-34.5033
20
-59.0640
0
VERTEX
8
CUT
10
-34.5033
20
-59.0649
0
VERTEX
8
CUT
10
-34.4830
20
-59.5720
0
VERTEX
8
CUT
10
-34.4829
20
-59.5731
0
VERTEX
8
CUT
10
-34.4828
20
-59.5771
0
VERTEX
8
CUT
10
-34.4827
20
-59.5782
0
VERTEX
8
CUT
10
-34.4826
20
-59.5821
0
VERTEX
8
CUT
10
-34.4825
20
-59.5832
0
VERTEX
8
CUT
10
-34.4823
20
-59.5871
0
VERTEX
8
CUT
10
-34.4823
20
-59.5883
0
VERTEX
8
CUT
10
-34.4596
20
-60.0846
0
VERTEX
8
CUT
10
-34.4595
20
-60.0860
0
VERTEX
8
CUT
10
-34.4593
20
-60.0908
0
VERTEX
8
CUT
10
-34.4592
20
-60.0922
0
VERTEX
8
CUT
10
-34.4590
20
-60.0970
0
VERTEX
8
CUT
10
-34.4589
20
-60.0984
0
VERTEX
8
CUT
10
-34.4587
20
-60.1032
0
VERTEX
8
CUT
10
-34.4586
20
-60.1046
0
VERTEX
8
CUT
10
-34.4332
20
-60.5870
0
VERTEX
8
CUT
10
-34.4331
20
-60.5887
0
VERTEX
8
CUT
10
-34.4328
20
-60.5945
0
VERTEX
8
CUT
10
-34.4327
20
-60.5962
0
VERTEX
8
CUT
10
-34.4324
20
-60.6020
0
VERTEX
8
CUT
10
-34.4323
20
-60.6037
0
VERTEX
8
CUT
10
-34.4319
20
-60.6096
0
VERTEX
8
CUT
10
-34.4318
20
-60.6112
0
VERTEX
8
CUT
10
-34.4034
20
-61.0763
0
VERTEX
8
CUT
10
-34.4033
20
-61.0783
0
VERTEX
8
CUT
10
-34.4029
20
-61.0853
0
VERTEX
8
CUT
10
-34.4027
20
-61.0873
0
VERTEX
8
CUT
10
-34.4023
20
-61.0943
0
VERTEX
8
CUT
10
-34.4021
20
-61.0963
0
VERTEX
8
CUT
10
-34.4017
20
-61.1033
0
VERTEX
8
CUT
10
-34.4015
20
-61.1053
0
VERTEX
8
CUT
10
-34.3699
20
-61.5493
0
VERTEX
8
CUT
10
-34.3698
20
-61.5517
0
VERTEX
8
CUT
10
-34.3692
20
-61.5600
0
VERTEX
8
CUT
10
-34.3690
20
-61.5624
0
VERTEX
8
CUT
10
-34.3683
20
-61.5707
0
VERTEX
8
CUT
10
-34.3681
20
-61.5731
0
VERTEX
8
CUT
10
-34.3675
20
-61.5814
0
VERTEX
8
CUT
10
-34.3673
20
-61.5838
0
VERTEX
8
CUT
10
-34.3325
20
-62.0027
0
VERTEX
8
CUT
10
-34.3322
20
-62.0056
0
VERTEX
8
CUT
10
-34.3314
20
-62.0155
0
VERTEX
8
CUT
10
-34.3311
20
-62.0183
0
VERTEX
8
CUT
10
-34.3302
20
-62.0282
0
VERTEX
8
CUT
10
-34.3300
20
-62.0310
0
VERTEX
8
CUT
10
-34.3290
20
-62.0409
0
VERTEX
8
CUT
10
-34.3288
20
-62.0438
0
VERTEX
8
CUT
10
-34.2908
20
-62.4330
0
VERTEX
8
CUT
10
-34.2905
20
-62.4364
0
VERTEX
8
CUT
10
-34.2893
20
-62.4481
0
VERTEX
8
CUT
10
-34.2889
20
-62.4515
0
VERTEX
8
CUT
10
-34.2877
20
-62.4633
0
VERTEX
8
CUT
10
-34.2873
20
-62.4667
0
VERTEX
8
CUT
10
-34.2860
20
-62.4784
0
VERTEX
8
CUT
10
-34.2857
20
-62.4818
0
VERTEX
8
CUT
10
-34.2451
20
-62.8361
0
VERTEX
8
CUT
10
-34.2446
20
-62.8401
0
VERTEX
8
CUT
10
-34.2429
20
-62.8542
0
VERTEX
8
CUT
10
-34.2424
20
-62.8583
0
VERTEX
8
CUT
10
-34.2406
20
-62.8723
0
VERTEX
8
CUT
10
-34.2401
20
-62.8764
0
VERTEX
8
CUT
10
-34.2383
20
-62.8904
0
VERTEX
8
CUT
10
-34.2378
20
-62.8945
0
VERTEX
8
CUT
10
-34.1954
20
-63.2077
0
VERTEX
8
CUT
10
-34.1948
20
-63.2125
0
VERTEX
8
CUT
10
-34.1924
20
-63.2295
0
VERTEX
8
CUT
10
-34.1917
20
-63.2343
0
VERTEX
8
CUT
10
-34.1892
20
-63.2512
0
VERTEX
8
CUT
10
-34.1884
20
-63.2561
0
VERTEX
8
CUT
10
-34.1858
20
-63.2730
0
VERTEX
8
CUT
10
-34.1851
20
-63.2778
0
VERTEX
8
CUT
10
-34.1352
20
-63.5891
0
VERTEX
8
CUT
10
-34.1348
20
-63.5915
0
VERTEX
8
CUT
10
-34.1335
20
-63.5998
0
VERTEX
8
CUT
10
-34.1331
20
-63.6021
0
VERTEX
8
CUT
10
-34.1317
20
-63.6104
0
VERTEX
8
CUT
10
-34.1313
20
-63.6127
0
VERTEX
8
CUT
10
-34.1299
20
-63.6210
0
VERTEX
8
CUT
10
-34.1295
20
-63.6234
0
VERTEX
8
CUT
10
-34.0690
20
-63.9742
0
VERTEX
8
CUT
10
-34.0690
20
-63.9744
0
VERTEX
8
CUT
10
-34.0689
20
-63.9751
0
VERTEX
8
CUT
10
-34.0689
20
-63.9751
0
VERTEX
8
CUT
10
-34.0687
20
-63.9760
0
VERTEX
8
CUT
10
-34.0687
20
-63.9762
0
VERTEX
8
CUT
10
-34.0686
20
-63.9769
0
VERTEX
8
CUT
10
-34.0686
20
-63.9769
0
VERTEX
8
CUT
10
-34.0685
20
-63.9770
0
VERTEX
8
CUT
10
-34.0673
20
-63.9840
0
VERTEX
8
CUT
10
-34.0673
20
-63.9841
0
VERTEX
8
CUT
10
-34.0672
20
-63.9848
0
VERTEX
8
CUT
10
-34.0672
20
-63.9848
0
VERTEX
8
CUT
10
-34.0672
20
-63.9849
0
VERTEX
8
CUT
10
-34.0670
20
-63.9859
0
VERTEX
8
CUT
10
-34.0669
20
-63.9867
0
VERTEX
8
CUT
10
-34.0669
20
-63.9867
0
VERTEX
8
CUT
10
-34.0053
20
-64.3466
0
VERTEX
8
CUT
10
-34.0052
20
-64.3472
0
VERTEX
8
CUT
10
-34.0048
20
-64.3494
0
VERTEX
8
CUT
10
-34.0047
20
-64.3501
0
VERTEX
8
CUT
10
-34.0043
20
-64.3523
0
VERTEX
8
CUT
10
-34.0042
20
-64.3529
0
VERTEX
8
CUT
10
-34.0038
20
-64.3551
0
VERTEX
8
CUT
10
-34.0037
20
-64.3557
0
VERTEX
8
CUT
10
-33.9464
20
-64.6847
0
VERTEX
8
CUT
10
-33.9461
20
-64.6864
0
VERTEX
8
CUT
10
-33.9451
20
-64.6921
0
VERTEX
8
CUT
10
-33.9448
20
-64.6937
0
VERTEX
8
CUT
10
-33.9438
20
-64.6995
0
VERTEX
8
CUT
10
-33.9435
20
-64.7011
0
VERTEX
8
CUT
10
-33.9424
20
-64.7068
0
VERTEX
8
CUT
10
-33.9421
20
-64.7085
0
VERTEX
8
CUT
10
-33.8896
20
-64.9958
0
VERTEX
8
CUT
10
-33.8891
20
-64.9985
0
VERTEX
8
CUT
10
-33.8873
20
-65.0082
0
VERTEX
8
CUT
10
-33.8868
20
-65.0109
0
VERTEX
8
CUT
10
-33.8849
20
-65.0205
0
VERTEX
8
CUT
10
-33.8844
20
-65.0233
0
VERTEX
8
CUT
10
-33.8825
20
-65.0329
0
VERTEX
8
CUT
10
-33.8820
20
-65.0356
0
VERTEX
8
CUT
10
-33.8341
20
-65.2786
0
VERTEX
8
CUT
10
-33.8333
20
-65.2826
0
VERTEX
8
CUT
10
-33.8304
20
-65.2964
0
VERTEX
8
CUT
10
-33.8296
20
-65.3004
0
VERTEX
8
CUT
10
-33.8267
20
-65.3143
0
VERTEX
8
CUT
10
-33.8259
20
-65.3183
0
VERTEX
8
CUT
10
-33.8229
20
-65.3321
0
VERTEX
8
CUT
10
-33.8221
20
-65.3361
0
VERTEX
8
CUT
10
-33.7793
20
-65.5320
0
VERTEX
8
CUT
10
-33.7781
20
-65.5373
0
VERTEX
8
CUT
10
-33.7739
20
-65.5558
0
VERTEX
8
CUT
10
-33.7727
20
-65.5611
0
VERTEX
8
CUT
10
-33.7684
20
-65.5796
0
VERTEX
8
CUT
10
-33.7672
20
-65.5849
0
VERTEX
8
CUT
10
-33.7627
20
-65.6034
0
VERTEX
8
CUT
10
-33.7614
20
-65.6087
0
VERTEX
8
CUT
10
-33.7252
20
-65.7552
0
VERTEX
8
CUT
10
-33.7235
20
-65.7619
0
VERTEX
8
CUT
10
-33.7175
20
-65.7854
0
VERTEX
8
CUT
10
-33.7158
20
-65.7921
0
VERTEX
8
CUT
10
-33.7095
20
-65.8155
0
VERTEX
8
CUT
10
-33.7077
20
-65.8222
0
VERTEX
8
CUT
10
-33.7013
20
-65.8456
0
VERTEX
8
CUT
10
-33.6995
20
-65.8522
0
VERTEX
8
CUT
10
-33.6723
20
-65.9478
0
VERTEX
8
CUT
10
-33.6699
20
-65.9559
0
VERTEX
8
CUT
10
-33.6615
20
-65.9845
0
VERTEX
8
CUT
10
-33.6590
20
-65.9927
0
VERTEX
8
CUT
10
-33.6503
20
-66.0212
0
VERTEX
8
CUT
10
-33.6477
20
-66.0293
0
VERTEX
8
CUT
10
-33.6386
20
-66.0577
0
VERTEX
8
CUT
10
-33.6360
20
-66.0658
0
VERTEX
8
CUT
10
-33.6214
20
-66.1100
0
VERTEX
8
CUT
10
-33.6181
20
-66.1196
0
VERTEX
8
CUT
10
-33.6065
20
-66.1533
0
VERTEX
8
CUT
10
-33.6031
20
-66.1629
0
VERTEX
8
CUT
10
-33.5911
20
-66.1965
0
VERTEX
8
CUT
10
-33.5876
20
-66.2060
0
VERTEX
8
CUT
10
-33.5762
20
-66.2364
0
VERTEX
8
CUT
10
-33.5682
20
-66.2569
0
VERTEX
8
CUT
10
-33.5537
20
-66.2928
0
VERTEX
8
CUT
10
-33.5491
20
-66.3038
0
VERTEX
8
CUT
10
-33.5446
20
-66.3145
0
VERTEX
8
CUT
10
-33.5343
20
-66.3377
0
VERTEX
8
CUT
10
-33.5044
20
-66.4027
0
VERTEX
8
CUT
10
-33.4803
20
-66.4507
0
VERTEX
8
CUT
10
-33.4568
20
-66.4939
0
VERTEX
8
CUT
10
-33.4265
20
-66.5448
0
VERTEX
8
CUT
10
-33.4110
20
-66.5689
0
VERTEX
8
CUT
10
-33.3744
20
-66.6209
0
VERTEX
8
CUT
10
-33.3647
20
-66.6336
0
VERTEX
8
CUT
10
-33.3222
20
-66.6847
0
VERTEX
8
CUT
10
-33.3015
20
-66.7076
0
VERTEX
8
CUT
10
-33.2570
20
-66.7530
0
VERTEX
8
CUT
10
-33.2135
20
-66.7939
0
VERTEX
8
CUT
10
-33.1816
20
-66.8225
0
VERTEX
8
CUT
10
-33.1658
20
-66.8358
0
VERTEX
8
CUT
10
-33.1479
20
-66.8505
0
VERTEX
8
CUT
10
-33.1311
20
-66.8639
0
VERTEX
8
CUT
10
-33.1231
20
-66.8702
0
VERTEX
8
CUT
10
-33.0949
20
-66.8921
0
VERTEX
8
CUT
10
-33.0868
20
-66.8983
0
VERTEX
8
CUT
10
-33.0671
20
-66.9132
0
VERTEX
8
CUT
10
-33.0495
20
-66.9262
0
VERTEX
8
CUT
10
-33.0241
20
-66.9443
0
VERTEX
8
CUT
10
-33.0146
20
-66.9511
0
VERTEX
8
CUT
10
-33.0071
20
-66.9562
0
VERTEX
8
CUT
10
-32.9868
20
-66.9698
0
VERTEX
8
CUT
10
-32.9269
20
-67.0086
0
VERTEX
8
CUT
10
-32.8840
20
-67.0346
0
VERTEX
8
CUT
10
-32.8326
20
-67.0635
0
VERTEX
8
CUT
10
-32.7867
20
-67.0875
0
VERTEX
8
CUT
10
-32.7333
20
-67.1131
0
VERTEX
8
CUT
10
-32.6866
20
-67.1337
0
VERTEX
8
CUT
10
-32.6187
20
-67.1612
0
VERTEX
8
CUT
10
-32.5954
20
-67.1702
0
VERTEX
8
CUT
10
-32.5865
20
-67.1734
0
VERTEX
8
CUT
10
-32.5751
20
-67.1775
0
VERTEX
8
CUT
10
-32.5464
20
-67.1876
0
VERTEX
8
CUT
10
-32.5247
20
-67.1949
0
VERTEX
8
CUT
10
-32.5011
20
-67.2024
0
VERTEX
8
CUT
10
-32.4907
20
-67.2056
0
VERTEX
8
CUT
10
-32.4544
20
-67.2167
0
VERTEX
8
CUT
10
-32.4440
20
-67.2198
0
VERTEX
8
CUT
10
-32.4075
20
-67.2304
0
VERTEX
8
CUT
10
-32.3970
20
-67.2333
0
VERTEX
8
CUT
10
-32.3713
20
-67.2404
0
VERTEX
8
CUT
10
-32.3623
20
-67.2428
0
VERTEX
8
CUT
10
-32.3305
20
-67.2511
0
VERTEX
8
CUT
10
-32.3214
20
-67.2535
0
VERTEX
8
CUT
10
-32.2896
20
-67.2614
0
VERTEX
8
CUT
10
-32.2805
20
-67.2636
0
VERTEX
8
CUT
10
-32.2486
20
-67.2712
0
VERTEX
8
CUT
10
-32.2394
20
-67.2733
0
VERTEX
8
CUT
10
-32.1544
20
-67.2924
0
VERTEX
8
CUT
10
-32.1468
20
-67.2941
0
VERTEX
8
CUT
10
-32.1200
20
-67.2999
0
VERTEX
8
CUT
10
-32.1124
20
-67.3015
0
VERTEX
8
CUT
10
-32.0855
20
-67.3070
0
VERTEX
8
CUT
10
-32.0779
20
-67.3085
0
VERTEX
8
CUT
10
-32.0510
20
-67.3137
0
VERTEX
8
CUT
10
-32.0433
20
-67.3152
0
VERTEX
8
CUT
10
-31.8939
20
-67.3427
0
VERTEX
8
CUT
10
-31.8877
20
-67.3438
0
VERTEX
8
CUT
10
-31.8659
20
-67.3477
0
VERTEX
8
CUT
10
-31.8597
20
-67.3487
0
VERTEX
8
CUT
10
-31.8378
20
-67.3524
0
VERTEX
8
CUT
10
-31.8316
20
-67.3534
0
VERTEX
8
CUT
10
-31.8097
20
-67.3569
0
VERTEX
8
CUT
10
-31.8034
20
-67.3579
0
VERTEX
8
CUT
10
-31.5879
20
-67.3906
0
VERTEX
8
CUT
10
-31.5830
20
-67.3913
0
VERTEX
8
CUT
10
-31.5658
20
-67.3938
0
VERTEX
8
CUT
10
-31.5609
20
-67.3945
0
VERTEX
8
CUT
10
-31.5436
20
-67.3969
0
VERTEX
8
CUT
10
-31.5387
20
-67.3976
0
VERTEX
8
CUT
10
-31.5214
20
-67.3999
0
VERTEX
8
CUT
10
-31.5165
20
-67.4005
0
VERTEX
8
CUT
10
-31.2350
20
-67.4361
0
VERTEX
8
CUT
10
-31.2312
20
-67.4365
0
VERTEX
8
CUT
10
-31.2180
20
-67.4381
0
VERTEX
8
CUT
10
-31.2143
20
-67.4386
0
VERTEX
8
CUT
10
-31.2011
20
-67.4401
0
VERTEX
8
CUT
10
-31.1973
20
-67.4406
0
VERTEX
8
CUT
10
-31.1841
20
-67.4420
0
VERTEX
8
CUT
10
-31.1804
20
-67.4424
0
VERTEX
8
CUT
10
-30.8338
20
-67.4796
0
VERTEX
8
CUT
10
-30.8310
20
-67.4799
0
VERTEX
8
CUT
10
-30.8213
20
-67.4809
0
VERTEX
8
CUT
10
-30.8185
20
-67.4811
0
VERTEX
8
CUT
10
-30.8088
20
-67.4821
0
VERTEX
8
CUT
10
-30.8060
20
-67.4824
0
VERTEX
8
CUT
10
-30.7963
20
-67.4833
0
VERTEX
8
CUT
10
-30.7935
20
-67.4836
0
VERTEX
8
CUT
10
-30.3830
20
-67.5218
0
VERTEX
8
CUT
10
-30.3811
20
-67.5220
0
VERTEX
8
CUT
10
-30.3743
20
-67.5226
0
VERTEX
8
CUT
10
-30.3723
20
-67.5228
0
VERTEX
8
CUT
10
-30.3655
20
-67.5234
0
VERTEX
8
CUT
10
-30.3635
20
-67.5235
0
VERTEX
8
CUT
10
-30.3567
20
-67.5241
0
VERTEX
8
CUT
10
-30.3547
20
-67.5243
0
VERTEX
8
CUT
10
-29.8811
20
-67.5637
0
VERTEX
8
CUT
10
-29.8798
20
-67.5638
0
VERTEX
8
CUT
10
-29.8754
20
-67.5641
0
VERTEX
8
CUT
10
-29.8741
20
-67.5642
0
VERTEX
8
CUT
10
-29.8696
20
-67.5646
0
VERTEX
8
CUT
10
-29.8683
20
-67.5647
0
VERTEX
8
CUT
10
-29.8639
20
-67.5650
0
VERTEX
8
CUT
10
-29.8626
20
-67.5651
0
VERTEX
8
CUT
10
-29.5187
20
-67.5915
0
VERTEX
8
CUT
10
-29.5035
20
-67.5925
0
VERTEX
8
CUT
10
-29.4500
20
-67.5956
0
VERTEX
8
CUT
10
-29.4347
20
-67.5963
0
VERTEX
8
CUT
10
-29.3813
20
-67.5984
0
VERTEX
8
CUT
10
-29.3660
20
-67.5988
0
VERTEX
8
CUT
10
-29.3124
20
-67.5999
0
VERTEX
8
CUT
10
-29.2971
20
-67.6000
0
VERTEX
8
CUT
10
29.2971
20
-67.6000
0
SEQEND
0
POLYLINE
8
CUT
66
1
70
1
0
VERTEX
8
CUT
10
17.9869
20
-50.2996
0
VERTEX
8
CUT
10
17.4506
20
-50.2820
0
VERTEX
8
CUT
10
17.4245
20
-50.2803
0
VERTEX
8
CUT
10
16.8905
20
-50.2277
0
VERTEX
8
CUT
10
16.8646
20
-50.2243
0
VERTEX
8
CUT
10
16.3351
20
-50.1369
0
VERTEX
8
CUT
10
16.3095
20
-50.1318
0
VERTEX
8
CUT
10
15.7869
20
-50.0099
0
VERTEX
8
CUT
10
15.7616
20
-50.0032
0
VERTEX
8
CUT
10
15.2481
20
-49.8474
0
VERTEX
8
CUT
10
15.2234
20
-49.8390
0
VERTEX
8
CUT
10
14.7212
20
-49.6500
0
VERTEX
8
CUT
10
14.6970
20
-49.6400
0
VERTEX
8
CUT
10
14.2082
20
-49.4185
0
VERTEX
8
CUT
10
14.1848
20
-49.4069
0
VERTEX
8
CUT
10
13.7115
20
-49.1540
0
VERTEX
8
CUT
10
13.6889
20
-49.1409
0
VERTEX
8
CUT
10
13.2332
20
-48.8576
0
VERTEX
8
CUT
10
13.2115
20
-48.8430
0
VERTEX
8
CUT
10
12.7753
20
-48.5305
0
VERTEX
8
CUT
10
12.7545
20
-48.5145
0
VERTEX
8
CUT
10
12.3397
20
-48.1741
0
VERTEX
8
CUT
10
12.3201
20
-48.1569
0
VERTEX
8
CUT
10
11.9284
20
-47.7901
0
VERTEX
8
CUT
10
11.9099
20
-47.7716
0
VERTEX
8
CUT
10
11.5431
20
-47.3799
0
VERTEX
8
CUT
10
11.5259
20
-47.3603
0
VERTEX
8
CUT
10
11.1855
20
-46.9455
0
VERTEX
8
CUT
10
11.1695
20
-46.9247
0
VERTEX
8
CUT
10
10.8570
20
-46.4885
0
VERTEX
8
CUT
10
10.8424
20
-46.4668
0
VERTEX
8
CUT
10
10.5591
20
-46.0111
0
VERTEX
8
CUT
10
10.5460
20
-45.9885
0
VERTEX
8
CUT
10
10.2931
20
-45.5152
0
VERTEX
8
CUT
10
10.2815
20
-45.4918
0
VERTEX
8
CUT
10
10.0600
20
-45.0030
0
VERTEX
8
CUT
10
10.0500
20
-44.9788
0
VERTEX
8
CUT
10
9.8610
20
-44.4766
0
VERTEX
8
CUT
10
9.8526
20
-44.4519
0
VERTEX
8
CUT
10
9.6968
20
-43.9384
0
VERTEX
8
CUT
10
9.6901
20
-43.9131
0
VERTEX
8
CUT
10
9.5682
20
-43.3905
0
VERTEX
8
CUT
10
9.5631
20
-43.3649
0
VERTEX
8
CUT
10
9.4757
20
-42.8354
0
VERTEX
8
CUT
10
9.4723
20
-42.8095
0
VERTEX
8
CUT
10
9.4197
20
-42.2755
0
VERTEX
8
CUT
10
9.4180
20
-42.2494
0
VERTEX
8
CUT
10
9.4004
20
-41.7131
0
VERTEX
8
CUT
10
9.4004
20
-41.6869
0
VERTEX
8
CUT
10
9.4180
20
-41.1506
0
VERTEX
8
CUT
10
9.4197
20
-41.1245
0
VERTEX
8
CUT
10
9.4723
20
-40.5905
0
VERTEX
8
CUT
10
9.4757
20
-40.5646
0
VERTEX
8
CUT
10
9.5631
20
-40.0351
0
VERTEX
8
CUT
10
9.5682
20
-40.0095
0
VERTEX
8
CUT
10
9.6901
20
-39.4869
0
VERTEX
8
CUT
10
9.6968
20
-39.4616
0
VERTEX
8
CUT
10
9.8526
20
-38.9481
0
VERTEX
8
CUT
10
9.8610
20
-38.9234
0
VERTEX
8
CUT
10
10.0500
20
-38.4212
0
VERTEX
8
CUT
10
10.0600
20
-38.3970
0
VERTEX
8
CUT
10
10.2815
20
-37.9082
0
VERTEX
8
CUT
10
10.2931
20
-37.8848
0
VERTEX
8
CUT
10
10.5460
20
-37.4115
0
VERTEX
8
CUT
10
10.5591
20
-37.3889
0
VERTEX
8
CUT
10
10.8424
20
-36.9332
0
VERTEX
8
CUT
10
10.8570
20
-36.9115
0
VERTEX
8
CUT
10
11.1695
20
-36.4753
0
VERTEX
8
CUT
10
11.1855
20
-36.4545
0
VERTEX
8
CUT
10
11.5259
20
-36.0397
0
VERTEX
8
CUT
10
11.5431
20
-36.0201
0
VERTEX
8
CUT
10
11.9099
20
-35.6284
0
VERTEX
8
CUT
10
11.9284
20
-35.6099
0
VERTEX
8
CUT
10
12.3201
20
-35.2431
0
VERTEX
8
CUT
10
12.3397
20
-35.2259
0
VERTEX
8
CUT
10
12.7545
20
-34.8855
0
VERTEX
8
CUT
10
12.7753
20
-34.8695
0
VERTEX
8
CUT
10
13.2115
20
-34.5570
0
VERTEX
8
CUT
10
13.2332
20
-34.5424
0
VERTEX
8
CUT
10
13.6889
20
-34.2591
0
VERTEX
8
CUT
10
13.7115
20
-34.2460
0
VERTEX
8
CUT
10
14.1848
20
-33.9931
0
VERTEX
8
CUT
10
14.2082
20
-33.9815
0
VERTEX
8
CUT
10
14.6970
20
-33.7600
0
VERTEX
8
CUT
10
14.7212
20
-33.7500
0
VERTEX
8
CUT
10
15.2234
20
-33.5610
0
VERTEX
8
CUT
10
15.2481
20
-33.5526
0
VERTEX
8
CUT
10
15.7616
20
-33.3968
0
VERTEX
8
CUT
10
15.7869
20
-33.3901
0
VERTEX
8
CUT
10
16.3095
20
-33.2682
0
VERTEX
8
CUT
10
16.3351
20
-33.2631
0
VERTEX
8
CUT
10
16.8646
20
-33.1757
0
VERTEX
8
CUT
10
16.8905
20
-33.1723
0
VERTEX
8
CUT
10
17.4245
20
-33.1197
0
VERTEX
8
CUT
10
17.4506
20
-33.1180
0
VERTEX
8
CUT
10
17.9869
20
-33.1004
0
VERTEX
8
CUT
10
18.0131
20
-33.1004
0
VERTEX
8
CUT
10
18.5494
20
-33.1180
0
VERTEX
8
CUT
10
18.5755
20
-33.1197
0
VERTEX
8
CUT
10
19.1095
20
-33.1723
0
VERTEX
8
CUT
10
19.1354
20
-33.1757
0
VERTEX
8
CUT
10
19.6649
20
-33.2631
0
VERTEX
8
CUT
10
19.6905
20
-33.2682
0
VERTEX
8
CUT
10
20.2131
20
-33.3901
0
VERTEX
8
CUT
10
20.2384
20
-33.3968
0
VERTEX
8
CUT
10
20.7519
20
-33.5526
0
VERTEX
8
CUT
10
20.7766
20
-33.5610
0
VERTEX
8
CUT
10
21.2788
20
-33.7500
0
VERTEX
8
CUT
10
21.3030
20
-33.7600
0
VERTEX
8
CUT
10
21.7918
20
-33.9815
0
VERTEX
8
CUT
10
21.8152
20
-33.9931
0
VERTEX
8
CUT
10
22.2885
20
-34.2460
0
VERTEX
8
CUT
10
22.3111
20
-34.2591
0
VERTEX
8
CUT
10
22.7668
20
-34.5424
0
VERTEX
8
CUT
10
22.7885
20
-34.5570
0
VERTEX
8
CUT
10
23.2247
20
-34.8695
0
VERTEX
8
CUT
10
23.2455
20
-34.8855
0
VERTEX
8
CUT
10
23.6603
20
-35.2259
0
VERTEX
8
CUT
10
23.6799
20
-35.2431
0
VERTEX
8
CUT
10
24.0716
20
-35.6099
0
VERTEX
8
CUT
10
24.0901
20
-35.6284
0
VERTEX
8
CUT
10
24.4569
20
-36.0201
0
VERTEX
8
CUT
10
24.4741
20
-36.0397
0
VERTEX
8
CUT
10
24.8145
20
-36.4545
0
VERTEX
8
CUT
10
24.8305
20
-36.4753
0
VERTEX
8
CUT
10
25.1430
20
-36.9115
0
VERTEX
8
CUT
10
25.1576
20
-36.9332
0
VERTEX
8
CUT
10
25.4409
20
-37.3889
0
VERTEX
8
CUT
10
25.4540
20
-37.4115
0
VERTEX
8
CUT
10
25.7069
20
-37.8848
0
VERTEX
8
CUT
10
25.7185
20
-37.9082
0
VERTEX
8
CUT
10
25.9400
20
-38.3970
0
VERTEX
8
CUT
10
25.9500
20
-38.4212
0
VERTEX
8
CUT
10
26.1390
20
-38.9234
0
VERTEX
8
CUT
10
26.1474
20
-38.9481
0
VERTEX
8
CUT
10
26.3032
20
-39.4616
0
VERTEX
8
CUT
10
26.3099
20
-39.4869
0
VERTEX
8
CUT
10
26.4318
20
-40.0095
0
VERTEX
8
CUT
10
26.4369
20
-40.0351
0
VERTEX
8
CUT
10
26.5243
20
-40.5646
0
VERTEX
8
CUT
10
26.5277
20
-40.5905
0
VERTEX
8
CUT
10
26.5803
20
-41.1245
0
VERTEX
8
CUT
10
26.5820
20
-41.1506
0
VERTEX
8
CUT
10
26.5996
20
-41.6869
0
VERTEX
8
CUT
10
26.5996
20
-41.7131
0
VERTEX
8
CUT
10
26.5820
20
-42.2494
0
VERTEX
8
CUT
10
26.5803
20
-42.2755
0
VERTEX
8
CUT
10
26.5277
20
-42.8095
0
VERTEX
8
CUT
10
26.5243
20
-42.8354
0
VERTEX
8
CUT
10
26.4369
20
-43.3649
0
VERTEX
8
CUT
10
26.4318
20
-43.3905
0
VERTEX
8
CUT
10
26.3099
20
-43.9131
0
VERTEX
8
CUT
10
26.3032
20
-43.9384
0
VERTEX
8
CUT
10
26.1474
20
-44.4519
0
VERTEX
8
CUT
10
26.1390
20
-44.4766
0
VERTEX
8
CUT
10
25.9500
20
-44.9788
0
VERTEX
8
CUT
10
25.9400
20
-45.0030
0
VERTEX
8
CUT
10
25.7185
20
-45.4918
0
VERTEX
8
CUT
10
25.7069
20
-45.5152
0
VERTEX
8
CUT
10
25.4540
20
-45.9885
0
VERTEX
8
CUT
10
25.4409
20
-46.0111
0
VERTEX
8
CUT
10
25.1576
20
-46.4668
0
VERTEX
8
CUT
10
25.1430
20
-46.4885
0
VERTEX
8
CUT
10
24.8305
20
-46.9247
0
VERTEX
8
CUT
10
24.8145
20
-46.9455
0
VERTEX
8
CUT
10
24.4741
20
-47.3603
0
VERTEX
8
CUT
10
24.4569
20
-47.3799
0
VERTEX
8
CUT
10
24.0901
20
-47.7716
0
VERTEX
8
CUT
10
24.0716
20
-47.7901
0
VERTEX
8
CUT
10
23.6799
20
-48.1569
0
VERTEX
8
CUT
10
23.6603
20
-48.1741
0
VERTEX
8
CUT
10
23.2455
20
-48.5145
0
VERTEX
8
CUT
10
23.2247
20
-48.5305
0
VERTEX
8
CUT
10
22.7885
20
-48.8430
0
VERTEX
8
CUT
10
22.7668
20
-48.8576
0
VERTEX
8
CUT
10
22.3111
20
-49.1409
0
VERTEX
8
CUT
10
22.2885
20
-49.1540
0
VERTEX
8
CUT
10
21.8152
20
-49.4069
0
VERTEX
8
CUT
10
21.7918
20
-49.4185
0
VERTEX
8
CUT
10
21.3030
20
-49.6400
0
VERTEX
8
CUT
10
21.2788
20
-49.6500
0
VERTEX
8
CUT
10
20.7766
20
-49.8390
0
VERTEX
8
CUT
10
20.7519
20
-49.8474
0
VERTEX
8
CUT
10
20.2384
20
-50.0032
0
VERTEX
8
CUT
10
20.2131
20
-50.0099
0
VERTEX
8
CUT
10
19.6905
20
-50.1318
0
VERTEX
8
CUT
10
19.6649
20
-50.1369
0
VERTEX
8
CUT
10
19.1354
20
-50.2243
0
VERTEX
8
CUT
10
19.1095
20
-50.2277
0
VERTEX
8
CUT
10
18.5755
20
-50.2803
0
VERTEX
8
CUT
10
18.5494
20
-50.2820
0
VERTEX
8
CUT
10
18.0131
20
-50.2996
0
SEQEND
0
POLYLINE
8
CUT
66
1
70
1
0
VERTEX
8
CUT
10
-18.0131
20
-50.2996
0
VERTEX
8
CUT
10
-18.5494
20
-50.2820
0
VERTEX
8
CUT
10
-18.5755
20
-50.2803
0
VERTEX
8
CUT
10
-19.1095
20
-50.2277
0
VERTEX
8
CUT
10
-19.1354
20
-50.2243
0
VERTEX
8
CUT
10
-19.6649
20
-50.1369
0
VERTEX
8
CUT
10
-19.6905
20
-50.1318
0
VERTEX
8
CUT
10
-20.2131
20
-50.0099
0
VERTEX
8
CUT
10
-20.2384
20
-50.0032
0
VERTEX
8
CUT
10
-20.7519
20
-49.8474
0
VERTEX
8
CUT
10
-20.7766
20
-49.8390
0
VERTEX
8
CUT
10
-21.2788
20
-49.6500
0
VERTEX
8
CUT
10
-21.3030
20
-49.6400
0
VERTEX
8
CUT
10
-21.7918
20
-49.4185
0
VERTEX
8
CUT
10
-21.8152
20
-49.4069
0
VERTEX
8
CUT
10
-22.2885
20
-49.1540
0
VERTEX
8
CUT
10
-22.3111
20
-49.1409
0
VERTEX
8
CUT
10
-22.7668
20
-48.8576
0
VERTEX
8
CUT
10
-22.7885
20
-48.8430
0
VERTEX
8
CUT
10
-23.2247
20
-48.5305
0
VERTEX
8
CUT
10
-23.2455
20
-48.5145
0
VERTEX
8
CUT
10
-23.6603
20
-48.1741
0
VERTEX
8
CUT
10
-23.6799
20
-48.1569
0
VERTEX
8
CUT
10
-24.0716
20
-47.7901
0
VERTEX
8
CUT
10
-24.0901
20
-47.7716
0
VERTEX
8
CUT
10
-24.4569
20
-47.3799
0
VERTEX
8
CUT
10
-24.4741
20
-47.3603
0
VERTEX
8
CUT
10
-24.8145
20
-46.9455
0
VERTEX
8
CUT
10
-24.8305
20
-46.9247
0
VERTEX
8
CUT
10
-25.1430
20
-46.4885
0
VERTEX
8
CUT
10
-25.1576
20
-46.4668
0
VERTEX
8
CUT
10
-25.4409
20
-46.0111
0
VERTEX
8
CUT
10
-25.4540
20
-45.9885
0
VERTEX
8
CUT
10
-25.7069
20
-45.5152
0
VERTEX
8
CUT
10
-25.7185
20
-45.4918
0
VERTEX
8
CUT
10
-25.9400
20
-45.0030
0
VERTEX
8
CUT
10
-25.9500
20
-44.9788
0
VERTEX
8
CUT
10
-26.1390
20
-44.4766
0
VERTEX
8
CUT
10
-26.1474
20
-44.4519
0
VERTEX
8
CUT
10
-26.3032
20
-43.9384
0
VERTEX
8
CUT
10
-26.3099
20
-43.9131
0
VERTEX
8
CUT
10
-26.4318
20
-43.3905
0
VERTEX
8
CUT
10
-26.4369
20
-43.3649
0
VERTEX
8
CUT
10
-26.5243
20
-42.8354
0
VERTEX
8
CUT
10
-26.5277
20
-42.8095
0
VERTEX
8
CUT
10
-26.5803
20
-42.2755
0
VERTEX
8
CUT
10
-26.5820
20
-42.2494
0
VERTEX
8
CUT
10
-26.5996
20
-41.7131
0
VERTEX
8
CUT
10
-26.5996
20
-41.6869
0
VERTEX
8
CUT
10
-26.5820
20
-41.1506
0
VERTEX
8
CUT
10
-26.5803
20
-41.1245
0
VERTEX
8
CUT
10
-26.5277
20
-40.5905
0
VERTEX
8
CUT
10
-26.5243
20
-40.5646
0
VERTEX
8
CUT
10
-26.4369
20
-40.0351
0
VERTEX
8
CUT
10
-26.4318
20
-40.0095
0
VERTEX
8
CUT
10
-26.3099
20
-39.4869
0
VERTEX
8
CUT
10
-26.3032
20
-39.4616
0
VERTEX
8
CUT
10
-26.1474
20
-38.9481
0
VERTEX
8
CUT
10
-26.1390
20
-38.9234
0
VERTEX
8
CUT
10
-25.9500
20
-38.4212
0
VERTEX
8
CUT
10
-25.9400
20
-38.3970
0
VERTEX
8
CUT
10
-25.7185
20
-37.9082
0
VERTEX
8
CUT
10
-25.7069
20
-37.8848
0
VERTEX
8
CUT
10
-25.4540
20
-37.4115
0
VERTEX
8
CUT
10
-25.4409
20
-37.3889
0
VERTEX
8
CUT
10
-25.1576
20
-36.9332
0
VERTEX
8
CUT
10
-25.1430
20
-36.9115
0
VERTEX
8
CUT
10
-24.8305
20
-36.4753
0
VERTEX
8
CUT
10
-24.8145
20
-36.4545
0
VERTEX
8
CUT
10
-24.4741
20
-36.0397
0
VERTEX
8
CUT
10
-24.4569
20
-36.0201
0
VERTEX
8
CUT
10
-24.0901
20
-35.6284
0
VERTEX
8
CUT
10
-24.0716
20
-35.6099
0
VERTEX
8
CUT
10
-23.6799
20
-35.2431
0
VERTEX
8
CUT
10
-23.6603
20
-35.2259
0
VERTEX
8
CUT
10
-23.2455
20
-34.8855
0
VERTEX
8
CUT
10
-23.2247
20
-34.8695
0
VERTEX
8
CUT
10
-22.7885
20
-34.5570
0
VERTEX
8
CUT
10
-22.7668
20
-34.5424
0
VERTEX
8
CUT
10
-22.3111
20
-34.2591
0
VERTEX
8
CUT
10
-22.2885
20
-34.2460
0
VERTEX
8
CUT
10
-21.8152
20
-33.9931
0
VERTEX
8
CUT
10
-21.7918
20
-33.9815
0
VERTEX
8
CUT
10
-21.3030
20
-33.7600
0
VERTEX
8
CUT
10
-21.2788
20
-33.7500
0
VERTEX
8
CUT
10
-20.7766
20
-33.5610
0
VERTEX
8
CUT
10
-20.7519
20
-33.5526
0
VERTEX
8
CUT
10
-20.2384
20
-33.3968
0
VERTEX
8
CUT
10
-20.2131
20
-33.3901
0
VERTEX
8
CUT
10
-19.6905
20
-33.2682
0
VERTEX
8
CUT
10
-19.6649
20
-33.2631
0
VERTEX
8
CUT
10
-19.1354
20
-33.1757
0
VERTEX
8
CUT
10
-19.1095
20
-33.1723
0
VERTEX
8
CUT
10
-18.5755
20
-33.1197
0
VERTEX
8
CUT
10
-18.5494
20
-33.1180
0
VERTEX
8
CUT
10
-18.0131
20
-33.1004
0
VERTEX
8
CUT
10
-17.9869
20
-33.1004
0
VERTEX
8
CUT
10
-17.4506
20
-33.1180
0
VERTEX
8
CUT
10
-17.4245
20
-33.1197
0
VERTEX
8
CUT
10
-16.8905
20
-33.1723
0
VERTEX
8
CUT
10
-16.8646
20
-33.1757
0
VERTEX
8
CUT
10
-16.3351
20
-33.2631
0
VERTEX
8
CUT
10
-16.3095
20
-33.2682
0
VERTEX
8
CUT
10
-15.7869
20
-33.3901
0
VERTEX
8
CUT
10
-15.7616
20
-33.3968
0
VERTEX
8
CUT
10
-15.2481
20
-33.5526
0
VERTEX
8
CUT
10
-15.2234
20
-33.5610
0
VERTEX
8
CUT
10
-14.7212
20
-33.7500
0
VERTEX
8
CUT
10
-14.6970
20
-33.7600
0
VERTEX
8
CUT
10
-14.2082
20
-33.9815
0
VERTEX
8
CUT
10
-14.1848
20
-33.9931
0
VERTEX
8
CUT
10
-13.7115
20
-34.2460
0
VERTEX
8
CUT
10
-13.6889
20
-34.2591
0
VERTEX
8
CUT
10
-13.2332
20
-34.5424
0
VERTEX
8
CUT
10
-13.2115
20
-34.5570
0
VERTEX
8
CUT
10
-12.7753
20
-34.8695
0
VERTEX
8
CUT
10
-12.7545
20
-34.8855
0
VERTEX
8
CUT
10
-12.3397
20
-35.2259
0
VERTEX
8
CUT
10
-12.3201
20
-35.2431
0
VERTEX
8
CUT
10
-11.9284
20
-35.6099
0
VERTEX
8
CUT
10
-11.9099
20
-35.6284
0
VERTEX
8
CUT
10
-11.5431
20
-36.0201
0
VERTEX
8
CUT
10
-11.5259
20
-36.0397
0
VERTEX
8
CUT
10
-11.1855
20
-36.4545
0
VERTEX
8
CUT
10
-11.1695
20
-36.4753
0
VERTEX
8
CUT
10
-10.8570
20
-36.9115
0
VERTEX
8
CUT
10
-10.8424
20
-36.9332
0
VERTEX
8
CUT
10
-10.5591
20
-37.3889
0
VERTEX
8
CUT
10
-10.5460
20
-37.4115
0
VERTEX
8
CUT
10
-10.2931
20
-37.8848
0
VERTEX
8
CUT
10
-10.2815
20
-37.9082
0
VERTEX
8
CUT
10
-10.0600
20
-38.3970
0
VERTEX
8
CUT
10
-10.0500
20
-38.4212
0
VERTEX
8
CUT
10
-9.8610
20
-38.9234
0
VERTEX
8
CUT
10
-9.8526
20
-38.9481
0
VERTEX
8
CUT
10
-9.6968
20
-39.4616
0
VERTEX
8
CUT
10
-9.6901
20
-39.4869
0
VERTEX
8
CUT
10
-9.5682
20
-40.0095
0
VERTEX
8
CUT
10
-9.5631
20
-40.0351
0
VERTEX
8
CUT
10
-9.4757
20
-40.5646
0
VERTEX
8
CUT
10
-9.4723
20
-40.5905
0
VERTEX
8
CUT
10
-9.4197
20
-41.1245
0
VERTEX
8
CUT
10
-9.4180
20
-41.1506
0
VERTEX
8
CUT
10
-9.4004
20
-41.6869
0
VERTEX
8
CUT
10
-9.4004
20
-41.7131
0
VERTEX
8
CUT
10
-9.4180
20
-42.2494
0
VERTEX
8
CUT
10
-9.4197
20
-42.2755
0
VERTEX
8
CUT
10
-9.4723
20
-42.8095
0
VERTEX
8
CUT
10
-9.4757
20
-42.8354
0
VERTEX
8
CUT
10
-9.5631
20
-43.3649
0
VERTEX
8
CUT
10
-9.5682
20
-43.3905
0
VERTEX
8
CUT
10
-9.6901
20
-43.9131
0
VERTEX
8
CUT
10
-9.6968
20
-43.9384
0
VERTEX
8
CUT
10
-9.8526
20
-44.4519
0
VERTEX
8
CUT
10
-9.8610
20
-44.4766
0
VERTEX
8
CUT
10
-10.0500
20
-44.9788
0
VERTEX
8
CUT
10
-10.0600
20
-45.0030
0
VERTEX
8
CUT
10
-10.2815
20
-45.4918
0
VERTEX
8
CUT
10
-10.2931
20
-45.5152
0
VERTEX
8
CUT
10
-10.5460
20
-45.9885
0
VERTEX
8
CUT
10
-10.5591
20
-46.0111
0
VERTEX
8
CUT
10
-10.8424
20
-46.4668
0
VERTEX
8
CUT
10
-10.8570
20
-46.4885
0
VERTEX
8
CUT
10
-11.1695
20
-46.9247
0
VERTEX
8
CUT
10
-11.1855
20
-46.9455
0
VERTEX
8
CUT
10
-11.5259
20
-47.3603
0
VERTEX
8
CUT
10
-11.5431
20
-47.3799
0
VERTEX
8
CUT
10
-11.9099
20
-47.7716
0
VERTEX
8
CUT
10
-11.9284
20
-47.7901
0
VERTEX
8
CUT
10
-12.3201
20
-48.1569
0
VERTEX
8
CUT
10
-12.3397
20
-48.1741
0
VERTEX
8
CUT
10
-12.7545
20
-48.5145
0
VERTEX
8
CUT
10
-12.7753
20
-48.5305
0
VERTEX
8
CUT
10
-13.2115
20
-48.8430
0
VERTEX
8
CUT
10
-13.2332
20
-48.8576
0
VERTEX
8
CUT
10
-13.6889
20
-49.1409
0
VERTEX
8
CUT
10
-13.7115
20
-49.1540
0
VERTEX
8
CUT
10
-14.1848
20
-49.4069
0
VERTEX
8
CUT
10
-14.2082
20
-49.4185
0
VERTEX
8
CUT
10
-14.6970
20
-49.6400
0
VERTEX
8
CUT
10
-14.7212
20
-49.6500
0
VERTEX
8
CUT
10
-15.2234
20
-49.8390
0
VERTEX
8
CUT
10
-15.2481
20
-49.8474
0
VERTEX
8
CUT
10
-15.7616
20
-50.0032
0
VERTEX
8
CUT
10
-15.7869
20
-50.0099
0
VERTEX
8
CUT
10
-16.3095
20
-50.1318
0
VERTEX
8
CUT
10
-16.3351
20
-50.1369
0
VERTEX
8
CUT
10
-16.8646
20
-50.2243
0
VERTEX
8
CUT
10
-16.8905
20
-50.2277
0
VERTEX
8
CUT
10
-17.4245
20
-50.2803
0
VERTEX
8
CUT
10
-17.4506
20
-50.2820
0
VERTEX
8
CUT
10
-17.9869
20
-50.2996
0
SEQEND
0
POLYLINE
8
CUT
66
1
70
1
0
VERTEX
8
CUT
10
-18.9935
20
-64.2000
0
VERTEX
8
CUT
10
-19.0065
20
-64.1998
0
VERTEX
8
CUT
10
-19.2878
20
-64.1906
0
VERTEX
8
CUT
10
-19.3139
20
-64.1889
0
VERTEX
8
CUT
10
-19.5874
20
-64.1619
0
VERTEX
8
CUT
10
-19.6133
20
-64.1585
0
VERTEX
8
CUT
10
-19.8845
20
-64.1137
0
VERTEX
8
CUT
10
-19.9102
20
-64.1086
0
VERTEX
8
CUT
10
-20.1778
20
-64.0462
0
VERTEX
8
CUT
10
-20.2031
20
-64.0395
0
VERTEX
8
CUT
10
-20.4661
20
-63.9597
0
VERTEX
8
CUT
10
-20.4909
20
-63.9513
0
VERTEX
8
CUT
10
-20.7481
20
-63.8545
0
VERTEX
8
CUT
10
-20.7723
20
-63.8444
0
VERTEX
8
CUT
10
-21.0226
20
-63.7310
0
VERTEX
8
CUT
10
-21.0461
20
-63.7194
0
VERTEX
8
CUT
10
-21.2885
20
-63.5899
0
VERTEX
8
CUT
10
-21.3111
20
-63.5768
0
VERTEX
8
CUT
10
-21.5445
20
-63.4317
0
VERTEX
8
CUT
10
-21.5663
20
-63.4171
0
VERTEX
8
CUT
10
-21.7897
20
-63.2571
0
VERTEX
8
CUT
10
-21.8104
20
-63.2411
0
VERTEX
8
CUT
10
-22.0229
20
-63.0668
0
VERTEX
8
CUT
10
-22.0425
20
-63.0495
0
VERTEX
8
CUT
10
-22.2431
20
-62.8616
0
VERTEX
8
CUT
10
-22.2616
20
-62.8431
0
VERTEX
8
CUT
10
-22.4495
20
-62.6425
0
VERTEX
8
CUT
10
-22.4668
20
-62.6229
0
VERTEX
8
CUT
10
-22.6411
20
-62.4104
0
VERTEX
8
CUT
10
-22.6571
20
-62.3897
0
VERTEX
8
CUT
10
-22.8171
20
-62.1663
0
VERTEX
8
CUT
10
-22.8317
20
-62.1445
0
VERTEX
8
CUT
10
-22.9768
20
-61.9111
0
VERTEX
8
CUT
10
-22.9899
20
-61.8885
0
VERTEX
8
CUT
10
-23.1194
20
-61.6461
0
VERTEX
8
CUT
10
-23.1310
20
-61.6226
0
VERTEX
8
CUT
10
-23.2444
20
-61.3723
0
VERTEX
8
CUT
10
-23.2545
20
-61.3481
0
VERTEX
8
CUT
10
-23.3513
20
-61.0909
0
VERTEX
8
CUT
10
-23.3597
20
-61.0661
0
VERTEX
8
CUT
10
-23.4395
20
-60.8031
0
VERTEX
8
CUT
10
-23.4462
20
-60.7778
0
VERTEX
8
CUT
10
-23.5086
20
-60.5102
0
VERTEX
8
CUT
10
-23.5137
20
-60.4845
0
VERTEX
8
CUT
10
-23.5585
20
-60.2133
0
VERTEX
8
CUT
10
-23.5619
20
-60.1874
0
VERTEX
8
CUT
10
-23.5889
20
-59.9139
0
VERTEX
8
CUT
10
-23.5906
20
-59.8878
0
VERTEX
8
CUT
10
-23.5998
20
-59.6065
0
VERTEX
8
CUT
10
-23.6000
20
-59.5935
0
VERTEX
8
CUT
10
-23.6000
20
-58.4065
0
VERTEX
8
CUT
10
-23.5998
20
-58.3935
0
VERTEX
8
CUT
10
-23.5906
20
-58.1122
0
VERTEX
8
CUT
10
-23.5889
20
-58.0861
0
VERTEX
8
CUT
10
-23.5619
20
-57.8126
0
VERTEX
8
CUT
10
-23.5585
20
-57.7867
0
VERTEX
8
CUT
10
-23.5137
20
-57.5155
0
VERTEX
8
CUT
10
-23.5086
20
-57.4898
0
VERTEX
8
CUT
10
-23.4462
20
-57.2222
0
VERTEX
8
CUT
10
-23.4395
20
-57.1969
0
VERTEX
8
CUT
10
-23.3597
20
-56.9339
0
VERTEX
8
CUT
10
-23.3513
20
-56.9091
0
VERTEX
8
CUT
10
-23.2545
20
-56.6519
0
VERTEX
8
CUT
10
-23.2444
20
-56.6277
0
VERTEX
8
CUT
10
-23.1310
20
-56.3774
0
VERTEX
8
CUT
10
-23.1194
20
-56.3539
0
VERTEX
8
CUT
10
-22.9899
20
-56.1115
0
VERTEX
8
CUT
10
-22.9768
20
-56.0889
0
VERTEX
8
CUT
10
-22.8317
20
-55.8555
0
VERTEX
8
CUT
10
-22.8171
20
-55.8337
0
VERTEX
8
CUT
10
-22.6571
20
-55.6103
0
VERTEX
8
CUT
10
-22.6411
20
-55.5896
0
VERTEX
8
CUT
10
-22.4668
20
-55.3771
0
VERTEX
8
CUT
10
-22.4495
20
-55.3575
0
VERTEX
8
CUT
10
-22.2616
20
-55.1569
0
VERTEX
8
CUT
10
-22.2431
20
-55.1384
0
VERTEX
8
CUT
10
-22.0425
20
-54.9505
0
VERTEX
8
CUT
10
-22.0229
20
-54.9332
0
VERTEX
8
CUT
10
-21.8104
20
-54.7589
0
VERTEX
8
CUT
10
-21.7897
20
-54.7429
0
VERTEX
8
CUT
10
-21.5663
20
-54.5829
0
VERTEX
8
CUT
10
-21.5445
20
-54.5683
0
VERTEX
8
CUT
10
-21.3111
20
-54.4232
0
VERTEX
8
CUT
10
-21.2885
20
-54.4101
0
VERTEX
8
CUT
10
-21.0461
20
-54.2806
0
VERTEX
8
CUT
10
-21.0226
20
-54.2690
0
VERTEX
8
CUT
10
-20.7723
20
-54.1556
0
VERTEX
8
CUT
10
-20.7481
20
-54.1455
0
VERTEX
8
CUT
10
-20.4909
20
-54.0487
0
VERTEX
8
CUT
10
-20.4661
20
-54.0403
0
VERTEX
8
CUT
10
-20.2031
20
-53.9605
0
VERTEX
8
CUT
10
-20.1778
20
-53.9538
0
VERTEX
8
CUT
10
-19.9102
20
-53.8914
0
VERTEX
8
CUT
10
-19.8845
20
-53.8863
0
VERTEX
8
CUT
10
-19.6133
20
-53.8415
0
VERTEX
8
CUT
10
-19.5874
20
-53.8381
0
VERTEX
8
CUT
10
-19.3139
20
-53.8111
0
VERTEX
8
CUT
10
-19.2878
20
-53.8094
0
VERTEX
8
CUT
10
-19.0065
20
-53.8002
0
VERTEX
8
CUT
10
-18.9935
20
-53.8000
0
VERTEX
8
CUT
10
18.9935
20
-53.8000
0
VERTEX
8
CUT
10
19.0065
20
-53.8002
0
VERTEX
8
CUT
10
19.2878
20
-53.8094
0
VERTEX
8
CUT
10
19.3139
20
-53.8111
0
VERTEX
8
CUT
10
19.5874
20
-53.8381
0
VERTEX
8
CUT
10
19.6133
20
-53.8415
0
VERTEX
8
CUT
10
19.8845
20
-53.8863
0
VERTEX
8
CUT
10
19.9102
20
-53.8914
0
VERTEX
8
CUT
10
20.1778
20
-53.9538
0
VERTEX
8
CUT
10
20.2031
20
-53.9605
0
VERTEX
8
CUT
10
20.4661
20
-54.0403
0
VERTEX
8
CUT
10
20.4909
20
-54.0487
0
VERTEX
8
CUT
10
20.7481
20
-54.1455
0
VERTEX
8
CUT
10
20.7723
20
-54.1556
0
VERTEX
8
CUT
10
21.0226
20
-54.2690
0
VERTEX
8
CUT
10
21.0461
20
-54.2806
0
VERTEX
8
CUT
10
21.2885
20
-54.4101
0
VERTEX
8
CUT
10
21.3111
20
-54.4232
0
VERTEX
8
CUT
10
21.5445
20
-54.5683
0
VERTEX
8
CUT
10
21.5663
20
-54.5829
0
VERTEX
8
CUT
10
21.7897
20
-54.7429
0
VERTEX
8
CUT
10
21.8104
20
-54.7589
0
VERTEX
8
CUT
10
22.0229
20
-54.9332
0
VERTEX
8
CUT
10
22.0425
20
-54.9505
0
VERTEX
8
CUT
10
22.2431
20
-55.1384
0
VERTEX
8
CUT
10
22.2616
20
-55.1569
0
VERTEX
8
CUT
10
22.4495
20
-55.3575
0
VERTEX
8
CUT
10
22.4668
20
-55.3771
0
VERTEX
8
CUT
10
22.6411
20
-55.5896
0
VERTEX
8
CUT
10
22.6571
20
-55.6103
0
VERTEX
8
CUT
10
22.8171
20
-55.8337
0
VERTEX
8
CUT
10
22.8317
20
-55.8555
0
VERTEX
8
CUT
10
22.9768
20
-56.0889
0
VERTEX
8
CUT
10
22.9899
20
-56.1115
0
VERTEX
8
CUT
10
23.1194
20
-56.3539
0
VERTEX
8
CUT
10
23.1310
20
-56.3774
0
VERTEX
8
CUT
10
23.2444
20
-56.6277
0
VERTEX
8
CUT
10
23.2545
20
-56.6519
0
VERTEX
8
CUT
10
23.3513
20
-56.9091
0
VERTEX
8
CUT
10
23.3597
20
-56.9339
0
VERTEX
8
CUT
10
23.4395
20
-57.1969
0
VERTEX
8
CUT
10
23.4462
20
-57.2222
0
VERTEX
8
CUT
10
23.5086
20
-57.4898
0
VERTEX
8
CUT
10
23.5137
20
-57.5155
0
VERTEX
8
CUT
10
23.5585
20
-57.7867
0
VERTEX
8
CUT
10
23.5619
20
-57.8126
0
VERTEX
8
CUT
10
23.5889
20
-58.0861
0
VERTEX
8
CUT
10
23.5906
20
-58.1122
0
VERTEX
8
CUT
10
23.5998
20
-58.3935
0
VERTEX
8
CUT
10
23.6000
20
-58.4065
0
VERTEX
8
CUT
10
23.6000
20
-59.5935
0
VERTEX
8
CUT
10
23.5998
20
-59.6065
0
VERTEX
8
CUT
10
23.5906
20
-59.8878
0
VERTEX
8
CUT
10
23.5889
20
-59.9139
0
VERTEX
8
CUT
10
23.5619
20
-60.1874
0
VERTEX
8
CUT
10
23.5585
20
-60.2133
0
VERTEX
8
CUT
10
23.5137
20
-60.4845
0
VERTEX
8
CUT
10
23.5086
20
-60.5102
0
VERTEX
8
CUT
10
23.4462
20
-60.7778
0
VERTEX
8
CUT
10
23.4395
20
-60.8031
0
VERTEX
8
CUT
10
23.3597
20
-61.0661
0
VERTEX
8
CUT
10
23.3513
20
-61.0909
0
VERTEX
8
CUT
10
23.2545
20
-61.3481
0
VERTEX
8
CUT
10
23.2444
20
-61.3723
0
VERTEX
8
CUT
10
23.1310
20
-61.6226
0
VERTEX
8
CUT
10
23.1194
20
-61.6461
0
VERTEX
8
CUT
10
22.9899
20
-61.8885
0
VERTEX
8
CUT
10
22.9768
20
-61.9111
0
VERTEX
8
CUT
10
22.8317
20
-62.1445
0
VERTEX
8
CUT
10
22.8171
20
-62.1663
0
VERTEX
8
CUT
10
22.6571
20
-62.3897
0
VERTEX
8
CUT
10
22.6411
20
-62.4104
0
VERTEX
8
CUT
10
22.4668
20
-62.6229
0
VERTEX
8
CUT
10
22.4495
20
-62.6425
0
VERTEX
8
CUT
10
22.2616
20
-62.8431
0
VERTEX
8
CUT
10
22.2431
20
-62.8616
0
VERTEX
8
CUT
10
22.0425
20
-63.0495
0
VERTEX
8
CUT
10
22.0229
20
-63.0668
0
VERTEX
8
CUT
10
21.8104
20
-63.2411
0
VERTEX
8
CUT
10
21.7897
20
-63.2571
0
VERTEX
8
CUT
10
21.5663
20
-63.4171
0
VERTEX
8
CUT
10
21.5445
20
-63.4317
0
VERTEX
8
CUT
10
21.3111
20
-63.5768
0
VERTEX
8
CUT
10
21.2885
20
-63.5899
0
VERTEX
8
CUT
10
21.0461
20
-63.7194
0
VERTEX
8
CUT
10
21.0226
20
-63.7310
0
VERTEX
8
CUT
10
20.7723
20
-63.8444
0
VERTEX
8
CUT
10
20.7481
20
-63.8545
0
VERTEX
8
CUT
10
20.4909
20
-63.9513
0
VERTEX
8
CUT
10
20.4661
20
-63.9597
0
VERTEX
8
CUT
10
20.2031
20
-64.0395
0
VERTEX
8
CUT
10
20.1778
20
-64.0462
0
VERTEX
8
CUT
10
19.9102
20
-64.1086
0
VERTEX
8
CUT
10
19.8845
20
-64.1137
0
VERTEX
8
CUT
10
19.6133
20
-64.1585
0
VERTEX
8
CUT
10
19.5874
20
-64.1619
0
VERTEX
8
CUT
10
19.3139
20
-64.1889
0
VERTEX
8
CUT
10
19.2878
20
-64.1906
0
VERTEX
8
CUT
10
19.0065
20
-64.1998
0
VERTEX
8
CUT
10
18.9935
20
-64.2000
0
SEQEND
0
ENDSEC
0
EOF
