0
SECTION
2
HEADER
9
$ACADVER
1
AC1015
9
$INSUNITS
70
4
0
ENDSEC
0
SECTION
2
ENTITIES
0
LWPOLYLINE
100
AcDbEntity
8
CUTLINE
100
AcDbPolyline
90
168
70
1
10
-51.67300
20
-132.33553
10
-51.46662
20
-132.68256
10
-51.17270
20
-133.01227
10
-50.79615
20
-133.32201
10
-50.33789
20
-133.60866
10
-49.85769
20
-133.84407
10
-49.23756
20
-134.09003
10
-48.54908
20
-134.30718
10
-47.79551
20
-134.49674
10
-46.98260
20
-134.65898
10
-45.18222
20
-134.90599
10
-43.18410
20
-135.05156
10
-41.01631
20
-135.09977
10
-39.78426
20
-135.08455
10
-37.26399
20
-134.97307
10
-33.12583
20
-134.63000
10
-30.19328
20
-134.30943
10
-27.15943
20
-133.93622
10
-16.16445
20
-132.46946
10
-11.46217
20
-131.89290
10
-8.41887
20
-131.57200
10
-5.50949
20
-131.32392
10
-2.69703
20
-131.16004
10
-1.34560
20
-131.11601
10
0.03877
20
-131.10045
10
2.69698
20
-131.16004
10
5.46908
20
-131.32092
10
8.44889
20
-131.57490
10
11.46503
20
-131.89322
10
14.57773
20
-132.26672
10
27.14687
20
-133.93457
10
31.64995
20
-134.47473
10
35.92090
20
-134.87968
10
38.53594
20
-135.04111
10
39.78225
20
-135.08451
10
42.08544
20
-135.08839
10
44.16479
20
-134.99426
10
46.05535
20
-134.80274
10
47.72765
20
-134.51184
10
48.46750
20
-134.33002
10
49.14170
20
-134.12344
10
49.74401
20
-133.89373
10
50.30462
20
-133.62581
10
50.79699
20
-133.32141
10
51.12874
20
-133.05127
10
51.49162
20
-132.64323
10
51.67542
20
-132.33158
10
51.79273
20
-131.98326
10
51.70256
20
-131.43907
10
51.59080
20
-130.91877
10
51.32275
20
-129.95244
10
50.35440
20
-127.28423
10
49.95235
20
-125.95549
10
49.81031
20
-125.30620
10
49.67011
20
-124.34950
10
49.60164
20
-123.06289
10
49.61699
20
-122.33506
10
49.69809
20
-121.35776
10
49.80028
20
-120.66845
10
49.91556
20
-120.25505
10
50.08560
20
-119.85962
10
50.30716
20
-119.49054
10
50.58825
20
-119.14105
10
50.94125
20
-118.77664
10
51.17948
20
-118.42544
10
51.35852
20
-117.98543
10
51.44064
20
-117.48860
10
51.52959
20
-115.93775
10
51.66095
20
-111.98148
10
51.72991
20
-107.66397
10
51.74948
20
-103.11824
10
51.69846
20
-102.01469
10
51.77832
20
-98.82822
10
51.79976
20
-96.04879
10
51.73895
20
-94.97573
10
51.58783
20
-94.08395
10
51.34700
20
-93.23571
10
50.99268
20
-92.35481
10
50.53006
20
-91.49392
10
50.02697
20
-90.73704
10
49.52735
20
-90.09980
10
48.82161
20
-89.32460
10
48.13324
20
-88.66519
10
46.62146
20
-87.41846
10
45.53500
20
-86.19429
10
43.49036
20
-84.26680
10
41.26962
20
-82.43659
10
39.18675
20
-80.78740
10
37.28035
20
-79.16230
10
35.48223
20
-77.29945
10
34.24293
20
-75.49926
10
34.00084
20
-75.07429
10
33.26988
20
-73.18698
10
33.10983
20
-72.61284
10
32.80200
20
-69.82951
10
32.80040
20
-5.97315
10
32.76851
20
-5.20493
10
32.66651
20
-4.37909
10
32.49910
20
-3.66181
10
32.27190
20
-2.93211
10
32.20769
20
-2.47778
10
32.18645
20
-1.98920
10
32.11657
20
-1.63797
10
31.96572
20
-1.26236
10
31.80241
20
-0.99973
10
31.56709
20
-0.73135
10
31.25119
20
-0.48347
10
30.85119
20
-0.28616
10
30.48480
20
-0.20000
10
-30.48480
20
-0.20000
10
-30.85119
20
-0.28616
10
-31.24921
20
-0.48250
10
-31.63069
20
-0.79551
10
-31.87858
20
-1.11143
10
-32.02439
20
-1.38404
10
-32.13806
20
-1.71901
10
-32.27122
20
-2.92896
10
-32.49927
20
-3.66233
10
-32.65278
20
-4.30417
10
-32.75643
20
-5.06380
10
-32.80170
20
-6.03765
10
-32.80200
20
-69.82950
10
-33.10983
20
-72.61284
10
-33.26988
20
-73.18698
10
-34.00084
20
-75.07429
10
-34.24293
20
-75.49926
10
-35.48223
20
-77.29945
10
-37.28036
20
-79.16231
10
-39.18686
20
-80.78741
10
-41.28590
20
-82.44978
10
-43.49035
20
-84.26680
10
-45.53500
20
-86.19429
10
-46.62146
20
-87.41846
10
-48.13324
20
-88.66519
10
-48.82161
20
-89.32460
10
-49.52735
20
-90.09980
10
-50.02697
20
-90.73704
10
-50.53006
20
-91.49392
10
-50.99268
20
-92.35481
10
-51.34700
20
-93.23571
10
-51.58783
20
-94.08395
10
-51.73895
20
-94.97573
10
-51.79976
20
-96.04890
10
-51.77862
20
-98.80583
10
-51.69836
20
-102.01490
10
-51.74948
20
-103.11835
10
-51.72981
20
-107.67737
10
-51.66135
20
-111.96069
10
-51.52959
20
-115.93776
10
-51.44064
20
-117.48860
10
-51.35852
20
-117.98543
10
-51.17948
20
-118.42544
10
-50.94125
20
-118.77664
10
-50.58825
20
-119.14105
10
-50.30716
20
-119.49054
10
-50.08560
20
-119.85962
10
-49.91556
20
-120.25505
10
-49.80028
20
-120.66845
10
-49.69809
20
-121.35776
10
-49.61699
20
-122.33506
10
-49.60164
20
-123.06289
10
-49.67011
20
-124.34950
10
-49.81031
20
-125.30620
10
-49.95235
20
-125.95549
10
-50.35435
20
-127.28410
10
-51.33650
20
-129.99629
10
-51.60426
20
-130.97669
10
-51.78609
20
-131.93895
0
LWPOLYLINE
100
AcDbEntity
8
CUTLINE
100
AcDbPolyline
90
256
70
1
10
49.94723
20
-101.77422
10
49.95000
20
-102.00000
10
49.94723
20
-102.22578
10
49.93892
20
-102.45142
10
49.92507
20
-102.67679
10
49.90570
20
-102.90176
10
49.88081
20
-103.12618
10
49.85042
20
-103.34992
10
49.81455
20
-103.57285
10
49.77322
20
-103.79483
10
49.72646
20
-104.01573
10
49.67429
20
-104.23542
10
49.61674
20
-104.45376
10
49.55385
20
-104.67062
10
49.48566
20
-104.88587
10
49.41221
20
-105.09939
10
49.33353
20
-105.31103
10
49.24969
20
-105.52069
10
49.16073
20
-105.72822
10
49.06670
20
-105.93351
10
48.96766
20
-106.13642
10
48.86368
20
-106.33685
10
48.75480
20
-106.53466
10
48.64110
20
-106.72975
10
48.52265
20
-106.92198
10
48.39952
20
-107.11125
10
48.27178
20
-107.29744
10
48.13951
20
-107.48043
10
48.00279
20
-107.66013
10
47.86170
20
-107.83642
10
47.71632
20
-108.00919
10
47.56675
20
-108.17834
10
47.41307
20
-108.34377
10
47.25538
20
-108.50538
10
47.09377
20
-108.66307
10
46.92834
20
-108.81675
10
46.75919
20
-108.96632
10
46.58642
20
-109.11170
10
46.41013
20
-109.25279
10
46.23043
20
-109.38951
10
46.04744
20
-109.52178
10
45.86125
20
-109.64952
10
45.67198
20
-109.77265
10
45.47975
20
-109.89110
10
45.28466
20
-110.00480
10
45.08685
20
-110.11368
10
44.88642
20
-110.21766
10
44.68351
20
-110.31670
10
44.47822
20
-110.41073
10
44.27069
20
-110.49969
10
44.06103
20
-110.58353
10
43.84939
20
-110.66221
10
43.63587
20
-110.73566
10
43.42062
20
-110.80385
10
43.20376
20
-110.86674
10
42.98542
20
-110.92429
10
42.76573
20
-110.97646
10
42.54483
20
-111.02322
10
42.32285
20
-111.06455
10
42.09992
20
-111.10042
10
41.87618
20
-111.13081
10
41.65176
20
-111.15570
10
41.42679
20
-111.17507
10
41.20142
20
-111.18892
10
40.97578
20
-111.19723
10
40.75000
20
-111.20000
10
40.52422
20
-111.19723
10
40.29858
20
-111.18892
10
40.07321
20
-111.17507
10
39.84824
20
-111.15570
10
39.62382
20
-111.13081
10
39.40008
20
-111.10042
10
39.17715
20
-111.06455
10
38.95517
20
-111.02322
10
38.73427
20
-110.97646
10
38.51458
20
-110.92429
10
38.29624
20
-110.86674
10
38.07938
20
-110.80385
10
37.86413
20
-110.73566
10
37.65061
20
-110.66221
10
37.43897
20
-110.58353
10
37.22931
20
-110.49969
10
37.02178
20
-110.41073
10
36.81649
20
-110.31670
10
36.61358
20
-110.21766
10
36.41315
20
-110.11368
10
36.21534
20
-110.00480
10
36.02025
20
-109.89110
10
35.82802
20
-109.77265
10
35.63875
20
-109.64952
10
35.45256
20
-109.52178
10
35.26957
20
-109.38951
10
35.08987
20
-109.25279
10
34.91358
20
-109.11170
10
34.74081
20
-108.96632
10
34.57166
20
-108.81675
10
34.40623
20
-108.66307
10
34.24462
20
-108.50538
10
34.08693
20
-108.34377
10
33.93325
20
-108.17834
10
33.78368
20
-108.00919
10
33.63830
20
-107.83642
10
33.49721
20
-107.66013
10
33.36049
20
-107.48043
10
33.22822
20
-107.29744
10
33.10048
20
-107.11125
10
32.97735
20
-106.92198
10
32.85890
20
-106.72975
10
32.74520
20
-106.53466
10
32.63632
20
-106.33685
10
32.53234
20
-106.13642
10
32.43330
20
-105.93351
10
32.33927
20
-105.72822
10
32.25031
20
-105.52069
10
32.16647
20
-105.31103
10
32.08779
20
-105.09939
10
32.01434
20
-104.88587
10
31.94615
20
-104.67062
10
31.88326
20
-104.45376
10
31.82571
20
-104.23542
10
31.77354
20
-104.01573
10
31.72678
20
-103.79483
10
31.68545
20
-103.57285
10
31.64958
20
-103.34992
10
31.61919
20
-103.12618
10
31.59430
20
-102.90176
10
31.57493
20
-102.67679
10
31.56108
20
-102.45142
10
31.55277
20
-102.22578
10
31.55000
20
-102.00000
10
31.55277
20
-101.77422
10
31.56108
20
-101.54858
10
31.57493
20
-101.32321
10
31.59430
20
-101.09824
10
31.61919
20
-100.87382
10
31.64958
20
-100.65008
10
31.68545
20
-100.42715
10
31.72678
20
-100.20517
10
31.77354
20
-99.98427
10
31.82571
20
-99.76458
10
31.88326
20
-99.54624
10
31.94615
20
-99.32938
10
32.01434
20
-99.11413
10
32.08779
20
-98.90061
10
32.16647
20
-98.68897
10
32.25031
20
-98.47931
10
32.33927
20
-98.27178
10
32.43330
20
-98.06649
10
32.53234
20
-97.86358
10
32.63632
20
-97.66315
10
32.74520
20
-97.46534
10
32.85890
20
-97.27025
10
32.97735
20
-97.07802
10
33.10048
20
-96.88875
10
33.22822
20
-96.70256
10
33.36049
20
-96.51957
10
33.49721
20
-96.33987
10
33.63830
20
-96.16358
10
33.78368
20
-95.99081
10
33.93325
20
-95.82166
10
34.08693
20
-95.65623
10
34.24462
20
-95.49462
10
34.40623
20
-95.33693
10
34.57166
20
-95.18325
10
34.74081
20
-95.03368
10
34.91358
20
-94.88830
10
35.08987
20
-94.74721
10
35.26957
20
-94.61049
10
35.45256
20
-94.47822
10
35.63875
20
-94.35048
10
35.82802
20
-94.22735
10
36.02025
20
-94.10890
10
36.21534
20
-93.99520
10
36.41315
20
-93.88632
10
36.61358
20
-93.78234
10
36.81649
20
-93.68330
10
37.02178
20
-93.58927
10
37.22931
20
-93.50031
10
37.43897
20
-93.41647
10
37.65061
20
-93.33779
10
37.86413
20
-93.26434
10
38.07938
20
-93.19615
10
38.29624
20
-93.13326
10
38.51458
20
-93.07571
10
38.73427
20
-93.02354
10
38.95517
20
-92.97678
10
39.17715
20
-92.93545
10
39.40008
20
-92.89958
10
39.62382
20
-92.86919
10
39.84824
20
-92.84430
10
40.07321
20
-92.82493
10
40.29858
20
-92.81108
10
40.52422
20
-92.80277
10
40.75000
20
-92.80000
10
40.97578
20
-92.80277
10
41.20142
20
-92.81108
10
41.42679
20
-92.82493
10
41.65176
20
-92.84430
10
41.87618
20
-92.86919
10
42.09992
20
-92.89958
10
42.32285
20
-92.93545
10
42.54483
20
-92.97678
10
42.76573
20
-93.02354
10
42.98542
20
-93.07571
10
43.20376
20
-93.13326
10
43.42062
20
-93.19615
10
43.63587
20
-93.26434
10
43.84939
20
-93.33779
10
44.06103
20
-93.41647
10
44.27069
20
-93.50031
10
44.47822
20
-93.58927
10
44.68351
20
-93.68330
10
44.88642
20
-93.78234
10
45.08685
20
-93.88632
10
45.28466
20
-93.99520
10
45.47975
20
-94.10890
10
45.67198
20
-94.22735
10
45.86125
20
-94.35048
10
46.04744
20
-94.47822
10
46.23043
20
-94.61049
10
46.41013
20
-94.74721
10
46.58642
20
-94.88830
10
46.75919
20
-95.03368
10
46.92834
20
-95.18325
10
47.09377
20
-95.33693
10
47.25538
20
-95.49462
10
47.41307
20
-95.65623
10
47.56675
20
-95.82166
10
47.71632
20
-95.99081
10
47.86170
20
-96.16358
10
48.00279
20
-96.33987
10
48.13951
20
-96.51957
10
48.27178
20
-96.70256
10
48.39952
20
-96.88875
10
48.52265
20
-97.07802
10
48.64110
20
-97.27025
10
48.75480
20
-97.46534
10
48.86368
20
-97.66315
10
48.96766
20
-97.86358
10
49.06670
20
-98.06649
10
49.16073
20
-98.27178
10
49.24969
20
-98.47931
10
49.33353
20
-98.68897
10
49.41221
20
-98.90061
10
49.48566
20
-99.11413
10
49.55385
20
-99.32938
10
49.61674
20
-99.54624
10
49.67429
20
-99.76458
10
49.72646
20
-99.98427
10
49.77322
20
-100.20517
10
49.81455
20
-100.42715
10
49.85042
20
-100.65008
10
49.88081
20
-100.87382
10
49.90570
20
-101.09824
10
49.92507
20
-101.32321
10
49.93892
20
-101.54858
0
LWPOLYLINE
100
AcDbEntity
8
CUTLINE
100
AcDbPolyline
90
28
70
1
10
32.42235
20
-123.21022
10
32.50000
20
-123.20000
10
44.10000
20
-123.20000
10
44.17765
20
-123.21022
10
44.25000
20
-123.24019
10
44.31213
20
-123.28787
10
44.35981
20
-123.35000
10
44.38978
20
-123.42235
10
44.40000
20
-123.50000
10
44.40000
20
-127.70000
10
44.38978
20
-127.77765
10
44.35981
20
-127.85000
10
44.31213
20
-127.91213
10
44.25000
20
-127.95981
10
44.17765
20
-127.98978
10
44.10000
20
-128.00000
10
32.50000
20
-128.00000
10
32.42235
20
-127.98978
10
32.35000
20
-127.95981
10
32.28787
20
-127.91213
10
32.24019
20
-127.85000
10
32.21022
20
-127.77765
10
32.20000
20
-127.70000
10
32.20000
20
-123.50000
10
32.21022
20
-123.42235
10
32.24019
20
-123.35000
10
32.28787
20
-123.28787
10
32.35000
20
-123.24019
0
LWPOLYLINE
100
AcDbEntity
8
CUTLINE
100
AcDbPolyline
90
52
70
1
10
-21.60000
20
-115.10000
10
21.60000
20
-115.10000
10
22.20042
20
-115.13935
10
22.79057
20
-115.25674
10
23.36034
20
-115.45015
10
23.90000
20
-115.71628
10
24.40030
20
-116.05057
10
24.85269
20
-116.44731
10
25.24943
20
-116.89970
10
25.58372
20
-117.40000
10
25.84985
20
-117.93966
10
26.04326
20
-118.50943
10
26.16065
20
-119.09958
10
26.20000
20
-119.70000
10
26.20000
20
-119.90000
10
26.16065
20
-120.50042
10
26.04326
20
-121.09057
10
25.84985
20
-121.66034
10
25.58372
20
-122.20000
10
25.24943
20
-122.70030
10
24.85269
20
-123.15269
10
24.40030
20
-123.54943
10
23.90000
20
-123.88372
10
23.36034
20
-124.14985
10
22.79057
20
-124.34326
10
22.20042
20
-124.46065
10
21.60000
20
-124.50000
10
-21.60000
20
-124.50000
10
-22.20042
20
-124.46065
10
-22.79057
20
-124.34326
10
-23.36034
20
-124.14985
10
-23.90000
20
-123.88372
10
-24.40030
20
-123.54943
10
-24.85269
20
-123.15269
10
-25.24943
20
-122.70030
10
-25.58372
20
-122.20000
10
-25.84985
20
-121.66034
10
-26.04326
20
-121.09057
10
-26.16065
20
-120.50042
10
-26.20000
20
-119.90000
10
-26.20000
20
-119.70000
10
-26.16065
20
-119.09958
10
-26.04326
20
-118.50943
10
-25.84985
20
-117.93966
10
-25.58372
20
-117.40000
10
-25.24943
20
-116.89970
10
-24.85269
20
-116.44731
10
-24.40030
20
-116.05057
10
-23.90000
20
-115.71628
10
-23.36034
20
-115.45015
10
-22.79057
20
-115.25674
10
-22.20042
20
-115.13935
0
LWPOLYLINE
100
AcDbEntity
8
CUTLINE
100
AcDbPolyline
90
256
70
1
10
-31.55277
20
-101.77422
10
-31.55000
20
-102.00000
10
-31.55277
20
-102.22578
10
-31.56108
20
-102.45142
10
-31.57493
20
-102.67679
10
-31.59430
20
-102.90176
10
-31.61919
20
-103.12618
10
-31.64958
20
-103.34992
10
-31.68545
20
-103.57285
10
-31.72678
20
-103.79483
10
-31.77354
20
-104.01573
10
-31.82571
20
-104.23542
10
-31.88326
20
-104.45376
10
-31.94615
20
-104.67062
10
-32.01434
20
-104.88587
10
-32.08779
20
-105.09939
10
-32.16647
20
-105.31103
10
-32.25031
20
-105.52069
10
-32.33927
20
-105.72822
10
-32.43330
20
-105.93351
10
-32.53234
20
-106.13642
10
-32.63632
20
-106.33685
10
-32.74520
20
-106.53466
10
-32.85890
20
-106.72975
10
-32.97735
20
-106.92198
10
-33.10048
20
-107.11125
10
-33.22822
20
-107.29744
10
-33.36049
20
-107.48043
10
-33.49721
20
-107.66013
10
-33.63830
20
-107.83642
10
-33.78368
20
-108.00919
10
-33.93325
20
-108.17834
10
-34.08693
20
-108.34377
10
-34.24462
20
-108.50538
10
-34.40623
20
-108.66307
10
-34.57166
20
-108.81675
10
-34.74081
20
-108.96632
10
-34.91358
20
-109.11170
10
-35.08987
20
-109.25279
10
-35.26957
20
-109.38951
10
-35.45256
20
-109.52178
10
-35.63875
20
-109.64952
10
-35.82802
20
-109.77265
10
-36.02025
20
-109.89110
10
-36.21534
20
-110.00480
10
-36.41315
20
-110.11368
10
-36.61358
20
-110.21766
10
-36.81649
20
-110.31670
10
-37.02178
20
-110.41073
10
-37.22931
20
-110.49969
10
-37.43897
20
-110.58353
10
-37.65061
20
-110.66221
10
-37.86413
20
-110.73566
10
-38.07938
20
-110.80385
10
-38.29624
20
-110.86674
10
-38.51458
20
-110.92429
10
-38.73427
20
-110.97646
10
-38.95517
20
-111.02322
10
-39.17715
20
-111.06455
10
-39.40008
20
-111.10042
10
-39.62382
20
-111.13081
10
-39.84824
20
-111.15570
10
-40.07321
20
-111.17507
10
-40.29858
20
-111.18892
10
-40.52422
20
-111.19723
10
-40.75000
20
-111.20000
10
-40.97578
20
-111.19723
10
-41.20142
20
-111.18892
10
-41.42679
20
-111.17507
10
-41.65176
20
-111.15570
10
-41.87618
20
-111.13081
10
-42.09992
20
-111.10042
10
-42.32285
20
-111.06455
10
-42.54483
20
-111.02322
10
-42.76573
20
-110.97646
10
-42.98542
20
-110.92429
10
-43.20376
20
-110.86674
10
-43.42062
20
-110.80385
10
-43.63587
20
-110.73566
10
-43.84939
20
-110.66221
10
-44.06103
20
-110.58353
10
-44.27069
20
-110.49969
10
-44.47822
20
-110.41073
10
-44.68351
20
-110.31670
10
-44.88642
20
-110.21766
10
-45.08685
20
-110.11368
10
-45.28466
20
-110.00480
10
-45.47975
20
-109.89110
10
-45.67198
20
-109.77265
10
-45.86125
20
-109.64952
10
-46.04744
20
-109.52178
10
-46.23043
20
-109.38951
10
-46.41013
20
-109.25279
10
-46.58642
20
-109.11170
10
-46.75919
20
-108.96632
10
-46.92834
20
-108.81675
10
-47.09377
20
-108.66307
10
-47.25538
20
-108.50538
10
-47.41307
20
-108.34377
10
-47.56675
20
-108.17834
10
-47.71632
20
-108.00919
10
-47.86170
20
-107.83642
10
-48.00279
20
-107.66013
10
-48.13951
20
-107.48043
10
-48.27178
20
-107.29744
10
-48.39952
20
-107.11125
10
-48.52265
20
-106.92198
10
-48.64110
20
-106.72975
10
-48.75480
20
-106.53466
10
-48.86368
20
-106.33685
10
-48.96766
20
-106.13642
10
-49.06670
20
-105.93351
10
-49.16073
20
-105.72822
10
-49.24969
20
-105.52069
10
-49.33353
20
-105.31103
10
-49.41221
20
-105.09939
10
-49.48566
20
-104.88587
10
-49.55385
20
-104.67062
10
-49.61674
20
-104.45376
10
-49.67429
20
-104.23542
10
-49.72646
20
-104.01573
10
-49.77322
20
-103.79483
10
-49.81455
20
-103.57285
10
-49.85042
20
-103.34992
10
-49.88081
20
-103.12618
10
-49.90570
20
-102.90176
10
-49.92507
20
-102.67679
10
-49.93892
20
-102.45142
10
-49.94723
20
-102.22578
10
-49.95000
20
-102.00000
10
-49.94723
20
-101.77422
10
-49.93892
20
-101.54858
10
-49.92507
20
-101.32321
10
-49.90570
20
-101.09824
10
-49.88081
20
-100.87382
10
-49.85042
20
-100.65008
10
-49.81455
20
-100.42715
10
-49.77322
20
-100.20517
10
-49.72646
20
-99.98427
10
-49.67429
20
-99.76458
10
-49.61674
20
-99.54624
10
-49.55385
20
-99.32938
10
-49.48566
20
-99.11413
10
-49.41221
20
-98.90061
10
-49.33353
20
-98.68897
10
-49.24969
20
-98.47931
10
-49.16073
20
-98.27178
10
-49.06670
20
-98.06649
10
-48.96766
20
-97.86358
10
-48.86368
20
-97.66315
10
-48.75480
20
-97.46534
10
-48.64110
20
-97.27025
10
-48.52265
20
-97.07802
10
-48.39952
20
-96.88875
10
-48.27178
20
-96.70256
10
-48.13951
20
-96.51957
10
-48.00279
20
-96.33987
10
-47.86170
20
-96.16358
10
-47.71632
20
-95.99081
10
-47.56675
20
-95.82166
10
-47.41307
20
-95.65623
10
-47.25538
20
-95.49462
10
-47.09377
20
-95.33693
10
-46.92834
20
-95.18325
10
-46.75919
20
-95.03368
10
-46.58642
20
-94.88830
10
-46.41013
20
-94.74721
10
-46.23043
20
-94.61049
10
-46.04744
20
-94.47822
10
-45.86125
20
-94.35048
10
-45.67198
20
-94.22735
10
-45.47975
20
-94.10890
10
-45.28466
20
-93.99520
10
-45.08685
20
-93.88632
10
-44.88642
20
-93.78234
10
-44.68351
20
-93.68330
10
-44.47822
20
-93.58927
10
-44.27069
20
-93.50031
10
-44.06103
20
-93.41647
10
-43.84939
20
-93.33779
10
-43.63587
20
-93.26434
10
-43.42062
20
-93.19615
10
-43.20376
20
-93.13326
10
-42.98542
20
-93.07571
10
-42.76573
20
-93.02354
10
-42.54483
20
-92.97678
10
-42.32285
20
-92.93545
10
-42.09992
20
-92.89958
10
-41.87618
20
-92.86919
10
-41.65176
20
-92.84430
10
-41.42679
20
-92.82493
10
-41.20142
20
-92.81108
10
-40.97578
20
-92.80277
10
-40.75000
20
-92.80000
10
-40.52422
20
-92.80277
10
-40.29858
20
-92.81108
10
-40.07321
20
-92.82493
10
-39.84824
20
-92.84430
10
-39.62382
20
-92.86919
10
-39.40008
20
-92.89958
10
-39.17715
20
-92.93545
10
-38.95517
20
-92.97678
10
-38.73427
20
-93.02354
10
-38.51458
20
-93.07571
10
-38.29624
20
-93.13326
10
-38.07938
20
-93.19615
10
-37.86413
20
-93.26434
10
-37.65061
20
-93.33779
10
-37.43897
20
-93.41647
10
-37.22931
20
-93.50031
10
-37.02178
20
-93.58927
10
-36.81649
20
-93.68330
10
-36.61358
20
-93.78234
10
-36.41315
20
-93.88632
10
-36.21534
20
-93.99520
10
-36.02025
20
-94.10890
10
-35.82802
20
-94.22735
10
-35.63875
20
-94.35048
10
-35.45256
20
-94.47822
10
-35.26957
20
-94.61049
10
-35.08987
20
-94.74721
10
-34.91358
20
-94.88830
10
-34.74081
20
-95.03368
10
-34.57166
20
-95.18325
10
-34.40623
20
-95.33693
10
-34.24462
20
-95.49462
10
-34.08693
20
-95.65623
10
-33.93325
20
-95.82166
10
-33.78368
20
-95.99081
10
-33.63830
20
-96.16358
10
-33.49721
20
-96.33987
10
-33.36049
20
-96.51957
10
-33.22822
20
-96.70256
10
-33.10048
20
-96.88875
10
-32.97735
20
-97.07802
10
-32.85890
20
-97.27025
10
-32.74520
20
-97.46534
10
-32.63632
20
-97.66315
10
-32.53234
20
-97.86358
10
-32.43330
20
-98.06649
10
-32.33927
20
-98.27178
10
-32.25031
20
-98.47931
10
-32.16647
20
-98.68897
10
-32.08779
20
-98.90061
10
-32.01434
20
-99.11413
10
-31.94615
20
-99.32938
10
-31.88326
20
-99.54624
10
-31.82571
20
-99.76458
10
-31.77354
20
-99.98427
10
-31.72678
20
-100.20517
10
-31.68545
20
-100.42715
10
-31.64958
20
-100.65008
10
-31.61919
20
-100.87382
10
-31.59430
20
-101.09824
10
-31.57493
20
-101.32321
10
-31.56108
20
-101.54858
0
LWPOLYLINE
100
AcDbEntity
8
CUTLINE
100
AcDbPolyline
90
28
70
1
10
-44.17765
20
-123.21022
10
-44.10000
20
-123.20000
10
-32.50000
20
-123.20000
10
-32.42235
20
-123.21022
10
-32.35000
20
-123.24019
10
-32.28787
20
-123.28787
10
-32.24019
20
-123.35000
10
-32.21022
20
-123.42235
10
-32.20000
20
-123.50000
10
-32.20000
20
-127.70000
10
-32.21022
20
-127.77765
10
-32.24019
20
-127.85000
10
-32.28787
20
-127.91213
10
-32.35000
20
-127.95981
10
-32.42235
20
-127.98978
10
-32.50000
20
-128.00000
10
-44.10000
20
-128.00000
10
-44.17765
20
-127.98978
10
-44.25000
20
-127.95981
10
-44.31213
20
-127.91213
10
-44.35981
20
-127.85000
10
-44.38978
20
-127.77765
10
-44.40000
20
-127.70000
10
-44.40000
20
-123.50000
10
-44.38978
20
-123.42235
10
-44.35981
20
-123.35000
10
-44.31213
20
-123.28787
10
-44.25000
20
-123.24019
0
ENDSEC
0
EOF
