0
SECTION
2
HEADER
9
$ACADVER
1
AC1015
9
$INSUNITS
70
4
0
ENDSEC
0
SECTION
2
ENTITIES
0
LWPOLYLINE
100
AcDbEntity
8
CUTLINE
100
AcDbPolyline
90
360
70
1
10
0.00000
20
0.00000
10
27.00000
20
0.00000
10
27.48958
20
0.01049
10
27.95833
20
0.04225
10
28.40625
20
0.09570
10
28.83333
20
0.17130
10
29.23958
20
0.26946
10
29.62500
20
0.39062
10
29.98958
20
0.53523
10
30.33333
20
0.70370
10
30.65625
20
0.89648
10
30.95833
20
1.11400
10
31.23958
20
1.35670
10
31.50000
20
1.62500
10
31.73958
20
1.91934
10
31.95833
20
2.24016
10
32.15625
20
2.58789
10
32.33333
20
2.96296
10
32.48958
20
3.36581
10
32.62500
20
3.79688
10
32.73958
20
4.25658
10
32.83333
20
4.74537
10
32.90625
20
5.26367
10
32.95833
20
5.81192
10
32.98958
20
6.39055
10
33.00000
20
7.00000
10
33.00000
20
70.00000
10
32.99899
20
70.30740
10
32.99606
20
70.60503
10
32.99141
20
70.89355
10
32.98519
20
71.17361
10
32.97758
20
71.44586
10
32.96875
20
71.71094
10
32.95888
20
71.96951
10
32.94815
20
72.22222
10
32.93672
20
72.46973
10
32.92477
20
72.71267
10
32.91247
20
72.95171
10
32.90000
20
73.18750
10
32.88753
20
73.42068
10
32.87523
20
73.65191
10
32.86328
20
73.88184
10
32.85185
20
74.11111
10
32.84112
20
74.34039
10
32.83125
20
74.57031
10
32.82242
20
74.80154
10
32.81481
20
75.03472
10
32.80859
20
75.27051
10
32.80394
20
75.50955
10
32.80101
20
75.75250
10
32.80000
20
76.00000
10
32.85508
20
76.64203
10
33.01562
20
77.25732
10
33.27461
20
77.84845
10
33.62500
20
78.41797
10
34.05977
20
78.96844
10
34.57187
20
79.50244
10
35.15430
20
80.02252
10
35.80000
20
80.53125
10
36.50195
20
81.03119
10
37.25312
20
81.52490
10
38.04648
20
82.01495
10
38.87500
20
82.50391
10
39.73164
20
82.99432
10
40.60938
20
83.48877
10
41.50117
20
83.98981
10
42.40000
20
84.50000
10
43.29883
20
85.02191
10
44.19062
20
85.55811
10
45.06836
20
86.11115
10
45.92500
20
86.68359
10
46.75352
20
87.27802
10
47.54688
20
87.89697
10
48.29805
20
88.54303
10
49.00000
20
89.21875
10
49.64570
20
89.92670
10
50.22812
20
90.66943
10
50.74023
20
91.44952
10
51.17500
20
92.26953
10
51.52539
20
93.13202
10
51.78437
20
94.03955
10
51.94492
20
94.99469
10
52.00000
20
96.00000
10
51.99438
20
97.45410
10
51.97852
20
98.82031
10
51.95386
20
100.10449
10
51.92188
20
101.31250
10
51.88403
20
102.45020
10
51.84180
20
103.52344
10
51.79663
20
104.53809
10
51.75000
20
105.50000
10
51.70337
20
106.41504
10
51.65820
20
107.28906
10
51.61597
20
108.12793
10
51.57812
20
108.93750
10
51.54614
20
109.72363
10
51.52148
20
110.49219
10
51.50562
20
111.24902
10
51.50000
20
112.00000
10
51.48767
20
112.72812
10
51.45240
20
113.41500
10
51.39673
20
114.06437
10
51.32320
20
114.68000
10
51.23438
20
115.26562
10
51.13280
20
115.82500
10
51.02102
20
116.36187
10
50.90160
20
116.88000
10
50.77708
20
117.38313
10
50.65000
20
117.87500
10
50.52293
20
118.35938
10
50.39840
20
118.84000
10
50.27897
20
119.32062
10
50.16720
20
119.80500
10
50.06562
20
120.29688
10
49.97680
20
120.80000
10
49.90327
20
121.31813
10
49.84760
20
121.85500
10
49.81232
20
122.41438
10
49.80000
20
123.00000
10
49.81524
20
123.64429
10
49.85898
20
124.24691
10
49.92824
20
124.81250
10
50.02003
20
125.34568
10
50.13136
20
125.85108
10
50.25926
20
126.33333
10
50.40074
20
126.79707
10
50.55281
20
127.24691
10
50.71250
20
127.68750
10
50.87682
20
128.12346
10
51.04278
20
128.55941
10
51.20741
20
129.00000
10
51.36771
20
129.44985
10
51.52071
20
129.91358
10
51.66343
20
130.39583
10
51.79287
20
130.90123
10
51.90605
20
131.43441
10
52.00000
20
132.00000
10
51.85999
20
132.41609
10
51.62988
20
132.80215
10
51.31335
20
133.15862
10
50.91406
20
133.48594
10
50.43567
20
133.78455
10
49.88184
20
134.05488
10
49.25623
20
134.29739
10
48.56250
20
134.51250
10
47.80432
20
134.70066
10
46.98535
20
134.86230
10
46.10925
20
134.99788
10
45.17969
20
135.10781
10
44.20032
20
135.19255
10
43.17480
20
135.25254
10
42.10681
20
135.28821
10
41.00000
20
135.30000
10
39.79524
20
135.28319
10
38.54045
20
135.23440
10
37.23920
20
135.15610
10
35.89504
20
135.05073
10
34.51153
20
134.92076
10
33.09220
20
134.76866
10
31.64062
20
134.59688
10
30.16035
20
134.40787
10
28.65493
20
134.20411
10
27.12792
20
133.98805
10
25.58286
20
133.76214
10
24.02332
20
133.52886
10
22.45285
20
133.29066
10
20.87500
20
133.05000
10
19.29332
20
132.80934
10
17.71137
20
132.57114
10
16.13270
20
132.33786
10
14.56086
20
132.11195
10
12.99941
20
131.89589
10
11.45190
20
131.69213
10
9.92188
20
131.50313
10
8.41290
20
131.33134
10
6.92853
20
131.17924
10
5.47230
20
131.04927
10
4.04779
20
130.94390
10
2.65853
20
130.86560
10
1.30808
20
130.81681
10
0.00000
20
130.80000
10
-1.30808
20
130.81681
10
-2.65853
20
130.86560
10
-4.04779
20
130.94390
10
-5.47230
20
131.04927
10
-6.92853
20
131.17924
10
-8.41290
20
131.33134
10
-9.92188
20
131.50313
10
-11.45190
20
131.69213
10
-12.99941
20
131.89589
10
-14.56086
20
132.11195
10
-16.13270
20
132.33786
10
-17.71137
20
132.57114
10
-19.29332
20
132.80934
10
-20.87500
20
133.05000
10
-22.45285
20
133.29066
10
-24.02332
20
133.52886
10
-25.58286
20
133.76214
10
-27.12792
20
133.98805
10
-28.65493
20
134.20411
10
-30.16035
20
134.40787
10
-31.64062
20
134.59688
10
-33.09220
20
134.76866
10
-34.51153
20
134.92076
10
-35.89504
20
135.05073
10
-37.23920
20
135.15610
10
-38.54045
20
135.23440
10
-39.79524
20
135.28319
10
-41.00000
20
135.30000
10
-42.10681
20
135.28821
10
-43.17480
20
135.25254
10
-44.20032
20
135.19255
10
-45.17969
20
135.10781
10
-46.10925
20
134.99788
10
-46.98535
20
134.86230
10
-47.80432
20
134.70066
10
-48.56250
20
134.51250
10
-49.25623
20
134.29739
10
-49.88184
20
134.05488
10
-50.43567
20
133.78455
10
-50.91406
20
133.48594
10
-51.31335
20
133.15862
10
-51.62988
20
132.80215
10
-51.85999
20
132.41609
10
-52.00000
20
132.00000
10
-51.90605
20
131.43441
10
-51.79287
20
130.90123
10
-51.66343
20
130.39583
10
-51.52071
20
129.91358
10
-51.36771
20
129.44985
10
-51.20741
20
129.00000
10
-51.04278
20
128.55941
10
-50.87682
20
128.12346
10
-50.71250
20
127.68750
10
-50.55281
20
127.24691
10
-50.40074
20
126.79707
10
-50.25926
20
126.33333
10
-50.13136
20
125.85108
10
-50.02003
20
125.34568
10
-49.92824
20
124.81250
10
-49.85898
20
124.24691
10
-49.81524
20
123.64429
10
-49.80000
20
123.00000
10
-49.81232
20
122.41438
10
-49.84760
20
121.85500
10
-49.90327
20
121.31813
10
-49.97680
20
120.80000
10
-50.06562
20
120.29688
10
-50.16720
20
119.80500
10
-50.27897
20
119.32062
10
-50.39840
20
118.84000
10
-50.52293
20
118.35938
10
-50.65000
20
117.87500
10
-50.77708
20
117.38313
10
-50.90160
20
116.88000
10
-51.02102
20
116.36187
10
-51.13280
20
115.82500
10
-51.23438
20
115.26562
10
-51.32320
20
114.68000
10
-51.39673
20
114.06437
10
-51.45240
20
113.41500
10
-51.48767
20
112.72812
10
-51.50000
20
112.00000
10
-51.50562
20
111.24902
10
-51.52148
20
110.49219
10
-51.54614
20
109.72363
10
-51.57812
20
108.93750
10
-51.61597
20
108.12793
10
-51.65820
20
107.28906
10
-51.70337
20
106.41504
10
-51.75000
20
105.50000
10
-51.79663
20
104.53809
10
-51.84180
20
103.52344
10
-51.88403
20
102.45020
10
-51.92188
20
101.31250
10
-51.95386
20
100.10449
10
-51.97852
20
98.82031
10
-51.99438
20
97.45410
10
-52.00000
20
96.00000
10
-51.94492
20
94.99469
10
-51.78437
20
94.03955
10
-51.52539
20
93.13202
10
-51.17500
20
92.26953
10
-50.74023
20
91.44952
10
-50.22812
20
90.66943
10
-49.64570
20
89.92670
10
-49.00000
20
89.21875
10
-48.29805
20
88.54303
10
-47.54688
20
87.89697
10
-46.75352
20
87.27802
10
-45.92500
20
86.68359
10
-45.06836
20
86.11115
10
-44.19062
20
85.55811
10
-43.29883
20
85.02191
10
-42.40000
20
84.50000
10
-41.50117
20
83.98981
10
-40.60938
20
83.48877
10
-39.73164
20
82.99432
10
-38.87500
20
82.50391
10
-38.04648
20
82.01495
10
-37.25312
20
81.52490
10
-36.50195
20
81.03119
10
-35.80000
20
80.53125
10
-35.15430
20
80.02252
10
-34.57187
20
79.50244
10
-34.05977
20
78.96844
10
-33.62500
20
78.41797
10
-33.27461
20
77.84845
10
-33.01562
20
77.25732
10
-32.85508
20
76.64203
10
-32.80000
20
76.00000
10
-32.80101
20
75.75250
10
-32.80394
20
75.50955
10
-32.80859
20
75.27051
10
-32.81481
20
75.03472
10
-32.82242
20
74.80154
10
-32.83125
20
74.57031
10
-32.84112
20
74.34039
10
-32.85185
20
74.11111
10
-32.86328
20
73.88184
10
-32.87523
20
73.65191
10
-32.88753
20
73.42068
10
-32.90000
20
73.18750
10
-32.91247
20
72.95171
10
-32.92477
20
72.71267
10
-32.93672
20
72.46973
10
-32.94815
20
72.22222
10
-32.95888
20
71.96951
10
-32.96875
20
71.71094
10
-32.97758
20
71.44586
10
-32.98519
20
71.17361
10
-32.99141
20
70.89355
10
-32.99606
20
70.60503
10
-32.99899
20
70.30740
10
-33.00000
20
70.00000
10
-33.00000
20
7.00000
10
-32.98958
20
6.39055
10
-32.95833
20
5.81192
10
-32.90625
20
5.26367
10
-32.83333
20
4.74537
10
-32.73958
20
4.25658
10
-32.62500
20
3.79688
10
-32.48958
20
3.36581
10
-32.33333
20
2.96296
10
-32.15625
20
2.58789
10
-31.95833
20
2.24016
10
-31.73958
20
1.91934
10
-31.50000
20
1.62500
10
-31.23958
20
1.35670
10
-30.95833
20
1.11400
10
-30.65625
20
0.89648
10
-30.33333
20
0.70370
10
-29.98958
20
0.53523
10
-29.62500
20
0.39062
10
-29.23958
20
0.26946
10
-28.83333
20
0.17130
10
-28.40625
20
0.09570
10
-27.95833
20
0.04225
10
-27.48958
20
0.01049
10
-27.00000
20
0.00000
0
LWPOLYLINE
100
AcDbEntity
8
CUTLINE
100
AcDbPolyline
90
64
70
1
10
-32.25000
20
102.00000
10
-32.29093
20
102.83315
10
-32.41333
20
103.65827
10
-32.61601
20
104.46742
10
-32.89702
20
105.25281
10
-33.25367
20
106.00687
10
-33.68251
20
106.72235
10
-34.17941
20
107.39234
10
-34.73959
20
108.01041
10
-35.35766
20
108.57059
10
-36.02765
20
109.06749
10
-36.74313
20
109.49633
10
-37.49719
20
109.85298
10
-38.28258
20
110.13399
10
-39.09173
20
110.33667
10
-39.91685
20
110.45907
10
-40.75000
20
110.50000
10
-41.58315
20
110.45907
10
-42.40827
20
110.33667
10
-43.21742
20
110.13399
10
-44.00281
20
109.85298
10
-44.75687
20
109.49633
10
-45.47235
20
109.06749
10
-46.14234
20
108.57059
10
-46.76041
20
108.01041
10
-47.32059
20
107.39234
10
-47.81749
20
106.72235
10
-48.24633
20
106.00687
10
-48.60298
20
105.25281
10
-48.88399
20
104.46742
10
-49.08667
20
103.65827
10
-49.20907
20
102.83315
10
-49.25000
20
102.00000
10
-49.20907
20
101.16685
10
-49.08667
20
100.34173
10
-48.88399
20
99.53258
10
-48.60298
20
98.74719
10
-48.24633
20
97.99313
10
-47.81749
20
97.27765
10
-47.32059
20
96.60766
10
-46.76041
20
95.98959
10
-46.14234
20
95.42941
10
-45.47235
20
94.93251
10
-44.75687
20
94.50367
10
-44.00281
20
94.14702
10
-43.21742
20
93.86601
10
-42.40827
20
93.66333
10
-41.58315
20
93.54093
10
-40.75000
20
93.50000
10
-39.91685
20
93.54093
10
-39.09173
20
93.66333
10
-38.28258
20
93.86601
10
-37.49719
20
94.14702
10
-36.74313
20
94.50367
10
-36.02765
20
94.93251
10
-35.35766
20
95.42941
10
-34.73959
20
95.98959
10
-34.17941
20
96.60766
10
-33.68251
20
97.27765
10
-33.25367
20
97.99313
10
-32.89702
20
98.74719
10
-32.61601
20
99.53258
10
-32.41333
20
100.34173
10
-32.29093
20
101.16685
0
LWPOLYLINE
100
AcDbEntity
8
CUTLINE
100
AcDbPolyline
90
64
70
1
10
49.25000
20
102.00000
10
49.20907
20
102.83315
10
49.08667
20
103.65827
10
48.88399
20
104.46742
10
48.60298
20
105.25281
10
48.24633
20
106.00687
10
47.81749
20
106.72235
10
47.32059
20
107.39234
10
46.76041
20
108.01041
10
46.14234
20
108.57059
10
45.47235
20
109.06749
10
44.75687
20
109.49633
10
44.00281
20
109.85298
10
43.21742
20
110.13399
10
42.40827
20
110.33667
10
41.58315
20
110.45907
10
40.75000
20
110.50000
10
39.91685
20
110.45907
10
39.09173
20
110.33667
10
38.28258
20
110.13399
10
37.49719
20
109.85298
10
36.74313
20
109.49633
10
36.02765
20
109.06749
10
35.35766
20
108.57059
10
34.73959
20
108.01041
10
34.17941
20
107.39234
10
33.68251
20
106.72235
10
33.25367
20
106.00687
10
32.89702
20
105.25281
10
32.61601
20
104.46742
10
32.41333
20
103.65827
10
32.29093
20
102.83315
10
32.25000
20
102.00000
10
32.29093
20
101.16685
10
32.41333
20
100.34173
10
32.61601
20
99.53258
10
32.89702
20
98.74719
10
33.25367
20
97.99313
10
33.68251
20
97.27765
10
34.17941
20
96.60766
10
34.73959
20
95.98959
10
35.35766
20
95.42941
10
36.02765
20
94.93251
10
36.74313
20
94.50367
10
37.49719
20
94.14702
10
38.28258
20
93.86601
10
39.09173
20
93.66333
10
39.91685
20
93.54093
10
40.75000
20
93.50000
10
41.58315
20
93.54093
10
42.40827
20
93.66333
10
43.21742
20
93.86601
10
44.00281
20
94.14702
10
44.75687
20
94.50367
10
45.47235
20
94.93251
10
46.14234
20
95.42941
10
46.76041
20
95.98959
10
47.32059
20
96.60766
10
47.81749
20
97.27765
10
48.24633
20
97.99313
10
48.60298
20
98.74719
10
48.88399
20
99.53258
10
49.08667
20
100.34173
10
49.20907
20
101.16685
0
LWPOLYLINE
100
AcDbEntity
8
CUTLINE
100
AcDbPolyline
90
36
70
1
10
21.10000
20
114.00000
10
21.86085
20
114.07494
10
22.59247
20
114.29687
10
23.26672
20
114.65727
10
23.85772
20
115.14228
10
24.34273
20
115.73328
10
24.70313
20
116.40753
10
24.92506
20
117.13915
10
25.00000
20
117.90000
10
25.00000
20
118.10000
10
24.92506
20
118.86085
10
24.70313
20
119.59247
10
24.34273
20
120.26672
10
23.85772
20
120.85772
10
23.26672
20
121.34273
10
22.59247
20
121.70313
10
21.86085
20
121.92506
10
21.10000
20
122.00000
10
-21.10000
20
122.00000
10
-21.86085
20
121.92506
10
-22.59247
20
121.70313
10
-23.26672
20
121.34273
10
-23.85772
20
120.85772
10
-24.34273
20
120.26672
10
-24.70313
20
119.59247
10
-24.92506
20
118.86085
10
-25.00000
20
118.10000
10
-25.00000
20
117.90000
10
-24.92506
20
117.13915
10
-24.70313
20
116.40753
10
-24.34273
20
115.73328
10
-23.85772
20
115.14228
10
-23.26672
20
114.65727
10
-22.59247
20
114.29687
10
-21.86085
20
114.07494
10
-21.10000
20
114.00000
0
LWPOLYLINE
100
AcDbEntity
8
CUTLINE
100
AcDbPolyline
90
36
70
1
10
-35.89000
20
120.20000
10
-35.79441
20
120.20942
10
-35.70249
20
120.23730
10
-35.61777
20
120.28258
10
-35.54352
20
120.34352
10
-35.48258
20
120.41777
10
-35.43730
20
120.50249
10
-35.40942
20
120.59441
10
-35.40000
20
120.69000
10
-35.40000
20
120.71000
10
-35.40942
20
120.80559
10
-35.43730
20
120.89751
10
-35.48258
20
120.98223
10
-35.54352
20
121.05648
10
-35.61777
20
121.11742
10
-35.70249
20
121.16270
10
-35.79441
20
121.19058
10
-35.89000
20
121.20000
10
-47.11000
20
121.20000
10
-47.20559
20
121.19058
10
-47.29751
20
121.16270
10
-47.38223
20
121.11742
10
-47.45648
20
121.05648
10
-47.51742
20
120.98223
10
-47.56270
20
120.89751
10
-47.59058
20
120.80559
10
-47.60000
20
120.71000
10
-47.60000
20
120.69000
10
-47.59058
20
120.59441
10
-47.56270
20
120.50249
10
-47.51742
20
120.41777
10
-47.45648
20
120.34352
10
-47.38223
20
120.28258
10
-47.29751
20
120.23730
10
-47.20559
20
120.20942
10
-47.11000
20
120.20000
0
LWPOLYLINE
100
AcDbEntity
8
CUTLINE
100
AcDbPolyline
90
36
70
1
10
-35.89000
20
122.10000
10
-35.79441
20
122.10942
10
-35.70249
20
122.13730
10
-35.61777
20
122.18258
10
-35.54352
20
122.24352
10
-35.48258
20
122.31777
10
-35.43730
20
122.40249
10
-35.40942
20
122.49441
10
-35.40000
20
122.59000
10
-35.40000
20
122.61000
10
-35.40942
20
122.70559
10
-35.43730
20
122.79751
10
-35.48258
20
122.88223
10
-35.54352
20
122.95648
10
-35.61777
20
123.01742
10
-35.70249
20
123.06270
10
-35.79441
20
123.09058
10
-35.89000
20
123.10000
10
-47.11000
20
123.10000
10
-47.20559
20
123.09058
10
-47.29751
20
123.06270
10
-47.38223
20
123.01742
10
-47.45648
20
122.95648
10
-47.51742
20
122.88223
10
-47.56270
20
122.79751
10
-47.59058
20
122.70559
10
-47.60000
20
122.61000
10
-47.60000
20
122.59000
10
-47.59058
20
122.49441
10
-47.56270
20
122.40249
10
-47.51742
20
122.31777
10
-47.45648
20
122.24352
10
-47.38223
20
122.18258
10
-47.29751
20
122.13730
10
-47.20559
20
122.10942
10
-47.11000
20
122.10000
0
LWPOLYLINE
100
AcDbEntity
8
CUTLINE
100
AcDbPolyline
90
36
70
1
10
-35.89000
20
124.00000
10
-35.79441
20
124.00942
10
-35.70249
20
124.03730
10
-35.61777
20
124.08258
10
-35.54352
20
124.14352
10
-35.48258
20
124.21777
10
-35.43730
20
124.30249
10
-35.40942
20
124.39441
10
-35.40000
20
124.49000
10
-35.40000
20
124.51000
10
-35.40942
20
124.60559
10
-35.43730
20
124.69751
10
-35.48258
20
124.78223
10
-35.54352
20
124.85648
10
-35.61777
20
124.91742
10
-35.70249
20
124.96270
10
-35.79441
20
124.99058
10
-35.89000
20
125.00000
10
-47.11000
20
125.00000
10
-47.20559
20
124.99058
10
-47.29751
20
124.96270
10
-47.38223
20
124.91742
10
-47.45648
20
124.85648
10
-47.51742
20
124.78223
10
-47.56270
20
124.69751
10
-47.59058
20
124.60559
10
-47.60000
20
124.51000
10
-47.60000
20
124.49000
10
-47.59058
20
124.39441
10
-47.56270
20
124.30249
10
-47.51742
20
124.21777
10
-47.45648
20
124.14352
10
-47.38223
20
124.08258
10
-47.29751
20
124.03730
10
-47.20559
20
124.00942
10
-47.11000
20
124.00000
0
LWPOLYLINE
100
AcDbEntity
8
CUTLINE
100
AcDbPolyline
90
36
70
1
10
47.11000
20
120.20000
10
47.20559
20
120.20942
10
47.29751
20
120.23730
10
47.38223
20
120.28258
10
47.45648
20
120.34352
10
47.51742
20
120.41777
10
47.56270
20
120.50249
10
47.59058
20
120.59441
10
47.60000
20
120.69000
10
47.60000
20
120.71000
10
47.59058
20
120.80559
10
47.56270
20
120.89751
10
47.51742
20
120.98223
10
47.45648
20
121.05648
10
47.38223
20
121.11742
10
47.29751
20
121.16270
10
47.20559
20
121.19058
10
47.11000
20
121.20000
10
35.89000
20
121.20000
10
35.79441
20
121.19058
10
35.70249
20
121.16270
10
35.61777
20
121.11742
10
35.54352
20
121.05648
10
35.48258
20
120.98223
10
35.43730
20
120.89751
10
35.40942
20
120.80559
10
35.40000
20
120.71000
10
35.40000
20
120.69000
10
35.40942
20
120.59441
10
35.43730
20
120.50249
10
35.48258
20
120.41777
10
35.54352
20
120.34352
10
35.61777
20
120.28258
10
35.70249
20
120.23730
10
35.79441
20
120.20942
10
35.89000
20
120.20000
0
LWPOLYLINE
100
AcDbEntity
8
CUTLINE
100
AcDbPolyline
90
36
70
1
10
47.11000
20
122.10000
10
47.20559
20
122.10942
10
47.29751
20
122.13730
10
47.38223
20
122.18258
10
47.45648
20
122.24352
10
47.51742
20
122.31777
10
47.56270
20
122.40249
10
47.59058
20
122.49441
10
47.60000
20
122.59000
10
47.60000
20
122.61000
10
47.59058
20
122.70559
10
47.56270
20
122.79751
10
47.51742
20
122.88223
10
47.45648
20
122.95648
10
47.38223
20
123.01742
10
47.29751
20
123.06270
10
47.20559
20
123.09058
10
47.11000
20
123.10000
10
35.89000
20
123.10000
10
35.79441
20
123.09058
10
35.70249
20
123.06270
10
35.61777
20
123.01742
10
35.54352
20
122.95648
10
35.48258
20
122.88223
10
35.43730
20
122.79751
10
35.40942
20
122.70559
10
35.40000
20
122.61000
10
35.40000
20
122.59000
10
35.40942
20
122.49441
10
35.43730
20
122.40249
10
35.48258
20
122.31777
10
35.54352
20
122.24352
10
35.61777
20
122.18258
10
35.70249
20
122.13730
10
35.79441
20
122.10942
10
35.89000
20
122.10000
0
LWPOLYLINE
100
AcDbEntity
8
CUTLINE
100
AcDbPolyline
90
36
70
1
10
47.11000
20
124.00000
10
47.20559
20
124.00942
10
47.29751
20
124.03730
10
47.38223
20
124.08258
10
47.45648
20
124.14352
10
47.51742
20
124.21777
10
47.56270
20
124.30249
10
47.59058
20
124.39441
10
47.60000
20
124.49000
10
47.60000
20
124.51000
10
47.59058
20
124.60559
10
47.56270
20
124.69751
10
47.51742
20
124.78223
10
47.45648
20
124.85648
10
47.38223
20
124.91742
10
47.29751
20
124.96270
10
47.20559
20
124.99058
10
47.11000
20
125.00000
10
35.89000
20
125.00000
10
35.79441
20
124.99058
10
35.70249
20
124.96270
10
35.61777
20
124.91742
10
35.54352
20
124.85648
10
35.48258
20
124.78223
10
35.43730
20
124.69751
10
35.40942
20
124.60559
10
35.40000
20
124.51000
10
35.40000
20
124.49000
10
35.40942
20
124.39441
10
35.43730
20
124.30249
10
35.48258
20
124.21777
10
35.54352
20
124.14352
10
35.61777
20
124.08258
10
35.70249
20
124.03730
10
35.79441
20
124.00942
10
35.89000
20
124.00000
0
ENDSEC
0
EOF
