0
SECTION
2
HEADER
9
$ACADVER
1
AC1015
9
$INSUNITS
70
4
0
ENDSEC
0
SECTION
2
ENTITIES
0
LWPOLYLINE
100
AcDbEntity
8
CUTLINE
100
AcDbPolyline
90
168
70
1
10
-51.85820
20
-132.41540
10
-51.62870
20
-132.80130
10
-51.31170
20
-133.15690
10
-50.91320
20
-133.48470
10
-50.43520
20
-133.78370
10
-49.93870
20
-134.02710
10
-49.30460
20
-134.27860
10
-48.60360
20
-134.49970
10
-47.83950
20
-134.69190
10
-47.01580
20
-134.85630
10
-45.20310
20
-135.10500
10
-43.19360
20
-135.25140
10
-41.01730
20
-135.29980
10
-39.77860
20
-135.28450
10
-37.25130
20
-135.17270
10
-33.10670
20
-134.82910
10
-30.17020
20
-134.50810
10
-27.13400
20
-134.13460
10
-16.13800
20
-132.66770
10
-11.44120
20
-132.09180
10
-8.39790
20
-131.77090
10
-5.49250
20
-131.52320
10
-2.68540
20
-131.35970
10
-1.33910
20
-131.31590
10
0.03430
20
-131.30040
10
2.68540
20
-131.35970
10
5.45210
20
-131.52020
10
8.42790
20
-131.77380
10
11.44120
20
-132.09180
10
14.55390
20
-132.46530
10
27.12180
20
-134.13300
10
31.62860
20
-134.67360
10
35.90530
20
-135.07910
10
38.52630
20
-135.24090
10
39.77860
20
-135.28450
10
42.08980
20
-135.28840
10
44.17940
20
-135.19380
10
46.08260
20
-135.00100
10
47.76870
20
-134.70770
10
48.52070
20
-134.52290
10
49.20670
20
-134.31270
10
49.82290
20
-134.07770
10
50.40060
20
-133.80160
10
50.91320
20
-133.48470
10
51.26750
20
-133.19620
10
51.65400
20
-132.76160
10
51.85830
20
-132.41520
10
51.99820
20
-131.99980
10
51.89910
20
-131.40170
10
51.78510
20
-130.87100
10
51.51340
20
-129.89150
10
50.54240
20
-127.21600
10
50.14770
20
-125.91260
10
50.00820
20
-125.27720
10
49.86800
20
-124.32050
10
49.80160
20
-123.06700
10
49.81630
20
-122.35160
10
49.89740
20
-121.37430
10
49.99810
20
-120.69790
10
50.10800
20
-120.30950
10
50.26900
20
-119.93940
10
50.47820
20
-119.59420
10
50.73190
20
-119.28020
10
51.09700
20
-118.90330
10
51.35680
20
-118.52030
10
51.55220
20
-118.04010
10
51.63970
20
-117.51070
10
51.72940
20
-115.94680
10
51.86090
20
-111.98640
10
51.92990
20
-107.66600
10
51.94950
20
-103.11400
10
51.89840
20
-102.01970
10
51.97830
20
-98.83150
10
51.99980
20
-96.04390
10
51.93800
20
-94.95330
10
51.78320
20
-94.03980
10
51.53650
20
-93.17090
10
51.17410
20
-92.26990
10
50.70180
20
-91.39100
10
50.18920
20
-90.61980
10
49.68020
20
-89.97060
10
48.96490
20
-89.18490
10
48.26620
20
-88.51560
10
46.76030
20
-87.27450
10
45.67870
20
-86.05490
10
43.62270
20
-84.11670
10
41.39530
20
-82.28100
10
39.31650
20
-80.63520
10
37.41010
20
-79.01010
10
35.63710
20
-77.17290
10
34.40770
20
-75.38590
10
34.18150
20
-74.98850
10
33.45640
20
-73.11480
10
33.30620
20
-72.57490
10
33.00200
20
-69.82950
10
33.00040
20
-5.96900
10
32.96800
20
-5.18850
10
32.86370
20
-4.34400
10
32.69220
20
-3.60920
10
32.46700
20
-2.88810
10
32.40750
20
-2.46910
10
32.38560
20
-1.96520
10
32.30910
20
-1.58070
10
32.14480
20
-1.17160
10
31.96360
20
-0.88020
10
31.70520
20
-0.58550
10
31.35830
20
-0.31330
10
30.91920
20
-0.09670
10
30.50800
20
-0.00000
10
-30.50800
20
-0.00000
10
-30.91920
20
-0.09670
10
-31.35830
20
-0.31330
10
-31.77450
20
-0.65480
10
-32.04670
20
-1.00170
10
-32.20850
20
-1.30420
10
-32.33450
20
-1.67550
10
-32.46700
20
-2.88810
10
-32.69220
20
-3.60920
10
-32.84960
20
-4.26730
10
-32.95580
20
-5.04560
10
-33.00170
20
-6.03300
10
-33.00200
20
-69.82950
10
-33.30620
20
-72.57490
10
-33.45640
20
-73.11480
10
-34.18150
20
-74.98850
10
-34.40770
20
-75.38590
10
-35.63710
20
-77.17290
10
-37.41010
20
-79.01010
10
-39.31660
20
-80.63520
10
-41.41160
20
-82.29420
10
-43.62270
20
-84.11670
10
-45.67870
20
-86.05490
10
-46.76030
20
-87.27450
10
-48.26620
20
-88.51560
10
-48.96490
20
-89.18490
10
-49.68020
20
-89.97060
10
-50.18920
20
-90.61980
10
-50.70180
20
-91.39100
10
-51.17410
20
-92.26990
10
-51.53650
20
-93.17090
10
-51.78320
20
-94.03980
10
-51.93800
20
-94.95330
10
-51.99980
20
-96.04400
10
-51.97860
20
-98.80910
10
-51.89830
20
-102.01990
10
-51.94950
20
-103.11410
10
-51.92980
20
-107.67940
10
-51.86130
20
-111.96560
10
-51.72940
20
-115.94680
10
-51.63970
20
-117.51070
10
-51.55220
20
-118.04010
10
-51.35680
20
-118.52030
10
-51.09700
20
-118.90330
10
-50.73190
20
-119.28020
10
-50.47820
20
-119.59420
10
-50.26900
20
-119.93940
10
-50.10800
20
-120.30950
10
-49.99810
20
-120.69790
10
-49.89740
20
-121.37430
10
-49.81630
20
-122.35160
10
-49.80160
20
-123.06700
10
-49.86800
20
-124.32050
10
-50.00820
20
-125.27720
10
-50.14770
20
-125.91260
10
-50.54240
20
-127.21600
10
-51.52730
20
-129.93580
10
-51.79930
20
-130.93170
10
-51.99140
20
-131.94830
0
LWPOLYLINE
100
AcDbEntity
8
CUTLINE
100
AcDbPolyline
90
256
70
1
10
49.93892
20
-101.54858
10
49.94723
20
-101.77422
10
49.95000
20
-102.00000
10
49.94723
20
-102.22578
10
49.93892
20
-102.45142
10
49.92507
20
-102.67679
10
49.90570
20
-102.90176
10
49.88081
20
-103.12618
10
49.85042
20
-103.34992
10
49.81455
20
-103.57285
10
49.77322
20
-103.79483
10
49.72646
20
-104.01573
10
49.67429
20
-104.23542
10
49.61674
20
-104.45376
10
49.55385
20
-104.67062
10
49.48566
20
-104.88587
10
49.41221
20
-105.09939
10
49.33353
20
-105.31103
10
49.24969
20
-105.52069
10
49.16073
20
-105.72822
10
49.06670
20
-105.93351
10
48.96766
20
-106.13642
10
48.86368
20
-106.33685
10
48.75480
20
-106.53466
10
48.64110
20
-106.72975
10
48.52265
20
-106.92198
10
48.39952
20
-107.11125
10
48.27178
20
-107.29744
10
48.13951
20
-107.48043
10
48.00279
20
-107.66013
10
47.86170
20
-107.83642
10
47.71632
20
-108.00919
10
47.56675
20
-108.17834
10
47.41307
20
-108.34377
10
47.25538
20
-108.50538
10
47.09377
20
-108.66307
10
46.92834
20
-108.81675
10
46.75919
20
-108.96632
10
46.58642
20
-109.11170
10
46.41013
20
-109.25279
10
46.23043
20
-109.38951
10
46.04744
20
-109.52178
10
45.86125
20
-109.64952
10
45.67198
20
-109.77265
10
45.47975
20
-109.89110
10
45.28466
20
-110.00480
10
45.08685
20
-110.11368
10
44.88642
20
-110.21766
10
44.68351
20
-110.31670
10
44.47822
20
-110.41073
10
44.27069
20
-110.49969
10
44.06103
20
-110.58353
10
43.84939
20
-110.66221
10
43.63587
20
-110.73566
10
43.42062
20
-110.80385
10
43.20376
20
-110.86674
10
42.98542
20
-110.92429
10
42.76573
20
-110.97646
10
42.54483
20
-111.02322
10
42.32285
20
-111.06455
10
42.09992
20
-111.10042
10
41.87618
20
-111.13081
10
41.65176
20
-111.15570
10
41.42679
20
-111.17507
10
41.20142
20
-111.18892
10
40.97578
20
-111.19723
10
40.75000
20
-111.20000
10
40.52422
20
-111.19723
10
40.29858
20
-111.18892
10
40.07321
20
-111.17507
10
39.84824
20
-111.15570
10
39.62382
20
-111.13081
10
39.40008
20
-111.10042
10
39.17715
20
-111.06455
10
38.95517
20
-111.02322
10
38.73427
20
-110.97646
10
38.51458
20
-110.92429
10
38.29624
20
-110.86674
10
38.07938
20
-110.80385
10
37.86413
20
-110.73566
10
37.65061
20
-110.66221
10
37.43897
20
-110.58353
10
37.22931
20
-110.49969
10
37.02178
20
-110.41073
10
36.81649
20
-110.31670
10
36.61358
20
-110.21766
10
36.41315
20
-110.11368
10
36.21534
20
-110.00480
10
36.02025
20
-109.89110
10
35.82802
20
-109.77265
10
35.63875
20
-109.64952
10
35.45256
20
-109.52178
10
35.26957
20
-109.38951
10
35.08987
20
-109.25279
10
34.91358
20
-109.11170
10
34.74081
20
-108.96632
10
34.57166
20
-108.81675
10
34.40623
20
-108.66307
10
34.24462
20
-108.50538
10
34.08693
20
-108.34377
10
33.93325
20
-108.17834
10
33.78368
20
-108.00919
10
33.63830
20
-107.83642
10
33.49721
20
-107.66013
10
33.36049
20
-107.48043
10
33.22822
20
-107.29744
10
33.10048
20
-107.11125
10
32.97735
20
-106.92198
10
32.85890
20
-106.72975
10
32.74520
20
-106.53466
10
32.63632
20
-106.33685
10
32.53234
20
-106.13642
10
32.43330
20
-105.93351
10
32.33927
20
-105.72822
10
32.25031
20
-105.52069
10
32.16647
20
-105.31103
10
32.08779
20
-105.09939
10
32.01434
20
-104.88587
10
31.94615
20
-104.67062
10
31.88326
20
-104.45376
10
31.82571
20
-104.23542
10
31.77354
20
-104.01573
10
31.72678
20
-103.79483
10
31.68545
20
-103.57285
10
31.64958
20
-103.34992
10
31.61919
20
-103.12618
10
31.59430
20
-102.90176
10
31.57493
20
-102.67679
10
31.56108
20
-102.45142
10
31.55277
20
-102.22578
10
31.55000
20
-102.00000
10
31.55277
20
-101.77422
10
31.56108
20
-101.54858
10
31.57493
20
-101.32321
10
31.59430
20
-101.09824
10
31.61919
20
-100.87382
10
31.64958
20
-100.65008
10
31.68545
20
-100.42715
10
31.72678
20
-100.20517
10
31.77354
20
-99.98427
10
31.82571
20
-99.76458
10
31.88326
20
-99.54624
10
31.94615
20
-99.32938
10
32.01434
20
-99.11413
10
32.08779
20
-98.90061
10
32.16647
20
-98.68897
10
32.25031
20
-98.47931
10
32.33927
20
-98.27178
10
32.43330
20
-98.06649
10
32.53234
20
-97.86358
10
32.63632
20
-97.66315
10
32.74520
20
-97.46534
10
32.85890
20
-97.27025
10
32.97735
20
-97.07802
10
33.10048
20
-96.88875
10
33.22822
20
-96.70256
10
33.36049
20
-96.51957
10
33.49721
20
-96.33987
10
33.63830
20
-96.16358
10
33.78368
20
-95.99081
10
33.93325
20
-95.82166
10
34.08693
20
-95.65623
10
34.24462
20
-95.49462
10
34.40623
20
-95.33693
10
34.57166
20
-95.18325
10
34.74081
20
-95.03368
10
34.91358
20
-94.88830
10
35.08987
20
-94.74721
10
35.26957
20
-94.61049
10
35.45256
20
-94.47822
10
35.63875
20
-94.35048
10
35.82802
20
-94.22735
10
36.02025
20
-94.10890
10
36.21534
20
-93.99520
10
36.41315
20
-93.88632
10
36.61358
20
-93.78234
10
36.81649
20
-93.68330
10
37.02178
20
-93.58927
10
37.22931
20
-93.50031
10
37.43897
20
-93.41647
10
37.65061
20
-93.33779
10
37.86413
20
-93.26434
10
38.07938
20
-93.19615
10
38.29624
20
-93.13326
10
38.51458
20
-93.07571
10
38.73427
20
-93.02354
10
38.95517
20
-92.97678
10
39.17715
20
-92.93545
10
39.40008
20
-92.89958
10
39.62382
20
-92.86919
10
39.84824
20
-92.84430
10
40.07321
20
-92.82493
10
40.29858
20
-92.81108
10
40.52422
20
-92.80277
10
40.75000
20
-92.80000
10
40.97578
20
-92.80277
10
41.20142
20
-92.81108
10
41.42679
20
-92.82493
10
41.65176
20
-92.84430
10
41.87618
20
-92.86919
10
42.09992
20
-92.89958
10
42.32285
20
-92.93545
10
42.54483
20
-92.97678
10
42.76573
20
-93.02354
10
42.98542
20
-93.07571
10
43.20376
20
-93.13326
10
43.42062
20
-93.19615
10
43.63587
20
-93.26434
10
43.84939
20
-93.33779
10
44.06103
20
-93.41647
10
44.27069
20
-93.50031
10
44.47822
20
-93.58927
10
44.68351
20
-93.68330
10
44.88642
20
-93.78234
10
45.08685
20
-93.88632
10
45.28466
20
-93.99520
10
45.47975
20
-94.10890
10
45.67198
20
-94.22735
10
45.86125
20
-94.35048
10
46.04744
20
-94.47822
10
46.23043
20
-94.61049
10
46.41013
20
-94.74721
10
46.58642
20
-94.88830
10
46.75919
20
-95.03368
10
46.92834
20
-95.18325
10
47.09377
20
-95.33693
10
47.25538
20
-95.49462
10
47.41307
20
-95.65623
10
47.56675
20
-95.82166
10
47.71632
20
-95.99081
10
47.86170
20
-96.16358
10
48.00279
20
-96.33987
10
48.13951
20
-96.51957
10
48.27178
20
-96.70256
10
48.39952
20
-96.88875
10
48.52265
20
-97.07802
10
48.64110
20
-97.27025
10
48.75480
20
-97.46534
10
48.86368
20
-97.66315
10
48.96766
20
-97.86358
10
49.06670
20
-98.06649
10
49.16073
20
-98.27178
10
49.24969
20
-98.47931
10
49.33353
20
-98.68897
10
49.41221
20
-98.90061
10
49.48566
20
-99.11413
10
49.55385
20
-99.32938
10
49.61674
20
-99.54624
10
49.67429
20
-99.76458
10
49.72646
20
-99.98427
10
49.77322
20
-100.20517
10
49.81455
20
-100.42715
10
49.85042
20
-100.65008
10
49.88081
20
-100.87382
10
49.90570
20
-101.09824
10
49.92507
20
-101.32321
0
LWPOLYLINE
100
AcDbEntity
8
CUTLINE
100
AcDbPolyline
90
28
70
1
10
32.44500
20
-127.06565
10
32.56318
20
-127.01670
10
32.69000
20
-127.00000
10
43.91000
20
-127.00000
10
44.03682
20
-127.01670
10
44.15500
20
-127.06565
10
44.25648
20
-127.14352
10
44.33435
20
-127.24500
10
44.38330
20
-127.36318
10
44.40000
20
-127.49000
10
44.40000
20
-127.51000
10
44.38330
20
-127.63682
10
44.33435
20
-127.75500
10
44.25648
20
-127.85648
10
44.15500
20
-127.93435
10
44.03682
20
-127.98330
10
43.91000
20
-128.00000
10
32.69000
20
-128.00000
10
32.56318
20
-127.98330
10
32.44500
20
-127.93435
10
32.34352
20
-127.85648
10
32.26565
20
-127.75500
10
32.21670
20
-127.63682
10
32.20000
20
-127.51000
10
32.20000
20
-127.49000
10
32.21670
20
-127.36318
10
32.26565
20
-127.24500
10
32.34352
20
-127.14352
0
LWPOLYLINE
100
AcDbEntity
8
CUTLINE
100
AcDbPolyline
90
28
70
1
10
32.56318
20
-123.21670
10
32.69000
20
-123.20000
10
43.91000
20
-123.20000
10
44.03682
20
-123.21670
10
44.15500
20
-123.26565
10
44.25648
20
-123.34352
10
44.33435
20
-123.44500
10
44.38330
20
-123.56318
10
44.40000
20
-123.69000
10
44.40000
20
-123.71000
10
44.38330
20
-123.83682
10
44.33435
20
-123.95500
10
44.25648
20
-124.05648
10
44.15500
20
-124.13435
10
44.03682
20
-124.18330
10
43.91000
20
-124.20000
10
32.69000
20
-124.20000
10
32.56318
20
-124.18330
10
32.44500
20
-124.13435
10
32.34352
20
-124.05648
10
32.26565
20
-123.95500
10
32.21670
20
-123.83682
10
32.20000
20
-123.71000
10
32.20000
20
-123.69000
10
32.21670
20
-123.56318
10
32.26565
20
-123.44500
10
32.34352
20
-123.34352
10
32.44500
20
-123.26565
0
LWPOLYLINE
100
AcDbEntity
8
CUTLINE
100
AcDbPolyline
90
28
70
1
10
32.56318
20
-125.11670
10
32.69000
20
-125.10000
10
43.91000
20
-125.10000
10
44.03682
20
-125.11670
10
44.15500
20
-125.16565
10
44.25648
20
-125.24352
10
44.33435
20
-125.34500
10
44.38330
20
-125.46318
10
44.40000
20
-125.59000
10
44.40000
20
-125.61000
10
44.38330
20
-125.73682
10
44.33435
20
-125.85500
10
44.25648
20
-125.95648
10
44.15500
20
-126.03435
10
44.03682
20
-126.08330
10
43.91000
20
-126.10000
10
32.69000
20
-126.10000
10
32.56318
20
-126.08330
10
32.44500
20
-126.03435
10
32.34352
20
-125.95648
10
32.26565
20
-125.85500
10
32.21670
20
-125.73682
10
32.20000
20
-125.61000
10
32.20000
20
-125.59000
10
32.21670
20
-125.46318
10
32.26565
20
-125.34500
10
32.34352
20
-125.24352
10
32.44500
20
-125.16565
0
LWPOLYLINE
100
AcDbEntity
8
CUTLINE
100
AcDbPolyline
90
52
70
1
10
-22.20042
20
-115.13935
10
-21.60000
20
-115.10000
10
21.60000
20
-115.10000
10
22.20042
20
-115.13935
10
22.79057
20
-115.25674
10
23.36034
20
-115.45015
10
23.90000
20
-115.71628
10
24.40030
20
-116.05057
10
24.85269
20
-116.44731
10
25.24943
20
-116.89970
10
25.58372
20
-117.40000
10
25.84985
20
-117.93966
10
26.04326
20
-118.50943
10
26.16065
20
-119.09958
10
26.20000
20
-119.70000
10
26.20000
20
-119.90000
10
26.16065
20
-120.50042
10
26.04326
20
-121.09057
10
25.84985
20
-121.66034
10
25.58372
20
-122.20000
10
25.24943
20
-122.70030
10
24.85269
20
-123.15269
10
24.40030
20
-123.54943
10
23.90000
20
-123.88372
10
23.36034
20
-124.14985
10
22.79057
20
-124.34326
10
22.20042
20
-124.46065
10
21.60000
20
-124.50000
10
-21.60000
20
-124.50000
10
-22.20042
20
-124.46065
10
-22.79057
20
-124.34326
10
-23.36034
20
-124.14985
10
-23.90000
20
-123.88372
10
-24.40030
20
-123.54943
10
-24.85269
20
-123.15269
10
-25.24943
20
-122.70030
10
-25.58372
20
-122.20000
10
-25.84985
20
-121.66034
10
-26.04326
20
-121.09057
10
-26.16065
20
-120.50042
10
-26.20000
20
-119.90000
10
-26.20000
20
-119.70000
10
-26.16065
20
-119.09958
10
-26.04326
20
-118.50943
10
-25.84985
20
-117.93966
10
-25.58372
20
-117.40000
10
-25.24943
20
-116.89970
10
-24.85269
20
-116.44731
10
-24.40030
20
-116.05057
10
-23.90000
20
-115.71628
10
-23.36034
20
-115.45015
10
-22.79057
20
-115.25674
0
LWPOLYLINE
100
AcDbEntity
8
CUTLINE
100
AcDbPolyline
90
256
70
1
10
-31.56108
20
-101.54858
10
-31.55277
20
-101.77422
10
-31.55000
20
-102.00000
10
-31.55277
20
-102.22578
10
-31.56108
20
-102.45142
10
-31.57493
20
-102.67679
10
-31.59430
20
-102.90176
10
-31.61919
20
-103.12618
10
-31.64958
20
-103.34992
10
-31.68545
20
-103.57285
10
-31.72678
20
-103.79483
10
-31.77354
20
-104.01573
10
-31.82571
20
-104.23542
10
-31.88326
20
-104.45376
10
-31.94615
20
-104.67062
10
-32.01434
20
-104.88587
10
-32.08779
20
-105.09939
10
-32.16647
20
-105.31103
10
-32.25031
20
-105.52069
10
-32.33927
20
-105.72822
10
-32.43330
20
-105.93351
10
-32.53234
20
-106.13642
10
-32.63632
20
-106.33685
10
-32.74520
20
-106.53466
10
-32.85890
20
-106.72975
10
-32.97735
20
-106.92198
10
-33.10048
20
-107.11125
10
-33.22822
20
-107.29744
10
-33.36049
20
-107.48043
10
-33.49721
20
-107.66013
10
-33.63830
20
-107.83642
10
-33.78368
20
-108.00919
10
-33.93325
20
-108.17834
10
-34.08693
20
-108.34377
10
-34.24462
20
-108.50538
10
-34.40623
20
-108.66307
10
-34.57166
20
-108.81675
10
-34.74081
20
-108.96632
10
-34.91358
20
-109.11170
10
-35.08987
20
-109.25279
10
-35.26957
20
-109.38951
10
-35.45256
20
-109.52178
10
-35.63875
20
-109.64952
10
-35.82802
20
-109.77265
10
-36.02025
20
-109.89110
10
-36.21534
20
-110.00480
10
-36.41315
20
-110.11368
10
-36.61358
20
-110.21766
10
-36.81649
20
-110.31670
10
-37.02178
20
-110.41073
10
-37.22931
20
-110.49969
10
-37.43897
20
-110.58353
10
-37.65061
20
-110.66221
10
-37.86413
20
-110.73566
10
-38.07938
20
-110.80385
10
-38.29624
20
-110.86674
10
-38.51458
20
-110.92429
10
-38.73427
20
-110.97646
10
-38.95517
20
-111.02322
10
-39.17715
20
-111.06455
10
-39.40008
20
-111.10042
10
-39.62382
20
-111.13081
10
-39.84824
20
-111.15570
10
-40.07321
20
-111.17507
10
-40.29858
20
-111.18892
10
-40.52422
20
-111.19723
10
-40.75000
20
-111.20000
10
-40.97578
20
-111.19723
10
-41.20142
20
-111.18892
10
-41.42679
20
-111.17507
10
-41.65176
20
-111.15570
10
-41.87618
20
-111.13081
10
-42.09992
20
-111.10042
10
-42.32285
20
-111.06455
10
-42.54483
20
-111.02322
10
-42.76573
20
-110.97646
10
-42.98542
20
-110.92429
10
-43.20376
20
-110.86674
10
-43.42062
20
-110.80385
10
-43.63587
20
-110.73566
10
-43.84939
20
-110.66221
10
-44.06103
20
-110.58353
10
-44.27069
20
-110.49969
10
-44.47822
20
-110.41073
10
-44.68351
20
-110.31670
10
-44.88642
20
-110.21766
10
-45.08685
20
-110.11368
10
-45.28466
20
-110.00480
10
-45.47975
20
-109.89110
10
-45.67198
20
-109.77265
10
-45.86125
20
-109.64952
10
-46.04744
20
-109.52178
10
-46.23043
20
-109.38951
10
-46.41013
20
-109.25279
10
-46.58642
20
-109.11170
10
-46.75919
20
-108.96632
10
-46.92834
20
-108.81675
10
-47.09377
20
-108.66307
10
-47.25538
20
-108.50538
10
-47.41307
20
-108.34377
10
-47.56675
20
-108.17834
10
-47.71632
20
-108.00919
10
-47.86170
20
-107.83642
10
-48.00279
20
-107.66013
10
-48.13951
20
-107.48043
10
-48.27178
20
-107.29744
10
-48.39952
20
-107.11125
10
-48.52265
20
-106.92198
10
-48.64110
20
-106.72975
10
-48.75480
20
-106.53466
10
-48.86368
20
-106.33685
10
-48.96766
20
-106.13642
10
-49.06670
20
-105.93351
10
-49.16073
20
-105.72822
10
-49.24969
20
-105.52069
10
-49.33353
20
-105.31103
10
-49.41221
20
-105.09939
10
-49.48566
20
-104.88587
10
-49.55385
20
-104.67062
10
-49.61674
20
-104.45376
10
-49.67429
20
-104.23542
10
-49.72646
20
-104.01573
10
-49.77322
20
-103.79483
10
-49.81455
20
-103.57285
10
-49.85042
20
-103.34992
10
-49.88081
20
-103.12618
10
-49.90570
20
-102.90176
10
-49.92507
20
-102.67679
10
-49.93892
20
-102.45142
10
-49.94723
20
-102.22578
10
-49.95000
20
-102.00000
10
-49.94723
20
-101.77422
10
-49.93892
20
-101.54858
10
-49.92507
20
-101.32321
10
-49.90570
20
-101.09824
10
-49.88081
20
-100.87382
10
-49.85042
20
-100.65008
10
-49.81455
20
-100.42715
10
-49.77322
20
-100.20517
10
-49.72646
20
-99.98427
10
-49.67429
20
-99.76458
10
-49.61674
20
-99.54624
10
-49.55385
20
-99.32938
10
-49.48566
20
-99.11413
10
-49.41221
20
-98.90061
10
-49.33353
20
-98.68897
10
-49.24969
20
-98.47931
10
-49.16073
20
-98.27178
10
-49.06670
20
-98.06649
10
-48.96766
20
-97.86358
10
-48.86368
20
-97.66315
10
-48.75480
20
-97.46534
10
-48.64110
20
-97.27025
10
-48.52265
20
-97.07802
10
-48.39952
20
-96.88875
10
-48.27178
20
-96.70256
10
-48.13951
20
-96.51957
10
-48.00279
20
-96.33987
10
-47.86170
20
-96.16358
10
-47.71632
20
-95.99081
10
-47.56675
20
-95.82166
10
-47.41307
20
-95.65623
10
-47.25538
20
-95.49462
10
-47.09377
20
-95.33693
10
-46.92834
20
-95.18325
10
-46.75919
20
-95.03368
10
-46.58642
20
-94.88830
10
-46.41013
20
-94.74721
10
-46.23043
20
-94.61049
10
-46.04744
20
-94.47822
10
-45.86125
20
-94.35048
10
-45.67198
20
-94.22735
10
-45.47975
20
-94.10890
10
-45.28466
20
-93.99520
10
-45.08685
20
-93.88632
10
-44.88642
20
-93.78234
10
-44.68351
20
-93.68330
10
-44.47822
20
-93.58927
10
-44.27069
20
-93.50031
10
-44.06103
20
-93.41647
10
-43.84939
20
-93.33779
10
-43.63587
20
-93.26434
10
-43.42062
20
-93.19615
10
-43.20376
20
-93.13326
10
-42.98542
20
-93.07571
10
-42.76573
20
-93.02354
10
-42.54483
20
-92.97678
10
-42.32285
20
-92.93545
10
-42.09992
20
-92.89958
10
-41.87618
20
-92.86919
10
-41.65176
20
-92.84430
10
-41.42679
20
-92.82493
10
-41.20142
20
-92.81108
10
-40.97578
20
-92.80277
10
-40.75000
20
-92.80000
10
-40.52422
20
-92.80277
10
-40.29858
20
-92.81108
10
-40.07321
20
-92.82493
10
-39.84824
20
-92.84430
10
-39.62382
20
-92.86919
10
-39.40008
20
-92.89958
10
-39.17715
20
-92.93545
10
-38.95517
20
-92.97678
10
-38.73427
20
-93.02354
10
-38.51458
20
-93.07571
10
-38.29624
20
-93.13326
10
-38.07938
20
-93.19615
10
-37.86413
20
-93.26434
10
-37.65061
20
-93.33779
10
-37.43897
20
-93.41647
10
-37.22931
20
-93.50031
10
-37.02178
20
-93.58927
10
-36.81649
20
-93.68330
10
-36.61358
20
-93.78234
10
-36.41315
20
-93.88632
10
-36.21534
20
-93.99520
10
-36.02025
20
-94.10890
10
-35.82802
20
-94.22735
10
-35.63875
20
-94.35048
10
-35.45256
20
-94.47822
10
-35.26957
20
-94.61049
10
-35.08987
20
-94.74721
10
-34.91358
20
-94.88830
10
-34.74081
20
-95.03368
10
-34.57166
20
-95.18325
10
-34.40623
20
-95.33693
10
-34.24462
20
-95.49462
10
-34.08693
20
-95.65623
10
-33.93325
20
-95.82166
10
-33.78368
20
-95.99081
10
-33.63830
20
-96.16358
10
-33.49721
20
-96.33987
10
-33.36049
20
-96.51957
10
-33.22822
20
-96.70256
10
-33.10048
20
-96.88875
10
-32.97735
20
-97.07802
10
-32.85890
20
-97.27025
10
-32.74520
20
-97.46534
10
-32.63632
20
-97.66315
10
-32.53234
20
-97.86358
10
-32.43330
20
-98.06649
10
-32.33927
20
-98.27178
10
-32.25031
20
-98.47931
10
-32.16647
20
-98.68897
10
-32.08779
20
-98.90061
10
-32.01434
20
-99.11413
10
-31.94615
20
-99.32938
10
-31.88326
20
-99.54624
10
-31.82571
20
-99.76458
10
-31.77354
20
-99.98427
10
-31.72678
20
-100.20517
10
-31.68545
20
-100.42715
10
-31.64958
20
-100.65008
10
-31.61919
20
-100.87382
10
-31.59430
20
-101.09824
10
-31.57493
20
-101.32321
0
LWPOLYLINE
100
AcDbEntity
8
CUTLINE
100
AcDbPolyline
90
28
70
1
10
-44.15500
20
-127.06565
10
-44.03682
20
-127.01670
10
-43.91000
20
-127.00000
10
-32.69000
20
-127.00000
10
-32.56318
20
-127.01670
10
-32.44500
20
-127.06565
10
-32.34352
20
-127.14352
10
-32.26565
20
-127.24500
10
-32.21670
20
-127.36318
10
-32.20000
20
-127.49000
10
-32.20000
20
-127.51000
10
-32.21670
20
-127.63682
10
-32.26565
20
-127.75500
10
-32.34352
20
-127.85648
10
-32.44500
20
-127.93435
10
-32.56318
20
-127.98330
10
-32.69000
20
-128.00000
10
-43.91000
20
-128.00000
10
-44.03682
20
-127.98330
10
-44.15500
20
-127.93435
10
-44.25648
20
-127.85648
10
-44.33435
20
-127.75500
10
-44.38330
20
-127.63682
10
-44.40000
20
-127.51000
10
-44.40000
20
-127.49000
10
-44.38330
20
-127.36318
10
-44.33435
20
-127.24500
10
-44.25648
20
-127.14352
0
LWPOLYLINE
100
AcDbEntity
8
CUTLINE
100
AcDbPolyline
90
28
70
1
10
-44.03682
20
-123.21670
10
-43.91000
20
-123.20000
10
-32.69000
20
-123.20000
10
-32.56318
20
-123.21670
10
-32.44500
20
-123.26565
10
-32.34352
20
-123.34352
10
-32.26565
20
-123.44500
10
-32.21670
20
-123.56318
10
-32.20000
20
-123.69000
10
-32.20000
20
-123.71000
10
-32.21670
20
-123.83682
10
-32.26565
20
-123.95500
10
-32.34352
20
-124.05648
10
-32.44500
20
-124.13435
10
-32.56318
20
-124.18330
10
-32.69000
20
-124.20000
10
-43.91000
20
-124.20000
10
-44.03682
20
-124.18330
10
-44.15500
20
-124.13435
10
-44.25648
20
-124.05648
10
-44.33435
20
-123.95500
10
-44.38330
20
-123.83682
10
-44.40000
20
-123.71000
10
-44.40000
20
-123.69000
10
-44.38330
20
-123.56318
10
-44.33435
20
-123.44500
10
-44.25648
20
-123.34352
10
-44.15500
20
-123.26565
0
LWPOLYLINE
100
AcDbEntity
8
CUTLINE
100
AcDbPolyline
90
28
70
1
10
-44.03682
20
-125.11670
10
-43.91000
20
-125.10000
10
-32.69000
20
-125.10000
10
-32.56318
20
-125.11670
10
-32.44500
20
-125.16565
10
-32.34352
20
-125.24352
10
-32.26565
20
-125.34500
10
-32.21670
20
-125.46318
10
-32.20000
20
-125.59000
10
-32.20000
20
-125.61000
10
-32.21670
20
-125.73682
10
-32.26565
20
-125.85500
10
-32.34352
20
-125.95648
10
-32.44500
20
-126.03435
10
-32.56318
20
-126.08330
10
-32.69000
20
-126.10000
10
-43.91000
20
-126.10000
10
-44.03682
20
-126.08330
10
-44.15500
20
-126.03435
10
-44.25648
20
-125.95648
10
-44.33435
20
-125.85500
10
-44.38330
20
-125.73682
10
-44.40000
20
-125.61000
10
-44.40000
20
-125.59000
10
-44.38330
20
-125.46318
10
-44.33435
20
-125.34500
10
-44.25648
20
-125.24352
10
-44.15500
20
-125.16565
0
ENDSEC
0
EOF
