<?xml version="1.0" encoding="UTF-8"?>
<svg xmlns="http://www.w3.org/2000/svg" width="104mm" height="135.3mm" viewBox="-52 0 104 135.3">
<title>STRUTHIO acrylic face film R1 cutline — planning only</title>
<desc>Clear 0.20 mm assumed face film, viewed from the front. Coordinates are mm on the shared R21 PCB XY datum (Y down). Cut paths: outline, two flap-bezel cutouts, DART relief cutout and six vent slots. The display window stays continuous. Supplier must confirm kerf/offset and material compensation.</desc>
<g id="CUTLINE" fill="none" stroke="#d34b56" stroke-width="0.15" fill-rule="evenodd"><path d="M -51.8582,132.4154 L -51.6287,132.8013 L -51.3117,133.1569 L -50.9132,133.4847 L -50.4352,133.7837 L -49.9387,134.0271 L -49.3046,134.2786 L -48.6036,134.4997 L -47.8395,134.6919 L -47.0158,134.8563 L -45.2031,135.1050 L -43.1936,135.2514 L -41.0173,135.2998 L -39.7786,135.2845 L -37.2513,135.1727 L -33.1067,134.8291 L -30.1702,134.5081 L -27.1340,134.1346 L -16.1380,132.6677 L -11.4412,132.0918 L -8.3979,131.7709 L -5.4925,131.5232 L -2.6854,131.3597 L -1.3391,131.3159 L 0.0343,131.3004 L 2.6854,131.3597 L 5.4521,131.5202 L 8.4279,131.7738 L 11.4412,132.0918 L 14.5539,132.4653 L 27.1218,134.1330 L 31.6286,134.6736 L 35.9053,135.0791 L 38.5263,135.2409 L 39.7786,135.2845 L 42.0898,135.2884 L 44.1794,135.1938 L 46.0826,135.0010 L 47.7687,134.7077 L 48.5207,134.5229 L 49.2067,134.3127 L 49.8229,134.0777 L 50.4006,133.8016 L 50.9132,133.4847 L 51.2675,133.1962 L 51.6540,132.7616 L 51.8583,132.4152 L 51.9982,131.9998 L 51.8991,131.4017 L 51.7851,130.8710 L 51.5134,129.8915 L 50.5424,127.2160 L 50.1477,125.9126 L 50.0082,125.2772 L 49.8680,124.3205 L 49.8016,123.0670 L 49.8163,122.3516 L 49.8974,121.3743 L 49.9981,120.6979 L 50.1080,120.3095 L 50.2690,119.9394 L 50.4782,119.5942 L 50.7319,119.2802 L 51.0970,118.9033 L 51.3568,118.5203 L 51.5522,118.0401 L 51.6397,117.5107 L 51.7294,115.9468 L 51.8609,111.9864 L 51.9299,107.6660 L 51.9495,103.1140 L 51.8984,102.0197 L 51.9783,98.8315 L 51.9998,96.0439 L 51.9380,94.9533 L 51.7832,94.0398 L 51.5365,93.1709 L 51.1741,92.2699 L 50.7018,91.3910 L 50.1892,90.6198 L 49.6802,89.9706 L 48.9649,89.1849 L 48.2662,88.5156 L 46.7603,87.2745 L 45.6787,86.0549 L 43.6227,84.1167 L 41.3953,82.2810 L 39.3165,80.6352 L 37.4101,79.0101 L 35.6371,77.1729 L 34.4077,75.3859 L 34.1815,74.9885 L 33.4564,73.1148 L 33.3062,72.5749 L 33.0020,69.8295 L 33.0004,5.9690 L 32.9680,5.1885 L 32.8637,4.3440 L 32.6922,3.6092 L 32.4670,2.8881 L 32.4075,2.4691 L 32.3856,1.9652 L 32.3091,1.5807 L 32.1448,1.1716 L 31.9636,0.8802 L 31.7052,0.5855 L 31.3583,0.3133 L 30.9192,0.0967 L 30.5080,0.0000 L -30.5080,0.0000 L -30.9192,0.0967 L -31.3583,0.3133 L -31.7745,0.6548 L -32.0467,1.0017 L -32.2085,1.3042 L -32.3345,1.6755 L -32.4670,2.8881 L -32.6922,3.6092 L -32.8496,4.2673 L -32.9558,5.0456 L -33.0017,6.0330 L -33.0020,69.8295 L -33.3062,72.5749 L -33.4564,73.1148 L -34.1815,74.9885 L -34.4077,75.3859 L -35.6371,77.1729 L -37.4101,79.0101 L -39.3166,80.6352 L -41.4116,82.2942 L -43.6227,84.1167 L -45.6787,86.0549 L -46.7603,87.2745 L -48.2662,88.5156 L -48.9649,89.1849 L -49.6802,89.9706 L -50.1892,90.6198 L -50.7018,91.3910 L -51.1741,92.2699 L -51.5365,93.1709 L -51.7832,94.0398 L -51.9380,94.9533 L -51.9998,96.0440 L -51.9786,98.8091 L -51.8983,102.0199 L -51.9495,103.1141 L -51.9298,107.6794 L -51.8613,111.9656 L -51.7294,115.9468 L -51.6397,117.5107 L -51.5522,118.0401 L -51.3568,118.5203 L -51.0970,118.9033 L -50.7319,119.2802 L -50.4782,119.5942 L -50.2690,119.9394 L -50.1080,120.3095 L -49.9981,120.6979 L -49.8974,121.3743 L -49.8163,122.3516 L -49.8016,123.0670 L -49.8680,124.3205 L -50.0082,125.2772 L -50.1477,125.9126 L -50.5424,127.2160 L -51.5273,129.9358 L -51.7993,130.9317 L -51.9914,131.9483 Z M 49.9389,101.5486 L 49.9472,101.7742 L 49.9500,102.0000 L 49.9472,102.2258 L 49.9389,102.4514 L 49.9251,102.6768 L 49.9057,102.9018 L 49.8808,103.1262 L 49.8504,103.3499 L 49.8146,103.5728 L 49.7732,103.7948 L 49.7265,104.0157 L 49.6743,104.2354 L 49.6167,104.4538 L 49.5539,104.6706 L 49.4857,104.8859 L 49.4122,105.0994 L 49.3335,105.3110 L 49.2497,105.5207 L 49.1607,105.7282 L 49.0667,105.9335 L 48.9677,106.1364 L 48.8637,106.3368 L 48.7548,106.5347 L 48.6411,106.7297 L 48.5227,106.9220 L 48.3995,107.1112 L 48.2718,107.2974 L 48.1395,107.4804 L 48.0028,107.6601 L 47.8617,107.8364 L 47.7163,108.0092 L 47.5668,108.1783 L 47.4131,108.3438 L 47.2554,108.5054 L 47.0938,108.6631 L 46.9283,108.8168 L 46.7592,108.9663 L 46.5864,109.1117 L 46.4101,109.2528 L 46.2304,109.3895 L 46.0474,109.5218 L 45.8612,109.6495 L 45.6720,109.7727 L 45.4797,109.8911 L 45.2847,110.0048 L 45.0868,110.1137 L 44.8864,110.2177 L 44.6835,110.3167 L 44.4782,110.4107 L 44.2707,110.4997 L 44.0610,110.5835 L 43.8494,110.6622 L 43.6359,110.7357 L 43.4206,110.8039 L 43.2038,110.8667 L 42.9854,110.9243 L 42.7657,110.9765 L 42.5448,111.0232 L 42.3228,111.0646 L 42.0999,111.1004 L 41.8762,111.1308 L 41.6518,111.1557 L 41.4268,111.1751 L 41.2014,111.1889 L 40.9758,111.1972 L 40.7500,111.2000 L 40.5242,111.1972 L 40.2986,111.1889 L 40.0732,111.1751 L 39.8482,111.1557 L 39.6238,111.1308 L 39.4001,111.1004 L 39.1772,111.0646 L 38.9552,111.0232 L 38.7343,110.9765 L 38.5146,110.9243 L 38.2962,110.8667 L 38.0794,110.8039 L 37.8641,110.7357 L 37.6506,110.6622 L 37.4390,110.5835 L 37.2293,110.4997 L 37.0218,110.4107 L 36.8165,110.3167 L 36.6136,110.2177 L 36.4132,110.1137 L 36.2153,110.0048 L 36.0203,109.8911 L 35.8280,109.7727 L 35.6388,109.6495 L 35.4526,109.5218 L 35.2696,109.3895 L 35.0899,109.2528 L 34.9136,109.1117 L 34.7408,108.9663 L 34.5717,108.8168 L 34.4062,108.6631 L 34.2446,108.5054 L 34.0869,108.3438 L 33.9332,108.1783 L 33.7837,108.0092 L 33.6383,107.8364 L 33.4972,107.6601 L 33.3605,107.4804 L 33.2282,107.2974 L 33.1005,107.1112 L 32.9773,106.9220 L 32.8589,106.7297 L 32.7452,106.5347 L 32.6363,106.3368 L 32.5323,106.1364 L 32.4333,105.9335 L 32.3393,105.7282 L 32.2503,105.5207 L 32.1665,105.3110 L 32.0878,105.0994 L 32.0143,104.8859 L 31.9461,104.6706 L 31.8833,104.4538 L 31.8257,104.2354 L 31.7735,104.0157 L 31.7268,103.7948 L 31.6854,103.5728 L 31.6496,103.3499 L 31.6192,103.1262 L 31.5943,102.9018 L 31.5749,102.6768 L 31.5611,102.4514 L 31.5528,102.2258 L 31.5500,102.0000 L 31.5528,101.7742 L 31.5611,101.5486 L 31.5749,101.3232 L 31.5943,101.0982 L 31.6192,100.8738 L 31.6496,100.6501 L 31.6854,100.4272 L 31.7268,100.2052 L 31.7735,99.9843 L 31.8257,99.7646 L 31.8833,99.5462 L 31.9461,99.3294 L 32.0143,99.1141 L 32.0878,98.9006 L 32.1665,98.6890 L 32.2503,98.4793 L 32.3393,98.2718 L 32.4333,98.0665 L 32.5323,97.8636 L 32.6363,97.6632 L 32.7452,97.4653 L 32.8589,97.2703 L 32.9773,97.0780 L 33.1005,96.8888 L 33.2282,96.7026 L 33.3605,96.5196 L 33.4972,96.3399 L 33.6383,96.1636 L 33.7837,95.9908 L 33.9332,95.8217 L 34.0869,95.6562 L 34.2446,95.4946 L 34.4062,95.3369 L 34.5717,95.1832 L 34.7408,95.0337 L 34.9136,94.8883 L 35.0899,94.7472 L 35.2696,94.6105 L 35.4526,94.4782 L 35.6388,94.3505 L 35.8280,94.2273 L 36.0203,94.1089 L 36.2153,93.9952 L 36.4132,93.8863 L 36.6136,93.7823 L 36.8165,93.6833 L 37.0218,93.5893 L 37.2293,93.5003 L 37.4390,93.4165 L 37.6506,93.3378 L 37.8641,93.2643 L 38.0794,93.1961 L 38.2962,93.1333 L 38.5146,93.0757 L 38.7343,93.0235 L 38.9552,92.9768 L 39.1772,92.9354 L 39.4001,92.8996 L 39.6238,92.8692 L 39.8482,92.8443 L 40.0732,92.8249 L 40.2986,92.8111 L 40.5242,92.8028 L 40.7500,92.8000 L 40.9758,92.8028 L 41.2014,92.8111 L 41.4268,92.8249 L 41.6518,92.8443 L 41.8762,92.8692 L 42.0999,92.8996 L 42.3228,92.9354 L 42.5448,92.9768 L 42.7657,93.0235 L 42.9854,93.0757 L 43.2038,93.1333 L 43.4206,93.1961 L 43.6359,93.2643 L 43.8494,93.3378 L 44.0610,93.4165 L 44.2707,93.5003 L 44.4782,93.5893 L 44.6835,93.6833 L 44.8864,93.7823 L 45.0868,93.8863 L 45.2847,93.9952 L 45.4797,94.1089 L 45.6720,94.2273 L 45.8612,94.3505 L 46.0474,94.4782 L 46.2304,94.6105 L 46.4101,94.7472 L 46.5864,94.8883 L 46.7592,95.0337 L 46.9283,95.1832 L 47.0938,95.3369 L 47.2554,95.4946 L 47.4131,95.6562 L 47.5668,95.8217 L 47.7163,95.9908 L 47.8617,96.1636 L 48.0028,96.3399 L 48.1395,96.5196 L 48.2718,96.7026 L 48.3995,96.8888 L 48.5227,97.0780 L 48.6411,97.2703 L 48.7548,97.4653 L 48.8637,97.6632 L 48.9677,97.8636 L 49.0667,98.0665 L 49.1607,98.2718 L 49.2497,98.4793 L 49.3335,98.6890 L 49.4122,98.9006 L 49.4857,99.1141 L 49.5539,99.3294 L 49.6167,99.5462 L 49.6743,99.7646 L 49.7265,99.9843 L 49.7732,100.2052 L 49.8146,100.4272 L 49.8504,100.6501 L 49.8808,100.8738 L 49.9057,101.0982 L 49.9251,101.3232 Z M 32.4450,127.0656 L 32.5632,127.0167 L 32.6900,127.0000 L 43.9100,127.0000 L 44.0368,127.0167 L 44.1550,127.0656 L 44.2565,127.1435 L 44.3344,127.2450 L 44.3833,127.3632 L 44.4000,127.4900 L 44.4000,127.5100 L 44.3833,127.6368 L 44.3344,127.7550 L 44.2565,127.8565 L 44.1550,127.9344 L 44.0368,127.9833 L 43.9100,128.0000 L 32.6900,128.0000 L 32.5632,127.9833 L 32.4450,127.9344 L 32.3435,127.8565 L 32.2656,127.7550 L 32.2167,127.6368 L 32.2000,127.5100 L 32.2000,127.4900 L 32.2167,127.3632 L 32.2656,127.2450 L 32.3435,127.1435 Z M 32.5632,123.2167 L 32.6900,123.2000 L 43.9100,123.2000 L 44.0368,123.2167 L 44.1550,123.2656 L 44.2565,123.3435 L 44.3344,123.4450 L 44.3833,123.5632 L 44.4000,123.6900 L 44.4000,123.7100 L 44.3833,123.8368 L 44.3344,123.9550 L 44.2565,124.0565 L 44.1550,124.1344 L 44.0368,124.1833 L 43.9100,124.2000 L 32.6900,124.2000 L 32.5632,124.1833 L 32.4450,124.1344 L 32.3435,124.0565 L 32.2656,123.9550 L 32.2167,123.8368 L 32.2000,123.7100 L 32.2000,123.6900 L 32.2167,123.5632 L 32.2656,123.4450 L 32.3435,123.3435 L 32.4450,123.2656 Z M 32.5632,125.1167 L 32.6900,125.1000 L 43.9100,125.1000 L 44.0368,125.1167 L 44.1550,125.1656 L 44.2565,125.2435 L 44.3344,125.3450 L 44.3833,125.4632 L 44.4000,125.5900 L 44.4000,125.6100 L 44.3833,125.7368 L 44.3344,125.8550 L 44.2565,125.9565 L 44.1550,126.0344 L 44.0368,126.0833 L 43.9100,126.1000 L 32.6900,126.1000 L 32.5632,126.0833 L 32.4450,126.0344 L 32.3435,125.9565 L 32.2656,125.8550 L 32.2167,125.7368 L 32.2000,125.6100 L 32.2000,125.5900 L 32.2167,125.4632 L 32.2656,125.3450 L 32.3435,125.2435 L 32.4450,125.1656 Z M -22.2004,115.1394 L -21.6000,115.1000 L 21.6000,115.1000 L 22.2004,115.1394 L 22.7906,115.2567 L 23.3603,115.4502 L 23.9000,115.7163 L 24.4003,116.0506 L 24.8527,116.4473 L 25.2494,116.8997 L 25.5837,117.4000 L 25.8498,117.9397 L 26.0433,118.5094 L 26.1606,119.0996 L 26.2000,119.7000 L 26.2000,119.9000 L 26.1606,120.5004 L 26.0433,121.0906 L 25.8498,121.6603 L 25.5837,122.2000 L 25.2494,122.7003 L 24.8527,123.1527 L 24.4003,123.5494 L 23.9000,123.8837 L 23.3603,124.1498 L 22.7906,124.3433 L 22.2004,124.4606 L 21.6000,124.5000 L -21.6000,124.5000 L -22.2004,124.4606 L -22.7906,124.3433 L -23.3603,124.1498 L -23.9000,123.8837 L -24.4003,123.5494 L -24.8527,123.1527 L -25.2494,122.7003 L -25.5837,122.2000 L -25.8498,121.6603 L -26.0433,121.0906 L -26.1606,120.5004 L -26.2000,119.9000 L -26.2000,119.7000 L -26.1606,119.0996 L -26.0433,118.5094 L -25.8498,117.9397 L -25.5837,117.4000 L -25.2494,116.8997 L -24.8527,116.4473 L -24.4003,116.0506 L -23.9000,115.7163 L -23.3603,115.4502 L -22.7906,115.2567 Z M -31.5611,101.5486 L -31.5528,101.7742 L -31.5500,102.0000 L -31.5528,102.2258 L -31.5611,102.4514 L -31.5749,102.6768 L -31.5943,102.9018 L -31.6192,103.1262 L -31.6496,103.3499 L -31.6854,103.5728 L -31.7268,103.7948 L -31.7735,104.0157 L -31.8257,104.2354 L -31.8833,104.4538 L -31.9461,104.6706 L -32.0143,104.8859 L -32.0878,105.0994 L -32.1665,105.3110 L -32.2503,105.5207 L -32.3393,105.7282 L -32.4333,105.9335 L -32.5323,106.1364 L -32.6363,106.3368 L -32.7452,106.5347 L -32.8589,106.7297 L -32.9773,106.9220 L -33.1005,107.1112 L -33.2282,107.2974 L -33.3605,107.4804 L -33.4972,107.6601 L -33.6383,107.8364 L -33.7837,108.0092 L -33.9332,108.1783 L -34.0869,108.3438 L -34.2446,108.5054 L -34.4062,108.6631 L -34.5717,108.8168 L -34.7408,108.9663 L -34.9136,109.1117 L -35.0899,109.2528 L -35.2696,109.3895 L -35.4526,109.5218 L -35.6388,109.6495 L -35.8280,109.7727 L -36.0203,109.8911 L -36.2153,110.0048 L -36.4132,110.1137 L -36.6136,110.2177 L -36.8165,110.3167 L -37.0218,110.4107 L -37.2293,110.4997 L -37.4390,110.5835 L -37.6506,110.6622 L -37.8641,110.7357 L -38.0794,110.8039 L -38.2962,110.8667 L -38.5146,110.9243 L -38.7343,110.9765 L -38.9552,111.0232 L -39.1772,111.0646 L -39.4001,111.1004 L -39.6238,111.1308 L -39.8482,111.1557 L -40.0732,111.1751 L -40.2986,111.1889 L -40.5242,111.1972 L -40.7500,111.2000 L -40.9758,111.1972 L -41.2014,111.1889 L -41.4268,111.1751 L -41.6518,111.1557 L -41.8762,111.1308 L -42.0999,111.1004 L -42.3228,111.0646 L -42.5448,111.0232 L -42.7657,110.9765 L -42.9854,110.9243 L -43.2038,110.8667 L -43.4206,110.8039 L -43.6359,110.7357 L -43.8494,110.6622 L -44.0610,110.5835 L -44.2707,110.4997 L -44.4782,110.4107 L -44.6835,110.3167 L -44.8864,110.2177 L -45.0868,110.1137 L -45.2847,110.0048 L -45.4797,109.8911 L -45.6720,109.7727 L -45.8612,109.6495 L -46.0474,109.5218 L -46.2304,109.3895 L -46.4101,109.2528 L -46.5864,109.1117 L -46.7592,108.9663 L -46.9283,108.8168 L -47.0938,108.6631 L -47.2554,108.5054 L -47.4131,108.3438 L -47.5668,108.1783 L -47.7163,108.0092 L -47.8617,107.8364 L -48.0028,107.6601 L -48.1395,107.4804 L -48.2718,107.2974 L -48.3995,107.1112 L -48.5227,106.9220 L -48.6411,106.7297 L -48.7548,106.5347 L -48.8637,106.3368 L -48.9677,106.1364 L -49.0667,105.9335 L -49.1607,105.7282 L -49.2497,105.5207 L -49.3335,105.3110 L -49.4122,105.0994 L -49.4857,104.8859 L -49.5539,104.6706 L -49.6167,104.4538 L -49.6743,104.2354 L -49.7265,104.0157 L -49.7732,103.7948 L -49.8146,103.5728 L -49.8504,103.3499 L -49.8808,103.1262 L -49.9057,102.9018 L -49.9251,102.6768 L -49.9389,102.4514 L -49.9472,102.2258 L -49.9500,102.0000 L -49.9472,101.7742 L -49.9389,101.5486 L -49.9251,101.3232 L -49.9057,101.0982 L -49.8808,100.8738 L -49.8504,100.6501 L -49.8146,100.4272 L -49.7732,100.2052 L -49.7265,99.9843 L -49.6743,99.7646 L -49.6167,99.5462 L -49.5539,99.3294 L -49.4857,99.1141 L -49.4122,98.9006 L -49.3335,98.6890 L -49.2497,98.4793 L -49.1607,98.2718 L -49.0667,98.0665 L -48.9677,97.8636 L -48.8637,97.6632 L -48.7548,97.4653 L -48.6411,97.2703 L -48.5227,97.0780 L -48.3995,96.8888 L -48.2718,96.7026 L -48.1395,96.5196 L -48.0028,96.3399 L -47.8617,96.1636 L -47.7163,95.9908 L -47.5668,95.8217 L -47.4131,95.6562 L -47.2554,95.4946 L -47.0938,95.3369 L -46.9283,95.1832 L -46.7592,95.0337 L -46.5864,94.8883 L -46.4101,94.7472 L -46.2304,94.6105 L -46.0474,94.4782 L -45.8612,94.3505 L -45.6720,94.2273 L -45.4797,94.1089 L -45.2847,93.9952 L -45.0868,93.8863 L -44.8864,93.7823 L -44.6835,93.6833 L -44.4782,93.5893 L -44.2707,93.5003 L -44.0610,93.4165 L -43.8494,93.3378 L -43.6359,93.2643 L -43.4206,93.1961 L -43.2038,93.1333 L -42.9854,93.0757 L -42.7657,93.0235 L -42.5448,92.9768 L -42.3228,92.9354 L -42.0999,92.8996 L -41.8762,92.8692 L -41.6518,92.8443 L -41.4268,92.8249 L -41.2014,92.8111 L -40.9758,92.8028 L -40.7500,92.8000 L -40.5242,92.8028 L -40.2986,92.8111 L -40.0732,92.8249 L -39.8482,92.8443 L -39.6238,92.8692 L -39.4001,92.8996 L -39.1772,92.9354 L -38.9552,92.9768 L -38.7343,93.0235 L -38.5146,93.0757 L -38.2962,93.1333 L -38.0794,93.1961 L -37.8641,93.2643 L -37.6506,93.3378 L -37.4390,93.4165 L -37.2293,93.5003 L -37.0218,93.5893 L -36.8165,93.6833 L -36.6136,93.7823 L -36.4132,93.8863 L -36.2153,93.9952 L -36.0203,94.1089 L -35.8280,94.2273 L -35.6388,94.3505 L -35.4526,94.4782 L -35.2696,94.6105 L -35.0899,94.7472 L -34.9136,94.8883 L -34.7408,95.0337 L -34.5717,95.1832 L -34.4062,95.3369 L -34.2446,95.4946 L -34.0869,95.6562 L -33.9332,95.8217 L -33.7837,95.9908 L -33.6383,96.1636 L -33.4972,96.3399 L -33.3605,96.5196 L -33.2282,96.7026 L -33.1005,96.8888 L -32.9773,97.0780 L -32.8589,97.2703 L -32.7452,97.4653 L -32.6363,97.6632 L -32.5323,97.8636 L -32.4333,98.0665 L -32.3393,98.2718 L -32.2503,98.4793 L -32.1665,98.6890 L -32.0878,98.9006 L -32.0143,99.1141 L -31.9461,99.3294 L -31.8833,99.5462 L -31.8257,99.7646 L -31.7735,99.9843 L -31.7268,100.2052 L -31.6854,100.4272 L -31.6496,100.6501 L -31.6192,100.8738 L -31.5943,101.0982 L -31.5749,101.3232 Z M -44.1550,127.0656 L -44.0368,127.0167 L -43.9100,127.0000 L -32.6900,127.0000 L -32.5632,127.0167 L -32.4450,127.0656 L -32.3435,127.1435 L -32.2656,127.2450 L -32.2167,127.3632 L -32.2000,127.4900 L -32.2000,127.5100 L -32.2167,127.6368 L -32.2656,127.7550 L -32.3435,127.8565 L -32.4450,127.9344 L -32.5632,127.9833 L -32.6900,128.0000 L -43.9100,128.0000 L -44.0368,127.9833 L -44.1550,127.9344 L -44.2565,127.8565 L -44.3344,127.7550 L -44.3833,127.6368 L -44.4000,127.5100 L -44.4000,127.4900 L -44.3833,127.3632 L -44.3344,127.2450 L -44.2565,127.1435 Z M -44.0368,123.2167 L -43.9100,123.2000 L -32.6900,123.2000 L -32.5632,123.2167 L -32.4450,123.2656 L -32.3435,123.3435 L -32.2656,123.4450 L -32.2167,123.5632 L -32.2000,123.6900 L -32.2000,123.7100 L -32.2167,123.8368 L -32.2656,123.9550 L -32.3435,124.0565 L -32.4450,124.1344 L -32.5632,124.1833 L -32.6900,124.2000 L -43.9100,124.2000 L -44.0368,124.1833 L -44.1550,124.1344 L -44.2565,124.0565 L -44.3344,123.9550 L -44.3833,123.8368 L -44.4000,123.7100 L -44.4000,123.6900 L -44.3833,123.5632 L -44.3344,123.4450 L -44.2565,123.3435 L -44.1550,123.2656 Z M -44.0368,125.1167 L -43.9100,125.1000 L -32.6900,125.1000 L -32.5632,125.1167 L -32.4450,125.1656 L -32.3435,125.2435 L -32.2656,125.3450 L -32.2167,125.4632 L -32.2000,125.5900 L -32.2000,125.6100 L -32.2167,125.7368 L -32.2656,125.8550 L -32.3435,125.9565 L -32.4450,126.0344 L -32.5632,126.0833 L -32.6900,126.1000 L -43.9100,126.1000 L -44.0368,126.0833 L -44.1550,126.0344 L -44.2565,125.9565 L -44.3344,125.8550 L -44.3833,125.7368 L -44.4000,125.6100 L -44.4000,125.5900 L -44.3833,125.4632 L -44.3344,125.3450 L -44.2565,125.2435 L -44.1550,125.1656 Z"/></g>
</svg>
