G04 #@! TF.GenerationSoftware,KiCad,Pcbnew,7.0.11+dfsg-1build4*
G04 #@! TF.CreationDate,2026-10-02T13:13:11+00:00*
G04 #@! TF.ProjectId,struthio_one,73747275-7468-4696-9f5f-6f6e652e6b69,rev?*
G04 #@! TF.SameCoordinates,Original*
G04 #@! TF.FileFunction,Profile,NP*
%FSLAX46Y46*%
G04 Gerber Fmt 4.6, Leading zero omitted, Abs format (unit mm)*
G04 Created by KiCad (PCBNEW 7.0.11+dfsg-1build4) date 2026-10-02 13:13:11*
%MOMM*%
%LPD*%
G01*
G04 APERTURE LIST*
G04 #@! TA.AperFunction,Profile*
%ADD10C,0.100000*%
G04 #@! TD*
G04 APERTURE END LIST*
D10*
X133610182Y-140412201D02*
X133609682Y-140410766D01*
X134535102Y-163772170D02*
X134535257Y-163770300D01*
X66141403Y-141123828D02*
X66141187Y-141124454D01*
X133357903Y-139672585D02*
X133357835Y-139672380D01*
X83858563Y-168854529D02*
X83863937Y-168854247D01*
X134630444Y-144362572D02*
X134630241Y-144360915D01*
X133266100Y-168887822D02*
X133298610Y-168857811D01*
X65126766Y-148900938D02*
X65117831Y-149328371D01*
X66105810Y-167809030D02*
X66107322Y-167814227D01*
X70040779Y-161391344D02*
X70189417Y-161340889D01*
X126512741Y-119957258D02*
X126788730Y-120271963D01*
X134331521Y-142670544D02*
X134330915Y-142668159D01*
X126788730Y-124168036D02*
X126512741Y-124482741D01*
X114220595Y-168768179D02*
X114221714Y-168768227D01*
X134900384Y-153274022D02*
X134900414Y-153271013D01*
X89757465Y-168621715D02*
X89757796Y-168621704D01*
X128460769Y-161899999D02*
X128547975Y-161769486D01*
X133521501Y-140156797D02*
X133520851Y-140154901D01*
X65134761Y-155394672D02*
X65134772Y-155395184D01*
X67113800Y-138308468D02*
X67113650Y-138308882D01*
X134375031Y-165171089D02*
X134427161Y-164794749D01*
X104097506Y-168480037D02*
X104098820Y-168480056D01*
X130257384Y-64056103D02*
X130240110Y-64028326D01*
X133905583Y-167768956D02*
X133935080Y-167661066D01*
X68190558Y-135459299D02*
X68188799Y-135463503D01*
X132480750Y-137204797D02*
X132480671Y-137204586D01*
X65991578Y-141567888D02*
X65991192Y-141569053D01*
X66637788Y-139685522D02*
X66637578Y-139686151D01*
X65778611Y-142258387D02*
X65778063Y-142260324D01*
X133615015Y-140426055D02*
X133614693Y-140425133D01*
X110257761Y-168622194D02*
X110258098Y-168622205D01*
X134567445Y-143894655D02*
X134567197Y-143892928D01*
X65692038Y-165613922D02*
X65692169Y-165614784D01*
X132163806Y-136359803D02*
X132163747Y-136359647D01*
X70959220Y-161391344D02*
X71100000Y-161460769D01*
X71537107Y-169849466D02*
X71675455Y-169846862D01*
X131274629Y-134175883D02*
X131241620Y-134090967D01*
X131101733Y-133711942D02*
X131099124Y-133704516D01*
X133952238Y-167595017D02*
X133953312Y-167590717D01*
X66389817Y-140412201D02*
X66389724Y-140412469D01*
X134771931Y-158947442D02*
X134788973Y-158322632D01*
X65095373Y-151223746D02*
X65095371Y-151224186D01*
X65186944Y-146952923D02*
X65174216Y-147296133D01*
X65161359Y-147674919D02*
X65161297Y-147676827D01*
X133205290Y-139217350D02*
X133205091Y-139216767D01*
X134890011Y-149782199D02*
X134890004Y-149781773D01*
X120897489Y-169216605D02*
X120898016Y-169216655D01*
X108220913Y-168563467D02*
X108221268Y-168563476D01*
X67837293Y-136356793D02*
X67837271Y-136356914D01*
X131360003Y-134389789D02*
X131359589Y-134388771D01*
X65093878Y-152235742D02*
X65095752Y-152741168D01*
X134890113Y-149788612D02*
X134890067Y-149785621D01*
X65339598Y-144624191D02*
X65339431Y-144625760D01*
X134882307Y-149335458D02*
X134882248Y-149332368D01*
X80046157Y-169129090D02*
X80048689Y-169128861D01*
X134812566Y-146940439D02*
X134799253Y-146617624D01*
X66953072Y-138760242D02*
X66951921Y-138763508D01*
X110259546Y-168622251D02*
X110261249Y-168622306D01*
X134767607Y-145978604D02*
X134767243Y-145972363D01*
X67029384Y-138544414D02*
X66953241Y-138759762D01*
X93854591Y-168515331D02*
X93855813Y-168515306D01*
X134882168Y-149328371D02*
X134873233Y-148900938D01*
X68477311Y-134781745D02*
X68476711Y-134783166D01*
X94888971Y-168495939D02*
X94890865Y-168495908D01*
X68257784Y-135299228D02*
X68257619Y-135299621D01*
X131196705Y-133972984D02*
X131171527Y-133905427D01*
X89757796Y-168621704D02*
X89759470Y-168621653D01*
X106166470Y-168515761D02*
X106166841Y-168515769D01*
X117114874Y-168908548D02*
X117116473Y-168908654D01*
X134906245Y-151723471D02*
X134906241Y-151720574D01*
X133796733Y-168103460D02*
X133799627Y-168095805D01*
X112263479Y-168690846D02*
X112265095Y-168690906D01*
X65692194Y-165614948D02*
X65692309Y-165615703D01*
X73085910Y-169774107D02*
X73087631Y-169773992D01*
X88753498Y-168654705D02*
X88753835Y-168654694D01*
X65567027Y-164750031D02*
X65569491Y-164769494D01*
X65919673Y-141790595D02*
X65916626Y-141800150D01*
X132803460Y-169252196D02*
X132835308Y-169231514D01*
X107175152Y-168537704D02*
X107175504Y-168537712D01*
X81933524Y-168973393D02*
X81934828Y-168973292D01*
X134798793Y-146606967D02*
X134798597Y-146602624D01*
X132806036Y-138086778D02*
X132805184Y-138084438D01*
X130452024Y-161769486D02*
X130539230Y-161899999D01*
X67357043Y-137641653D02*
X67356416Y-137643353D01*
X68546796Y-134616158D02*
X68545809Y-134618516D01*
X101022175Y-168452000D02*
X101022634Y-168452002D01*
X121823886Y-169306377D02*
X121824156Y-169306404D01*
X68640410Y-134388771D02*
X68639996Y-134389789D01*
X69391344Y-162040779D02*
X69460769Y-161899999D01*
X65103508Y-150255618D02*
X65103475Y-150258553D01*
X130230513Y-163452024D02*
X130100000Y-163539230D01*
X134371166Y-165198009D02*
X134371408Y-165196359D01*
X68644652Y-134378293D02*
X68644241Y-134379311D01*
X65615574Y-142892343D02*
X65611564Y-142909747D01*
X119915671Y-169125671D02*
X119918194Y-169125895D01*
X68828472Y-133905427D02*
X68803294Y-133972984D01*
X65194979Y-157699748D02*
X65194990Y-157700169D01*
X65607057Y-142929764D02*
X65606480Y-142932363D01*
X68476711Y-134783166D02*
X68476533Y-134783587D01*
X110263033Y-168622364D02*
X111246164Y-168654694D01*
X65093751Y-151727238D02*
X65093857Y-152225195D01*
X133860191Y-141128463D02*
X133858812Y-141124454D01*
X134904612Y-151220858D02*
X134904610Y-151220449D01*
X77266679Y-169396230D02*
X77267920Y-169396352D01*
X134484086Y-164304940D02*
X134485718Y-164289444D01*
X66220523Y-140895821D02*
X66219794Y-140897916D01*
X134826016Y-147302600D02*
X134826002Y-147302229D01*
X134708099Y-160853968D02*
X134708280Y-160849324D01*
X66718150Y-139443676D02*
X66716698Y-139448008D01*
X68695316Y-134252085D02*
X68693583Y-134256450D01*
X65292001Y-145120965D02*
X65291882Y-145122314D01*
X91777006Y-168563522D02*
X91778731Y-168563476D01*
X65149260Y-155943570D02*
X65164365Y-156496667D01*
X116069421Y-168850916D02*
X116070498Y-168850966D01*
X65602656Y-142949809D02*
X65602093Y-142952410D01*
X66245672Y-168208824D02*
X66248535Y-168215627D01*
X66869967Y-138998432D02*
X66869772Y-138998998D01*
X128769486Y-163452024D02*
X128651471Y-163348528D01*
X65268173Y-145423038D02*
X65250690Y-145676657D01*
X131887183Y-135647360D02*
X131886840Y-135646516D01*
X133358850Y-139675431D02*
X133358782Y-139675227D01*
X134090733Y-141823592D02*
X134090289Y-141822162D01*
X66065669Y-141345650D02*
X66063663Y-141351564D01*
X134531277Y-163815357D02*
X134531453Y-163813490D01*
X91776661Y-168563532D02*
X91777006Y-168563522D01*
X94869482Y-168496274D02*
X94870732Y-168496252D01*
X65268931Y-145412431D02*
X65268842Y-145413658D01*
X65161367Y-147674667D02*
X65161359Y-147674919D01*
X109245870Y-168591625D02*
X109246980Y-168591658D01*
X66467322Y-140189218D02*
X66467125Y-140189787D01*
X134650647Y-162088730D02*
X134650702Y-162087695D01*
X73087631Y-169773992D02*
X73099194Y-169773203D01*
X97953524Y-168457796D02*
X97955726Y-168457778D01*
X101024148Y-168452008D02*
X101024615Y-168452010D01*
X127021281Y-120619999D02*
X127206414Y-120995413D01*
X134886972Y-154326797D02*
X134887022Y-154323606D01*
X67438564Y-137421503D02*
X67438039Y-137422916D01*
X132162836Y-136357223D02*
X132162841Y-136357100D01*
X109224413Y-168591006D02*
X109226140Y-168591055D01*
X132560833Y-137419883D02*
X132560764Y-137419699D01*
X134065973Y-167078702D02*
X134069389Y-167061196D01*
X66796264Y-139212806D02*
X66794908Y-139216767D01*
X93833158Y-168515769D02*
X93833529Y-168515761D01*
X131306942Y-134257774D02*
X131306416Y-134256450D01*
X132090327Y-136164088D02*
X132090080Y-136163432D01*
X65122949Y-154866053D02*
X65123020Y-154869377D01*
X131592193Y-134945797D02*
X131591966Y-134945263D01*
X65383767Y-162679142D02*
X65383845Y-162680404D01*
X134130121Y-166730031D02*
X134182574Y-166418547D01*
X65093877Y-152235285D02*
X65093878Y-152235742D01*
X66719826Y-139438697D02*
X66718368Y-139443028D01*
X79136683Y-169213369D02*
X79137203Y-169213321D01*
X134813035Y-146952402D02*
X134812903Y-146948941D01*
X65201432Y-146601961D02*
X65201402Y-146602624D01*
X65164749Y-156511170D02*
X65164754Y-156511366D01*
X128651471Y-163348528D02*
X128547975Y-163230513D01*
X134565509Y-143881334D02*
X134565253Y-143879596D01*
X65099620Y-153274484D02*
X65105237Y-153791289D01*
X132162892Y-136357371D02*
X132162888Y-136357359D01*
X132887439Y-138311906D02*
X132887299Y-138311518D01*
X67837163Y-136357223D02*
X67837111Y-136357359D01*
X96930673Y-168467174D02*
X96932040Y-168467158D01*
X131595016Y-134952448D02*
X131594778Y-134951888D01*
X65318554Y-161471911D02*
X65318810Y-161477621D01*
X68620858Y-134436797D02*
X68618777Y-134441880D01*
X132399973Y-136988757D02*
X132399673Y-136987959D01*
X68405221Y-134951888D02*
X68404983Y-134952448D01*
X65422567Y-163246682D02*
X65422678Y-163248207D01*
X117132631Y-63640356D02*
X117102411Y-63652873D01*
X80038234Y-169129814D02*
X80040762Y-169129581D01*
X131867945Y-169615958D02*
X131873548Y-169614685D01*
X133340269Y-168818322D02*
X133355695Y-168803308D01*
X65517954Y-143371513D02*
X65517533Y-143373815D01*
X86771924Y-168727674D02*
X86772248Y-168727662D01*
X130348528Y-163348528D02*
X130230513Y-163452024D01*
X133713885Y-168298683D02*
X133717440Y-168291234D01*
X65815677Y-166408007D02*
X65815876Y-166409221D01*
X131436064Y-134574952D02*
X131434581Y-134571368D01*
X102043833Y-168457775D02*
X102044273Y-168457778D01*
X68049561Y-135803598D02*
X68049130Y-135804675D01*
X78194099Y-169304616D02*
X79099746Y-169216871D01*
X134767660Y-145979529D02*
X134767607Y-145978604D01*
X65464742Y-163770300D02*
X65464897Y-163772170D01*
X131594725Y-134951764D02*
X131592254Y-134945941D01*
X68175250Y-169625475D02*
X68212890Y-169633346D01*
X132399611Y-136987792D02*
X132399333Y-136987051D01*
X66696567Y-168853300D02*
X66701389Y-168857811D01*
X129985166Y-169828309D02*
X130393206Y-169804225D01*
X131525122Y-134787503D02*
X131524533Y-134786112D01*
X72350845Y-169818747D02*
X72366191Y-169818018D01*
X115154612Y-168808762D02*
X115156314Y-168808837D01*
X133205091Y-139216767D02*
X133203735Y-139212806D01*
X65269533Y-145404274D02*
X65268931Y-145412431D01*
X69540170Y-169799545D02*
X69559485Y-169801021D01*
X65174202Y-147296512D02*
X65174105Y-147299173D01*
X102022052Y-168457614D02*
X102023500Y-168457624D01*
X65200746Y-146617624D02*
X65187433Y-146940439D01*
X65173891Y-147305260D02*
X65173878Y-147305640D01*
X65117684Y-149335896D02*
X65117628Y-149338976D01*
X87753494Y-168690220D02*
X87755164Y-168690159D01*
X134820356Y-157091247D02*
X134820357Y-157091193D01*
X113229162Y-168727716D02*
X113229501Y-168727729D01*
X68450833Y-169677569D02*
X68483509Y-169682955D01*
X134835250Y-156511170D02*
X134835266Y-156510533D01*
X110259206Y-168622240D02*
X110259546Y-168622251D01*
X126887514Y-169772253D02*
X126899080Y-169773082D01*
X134650213Y-162096712D02*
X134650271Y-162095668D01*
X80049459Y-169128792D02*
X80081031Y-169125964D01*
X65187411Y-146940973D02*
X65187273Y-146944416D01*
X132162888Y-136357359D02*
X132162836Y-136357223D01*
X67454164Y-169395349D02*
X67468640Y-169402342D01*
X112248254Y-168690284D02*
X112261712Y-168690780D01*
X134904642Y-151227514D02*
X134904640Y-151227059D01*
X66659730Y-168818322D02*
X66664492Y-168822896D01*
X111268388Y-168655452D02*
X111268717Y-168655464D01*
X97957601Y-168457763D02*
X97958043Y-168457760D01*
X84846800Y-168808700D02*
X84847134Y-168808685D01*
X82999046Y-168901586D02*
X83852852Y-168854836D01*
X129964608Y-169829425D02*
X129966973Y-169829302D01*
X132319633Y-136774535D02*
X132241044Y-136565335D01*
X66871393Y-138994301D02*
X66871203Y-138994850D01*
X65434746Y-143879596D02*
X65434490Y-143881334D01*
X134906240Y-151720130D02*
X134906233Y-151717228D01*
X65985320Y-141586912D02*
X65982794Y-141594686D01*
X68413321Y-169671029D02*
X68445958Y-169676741D01*
X65093857Y-152225195D02*
X65093858Y-152225644D01*
X126914089Y-169774107D02*
X126925657Y-169774856D01*
X99983150Y-168450028D02*
X99984747Y-168450026D01*
X68623053Y-134431421D02*
X68622640Y-134432434D01*
X116503745Y-64488311D02*
X116501605Y-64520952D01*
X121824156Y-169306404D02*
X121825041Y-169306492D01*
X97982472Y-168457585D02*
X97982913Y-168457583D01*
X131453203Y-134616158D02*
X131452904Y-134615444D01*
X134901374Y-150737270D02*
X134901352Y-150734359D01*
X134882379Y-149339406D02*
X134882371Y-149338976D01*
X68120890Y-135627629D02*
X68118537Y-135633347D01*
X66564780Y-139904081D02*
X66563813Y-139906951D01*
X68042997Y-135820073D02*
X68042576Y-135821136D01*
X66715038Y-139452982D02*
X66714820Y-139453636D01*
X133850522Y-167949989D02*
X133868487Y-167893937D01*
X81940424Y-168972863D02*
X81946949Y-168972370D01*
X102023938Y-168457627D02*
X102041956Y-168457760D01*
X65982794Y-141594686D02*
X65982415Y-141595857D01*
X129674478Y-63608824D02*
X129642882Y-63600358D01*
X133882369Y-167848957D02*
X133892677Y-167814227D01*
X66303507Y-140658709D02*
X66303398Y-140659021D01*
X65215531Y-146298410D02*
X65201432Y-146601961D01*
X134061946Y-167098807D02*
X134065456Y-167081317D01*
X134749309Y-145676657D02*
X134731826Y-145423038D01*
X132726176Y-137867925D02*
X132725445Y-137865924D01*
X132887299Y-138311518D02*
X132886349Y-138308882D01*
X134014300Y-141585751D02*
X134011752Y-141577971D01*
X67519249Y-137204797D02*
X67518836Y-137205903D01*
X133615684Y-140427968D02*
X133615586Y-140427689D01*
X134896408Y-150248858D02*
X134896402Y-150248425D01*
X66286114Y-168298683D02*
X66293241Y-168313305D01*
X130735565Y-133247999D02*
X130547766Y-133111778D01*
X134708117Y-145122314D02*
X134707998Y-145120965D01*
X134882315Y-149335896D02*
X134882307Y-149335458D01*
X133534716Y-140195102D02*
X133534060Y-140193210D01*
X132562639Y-137424749D02*
X132562551Y-137424512D01*
X117102411Y-63652873D02*
X117072616Y-63666373D01*
X65148898Y-148069239D02*
X65137508Y-148466230D01*
X76368435Y-169485552D02*
X76370152Y-169485384D01*
X134894669Y-153798872D02*
X134894675Y-153798410D01*
X65137188Y-148478222D02*
X65127027Y-148889495D01*
X126148443Y-169716642D02*
X126156940Y-169717303D01*
X67981954Y-135974951D02*
X67981458Y-135976222D01*
X68901663Y-133702263D02*
X68900875Y-133704516D01*
X133131441Y-169005919D02*
X133135138Y-169002815D01*
X65567670Y-143113539D02*
X65567084Y-143116322D01*
X117979308Y-168967013D02*
X117985832Y-168967472D01*
X66303398Y-140659021D02*
X66303375Y-140659088D01*
X71724766Y-169845488D02*
X71744906Y-169844746D01*
X131164138Y-133885413D02*
X131163425Y-133883470D01*
X124492233Y-169569109D02*
X124492773Y-169569162D01*
X65669084Y-142668159D02*
X65668478Y-142670544D01*
X68641768Y-134385423D02*
X68640410Y-134388771D01*
X122730848Y-169396230D02*
X122732370Y-169396380D01*
X116530358Y-64327117D02*
X116522930Y-64358973D01*
X66384315Y-140427968D02*
X66384004Y-140428857D01*
X65514043Y-164287129D02*
X65514281Y-164289444D01*
X65093754Y-151723471D02*
X65093753Y-151723898D01*
X67356416Y-137643353D02*
X67356329Y-137643590D01*
X68644241Y-134379311D02*
X68642179Y-134384410D01*
X67111473Y-138314928D02*
X67110520Y-138317586D01*
X65179729Y-157094611D02*
X65194948Y-157698530D01*
X116853303Y-63807778D02*
X116828710Y-63829346D01*
X113247696Y-168728446D02*
X113248013Y-168728459D01*
X112244494Y-168690147D02*
X112244835Y-168690159D01*
X65164389Y-156497555D02*
X65164395Y-156497769D01*
X68212890Y-169633346D02*
X68218520Y-169634489D01*
X117194219Y-63618319D02*
X117163245Y-63628834D01*
X65475220Y-143620643D02*
X65473331Y-143632198D01*
X132807974Y-138092119D02*
X132807137Y-138089810D01*
X68621274Y-134435780D02*
X68620858Y-134436797D01*
X134904192Y-152751405D02*
X134904211Y-152748457D01*
X133934330Y-141345650D02*
X133934026Y-141344756D01*
X131206320Y-133998508D02*
X131205699Y-133996873D01*
X117972397Y-168966537D02*
X117973703Y-168966626D01*
X134896486Y-150255186D02*
X134896451Y-150252235D01*
X122732370Y-169396380D02*
X122732395Y-169396383D01*
X93856184Y-168515299D02*
X93858030Y-168515263D01*
X68033252Y-169592908D02*
X68039607Y-169594434D01*
X83868571Y-168854007D02*
X83869649Y-168853953D01*
X134820357Y-157091193D02*
X134820363Y-157090965D01*
X120870364Y-169214030D02*
X120870885Y-169214079D01*
X132889611Y-138317954D02*
X132889479Y-138317586D01*
X109242343Y-168591521D02*
X109243455Y-168591553D01*
X65934543Y-167081317D02*
X65938053Y-167098807D01*
X78174958Y-169306492D02*
X78175843Y-169306404D01*
X129810582Y-161340889D02*
X129959220Y-161391344D01*
X68256281Y-169641933D02*
X68261923Y-169643012D01*
X134906131Y-152232383D02*
X134906132Y-152231924D01*
X132399673Y-136987959D02*
X132399611Y-136987792D01*
X134904189Y-152751880D02*
X134904192Y-152751405D01*
X133614599Y-140424861D02*
X133610671Y-140413604D01*
X96927748Y-168467208D02*
X96928172Y-168467203D01*
X66293241Y-168313305D02*
X66301042Y-168328636D01*
X66637851Y-139685331D02*
X66637788Y-139685522D01*
X112247921Y-168690271D02*
X112248254Y-168690284D01*
X132086507Y-136154015D02*
X132086256Y-136153356D01*
X65692309Y-165615703D02*
X65692335Y-165615867D01*
X65164733Y-156510533D02*
X65164749Y-156511170D01*
X88733287Y-168655394D02*
X88733634Y-168655382D01*
X133050893Y-138771535D02*
X133050717Y-138771031D01*
X99982665Y-168450029D02*
X99983150Y-168450028D01*
X120892157Y-169216095D02*
X120892678Y-169216145D01*
X110242534Y-168621715D02*
X110243633Y-168621749D01*
X115157721Y-168808899D02*
X115158046Y-168808914D01*
X68878843Y-133766819D02*
X68876549Y-133773258D01*
X134904626Y-151223746D02*
X134904612Y-151220858D01*
X67984410Y-169580799D02*
X67990746Y-169582408D01*
X134532775Y-163799098D02*
X134533881Y-163786575D01*
X120894401Y-169216309D02*
X120894915Y-169216358D01*
X131742380Y-135299621D02*
X131742215Y-135299228D01*
X65371138Y-144349843D02*
X65369758Y-144360915D01*
X129885568Y-63696260D02*
X129856720Y-63680841D01*
X134731544Y-160230711D02*
X134731565Y-160230142D01*
X133739749Y-168242898D02*
X133751464Y-168215627D01*
X117017447Y-168902529D02*
X117019046Y-168902623D01*
X119016534Y-169047933D02*
X119906964Y-169124908D01*
X68761092Y-134083954D02*
X68759011Y-134089337D01*
X80081031Y-169125964D02*
X80081805Y-169125895D01*
X67679952Y-136775637D02*
X67679937Y-136775677D01*
X66390413Y-140410490D02*
X66390317Y-140410766D01*
X103067547Y-168467154D02*
X103067959Y-168467158D01*
X121807282Y-169304751D02*
X121808685Y-169304887D01*
X134752758Y-159591909D02*
X134752850Y-159589070D01*
X134659088Y-144612062D02*
X134657915Y-144601519D01*
X134708905Y-145131371D02*
X134708117Y-145122314D01*
X65847947Y-142022171D02*
X65847436Y-142023856D01*
X66063364Y-141352448D02*
X66061367Y-141358371D01*
X67532005Y-169431017D02*
X67546592Y-169437218D01*
X65148981Y-148066419D02*
X65148908Y-148068884D01*
X65291692Y-160848625D02*
X65291719Y-160849324D01*
X119958471Y-169129511D02*
X119959237Y-169129581D01*
X132162797Y-136357116D02*
X132162721Y-136356916D01*
X100998440Y-168451914D02*
X101000753Y-168451920D01*
X77267920Y-169396352D02*
X78174692Y-169306518D01*
X104076533Y-168479744D02*
X104078538Y-168479771D01*
X134904247Y-152741168D02*
X134906121Y-152235742D01*
X67799899Y-169528641D02*
X67846333Y-169542795D01*
X132775547Y-169269791D02*
X132797046Y-169256291D01*
X134628653Y-144348197D02*
X134602129Y-144140945D01*
X131523288Y-134783166D02*
X131522688Y-134781745D01*
X65754561Y-166022283D02*
X65755218Y-166026502D01*
X131436359Y-134575662D02*
X131436064Y-134574952D01*
X97956166Y-168457775D02*
X97957601Y-168457763D01*
X132021837Y-135984716D02*
X132018541Y-135976222D01*
X132088422Y-136159052D02*
X132088176Y-136158404D01*
X107172985Y-168537656D02*
X107173351Y-168537664D01*
X131357820Y-134384410D02*
X131355758Y-134379311D01*
X87734578Y-168690918D02*
X87734904Y-168690906D01*
X130377069Y-64358973D02*
X130369641Y-64327117D01*
X68404914Y-134952612D02*
X68404629Y-134953281D01*
X65148908Y-148068884D02*
X65148898Y-148069239D01*
X65512256Y-164269306D02*
X65512483Y-164271623D01*
X70603306Y-169850000D02*
X71480418Y-169850000D01*
X133206644Y-139221318D02*
X133205290Y-139217350D01*
X65210909Y-158318242D02*
X65210942Y-158319514D01*
X67887270Y-169554683D02*
X67893559Y-169556457D01*
X131953727Y-135811827D02*
X131950869Y-135804675D01*
X131099124Y-133704516D02*
X131098336Y-133702263D01*
X131304160Y-134250765D02*
X131282727Y-134196542D01*
X95896652Y-168480125D02*
X95897047Y-168480118D01*
X133610671Y-140413604D02*
X133610573Y-140413325D01*
X126127662Y-169714946D02*
X126128934Y-169715053D01*
X127206414Y-120995413D02*
X127340962Y-121391779D01*
X134784176Y-146292328D02*
X134784138Y-146291539D01*
X65215823Y-146292328D02*
X65215569Y-146297615D01*
X129343368Y-163689733D02*
X129189417Y-163659110D01*
X103048139Y-168466945D02*
X103048557Y-168466949D01*
X131592254Y-134945941D02*
X131592193Y-134945797D01*
X105109134Y-168495908D02*
X105111028Y-168495939D01*
X131595085Y-134952612D02*
X131595016Y-134952448D01*
X69547975Y-163230513D02*
X69460769Y-163100000D01*
X134488356Y-143406929D02*
X134485651Y-143391516D01*
X65814155Y-166398681D02*
X65814350Y-166399884D01*
X117385758Y-63576951D02*
X117353328Y-63581220D01*
X105107050Y-168495874D02*
X105107439Y-168495880D01*
X119959237Y-169129581D02*
X119961765Y-169129814D01*
X131282205Y-134195218D02*
X131280482Y-134190842D01*
X68132054Y-169615958D02*
X68169633Y-169624267D01*
X132964993Y-169139270D02*
X132973412Y-169132920D01*
X104074804Y-168479722D02*
X104076128Y-168479739D01*
X78193834Y-169304642D02*
X78194099Y-169304616D01*
X128517230Y-169849994D02*
X128519581Y-169850000D01*
X132807137Y-138089810D02*
X132807000Y-138089431D01*
X65247241Y-159591909D02*
X65247255Y-159592349D01*
X134882248Y-149332368D02*
X134882239Y-149331900D01*
X134083829Y-141801585D02*
X134083373Y-141800150D01*
X100011882Y-168450022D02*
X100012371Y-168450023D01*
X132479805Y-137202264D02*
X132479761Y-137202148D01*
X68190815Y-135458686D02*
X68190558Y-135459299D01*
X71698614Y-169846296D02*
X71701617Y-169846212D01*
X66548069Y-139953475D02*
X66547084Y-139956361D01*
X68548887Y-134611151D02*
X68548588Y-134611867D01*
X66476469Y-140162698D02*
X66476273Y-140163269D01*
X68331952Y-135124219D02*
X68331924Y-135124287D01*
X65095406Y-151217543D02*
X65095389Y-151220449D01*
X68045843Y-135812903D02*
X68042997Y-135820073D01*
X68115843Y-135639926D02*
X68115492Y-135640787D01*
X65471204Y-143645484D02*
X65470931Y-143647210D01*
X111266365Y-168655382D02*
X111266712Y-168655394D01*
X134069389Y-167061196D02*
X134069891Y-167058585D01*
X133361765Y-139684184D02*
X133361565Y-139683583D01*
X67519710Y-137203561D02*
X67519328Y-137204586D01*
X66389724Y-140412469D02*
X66389426Y-140413325D01*
X65095810Y-152751880D02*
X65099521Y-153263586D01*
X82990557Y-168902064D02*
X82992157Y-168901973D01*
X67468640Y-169402342D02*
X67493151Y-169413699D01*
X89759821Y-168621642D02*
X89760944Y-168621608D01*
X134274436Y-142450183D02*
X134273842Y-142448014D01*
X108201073Y-168562952D02*
X108201413Y-168562960D01*
X65339431Y-144625760D02*
X65338325Y-144636310D01*
X128899999Y-161460769D02*
X129040779Y-161391344D01*
X122733027Y-169396894D02*
X122733078Y-169396909D01*
X98972634Y-168452023D02*
X98973097Y-168452021D01*
X110261571Y-168622316D02*
X110262686Y-168622353D01*
X110239055Y-168621608D02*
X110240178Y-168621642D01*
X133261219Y-168892268D02*
X133266100Y-168887822D01*
X66222316Y-140890680D02*
X66222203Y-140891003D01*
X65117751Y-149332368D02*
X65117692Y-149335458D01*
X131881811Y-135634199D02*
X131881462Y-135633347D01*
X128651471Y-161651471D02*
X128769486Y-161547975D01*
X132560764Y-137419699D02*
X132481215Y-137206044D01*
X134524493Y-143618914D02*
X134522564Y-143607368D01*
X117025929Y-168903034D02*
X117091518Y-168907047D01*
X93838946Y-168515648D02*
X93854214Y-168515338D01*
X115500000Y-133500000D02*
X69169300Y-133500000D01*
X133203735Y-139212806D02*
X133203525Y-139212194D01*
X95900776Y-168480062D02*
X95901179Y-168480056D01*
X133208395Y-139226475D02*
X133208190Y-139225870D01*
X65423442Y-163258441D02*
X65423558Y-163259962D01*
X68875853Y-133775206D02*
X68872358Y-133784952D01*
X100017334Y-168450029D02*
X100995989Y-168451908D01*
X65691872Y-165612838D02*
X65691890Y-165612952D01*
X65774419Y-142273312D02*
X65773880Y-142275248D01*
X129401695Y-169849974D02*
X129435209Y-169849639D01*
X130393048Y-64455758D02*
X130388779Y-64423328D01*
X131170806Y-133903485D02*
X131168433Y-133897078D01*
X66466137Y-140192639D02*
X66465939Y-140193210D01*
X82892005Y-168908095D02*
X82900001Y-168907580D01*
X129478701Y-169848769D02*
X129512201Y-169847763D01*
X68521136Y-169688800D02*
X68526027Y-169689532D01*
X85796918Y-168767439D02*
X85798005Y-168767393D01*
X114218609Y-168768094D02*
X114220262Y-168768164D01*
X78176113Y-169306377D02*
X78177443Y-169306246D01*
X129966973Y-169829302D02*
X129982810Y-169828442D01*
X121825307Y-169306518D02*
X122730831Y-169396228D01*
X130140653Y-63898710D02*
X130118293Y-63874836D01*
X103069751Y-168467179D02*
X103071827Y-168467203D01*
X130398394Y-64520952D02*
X130396254Y-64488311D01*
X133130032Y-138998432D02*
X133128796Y-138994850D01*
X66117630Y-167848957D02*
X66119197Y-167854135D01*
X65270248Y-145394889D02*
X65269625Y-145403049D01*
X134287235Y-142498194D02*
X134283419Y-142483616D01*
X128481003Y-169849727D02*
X128483357Y-169849755D01*
X134838712Y-147677132D02*
X134838702Y-147676827D01*
X134567197Y-143892928D02*
X134565509Y-143881334D01*
X88750379Y-168654809D02*
X88752069Y-168654752D01*
X66574987Y-168730331D02*
X66587664Y-168744530D01*
X69340889Y-162810582D02*
X69310266Y-162656631D01*
X67500495Y-169417030D02*
X67532005Y-169431017D01*
X131232450Y-134067142D02*
X131231826Y-134065508D01*
X65319155Y-161485027D02*
X65319431Y-161490739D01*
X65630466Y-165208992D02*
X65630712Y-165210629D01*
X78191028Y-169304915D02*
X78191314Y-169304887D01*
X65231543Y-145993884D02*
X65216474Y-146279412D01*
X68169633Y-169624267D02*
X68175250Y-169625475D01*
X119914908Y-169125604D02*
X119915671Y-169125671D01*
X65839656Y-142049862D02*
X65787174Y-142228588D01*
X133125912Y-138986539D02*
X133125722Y-138985993D01*
X65464897Y-163772170D02*
X65465956Y-163784703D01*
X131123450Y-133773258D02*
X131121156Y-133766819D01*
X65179723Y-157094365D02*
X65179724Y-157094407D01*
X127613879Y-169816979D02*
X127616172Y-169817104D01*
X134835304Y-156509081D02*
X134835322Y-156508412D01*
X134244781Y-166026502D02*
X134245438Y-166022283D01*
X130221937Y-64001128D02*
X130202885Y-63974540D01*
X66869772Y-138998998D02*
X66796474Y-139212194D01*
X134184123Y-166409221D02*
X134184322Y-166408007D01*
X109243797Y-168591563D02*
X109245530Y-168591614D01*
X65109886Y-149788612D02*
X65109879Y-149789059D01*
X117019046Y-168902623D02*
X117024328Y-168902937D01*
X134441128Y-143156440D02*
X134437361Y-143137766D01*
X130388779Y-64423328D02*
X130383450Y-64391055D01*
X132805062Y-138084105D02*
X132726294Y-137868248D01*
X65123020Y-154869377D02*
X65123031Y-154869880D01*
X65117628Y-149338976D02*
X65117620Y-149339406D01*
X133531822Y-140186741D02*
X133523726Y-140163269D01*
X134820294Y-157093690D02*
X134820356Y-157091247D01*
X66568093Y-139894208D02*
X66567802Y-139895079D01*
X134894620Y-153802435D02*
X134894626Y-153801989D01*
X129040779Y-161391344D02*
X129189417Y-161340889D01*
X133014190Y-169101395D02*
X133045279Y-169076767D01*
X134073215Y-167041052D02*
X134073704Y-167038437D01*
X65093753Y-151723898D02*
X65093751Y-151726801D01*
X134432972Y-164750031D02*
X134433331Y-164747127D01*
X132562551Y-137424512D02*
X132562034Y-137423116D01*
X65712200Y-142500372D02*
X65669084Y-142668159D01*
X90752675Y-168591668D02*
X90753019Y-168591658D01*
X68931335Y-133616083D02*
X68909724Y-133679045D01*
X134602129Y-144140945D02*
X134601907Y-144139234D01*
X131947127Y-135795374D02*
X131887183Y-135647360D01*
X133425012Y-168730331D02*
X133493293Y-168650862D01*
X68407806Y-134945797D02*
X68407745Y-134945941D01*
X129435209Y-169849639D02*
X129440212Y-169849564D01*
X134129801Y-166731910D02*
X134130121Y-166730031D01*
X65095387Y-151220858D02*
X65095373Y-151223746D01*
X67836252Y-136359647D02*
X67836193Y-136359803D01*
X130834680Y-169768500D02*
X130858009Y-169766251D01*
X102023500Y-168457624D02*
X102023938Y-168457627D01*
X130689733Y-162343368D02*
X130700000Y-162500000D01*
X130329643Y-64202631D02*
X130317126Y-64172411D01*
X131549166Y-169677569D02*
X131554041Y-169676741D01*
X97982913Y-168457583D02*
X98970645Y-168452033D01*
X65470931Y-143647210D02*
X65438770Y-143852974D01*
X93838577Y-168515655D02*
X93838946Y-168515648D01*
X132725327Y-137865602D02*
X132724601Y-137863622D01*
X70482796Y-169847588D02*
X70487798Y-169847763D01*
X126512741Y-124482741D02*
X126198036Y-124758730D01*
X69310266Y-162343368D02*
X69340889Y-162189417D01*
X134397343Y-142949809D02*
X134393519Y-142932363D01*
X100009846Y-168450022D02*
X100010320Y-168450022D01*
X116804836Y-63851706D02*
X116781706Y-63874836D01*
X114221714Y-168768227D02*
X114222039Y-168768241D01*
X67679763Y-136776142D02*
X67600721Y-136986903D01*
X130437633Y-169801233D02*
X130440514Y-169801021D01*
X98970645Y-168452033D02*
X98971106Y-168452031D01*
X134812747Y-146944951D02*
X134812726Y-146944416D01*
X66248535Y-168215627D02*
X66260250Y-168242898D01*
X130418312Y-169802598D02*
X130437633Y-169801233D01*
X65383179Y-162669463D02*
X65383254Y-162670718D01*
X90777062Y-168590965D02*
X90777403Y-168590955D01*
X81041678Y-169043109D02*
X81042708Y-169043025D01*
X134710743Y-145153554D02*
X134710635Y-145152197D01*
X133335507Y-168822896D02*
X133340269Y-168818322D01*
X132642956Y-137641653D02*
X132642847Y-137641358D01*
X116501605Y-64520952D02*
X116500267Y-64561822D01*
X126158200Y-169717400D02*
X126885793Y-169772126D01*
X65421834Y-163236436D02*
X65422567Y-163246682D01*
X84845387Y-168808762D02*
X84845719Y-168808747D01*
X132162679Y-136356803D02*
X132092229Y-136169134D01*
X65173983Y-147302600D02*
X65173891Y-147305260D01*
X134631984Y-144375299D02*
X134631786Y-144373645D01*
X104076128Y-168479739D02*
X104076533Y-168479744D01*
X133520654Y-140154324D02*
X133453212Y-139957231D01*
X68802682Y-133974621D02*
X68800655Y-133980029D01*
X111249620Y-168654809D02*
X111249942Y-168654820D01*
X80984493Y-169047844D02*
X80987877Y-169047555D01*
X95901179Y-168480056D02*
X95902493Y-168480037D01*
X133046758Y-138759762D02*
X132970615Y-138544414D01*
X134435681Y-164727649D02*
X134436024Y-164724740D01*
X66047761Y-167595017D02*
X66055080Y-167623783D01*
X68476533Y-134783587D02*
X68475642Y-134785696D01*
X69559485Y-169801021D02*
X69562366Y-169801233D01*
X114199963Y-168767309D02*
X114201661Y-168767380D01*
X133779476Y-140895821D02*
X133779369Y-140895513D01*
X134906137Y-152229003D02*
X134906138Y-152228543D01*
X129797588Y-63652873D02*
X129767368Y-63640356D01*
X119000487Y-169046579D02*
X119001517Y-169046664D01*
X68871657Y-133786902D02*
X68869335Y-133793335D01*
X65095359Y-151227059D02*
X65095357Y-151227514D01*
X134478766Y-143353831D02*
X134445884Y-143180722D01*
X120900253Y-169216871D02*
X121805900Y-169304616D01*
X131524357Y-134785696D02*
X131523466Y-134783587D01*
X134904230Y-152745034D02*
X134904232Y-152744572D01*
X131514412Y-134762109D02*
X131514231Y-134761679D01*
X105132848Y-168496316D02*
X105133231Y-168496323D01*
X130415426Y-169802793D02*
X130418312Y-169802598D01*
X68186540Y-135468923D02*
X68184796Y-135473122D01*
X93833529Y-168515761D02*
X93834746Y-168515735D01*
X65211020Y-158322434D02*
X65211026Y-158322632D01*
X83918411Y-168851498D02*
X83919487Y-168851445D01*
X131815203Y-135473122D02*
X131813459Y-135468923D01*
X113231441Y-168727804D02*
X113232498Y-168727846D01*
X66720045Y-139438048D02*
X66719826Y-139438697D01*
X134563527Y-143868021D02*
X134563265Y-143866285D01*
X68404564Y-134953434D02*
X68404371Y-134953889D01*
X65210906Y-158318109D02*
X65210909Y-158318242D01*
X97955726Y-168457778D02*
X97956166Y-168457775D01*
X69165319Y-169768500D02*
X69168803Y-169768823D01*
X65149256Y-155943427D02*
X65149260Y-155943570D01*
X67913743Y-136153356D02*
X67913492Y-136154015D01*
X134904232Y-152744572D02*
X134904246Y-152741636D01*
X65521233Y-143353831D02*
X65520803Y-143356122D01*
X133449852Y-139947366D02*
X133448875Y-139944484D01*
X81047141Y-169042665D02*
X81052276Y-169042253D01*
X122649999Y-119448718D02*
X123025413Y-119263585D01*
X134752967Y-159585336D02*
X134753055Y-159582476D01*
X65099525Y-153264043D02*
X65099549Y-153267045D01*
X127340962Y-123048220D02*
X127206414Y-123444586D01*
X90773519Y-168591064D02*
X90773859Y-168591055D01*
X69168803Y-169768823D02*
X69192155Y-169770909D01*
X134784138Y-146291539D02*
X134783876Y-146286273D01*
X105130517Y-168496274D02*
X105130903Y-168496281D01*
X67328126Y-169330744D02*
X67341731Y-169338423D01*
X69460769Y-161899999D02*
X69547975Y-161769486D01*
X65247135Y-159588621D02*
X65247149Y-159589070D01*
X108222993Y-168563522D02*
X108223338Y-168563532D01*
X128310266Y-162656631D02*
X128299999Y-162500000D01*
X134906248Y-151726801D02*
X134906246Y-151723898D01*
X130547766Y-133111778D02*
X130399999Y-132588617D01*
X88748653Y-168654868D02*
X88748988Y-168654856D01*
X67194815Y-138084438D02*
X67193963Y-138086778D01*
X65569491Y-164769494D02*
X65569867Y-164772400D01*
X67033158Y-138533803D02*
X67032999Y-138534249D01*
X134017584Y-141595857D02*
X134017205Y-141594686D01*
X66468177Y-140186741D02*
X66467978Y-140187317D01*
X123627838Y-169485187D02*
X123629559Y-169485356D01*
X70656631Y-161310266D02*
X70810582Y-161340889D01*
X134432329Y-143113539D02*
X134397906Y-142952410D01*
X134684250Y-144858414D02*
X134684104Y-144856949D01*
X134308109Y-165612952D02*
X134308127Y-165612838D01*
X65127016Y-148889970D02*
X65126940Y-148893135D01*
X71498532Y-169849920D02*
X71500885Y-169849903D01*
X134731998Y-160217909D02*
X134732017Y-160217350D01*
X65778063Y-142260324D02*
X65774419Y-142273312D01*
X133733356Y-168257162D02*
X133739749Y-168242898D01*
X133961415Y-167557564D02*
X133999288Y-167396844D01*
X65938583Y-167101416D02*
X65982473Y-167314268D01*
X133191519Y-168954476D02*
X133215761Y-168933102D01*
X132014229Y-135965200D02*
X131957423Y-135821136D01*
X131524533Y-134786112D02*
X131524357Y-134785696D01*
X65161287Y-147677132D02*
X65149165Y-148060375D01*
X75499241Y-169569923D02*
X75502960Y-169569571D01*
X65383845Y-162680404D02*
X65384378Y-162688809D01*
X134710635Y-145152197D02*
X134709896Y-145143138D01*
X67746821Y-169511673D02*
X67792984Y-169526478D01*
X86753683Y-168728392D02*
X86767173Y-168727859D01*
X71518996Y-169849727D02*
X71534758Y-169849505D01*
X123629847Y-169485384D02*
X123631564Y-169485552D01*
X133615586Y-140427689D02*
X133615111Y-140426329D01*
X129408177Y-63570267D02*
X129391818Y-63570000D01*
X133520851Y-140154901D02*
X133520654Y-140154324D01*
X134752864Y-159588621D02*
X134752954Y-159585769D01*
X66303375Y-140659088D02*
X66303341Y-140659183D01*
X89738428Y-168622316D02*
X89738750Y-168622306D01*
X71348528Y-163348528D02*
X71230513Y-163452024D01*
X112263150Y-168690833D02*
X112263479Y-168690846D01*
X132879121Y-169201420D02*
X132916666Y-169174690D01*
X131516490Y-169682955D02*
X131549166Y-169677569D01*
X134900446Y-153267522D02*
X134900450Y-153267045D01*
X66142788Y-141119823D02*
X66141403Y-141123828D01*
X91794950Y-168563053D02*
X91795299Y-168563044D01*
X67908018Y-136168474D02*
X67907770Y-136169134D01*
X65983193Y-167317702D02*
X65988103Y-167340695D01*
X65318516Y-161471061D02*
X65318554Y-161471911D01*
X65179642Y-157091193D02*
X65179643Y-157091247D01*
X65232339Y-145979529D02*
X65231986Y-145985778D01*
X131238907Y-134083954D02*
X131238278Y-134082323D01*
X134073704Y-167038437D02*
X134122168Y-166775163D01*
X118952858Y-169042665D02*
X118953884Y-169042748D01*
X123832316Y-119047376D02*
X124250000Y-119020000D01*
X116570356Y-64202631D02*
X116558834Y-64233245D01*
X116781706Y-63874836D02*
X116759346Y-63898710D01*
X133610275Y-140412469D02*
X133610182Y-140412201D01*
X132658268Y-169338423D02*
X132671873Y-169330744D01*
X133941212Y-141366071D02*
X133940914Y-141365178D01*
X134835629Y-156496861D02*
X134835634Y-156496667D01*
X133609283Y-140409620D02*
X133609187Y-140409345D01*
X65164451Y-156499866D02*
X65164672Y-156508208D01*
X134651063Y-162080754D02*
X134651116Y-162079725D01*
X85781723Y-168768079D02*
X85782828Y-168768033D01*
X134217692Y-142245412D02*
X134217136Y-142243477D01*
X134771730Y-158954497D02*
X134771789Y-158952456D01*
X67680365Y-136774536D02*
X67680194Y-136774992D01*
X128340889Y-162810582D02*
X128310266Y-162656631D01*
X133880802Y-167854135D02*
X133882369Y-167848957D01*
X65916170Y-141801585D02*
X65913151Y-141811152D01*
X104078538Y-168479771D02*
X104078939Y-168479776D01*
X120892678Y-169216145D02*
X120894401Y-169216309D01*
X67192999Y-138089431D02*
X67192862Y-138089810D01*
X134441683Y-143159231D02*
X134441128Y-143156440D01*
X131203658Y-133991482D02*
X131203041Y-133989848D01*
X132319805Y-136774992D02*
X132319634Y-136774536D01*
X131809441Y-135459299D02*
X131809184Y-135458686D01*
X134835573Y-156498951D02*
X134835578Y-156498756D01*
X68404983Y-134952448D02*
X68404914Y-134952612D01*
X120868658Y-169213869D02*
X120870364Y-169214030D01*
X92828204Y-168537630D02*
X92828565Y-168537622D01*
X125850000Y-124991281D02*
X125474586Y-125176414D01*
X65726157Y-142448014D02*
X65725563Y-142450183D01*
X65105237Y-153791289D02*
X65105242Y-153791732D01*
X121049999Y-122219999D02*
X121077376Y-121802316D01*
X134753067Y-159582059D02*
X134771720Y-158954833D01*
X68260263Y-135293347D02*
X68260096Y-135293742D01*
X65268434Y-160230142D02*
X65268455Y-160230711D01*
X134835554Y-156499652D02*
X134835573Y-156498951D01*
X119011094Y-169047468D02*
X119012122Y-169047555D01*
X66222203Y-140891003D02*
X66221472Y-140893095D01*
X66303532Y-140658637D02*
X66303531Y-140658642D01*
X65164700Y-156509283D02*
X65164727Y-156510321D01*
X79100260Y-169216822D02*
X79101983Y-169216655D01*
X131437332Y-134578009D02*
X131436359Y-134575662D01*
X131824749Y-169625475D02*
X131830366Y-169624267D01*
X133125722Y-138985993D02*
X133050893Y-138771535D01*
X70559787Y-169849564D02*
X70564790Y-169849639D01*
X133848526Y-167956081D02*
X133850522Y-167949989D01*
X132163747Y-136359647D02*
X132163749Y-136359604D01*
X66780636Y-168929896D02*
X66784238Y-168933102D01*
X107195859Y-168538186D02*
X107197066Y-168538216D01*
X89741901Y-168622205D02*
X89742238Y-168622194D01*
X133355695Y-168803308D02*
X133367022Y-168791924D01*
X66219690Y-140898215D02*
X66143004Y-141119199D01*
X134835578Y-156498756D02*
X134835604Y-156497769D01*
X133399973Y-168757724D02*
X133406470Y-168750852D01*
X134005313Y-167370501D02*
X134006081Y-167367078D01*
X67853279Y-169544858D02*
X67887270Y-169554683D01*
X65514757Y-143389214D02*
X65514348Y-143391516D01*
X110242203Y-168621704D02*
X110242534Y-168621715D01*
X80995082Y-169046947D02*
X80998482Y-169046664D01*
X84843349Y-168808852D02*
X84843685Y-168808837D01*
X67600326Y-136987959D02*
X67600026Y-136988757D01*
X84823508Y-168809743D02*
X84824591Y-168809693D01*
X66714820Y-139453636D02*
X66642164Y-139672380D01*
X116626260Y-64084431D02*
X116610841Y-64113279D01*
X130202885Y-63974540D02*
X130182972Y-63948588D01*
X133696658Y-140659183D02*
X133696624Y-140659088D01*
X134615539Y-162690069D02*
X134615621Y-162688809D01*
X68475466Y-134786112D02*
X68474877Y-134787503D01*
X65228269Y-158954497D02*
X65228279Y-158954833D01*
X67837183Y-136357109D02*
X67837163Y-136357223D01*
X134900450Y-153267045D02*
X134900474Y-153264043D01*
X103049931Y-168466964D02*
X103050349Y-168466968D01*
X133187883Y-168957650D02*
X133191519Y-168954476D01*
X133280173Y-139438697D02*
X133279954Y-139438048D01*
X103043826Y-168466903D02*
X103044241Y-168466907D01*
X134890067Y-149785621D02*
X134890060Y-149785193D01*
X133281849Y-139443676D02*
X133281631Y-139443028D01*
X66167179Y-168002877D02*
X66181319Y-168043386D01*
X124250000Y-119020000D02*
X124667683Y-119047376D01*
X65851912Y-142009187D02*
X65851393Y-142010879D01*
X65432802Y-143892928D02*
X65432554Y-143894655D01*
X128547975Y-163230513D02*
X128460769Y-163100000D01*
X132260063Y-169509409D02*
X132301705Y-169495384D01*
X66638172Y-139684370D02*
X66637851Y-139685331D01*
X134661674Y-144636310D02*
X134660568Y-144625760D01*
X65934026Y-167078702D02*
X65934543Y-167081317D01*
X86752303Y-168728446D02*
X86753349Y-168728405D01*
X121987258Y-124482741D02*
X121711269Y-124168036D01*
X66506706Y-168650862D02*
X66574987Y-168730331D01*
X65626759Y-165183732D02*
X65626995Y-165185374D01*
X65315895Y-144856949D02*
X65315749Y-144858414D01*
X68404371Y-134953889D02*
X68404314Y-134954022D01*
X121807015Y-169304725D02*
X121807282Y-169304751D01*
X66638499Y-139683387D02*
X66638434Y-139683583D01*
X134709785Y-145141790D02*
X134709021Y-145132723D01*
X101003203Y-168451928D02*
X101022175Y-168452000D01*
X65250135Y-145684946D02*
X65250064Y-145686021D01*
X67202953Y-169256291D02*
X67224452Y-169269791D01*
X108199931Y-168562923D02*
X108201073Y-168562952D01*
X134838702Y-147676827D02*
X134838640Y-147674919D01*
X133936336Y-141351564D02*
X133934330Y-141345650D01*
X73841799Y-169717400D02*
X73843059Y-169717303D01*
X67911577Y-136159052D02*
X67909919Y-136163432D01*
X109245530Y-168591614D02*
X109245870Y-168591625D01*
X129959220Y-163608655D02*
X129810582Y-163659110D01*
X134865147Y-155398614D02*
X134865227Y-155395184D01*
X68765487Y-134072529D02*
X68764861Y-134074161D01*
X131433304Y-134568278D02*
X131433008Y-134567561D01*
X67276372Y-137860969D02*
X67276254Y-137861288D01*
X134850845Y-148060742D02*
X134850834Y-148060375D01*
X134896402Y-150248425D02*
X134890170Y-149792524D01*
X67974396Y-135994496D02*
X67973908Y-135995769D01*
X115158046Y-168808914D02*
X115171631Y-168809522D01*
X134335556Y-142686574D02*
X134331521Y-142670544D01*
X132968049Y-138537189D02*
X132967000Y-138534249D01*
X66061367Y-141358371D02*
X66061068Y-141359260D01*
X133127163Y-138990136D02*
X133125912Y-138986539D01*
X134244681Y-166027144D02*
X134244781Y-166026502D01*
X109222596Y-168590955D02*
X109222937Y-168590965D01*
X73872337Y-169714946D02*
X74650743Y-169648429D01*
X85777960Y-168768241D02*
X85778285Y-168768227D01*
X67907770Y-136169134D02*
X67837320Y-136356803D01*
X67985272Y-135966467D02*
X67981954Y-135974951D01*
X130884808Y-169763491D02*
X130888289Y-169763119D01*
X89760944Y-168621608D02*
X89761271Y-168621598D01*
X65314775Y-144868280D02*
X65314632Y-144869752D01*
X65291094Y-145131371D02*
X65290978Y-145132723D01*
X68486837Y-134759135D02*
X68486662Y-134759552D01*
X123629559Y-169485356D02*
X123629847Y-169485384D01*
X67836259Y-136359607D02*
X67836252Y-136359647D01*
X134008421Y-141567888D02*
X133941212Y-141366071D01*
X102048361Y-168457813D02*
X102048804Y-168457817D01*
X80084328Y-169125671D02*
X80085091Y-169125604D01*
X131591966Y-134945263D02*
X131591901Y-134945110D01*
X70598304Y-169849974D02*
X70603306Y-169850000D01*
X66219794Y-140897916D02*
X66219690Y-140898215D01*
X125328843Y-169646614D02*
X125334765Y-169647152D01*
X66181319Y-168043386D02*
X66183471Y-168049427D01*
X65103597Y-150248425D02*
X65103591Y-150248858D01*
X134749935Y-145686021D02*
X134749864Y-145684946D01*
X100014781Y-168450025D02*
X100015252Y-168450026D01*
X66733899Y-168887822D02*
X66738780Y-168892268D01*
X105134496Y-168496347D02*
X105134886Y-168496354D01*
X134080326Y-141790595D02*
X134079866Y-141789160D01*
X86767173Y-168727859D02*
X86767501Y-168727846D01*
X131594778Y-134951888D02*
X131594725Y-134951764D01*
X78192984Y-169304725D02*
X78193834Y-169304642D01*
X66985809Y-169101395D02*
X66990474Y-169105047D01*
X95925595Y-168479717D02*
X96925953Y-168467230D01*
X66551124Y-139944484D02*
X66550147Y-139947366D01*
X68616568Y-134447257D02*
X68566991Y-134567561D01*
X69340889Y-162189417D02*
X69391344Y-162040779D01*
X66303531Y-140658642D02*
X66303507Y-140658709D01*
X134887029Y-154323112D02*
X134894620Y-153802435D01*
X86770837Y-168727716D02*
X86771924Y-168727674D01*
X66638434Y-139683583D02*
X66638234Y-139684184D01*
X134890120Y-149789059D02*
X134890113Y-149788612D01*
X65424474Y-163271727D02*
X65464742Y-163770300D01*
X129767368Y-63640356D02*
X129736754Y-63628834D01*
X129959220Y-161391344D02*
X130100000Y-161460769D01*
X133358561Y-139674563D02*
X133358501Y-139674384D01*
X116142513Y-168854587D02*
X116146071Y-168854778D01*
X134901293Y-150727698D02*
X134901289Y-150727254D01*
X74657544Y-169647836D02*
X74658427Y-169647758D01*
X74671156Y-169646614D02*
X74672037Y-169646533D01*
X65194961Y-157699034D02*
X65194976Y-157699625D01*
X127598538Y-169816110D02*
X127613879Y-169816979D01*
X131950869Y-135804675D02*
X131950438Y-135803598D01*
X132480289Y-137203561D02*
X132480228Y-137203397D01*
X65291719Y-160849324D02*
X65291900Y-160853968D01*
X80040762Y-169129581D02*
X80041528Y-169129511D01*
X81057736Y-169041821D02*
X81933524Y-168973393D01*
X68259027Y-135296276D02*
X68258859Y-135296676D01*
X130861488Y-169765904D02*
X130884808Y-169763491D01*
X65179624Y-157090488D02*
X65179630Y-157090708D01*
X65511245Y-143409230D02*
X65477726Y-143605643D01*
X65312501Y-144892432D02*
X65292001Y-145120965D01*
X83857486Y-168854587D02*
X83858563Y-168854529D01*
X88731282Y-168655464D02*
X88731611Y-168655452D01*
X66478498Y-140156797D02*
X66478302Y-140157367D01*
X100010320Y-168450022D02*
X100011882Y-168450022D01*
X68897473Y-133714192D02*
X68879537Y-133764867D01*
X110262686Y-168622353D02*
X110263033Y-168622364D01*
X134729657Y-145393669D02*
X134710743Y-145153554D01*
X134768013Y-145985778D02*
X134767660Y-145979529D01*
X117225521Y-63608824D02*
X117194219Y-63618319D01*
X68562368Y-134578728D02*
X68550167Y-134608077D01*
X104101223Y-168480092D02*
X104101627Y-168480098D01*
X115176491Y-168809743D02*
X115176824Y-168809758D01*
X133523726Y-140163269D02*
X133523530Y-140162698D01*
X66954720Y-169076767D02*
X66985809Y-169101395D01*
X95902493Y-168480037D02*
X95902894Y-168480032D01*
X129656631Y-161310266D02*
X129810582Y-161340889D01*
X134731157Y-145413658D02*
X134731068Y-145412431D01*
X127340962Y-121391779D02*
X127422623Y-121802316D01*
X131353994Y-134374937D02*
X131353585Y-134373920D01*
X134392942Y-142929764D02*
X134389026Y-142912342D01*
X65164672Y-156508208D02*
X65164677Y-156508412D01*
X134148087Y-142009187D02*
X134090733Y-141823592D01*
X133451930Y-139953475D02*
X133451632Y-139952601D01*
X67439235Y-137419699D02*
X67439166Y-137419883D01*
X68768173Y-134065508D02*
X68767549Y-134067142D01*
X130100000Y-161460769D02*
X130230513Y-161547975D01*
X128299999Y-162500000D02*
X128310266Y-162343368D01*
X134805009Y-157700169D02*
X134805020Y-157699748D01*
X108203170Y-168563005D02*
X108203524Y-168563014D01*
X131383431Y-134447257D02*
X131383013Y-134446241D01*
X134904590Y-151217097D02*
X134901377Y-150737720D01*
X134750470Y-145694319D02*
X134750401Y-145693246D01*
X67836381Y-136359302D02*
X67836363Y-136359352D01*
X65105373Y-153801989D02*
X65105379Y-153802435D01*
X133532677Y-140189218D02*
X133532021Y-140187317D01*
X134090289Y-141822162D02*
X134087297Y-141812581D01*
X65782863Y-142243477D02*
X65782307Y-142245412D01*
X68717794Y-134195218D02*
X68717272Y-134196542D01*
X134850922Y-148063237D02*
X134850845Y-148060742D01*
X92804140Y-168538186D02*
X92804492Y-168538178D01*
X93835116Y-168515728D02*
X93836996Y-168515688D01*
X96932452Y-168467154D02*
X96949650Y-168466968D01*
X134904213Y-152748014D02*
X134904230Y-152745034D01*
X134615621Y-162688809D02*
X134616154Y-162680404D01*
X134789090Y-158318242D02*
X134789093Y-158318109D01*
X80999512Y-169046579D02*
X81041678Y-169043109D01*
X119004917Y-169046947D02*
X119005945Y-169047034D01*
X65179707Y-157093767D02*
X65179714Y-157094021D01*
X134187343Y-166389351D02*
X134243919Y-166031988D01*
X67942091Y-169569756D02*
X67984410Y-169580799D01*
X68688152Y-134270059D02*
X68687623Y-134271377D01*
X65093759Y-151720130D02*
X65093758Y-151720574D01*
X131666787Y-135121251D02*
X131595685Y-134954022D01*
X106166841Y-168515769D02*
X107171434Y-168537622D01*
X134182777Y-166417331D02*
X134184123Y-166409221D01*
X65268001Y-160217909D02*
X65268128Y-160221621D01*
X69537284Y-169799316D02*
X69540170Y-169799545D01*
X68724854Y-134177208D02*
X68723149Y-134181575D01*
X129930571Y-169831030D02*
X129946412Y-169830320D01*
X67437360Y-137424749D02*
X67357873Y-137639408D01*
X130608655Y-162959220D02*
X130539230Y-163100000D01*
X134685224Y-144868280D02*
X134684250Y-144858414D01*
X65610973Y-142912342D02*
X65607057Y-142929764D01*
X65105279Y-153794856D02*
X65105285Y-153795332D01*
X65558316Y-143159231D02*
X65554653Y-143177933D01*
X124496492Y-169569519D02*
X124497039Y-169569571D01*
X134851091Y-148068884D02*
X134851018Y-148066419D01*
X134750401Y-145693246D02*
X134749935Y-145686021D01*
X134901377Y-150737720D02*
X134901374Y-150737270D01*
X65216163Y-146285472D02*
X65216123Y-146286273D01*
X129343368Y-161310266D02*
X129500000Y-161299999D01*
X68768061Y-169724269D02*
X68772211Y-169724816D01*
X104098820Y-168480056D02*
X104099223Y-168480062D01*
X131379141Y-134436797D02*
X131378725Y-134435780D01*
X66836548Y-168978776D02*
X66840212Y-168981913D01*
X132092229Y-136169134D02*
X132091981Y-136168474D01*
X76372161Y-169485187D02*
X76372376Y-169485166D01*
X134482466Y-143373815D02*
X134482045Y-143371513D01*
X83869649Y-168853953D02*
X83913780Y-168851727D01*
X101026902Y-168452021D02*
X101027365Y-168452023D01*
X131523466Y-134783587D02*
X131523288Y-134783166D01*
X65095788Y-152748457D02*
X65095807Y-152751405D01*
X65098710Y-150727254D02*
X65098706Y-150727698D01*
X131353585Y-134373920D02*
X131312376Y-134271377D01*
X65782307Y-142245412D02*
X65778611Y-142258387D01*
X134307961Y-165613922D02*
X134307981Y-165613792D01*
X118059575Y-168972863D02*
X118060878Y-168972962D01*
X115153199Y-168808700D02*
X115154280Y-168808747D01*
X78175843Y-169306404D02*
X78176113Y-169306377D01*
X117991431Y-168967872D02*
X117992734Y-168967966D01*
X70487798Y-169847763D02*
X70521298Y-169848769D01*
X97958043Y-168457760D02*
X97976061Y-168457627D01*
X65692335Y-165615867D02*
X65753714Y-166016795D01*
X131167715Y-133895133D02*
X131164138Y-133885413D01*
X68832284Y-133895133D02*
X68831566Y-133897078D01*
X83865012Y-168854191D02*
X83868571Y-168854007D01*
X86750002Y-168728539D02*
X86750333Y-168728525D01*
X134685367Y-144869752D02*
X134685224Y-144868280D01*
X134533881Y-163786575D02*
X134534043Y-163784703D01*
X117072616Y-63666373D02*
X117043279Y-63680841D01*
X68719517Y-134190842D02*
X68717794Y-134195218D01*
X134016806Y-167317702D02*
X134017526Y-167314268D01*
X66389328Y-140413604D02*
X66385400Y-140424861D01*
X86768879Y-168727792D02*
X86770498Y-168727729D01*
X131595370Y-134953281D02*
X131595085Y-134952612D01*
X133049407Y-138767291D02*
X133048252Y-138764002D01*
X93854214Y-168515338D02*
X93854591Y-168515331D01*
X67031950Y-138537189D02*
X67031791Y-138537636D01*
X65103591Y-150248858D02*
X65103553Y-150251823D01*
X133127354Y-138990688D02*
X133127163Y-138990136D01*
X65787174Y-142228588D02*
X65786612Y-142230518D01*
X66383909Y-140429128D02*
X66303532Y-140658637D01*
X131235138Y-134074161D02*
X131234512Y-134072529D01*
X68474695Y-134787934D02*
X68408678Y-134943741D01*
X102017086Y-168457583D02*
X102017527Y-168457585D01*
X131280482Y-134190842D02*
X131279962Y-134189518D01*
X134850743Y-155943427D02*
X134850765Y-155942625D01*
X71721760Y-169845590D02*
X71724766Y-169845488D01*
X85800356Y-168767296D02*
X85801414Y-168767252D01*
X134485718Y-164289444D02*
X134485956Y-164287129D01*
X65122861Y-154861759D02*
X65122871Y-154862268D01*
X132966841Y-138533803D02*
X132889611Y-138317954D01*
X121293585Y-120995413D02*
X121478718Y-120619999D01*
X68804187Y-169728876D02*
X68832049Y-169732192D01*
X131667242Y-135122323D02*
X131667237Y-135122310D01*
X109227570Y-168591095D02*
X109227913Y-168591105D01*
X67836266Y-136359609D02*
X67836259Y-136359607D01*
X132762189Y-169277892D02*
X132775547Y-169269791D01*
X66065973Y-141344756D02*
X66065669Y-141345650D01*
X91795299Y-168563044D02*
X91796475Y-168563014D01*
X131234512Y-134072529D02*
X131232450Y-134067142D01*
X134890170Y-149792524D02*
X134890164Y-149792055D01*
X86753349Y-168728405D02*
X86753683Y-168728392D01*
X134873070Y-148893621D02*
X134873059Y-148893135D01*
X133281631Y-139443028D02*
X133280173Y-139438697D01*
X134600405Y-144127807D02*
X134600177Y-144126093D01*
X130539230Y-163100000D02*
X130452024Y-163230513D01*
X134894714Y-153795332D02*
X134894720Y-153794856D01*
X130396254Y-64488311D02*
X130393048Y-64455758D01*
X134906132Y-152231924D02*
X134906137Y-152229003D01*
X134826002Y-147302229D02*
X134825907Y-147299551D01*
X132026091Y-135995769D02*
X132025603Y-135994496D01*
X66950426Y-138767765D02*
X66949282Y-138771031D01*
X117508181Y-63570000D02*
X117491822Y-63570267D01*
X90775931Y-168590996D02*
X90777062Y-168590965D01*
X117163245Y-63628834D02*
X117132631Y-63640356D01*
X122730832Y-169396228D02*
X122730848Y-169396230D01*
X133159787Y-168981913D02*
X133163451Y-168978776D01*
X134752954Y-159585769D02*
X134752967Y-159585336D01*
X65179632Y-157090815D02*
X65179635Y-157090940D01*
X68736113Y-169719905D02*
X68740260Y-169720487D01*
X134485651Y-143391516D02*
X134485242Y-143389214D01*
X132400019Y-136988882D02*
X132399973Y-136988757D01*
X67357774Y-137639675D02*
X67357152Y-137641358D01*
X130361175Y-64295521D02*
X130351680Y-64264219D01*
X101001223Y-168451922D02*
X101002745Y-168451927D01*
X68332762Y-135122310D02*
X68332757Y-135122323D01*
X113249666Y-168728525D02*
X113249997Y-168728539D01*
X127616172Y-169817104D02*
X127631514Y-169817904D01*
X134838632Y-147674667D02*
X134838568Y-147672718D01*
X134524779Y-143620643D02*
X134524493Y-143618914D01*
X133696624Y-140659088D02*
X133696601Y-140659021D01*
X65161439Y-147672455D02*
X65161431Y-147672718D01*
X71452024Y-163230513D02*
X71348528Y-163348528D01*
X65909710Y-141822162D02*
X65909266Y-141823592D01*
X125341572Y-169647758D02*
X125342455Y-169647836D01*
X134307664Y-165615867D02*
X134307690Y-165615703D01*
X68898266Y-133711942D02*
X68897473Y-133714192D01*
X134487743Y-164269306D02*
X134531277Y-163815357D01*
X126198036Y-119681269D02*
X126512741Y-119957258D01*
X75498705Y-169569974D02*
X75499241Y-169569923D01*
X134835322Y-156508412D02*
X134835327Y-156508208D01*
X65572445Y-164791846D02*
X65572838Y-164794749D01*
X68526027Y-169689532D02*
X68736113Y-169719905D01*
X134900474Y-153264043D02*
X134900478Y-153263586D01*
X67837111Y-136357359D02*
X67837107Y-136357371D01*
X120863316Y-169213369D02*
X120865010Y-169213527D01*
X65422678Y-163248207D02*
X65423442Y-163258441D01*
X131163788Y-169732669D02*
X131167950Y-169732192D01*
X66641149Y-139675431D02*
X66638499Y-139683387D01*
X66205927Y-168110345D02*
X66224093Y-168156331D01*
X65174105Y-147299173D02*
X65174092Y-147299551D01*
X134731720Y-160225881D02*
X134731851Y-160222186D01*
X109224068Y-168590996D02*
X109224413Y-168591006D01*
X66550147Y-139947366D02*
X66549852Y-139948235D01*
X66141187Y-141124454D02*
X66139808Y-141128463D01*
X133609682Y-140410766D02*
X133609586Y-140410490D01*
X129391818Y-63570000D02*
X117508181Y-63570000D01*
X134882178Y-149328840D02*
X134882168Y-149328371D01*
X66642164Y-139672380D02*
X66642096Y-139672585D01*
X134865037Y-155403083D02*
X134865050Y-155402565D01*
X67836435Y-136359160D02*
X67836381Y-136359302D01*
X105111416Y-168495945D02*
X105112676Y-168495966D01*
X111270121Y-168655513D02*
X112243106Y-168690097D01*
X134127312Y-166746336D02*
X134127638Y-166744462D01*
X110240529Y-168621653D02*
X110242203Y-168621704D01*
X65517533Y-143373815D02*
X65514757Y-143389214D01*
X115171962Y-168809537D02*
X115173073Y-168809587D01*
X92806247Y-168538136D02*
X92806615Y-168538127D01*
X67576164Y-169449238D02*
X67583401Y-169452114D01*
X92826648Y-168537664D02*
X92827014Y-168537656D01*
X68796958Y-133989848D02*
X68796341Y-133991482D01*
X88735057Y-168655333D02*
X88748653Y-168654868D01*
X133587275Y-168523061D02*
X133633858Y-168448603D01*
X65424353Y-163270196D02*
X65424474Y-163271727D01*
X131809184Y-135458686D02*
X131742380Y-135299621D01*
X66793155Y-139221906D02*
X66791809Y-139225870D01*
X68258859Y-135296676D02*
X68257784Y-135299228D01*
X66058787Y-141366071D02*
X65991578Y-141567888D01*
X131515183Y-134763940D02*
X131515006Y-134763520D01*
X69547975Y-161769486D02*
X69651471Y-161651471D01*
X134384425Y-142892343D02*
X134383819Y-142889747D01*
X98973097Y-168452021D02*
X98975384Y-168452010D01*
X134308127Y-165612838D02*
X134369287Y-165210629D01*
X65247045Y-159585769D02*
X65247135Y-159588621D01*
X134850834Y-148060375D02*
X134838712Y-147677132D01*
X65383254Y-162670718D02*
X65383767Y-162679142D01*
X134014679Y-141586912D02*
X134014300Y-141585751D01*
X127422623Y-122637683D02*
X127340962Y-123048220D01*
X134565253Y-143879596D02*
X134563527Y-143868021D01*
X133651628Y-168417816D02*
X133698957Y-168328636D01*
X132970461Y-138543979D02*
X132969416Y-138541033D01*
X132643670Y-137643590D02*
X132643583Y-137643353D01*
X81948251Y-168972273D02*
X81952541Y-168971955D01*
X65194948Y-157698530D02*
X65194961Y-157699034D01*
X71689733Y-162343368D02*
X71700000Y-162500000D01*
X124667683Y-119047376D02*
X125078220Y-119129037D01*
X134904593Y-151217543D02*
X134904590Y-151217097D01*
X65342262Y-144599943D02*
X65342084Y-144601519D01*
X65554653Y-143177933D02*
X65554115Y-143180722D01*
X65249079Y-145701531D02*
X65249013Y-145702613D01*
X120894915Y-169216358D02*
X120897489Y-169216605D01*
X131312376Y-134271377D02*
X131311847Y-134270059D01*
X66107322Y-167814227D02*
X66117630Y-167848957D01*
X134433331Y-164747127D02*
X134435681Y-164727649D01*
X131591560Y-134944306D02*
X131591380Y-134943881D01*
X88748988Y-168654856D02*
X88750057Y-168654820D01*
X67758955Y-136565335D02*
X67680366Y-136774535D01*
X65872687Y-166746336D02*
X65874898Y-166758882D01*
X74672037Y-169646533D02*
X75494456Y-169570372D01*
X134771720Y-158954833D02*
X134771730Y-158954497D01*
X129968871Y-63748061D02*
X129941674Y-63729889D01*
X65366517Y-144388036D02*
X65342262Y-144599943D01*
X134483837Y-164307252D02*
X134484086Y-164304940D01*
X94886942Y-168495973D02*
X94887323Y-168495966D01*
X132146720Y-169544858D02*
X132153666Y-169542795D01*
X134344565Y-142723466D02*
X134340690Y-142707401D01*
X125327962Y-169646533D02*
X125328843Y-169646614D01*
X113249997Y-168728539D02*
X113251109Y-168728584D01*
X134307690Y-165615703D02*
X134307805Y-165614948D01*
X114216847Y-168768019D02*
X114217171Y-168768033D01*
X110258098Y-168622205D02*
X110259206Y-168622240D01*
X65246944Y-159582476D02*
X65247032Y-159585336D01*
X65844029Y-142035162D02*
X65843523Y-142036851D01*
X134432915Y-143116322D02*
X134432329Y-143113539D01*
X129810582Y-163659110D02*
X129656631Y-163689733D01*
X65201177Y-146607615D02*
X65200986Y-146611980D01*
X65210942Y-158319514D02*
X65210949Y-158319758D01*
X90777403Y-168590955D02*
X91775122Y-168563573D01*
X134600177Y-144126093D02*
X134598636Y-144114677D01*
X96951442Y-168466949D02*
X96951860Y-168466945D01*
X67152649Y-169223444D02*
X67164691Y-169231514D01*
X132241001Y-136565221D02*
X132240982Y-136565170D01*
X90756544Y-168591553D02*
X90757656Y-168591521D01*
X132416598Y-169452114D02*
X132423835Y-169449238D01*
X132888387Y-138314541D02*
X132887439Y-138311906D01*
X134481874Y-164325050D02*
X134482133Y-164322741D01*
X66200372Y-168095805D02*
X66203266Y-168103460D01*
X67110388Y-138317954D02*
X67033158Y-138533803D01*
X84826926Y-168809587D02*
X84828037Y-168809537D01*
X66547084Y-139956361D02*
X66546787Y-139957231D01*
X69192155Y-169770909D02*
X69195639Y-169771208D01*
X93836996Y-168515688D02*
X93837372Y-168515680D01*
X93859641Y-168515232D02*
X93860013Y-168515225D01*
X96953972Y-168466924D02*
X96954397Y-168466920D01*
X66366141Y-168448603D02*
X66412724Y-168523061D01*
X134393519Y-142932363D02*
X134392942Y-142929764D01*
X134900379Y-153274484D02*
X134900384Y-153274022D01*
X91775478Y-168563564D02*
X91776661Y-168563532D01*
X134850739Y-155943570D02*
X134850743Y-155943427D01*
X65755218Y-166026502D02*
X65755318Y-166027144D01*
X111269793Y-168655502D02*
X111270121Y-168655513D01*
X67679937Y-136775677D02*
X67679812Y-136776010D01*
X65384460Y-162690069D02*
X65385015Y-162698490D01*
X88752403Y-168654741D02*
X88753498Y-168654705D01*
X129856720Y-63680841D02*
X129827383Y-63666373D01*
X133436186Y-139906951D02*
X133435219Y-139904081D01*
X133203525Y-139212194D02*
X133130227Y-138998998D01*
X134835610Y-156497555D02*
X134835629Y-156496861D01*
X66465084Y-140195677D02*
X66390812Y-140409345D01*
X67237810Y-169277892D02*
X67328126Y-169330744D01*
X65421728Y-163234914D02*
X65421834Y-163236436D01*
X67837320Y-136356803D02*
X67837293Y-136356793D01*
X83930578Y-168850916D02*
X84823175Y-168809758D01*
X102046475Y-168457796D02*
X102046907Y-168457800D01*
X87737957Y-168690792D02*
X87738287Y-168690780D01*
X70656631Y-163689733D02*
X70500000Y-163700000D01*
X66282559Y-168291234D02*
X66286114Y-168298683D01*
X134862799Y-148477738D02*
X134862713Y-148474395D01*
X71539230Y-163100000D02*
X71452024Y-163230513D01*
X129995460Y-63767115D02*
X129968871Y-63748061D01*
X106145785Y-168515338D02*
X106161053Y-168515648D01*
X65149213Y-155941822D02*
X65149234Y-155942625D01*
X68042576Y-135821136D02*
X67985770Y-135965200D01*
X134122168Y-166775163D02*
X134122509Y-166773291D01*
X65268148Y-160222186D02*
X65268279Y-160225881D01*
X73871065Y-169715053D02*
X73872337Y-169714946D01*
X109226480Y-168591064D02*
X109227570Y-168591095D01*
X129514241Y-63576951D02*
X129481688Y-63573745D01*
X101002745Y-168451927D02*
X101003203Y-168451928D01*
X116610841Y-64113279D02*
X116596373Y-64142616D01*
X66949282Y-138771031D02*
X66949106Y-138771535D01*
X134601907Y-144139234D02*
X134600405Y-144127807D01*
X130273739Y-64084431D02*
X130257384Y-64056103D01*
X66390812Y-140409345D02*
X66390716Y-140409620D01*
X65562638Y-143137766D02*
X65558871Y-143156440D01*
X65291927Y-160854659D02*
X65292115Y-160859313D01*
X133045279Y-169076767D02*
X133049901Y-169073062D01*
X66055080Y-167623783D02*
X66056192Y-167628072D01*
X65164677Y-156508412D02*
X65164695Y-156509081D01*
X71689733Y-162656631D02*
X71659110Y-162810582D01*
X131121156Y-133766819D02*
X131120462Y-133764867D01*
X65109988Y-149782199D02*
X65109939Y-149785193D01*
X66641498Y-139674384D02*
X66641438Y-139674563D01*
X134901324Y-150731049D02*
X134901320Y-150730598D01*
X71230513Y-163452024D02*
X71100000Y-163539230D01*
X65173878Y-147305640D02*
X65161512Y-147670279D01*
X65655434Y-142723466D02*
X65654862Y-142725864D01*
X111249942Y-168654820D02*
X111251011Y-168654856D01*
X98977365Y-168452002D02*
X98977824Y-168452000D01*
X114220262Y-168768164D02*
X114220595Y-168768179D01*
X100015252Y-168450026D02*
X100016849Y-168450028D01*
X75502960Y-169569571D02*
X75503507Y-169569519D01*
X65099549Y-153267045D02*
X65099553Y-153267522D01*
X68408678Y-134943741D02*
X68408619Y-134943881D01*
X134374800Y-165172735D02*
X134375031Y-165171089D01*
X115154280Y-168808747D02*
X115154612Y-168808762D01*
X134906138Y-152228543D02*
X134906141Y-152225644D01*
X68218520Y-169634489D02*
X68256281Y-169641933D01*
X133614693Y-140425133D02*
X133614599Y-140424861D01*
X80983465Y-169047933D02*
X80984493Y-169047844D01*
X65366709Y-144386382D02*
X65366517Y-144388036D01*
X130659110Y-162189417D02*
X130689733Y-162343368D01*
X76370152Y-169485384D02*
X76370440Y-169485356D01*
X130722821Y-133258918D02*
X130735565Y-133247999D01*
X73862583Y-169715756D02*
X73871065Y-169715053D01*
X79129114Y-169214079D02*
X79129635Y-169214030D01*
X66139598Y-141129074D02*
X66138221Y-141133091D01*
X68618777Y-134441880D02*
X68618362Y-134442892D01*
X103074046Y-168467230D02*
X104074404Y-168479717D01*
X108201413Y-168562960D02*
X108203170Y-168563005D01*
X66039620Y-167561873D02*
X66046687Y-167590717D01*
X132808102Y-138092474D02*
X132807974Y-138092119D01*
X134877202Y-154858465D02*
X134877211Y-154857968D01*
X68486662Y-134759552D02*
X68485768Y-134761679D01*
X134008807Y-141569053D02*
X134008421Y-141567888D01*
X133050717Y-138771031D02*
X133049573Y-138767765D01*
X131781479Y-169634489D02*
X131787109Y-169633346D01*
X133206844Y-139221906D02*
X133206644Y-139221318D01*
X128465241Y-169849505D02*
X128481003Y-169849727D01*
X70500000Y-163700000D02*
X70343368Y-163689733D01*
X134812883Y-146948410D02*
X134812747Y-146944951D01*
X68487426Y-134757735D02*
X68486837Y-134759135D01*
X134660568Y-144625760D02*
X134660401Y-144624191D01*
X98997254Y-168451927D02*
X98998776Y-168451922D01*
X65877831Y-166775163D02*
X65926295Y-167038437D01*
X133940914Y-141365178D02*
X133938931Y-141359260D01*
X71100000Y-161460769D02*
X71230513Y-161547975D01*
X68333168Y-135121355D02*
X68332762Y-135122310D01*
X65194990Y-157700184D02*
X65210906Y-158318109D01*
X133532021Y-140187317D02*
X133531822Y-140186741D01*
X69169300Y-133500000D02*
X68945754Y-133592595D01*
X66791604Y-139226475D02*
X66720045Y-139438048D01*
X73114206Y-169772126D02*
X73841799Y-169717400D01*
X134681483Y-161471061D02*
X134707632Y-160865341D01*
X66063769Y-167656785D02*
X66064919Y-167661066D01*
X121478718Y-120619999D02*
X121711269Y-120271963D01*
X134336152Y-142688965D02*
X134335556Y-142686574D01*
X80994054Y-169047034D02*
X80995082Y-169046947D01*
X116134987Y-168854191D02*
X116136062Y-168854247D01*
X133832820Y-168002877D02*
X133834894Y-167996809D01*
X65564318Y-164727649D02*
X65566668Y-164747127D01*
X65105330Y-153798872D02*
X65105373Y-153801989D01*
X65228075Y-158947703D02*
X65228133Y-158949787D01*
X91796829Y-168563005D02*
X91798586Y-168562960D01*
X133706758Y-168313305D02*
X133713885Y-168298683D01*
X134865227Y-155395184D02*
X134865238Y-155394672D01*
X66868558Y-169005919D02*
X66914698Y-169044284D01*
X120862796Y-169213321D02*
X120863316Y-169213369D01*
X123421779Y-119129037D02*
X123832316Y-119047376D01*
X97977947Y-168457614D02*
X97978391Y-168457611D01*
X131263886Y-169719905D02*
X131473972Y-169689532D01*
X129941674Y-63729889D02*
X129913896Y-63712615D01*
X92802933Y-168538216D02*
X92804140Y-168538186D01*
X102017527Y-168457585D02*
X102018986Y-168457594D01*
X132090080Y-136163432D02*
X132088422Y-136159052D01*
X132643583Y-137643353D02*
X132642956Y-137641653D01*
X79101983Y-169216655D02*
X79102510Y-169216605D01*
X101029354Y-168452033D02*
X102017086Y-168457583D01*
X133128606Y-138994301D02*
X133127354Y-138990688D01*
X131451411Y-134611867D02*
X131451112Y-134611151D01*
X131595628Y-134953889D02*
X131595435Y-134953434D01*
X66990474Y-169105047D02*
X67021880Y-169129325D01*
X67519328Y-137204586D02*
X67519249Y-137204797D01*
X116086219Y-168851727D02*
X116130350Y-168853953D01*
X122733217Y-169396951D02*
X122733281Y-169396971D01*
X104099223Y-168480062D02*
X104101223Y-168480092D01*
X65913151Y-141811152D02*
X65912702Y-141812581D01*
X68052872Y-135795374D02*
X68052438Y-135796449D01*
X116582873Y-64172411D02*
X116570356Y-64202631D01*
X65164365Y-156496667D02*
X65164370Y-156496861D01*
X121711269Y-120271963D02*
X121987258Y-119957258D01*
X67758998Y-136565221D02*
X67758970Y-136565295D01*
X65164421Y-156498756D02*
X65164426Y-156498951D01*
X116131428Y-168854007D02*
X116134987Y-168854191D01*
X124501294Y-169569974D02*
X124505000Y-169570321D01*
X79131341Y-169213869D02*
X79131855Y-169213821D01*
X76372376Y-169485166D02*
X76374119Y-169484994D01*
X134825783Y-147296133D02*
X134813055Y-146952923D01*
X68900875Y-133704516D02*
X68898266Y-133711942D01*
X66950098Y-169073062D02*
X66954720Y-169076767D01*
X65173997Y-147302229D02*
X65173983Y-147302600D01*
X131525304Y-134787934D02*
X131525122Y-134787503D01*
X67273823Y-137867925D02*
X67273705Y-137868248D01*
X93837372Y-168515680D02*
X93838577Y-168515655D01*
X130396094Y-169804047D02*
X130415426Y-169802793D01*
X80081805Y-169125895D02*
X80084328Y-169125671D01*
X119015506Y-169047844D02*
X119016534Y-169047933D01*
X134185649Y-166399884D02*
X134185844Y-166398681D01*
X82980953Y-168902623D02*
X82982552Y-168902529D01*
X109226140Y-168591055D02*
X109226480Y-168591064D01*
X113231120Y-168727792D02*
X113231441Y-168727804D01*
X134707884Y-160859313D02*
X134708072Y-160854659D01*
X134850807Y-155941022D02*
X134850810Y-155940911D01*
X70035391Y-169829425D02*
X70051225Y-169830209D01*
X134649764Y-162104684D02*
X134649823Y-162103651D01*
X65438503Y-143854704D02*
X65436734Y-143866285D01*
X65126929Y-148893621D02*
X65126857Y-148896798D01*
X134906241Y-151720574D02*
X134906240Y-151720130D01*
X65606480Y-142932363D02*
X65602656Y-142949809D01*
X100016849Y-168450028D02*
X100017334Y-168450029D01*
X71675455Y-169846862D02*
X71678464Y-169846796D01*
X132973412Y-169132920D02*
X132978119Y-169129325D01*
X133892677Y-167814227D02*
X133894189Y-167809030D01*
X133938632Y-141358371D02*
X133936635Y-141352448D01*
X134578271Y-163234914D02*
X134614900Y-162699745D01*
X76374119Y-169484994D02*
X76374361Y-169484970D01*
X113229501Y-168727729D02*
X113231120Y-168727792D01*
X83853928Y-168854778D02*
X83857486Y-168854587D01*
X131787109Y-169633346D02*
X131824749Y-169625475D01*
X65624968Y-165171089D02*
X65625199Y-165172735D01*
X116207106Y-133207106D02*
X115500000Y-133500000D01*
X132724601Y-137863622D02*
X132724490Y-137863319D01*
X86750333Y-168728525D02*
X86751986Y-168728459D01*
X82012864Y-168967564D02*
X82014167Y-168967472D01*
X65201206Y-146606967D02*
X65201177Y-146607615D01*
X115156650Y-168808852D02*
X115157721Y-168808899D01*
X68261505Y-135290410D02*
X68261343Y-135290793D01*
X65313549Y-144881093D02*
X65312634Y-144890965D01*
X67193963Y-138086778D02*
X67193836Y-138087127D01*
X73851556Y-169716642D02*
X73852828Y-169716542D01*
X131095365Y-133693740D02*
X130722821Y-133258918D01*
X116500000Y-132500000D02*
X116207106Y-133207106D01*
X134894626Y-153801989D02*
X134894669Y-153798872D01*
X65312634Y-144890965D02*
X65312501Y-144892432D01*
X65875232Y-166760754D02*
X65877490Y-166773291D01*
X113227751Y-168727662D02*
X113228075Y-168727674D01*
X65926295Y-167038437D02*
X65926784Y-167041052D01*
X134906142Y-152225195D02*
X134906248Y-151727238D01*
X67357962Y-169346958D02*
X67454164Y-169395349D01*
X69562366Y-169801233D02*
X69581687Y-169802598D01*
X65988103Y-167340695D02*
X65988849Y-167344129D01*
X65349352Y-162088730D02*
X65349728Y-162095668D01*
X65988247Y-141577971D02*
X65985699Y-141585751D01*
X134383819Y-142889747D02*
X134345137Y-142725864D01*
X116548319Y-64264219D02*
X116538824Y-64295521D01*
X83863937Y-168854247D02*
X83865012Y-168854191D01*
X124667683Y-125392623D02*
X124250000Y-125420000D01*
X134812588Y-146940973D02*
X134812566Y-146940439D01*
X65872361Y-166744462D02*
X65872687Y-166746336D01*
X72348547Y-169818851D02*
X72350845Y-169818747D01*
X65200773Y-146616969D02*
X65200746Y-146617624D01*
X131171527Y-133905427D02*
X131170806Y-133903485D01*
X67273705Y-137868248D02*
X67194937Y-138084105D01*
X118946696Y-169042171D02*
X118947723Y-169042253D01*
X130162221Y-63923303D02*
X130140653Y-63898710D01*
X134850810Y-155940911D02*
X134864937Y-155407037D01*
X129736754Y-63628834D02*
X129705780Y-63618319D01*
X134371408Y-165196359D02*
X134373004Y-165185374D01*
X69899999Y-163539230D02*
X69769486Y-163452024D01*
X65099615Y-153274022D02*
X65099620Y-153274484D01*
X65291900Y-160853968D02*
X65291927Y-160854659D01*
X134065456Y-167081317D02*
X134065973Y-167078702D01*
X82900001Y-168907580D02*
X82901601Y-168907478D01*
X133566307Y-168553949D02*
X133587275Y-168523061D01*
X65930610Y-167061196D02*
X65934026Y-167078702D01*
X65095357Y-151227514D02*
X65093767Y-151716780D01*
X131128342Y-133786902D02*
X131127641Y-133784952D01*
X67040533Y-169143380D02*
X67077750Y-169170657D01*
X110238728Y-168621598D02*
X110239055Y-168621608D01*
X92807824Y-168538099D02*
X92808178Y-168538090D01*
X115173073Y-168809587D02*
X115173408Y-168809602D01*
X134900418Y-153270540D02*
X134900446Y-153267522D01*
X65122871Y-154862268D02*
X65122939Y-154865565D01*
X133362489Y-139686354D02*
X133362421Y-139686151D01*
X68550167Y-134608077D02*
X68549870Y-134608792D01*
X114222039Y-168768241D02*
X115152865Y-168808685D01*
X65122939Y-154865565D02*
X65122949Y-154866053D01*
X117109593Y-168908199D02*
X117114874Y-168908548D01*
X133135138Y-169002815D02*
X133159787Y-168981913D01*
X131554041Y-169676741D02*
X131586678Y-169671029D01*
X65659309Y-142707401D02*
X65655434Y-142723466D01*
X65812848Y-166390557D02*
X65814155Y-166398681D01*
X112266537Y-168690961D02*
X112266867Y-168690973D01*
X76370440Y-169485356D02*
X76372161Y-169485187D01*
X134684104Y-144856949D02*
X134661837Y-144637888D01*
X132400291Y-136989609D02*
X132400019Y-136988882D01*
X65095769Y-152745034D02*
X65095786Y-152748014D01*
X134877050Y-154866053D02*
X134877060Y-154865565D01*
X133048078Y-138763508D02*
X133046927Y-138760242D01*
X131450129Y-134608792D02*
X131449832Y-134608077D01*
X76368147Y-169485580D02*
X76368435Y-169485552D01*
X102046907Y-168457800D02*
X102048361Y-168457813D01*
X65468722Y-163815357D02*
X65512256Y-164269306D01*
X66301042Y-168328636D02*
X66348371Y-168417816D01*
X116522930Y-64358973D02*
X116516549Y-64391055D01*
X127450000Y-122219999D02*
X127422623Y-122637683D01*
X69651471Y-161651471D02*
X69769486Y-161547975D01*
X65516162Y-164307252D02*
X65517866Y-164322741D01*
X133534060Y-140193210D02*
X133533862Y-140192639D01*
X67837107Y-136357371D02*
X67836450Y-136359121D01*
X131738656Y-135290793D02*
X131738494Y-135290410D01*
X134221936Y-142260324D02*
X134221388Y-142258387D01*
X67846333Y-169542795D02*
X67853279Y-169544858D01*
X108219412Y-168563427D02*
X108219759Y-168563436D01*
X65164695Y-156509081D02*
X65164700Y-156509283D01*
X67913492Y-136154015D02*
X67911823Y-136158404D01*
X65093751Y-151726801D02*
X65093751Y-151727238D01*
X133801857Y-168089792D02*
X133816528Y-168049427D01*
X67112700Y-138311518D02*
X67112560Y-138311906D01*
X67600388Y-136987792D02*
X67600326Y-136987959D01*
X121825041Y-169306492D02*
X121825307Y-169306518D01*
X65313688Y-144879620D02*
X65313549Y-144881093D01*
X65319431Y-161490739D02*
X65319472Y-161491587D01*
X70500000Y-161299999D02*
X70656631Y-161310266D01*
X101022634Y-168452002D02*
X101024148Y-168452008D01*
X122732487Y-169396393D02*
X122732515Y-169396395D01*
X134243919Y-166031988D02*
X134244022Y-166031340D01*
X134826108Y-147305260D02*
X134826016Y-147302600D01*
X68475642Y-134785696D02*
X68475466Y-134786112D01*
X67438626Y-137421335D02*
X67438564Y-137421503D01*
X134820375Y-157090488D02*
X134820376Y-157090439D01*
X133493293Y-168650862D02*
X133516949Y-168621113D01*
X134437361Y-143137766D02*
X134436791Y-143134982D01*
X68477492Y-134781316D02*
X68477311Y-134781745D01*
X128769486Y-161547975D02*
X128899999Y-161460769D01*
X65518125Y-164325050D02*
X65563975Y-164724740D01*
X65692169Y-165614784D02*
X65692194Y-165614948D01*
X134307830Y-165614784D02*
X134307961Y-165613922D01*
X65466118Y-163786575D02*
X65467224Y-163799098D01*
X131231938Y-169724269D02*
X131259739Y-169720487D01*
X134633482Y-144388036D02*
X134633290Y-144386382D01*
X134894675Y-153798410D02*
X134894714Y-153795332D01*
X114199643Y-168767296D02*
X114199963Y-168767309D01*
X67583401Y-169452114D02*
X67631949Y-169470972D01*
X68184796Y-135473122D02*
X68184539Y-135473744D01*
X134650702Y-162087695D02*
X134651063Y-162080754D01*
X133450147Y-139948235D02*
X133449852Y-139947366D01*
X65247255Y-159592349D02*
X65267982Y-160217350D01*
X132319634Y-136774536D02*
X132319633Y-136774535D01*
X95898372Y-168480098D02*
X95898776Y-168480092D01*
X117321054Y-63586549D02*
X117288973Y-63592930D01*
X81952541Y-168971955D02*
X81953843Y-168971859D01*
X65164754Y-156511366D02*
X65179623Y-157090439D01*
X134877211Y-154857968D02*
X134886839Y-154334644D01*
X123625880Y-169484994D02*
X123627623Y-169485166D01*
X105113057Y-168495973D02*
X105128883Y-168496246D01*
X131304683Y-134252085D02*
X131304160Y-134250765D01*
X66701389Y-168857811D02*
X66733899Y-168887822D01*
X125335651Y-169647231D02*
X125341572Y-169647758D01*
X98975384Y-168452010D02*
X98975851Y-168452008D01*
X128255093Y-169844746D02*
X128275233Y-169845488D01*
X68115492Y-135640787D02*
X68113159Y-135646516D01*
X134436024Y-164724740D02*
X134481874Y-164325050D01*
X65289364Y-145152197D02*
X65289256Y-145153554D01*
X65926784Y-167041052D02*
X65930108Y-167058585D01*
X121293585Y-123444586D02*
X121159037Y-123048220D01*
X80998482Y-169046664D02*
X80999512Y-169046579D01*
X65232812Y-145971425D02*
X65232756Y-145972363D01*
X65161297Y-147676827D02*
X65161287Y-147677132D01*
X71744906Y-169844746D02*
X71747913Y-169844626D01*
X73852828Y-169716542D02*
X73861309Y-169715860D01*
X133048252Y-138764002D02*
X133048078Y-138763508D01*
X112246505Y-168690220D02*
X112246826Y-168690231D01*
X118943296Y-169041902D02*
X118946696Y-169042171D01*
X134388435Y-142909747D02*
X134384425Y-142892343D01*
X104101627Y-168480098D02*
X104102952Y-168480118D01*
X116986103Y-63712615D02*
X116958325Y-63729889D01*
X82008568Y-168967872D02*
X82012864Y-168967564D01*
X133609187Y-140409345D02*
X133534915Y-140195677D01*
X66129888Y-167888777D02*
X66131512Y-167893937D01*
X117043279Y-63680841D02*
X117014431Y-63696260D01*
X94870732Y-168496252D02*
X94871116Y-168496246D01*
X132399333Y-136987051D02*
X132399278Y-136986903D01*
X133279954Y-139438048D02*
X133208395Y-139226475D01*
X131742215Y-135299228D02*
X131741140Y-135296676D01*
X106145408Y-168515331D02*
X106145785Y-168515338D01*
X88731611Y-168655452D02*
X88733287Y-168655394D01*
X132480671Y-137204586D02*
X132480289Y-137203561D01*
X97978391Y-168457611D02*
X97980579Y-168457597D01*
X65194976Y-157699625D02*
X65194979Y-157699748D01*
X132253178Y-169511673D02*
X132260063Y-169509409D01*
X130341165Y-64233245D02*
X130329643Y-64202631D01*
X128298382Y-169846212D02*
X128301385Y-169846296D01*
X134596581Y-144099842D02*
X134567445Y-143894655D01*
X67836363Y-136359352D02*
X67836266Y-136359609D01*
X65161503Y-147670538D02*
X65161439Y-147672455D01*
X134894762Y-153791289D02*
X134900379Y-153274484D01*
X65385015Y-162698490D02*
X65385099Y-162699745D01*
X134212825Y-142228588D02*
X134160343Y-142049862D01*
X134896451Y-150252235D02*
X134896446Y-150251823D01*
X134187151Y-166390557D02*
X134187343Y-166389351D01*
X65817222Y-166417331D02*
X65817425Y-166418547D01*
X134649823Y-162103651D02*
X134650213Y-162096712D01*
X72368485Y-169817904D02*
X72383827Y-169817104D01*
X101000753Y-168451920D02*
X101001223Y-168451922D01*
X132725445Y-137865924D02*
X132725327Y-137865602D01*
X66949106Y-138771535D02*
X66874277Y-138985993D01*
X68487606Y-134757304D02*
X68487426Y-134757735D01*
X68408453Y-169670152D02*
X68413321Y-169671029D01*
X125349256Y-169648429D02*
X126127662Y-169714946D01*
X65654862Y-142725864D02*
X65616180Y-142889747D01*
X65319472Y-161491587D02*
X65348883Y-162079725D01*
X80085091Y-169125604D02*
X80088951Y-169125264D01*
X132400346Y-136989755D02*
X132400291Y-136989609D01*
X84843685Y-168808837D02*
X84845387Y-168808762D01*
X131161076Y-133877045D02*
X131160366Y-133875098D01*
X131199959Y-133981667D02*
X131199344Y-133980029D01*
X116737778Y-63923303D02*
X116717027Y-63948588D01*
X65692018Y-165613792D02*
X65692038Y-165613922D01*
X65232392Y-145978604D02*
X65232339Y-145979529D01*
X122733330Y-169396476D02*
X123625638Y-169484970D01*
X112266867Y-168690973D02*
X113227751Y-168727662D01*
X104097105Y-168480032D02*
X104097506Y-168480037D01*
X91779086Y-168563467D02*
X91780240Y-168563436D01*
X132320236Y-136776142D02*
X132320187Y-136776010D01*
X129982810Y-169828442D02*
X129985166Y-169828309D01*
X67909919Y-136163432D02*
X67909672Y-136164088D01*
X65512483Y-164271623D02*
X65514043Y-164287129D01*
X104078939Y-168479776D02*
X104080268Y-168479795D01*
X121806165Y-169304642D02*
X121807015Y-169304725D01*
X65349728Y-162095668D02*
X65349786Y-162096712D01*
X74665234Y-169647152D02*
X74671156Y-169646614D01*
X134872983Y-148889970D02*
X134872972Y-148889495D01*
X70521298Y-169848769D02*
X70526299Y-169848894D01*
X65137299Y-148473905D02*
X65137286Y-148474395D01*
X116147147Y-168854836D02*
X117000953Y-168901586D01*
X133868487Y-167893937D02*
X133870111Y-167888777D01*
X67520238Y-137202148D02*
X67520194Y-137202264D01*
X134799041Y-146612627D02*
X134799013Y-146611980D01*
X111265264Y-168655344D02*
X111266365Y-168655382D01*
X134813055Y-146952923D02*
X134813035Y-146952402D01*
X129500000Y-161299999D02*
X129656631Y-161310266D01*
X70189417Y-161340889D02*
X70343368Y-161310266D01*
X122733078Y-169396909D02*
X122733123Y-169396455D01*
X65385099Y-162699745D02*
X65421728Y-163234914D01*
X84828368Y-168809522D02*
X84841953Y-168808914D01*
X84842278Y-168808899D02*
X84843349Y-168808852D01*
X134373240Y-165183732D02*
X134374800Y-165172735D01*
X67355691Y-137645320D02*
X67355608Y-137645546D01*
X85779404Y-168768179D02*
X85779737Y-168768164D01*
X68872358Y-133784952D02*
X68871657Y-133786902D01*
X94891248Y-168495901D02*
X94892560Y-168495880D01*
X125078220Y-119129037D02*
X125474586Y-119263585D01*
X103044241Y-168466907D02*
X103045602Y-168466920D01*
X131666831Y-135121355D02*
X131666787Y-135121251D01*
X132873482Y-169205376D02*
X132879121Y-169201420D01*
X67438039Y-137422916D02*
X67437965Y-137423116D01*
X68548588Y-134611867D02*
X68547095Y-134615444D01*
X105130903Y-168496281D02*
X105132848Y-168496316D01*
X129500000Y-163700000D02*
X129343368Y-163689733D01*
X134650271Y-162095668D02*
X134650647Y-162088730D01*
X117116473Y-168908654D02*
X117972397Y-168966537D01*
X65814350Y-166399884D02*
X65815677Y-166408007D01*
X94865113Y-168496354D02*
X94865503Y-168496347D01*
X86768558Y-168727804D02*
X86768879Y-168727792D01*
X69138511Y-169765904D02*
X69141990Y-169766251D01*
X134397906Y-142952410D02*
X134397343Y-142949809D01*
X133696624Y-140659088D02*
X133696624Y-140659088D01*
X122732487Y-169396392D02*
X122732487Y-169396393D01*
X116074047Y-168851134D02*
X116075123Y-168851185D01*
X130230513Y-161547975D02*
X130348528Y-161651471D01*
X89761271Y-168621598D02*
X90752675Y-168591668D01*
X133754327Y-168208824D02*
X133773144Y-168163175D01*
X122732395Y-169396383D02*
X122732487Y-169396392D01*
X79105598Y-169216309D02*
X79107321Y-169216145D01*
X130393206Y-169804225D02*
X130396094Y-169804047D01*
X133779369Y-140895513D02*
X133778635Y-140893407D01*
X118053050Y-168972370D02*
X118059575Y-168972863D01*
X134182574Y-166418547D02*
X134182777Y-166417331D01*
X113246650Y-168728405D02*
X113247696Y-168728446D01*
X65515913Y-164304940D02*
X65516162Y-164307252D01*
X133777796Y-140891003D02*
X133777683Y-140890680D01*
X66385306Y-140425133D02*
X66384984Y-140426055D01*
X131259739Y-169720487D02*
X131263886Y-169719905D01*
X132162841Y-136357100D02*
X132162797Y-136357116D01*
X130303626Y-64142616D02*
X130289158Y-64113279D01*
X68616986Y-134446241D02*
X68616568Y-134447257D01*
X130046696Y-63807778D02*
X130021410Y-63787027D01*
X66198142Y-168089792D02*
X66200372Y-168095805D01*
X134771798Y-158952150D02*
X134771857Y-158950096D01*
X68835861Y-133885413D02*
X68832284Y-133895133D01*
X134901289Y-150727254D02*
X134896528Y-150258979D01*
X130399999Y-64578181D02*
X130399732Y-64561822D01*
X131595435Y-134953434D02*
X131595370Y-134953281D01*
X68184539Y-135473744D02*
X68121240Y-135626780D01*
X73112485Y-169772253D02*
X73114206Y-169772126D01*
X65228142Y-158950096D02*
X65228201Y-158952150D01*
X133904127Y-167774167D02*
X133905583Y-167768956D01*
X66548367Y-139952601D02*
X66548069Y-139953475D01*
X128324544Y-169846862D02*
X128462892Y-169849466D01*
X110243971Y-168621759D02*
X110257761Y-168622194D01*
X65268279Y-160225881D02*
X65268299Y-160226443D01*
X68803294Y-133972984D02*
X68802682Y-133974621D01*
X65249529Y-145694319D02*
X65249079Y-145701531D01*
X125850000Y-119448718D02*
X126198036Y-119681269D01*
X133794072Y-168110345D02*
X133796733Y-168103460D01*
X66433692Y-168553949D02*
X66483050Y-168621113D01*
X126885793Y-169772126D02*
X126887514Y-169772253D01*
X65982473Y-167314268D02*
X65983193Y-167317702D01*
X106144186Y-168515306D02*
X106145408Y-168515331D01*
X130348528Y-161651471D02*
X130452024Y-161769486D01*
X92824847Y-168537704D02*
X92826648Y-168537664D01*
X67032999Y-138534249D02*
X67031950Y-138537189D01*
X66220630Y-140895513D02*
X66220523Y-140895821D01*
X65289256Y-145153554D02*
X65270342Y-145393669D01*
X133934026Y-141344756D02*
X133861990Y-141133711D01*
X103046027Y-168466924D02*
X103048139Y-168466945D01*
X113248013Y-168728459D02*
X113249666Y-168728525D01*
X65268128Y-160221621D02*
X65268148Y-160222186D01*
X65554115Y-143180722D02*
X65521233Y-143353831D01*
X66046687Y-167590717D02*
X66047761Y-167595017D01*
X66793355Y-139221318D02*
X66793155Y-139221906D01*
X84826591Y-168809602D02*
X84826926Y-168809587D01*
X66864861Y-169002815D02*
X66868558Y-169005919D01*
X68404629Y-134953281D02*
X68404564Y-134953434D01*
X113246316Y-168728392D02*
X113246650Y-168728405D01*
X65563975Y-164724740D02*
X65564318Y-164727649D01*
X65187252Y-146944951D02*
X65187116Y-146948410D01*
X134389026Y-142912342D02*
X134388435Y-142909747D01*
X65350235Y-162104684D02*
X65383179Y-162669463D01*
X103069326Y-168467174D02*
X103069751Y-168467179D01*
X131667623Y-135123219D02*
X131667242Y-135122323D01*
X108224521Y-168563564D02*
X108224877Y-168563573D01*
X132969259Y-138540590D02*
X132968208Y-138537636D01*
X65095389Y-151220449D02*
X65095387Y-151220858D01*
X68838923Y-133877045D02*
X68836574Y-133883470D01*
X68800033Y-169728364D02*
X68804187Y-169728876D01*
X130807844Y-169770909D02*
X130831196Y-169768823D01*
X113251109Y-168728584D02*
X113251439Y-168728597D01*
X86772248Y-168727662D02*
X87733132Y-168690973D01*
X68046272Y-135811827D02*
X68045843Y-135812903D01*
X106141600Y-168515256D02*
X106141969Y-168515263D01*
X90772429Y-168591095D02*
X90773519Y-168591064D01*
X65403179Y-144101546D02*
X65401597Y-144112965D01*
X91800428Y-168562914D02*
X92802565Y-168538225D01*
X86770498Y-168727729D02*
X86770837Y-168727716D01*
X66131512Y-167893937D02*
X66149477Y-167949989D01*
X102041956Y-168457760D02*
X102042398Y-168457763D01*
X66664492Y-168822896D02*
X66696567Y-168853300D01*
X91798586Y-168562960D02*
X91798926Y-168562952D01*
X82908481Y-168907047D02*
X82974070Y-168903034D01*
X68695839Y-134250765D02*
X68695316Y-134252085D01*
X134825797Y-147296512D02*
X134825783Y-147296133D01*
X98998776Y-168451922D02*
X98999246Y-168451920D01*
X65098679Y-150730598D02*
X65098675Y-150731049D01*
X134011150Y-167344129D02*
X134011896Y-167340695D01*
X134906122Y-152235285D02*
X134906131Y-152232383D01*
X66303341Y-140659183D02*
X66222316Y-140890680D01*
X132399278Y-136986903D02*
X132320236Y-136776142D01*
X134750986Y-145702613D02*
X134750920Y-145701531D01*
X116678061Y-64001128D02*
X116659889Y-64028326D01*
X65201402Y-146602624D02*
X65201206Y-146606967D01*
X117098398Y-168907478D02*
X117099998Y-168907580D01*
X69584573Y-169802793D02*
X69603905Y-169804047D01*
X133858596Y-141123828D02*
X133857211Y-141119823D01*
X129948774Y-169830209D02*
X129964608Y-169829425D01*
X103048557Y-168466949D02*
X103049931Y-168466964D01*
X134799253Y-146617624D02*
X134799226Y-146616969D01*
X66840212Y-168981913D02*
X66864861Y-169002815D01*
X65514281Y-164289444D02*
X65515913Y-164304940D01*
X134904211Y-152748457D02*
X134904213Y-152748014D01*
X117024328Y-168902937D02*
X117025929Y-168903034D01*
X134345137Y-142725864D02*
X134344565Y-142723466D01*
X134798822Y-146607615D02*
X134798793Y-146606967D01*
X68689899Y-134265694D02*
X68688152Y-134270059D01*
X133283515Y-139448647D02*
X133283301Y-139448008D01*
X134614984Y-162698490D02*
X134615539Y-162690069D01*
X84847134Y-168808685D02*
X85777960Y-168768241D01*
X65200958Y-146612627D02*
X65200773Y-146616969D01*
X90754129Y-168591625D02*
X90754469Y-168591614D01*
X65149192Y-155941022D02*
X65149213Y-155941822D01*
X121821380Y-169306131D02*
X121822285Y-169306220D01*
X131954156Y-135812903D02*
X131953727Y-135811827D01*
X93834746Y-168515735D02*
X93835116Y-168515728D01*
X132916666Y-169174690D02*
X132922249Y-169170657D01*
X78189895Y-169305026D02*
X78190153Y-169305001D01*
X72403752Y-169815974D02*
X73072613Y-169774965D01*
X71500885Y-169849903D02*
X71516642Y-169849755D01*
X91800068Y-168562923D02*
X91800428Y-168562914D01*
X134011372Y-141576818D02*
X134008807Y-141569053D01*
X133358782Y-139675227D02*
X133358561Y-139674563D01*
X68639996Y-134389789D02*
X68623053Y-134431421D01*
X65112970Y-154323112D02*
X65112977Y-154323606D01*
X66738780Y-168892268D02*
X66780636Y-168929896D01*
X92824495Y-168537712D02*
X92824847Y-168537704D01*
X119910276Y-169125196D02*
X119911048Y-169125264D01*
X131277368Y-134182899D02*
X131276850Y-134181575D01*
X66478302Y-140157367D02*
X66477318Y-140160232D01*
X105112676Y-168495966D02*
X105113057Y-168495973D01*
X134890060Y-149785193D02*
X134890011Y-149782199D01*
X92808178Y-168538090D02*
X92822948Y-168537748D01*
X89736966Y-168622364D02*
X89737313Y-168622353D01*
X131378725Y-134435780D02*
X131377359Y-134432434D01*
X132970615Y-138544414D02*
X132970461Y-138543979D01*
X114198249Y-168767239D02*
X114198585Y-168767252D01*
X102019420Y-168457597D02*
X102021608Y-168457611D01*
X134184322Y-166408007D02*
X134185649Y-166399884D01*
X134522564Y-143607368D02*
X134522273Y-143605643D01*
X65384378Y-162688809D02*
X65384460Y-162690069D01*
X132025603Y-135994496D02*
X132022327Y-135985985D01*
X134820292Y-157093767D02*
X134820294Y-157093690D01*
X70033026Y-169829302D02*
X70035391Y-169829425D01*
X67274554Y-137865924D02*
X67273823Y-137867925D01*
X134185844Y-166398681D02*
X134187151Y-166390557D01*
X87752078Y-168690271D02*
X87753173Y-168690231D01*
X83924876Y-168851185D02*
X83925952Y-168851134D01*
X65338162Y-144637888D02*
X65315895Y-144856949D01*
X65179635Y-157090940D02*
X65179636Y-157090965D01*
X134882371Y-149338976D02*
X134882315Y-149335896D01*
X66794908Y-139216767D02*
X66794709Y-139217350D01*
X68563935Y-134574952D02*
X68563640Y-134575662D01*
X67191897Y-138092474D02*
X67113800Y-138308468D01*
X65753714Y-166016795D02*
X65753813Y-166017440D01*
X66384004Y-140428857D02*
X66383909Y-140429128D01*
X130095163Y-63851706D02*
X130071289Y-63829346D01*
X107197434Y-168538225D02*
X108199571Y-168562914D01*
X109247324Y-168591668D02*
X110238728Y-168621598D01*
X118065171Y-168973292D02*
X118066475Y-168973393D01*
X81046115Y-169042748D02*
X81047141Y-169042665D01*
X110261249Y-168622306D02*
X110261571Y-168622316D01*
X131739903Y-135293742D02*
X131739736Y-135293347D01*
X133861990Y-141133711D02*
X133861778Y-141133091D01*
X65292338Y-160864652D02*
X65292367Y-160865341D01*
X66563519Y-139907822D02*
X66551421Y-139943608D01*
X117107994Y-168908095D02*
X117109593Y-168908199D01*
X132886199Y-138308468D02*
X132808102Y-138092474D01*
X65186964Y-146952402D02*
X65186944Y-146952923D01*
X121810104Y-169305026D02*
X121821111Y-169306104D01*
X90753019Y-168591658D02*
X90754129Y-168591625D01*
X117491822Y-63570267D02*
X117450952Y-63571605D01*
X134283419Y-142483616D02*
X134282845Y-142481445D01*
X134479196Y-143356122D02*
X134478766Y-143353831D01*
X65187433Y-146940439D02*
X65187411Y-146940973D01*
X68188543Y-135464115D02*
X68186796Y-135468307D01*
X87736520Y-168690846D02*
X87736849Y-168690833D01*
X133362421Y-139686151D02*
X133362211Y-139685522D01*
X85798005Y-168767393D02*
X85798338Y-168767380D01*
X131957423Y-135821136D02*
X131957002Y-135820073D01*
X134894757Y-153791732D02*
X134894762Y-153791289D01*
X103071827Y-168467203D02*
X103072251Y-168467208D01*
X134805020Y-157699748D02*
X134805023Y-157699625D01*
X65475506Y-143618914D02*
X65475220Y-143620643D01*
X122733071Y-169396450D02*
X122733027Y-169396894D01*
X67599708Y-136989609D02*
X67599653Y-136989755D01*
X134788973Y-158322632D02*
X134788979Y-158322434D01*
X67110520Y-138317586D02*
X67110388Y-138317954D01*
X79131855Y-169213821D02*
X79134469Y-169213576D01*
X131881462Y-135633347D02*
X131879109Y-135627629D01*
X133434925Y-139903208D02*
X133433458Y-139898842D01*
X67112560Y-138311906D02*
X67111612Y-138314541D01*
X123025413Y-125176414D02*
X122649999Y-124991281D01*
X65755977Y-166031340D02*
X65756080Y-166031988D01*
X65572838Y-164794749D02*
X65624968Y-165171089D01*
X133777683Y-140890680D02*
X133696658Y-140659183D01*
X123627623Y-169485166D02*
X123627838Y-169485187D01*
X66919277Y-169048046D02*
X66950098Y-169073062D01*
X114203081Y-168767439D02*
X114203408Y-168767453D01*
X111251346Y-168654868D02*
X111264942Y-168655333D01*
X112243106Y-168690097D02*
X112243427Y-168690109D01*
X68485587Y-134762109D02*
X68484993Y-134763520D01*
X127021281Y-123820000D02*
X126788730Y-124168036D01*
X134488754Y-143409230D02*
X134488356Y-143406929D01*
X112265421Y-168690918D02*
X112266537Y-168690961D01*
X82883526Y-168908654D02*
X82885125Y-168908548D01*
X134820376Y-157090439D02*
X134835245Y-156511366D01*
X65134962Y-155403083D02*
X65135049Y-155406519D01*
X65436472Y-143868021D02*
X65434746Y-143879596D01*
X68112816Y-135647360D02*
X68052872Y-135795374D01*
X69606793Y-169804225D02*
X70014833Y-169828309D01*
X65137286Y-148474395D02*
X65137200Y-148477738D01*
X134886965Y-154327281D02*
X134886972Y-154326797D01*
X82020691Y-168967013D02*
X82021991Y-168966923D01*
X65228133Y-158949787D02*
X65228142Y-158950096D01*
X133208190Y-139225870D02*
X133206844Y-139221906D01*
X132545835Y-169395349D02*
X132642037Y-169346958D01*
X124492773Y-169569162D02*
X124496492Y-169569519D01*
X132064222Y-169568064D02*
X132106440Y-169556457D01*
X97951195Y-168457817D02*
X97951638Y-168457813D01*
X133431906Y-139894208D02*
X133362489Y-139686354D01*
X134152563Y-142023856D02*
X134152052Y-142022171D01*
X134445346Y-143177933D02*
X134441683Y-143159231D01*
X130118293Y-63874836D02*
X130095163Y-63851706D01*
X84841953Y-168808914D02*
X84842278Y-168808899D01*
X66479148Y-140154901D02*
X66478498Y-140156797D01*
X134575525Y-163271727D02*
X134575646Y-163270196D01*
X79129635Y-169214030D02*
X79131341Y-169213869D01*
X128301385Y-169846296D02*
X128321535Y-169846796D01*
X68876549Y-133773258D02*
X68875853Y-133775206D01*
X131381637Y-134442892D02*
X131381222Y-134441880D01*
X114217171Y-168768033D02*
X114218276Y-168768079D01*
X130383450Y-64391055D02*
X130377069Y-64358973D01*
X134873233Y-148900938D02*
X134873222Y-148900454D01*
X65342084Y-144601519D02*
X65340911Y-144612062D01*
X65117620Y-149339406D02*
X65109995Y-149781773D01*
X65109995Y-149781773D02*
X65109988Y-149782199D01*
X71539230Y-161899999D02*
X71608655Y-162040779D01*
X66477318Y-140160232D02*
X66477120Y-140160807D01*
X93855813Y-168515306D02*
X93856184Y-168515299D01*
X67437965Y-137423116D02*
X67437448Y-137424512D01*
X133773144Y-168163175D02*
X133775906Y-168156331D01*
X68945754Y-133592595D02*
X68931335Y-133616083D01*
X68563640Y-134575662D02*
X68562667Y-134578009D01*
X133361500Y-139683387D02*
X133358850Y-139675431D01*
X128899999Y-163539230D02*
X128769486Y-163452024D01*
X134732017Y-160217350D02*
X134752744Y-159592349D01*
X122301963Y-119681269D02*
X122649999Y-119448718D01*
X66546787Y-139957231D02*
X66479345Y-140154324D01*
X82026296Y-168966626D02*
X82027602Y-168966537D01*
X65149066Y-148063585D02*
X65148992Y-148066036D01*
X131886840Y-135646516D02*
X131884507Y-135640787D01*
X131309572Y-134264371D02*
X131306942Y-134257774D01*
X65095807Y-152751405D02*
X65095810Y-152751880D01*
X67031791Y-138537636D02*
X67030740Y-138540590D01*
X124250000Y-125420000D02*
X123832316Y-125392623D01*
X121159037Y-121391779D02*
X121293585Y-120995413D01*
X65721617Y-142464720D02*
X65721034Y-142466891D01*
X68868629Y-133795283D02*
X68839633Y-133875098D01*
X108203524Y-168563014D02*
X108204700Y-168563044D01*
X67126517Y-169205376D02*
X67152649Y-169223444D01*
X67680194Y-136774992D02*
X67680172Y-136775052D01*
X134708072Y-160854659D02*
X134708099Y-160853968D01*
X116828710Y-63829346D02*
X116804836Y-63851706D01*
X134686311Y-144879620D02*
X134685367Y-144869752D01*
X68485768Y-134761679D02*
X68485587Y-134762109D01*
X131960392Y-169594434D02*
X131966747Y-169592908D01*
X66384888Y-140426329D02*
X66384413Y-140427689D01*
X134614900Y-162699745D02*
X134614984Y-162698490D01*
X122301963Y-124758730D02*
X121987258Y-124482741D01*
X65567084Y-143116322D02*
X65563208Y-143134982D01*
X67192862Y-138089810D02*
X67192025Y-138092119D01*
X134896524Y-150258553D02*
X134896491Y-150255618D01*
X111246164Y-168654694D02*
X111246501Y-168654705D01*
X65194990Y-157700169D02*
X65194990Y-157700184D01*
X66641830Y-139673386D02*
X66641498Y-139674384D01*
X119954613Y-169129160D02*
X119958471Y-169129511D01*
X67981458Y-135976222D02*
X67978162Y-135984716D01*
X65216474Y-146279412D02*
X65216432Y-146280208D01*
X134890164Y-149792055D02*
X134890120Y-149789059D01*
X102042398Y-168457763D02*
X102043833Y-168457775D01*
X134835327Y-156508208D02*
X134835548Y-156499866D01*
X134838496Y-147670538D02*
X134838487Y-147670279D01*
X67519771Y-137203397D02*
X67519710Y-137203561D01*
X67977672Y-135985985D02*
X67974396Y-135994496D01*
X65095767Y-152744572D02*
X65095769Y-152745034D01*
X134680568Y-161490739D02*
X134680844Y-161485027D01*
X130317126Y-64172411D02*
X130303626Y-64142616D01*
X106163003Y-168515688D02*
X106164883Y-168515728D01*
X119005945Y-169047034D02*
X119011094Y-169047468D01*
X131195812Y-169728876D02*
X131199966Y-169728364D01*
X116878588Y-63787027D02*
X116853303Y-63807778D01*
X132163636Y-136359352D02*
X132163618Y-136359302D01*
X67837271Y-136356914D02*
X67837278Y-136356916D01*
X119907734Y-169124975D02*
X119910276Y-169125196D01*
X132807000Y-138089431D02*
X132806163Y-138087127D01*
X71230513Y-161547975D02*
X71348528Y-161651471D01*
X133516949Y-168621113D02*
X133566307Y-168553949D01*
X67935777Y-169568064D02*
X67942091Y-169569756D01*
X131884507Y-135640787D02*
X131884156Y-135639926D01*
X68618362Y-134442892D02*
X68616986Y-134446241D01*
X66224093Y-168156331D02*
X66226855Y-168163175D01*
X134886848Y-154334144D02*
X134886904Y-154330943D01*
X65179727Y-157094547D02*
X65179729Y-157094611D01*
X133615111Y-140426329D02*
X133615015Y-140426055D01*
X66138009Y-141133711D02*
X66065973Y-141344756D01*
X87755505Y-168690147D02*
X87756572Y-168690109D01*
X78190153Y-169305001D02*
X78191028Y-169304915D01*
X134862611Y-148470572D02*
X134862597Y-148470061D01*
X87736849Y-168690833D02*
X87737957Y-168690792D01*
X74650743Y-169648429D02*
X74651626Y-169648352D01*
X134596820Y-144101546D02*
X134596581Y-144099842D01*
X65268299Y-160226443D02*
X65268434Y-160230142D01*
X133778527Y-140893095D02*
X133777796Y-140891003D01*
X66637510Y-139686354D02*
X66568093Y-139894208D01*
X134576441Y-163259962D02*
X134576557Y-163258441D01*
X126788730Y-120271963D02*
X127021281Y-120619999D01*
X65174092Y-147299551D02*
X65173997Y-147302229D01*
X67026587Y-169132920D02*
X67035006Y-169139270D01*
X134788979Y-158322434D02*
X134789012Y-158321182D01*
X67684122Y-169490373D02*
X67698294Y-169495384D01*
X113228075Y-168727674D02*
X113229162Y-168727716D01*
X133080722Y-169048046D02*
X133085301Y-169044284D01*
X133534915Y-140195677D02*
X133534716Y-140195102D01*
X134820363Y-157090965D02*
X134820364Y-157090940D01*
X131197317Y-133974621D02*
X131196705Y-133972984D01*
X134122509Y-166773291D02*
X134124767Y-166760754D01*
X133362211Y-139685522D02*
X133362148Y-139685331D01*
X109241998Y-168591511D02*
X109242343Y-168591521D01*
X71659110Y-162810582D02*
X71608655Y-162959220D01*
X85782828Y-168768033D02*
X85783152Y-168768019D01*
X65566668Y-164747127D02*
X65567027Y-164750031D01*
X133944919Y-167623783D02*
X133952238Y-167595017D01*
X65436734Y-143866285D02*
X65436472Y-143868021D01*
X80048689Y-169128861D02*
X80049459Y-169128792D01*
X86751986Y-168728459D02*
X86752303Y-168728446D01*
X87755164Y-168690159D02*
X87755505Y-168690147D01*
X134771789Y-158952456D02*
X134771798Y-158952150D01*
X66871203Y-138994850D02*
X66869967Y-138998432D01*
X71678464Y-169846796D02*
X71698614Y-169846296D01*
X131311847Y-134270059D02*
X131310100Y-134265694D01*
X85778285Y-168768227D02*
X85779404Y-168768179D01*
X65127027Y-148889495D02*
X65127016Y-148889970D01*
X125474586Y-125176414D02*
X125078220Y-125310962D01*
X134707998Y-145120965D02*
X134687498Y-144892432D01*
X65179724Y-157094407D02*
X65179727Y-157094547D01*
X103072251Y-168467208D02*
X103073632Y-168467224D01*
X65999919Y-167393428D02*
X66000711Y-167396844D01*
X126147171Y-169716542D02*
X126148443Y-169716642D01*
X66953241Y-138759762D02*
X66953072Y-138760242D01*
X116516549Y-64391055D02*
X116511220Y-64423328D01*
X131478863Y-169688800D02*
X131511607Y-169683735D01*
X68113159Y-135646516D02*
X68112816Y-135647360D01*
X75494999Y-169570321D02*
X75498705Y-169569974D01*
X129642882Y-63600358D02*
X129611026Y-63592930D01*
X134820270Y-157094611D02*
X134820272Y-157094547D01*
X68408439Y-134944306D02*
X68408380Y-134944444D01*
X110240178Y-168621642D02*
X110240529Y-168621653D01*
X123421779Y-125310962D02*
X123025413Y-125176414D01*
X99004010Y-168451908D02*
X99982665Y-168450029D01*
X66644304Y-168803308D02*
X66659730Y-168818322D01*
X83913780Y-168851727D02*
X83914857Y-168851673D01*
X134708307Y-160848625D02*
X134731544Y-160230711D01*
X68831566Y-133897078D02*
X68829193Y-133903485D01*
X66149477Y-167949989D02*
X66151473Y-167956081D01*
X67193836Y-138087127D02*
X67192999Y-138089431D01*
X102048804Y-168457817D02*
X103043826Y-168466903D01*
X120899739Y-169216822D02*
X120900253Y-169216871D01*
X134798597Y-146602624D02*
X134798567Y-146601961D01*
X116659889Y-64028326D02*
X116642615Y-64056103D01*
X134865050Y-155402565D02*
X134865134Y-155399144D01*
X131163425Y-133883470D02*
X131161076Y-133877045D01*
X117418311Y-63573745D02*
X117385758Y-63576951D01*
X129449047Y-63571605D02*
X129408177Y-63570267D01*
X83929501Y-168850966D02*
X83930578Y-168850916D01*
X132163749Y-136359604D02*
X132163733Y-136359609D01*
X65930108Y-167058585D02*
X65930610Y-167061196D01*
X65123031Y-154869880D02*
X65134761Y-155394672D01*
X134900478Y-153263586D02*
X134904189Y-152751880D01*
X67196539Y-169252196D02*
X67202953Y-169256291D01*
X68260096Y-135293742D02*
X68259027Y-135296276D01*
X134835604Y-156497769D02*
X134835610Y-156497555D01*
X85800036Y-168767309D02*
X85800356Y-168767296D01*
X133448578Y-139943608D02*
X133436480Y-139907822D01*
X131811200Y-135463503D02*
X131809441Y-135459299D01*
X65216432Y-146280208D02*
X65216163Y-146285472D01*
X68407745Y-134945941D02*
X68405274Y-134951764D01*
X134273842Y-142448014D02*
X134226119Y-142275248D01*
X123631852Y-169485580D02*
X124492233Y-169569109D01*
X101027365Y-168452023D02*
X101028893Y-168452031D01*
X133778635Y-140893407D02*
X133778527Y-140893095D01*
X134789018Y-158320981D02*
X134789050Y-158319758D01*
X68261923Y-169643012D02*
X68408453Y-169670152D01*
X68793679Y-133998508D02*
X68768173Y-134065508D01*
X65267982Y-160217350D02*
X65268001Y-160217909D01*
X65630712Y-165210629D02*
X65691872Y-165612838D01*
X67600666Y-136987051D02*
X67600388Y-136987792D01*
X134862505Y-148466750D02*
X134862491Y-148466230D01*
X133856995Y-141119199D02*
X133780309Y-140898215D01*
X66479345Y-140154324D02*
X66479148Y-140154901D01*
X134900414Y-153271013D02*
X134900418Y-153270540D01*
X134805051Y-157698530D02*
X134820270Y-157094611D01*
X66303398Y-140659021D02*
X66303398Y-140659021D01*
X78178888Y-169306104D02*
X78189895Y-169305026D01*
X66390716Y-140409620D02*
X66390413Y-140410490D01*
X134731826Y-145423038D02*
X134731741Y-145421828D01*
X81052276Y-169042253D02*
X81053303Y-169042171D01*
X65270342Y-145393669D02*
X65270248Y-145394889D01*
X126912368Y-169773992D02*
X126914089Y-169774107D01*
X100997979Y-168451912D02*
X100998440Y-168451914D01*
X117987135Y-168967564D02*
X117991431Y-168967872D01*
X132320047Y-136775637D02*
X132319827Y-136775052D01*
X132724490Y-137863319D02*
X132723745Y-137861288D01*
X65477726Y-143605643D02*
X65477435Y-143607368D01*
X106140358Y-168515232D02*
X106141600Y-168515256D01*
X133696601Y-140659021D02*
X133696492Y-140658709D01*
X71516642Y-169849755D02*
X71518996Y-169849727D01*
X71452024Y-161769486D02*
X71539230Y-161899999D01*
X134825894Y-147299173D02*
X134825797Y-147296512D01*
X65215861Y-146291539D02*
X65215823Y-146292328D01*
X134681189Y-161477621D02*
X134681445Y-161471911D01*
X131586678Y-169671029D02*
X131591546Y-169670152D01*
X125474586Y-119263585D02*
X125850000Y-119448718D01*
X67357873Y-137639408D02*
X67357774Y-137639675D01*
X67029538Y-138543979D02*
X67029384Y-138544414D01*
X67546592Y-169437218D02*
X67576164Y-169449238D01*
X108221268Y-168563476D02*
X108222993Y-168563522D01*
X133780309Y-140898215D02*
X133780205Y-140897916D01*
X68839633Y-133875098D02*
X68838923Y-133877045D01*
X129578945Y-63586549D02*
X129546671Y-63581220D01*
X134282845Y-142481445D02*
X134278965Y-142466891D01*
X71659110Y-162189417D02*
X71689733Y-162343368D01*
X80089723Y-169125196D02*
X80092265Y-169124975D01*
X73072613Y-169774965D02*
X73074342Y-169774856D01*
X132499504Y-169417030D02*
X132506848Y-169413699D01*
X125342455Y-169647836D02*
X125348373Y-169648352D01*
X130452024Y-163230513D02*
X130348528Y-163348528D01*
X124497039Y-169569571D02*
X124500758Y-169569923D01*
X68869335Y-133793335D02*
X68868629Y-133795283D01*
X134820369Y-157090708D02*
X134820375Y-157090488D01*
X65113160Y-154334644D02*
X65122788Y-154857968D01*
X114201994Y-168767393D02*
X114203081Y-168767439D01*
X65179630Y-157090708D02*
X65179632Y-157090815D01*
X81934828Y-168973292D02*
X81939121Y-168972962D01*
X66412724Y-168523061D02*
X66433692Y-168553949D01*
X65149154Y-148060742D02*
X65149077Y-148063237D01*
X134784468Y-146298410D02*
X134784430Y-146297615D01*
X99984747Y-168450026D02*
X99985218Y-168450025D01*
X65109879Y-149789059D02*
X65109835Y-149792055D01*
X134872972Y-148889495D02*
X134862811Y-148478222D01*
X67113650Y-138308882D02*
X67112700Y-138311518D01*
X81939121Y-168972962D02*
X81940424Y-168972863D01*
X67030740Y-138540590D02*
X67030583Y-138541033D01*
X82906882Y-168907146D02*
X82908481Y-168907047D01*
X134835272Y-156510321D02*
X134835299Y-156509283D01*
X133049901Y-169073062D02*
X133080722Y-169048046D01*
X65319115Y-161484182D02*
X65319155Y-161485027D01*
X132561435Y-137421503D02*
X132561373Y-137421335D01*
X81053303Y-169042171D02*
X81056703Y-169041902D01*
X133717440Y-168291234D02*
X133733356Y-168257162D01*
X69299999Y-162500000D02*
X69310266Y-162343368D01*
X134873142Y-148896798D02*
X134873070Y-148893621D01*
X96926367Y-168467224D02*
X96927748Y-168467208D01*
X134616154Y-162680404D02*
X134616232Y-162679142D01*
X115171631Y-168809522D02*
X115171962Y-168809537D01*
X133615995Y-140428857D02*
X133615684Y-140427968D01*
X84828037Y-168809537D02*
X84828368Y-168809522D01*
X114203408Y-168767453D02*
X114216847Y-168768019D01*
X133696492Y-140658709D02*
X133696468Y-140658642D01*
X65773880Y-142275248D02*
X65726157Y-142448014D01*
X131813459Y-135468923D02*
X131813203Y-135468307D01*
X66641438Y-139674563D02*
X66641217Y-139675227D01*
X131433008Y-134567561D02*
X131383431Y-134447257D01*
X65164445Y-156499652D02*
X65164451Y-156499866D01*
X134873222Y-148900454D02*
X134873153Y-148897265D01*
X129040779Y-163608655D02*
X128899999Y-163539230D01*
X116070498Y-168850966D02*
X116074047Y-168851134D01*
X103073632Y-168467224D02*
X103074046Y-168467230D01*
X132644308Y-137645320D02*
X132643670Y-137643590D01*
X103067959Y-168467158D02*
X103069326Y-168467174D01*
X65135062Y-155407037D02*
X65149189Y-155940911D01*
X131591380Y-134943881D02*
X131591321Y-134943741D01*
X66642096Y-139672585D02*
X66641893Y-139673197D01*
X69111710Y-169763119D02*
X69115191Y-169763491D01*
X132162737Y-136356911D02*
X132162742Y-136356780D01*
X134287799Y-142500372D02*
X134287235Y-142498194D01*
X67021880Y-169129325D02*
X67026587Y-169132920D01*
X117093117Y-168907146D02*
X117098398Y-168907478D01*
X65988627Y-141576818D02*
X65988247Y-141577971D01*
X131511607Y-169683735D02*
X131516490Y-169682955D01*
X65174216Y-147296133D02*
X65174202Y-147296512D01*
X120865010Y-169213527D02*
X120865530Y-169213576D01*
X66165105Y-167996809D02*
X66167179Y-168002877D01*
X68723149Y-134181575D02*
X68722631Y-134182899D01*
X65093862Y-152229003D02*
X65093867Y-152231924D01*
X70810582Y-163659110D02*
X70656631Y-163689733D01*
X133698957Y-168328636D02*
X133706758Y-168313305D01*
X65103471Y-150258979D02*
X65098710Y-150727254D01*
X66641893Y-139673197D02*
X66641830Y-139673386D01*
X66637578Y-139686151D02*
X66637510Y-139686354D01*
X116085142Y-168851673D02*
X116086219Y-168851727D01*
X134851018Y-148066419D02*
X134851007Y-148066036D01*
X83925952Y-168851134D02*
X83929501Y-168850966D01*
X132642847Y-137641358D02*
X132642225Y-137639675D01*
X68740260Y-169720487D02*
X68768061Y-169724269D01*
X65231986Y-145985778D02*
X65231934Y-145986711D01*
X132562034Y-137423116D02*
X132561960Y-137422916D01*
X68687623Y-134271377D02*
X68646414Y-134373920D01*
X126899080Y-169773082D02*
X126900805Y-169773203D01*
X65340911Y-144612062D02*
X65340738Y-144613637D01*
X96951860Y-168466945D02*
X96953972Y-168466924D01*
X79134989Y-169213527D02*
X79136683Y-169213369D01*
X134245438Y-166022283D02*
X134245534Y-166021659D01*
X119962537Y-169129885D02*
X120862796Y-169213321D01*
X65098706Y-150727698D02*
X65098679Y-150730598D01*
X73861309Y-169715860D02*
X73862583Y-169715756D01*
X134906233Y-151717228D02*
X134906232Y-151716780D01*
X65228068Y-158947442D02*
X65228075Y-158947703D01*
X130804360Y-169771208D02*
X130807844Y-169770909D01*
X68829193Y-133903485D02*
X68828472Y-133905427D01*
X67631949Y-169470972D02*
X67639227Y-169473734D01*
X131203041Y-133989848D02*
X131199959Y-133981667D01*
X112244835Y-168690159D02*
X112246505Y-168690220D01*
X67493151Y-169413699D02*
X67500495Y-169417030D01*
X66566835Y-139897965D02*
X66566541Y-139898842D01*
X134784430Y-146297615D02*
X134784176Y-146292328D01*
X134731068Y-145412431D02*
X134730466Y-145404274D01*
X131454489Y-134619231D02*
X131454190Y-134618516D01*
X116596373Y-64142616D02*
X116582873Y-64172411D01*
X134799013Y-146611980D02*
X134798822Y-146607615D01*
X134896491Y-150255618D02*
X134896486Y-150255186D01*
X84824918Y-168809678D02*
X84826591Y-168809602D01*
X97981013Y-168457594D02*
X97982472Y-168457585D01*
X65318810Y-161477621D02*
X65318849Y-161478478D01*
X126198036Y-124758730D02*
X125850000Y-124991281D01*
X65099581Y-153270540D02*
X65099585Y-153271013D01*
X116511220Y-64423328D02*
X116506951Y-64455758D01*
X133358106Y-139673197D02*
X133357903Y-139672585D01*
X124505000Y-169570321D02*
X124505543Y-169570372D01*
X65109829Y-149792524D02*
X65103597Y-150248425D01*
X95898776Y-168480092D02*
X95900776Y-168480062D01*
X130021410Y-63787027D02*
X129995460Y-63767115D01*
X70017189Y-169828442D02*
X70033026Y-169829302D01*
X133362148Y-139685331D02*
X133361827Y-139684370D01*
X132162721Y-136356916D02*
X132162737Y-136356911D01*
X65348883Y-162079725D02*
X65348936Y-162080754D01*
X67836180Y-136359839D02*
X67759017Y-136565170D01*
X134886904Y-154330943D02*
X134886912Y-154330466D01*
X68908947Y-133681301D02*
X68906374Y-133688740D01*
X71480418Y-169850000D02*
X71482769Y-169849994D01*
X66476273Y-140163269D02*
X66468177Y-140186741D01*
X68693583Y-134256450D02*
X68693057Y-134257774D01*
X134896528Y-150258979D02*
X134896524Y-150258553D01*
X134061416Y-167101416D02*
X134061946Y-167098807D01*
X130689733Y-162656631D02*
X130659110Y-162810582D01*
X123625638Y-169484970D02*
X123625880Y-169484994D01*
X69195639Y-169771208D02*
X69537284Y-169799316D01*
X133522681Y-140160232D02*
X133521697Y-140157367D01*
X94865503Y-168496347D02*
X94866768Y-168496323D01*
X132480228Y-137203397D02*
X132479805Y-137202264D01*
X65099585Y-153271013D02*
X65099615Y-153274022D01*
X68118188Y-135634199D02*
X68115843Y-135639926D01*
X67035006Y-169139270D02*
X67040533Y-169143380D01*
X97976061Y-168457627D02*
X97976499Y-168457624D01*
X131743718Y-169641933D02*
X131781479Y-169634489D01*
X134789093Y-158318109D02*
X134805009Y-157700184D01*
X131240988Y-134089337D02*
X131238907Y-134083954D01*
X65847436Y-142023856D02*
X65844029Y-142035162D01*
X66465939Y-140193210D02*
X66465283Y-140195102D01*
X134083373Y-141800150D02*
X134080326Y-141790595D01*
X67520194Y-137202264D02*
X67519771Y-137203397D01*
X65291882Y-145122314D02*
X65291094Y-145131371D01*
X66203266Y-168103460D02*
X66205927Y-168110345D01*
X65290978Y-145132723D02*
X65290214Y-145141790D01*
X68188799Y-135463503D02*
X68188543Y-135464115D01*
X67837278Y-136356916D02*
X67837202Y-136357116D01*
X82982552Y-168902529D02*
X82990557Y-168902064D01*
X68764861Y-134074161D02*
X68761721Y-134082323D01*
X66061068Y-141359260D02*
X66059085Y-141365178D01*
X90754469Y-168591614D02*
X90756202Y-168591563D01*
X66565074Y-139903208D02*
X66564780Y-139904081D01*
X121822285Y-169306220D02*
X121822556Y-169306246D01*
X131740972Y-135296276D02*
X131739903Y-135293742D01*
X134820285Y-157094021D02*
X134820292Y-157093767D01*
X65149234Y-155942625D02*
X65149256Y-155943427D01*
X134731565Y-160230142D02*
X134731700Y-160226443D01*
X86748560Y-168728597D02*
X86748890Y-168728584D01*
X132479761Y-137202148D02*
X132400346Y-136989755D01*
X132656281Y-169339503D02*
X132658268Y-169338423D01*
X105128883Y-168496246D02*
X105129267Y-168496252D01*
X117992734Y-168967966D02*
X118046156Y-168971859D01*
X66151473Y-167956081D02*
X66165105Y-167996809D01*
X87733132Y-168690973D02*
X87733462Y-168690961D01*
X117009442Y-168902064D02*
X117017447Y-168902529D01*
X108219759Y-168563436D02*
X108220913Y-168563467D01*
X79134469Y-169213576D02*
X79134989Y-169213527D01*
X130459829Y-169799545D02*
X130462715Y-169799316D01*
X95902894Y-168480032D02*
X95919333Y-168479800D01*
X94888583Y-168495945D02*
X94888971Y-168495939D01*
X122733281Y-169396971D02*
X122733330Y-169396476D01*
X107195507Y-168538178D02*
X107195859Y-168538186D01*
X65113095Y-154330943D02*
X65113151Y-154334144D01*
X68408619Y-134943881D02*
X68408439Y-134944306D01*
X65812656Y-166389351D02*
X65812848Y-166390557D01*
X71482769Y-169849994D02*
X71498532Y-169849920D01*
X67343718Y-169339503D02*
X67357962Y-169346958D01*
X82975671Y-168902937D02*
X82980953Y-168902623D01*
X132088176Y-136158404D02*
X132086507Y-136154015D01*
X89756028Y-168621759D02*
X89756366Y-168621749D01*
X116958325Y-63729889D02*
X116931128Y-63748061D01*
X100012371Y-168450023D02*
X100014781Y-168450025D01*
X122732515Y-169396395D02*
X122733071Y-169396450D01*
X65874898Y-166758882D02*
X65875232Y-166760754D01*
X131359589Y-134388771D02*
X131358231Y-134385423D01*
X87753173Y-168690231D02*
X87753494Y-168690220D01*
X65126777Y-148900454D02*
X65126766Y-148900938D01*
X95897047Y-168480118D02*
X95898372Y-168480098D01*
X65137200Y-148477738D02*
X65137188Y-148478222D01*
X66716698Y-139448008D02*
X66716484Y-139448647D01*
X77266120Y-169396530D02*
X77266679Y-169396230D01*
X134532606Y-163800967D02*
X134532775Y-163799098D01*
X65569867Y-164772400D02*
X65572445Y-164791846D01*
X107175504Y-168537712D02*
X107176688Y-168537739D01*
X87733462Y-168690961D02*
X87734578Y-168690918D01*
X68488392Y-169683735D02*
X68521136Y-169688800D01*
X106139986Y-168515225D02*
X106140358Y-168515232D01*
X98999246Y-168451920D02*
X99001559Y-168451914D01*
X114218276Y-168768079D02*
X114218609Y-168768094D01*
X82885125Y-168908548D02*
X82890406Y-168908199D01*
X65164727Y-156510321D02*
X65164733Y-156510533D01*
X134805009Y-157700184D02*
X134805009Y-157700169D01*
X116500267Y-64561822D02*
X116500000Y-64578181D01*
X134851101Y-148069239D02*
X134851091Y-148068884D01*
X107173351Y-168537664D02*
X107175152Y-168537704D01*
X65423558Y-163259962D02*
X65424353Y-163270196D01*
X134850786Y-155941822D02*
X134850807Y-155941022D01*
X65348936Y-162080754D02*
X65349297Y-162087695D01*
X134876968Y-154869880D02*
X134876979Y-154869377D01*
X115152865Y-168808685D02*
X115153199Y-168808700D01*
X79102510Y-169216605D02*
X79105084Y-169216358D01*
X79105084Y-169216358D02*
X79105598Y-169216309D01*
X115173408Y-168809602D02*
X115175081Y-168809678D01*
X128483357Y-169849755D02*
X128499114Y-169849903D01*
X67836193Y-136359803D02*
X67836180Y-136359839D01*
X134616232Y-162679142D02*
X134616745Y-162670718D01*
X131205699Y-133996873D02*
X131203658Y-133991482D01*
X133696467Y-140658637D02*
X133616090Y-140429128D01*
X132561373Y-137421335D02*
X132560833Y-137419883D01*
X68118537Y-135633347D02*
X68118188Y-135634199D01*
X134865134Y-155399144D02*
X134865147Y-155398614D01*
X66384984Y-140426055D02*
X66384888Y-140426329D01*
X132009253Y-169582408D02*
X132015589Y-169580799D01*
X107177051Y-168537748D02*
X107191821Y-168538090D01*
X132481215Y-137206044D02*
X132481163Y-137205903D01*
X102021608Y-168457611D02*
X102022052Y-168457614D01*
X134749864Y-145684946D02*
X134749382Y-145677728D01*
X116081588Y-168851498D02*
X116085142Y-168851673D01*
X68121240Y-135626780D02*
X68120890Y-135627629D01*
X132726294Y-137868248D02*
X132726176Y-137867925D01*
X67679812Y-136776010D02*
X67679763Y-136776142D01*
X134825907Y-147299551D02*
X134825894Y-147299173D01*
X134226119Y-142275248D02*
X134225580Y-142273312D01*
X68483509Y-169682955D02*
X68488392Y-169683735D01*
X88752069Y-168654752D02*
X88752403Y-168654741D01*
X65093868Y-152232383D02*
X65093877Y-152235285D01*
X115176824Y-168809758D02*
X116069421Y-168850916D01*
X134006081Y-167367078D02*
X134011150Y-167344129D01*
X134526668Y-143632198D02*
X134524779Y-143620643D01*
X65250064Y-145686021D02*
X65249598Y-145693246D01*
X117353328Y-63581220D02*
X117321054Y-63586549D01*
X97976499Y-168457624D02*
X97977947Y-168457614D01*
X111247596Y-168654741D02*
X111247930Y-168654752D01*
X65628833Y-165198009D02*
X65630466Y-165208992D01*
X68562667Y-134578009D02*
X68562368Y-134578728D01*
X71747913Y-169844626D02*
X72348547Y-169818851D01*
X131377359Y-134432434D02*
X131376946Y-134431421D01*
X134330915Y-142668159D02*
X134287799Y-142500372D01*
X73843059Y-169717303D02*
X73851556Y-169716642D01*
X68474877Y-134787503D02*
X68474695Y-134787934D01*
X134159844Y-142048174D02*
X134156476Y-142036851D01*
X78191314Y-169304887D02*
X78192717Y-169304751D01*
X65716580Y-142483616D02*
X65712764Y-142498194D01*
X65401597Y-144112965D02*
X65401363Y-144114677D01*
X65912702Y-141812581D02*
X65909710Y-141822162D01*
X66038584Y-167557564D02*
X66039620Y-167561873D01*
X134124767Y-166760754D02*
X134125101Y-166758882D01*
X109227913Y-168591105D02*
X109241998Y-168591511D01*
X66303375Y-140659088D02*
X66303375Y-140659088D01*
X121478718Y-123820000D02*
X121293585Y-123444586D01*
X96956173Y-168466903D02*
X97951195Y-168457817D01*
X133361827Y-139684370D02*
X133361765Y-139684184D01*
X134906141Y-152225644D02*
X134906142Y-152225195D01*
X107193752Y-168538136D02*
X107195507Y-168538178D01*
X65148992Y-148066036D02*
X65148981Y-148066419D01*
X84845719Y-168808747D02*
X84846800Y-168808700D01*
X107191821Y-168538090D02*
X107192175Y-168538099D01*
X65134865Y-155399144D02*
X65134949Y-155402565D01*
X134000080Y-167393428D02*
X134005313Y-167370501D01*
X68126451Y-169614685D02*
X68132054Y-169615958D01*
X129481688Y-63573745D02*
X129449047Y-63571605D01*
X133775906Y-168156331D02*
X133794072Y-168110345D01*
X134369533Y-165208992D02*
X134371166Y-165198009D01*
X130399732Y-64561822D02*
X130398394Y-64520952D01*
X65369555Y-144362572D02*
X65368213Y-144373645D01*
X65210981Y-158320981D02*
X65210987Y-158321182D01*
X65105379Y-153802435D02*
X65112970Y-154323112D01*
X112243427Y-168690109D02*
X112244494Y-168690147D01*
X65149165Y-148060375D02*
X65149154Y-148060742D01*
X126137416Y-169715756D02*
X126138690Y-169715860D01*
X79107842Y-169216095D02*
X79129114Y-169214079D01*
X66138221Y-141133091D02*
X66138009Y-141133711D01*
X68767549Y-134067142D02*
X68765487Y-134072529D01*
X65292144Y-160860014D02*
X65292338Y-160864652D01*
X99003550Y-168451909D02*
X99004010Y-168451908D01*
X68906374Y-133688740D02*
X68905591Y-133690994D01*
X67355608Y-137645546D02*
X67276372Y-137860969D01*
X67600026Y-136988757D02*
X67599980Y-136988882D01*
X131355758Y-134379311D02*
X131355347Y-134378293D01*
X96925953Y-168467230D02*
X96926367Y-168467224D01*
X66587664Y-168744530D02*
X66593529Y-168750852D01*
X134707661Y-160864652D02*
X134707855Y-160860014D01*
X95923466Y-168479744D02*
X95923871Y-168479739D01*
X68565418Y-134571368D02*
X68563935Y-134574952D01*
X106161053Y-168515648D02*
X106161422Y-168515655D01*
X134217136Y-142243477D02*
X134213387Y-142230518D01*
X82007265Y-168967966D02*
X82008568Y-168967872D01*
X110243633Y-168621749D02*
X110243971Y-168621759D01*
X102018986Y-168457594D02*
X102019420Y-168457597D01*
X87734904Y-168690906D02*
X87736520Y-168690846D01*
X99987628Y-168450023D02*
X99988117Y-168450022D01*
X134575646Y-163270196D02*
X134576441Y-163259962D01*
X132241029Y-136565295D02*
X132241001Y-136565221D01*
X133938931Y-141359260D02*
X133938632Y-141358371D01*
X67698294Y-169495384D02*
X67739936Y-169509409D01*
X126927386Y-169774965D02*
X127596247Y-169815974D01*
X69460769Y-163100000D02*
X69391344Y-162959220D01*
X99001559Y-168451914D02*
X99002020Y-168451912D01*
X67439166Y-137419883D02*
X67438626Y-137421335D01*
X132163618Y-136359302D02*
X132163564Y-136359160D01*
X134576557Y-163258441D02*
X134577321Y-163248207D01*
X68566695Y-134568278D02*
X68565715Y-134570650D01*
X127422623Y-121802316D02*
X127450000Y-122219999D01*
X94871116Y-168496246D02*
X94886942Y-168495973D01*
X65228201Y-158952150D02*
X65228210Y-158952456D01*
X68331924Y-135124287D02*
X68261505Y-135290410D01*
X65137402Y-148470061D02*
X65137388Y-148470572D01*
X65211026Y-158322632D02*
X65228068Y-158947442D01*
X134680844Y-161485027D02*
X134680884Y-161484182D01*
X65210987Y-158321182D02*
X65211020Y-158322434D01*
X65877490Y-166773291D02*
X65877831Y-166775163D01*
X119953842Y-169129090D02*
X119954613Y-169129160D01*
X112265095Y-168690906D02*
X112265421Y-168690918D01*
X66812116Y-168957650D02*
X66836548Y-168978776D01*
X134278965Y-142466891D02*
X134278382Y-142464720D01*
X131167950Y-169732192D02*
X131195812Y-169728876D01*
X104102952Y-168480118D02*
X104103347Y-168480125D01*
X69769486Y-163452024D02*
X69651471Y-163348528D01*
X67111612Y-138314541D02*
X67111473Y-138314928D01*
X132423835Y-169449238D02*
X132453407Y-169437218D01*
X119918968Y-169125964D02*
X119950540Y-169128792D01*
X130462715Y-169799316D02*
X130804360Y-169771208D01*
X119918194Y-169125895D02*
X119918968Y-169125964D01*
X133816528Y-168049427D02*
X133818680Y-168043386D01*
X70014833Y-169828309D02*
X70017189Y-169828442D01*
X65982415Y-141595857D02*
X65920133Y-141789160D01*
X67083333Y-169174690D02*
X67120878Y-169201420D01*
X131515006Y-134763520D02*
X131514412Y-134762109D01*
X131738076Y-169643012D02*
X131743718Y-169641933D01*
X87738287Y-168690780D02*
X87751745Y-168690284D01*
X123631564Y-169485552D02*
X123631852Y-169485580D01*
X133960379Y-167561873D02*
X133961415Y-167557564D01*
X122733123Y-169396455D02*
X122733264Y-169396469D01*
X118051748Y-168972273D02*
X118053050Y-168972370D01*
X65149189Y-155940911D02*
X65149192Y-155941022D01*
X134873059Y-148893135D02*
X134872983Y-148889970D01*
X117257117Y-63600358D02*
X117225521Y-63608824D01*
X116500000Y-64578181D02*
X116500000Y-132500000D01*
X71700000Y-162500000D02*
X71689733Y-162656631D01*
X121987258Y-119957258D02*
X122301963Y-119681269D01*
X65113151Y-154334144D02*
X65113160Y-154334644D01*
X134904628Y-151224186D02*
X134904626Y-151223746D01*
X133215761Y-168933102D02*
X133219363Y-168929896D01*
X102044273Y-168457778D02*
X102046475Y-168457796D01*
X134771866Y-158949787D02*
X134771924Y-158947703D01*
X67600721Y-136986903D02*
X67600666Y-136987051D01*
X134017205Y-141594686D02*
X134014679Y-141586912D01*
X75494456Y-169570372D02*
X75494999Y-169570321D01*
X134850933Y-148063585D02*
X134850922Y-148063237D01*
X112262042Y-168690792D02*
X112263150Y-168690833D01*
X67639227Y-169473734D02*
X67684122Y-169490373D01*
X116642615Y-64056103D02*
X116626260Y-64084431D01*
X65269625Y-145403049D02*
X65269533Y-145404274D01*
X134731851Y-160222186D02*
X134731871Y-160221621D01*
X131168433Y-133897078D02*
X131167715Y-133895133D01*
X66567802Y-139895079D02*
X66566835Y-139897965D01*
X66566541Y-139898842D02*
X66565074Y-139903208D01*
X67911823Y-136158404D02*
X67911577Y-136159052D01*
X68049130Y-135804675D02*
X68046272Y-135811827D01*
X65786612Y-142230518D02*
X65782863Y-142243477D01*
X132888526Y-138314928D02*
X132888387Y-138314541D01*
X78174692Y-169306518D02*
X78174958Y-169306492D01*
X132467994Y-169431017D02*
X132499504Y-169417030D01*
X133049573Y-138767765D02*
X133049407Y-138767291D01*
X92828565Y-168537622D02*
X93833158Y-168515769D01*
X134445884Y-143180722D02*
X134445346Y-143177933D01*
X120868144Y-169213821D02*
X120868658Y-169213869D01*
X66000711Y-167396844D02*
X66038584Y-167557564D01*
X73074342Y-169774856D02*
X73085910Y-169774107D01*
X131811456Y-135464115D02*
X131811200Y-135463503D01*
X131241620Y-134090967D02*
X131240988Y-134089337D01*
X65126940Y-148893135D02*
X65126929Y-148893621D01*
X120870885Y-169214079D02*
X120892157Y-169216095D01*
X134561496Y-143854704D02*
X134561229Y-143852974D01*
X103050349Y-168466968D02*
X103067547Y-168467154D01*
X66389426Y-140413325D02*
X66389328Y-140413604D01*
X107171434Y-168537622D02*
X107171795Y-168537630D01*
X67030583Y-138541033D02*
X67029538Y-138543979D01*
X134729751Y-145394889D02*
X134729657Y-145393669D01*
X116697114Y-63974540D02*
X116678061Y-64001128D01*
X132319827Y-136775052D02*
X132319805Y-136774992D01*
X104080268Y-168479795D02*
X104080666Y-168479800D01*
X133860401Y-141129074D02*
X133860191Y-141128463D01*
X133284961Y-139452982D02*
X133283515Y-139448647D01*
X134577321Y-163248207D02*
X134577432Y-163246682D01*
X131381222Y-134441880D02*
X131379141Y-134436797D01*
X66467125Y-140189787D02*
X66466137Y-140192639D01*
X66872645Y-138990688D02*
X66871393Y-138994301D01*
X116717027Y-63948588D02*
X116697114Y-63974540D01*
X134877138Y-154861759D02*
X134877202Y-154858465D01*
X68772211Y-169724816D02*
X68800033Y-169728364D01*
X80988905Y-169047468D02*
X80994054Y-169047034D01*
X65473331Y-143632198D02*
X65473053Y-143633923D01*
X92806615Y-168538127D02*
X92807824Y-168538099D01*
X131306416Y-134256450D02*
X131304683Y-134252085D01*
X133616090Y-140429128D02*
X133615995Y-140428857D01*
X68039607Y-169594434D02*
X68126451Y-169614685D01*
X65985699Y-141585751D02*
X65985320Y-141586912D01*
X65628591Y-165196359D02*
X65628833Y-165198009D01*
X133128796Y-138994850D02*
X133128606Y-138994301D01*
X120865530Y-169213576D02*
X120868144Y-169213821D01*
X65105324Y-153798410D02*
X65105330Y-153798872D01*
X108205049Y-168563053D02*
X108219412Y-168563427D01*
X131310100Y-134265694D02*
X131309572Y-134264371D01*
X133936635Y-141352448D02*
X133936336Y-141351564D01*
X131358231Y-134385423D02*
X131357820Y-134384410D01*
X132797046Y-169256291D02*
X132803460Y-169252196D01*
X68545510Y-134619231D02*
X68487606Y-134757304D01*
X67120878Y-169201420D02*
X67126517Y-169205376D01*
X134485242Y-143389214D02*
X134482466Y-143373815D01*
X134887022Y-154323606D02*
X134887029Y-154323112D01*
X65247149Y-159589070D02*
X65247241Y-159591909D01*
X96949650Y-168466968D02*
X96950068Y-168466964D01*
X67599653Y-136989755D02*
X67520238Y-137202148D01*
X65093767Y-151716780D02*
X65093766Y-151717228D01*
X134017526Y-167314268D02*
X134061416Y-167101416D01*
X87756572Y-168690109D02*
X87756893Y-168690097D01*
X132531359Y-169402342D02*
X132545835Y-169395349D01*
X130831196Y-169768823D02*
X130834680Y-169768500D01*
X133046927Y-138760242D02*
X133046758Y-138759762D01*
X65246932Y-159582059D02*
X65246944Y-159582476D01*
X130700000Y-162500000D02*
X130689733Y-162656631D01*
X65851393Y-142010879D02*
X65847947Y-142022171D01*
X68836211Y-169732669D02*
X69111710Y-169763119D01*
X94887323Y-168495966D02*
X94888583Y-168495945D01*
X68408033Y-134945263D02*
X68407806Y-134945797D01*
X66872836Y-138990136D02*
X66872645Y-138990688D01*
X65095371Y-151224186D02*
X65095359Y-151227059D01*
X98975851Y-168452008D02*
X98977365Y-168452002D01*
X134862713Y-148474395D02*
X134862700Y-148473905D01*
X132018045Y-135974951D02*
X132014727Y-135966467D01*
X71100000Y-163539230D02*
X70959220Y-163608655D01*
X133433458Y-139898842D02*
X133433164Y-139897965D01*
X119001517Y-169046664D02*
X119004917Y-169046947D01*
X133451632Y-139952601D02*
X133450147Y-139948235D01*
X130182972Y-63948588D02*
X130162221Y-63923303D01*
X92822948Y-168537748D02*
X92823311Y-168537739D01*
X68693057Y-134257774D02*
X68690427Y-134264371D01*
X65467224Y-163799098D02*
X65467393Y-163800967D01*
X134307805Y-165614948D02*
X134307830Y-165614784D01*
X134430132Y-164772400D02*
X134430508Y-164769494D01*
X90758001Y-168591511D02*
X90772086Y-168591105D01*
X68549870Y-134608792D02*
X68548887Y-134611151D01*
X133361565Y-139683583D02*
X133361500Y-139683387D01*
X72386120Y-169816979D02*
X72401461Y-169816110D01*
X131884156Y-135639926D02*
X131881811Y-135634199D01*
X76374361Y-169484970D02*
X77266120Y-169396530D01*
X67518784Y-137206044D02*
X67439235Y-137419699D01*
X65318849Y-161478478D02*
X65319115Y-161484182D01*
X65691890Y-165612952D02*
X65692018Y-165613792D01*
X65314632Y-144869752D02*
X65313688Y-144879620D01*
X134427161Y-164794749D02*
X134427554Y-164791846D01*
X131668075Y-135124287D02*
X131668047Y-135124219D01*
X118942263Y-169041821D02*
X118943296Y-169041902D01*
X105134886Y-168496354D02*
X106139986Y-168515225D01*
X134011752Y-141577971D02*
X134011372Y-141576818D01*
X132301705Y-169495384D02*
X132315877Y-169490373D01*
X132723745Y-137861288D02*
X132723627Y-137860969D01*
X65095752Y-152741168D02*
X65095753Y-152741636D01*
X134526946Y-143633923D02*
X134526668Y-143632198D01*
X99990153Y-168450022D02*
X100009846Y-168450022D01*
X80093035Y-169124908D02*
X80983465Y-169047933D01*
X129189417Y-161340889D02*
X129343368Y-161310266D01*
X67518836Y-137205903D02*
X67518784Y-137206044D01*
X92802565Y-168538225D02*
X92802933Y-168538216D01*
X133085301Y-169044284D02*
X133131441Y-169005919D01*
X65179714Y-157094021D02*
X65179715Y-157094079D01*
X67836450Y-136359121D02*
X67836435Y-136359160D01*
X65179636Y-157090965D02*
X65179642Y-157091193D01*
X91775122Y-168563573D02*
X91775478Y-168563564D01*
X68565715Y-134570650D02*
X68565418Y-134571368D01*
X65520803Y-143356122D02*
X65517954Y-143371513D01*
X65338325Y-144636310D02*
X65338162Y-144637888D01*
X67077750Y-169170657D02*
X67083333Y-169174690D01*
X134812726Y-146944416D02*
X134812588Y-146940973D01*
X132889479Y-138317586D02*
X132888526Y-138314928D01*
X131434581Y-134571368D02*
X131434284Y-134570650D01*
X132086256Y-136153356D02*
X132026091Y-135995769D01*
X134535257Y-163770300D02*
X134575525Y-163271727D01*
X108223338Y-168563532D02*
X108224521Y-168563564D01*
X119961765Y-169129814D02*
X119962537Y-169129885D01*
X98971106Y-168452031D02*
X98972634Y-168452023D01*
X132315877Y-169490373D02*
X132360772Y-169473734D01*
X72383827Y-169817104D02*
X72386120Y-169816979D01*
X65659894Y-142705006D02*
X65659309Y-142707401D01*
X67341731Y-169338423D02*
X67343718Y-169339503D01*
X104103347Y-168480125D02*
X105107050Y-168495874D01*
X116146071Y-168854778D02*
X116147147Y-168854836D01*
X66348371Y-168417816D02*
X66366141Y-168448603D01*
X67194937Y-138084105D02*
X67194815Y-138084438D01*
X65093758Y-151720574D02*
X65093754Y-151723471D01*
X65268842Y-145413658D02*
X65268258Y-145421828D01*
X107193384Y-168538127D02*
X107193752Y-168538136D01*
X67739936Y-169509409D02*
X67746821Y-169511673D01*
X107176688Y-168537739D02*
X107177051Y-168537748D01*
X65200986Y-146611980D02*
X65200958Y-146612627D01*
X67599980Y-136988882D02*
X67599708Y-136989609D01*
X75507766Y-169569109D02*
X76368147Y-169485580D01*
X134709021Y-145132723D02*
X134708905Y-145131371D01*
X82021991Y-168966923D02*
X82026296Y-168966626D01*
X121077376Y-122637683D02*
X121049999Y-122219999D01*
X130369641Y-64327117D02*
X130361175Y-64295521D01*
X132163733Y-136359609D02*
X132163636Y-136359352D01*
X68720037Y-134189518D02*
X68719517Y-134190842D01*
X71348528Y-161651471D02*
X71452024Y-161769486D01*
X129473700Y-169848894D02*
X129478701Y-169848769D01*
X134731700Y-160226443D02*
X134731720Y-160225881D01*
X134862811Y-148478222D02*
X134862799Y-148477738D01*
X106143815Y-168515299D02*
X106144186Y-168515306D01*
X134783876Y-146286273D02*
X134783836Y-146285472D01*
X100995989Y-168451908D02*
X100996449Y-168451909D01*
X131522688Y-134781745D02*
X131522507Y-134781316D01*
X134709896Y-145143138D02*
X134709785Y-145141790D01*
X121159037Y-123048220D02*
X121077376Y-122637683D01*
X133358501Y-139674384D02*
X133358169Y-139673386D01*
X81953843Y-168971859D02*
X82007265Y-168967966D01*
X68052438Y-135796449D02*
X68049561Y-135803598D01*
X131667237Y-135122310D02*
X131666831Y-135121355D01*
X133696468Y-140658642D02*
X133696467Y-140658637D01*
X65105285Y-153795332D02*
X65105324Y-153798410D01*
X134906232Y-151716780D02*
X134904642Y-151227514D01*
X134835634Y-156496667D02*
X134850739Y-155943570D01*
X67792984Y-169526478D02*
X67799899Y-169528641D01*
X134752744Y-159592349D02*
X134752758Y-159591909D01*
X134789012Y-158321182D02*
X134789018Y-158320981D01*
X121808685Y-169304887D02*
X121808971Y-169304915D01*
X65753813Y-166017440D02*
X65754465Y-166021659D01*
X134633290Y-144386382D02*
X134631984Y-144375299D01*
X134826121Y-147305640D02*
X134826108Y-147305260D01*
X133523530Y-140162698D02*
X133522879Y-140160807D01*
X134805023Y-157699625D02*
X134805038Y-157699034D01*
X67978162Y-135984716D02*
X67977672Y-135985985D01*
X99985218Y-168450025D02*
X99987628Y-168450023D01*
X131276850Y-134181575D02*
X131275145Y-134177208D01*
X87756893Y-168690097D02*
X88729878Y-168655513D01*
X69391344Y-162959220D02*
X69340889Y-162810582D01*
X65247032Y-159585336D02*
X65247045Y-159585769D01*
X85801414Y-168767252D02*
X85801750Y-168767239D01*
X68332757Y-135122323D02*
X68332376Y-135123219D01*
X66791809Y-139225870D02*
X66791604Y-139226475D01*
X65098647Y-150734359D02*
X65098625Y-150737270D01*
X134307981Y-165613792D02*
X134308109Y-165612952D01*
X65938053Y-167098807D02*
X65938583Y-167101416D01*
X134436791Y-143134982D02*
X134432915Y-143116322D01*
X134577432Y-163246682D02*
X134578165Y-163236436D01*
X65626995Y-165185374D02*
X65628591Y-165196359D01*
X93860013Y-168515225D02*
X94865113Y-168496354D01*
X70040779Y-163608655D02*
X69899999Y-163539230D01*
X131738494Y-135290410D02*
X131668075Y-135124287D01*
X131124146Y-133775206D02*
X131123450Y-133773258D01*
X133009525Y-169105047D02*
X133014190Y-169101395D01*
X105129267Y-168496252D02*
X105130517Y-168496274D01*
X131434284Y-134570650D02*
X131433304Y-134568278D01*
X82992157Y-168901973D02*
X82997445Y-168901675D01*
X67837202Y-136357116D02*
X67837183Y-136357109D01*
X133532874Y-140189787D02*
X133532677Y-140189218D01*
X126900805Y-169773203D02*
X126912368Y-169773992D01*
X132723627Y-137860969D02*
X132644391Y-137645546D01*
X67275398Y-137863622D02*
X67274672Y-137865602D01*
X65098650Y-150733949D02*
X65098647Y-150734359D01*
X128391344Y-162959220D02*
X128340889Y-162810582D01*
X132642126Y-137639408D02*
X132562639Y-137424749D01*
X131513162Y-134759135D02*
X131512573Y-134757735D01*
X65403418Y-144099842D02*
X65403179Y-144101546D01*
X133432197Y-139895079D02*
X133431906Y-139894208D01*
X66600026Y-168757724D02*
X66632977Y-168791924D01*
X107192175Y-168538099D02*
X107193384Y-168538127D01*
X132320062Y-136775677D02*
X132320047Y-136775637D01*
X96930248Y-168467179D02*
X96930673Y-168467174D01*
X123832316Y-125392623D02*
X123421779Y-125310962D01*
X65817425Y-166418547D02*
X65869878Y-166730031D01*
X66784238Y-168933102D02*
X66808480Y-168954476D01*
X84823175Y-168809758D02*
X84823508Y-168809743D01*
X133857211Y-141119823D02*
X133856995Y-141119199D01*
X134427554Y-164791846D02*
X134430132Y-164772400D01*
X107197066Y-168538216D02*
X107197434Y-168538225D01*
X134862491Y-148466230D02*
X134851101Y-148069239D01*
X65122797Y-154858465D02*
X65122861Y-154861759D01*
X68725370Y-134175883D02*
X68724854Y-134177208D01*
X65249598Y-145693246D02*
X65249529Y-145694319D01*
X117450952Y-63571605D02*
X117418311Y-63573745D01*
X133435219Y-139904081D02*
X133434925Y-139903208D01*
X116075123Y-168851185D02*
X116080512Y-168851445D01*
X118060878Y-168972962D02*
X118065171Y-168973292D01*
X65117831Y-149328371D02*
X65117821Y-149328840D01*
X134731741Y-145421828D02*
X134731157Y-145413658D01*
X117007842Y-168901973D02*
X117009442Y-168902064D01*
X79137203Y-169213321D02*
X80037462Y-169129885D01*
X118047458Y-168971955D02*
X118051748Y-168972273D01*
X133533862Y-140192639D02*
X133532874Y-140189787D01*
X134244022Y-166031340D02*
X134244681Y-166027144D01*
X134799226Y-146616969D02*
X134799041Y-146612627D01*
X133610573Y-140413325D02*
X133610275Y-140412469D01*
X82974070Y-168903034D02*
X82975671Y-168902937D01*
X133818680Y-168043386D02*
X133832820Y-168002877D01*
X131120462Y-133764867D02*
X131102526Y-133714192D01*
X126156940Y-169717303D02*
X126158200Y-169717400D01*
X85796591Y-168767453D02*
X85796918Y-168767439D01*
X134890004Y-149781773D02*
X134882379Y-149339406D01*
X89756366Y-168621749D02*
X89757465Y-168621715D01*
X65399594Y-144127807D02*
X65398092Y-144139234D01*
X65616180Y-142889747D02*
X65615574Y-142892343D01*
X131741140Y-135296676D02*
X131740972Y-135296276D01*
X134086848Y-141811152D02*
X134083829Y-141801585D01*
X130440514Y-169801021D02*
X130459829Y-169799545D01*
X65994686Y-167370501D02*
X65999919Y-167393428D01*
X134225580Y-142273312D02*
X134221936Y-142260324D01*
X122649999Y-124991281D02*
X122301963Y-124758730D01*
X131878759Y-135626780D02*
X131815460Y-135473744D01*
X65668478Y-142670544D02*
X65664443Y-142686574D01*
X85783152Y-168768019D02*
X85796591Y-168767453D01*
X65117821Y-149328840D02*
X65117760Y-149331900D01*
X134657915Y-144601519D02*
X134657737Y-144599943D01*
X121822556Y-169306246D02*
X121823886Y-169306377D01*
X66477120Y-140160807D02*
X66476469Y-140162698D01*
X65473053Y-143633923D02*
X65471204Y-143645484D01*
X66641217Y-139675227D02*
X66641149Y-139675431D01*
X66390317Y-140410766D02*
X66389817Y-140412201D01*
X134750920Y-145701531D02*
X134750470Y-145694319D01*
X128321535Y-169846796D02*
X128324544Y-169846862D01*
X106165253Y-168515735D02*
X106166470Y-168515761D01*
X116558834Y-64233245D02*
X116548319Y-64264219D01*
X99002020Y-168451912D02*
X99003550Y-168451909D01*
X68408380Y-134944444D02*
X68408098Y-134945110D01*
X65231592Y-145992960D02*
X65231543Y-145993884D01*
X65397870Y-144140945D02*
X65371346Y-144348197D01*
X68186796Y-135468307D02*
X68186540Y-135468923D01*
X85781390Y-168768094D02*
X85781723Y-168768079D01*
X97951638Y-168457813D02*
X97953092Y-168457800D01*
X134783567Y-146280208D02*
X134783525Y-146279412D01*
X133163451Y-168978776D02*
X133187883Y-168957650D01*
X133436480Y-139907822D02*
X133436186Y-139906951D01*
X134838640Y-147674919D02*
X134838632Y-147674667D01*
X134865238Y-155394672D02*
X134876968Y-154869880D01*
X96955758Y-168466907D02*
X96956173Y-168466903D01*
X117985832Y-168967472D02*
X117987135Y-168967564D01*
X65093766Y-151717228D02*
X65093759Y-151720130D01*
X131513337Y-134759552D02*
X131513162Y-134759135D01*
X78192717Y-169304751D02*
X78192984Y-169304725D01*
X104080666Y-168479800D02*
X104097105Y-168480032D01*
X90773859Y-168591055D02*
X90775586Y-168591006D01*
X66483050Y-168621113D02*
X66506706Y-168650862D01*
X116136062Y-168854247D02*
X116141436Y-168854529D01*
X134531453Y-163813490D02*
X134532606Y-163800967D01*
X127649154Y-169818747D02*
X127651452Y-169818851D01*
X70564790Y-169849639D02*
X70598304Y-169849974D01*
X132978119Y-169129325D02*
X133009525Y-169105047D01*
X96928172Y-168467203D02*
X96930248Y-168467179D01*
X121711269Y-124168036D02*
X121478718Y-123820000D01*
X65117760Y-149331900D02*
X65117751Y-149332368D01*
X131454190Y-134618516D02*
X131453203Y-134616158D01*
X131127641Y-133784952D02*
X131124146Y-133775206D01*
X66951921Y-138763508D02*
X66951747Y-138764002D01*
X89740453Y-168622251D02*
X89740793Y-168622240D01*
X70526299Y-169848894D02*
X70559787Y-169849564D01*
X67437448Y-137424512D02*
X67437360Y-137424749D01*
X66950592Y-138767291D02*
X66950426Y-138767765D01*
X66056192Y-167628072D02*
X66063769Y-167656785D01*
X132968208Y-138537636D02*
X132968049Y-138537189D01*
X131238278Y-134082323D02*
X131235138Y-134074161D01*
X68566991Y-134567561D02*
X68566695Y-134568278D01*
X133130227Y-138998998D02*
X133130032Y-138998432D01*
X65105242Y-153791732D02*
X65105279Y-153794856D01*
X114201661Y-168767380D02*
X114201994Y-168767393D01*
X134864950Y-155406519D02*
X134865037Y-155403083D01*
X134687498Y-144892432D02*
X134687365Y-144890965D01*
X81056703Y-169041902D02*
X81057736Y-169041821D01*
X116538824Y-64295521D02*
X116530358Y-64327117D01*
X133609586Y-140410490D02*
X133609283Y-140409620D01*
X134820276Y-157094365D02*
X134820284Y-157094079D01*
X68332376Y-135123219D02*
X68332335Y-135123318D01*
X127596247Y-169815974D02*
X127598538Y-169816110D01*
X89740793Y-168622240D02*
X89741901Y-168622205D01*
X68758379Y-134090967D02*
X68725370Y-134175883D01*
X65290103Y-145143138D02*
X65289364Y-145152197D01*
X133834894Y-167996809D02*
X133848526Y-167956081D01*
X132959466Y-169143380D02*
X132964993Y-169139270D01*
X67985770Y-135965200D02*
X67985272Y-135966467D01*
X134156476Y-142036851D02*
X134155970Y-142035162D01*
X105107439Y-168495880D02*
X105108751Y-168495901D01*
X133953312Y-167590717D02*
X133960379Y-167561873D01*
X68332335Y-135123318D02*
X68331952Y-135124219D01*
X134686450Y-144881093D02*
X134686311Y-144879620D01*
X134681445Y-161471911D02*
X134681483Y-161471061D01*
X65625199Y-165172735D02*
X65626759Y-165183732D01*
X128547975Y-161769486D02*
X128651471Y-161651471D01*
X94866768Y-168496323D02*
X94867151Y-168496316D01*
X68257619Y-135299621D02*
X68190815Y-135458686D01*
X83919487Y-168851445D02*
X83924876Y-168851185D01*
X132163564Y-136359160D02*
X132163549Y-136359121D01*
X73100919Y-169773082D02*
X73112485Y-169772253D01*
X68794300Y-133996873D02*
X68793679Y-133998508D01*
X132453407Y-169437218D02*
X132467994Y-169431017D01*
X66183471Y-168049427D02*
X66198142Y-168089792D01*
X67909672Y-136164088D02*
X67908018Y-136168474D01*
X65371346Y-144348197D02*
X65371138Y-144349843D01*
X132561960Y-137422916D02*
X132561435Y-137421503D01*
X65755318Y-166027144D02*
X65755977Y-166031340D01*
X68484816Y-134763940D02*
X68477492Y-134781316D01*
X120898016Y-169216655D02*
X120899739Y-169216822D01*
X134798567Y-146601961D02*
X134784468Y-146298410D01*
X66874087Y-138986539D02*
X66872836Y-138990136D01*
X70959220Y-163608655D02*
X70810582Y-163659110D01*
X85801750Y-168767239D02*
X86748560Y-168728597D01*
X131815460Y-135473744D02*
X131815203Y-135473122D01*
X131449832Y-134608077D02*
X131437631Y-134578728D01*
X117091518Y-168907047D02*
X117093117Y-168907146D01*
X68832049Y-169732192D02*
X68836211Y-169732669D01*
X132153666Y-169542795D02*
X132200100Y-169528641D01*
X65350176Y-162103651D02*
X65350235Y-162104684D01*
X78178619Y-169306131D02*
X78178888Y-169306104D01*
X116141436Y-168854529D02*
X116142513Y-168854587D01*
X130858009Y-169766251D02*
X130861488Y-169765904D01*
X131199966Y-169728364D02*
X131227788Y-169724816D01*
X82027602Y-168966537D02*
X82883526Y-168908654D01*
X131473972Y-169689532D02*
X131478863Y-169688800D01*
X128391344Y-162040779D02*
X128460769Y-161899999D01*
X129517203Y-169847588D02*
X129928207Y-169831130D01*
X68484993Y-134763520D02*
X68484816Y-134763940D01*
X134430508Y-164769494D02*
X134432972Y-164750031D01*
X131376946Y-134431421D02*
X131360003Y-134389789D01*
X133521697Y-140157367D02*
X133521501Y-140156797D01*
X65349786Y-162096712D02*
X65350176Y-162103651D01*
X111251011Y-168654856D02*
X111251346Y-168654868D01*
X134901320Y-150730598D02*
X134901293Y-150727698D01*
X132015589Y-169580799D02*
X132057908Y-169569756D01*
X108224877Y-168563573D02*
X109222596Y-168590955D01*
X66095872Y-167774167D02*
X66105810Y-167809030D01*
X122730831Y-169396228D02*
X122730832Y-169396228D01*
X65134852Y-155398614D02*
X65134865Y-155399144D01*
X134894720Y-153794856D02*
X134894757Y-153791732D01*
X133696601Y-140659021D02*
X133696601Y-140659021D01*
X65093867Y-152231924D02*
X65093868Y-152232383D01*
X78177714Y-169306220D02*
X78178619Y-169306131D01*
X103045602Y-168466920D02*
X103046027Y-168466924D01*
X83852852Y-168854836D02*
X83853928Y-168854778D01*
X65368213Y-144373645D02*
X65368015Y-144375299D01*
X65398092Y-144139234D02*
X65397870Y-144140945D01*
X124500758Y-169569923D02*
X124501294Y-169569974D01*
X131522507Y-134781316D02*
X131515183Y-134763940D01*
X134528795Y-143645484D02*
X134526946Y-143633923D01*
X134820272Y-157094547D02*
X134820275Y-157094407D01*
X65250617Y-145677728D02*
X65250135Y-145684946D01*
X131873548Y-169614685D02*
X131960392Y-169594434D01*
X80092265Y-169124975D02*
X80093035Y-169124908D01*
X131813203Y-135468307D02*
X131811456Y-135464115D01*
X65401363Y-144114677D02*
X65399822Y-144126093D01*
X66716484Y-139448647D02*
X66715038Y-139452982D01*
X132644391Y-137645546D02*
X132644308Y-137645320D01*
X128462892Y-169849466D02*
X128465241Y-169849505D01*
X134148606Y-142010879D02*
X134148087Y-142009187D01*
X134221388Y-142258387D02*
X134217692Y-142245412D01*
X67357152Y-137641358D02*
X67357043Y-137641653D01*
X80037462Y-169129885D02*
X80038234Y-169129814D01*
X65187096Y-146948941D02*
X65186964Y-146952402D01*
X131667664Y-135123318D02*
X131667623Y-135123219D01*
X67680366Y-136774535D02*
X67680365Y-136774536D01*
X68909724Y-133679045D02*
X68908947Y-133681301D01*
X128499114Y-169849903D02*
X128501467Y-169849920D01*
X117002554Y-168901675D02*
X117007842Y-168901973D01*
X127206414Y-123444586D02*
X127021281Y-123820000D01*
X65721034Y-142466891D02*
X65717154Y-142481445D01*
X68759011Y-134089337D02*
X68758379Y-134090967D01*
X128252086Y-169844626D02*
X128255093Y-169844746D01*
X115156314Y-168808837D02*
X115156650Y-168808852D01*
X133298610Y-168857811D02*
X133303432Y-168853300D01*
X65109932Y-149785621D02*
X65109886Y-149788612D01*
X132847350Y-169223444D02*
X132873482Y-169205376D01*
X65095409Y-151217097D02*
X65095406Y-151217543D01*
X94892560Y-168495880D02*
X94892949Y-168495874D01*
X118958321Y-169043109D02*
X119000487Y-169046579D01*
X134835299Y-156509283D02*
X134835304Y-156509081D01*
X65754465Y-166021659D02*
X65754561Y-166022283D01*
X65432554Y-143894655D02*
X65403418Y-144099842D01*
X131591901Y-134945110D02*
X131591619Y-134944444D01*
X129928207Y-169831130D02*
X129930571Y-169831030D01*
X122733264Y-169396469D02*
X122733217Y-169396951D01*
X68836574Y-133883470D02*
X68835861Y-133885413D01*
X91780587Y-168563427D02*
X91794950Y-168563053D01*
X65179623Y-157090439D02*
X65179624Y-157090488D01*
X65103553Y-150251823D02*
X65103548Y-150252235D01*
X125334765Y-169647152D02*
X125335651Y-169647231D01*
X66549852Y-139948235D02*
X66548367Y-139952601D01*
X70343368Y-163689733D02*
X70189417Y-163659110D01*
X65664443Y-142686574D02*
X65663847Y-142688965D01*
X67973908Y-135995769D02*
X67913743Y-136153356D01*
X66384413Y-140427689D02*
X66384315Y-140427968D01*
X65109939Y-149785193D02*
X65109932Y-149785621D01*
X132806163Y-138087127D02*
X132806036Y-138086778D01*
X67680172Y-136775052D02*
X67679952Y-136775637D01*
X109222937Y-168590965D02*
X109224068Y-168590996D01*
X80045386Y-169129160D02*
X80046157Y-169129090D01*
X133283301Y-139448008D02*
X133281849Y-139443676D01*
X111246501Y-168654705D02*
X111247596Y-168654741D01*
X82014167Y-168967472D02*
X82020691Y-168967013D01*
X106161422Y-168515655D02*
X106162627Y-168515680D01*
X75507226Y-169569162D02*
X75507766Y-169569109D01*
X109246980Y-168591658D02*
X109247324Y-168591668D01*
X66874277Y-138985993D02*
X66874087Y-138986539D01*
X131131370Y-133795283D02*
X131130664Y-133793335D01*
X111268717Y-168655464D02*
X111269793Y-168655502D01*
X65870198Y-166731910D02*
X65872361Y-166744462D01*
X96950068Y-168466964D02*
X96951442Y-168466949D01*
X65268258Y-145421828D02*
X65268173Y-145423038D01*
X65602093Y-142952410D02*
X65567670Y-143113539D01*
X97980579Y-168457597D02*
X97981013Y-168457594D01*
X116080512Y-168851445D02*
X116081588Y-168851498D01*
X133219363Y-168929896D02*
X133261219Y-168892268D01*
X118066475Y-168973393D02*
X118942263Y-169041821D01*
X134882239Y-149331900D02*
X134882178Y-149328840D01*
X128519581Y-169850000D02*
X129396693Y-169850000D01*
X66143004Y-141119199D02*
X66142788Y-141119823D01*
X115175408Y-168809693D02*
X115176491Y-168809743D01*
X92827014Y-168537656D02*
X92828204Y-168537630D01*
X131102526Y-133714192D02*
X131101733Y-133711942D01*
X134906121Y-152235742D02*
X134906122Y-152235285D01*
X134886912Y-154330466D02*
X134886965Y-154327281D01*
X132320187Y-136776010D02*
X132320062Y-136775677D01*
X131512393Y-134757304D02*
X131454489Y-134619231D01*
X81042708Y-169043025D02*
X81046115Y-169042748D01*
X134245534Y-166021659D02*
X134246186Y-166017440D01*
X105111028Y-168495939D02*
X105111416Y-168495945D01*
X134707855Y-160860014D02*
X134707884Y-160859313D01*
X134835266Y-156510533D02*
X134835272Y-156510321D01*
X72366191Y-169818018D02*
X72368485Y-169817904D01*
X134616745Y-162670718D02*
X134616820Y-162669463D01*
X131452904Y-134615444D02*
X131451411Y-134611867D01*
X65210949Y-158319758D02*
X65210981Y-158320981D01*
X95925195Y-168479722D02*
X95925595Y-168479717D01*
X134730466Y-145404274D02*
X134730374Y-145403049D01*
X132022327Y-135985985D02*
X132021837Y-135984716D01*
X119012122Y-169047555D02*
X119015506Y-169047844D01*
X134522273Y-143605643D02*
X134488754Y-143409230D01*
X117099998Y-168907580D02*
X117107994Y-168908095D01*
X65993918Y-167367078D02*
X65994686Y-167370501D01*
X129546671Y-63581220D02*
X129514241Y-63576951D01*
X69651471Y-163348528D02*
X69547975Y-163230513D01*
X93858399Y-168515256D02*
X93859641Y-168515232D01*
X72401461Y-169816110D02*
X72403752Y-169815974D01*
X134730374Y-145403049D02*
X134729751Y-145394889D01*
X66796474Y-139212194D02*
X66796264Y-139212806D01*
X69141990Y-169766251D02*
X69165319Y-169768500D01*
X68879537Y-133764867D02*
X68878843Y-133766819D01*
X129396693Y-169850000D02*
X129401695Y-169849974D01*
X68333212Y-135121251D02*
X68333168Y-135121355D01*
X81946949Y-168972370D02*
X81948251Y-168972273D01*
X134069891Y-167058585D02*
X134073215Y-167041052D01*
X129705780Y-63618319D02*
X129674478Y-63608824D01*
X69581687Y-169802598D02*
X69584573Y-169802793D01*
X134906246Y-151723898D02*
X134906245Y-151723471D01*
X132835308Y-169231514D02*
X132847350Y-169223444D01*
X114198585Y-168767252D02*
X114199643Y-168767296D01*
X134768407Y-145992960D02*
X134768065Y-145986711D01*
X65340738Y-144613637D02*
X65339598Y-144624191D01*
X132200100Y-169528641D02*
X132207015Y-169526478D01*
X74658427Y-169647758D02*
X74664348Y-169647231D01*
X133935080Y-167661066D02*
X133936230Y-167656785D01*
X82997445Y-168901675D02*
X82999046Y-168901586D01*
X132967000Y-138534249D02*
X132966841Y-138533803D01*
X107171795Y-168537630D02*
X107172985Y-168537656D01*
X131591321Y-134943741D02*
X131525304Y-134787934D01*
X65916626Y-141800150D02*
X65916170Y-141801585D01*
X128310266Y-162343368D02*
X128340889Y-162189417D01*
X134783525Y-146279412D02*
X134768456Y-145993884D01*
X128340889Y-162189417D02*
X128391344Y-162040779D01*
X65137388Y-148470572D02*
X65137299Y-148473905D01*
X108204700Y-168563044D02*
X108205049Y-168563053D01*
X68622640Y-134432434D02*
X68621274Y-134435780D01*
X94890865Y-168495908D02*
X94891248Y-168495901D01*
X125078220Y-125310962D02*
X124667683Y-125392623D01*
X121809846Y-169305001D02*
X121810104Y-169305026D01*
X67164691Y-169231514D02*
X67196539Y-169252196D01*
X134896446Y-150251823D02*
X134896408Y-150248858D01*
X134563265Y-143866285D02*
X134561496Y-143854704D01*
X68800040Y-133981667D02*
X68796958Y-133989848D01*
X65216123Y-146286273D02*
X65215861Y-146291539D01*
X65725563Y-142450183D02*
X65721617Y-142464720D01*
X133406470Y-168750852D02*
X133412335Y-168744530D01*
X134661837Y-144637888D02*
X134661674Y-144636310D01*
X117973703Y-168966626D02*
X117978008Y-168966923D01*
X133412335Y-168744530D02*
X133425012Y-168730331D01*
X119911048Y-169125264D02*
X119914908Y-169125604D01*
X65164426Y-156498951D02*
X65164445Y-156499652D01*
X95921060Y-168479776D02*
X95921461Y-168479771D01*
X134768456Y-145993884D02*
X134768407Y-145992960D01*
X65815876Y-166409221D02*
X65817222Y-166417331D01*
X131514231Y-134761679D02*
X131513337Y-134759552D01*
X116506951Y-64455758D02*
X116503745Y-64488311D01*
X65511643Y-143406929D02*
X65511245Y-143409230D01*
X65113087Y-154330466D02*
X65113095Y-154330943D01*
X104074404Y-168479717D02*
X104074804Y-168479722D01*
X65399822Y-144126093D02*
X65399594Y-144127807D01*
X132112729Y-169554683D02*
X132146720Y-169544858D01*
X65292115Y-160859313D02*
X65292144Y-160860014D01*
X74651626Y-169648352D02*
X74657544Y-169647836D01*
X108199571Y-168562914D02*
X108199931Y-168562923D01*
X67758970Y-136565295D02*
X67758955Y-136565335D01*
X133358169Y-139673386D02*
X133358106Y-139673197D01*
X131957002Y-135820073D02*
X131954156Y-135812903D01*
X68800655Y-133980029D02*
X68800040Y-133981667D01*
X68646005Y-134374937D02*
X68644652Y-134378293D01*
X106162627Y-168515680D02*
X106163003Y-168515688D01*
X75503507Y-169569519D02*
X75507226Y-169569162D01*
X129656631Y-163689733D02*
X129500000Y-163700000D01*
X118957291Y-169043025D02*
X118958321Y-169043109D01*
X134731871Y-160221621D02*
X134731998Y-160217909D01*
X134820367Y-157090815D02*
X134820369Y-157090708D01*
X66260250Y-168242898D02*
X66266643Y-168257162D01*
X118947723Y-169042253D02*
X118952858Y-169042665D01*
X127633808Y-169818018D02*
X127649154Y-169818747D01*
X134660401Y-144624191D02*
X134659261Y-144613637D01*
X133357835Y-139672380D02*
X133285179Y-139453636D01*
X70069428Y-169831030D02*
X70071792Y-169831130D01*
X131199344Y-133980029D02*
X131197317Y-133974621D01*
X133870111Y-167888777D02*
X133880802Y-167854135D01*
X109243455Y-168591553D02*
X109243797Y-168591563D01*
X134752850Y-159589070D02*
X134752864Y-159588621D01*
X134838560Y-147672455D02*
X134838496Y-147670538D01*
X134246285Y-166016795D02*
X134307664Y-165615867D01*
X134904610Y-151220449D02*
X134904593Y-151217543D01*
X95919731Y-168479795D02*
X95921060Y-168479776D01*
X133858812Y-141124454D02*
X133858596Y-141123828D01*
X65179705Y-157093690D02*
X65179707Y-157093767D01*
X79099746Y-169216871D02*
X79100260Y-169216822D01*
X65098622Y-150737720D02*
X65095409Y-151217097D01*
X65109835Y-149792055D02*
X65109829Y-149792524D01*
X134631786Y-144373645D02*
X134630444Y-144362572D01*
X92823311Y-168537739D02*
X92824495Y-168537712D01*
X88753835Y-168654694D02*
X89736966Y-168622364D01*
X71534758Y-169849505D02*
X71537107Y-169849466D01*
X134485956Y-164287129D02*
X134487516Y-164271623D01*
X100996449Y-168451909D02*
X100997979Y-168451912D01*
X65611564Y-142909747D02*
X65610973Y-142912342D01*
X91778731Y-168563476D02*
X91779086Y-168563467D01*
X106141969Y-168515263D02*
X106143815Y-168515299D01*
X134482133Y-164322741D02*
X134483837Y-164307252D01*
X66632977Y-168791924D02*
X66644304Y-168803308D01*
X65098625Y-150737270D02*
X65098622Y-150737720D01*
X65249013Y-145702613D02*
X65232812Y-145971425D01*
X65113027Y-154326797D02*
X65113034Y-154327281D01*
X129611026Y-63592930D02*
X129578945Y-63586549D01*
X91780240Y-168563436D02*
X91780587Y-168563427D01*
X134659261Y-144613637D02*
X134659088Y-144612062D01*
X68408098Y-134945110D02*
X68408033Y-134945263D01*
X113251439Y-168728597D02*
X114198249Y-168767239D01*
X134805038Y-157699034D02*
X134805051Y-157698530D01*
X65179715Y-157094079D02*
X65179723Y-157094365D01*
X134628861Y-144349843D02*
X134628653Y-144348197D01*
X65909266Y-141823592D02*
X65851912Y-142009187D01*
X134155970Y-142035162D02*
X134152563Y-142023856D01*
X133936230Y-167656785D02*
X133943807Y-167628072D01*
X68405274Y-134951764D02*
X68405221Y-134951888D01*
X65292367Y-160865341D02*
X65318516Y-161471061D01*
X134630241Y-144360915D02*
X134628861Y-144349843D01*
X134901352Y-150734359D02*
X134901349Y-150733949D01*
X134681150Y-161478478D02*
X134681189Y-161477621D01*
X65869878Y-166730031D02*
X65870198Y-166731910D01*
X126138690Y-169715860D02*
X126147171Y-169716542D01*
X130888289Y-169763119D02*
X131163788Y-169732669D01*
X89742238Y-168622194D02*
X89756028Y-168621759D01*
X91796475Y-168563014D02*
X91796829Y-168563005D01*
X80088951Y-169125264D02*
X80089723Y-169125196D01*
X134812903Y-146948941D02*
X134812883Y-146948410D01*
X134877128Y-154862268D02*
X134877138Y-154861759D01*
X68717272Y-134196542D02*
X68695839Y-134250765D01*
X131595685Y-134954022D02*
X131595628Y-134953889D01*
X65920133Y-141789160D02*
X65919673Y-141790595D01*
X65991192Y-141569053D02*
X65988627Y-141576818D01*
X80987877Y-169047555D02*
X80988905Y-169047468D01*
X131275145Y-134177208D02*
X131274629Y-134175883D01*
X134873153Y-148897265D02*
X134873142Y-148896798D01*
X67192025Y-138092119D02*
X67191897Y-138092474D01*
X66914698Y-169044284D02*
X66919277Y-169048046D01*
X130351680Y-64264219D02*
X130341165Y-64233245D01*
X121821111Y-169306104D02*
X121821380Y-169306131D01*
X65103513Y-150255186D02*
X65103508Y-150255618D01*
X65369758Y-144360915D02*
X65369555Y-144362572D01*
X66094416Y-167768956D02*
X66095872Y-167774167D01*
X134578165Y-163236436D02*
X134578271Y-163234914D01*
X70071792Y-169831130D02*
X70482796Y-169847588D01*
X67893559Y-169556457D02*
X67935777Y-169568064D01*
X133433164Y-139897965D02*
X133432197Y-139895079D01*
X131355347Y-134378293D02*
X131353994Y-134374937D01*
X131591546Y-169670152D02*
X131738076Y-169643012D01*
X134680527Y-161491587D02*
X134680568Y-161490739D01*
X134373004Y-165185374D02*
X134373240Y-165183732D01*
X68545809Y-134618516D02*
X68545510Y-134619231D01*
X134487516Y-164271623D02*
X134487743Y-164269306D01*
X134598402Y-144112965D02*
X134596820Y-144101546D01*
X134789050Y-158319758D02*
X134789057Y-158319514D01*
X127631514Y-169817904D02*
X127633808Y-169818018D01*
X134768065Y-145986711D02*
X134768013Y-145985778D01*
X99989679Y-168450022D02*
X99990153Y-168450022D01*
X65232756Y-145972363D02*
X65232392Y-145978604D01*
X70810582Y-161340889D02*
X70959220Y-161391344D01*
X132368050Y-169470972D02*
X132416598Y-169452114D01*
X134616820Y-162669463D02*
X134649764Y-162104684D01*
X68261343Y-135290793D02*
X68260263Y-135293347D01*
X134369287Y-165210629D02*
X134369533Y-165208992D01*
X124505543Y-169570372D02*
X125327962Y-169646533D01*
X65988849Y-167344129D02*
X65993918Y-167367078D01*
X125348373Y-169648352D02*
X125349256Y-169648429D01*
X67990746Y-169582408D02*
X68033252Y-169592908D01*
X129946412Y-169830320D02*
X129948774Y-169830209D01*
X133943807Y-167628072D02*
X133944919Y-167623783D01*
X129913896Y-63712615D02*
X129885568Y-63696260D01*
X133894189Y-167809030D02*
X133904127Y-167774167D01*
X65098675Y-150731049D02*
X65098650Y-150733949D01*
X132057908Y-169569756D02*
X132064222Y-169568064D01*
X65113034Y-154327281D02*
X65113087Y-154330466D01*
X134789057Y-158319514D02*
X134789090Y-158318242D01*
X65563208Y-143134982D02*
X65562638Y-143137766D01*
X86767501Y-168727846D02*
X86768558Y-168727804D01*
X66064919Y-167661066D02*
X66094416Y-167768956D01*
X94869096Y-168496281D02*
X94869482Y-168496274D01*
X67759017Y-136565170D02*
X67758998Y-136565221D01*
X130240110Y-64028326D02*
X130221937Y-64001128D01*
X88734735Y-168655344D02*
X88735057Y-168655333D01*
X134340690Y-142707401D02*
X134340105Y-142705006D01*
X130071289Y-63829346D02*
X130046696Y-63807778D01*
X90756202Y-168591563D02*
X90756544Y-168591553D01*
X65122788Y-154857968D02*
X65122797Y-154858465D01*
X129512201Y-169847763D02*
X129517203Y-169847588D01*
X65290214Y-145141790D02*
X65290103Y-145143138D01*
X121077376Y-121802316D02*
X121159037Y-121391779D01*
X65250690Y-145676657D02*
X65250617Y-145677728D01*
X131950438Y-135803598D02*
X131947561Y-135796449D01*
X134767187Y-145971425D02*
X134750986Y-145702613D01*
X88730206Y-168655502D02*
X88731282Y-168655464D01*
X65103475Y-150258553D02*
X65103471Y-150258979D01*
X66139808Y-141128463D02*
X66139598Y-141129074D01*
X132014727Y-135966467D02*
X132014229Y-135965200D01*
X134876979Y-154869377D02*
X134877050Y-154866053D01*
X131227788Y-169724816D02*
X131231938Y-169724269D01*
X105133231Y-168496323D02*
X105134496Y-168496347D01*
X88750057Y-168654820D02*
X88750379Y-168654809D01*
X65164395Y-156497769D02*
X65164421Y-156498756D01*
X70051225Y-169830209D02*
X70053587Y-169830320D01*
X134651116Y-162079725D02*
X134680527Y-161491587D01*
X130539230Y-161899999D02*
X130608655Y-162040779D01*
X92804492Y-168538178D02*
X92806247Y-168538136D01*
X112246826Y-168690231D02*
X112247921Y-168690271D01*
X93858030Y-168515263D02*
X93858399Y-168515256D01*
X132163549Y-136359121D02*
X132162892Y-136357371D01*
X67276254Y-137861288D02*
X67275509Y-137863319D01*
X65228210Y-158952456D02*
X65228269Y-158954497D01*
X66226855Y-168163175D02*
X66245672Y-168208824D01*
X90772086Y-168591105D02*
X90772429Y-168591095D01*
X96954397Y-168466920D02*
X96955758Y-168466907D01*
X134160343Y-142049862D02*
X134159844Y-142048174D01*
X105108751Y-168495901D02*
X105109134Y-168495908D01*
X68796341Y-133991482D02*
X68794300Y-133996873D01*
X66563813Y-139906951D02*
X66563519Y-139907822D01*
X132240982Y-136565170D02*
X132163819Y-136359839D01*
X132642225Y-137639675D02*
X132642126Y-137639408D01*
X65126857Y-148896798D02*
X65126846Y-148897265D01*
X131668047Y-135124219D02*
X131667664Y-135123318D01*
X134087297Y-141812581D02*
X134086848Y-141811152D01*
X65468546Y-163813490D02*
X65468722Y-163815357D01*
X66467978Y-140187317D02*
X66467322Y-140189218D01*
X134864937Y-155407037D02*
X134864950Y-155406519D01*
X80041528Y-169129511D02*
X80045386Y-169129160D01*
X117978008Y-168966923D02*
X117979308Y-168967013D01*
X134838568Y-147672718D02*
X134838560Y-147672455D01*
X74664348Y-169647231D02*
X74665234Y-169647152D01*
X134771924Y-158947703D02*
X134771931Y-158947442D01*
X89759470Y-168621653D02*
X89759821Y-168621642D01*
X132360772Y-169473734D02*
X132368050Y-169470972D01*
X131947561Y-135796449D02*
X131947127Y-135795374D01*
X134707632Y-160865341D02*
X134707661Y-160864652D01*
X111266712Y-168655394D02*
X111268388Y-168655452D01*
X65465956Y-163784703D02*
X65466118Y-163786575D01*
X68547095Y-134615444D02*
X68546796Y-134616158D01*
X134767243Y-145972363D02*
X134767187Y-145971425D01*
X67356329Y-137643590D02*
X67355691Y-137645320D01*
X65112977Y-154323606D02*
X65113027Y-154326797D01*
X131451112Y-134611151D02*
X131450129Y-134608792D01*
X133999288Y-167396844D02*
X134000080Y-167393428D01*
X131966747Y-169592908D02*
X132009253Y-169582408D01*
X66119197Y-167854135D02*
X66129888Y-167888777D01*
X82890406Y-168908199D02*
X82892005Y-168908095D01*
X66808480Y-168954476D02*
X66812116Y-168957650D01*
X79107321Y-169216145D02*
X79107842Y-169216095D01*
X126925657Y-169774856D02*
X126927386Y-169774965D01*
X119906964Y-169124908D02*
X119907734Y-169124975D01*
X87751745Y-168690284D02*
X87752078Y-168690271D01*
X134529068Y-143647210D02*
X134528795Y-143645484D01*
X118953884Y-169042748D02*
X118957291Y-169043025D01*
X65187273Y-146944416D02*
X65187252Y-146944951D01*
X131512573Y-134757735D02*
X131512393Y-134757304D01*
X134886839Y-154334644D02*
X134886848Y-154334144D01*
X126128934Y-169715053D02*
X126137416Y-169715756D01*
X134657737Y-144599943D02*
X134633482Y-144388036D01*
X66221364Y-140893407D02*
X66220630Y-140895513D01*
X65717154Y-142481445D02*
X65716580Y-142483616D01*
X134851007Y-148066036D02*
X134850933Y-148063585D01*
X134820284Y-157094079D02*
X134820285Y-157094021D01*
X65095753Y-152741636D02*
X65095767Y-152744572D01*
X119950540Y-169128792D02*
X119951310Y-169128861D01*
X65268455Y-160230711D02*
X65291692Y-160848625D01*
X134213387Y-142230518D02*
X134212825Y-142228588D01*
X96932040Y-168467158D02*
X96932452Y-168467154D01*
X131879109Y-135627629D02*
X131878759Y-135626780D01*
X71608655Y-162959220D02*
X71539230Y-163100000D01*
X71608655Y-162040779D02*
X71659110Y-162189417D01*
X131830366Y-169624267D02*
X131867945Y-169615958D01*
X131279962Y-134189518D02*
X131277368Y-134182899D01*
X97953092Y-168457800D02*
X97953524Y-168457796D01*
X134125101Y-166758882D02*
X134127312Y-166746336D01*
X68404314Y-134954022D02*
X68333212Y-135121251D01*
X65135049Y-155406519D02*
X65135062Y-155407037D01*
X65137494Y-148466750D02*
X65137402Y-148470061D01*
X117000953Y-168901586D02*
X117002554Y-168901675D01*
X66794709Y-139217350D02*
X66793355Y-139221318D01*
X118046156Y-168971859D02*
X118047458Y-168971955D01*
X134152052Y-142022171D02*
X134148606Y-142010879D01*
X133633858Y-168448603D02*
X133651628Y-168417816D01*
X132163819Y-136359839D02*
X132163806Y-136359803D01*
X134901349Y-150733949D02*
X134901324Y-150731049D01*
X98996796Y-168451928D02*
X98997254Y-168451927D01*
X132506848Y-169413699D02*
X132531359Y-169402342D01*
X66593529Y-168750852D02*
X66600026Y-168757724D01*
X66059085Y-141365178D02*
X66058787Y-141366071D01*
X65467393Y-163800967D02*
X65468546Y-163813490D01*
X69603905Y-169804047D02*
X69606793Y-169804225D01*
X129440212Y-169849564D02*
X129473700Y-169848894D01*
X134534043Y-163784703D02*
X134535102Y-163772170D01*
X68445958Y-169676741D02*
X68450833Y-169677569D01*
X134680884Y-161484182D02*
X134681150Y-161478478D01*
X94867151Y-168496316D02*
X94869096Y-168496281D01*
X132805184Y-138084438D02*
X132805062Y-138084105D01*
X88733634Y-168655382D02*
X88734735Y-168655344D01*
X94892949Y-168495874D02*
X95896652Y-168480125D01*
X132106440Y-169556457D02*
X132112729Y-169554683D01*
X65134772Y-155395184D02*
X65134852Y-155398614D01*
X119951310Y-169128861D02*
X119953842Y-169129090D01*
X98977824Y-168452000D02*
X98996796Y-168451928D01*
X69115191Y-169763491D02*
X69138511Y-169765904D01*
X134835245Y-156511366D02*
X134835250Y-156511170D01*
X132241044Y-136565335D02*
X132241029Y-136565295D01*
X65161431Y-147672718D02*
X65161367Y-147674667D01*
X85798338Y-168767380D02*
X85800036Y-168767309D01*
X133751464Y-168215627D02*
X133754327Y-168208824D01*
X134838487Y-147670279D02*
X134826121Y-147305640D01*
X111264942Y-168655333D02*
X111265264Y-168655344D01*
X134011896Y-167340695D02*
X134016806Y-167317702D01*
X69310266Y-162656631D02*
X69299999Y-162500000D01*
X134783836Y-146285472D02*
X134783567Y-146280208D01*
X134820364Y-157090940D02*
X134820367Y-157090815D01*
X121805900Y-169304616D02*
X121806165Y-169304642D01*
X67224452Y-169269791D02*
X67237810Y-169277892D01*
X134820275Y-157094407D02*
X134820276Y-157094365D01*
X132642037Y-169346958D02*
X132656281Y-169339503D01*
X65215569Y-146297615D02*
X65215531Y-146298410D01*
X132207015Y-169526478D02*
X132253178Y-169511673D01*
X68761721Y-134082323D02*
X68761092Y-134083954D01*
X134127638Y-166744462D02*
X134129801Y-166731910D01*
X133452915Y-139956361D02*
X133451930Y-139953475D01*
X134278382Y-142464720D02*
X134274436Y-142450183D01*
X65517866Y-164322741D02*
X65518125Y-164325050D01*
X89738750Y-168622306D02*
X89740453Y-168622251D01*
X134753055Y-159582476D02*
X134753067Y-159582059D01*
X66718368Y-139443028D02*
X66718150Y-139443676D01*
X134877060Y-154865565D02*
X134877128Y-154862268D01*
X66221472Y-140893095D02*
X66221364Y-140893407D01*
X65137508Y-148466230D02*
X65137494Y-148466750D01*
X132969416Y-138541033D02*
X132969259Y-138540590D01*
X134835548Y-156499866D02*
X134835554Y-156499652D01*
X95923871Y-168479739D02*
X95925195Y-168479722D01*
X65103548Y-150252235D02*
X65103513Y-150255186D01*
X70053587Y-169830320D02*
X70069428Y-169831030D01*
X132886349Y-138308882D02*
X132886199Y-138308468D01*
X133303432Y-168853300D02*
X133335507Y-168822896D01*
X130659110Y-162810582D02*
X130608655Y-162959220D01*
X65117692Y-149335458D02*
X65117684Y-149335896D01*
X134749382Y-145677728D02*
X134749309Y-145676657D01*
X131437631Y-134578728D02*
X131437332Y-134578009D01*
X115175081Y-168809678D02*
X115175408Y-168809693D01*
X65149077Y-148063237D02*
X65149066Y-148063585D01*
X130100000Y-163539230D02*
X129959220Y-163608655D01*
X128275233Y-169845488D02*
X128278239Y-169845590D01*
X101024615Y-168452010D02*
X101026902Y-168452021D01*
X65231934Y-145986711D02*
X65231592Y-145992960D01*
X65126846Y-148897265D02*
X65126777Y-148900454D01*
X132922249Y-169170657D02*
X132959466Y-169143380D01*
X133799627Y-168095805D02*
X133801857Y-168089792D01*
X65514348Y-143391516D02*
X65511643Y-143406929D01*
X68690427Y-134264371D02*
X68689899Y-134265694D01*
X65756080Y-166031988D02*
X65812656Y-166389351D01*
X65368015Y-144375299D02*
X65366709Y-144386382D01*
X66465283Y-140195102D02*
X66465084Y-140195677D01*
X71701617Y-169846212D02*
X71721760Y-169845590D01*
X99988117Y-168450022D02*
X99989679Y-168450022D01*
X131098336Y-133702263D02*
X131095365Y-133693740D01*
X65843523Y-142036851D02*
X65840155Y-142048174D01*
X134771857Y-158950096D02*
X134771866Y-158949787D01*
X134482045Y-143371513D02*
X134479196Y-143356122D01*
X66385400Y-140424861D02*
X66385306Y-140425133D01*
X131739736Y-135293347D02*
X131738656Y-135290793D01*
X95919333Y-168479800D02*
X95919731Y-168479795D01*
X113232826Y-168727859D02*
X113246316Y-168728392D01*
X68642179Y-134384410D02*
X68641768Y-134385423D01*
X65840155Y-142048174D02*
X65839656Y-142049862D01*
X131231826Y-134065508D02*
X131206320Y-133998508D01*
X112261712Y-168690780D02*
X112262042Y-168690792D01*
X68905591Y-133690994D02*
X68901663Y-133702263D01*
X65187116Y-146948410D02*
X65187096Y-146948941D01*
X70189417Y-163659110D02*
X70040779Y-163608655D01*
X128501467Y-169849920D02*
X128517230Y-169849994D01*
X65315749Y-144858414D02*
X65314775Y-144868280D01*
X130289158Y-64113279D02*
X130273739Y-64084431D01*
X133780205Y-140897916D02*
X133779476Y-140895821D01*
X95921461Y-168479771D02*
X95923466Y-168479744D01*
X84824591Y-168809693D02*
X84824918Y-168809678D01*
X73099194Y-169773203D02*
X73100919Y-169773082D01*
X134561229Y-143852974D02*
X134529068Y-143647210D01*
X70343368Y-161310266D02*
X70500000Y-161299999D01*
X116931128Y-63748061D02*
X116904540Y-63767114D01*
X65558871Y-143156440D02*
X65558316Y-143159231D01*
X129189417Y-163659110D02*
X129040779Y-163608655D01*
X68722631Y-134182899D02*
X68720037Y-134189518D01*
X130399999Y-132588617D02*
X130399999Y-64578181D01*
X127651452Y-169818851D02*
X128252086Y-169844626D01*
X134687365Y-144890965D02*
X134686450Y-144881093D01*
X133367022Y-168791924D02*
X133399973Y-168757724D01*
X134906248Y-151727238D02*
X134906248Y-151726801D01*
X132162742Y-136356780D02*
X132162679Y-136356803D01*
X65134949Y-155402565D02*
X65134962Y-155403083D01*
X134862597Y-148470061D02*
X134862505Y-148466750D01*
X83914857Y-168851673D02*
X83918411Y-168851498D01*
X121808971Y-169304915D02*
X121809846Y-169305001D01*
X134708280Y-160849324D02*
X134708307Y-160848625D01*
X116130350Y-168853953D02*
X116131428Y-168854007D01*
X133453212Y-139957231D02*
X133452915Y-139956361D01*
X65179643Y-157091247D02*
X65179705Y-157093690D01*
X129827383Y-63666373D02*
X129797588Y-63652873D01*
X132481163Y-137205903D02*
X132480750Y-137204797D01*
X65712764Y-142498194D02*
X65712200Y-142500372D01*
X111247930Y-168654752D02*
X111249620Y-168654809D01*
X65349297Y-162087695D02*
X65349352Y-162088730D01*
X117014431Y-63696260D02*
X116986103Y-63712615D01*
X78177443Y-169306246D02*
X78177714Y-169306220D01*
X66638234Y-139684184D02*
X66638172Y-139684370D01*
X132671873Y-169330744D02*
X132762189Y-169277892D01*
X128278239Y-169845590D02*
X128298382Y-169846212D01*
X66063663Y-141351564D02*
X66063364Y-141352448D01*
X134850765Y-155942625D02*
X134850786Y-155941822D01*
X65663847Y-142688965D02*
X65659894Y-142705006D01*
X66951747Y-138764002D02*
X66950592Y-138767291D01*
X65228279Y-158954833D02*
X65246932Y-159582059D01*
X91798926Y-168562952D02*
X91800068Y-168562923D01*
X65438770Y-143852974D02*
X65438503Y-143854704D01*
X65477435Y-143607368D02*
X65475506Y-143618914D01*
X131160366Y-133875098D02*
X131131370Y-133795283D01*
X116904540Y-63767114D02*
X116878588Y-63787027D01*
X82901601Y-168907478D02*
X82906882Y-168907146D01*
X66266643Y-168257162D02*
X66282559Y-168291234D01*
X130608655Y-162040779D02*
X130659110Y-162189417D01*
X88729878Y-168655513D02*
X88730206Y-168655502D01*
X131591619Y-134944444D02*
X131591560Y-134944306D01*
X133448875Y-139944484D02*
X133448578Y-139943608D01*
X128460769Y-163100000D02*
X128391344Y-162959220D01*
X131282727Y-134196542D02*
X131282205Y-134195218D01*
X65095786Y-152748014D02*
X65095788Y-152748457D01*
X65099553Y-153267522D02*
X65099581Y-153270540D01*
X133522879Y-140160807D02*
X133522681Y-140160232D01*
X133861778Y-141133091D02*
X133860401Y-141129074D01*
X134862700Y-148473905D02*
X134862611Y-148470572D01*
X69899999Y-161460769D02*
X70040779Y-161391344D01*
X65164370Y-156496861D02*
X65164389Y-156497555D01*
X134246186Y-166017440D02*
X134246285Y-166016795D01*
X134598636Y-144114677D02*
X134598402Y-144112965D01*
X132018541Y-135976222D02*
X132018045Y-135974951D01*
X65099521Y-153263586D02*
X65099525Y-153264043D01*
X134340105Y-142705006D02*
X134336152Y-142688965D01*
X86748890Y-168728584D02*
X86750002Y-168728539D01*
X134904640Y-151227059D02*
X134904628Y-151224186D01*
X68646414Y-134373920D02*
X68646005Y-134374937D01*
X85779737Y-168768164D02*
X85781390Y-168768094D01*
X65434490Y-143881334D02*
X65432802Y-143892928D01*
X132091981Y-136168474D02*
X132090327Y-136164088D01*
X90775586Y-168591006D02*
X90775931Y-168590996D01*
X133285179Y-139453636D02*
X133284961Y-139452982D01*
X117288973Y-63592930D02*
X117257117Y-63600358D01*
X65093861Y-152228543D02*
X65093862Y-152229003D01*
X134079866Y-141789160D02*
X134017584Y-141595857D01*
X106164883Y-168515728D02*
X106165253Y-168515735D01*
X65093858Y-152225644D02*
X65093861Y-152228543D01*
X67274672Y-137865602D02*
X67274554Y-137865924D01*
X65161512Y-147670279D02*
X65161503Y-147670538D01*
X69769486Y-161547975D02*
X69899999Y-161460769D01*
X67275509Y-137863319D02*
X67275398Y-137863622D01*
X89737313Y-168622353D02*
X89738428Y-168622316D01*
X131130664Y-133793335D02*
X131128342Y-133786902D01*
X101028893Y-168452031D02*
X101029354Y-168452033D01*
X131383013Y-134446241D02*
X131381637Y-134442892D01*
X116759346Y-63898710D02*
X116737778Y-63923303D01*
X134904246Y-152741636D02*
X134904247Y-152741168D01*
X123025413Y-119263585D02*
X123421779Y-119129037D01*
X113232498Y-168727846D02*
X113232826Y-168727859D01*
X66551421Y-139943608D02*
X66551124Y-139944484D01*
X90757656Y-168591521D02*
X90758001Y-168591511D01*
M02*
