G04 #@! TF.GenerationSoftware,KiCad,Pcbnew,7.0.11+dfsg-1build4*
G04 #@! TF.CreationDate,2026-10-02T11:56:50+00:00*
G04 #@! TF.ProjectId,struthio_one,73747275-7468-4696-9f5f-6f6e652e6b69,rev?*
G04 #@! TF.SameCoordinates,Original*
G04 #@! TF.FileFunction,Legend,Bot*
G04 #@! TF.FilePolarity,Positive*
%FSLAX46Y46*%
G04 Gerber Fmt 4.6, Leading zero omitted, Abs format (unit mm)*
G04 Created by KiCad (PCBNEW 7.0.11+dfsg-1build4) date 2026-10-02 11:56:50*
%MOMM*%
%LPD*%
G01*
G04 APERTURE LIST*
G04 Aperture macros list*
%AMRoundRect*
0 Rectangle with rounded corners*
0 $1 Rounding radius*
0 $2 $3 $4 $5 $6 $7 $8 $9 X,Y pos of 4 corners*
0 Add a 4 corners polygon primitive as box body*
4,1,4,$2,$3,$4,$5,$6,$7,$8,$9,$2,$3,0*
0 Add four circle primitives for the rounded corners*
1,1,$1+$1,$2,$3*
1,1,$1+$1,$4,$5*
1,1,$1+$1,$6,$7*
1,1,$1+$1,$8,$9*
0 Add four rect primitives between the rounded corners*
20,1,$1+$1,$2,$3,$4,$5,0*
20,1,$1+$1,$4,$5,$6,$7,0*
20,1,$1+$1,$6,$7,$8,$9,0*
20,1,$1+$1,$8,$9,$2,$3,0*%
G04 Aperture macros list end*
%ADD10C,0.135000*%
%ADD11RoundRect,0.250000X0.625000X-0.350000X0.625000X0.350000X-0.625000X0.350000X-0.625000X-0.350000X0*%
%ADD12O,1.750000X1.200000*%
%ADD13C,2.200000*%
%ADD14R,1.700000X1.700000*%
%ADD15C,1.700000*%
G04 APERTURE END LIST*
D10*
X112342854Y-163509337D02*
X112342854Y-164152194D01*
X112342854Y-164152194D02*
X112385711Y-164280765D01*
X112385711Y-164280765D02*
X112471425Y-164366480D01*
X112471425Y-164366480D02*
X112599997Y-164409337D01*
X112599997Y-164409337D02*
X112685711Y-164409337D01*
X111442854Y-164409337D02*
X111957140Y-164409337D01*
X111699997Y-164409337D02*
X111699997Y-163509337D01*
X111699997Y-163509337D02*
X111785711Y-163637908D01*
X111785711Y-163637908D02*
X111871426Y-163723622D01*
X111871426Y-163723622D02*
X111957140Y-163766480D01*
X111057140Y-164323622D02*
X111014283Y-164366480D01*
X111014283Y-164366480D02*
X111057140Y-164409337D01*
X111057140Y-164409337D02*
X111099997Y-164366480D01*
X111099997Y-164366480D02*
X111057140Y-164323622D01*
X111057140Y-164323622D02*
X111057140Y-164409337D01*
X111057140Y-163852194D02*
X111014283Y-163895051D01*
X111014283Y-163895051D02*
X111057140Y-163937908D01*
X111057140Y-163937908D02*
X111099997Y-163895051D01*
X111099997Y-163895051D02*
X111057140Y-163852194D01*
X111057140Y-163852194D02*
X111057140Y-163937908D01*
X109514283Y-164409337D02*
X109942855Y-164409337D01*
X109942855Y-164409337D02*
X109942855Y-163509337D01*
X109042855Y-163509337D02*
X108871427Y-163509337D01*
X108871427Y-163509337D02*
X108785712Y-163552194D01*
X108785712Y-163552194D02*
X108699998Y-163637908D01*
X108699998Y-163637908D02*
X108657141Y-163809337D01*
X108657141Y-163809337D02*
X108657141Y-164109337D01*
X108657141Y-164109337D02*
X108699998Y-164280765D01*
X108699998Y-164280765D02*
X108785712Y-164366480D01*
X108785712Y-164366480D02*
X108871427Y-164409337D01*
X108871427Y-164409337D02*
X109042855Y-164409337D01*
X109042855Y-164409337D02*
X109128570Y-164366480D01*
X109128570Y-164366480D02*
X109214284Y-164280765D01*
X109214284Y-164280765D02*
X109257141Y-164109337D01*
X109257141Y-164109337D02*
X109257141Y-163809337D01*
X109257141Y-163809337D02*
X109214284Y-163637908D01*
X109214284Y-163637908D02*
X109128570Y-163552194D01*
X109128570Y-163552194D02*
X109042855Y-163509337D01*
X108271427Y-164409337D02*
X108271427Y-163509337D01*
X108271427Y-163509337D02*
X107757141Y-164409337D01*
X107757141Y-164409337D02*
X107757141Y-163509337D01*
X106857141Y-163552194D02*
X106942856Y-163509337D01*
X106942856Y-163509337D02*
X107071427Y-163509337D01*
X107071427Y-163509337D02*
X107199998Y-163552194D01*
X107199998Y-163552194D02*
X107285713Y-163637908D01*
X107285713Y-163637908D02*
X107328570Y-163723622D01*
X107328570Y-163723622D02*
X107371427Y-163895051D01*
X107371427Y-163895051D02*
X107371427Y-164023622D01*
X107371427Y-164023622D02*
X107328570Y-164195051D01*
X107328570Y-164195051D02*
X107285713Y-164280765D01*
X107285713Y-164280765D02*
X107199998Y-164366480D01*
X107199998Y-164366480D02*
X107071427Y-164409337D01*
X107071427Y-164409337D02*
X106985713Y-164409337D01*
X106985713Y-164409337D02*
X106857141Y-164366480D01*
X106857141Y-164366480D02*
X106814284Y-164323622D01*
X106814284Y-164323622D02*
X106814284Y-164023622D01*
X106814284Y-164023622D02*
X106985713Y-164023622D01*
X105742856Y-164409337D02*
X105742856Y-163509337D01*
X105742856Y-163509337D02*
X105399999Y-163509337D01*
X105399999Y-163509337D02*
X105314284Y-163552194D01*
X105314284Y-163552194D02*
X105271427Y-163595051D01*
X105271427Y-163595051D02*
X105228570Y-163680765D01*
X105228570Y-163680765D02*
X105228570Y-163809337D01*
X105228570Y-163809337D02*
X105271427Y-163895051D01*
X105271427Y-163895051D02*
X105314284Y-163937908D01*
X105314284Y-163937908D02*
X105399999Y-163980765D01*
X105399999Y-163980765D02*
X105742856Y-163980765D01*
X104842856Y-164409337D02*
X104842856Y-163509337D01*
X104414285Y-164409337D02*
X104414285Y-163509337D01*
X104414285Y-163509337D02*
X103899999Y-164409337D01*
X103899999Y-164409337D02*
X103899999Y-163509337D01*
X103514285Y-164366480D02*
X103385714Y-164409337D01*
X103385714Y-164409337D02*
X103171428Y-164409337D01*
X103171428Y-164409337D02*
X103085714Y-164366480D01*
X103085714Y-164366480D02*
X103042856Y-164323622D01*
X103042856Y-164323622D02*
X102999999Y-164237908D01*
X102999999Y-164237908D02*
X102999999Y-164152194D01*
X102999999Y-164152194D02*
X103042856Y-164066480D01*
X103042856Y-164066480D02*
X103085714Y-164023622D01*
X103085714Y-164023622D02*
X103171428Y-163980765D01*
X103171428Y-163980765D02*
X103342856Y-163937908D01*
X103342856Y-163937908D02*
X103428571Y-163895051D01*
X103428571Y-163895051D02*
X103471428Y-163852194D01*
X103471428Y-163852194D02*
X103514285Y-163766480D01*
X103514285Y-163766480D02*
X103514285Y-163680765D01*
X103514285Y-163680765D02*
X103471428Y-163595051D01*
X103471428Y-163595051D02*
X103428571Y-163552194D01*
X103428571Y-163552194D02*
X103342856Y-163509337D01*
X103342856Y-163509337D02*
X103128571Y-163509337D01*
X103128571Y-163509337D02*
X102999999Y-163552194D01*
X102057142Y-163509337D02*
X101542857Y-163509337D01*
X101799999Y-164409337D02*
X101799999Y-163509337D01*
X101242857Y-164409337D02*
X101242857Y-163509337D01*
X101242857Y-163937908D02*
X100728571Y-163937908D01*
X100728571Y-164409337D02*
X100728571Y-163509337D01*
X99785714Y-164409337D02*
X100085714Y-163980765D01*
X100300000Y-164409337D02*
X100300000Y-163509337D01*
X100300000Y-163509337D02*
X99957143Y-163509337D01*
X99957143Y-163509337D02*
X99871428Y-163552194D01*
X99871428Y-163552194D02*
X99828571Y-163595051D01*
X99828571Y-163595051D02*
X99785714Y-163680765D01*
X99785714Y-163680765D02*
X99785714Y-163809337D01*
X99785714Y-163809337D02*
X99828571Y-163895051D01*
X99828571Y-163895051D02*
X99871428Y-163937908D01*
X99871428Y-163937908D02*
X99957143Y-163980765D01*
X99957143Y-163980765D02*
X100300000Y-163980765D01*
X99228571Y-163509337D02*
X99057143Y-163509337D01*
X99057143Y-163509337D02*
X98971428Y-163552194D01*
X98971428Y-163552194D02*
X98885714Y-163637908D01*
X98885714Y-163637908D02*
X98842857Y-163809337D01*
X98842857Y-163809337D02*
X98842857Y-164109337D01*
X98842857Y-164109337D02*
X98885714Y-164280765D01*
X98885714Y-164280765D02*
X98971428Y-164366480D01*
X98971428Y-164366480D02*
X99057143Y-164409337D01*
X99057143Y-164409337D02*
X99228571Y-164409337D01*
X99228571Y-164409337D02*
X99314286Y-164366480D01*
X99314286Y-164366480D02*
X99400000Y-164280765D01*
X99400000Y-164280765D02*
X99442857Y-164109337D01*
X99442857Y-164109337D02*
X99442857Y-163809337D01*
X99442857Y-163809337D02*
X99400000Y-163637908D01*
X99400000Y-163637908D02*
X99314286Y-163552194D01*
X99314286Y-163552194D02*
X99228571Y-163509337D01*
X98457143Y-163509337D02*
X98457143Y-164237908D01*
X98457143Y-164237908D02*
X98414286Y-164323622D01*
X98414286Y-164323622D02*
X98371429Y-164366480D01*
X98371429Y-164366480D02*
X98285714Y-164409337D01*
X98285714Y-164409337D02*
X98114286Y-164409337D01*
X98114286Y-164409337D02*
X98028571Y-164366480D01*
X98028571Y-164366480D02*
X97985714Y-164323622D01*
X97985714Y-164323622D02*
X97942857Y-164237908D01*
X97942857Y-164237908D02*
X97942857Y-163509337D01*
X97042857Y-163552194D02*
X97128572Y-163509337D01*
X97128572Y-163509337D02*
X97257143Y-163509337D01*
X97257143Y-163509337D02*
X97385714Y-163552194D01*
X97385714Y-163552194D02*
X97471429Y-163637908D01*
X97471429Y-163637908D02*
X97514286Y-163723622D01*
X97514286Y-163723622D02*
X97557143Y-163895051D01*
X97557143Y-163895051D02*
X97557143Y-164023622D01*
X97557143Y-164023622D02*
X97514286Y-164195051D01*
X97514286Y-164195051D02*
X97471429Y-164280765D01*
X97471429Y-164280765D02*
X97385714Y-164366480D01*
X97385714Y-164366480D02*
X97257143Y-164409337D01*
X97257143Y-164409337D02*
X97171429Y-164409337D01*
X97171429Y-164409337D02*
X97042857Y-164366480D01*
X97042857Y-164366480D02*
X97000000Y-164323622D01*
X97000000Y-164323622D02*
X97000000Y-164023622D01*
X97000000Y-164023622D02*
X97171429Y-164023622D01*
X96614286Y-164409337D02*
X96614286Y-163509337D01*
X96614286Y-163937908D02*
X96100000Y-163937908D01*
X96100000Y-164409337D02*
X96100000Y-163509337D01*
X95114286Y-163509337D02*
X94600001Y-163509337D01*
X94857143Y-164409337D02*
X94857143Y-163509337D01*
X94300001Y-164409337D02*
X94300001Y-163509337D01*
X94300001Y-163937908D02*
X93785715Y-163937908D01*
X93785715Y-164409337D02*
X93785715Y-163509337D01*
X93357144Y-164409337D02*
X93357144Y-163509337D01*
X92971430Y-164366480D02*
X92842859Y-164409337D01*
X92842859Y-164409337D02*
X92628573Y-164409337D01*
X92628573Y-164409337D02*
X92542859Y-164366480D01*
X92542859Y-164366480D02*
X92500001Y-164323622D01*
X92500001Y-164323622D02*
X92457144Y-164237908D01*
X92457144Y-164237908D02*
X92457144Y-164152194D01*
X92457144Y-164152194D02*
X92500001Y-164066480D01*
X92500001Y-164066480D02*
X92542859Y-164023622D01*
X92542859Y-164023622D02*
X92628573Y-163980765D01*
X92628573Y-163980765D02*
X92800001Y-163937908D01*
X92800001Y-163937908D02*
X92885716Y-163895051D01*
X92885716Y-163895051D02*
X92928573Y-163852194D01*
X92928573Y-163852194D02*
X92971430Y-163766480D01*
X92971430Y-163766480D02*
X92971430Y-163680765D01*
X92971430Y-163680765D02*
X92928573Y-163595051D01*
X92928573Y-163595051D02*
X92885716Y-163552194D01*
X92885716Y-163552194D02*
X92800001Y-163509337D01*
X92800001Y-163509337D02*
X92585716Y-163509337D01*
X92585716Y-163509337D02*
X92457144Y-163552194D01*
X91085716Y-163937908D02*
X90957144Y-163980765D01*
X90957144Y-163980765D02*
X90914287Y-164023622D01*
X90914287Y-164023622D02*
X90871430Y-164109337D01*
X90871430Y-164109337D02*
X90871430Y-164237908D01*
X90871430Y-164237908D02*
X90914287Y-164323622D01*
X90914287Y-164323622D02*
X90957144Y-164366480D01*
X90957144Y-164366480D02*
X91042859Y-164409337D01*
X91042859Y-164409337D02*
X91385716Y-164409337D01*
X91385716Y-164409337D02*
X91385716Y-163509337D01*
X91385716Y-163509337D02*
X91085716Y-163509337D01*
X91085716Y-163509337D02*
X91000002Y-163552194D01*
X91000002Y-163552194D02*
X90957144Y-163595051D01*
X90957144Y-163595051D02*
X90914287Y-163680765D01*
X90914287Y-163680765D02*
X90914287Y-163766480D01*
X90914287Y-163766480D02*
X90957144Y-163852194D01*
X90957144Y-163852194D02*
X91000002Y-163895051D01*
X91000002Y-163895051D02*
X91085716Y-163937908D01*
X91085716Y-163937908D02*
X91385716Y-163937908D01*
X90314287Y-163509337D02*
X90142859Y-163509337D01*
X90142859Y-163509337D02*
X90057144Y-163552194D01*
X90057144Y-163552194D02*
X89971430Y-163637908D01*
X89971430Y-163637908D02*
X89928573Y-163809337D01*
X89928573Y-163809337D02*
X89928573Y-164109337D01*
X89928573Y-164109337D02*
X89971430Y-164280765D01*
X89971430Y-164280765D02*
X90057144Y-164366480D01*
X90057144Y-164366480D02*
X90142859Y-164409337D01*
X90142859Y-164409337D02*
X90314287Y-164409337D01*
X90314287Y-164409337D02*
X90400002Y-164366480D01*
X90400002Y-164366480D02*
X90485716Y-164280765D01*
X90485716Y-164280765D02*
X90528573Y-164109337D01*
X90528573Y-164109337D02*
X90528573Y-163809337D01*
X90528573Y-163809337D02*
X90485716Y-163637908D01*
X90485716Y-163637908D02*
X90400002Y-163552194D01*
X90400002Y-163552194D02*
X90314287Y-163509337D01*
X89585716Y-164152194D02*
X89157145Y-164152194D01*
X89671430Y-164409337D02*
X89371430Y-163509337D01*
X89371430Y-163509337D02*
X89071430Y-164409337D01*
X88257144Y-164409337D02*
X88557144Y-163980765D01*
X88771430Y-164409337D02*
X88771430Y-163509337D01*
X88771430Y-163509337D02*
X88428573Y-163509337D01*
X88428573Y-163509337D02*
X88342858Y-163552194D01*
X88342858Y-163552194D02*
X88300001Y-163595051D01*
X88300001Y-163595051D02*
X88257144Y-163680765D01*
X88257144Y-163680765D02*
X88257144Y-163809337D01*
X88257144Y-163809337D02*
X88300001Y-163895051D01*
X88300001Y-163895051D02*
X88342858Y-163937908D01*
X88342858Y-163937908D02*
X88428573Y-163980765D01*
X88428573Y-163980765D02*
X88771430Y-163980765D01*
X87871430Y-164409337D02*
X87871430Y-163509337D01*
X87871430Y-163509337D02*
X87657144Y-163509337D01*
X87657144Y-163509337D02*
X87528573Y-163552194D01*
X87528573Y-163552194D02*
X87442858Y-163637908D01*
X87442858Y-163637908D02*
X87400001Y-163723622D01*
X87400001Y-163723622D02*
X87357144Y-163895051D01*
X87357144Y-163895051D02*
X87357144Y-164023622D01*
X87357144Y-164023622D02*
X87400001Y-164195051D01*
X87400001Y-164195051D02*
X87442858Y-164280765D01*
X87442858Y-164280765D02*
X87528573Y-164366480D01*
X87528573Y-164366480D02*
X87657144Y-164409337D01*
X87657144Y-164409337D02*
X87871430Y-164409337D01*
%LPC*%
D11*
G04 #@! TO.C,J2*
X104000000Y-138000000D03*
D12*
X104000000Y-136000000D03*
G04 #@! TD*
D13*
G04 #@! TO.C,SW5*
X68800999Y-145300000D03*
X68800999Y-150000000D03*
X68800999Y-154700000D03*
G04 #@! TD*
D14*
G04 #@! TO.C,J1*
X124469999Y-67170000D03*
D15*
X121930001Y-67170000D03*
X124469999Y-69710000D03*
X121930001Y-69710000D03*
X124469999Y-72250000D03*
X121930001Y-72250000D03*
X124469999Y-74790000D03*
X121930001Y-74790000D03*
X124469999Y-77330000D03*
X121930001Y-77330000D03*
X124469999Y-79870000D03*
X121930001Y-79870000D03*
X124469999Y-82410001D03*
X121930001Y-82410001D03*
X124469999Y-84950001D03*
X121930001Y-84950001D03*
X124469999Y-87489999D03*
X121930001Y-87489999D03*
X124469999Y-90029999D03*
X121930001Y-90029999D03*
X124469999Y-92569999D03*
X121930001Y-92569999D03*
X124469999Y-95110000D03*
X121930001Y-95110000D03*
X124469999Y-97650000D03*
X121930001Y-97650000D03*
X124469999Y-100190000D03*
X121930001Y-100190000D03*
X124469999Y-102730000D03*
X121930001Y-102730000D03*
X124469999Y-105270000D03*
X121930001Y-105270000D03*
G04 #@! TD*
%LPD*%
M02*
