G04 #@! TF.GenerationSoftware,KiCad,Pcbnew,7.0.11+dfsg-1build4*
G04 #@! TF.CreationDate,2026-10-02T12:31:17+00:00*
G04 #@! TF.ProjectId,struthio_one,73747275-7468-4696-9f5f-6f6e652e6b69,rev?*
G04 #@! TF.SameCoordinates,Original*
G04 #@! TF.FileFunction,Profile,NP*
%FSLAX46Y46*%
G04 Gerber Fmt 4.6, Leading zero omitted, Abs format (unit mm)*
G04 Created by KiCad (PCBNEW 7.0.11+dfsg-1build4) date 2026-10-02 12:31:17*
%MOMM*%
%LPD*%
G01*
G04 APERTURE LIST*
G04 #@! TA.AperFunction,Profile*
%ADD10C,0.100000*%
G04 #@! TD*
G04 APERTURE END LIST*
D10*
X84843349Y-166808852D02*
X84843685Y-166808837D01*
X134287235Y-142498194D02*
X134283419Y-142483616D01*
X65920133Y-141789160D02*
X65919673Y-141790595D01*
X131383431Y-134447257D02*
X131383013Y-134446241D01*
X124250000Y-119020000D02*
X124667683Y-119047376D01*
X132855416Y-167185386D02*
X132861043Y-167181767D01*
X131433008Y-134567561D02*
X131383431Y-134447257D01*
X65860482Y-164975627D02*
X65860856Y-164977561D01*
X65664443Y-142686574D02*
X65663847Y-142688965D01*
X132398177Y-167424915D02*
X132404924Y-167422171D01*
X65380717Y-161582291D02*
X65380827Y-161583801D01*
X65401363Y-144114677D02*
X65399822Y-144126093D01*
X131666787Y-135121251D02*
X131595685Y-134954022D01*
X89759821Y-166621642D02*
X89760944Y-166621608D01*
X66212555Y-166236517D02*
X66253741Y-166320768D01*
X85798338Y-166767380D02*
X85800036Y-166767309D01*
X66303375Y-140659088D02*
X66303341Y-140659183D01*
X94870732Y-166496252D02*
X94871116Y-166496246D01*
X105107050Y-166495874D02*
X105107439Y-166495880D01*
X85798005Y-166767393D02*
X85798338Y-166767380D01*
X65314775Y-144868280D02*
X65314632Y-144869752D01*
X92807824Y-166538099D02*
X92808178Y-166538090D01*
X133206644Y-139221318D02*
X133205290Y-139217350D01*
X131591619Y-134944444D02*
X131591560Y-134944306D01*
X65231986Y-145985778D02*
X65231934Y-145986711D01*
X134850908Y-155937445D02*
X134850948Y-155936062D01*
X116538824Y-64295521D02*
X116530358Y-64327117D01*
X117107994Y-166908095D02*
X117109593Y-166908199D01*
X65148997Y-148065915D02*
X65148985Y-148066304D01*
X133452915Y-139956361D02*
X133451930Y-139953475D01*
X68546796Y-134616158D02*
X68545809Y-134618516D01*
X68622640Y-134432434D02*
X68621274Y-134435780D01*
X134835532Y-156446046D02*
X134835536Y-156445915D01*
X134873120Y-148906097D02*
X134873046Y-148902824D01*
X65462198Y-162487814D02*
X65463732Y-162502206D01*
X75507766Y-167569109D02*
X76368147Y-167485580D01*
X132163618Y-136359302D02*
X132163564Y-136359160D01*
X65567084Y-143116322D02*
X65563208Y-143134982D01*
X68204399Y-167609518D02*
X68242124Y-167617954D01*
X68565418Y-134571368D02*
X68563935Y-134574952D01*
X133206844Y-139221906D02*
X133206644Y-139221318D01*
X65227873Y-158549745D02*
X65227967Y-158552468D01*
X114221714Y-166768227D02*
X114222039Y-166768241D01*
X134894678Y-153903500D02*
X134894721Y-153900179D01*
X134152563Y-142023856D02*
X134152052Y-142022171D01*
X67985272Y-135966467D02*
X67981954Y-135974951D01*
X103048557Y-166466949D02*
X103049931Y-166466964D01*
X128340889Y-162810582D02*
X128310266Y-162656631D01*
X101003203Y-166451928D02*
X101022175Y-166452000D01*
X134901318Y-150796050D02*
X134901292Y-150793241D01*
X108219412Y-166563427D02*
X108219759Y-166563436D01*
X134900480Y-153374071D02*
X134904188Y-152861834D01*
X117102411Y-63652873D02*
X117072616Y-63666373D01*
X133279954Y-139438048D02*
X133208395Y-139226475D01*
X131739903Y-135293742D02*
X131739736Y-135293347D01*
X67837111Y-136357359D02*
X67837107Y-136357371D01*
X131887183Y-135647360D02*
X131886840Y-135646516D01*
X66160595Y-166114676D02*
X66163017Y-166120885D01*
X68644652Y-134378293D02*
X68644241Y-134379311D01*
X134906241Y-151814248D02*
X134906240Y-151813862D01*
X65126879Y-148906097D02*
X65126869Y-148906564D01*
X134896476Y-150304674D02*
X134896444Y-150301869D01*
X66389817Y-140412201D02*
X66389724Y-140412469D01*
X133855339Y-166073009D02*
X133857679Y-166066768D01*
X66949282Y-138771031D02*
X66949106Y-138771535D01*
X133128606Y-138994301D02*
X133127354Y-138990688D01*
X134798597Y-146602624D02*
X134798567Y-146601961D01*
X116070498Y-166850966D02*
X116074047Y-166851134D01*
X109226140Y-166591055D02*
X109226480Y-166591064D01*
X133449852Y-139947366D02*
X133448875Y-139944484D01*
X133614693Y-140425133D02*
X133614599Y-140424861D01*
X78177443Y-167306246D02*
X78177714Y-167306220D01*
X65663847Y-142688965D02*
X65659894Y-142705006D01*
X65149004Y-155934449D02*
X65149046Y-155935913D01*
X65616731Y-163621690D02*
X65616998Y-163623317D01*
X100016849Y-166450028D02*
X100017334Y-166450029D01*
X132501931Y-167380030D02*
X132546676Y-167359095D01*
X65164512Y-156447591D02*
X65164525Y-156448009D01*
X120862796Y-167213321D02*
X120863316Y-167213369D01*
X65342084Y-144601519D02*
X65340911Y-144612062D01*
X65554115Y-143180722D02*
X65521233Y-143353831D01*
X125078220Y-119129037D02*
X125474586Y-119263585D01*
X134805322Y-157486137D02*
X134820134Y-156975994D01*
X68257784Y-135299228D02*
X68257619Y-135299621D01*
X65991192Y-141569053D02*
X65988627Y-141576818D01*
X65313688Y-144879620D02*
X65313549Y-144881093D01*
X133219045Y-166918424D02*
X133239197Y-166902105D01*
X133860191Y-141128463D02*
X133858812Y-141124454D01*
X66465084Y-140195677D02*
X66390812Y-140409345D01*
X134445884Y-143180722D02*
X134445346Y-143177933D01*
X68474877Y-134787503D02*
X68474695Y-134787934D01*
X132861043Y-167181767D02*
X132868745Y-167176741D01*
X116131428Y-166854007D02*
X116134987Y-166854191D01*
X134596581Y-144099842D02*
X134567445Y-143894655D01*
X66950592Y-138767291D02*
X66950426Y-138767765D01*
X134136618Y-164990512D02*
X134139143Y-164977561D01*
X65093759Y-151813862D02*
X65093758Y-151814248D01*
X131714383Y-167627188D02*
X131752234Y-167619182D01*
X107172985Y-166537656D02*
X107173351Y-166537664D01*
X68059619Y-167574167D02*
X68065827Y-167575749D01*
X131667664Y-135123318D02*
X131667623Y-135123219D01*
X131815460Y-135473744D02*
X131815203Y-135473122D01*
X134657737Y-144599943D02*
X134633482Y-144388036D01*
X72386119Y-167816980D02*
X72401463Y-167816109D01*
X131124146Y-133775206D02*
X131123450Y-133773258D01*
X105108751Y-166495901D02*
X105109134Y-166495908D01*
X68859236Y-167724509D02*
X68863648Y-167725063D01*
X124492233Y-167569109D02*
X124492773Y-167569162D01*
X109246980Y-166591658D02*
X109247324Y-166591668D01*
X65187252Y-146944951D02*
X65187116Y-146948410D01*
X134437361Y-143137766D02*
X134436791Y-143134982D01*
X80041528Y-167129511D02*
X80045386Y-167129160D01*
X101024148Y-166452008D02*
X101024615Y-166452010D01*
X128252088Y-167844626D02*
X128255092Y-167844746D01*
X67126314Y-167173476D02*
X67131254Y-167176741D01*
X65657875Y-163857010D02*
X65656718Y-163857214D01*
X129546671Y-63581220D02*
X129514241Y-63576951D01*
X134397906Y-142952410D02*
X134397343Y-142949809D01*
X65919673Y-141790595D02*
X65916626Y-141800150D01*
X65847947Y-142022171D02*
X65847436Y-142023856D01*
X134485809Y-162934865D02*
X134486155Y-162932284D01*
X131204183Y-167715970D02*
X131208581Y-167715338D01*
X65420851Y-162065299D02*
X65421017Y-162067099D01*
X134652854Y-161108099D02*
X134652932Y-161106841D01*
X65919802Y-165263082D02*
X65920390Y-165265806D01*
X132228212Y-167488523D02*
X132234776Y-167486282D01*
X132029416Y-167550261D02*
X132035581Y-167548521D01*
X68616568Y-134447257D02*
X68566991Y-134567561D01*
X119954613Y-167129160D02*
X119958471Y-167129511D01*
X96930673Y-166467174D02*
X96932040Y-166467158D01*
X130230513Y-161547975D02*
X130348528Y-161651471D01*
X65403418Y-144099842D02*
X65403179Y-144101546D01*
X65099581Y-153381285D02*
X65099586Y-153381737D01*
X134684250Y-144858414D02*
X134684104Y-144856949D01*
X65137423Y-148472035D02*
X65137409Y-148472554D01*
X134732719Y-159594216D02*
X134732748Y-159593505D01*
X97982472Y-166457585D02*
X97982913Y-166457583D01*
X65659309Y-142707401D02*
X65655434Y-142723466D01*
X134904213Y-152857945D02*
X134904229Y-152854959D01*
X134687365Y-144890965D02*
X134686450Y-144881093D01*
X115175081Y-166809678D02*
X115175408Y-166809693D01*
X93835116Y-166515728D02*
X93836996Y-166515688D01*
X65615574Y-142892343D02*
X65611564Y-142909747D01*
X88735057Y-166655333D02*
X88748653Y-166654868D01*
X117072616Y-63666373D02*
X117043279Y-63680841D01*
X65863381Y-164990512D02*
X65863761Y-164992442D01*
X133046927Y-138760242D02*
X133046758Y-138759762D01*
X65179469Y-156962339D02*
X65194677Y-157486137D01*
X101029354Y-166452033D02*
X102017086Y-166457583D01*
X75498705Y-167569974D02*
X75499241Y-167569923D01*
X84845719Y-166808747D02*
X84846800Y-166808700D01*
X134750470Y-145694319D02*
X134750401Y-145693246D01*
X134708652Y-160122588D02*
X134708936Y-160116785D01*
X128651471Y-163348528D02*
X128547975Y-163230513D01*
X94892949Y-166495874D02*
X95896652Y-166480125D01*
X134565509Y-143881334D02*
X134565253Y-143879596D01*
X134906248Y-151820354D02*
X134906246Y-151817505D01*
X66757802Y-166899656D02*
X66760802Y-166902105D01*
X131668047Y-135124219D02*
X131667664Y-135123318D01*
X65438770Y-143852974D02*
X65438503Y-143854704D01*
X68828472Y-133905427D02*
X68803294Y-133972984D01*
X131488171Y-167671175D02*
X131521818Y-167665175D01*
X65782307Y-142245412D02*
X65778611Y-142258387D01*
X134896398Y-150298147D02*
X134890151Y-149826571D01*
X78175843Y-167306404D02*
X78176113Y-167306377D01*
X109222596Y-166590955D02*
X109222937Y-166590965D01*
X109245530Y-166591614D02*
X109245870Y-166591625D01*
X66872645Y-138990688D02*
X66871393Y-138994301D01*
X130388779Y-64423328D02*
X130383450Y-64391055D01*
X81057736Y-167041821D02*
X81933524Y-166973393D01*
X124505000Y-167570321D02*
X124505543Y-167570372D01*
X65267704Y-159604296D02*
X65267734Y-159604986D01*
X65164525Y-156448009D02*
X65164528Y-156448135D01*
X65347763Y-161117800D02*
X65348321Y-161126245D01*
X131957002Y-135820073D02*
X131954156Y-135812903D01*
X65621216Y-163648475D02*
X65623104Y-163659411D01*
X65418403Y-162037630D02*
X65418556Y-162039424D01*
X134835765Y-156438208D02*
X134835780Y-156437690D01*
X65985320Y-141586912D02*
X65982794Y-141594686D01*
X131095365Y-133693740D02*
X130722821Y-133258918D01*
X102019420Y-166457597D02*
X102021608Y-166457611D01*
X67923193Y-167536598D02*
X67964418Y-167548521D01*
X131163425Y-133883470D02*
X131161076Y-133877045D01*
X65095406Y-151298140D02*
X65095390Y-151300928D01*
X134873210Y-148910315D02*
X134873200Y-148909831D01*
X65161440Y-147672436D02*
X65161430Y-147672738D01*
X67113650Y-138308882D02*
X67112700Y-138311518D01*
X74651626Y-167648352D02*
X74657544Y-167647836D01*
X131934172Y-167575749D02*
X131940380Y-167574167D01*
X106161053Y-166515648D02*
X106161422Y-166515655D01*
X131515183Y-134763940D02*
X131515006Y-134763520D01*
X116878588Y-63787027D02*
X116853303Y-63807778D01*
X67680194Y-136774992D02*
X67680172Y-136775052D01*
X65746749Y-164362027D02*
X65747427Y-164365832D01*
X134896511Y-150307949D02*
X134896481Y-150305121D01*
X98998776Y-166451922D02*
X98999246Y-166451920D01*
X134894618Y-153907793D02*
X134894625Y-153907292D01*
X65216474Y-146279412D02*
X65216432Y-146280208D01*
X121825307Y-167306518D02*
X122730831Y-167396228D01*
X66074369Y-165866472D02*
X66076034Y-165871874D01*
X65267734Y-159604986D02*
X65267942Y-159609689D01*
X71701619Y-167846212D02*
X71721758Y-167845590D01*
X134731826Y-145423038D02*
X134731741Y-145421828D01*
X67110520Y-138317586D02*
X67110388Y-138317954D01*
X103067959Y-166467158D02*
X103069326Y-166467174D01*
X68260096Y-135293742D02*
X68259027Y-135296276D01*
X133936336Y-141351564D02*
X133934330Y-141345650D01*
X132562551Y-137424512D02*
X132562034Y-137423116D01*
X65318138Y-160631950D02*
X65318551Y-160638980D01*
X97976061Y-166457627D02*
X97976499Y-166457624D01*
X65093876Y-152339115D02*
X65093878Y-152339540D01*
X134850831Y-148060287D02*
X134850819Y-148059906D01*
X67273823Y-137867925D02*
X67273705Y-137868248D01*
X68408033Y-134945263D02*
X68407806Y-134945797D01*
X66676962Y-166832372D02*
X66734789Y-166880703D01*
X134850953Y-155935913D02*
X134850995Y-155934449D01*
X116136062Y-166854247D02*
X116141436Y-166854529D01*
X68931335Y-133616083D02*
X68909724Y-133679045D01*
X65250617Y-145677728D02*
X65250135Y-145684946D01*
X90772086Y-166591105D02*
X90772429Y-166591095D01*
X68485587Y-134762109D02*
X68484993Y-134763520D01*
X68487426Y-134757735D02*
X68486837Y-134759135D01*
X134820134Y-156975994D02*
X134814874Y-156962174D01*
X134876998Y-154939733D02*
X134877084Y-154935929D01*
X134393519Y-142932363D02*
X134392942Y-142929764D01*
X134906138Y-152332443D02*
X134906141Y-152329573D01*
X65382585Y-161606984D02*
X65383394Y-161617066D01*
X134159844Y-142048174D02*
X134156476Y-142036851D01*
X131098336Y-133702263D02*
X131095365Y-133693740D01*
X121821111Y-167306104D02*
X121821380Y-167306131D01*
X68832284Y-133895133D02*
X68831566Y-133897078D01*
X103046027Y-166466924D02*
X103048139Y-166466945D01*
X131203658Y-133991482D02*
X131203041Y-133989848D01*
X65520803Y-143356122D02*
X65517954Y-143371513D01*
X67599980Y-136988882D02*
X67599708Y-136989609D01*
X130399999Y-132588617D02*
X130399999Y-64578181D01*
X127596249Y-167815974D02*
X127598536Y-167816109D01*
X134904638Y-151307361D02*
X134904627Y-151304575D01*
X121159037Y-121391779D02*
X121293585Y-120995413D01*
X119959237Y-167129581D02*
X119961765Y-167129814D01*
X90772429Y-166591095D02*
X90773519Y-166591064D01*
X115175408Y-166809693D02*
X115176491Y-166809743D01*
X67263969Y-167258935D02*
X67275985Y-167265882D01*
X68045843Y-135812903D02*
X68042997Y-135820073D01*
X65161367Y-147674648D02*
X65161358Y-147674942D01*
X131886840Y-135646516D02*
X131884507Y-135640787D01*
X131752234Y-167619182D02*
X131757875Y-167617954D01*
X81046115Y-167042748D02*
X81047141Y-167042665D01*
X133358169Y-139673386D02*
X133358106Y-139673197D01*
X65514190Y-162934865D02*
X65556293Y-163243403D01*
X102023938Y-166457627D02*
X102041956Y-166457760D01*
X66613037Y-166776754D02*
X66624717Y-166787350D01*
X133362211Y-139685522D02*
X133362148Y-139685331D01*
X134906245Y-151817111D02*
X134906241Y-151814248D01*
X65149046Y-155935913D02*
X65149051Y-155936062D01*
X82890406Y-166908199D02*
X82892005Y-166908095D01*
X134709253Y-160110117D02*
X134709293Y-160109257D01*
X65174216Y-147296133D02*
X65174202Y-147296512D01*
X130341165Y-64233245D02*
X130329643Y-64202631D01*
X91776661Y-166563532D02*
X91777006Y-166563522D01*
X132562034Y-137423116D02*
X132561960Y-137422916D01*
X132025603Y-135994496D02*
X132022327Y-135985985D01*
X106162627Y-166515680D02*
X106163003Y-166515688D01*
X132399333Y-136987051D02*
X132399278Y-136986903D01*
X67815794Y-167503208D02*
X67822385Y-167505357D01*
X99987628Y-166450023D02*
X99988117Y-166450022D01*
X134772140Y-158549328D02*
X134772233Y-158546605D01*
X133436186Y-139906951D02*
X133435219Y-139904081D01*
X133938632Y-141358371D02*
X133936635Y-141352448D01*
X66718150Y-139443676D02*
X66716698Y-139448008D01*
X65227981Y-158552862D02*
X65246384Y-159070482D01*
X111268388Y-166655452D02*
X111268717Y-166655464D01*
X132981545Y-167099387D02*
X132986368Y-167095946D01*
X132163733Y-136359609D02*
X132163636Y-136359352D01*
X116085142Y-166851673D02*
X116086219Y-166851727D01*
X133615995Y-140428857D02*
X133615684Y-140427968D01*
X133531822Y-140186741D02*
X133523726Y-140163269D01*
X82992157Y-166901973D02*
X82997445Y-166901675D01*
X132400346Y-136989755D02*
X132400291Y-136989609D01*
X133966989Y-165726264D02*
X133968230Y-165721782D01*
X66636033Y-166797294D02*
X66640711Y-166801354D01*
X133375282Y-166787350D02*
X133386962Y-166776754D01*
X134906141Y-152329573D02*
X134906142Y-152329137D01*
X68408098Y-134945110D02*
X68408033Y-134945263D01*
X69189723Y-167763823D02*
X69215235Y-167766319D01*
X68155501Y-167597989D02*
X68161116Y-167599347D01*
X65227649Y-158543052D02*
X65227662Y-158543465D01*
X65291729Y-160130115D02*
X65317179Y-160614741D01*
X65659894Y-142705006D02*
X65659309Y-142707401D01*
X66205713Y-166221930D02*
X66212555Y-166236517D01*
X116081588Y-166851498D02*
X116085142Y-166851673D01*
X66734789Y-166880703D02*
X66737770Y-166883175D01*
X66031769Y-165721782D02*
X66033010Y-165726264D01*
X65563208Y-143134982D02*
X65562638Y-143137766D01*
X133609283Y-140409620D02*
X133609187Y-140409345D01*
X101002745Y-166451927D02*
X101003203Y-166451928D01*
X87738287Y-166690780D02*
X87751745Y-166690284D01*
X134753137Y-159083165D02*
X134753280Y-159079493D01*
X102048804Y-166457817D02*
X103043826Y-166466903D01*
X77267920Y-167396352D02*
X78174692Y-167306518D01*
X134254021Y-164357674D02*
X134254125Y-164357089D01*
X133615684Y-140427968D02*
X133615586Y-140427689D01*
X70656631Y-161310266D02*
X70810582Y-161340889D01*
X134812588Y-146940973D02*
X134812566Y-146940439D01*
X68897473Y-133714192D02*
X68879537Y-133764867D01*
X96953972Y-166466924D02*
X96954397Y-166466920D01*
X133027928Y-167065895D02*
X133054641Y-167046194D01*
X78178619Y-167306131D02*
X78178888Y-167306104D01*
X133856995Y-141119199D02*
X133780309Y-140898215D01*
X131436064Y-134574952D02*
X131434581Y-134571368D01*
X68486662Y-134759552D02*
X68485768Y-134761679D01*
X130400253Y-167800467D02*
X130403511Y-167800227D01*
X134850856Y-155939181D02*
X134850861Y-155939003D01*
X92802565Y-166538225D02*
X92802933Y-166538216D01*
X132018045Y-135974951D02*
X132014727Y-135966467D01*
X65399822Y-144126093D02*
X65399594Y-144127807D01*
X117132631Y-63640356D02*
X117102411Y-63652873D01*
X129611026Y-63592930D02*
X129578945Y-63586549D01*
X85796918Y-166767439D02*
X85798005Y-166767393D01*
X131454489Y-134619231D02*
X131454190Y-134618516D01*
X129959220Y-161391344D02*
X130100000Y-161460769D01*
X132723627Y-137860969D02*
X132644391Y-137645546D01*
X90773859Y-166591055D02*
X90775586Y-166591006D01*
X134011372Y-141576818D02*
X134008807Y-141569053D01*
X65315749Y-144858414D02*
X65314775Y-144868280D01*
X133875330Y-166018573D02*
X133883296Y-165995954D01*
X130377069Y-64358973D02*
X130369641Y-64327117D01*
X65149180Y-148059906D02*
X65149168Y-148060287D01*
X66041456Y-165756222D02*
X66042738Y-165760692D01*
X105109134Y-166495908D02*
X105111028Y-166495939D01*
X132886349Y-138308882D02*
X132886199Y-138308468D01*
X66869772Y-138998998D02*
X66796474Y-139212194D01*
X71539230Y-161899999D02*
X71608655Y-162040779D01*
X132817551Y-167209380D02*
X132855416Y-167185386D01*
X134900377Y-153385323D02*
X134900382Y-153384886D01*
X68566695Y-134568278D02*
X68565715Y-134570650D01*
X134805286Y-157487381D02*
X134805289Y-157487290D01*
X67601822Y-167424915D02*
X67647089Y-167442940D01*
X65619087Y-163635902D02*
X65620937Y-163646842D01*
X132278625Y-167470971D02*
X132285156Y-167468639D01*
X134083829Y-141801585D02*
X134083373Y-141800150D01*
X134598402Y-144112965D02*
X134596820Y-144101546D01*
X134851014Y-148066304D02*
X134851002Y-148065915D01*
X67437360Y-137424749D02*
X67357873Y-137639408D01*
X116207106Y-133207106D02*
X115500000Y-133500000D01*
X65915908Y-165244809D02*
X65919802Y-165263082D01*
X99984747Y-166450026D02*
X99985218Y-166450025D01*
X84823175Y-166809758D02*
X84823508Y-166809743D01*
X73861309Y-167715860D02*
X73862583Y-167715756D01*
X132088176Y-136158404D02*
X132086507Y-136154015D01*
X68758379Y-134090967D02*
X68725370Y-134175883D01*
X69769486Y-161547975D02*
X69899999Y-161460769D01*
X84843685Y-166808837D02*
X84845387Y-166808762D01*
X67600026Y-136988757D02*
X67599980Y-136988882D01*
X134900413Y-153381737D02*
X134900418Y-153381285D01*
X134384425Y-142892343D02*
X134383819Y-142889747D01*
X67907770Y-136169134D02*
X67837320Y-136356803D01*
X134825797Y-147296512D02*
X134825783Y-147296133D01*
X66535925Y-166704555D02*
X66613037Y-166776754D01*
X93859641Y-166515232D02*
X93860013Y-166515225D01*
X65717154Y-142481445D02*
X65716580Y-142483616D01*
X133780205Y-140897916D02*
X133779476Y-140895821D01*
X129500000Y-163700000D02*
X129343368Y-163689733D01*
X91795299Y-166563044D02*
X91796475Y-166563014D01*
X68765487Y-134072529D02*
X68764861Y-134074161D01*
X133468917Y-166699875D02*
X133477180Y-166691309D01*
X67866645Y-167519448D02*
X67873265Y-167521505D01*
X129391818Y-63570000D02*
X117508181Y-63570000D01*
X86753349Y-166728405D02*
X86753683Y-166728392D01*
X65164283Y-156439857D02*
X65164463Y-156445915D01*
X85801750Y-166767239D02*
X86748560Y-166728597D01*
X116548319Y-64264219D02*
X116538824Y-64295521D01*
X113251109Y-166728584D02*
X113251439Y-166728597D01*
X65674010Y-164008194D02*
X65684167Y-164006407D01*
X134534194Y-162520901D02*
X134534437Y-162518750D01*
X86768558Y-166727804D02*
X86768879Y-166727792D01*
X131738494Y-135290410D02*
X131668075Y-135124287D01*
X65095786Y-152857945D02*
X65095789Y-152858392D01*
X133361500Y-139683387D02*
X133358850Y-139675431D01*
X70574173Y-167850581D02*
X70598388Y-167851064D01*
X134190304Y-164709602D02*
X134190534Y-164708391D01*
X105128883Y-166496246D02*
X105129267Y-166496252D01*
X132320062Y-136775677D02*
X132320047Y-136775637D01*
X95919333Y-166479800D02*
X95919731Y-166479795D01*
X116678061Y-64001128D02*
X116659889Y-64028326D01*
X132481163Y-137205903D02*
X132480750Y-137204797D01*
X66715038Y-139452982D02*
X66714820Y-139453636D01*
X66033010Y-165726264D02*
X66041456Y-165756222D01*
X89741901Y-166622205D02*
X89742238Y-166622194D01*
X134254125Y-164357089D02*
X134305772Y-164063580D01*
X69599746Y-167800467D02*
X69621562Y-167802004D01*
X109224068Y-166590996D02*
X109224413Y-166591006D01*
X65095754Y-152851500D02*
X65095767Y-152854482D01*
X112263479Y-166690846D02*
X112265095Y-166690906D01*
X68829193Y-133903485D02*
X68828472Y-133905427D01*
X134379062Y-163646842D02*
X134380912Y-163635902D01*
X124497039Y-167569571D02*
X124500758Y-167569923D01*
X92828204Y-166537630D02*
X92828565Y-166537622D01*
X116530358Y-64327117D02*
X116522930Y-64358973D01*
X65105278Y-153900179D02*
X65105321Y-153903500D01*
X65269625Y-145403049D02*
X65269533Y-145404274D01*
X134890145Y-149826129D02*
X134890104Y-149823195D01*
X134709785Y-145141790D02*
X134709021Y-145132723D01*
X113232826Y-166727859D02*
X113246316Y-166728392D01*
X65514348Y-143391516D02*
X65511643Y-143406929D01*
X128255092Y-167844746D02*
X128275235Y-167845489D01*
X68871657Y-133786902D02*
X68869335Y-133793335D01*
X65560189Y-163270666D02*
X65563323Y-163291646D01*
X93838577Y-166515655D02*
X93838946Y-166515648D01*
X113249997Y-166728539D02*
X113251109Y-166728584D01*
X67275398Y-137863622D02*
X67274672Y-137865602D01*
X106145408Y-166515331D02*
X106145785Y-166515338D01*
X65103561Y-150301412D02*
X65103555Y-150301869D01*
X111246164Y-166654694D02*
X111246501Y-166654705D01*
X134619282Y-161582291D02*
X134650927Y-161137202D01*
X65383517Y-161618568D02*
X65418403Y-162037630D01*
X65436472Y-143868021D02*
X65434746Y-143879596D01*
X92804492Y-166538178D02*
X92806247Y-166538136D01*
X67758970Y-136565295D02*
X67758955Y-136565335D01*
X65179468Y-156962308D02*
X65179469Y-156962339D01*
X85781723Y-166768079D02*
X85782828Y-166768033D01*
X65137409Y-148472554D02*
X65137316Y-148476090D01*
X131234512Y-134072529D02*
X131232450Y-134067142D01*
X68487606Y-134757304D02*
X68487426Y-134757735D01*
X132806163Y-138087127D02*
X132806036Y-138086778D01*
X65805980Y-164689741D02*
X65806204Y-164690957D01*
X130868838Y-167757442D02*
X130872636Y-167756997D01*
X114201661Y-166767380D02*
X114201994Y-166767393D01*
X129941674Y-63729889D02*
X129913896Y-63712615D01*
X65340911Y-144612062D02*
X65340738Y-144613637D01*
X130450363Y-167796466D02*
X130453611Y-167796184D01*
X68261343Y-135290793D02*
X68260263Y-135293347D01*
X134862479Y-148468510D02*
X134862465Y-148467997D01*
X65317179Y-160614741D02*
X65317235Y-160615786D01*
X113227751Y-166727662D02*
X113228075Y-166727674D01*
X65672749Y-164008237D02*
X65663036Y-164009947D01*
X66972071Y-167065895D02*
X66976075Y-167068818D01*
X65434490Y-143881334D02*
X65432802Y-143892928D01*
X134906233Y-151810586D02*
X134904640Y-151307795D01*
X116500000Y-64578181D02*
X116500000Y-132500000D01*
X128299999Y-162500000D02*
X128310266Y-162343368D01*
X134524779Y-143620643D02*
X134524493Y-143618914D01*
X131815203Y-135473122D02*
X131813459Y-135468923D01*
X108205049Y-166563053D02*
X108219412Y-166563427D01*
X89757465Y-166621715D02*
X89757796Y-166621704D01*
X109227570Y-166591095D02*
X109227913Y-166591105D01*
X131174700Y-167720073D02*
X131204183Y-167715970D01*
X132320236Y-136776142D02*
X132320187Y-136776010D01*
X108223338Y-166563532D02*
X108224521Y-166563564D01*
X134901344Y-150799261D02*
X134901321Y-150796448D01*
X65093867Y-152335760D02*
X65093868Y-152336207D01*
X131161076Y-133877045D02*
X131160366Y-133875098D01*
X134835785Y-156437544D02*
X134850856Y-155939181D01*
X119951310Y-167128861D02*
X119953842Y-167129090D01*
X65804491Y-164681620D02*
X65805980Y-164689741D01*
X66951921Y-138763508D02*
X66951747Y-138764002D01*
X121049999Y-122219999D02*
X121077376Y-121802316D01*
X69624819Y-167802223D02*
X70016949Y-167827267D01*
X100995989Y-166451908D02*
X100996449Y-166451909D01*
X132319805Y-136774992D02*
X132319634Y-136774536D01*
X134835536Y-156445915D02*
X134835716Y-156439857D01*
X68188799Y-135463503D02*
X68188543Y-135464115D01*
X65840155Y-142048174D02*
X65839656Y-142049862D01*
X66641438Y-139674563D02*
X66641217Y-139675227D01*
X65164528Y-156448135D02*
X65179464Y-156962166D01*
X116582873Y-64172411D02*
X116570356Y-64202631D01*
X88750057Y-166654820D02*
X88750379Y-166654809D01*
X133610275Y-140412469D02*
X133610182Y-140412201D01*
X129514241Y-63576951D02*
X129481688Y-63573745D01*
X129968871Y-63748061D02*
X129941674Y-63729889D01*
X65869749Y-165022174D02*
X65915334Y-165242079D01*
X65675336Y-163893968D02*
X65675380Y-163894117D01*
X68161116Y-167599347D02*
X68198771Y-167608225D01*
X117418311Y-63573745D02*
X117385758Y-63576951D01*
X134651015Y-161135945D02*
X134651593Y-161127508D01*
X65249013Y-145702613D02*
X65232812Y-145971425D01*
X65289364Y-145152197D02*
X65289256Y-145153554D01*
X66637510Y-139686354D02*
X66568093Y-139894208D01*
X80040762Y-167129581D02*
X80041528Y-167129511D01*
X109243455Y-166591553D02*
X109243797Y-166591563D01*
X94869482Y-166496274D02*
X94870732Y-166496252D01*
X134686311Y-144879620D02*
X134685367Y-144869752D01*
X132723745Y-137861288D02*
X132723627Y-137860969D01*
X134251789Y-164370194D02*
X134252472Y-164366387D01*
X75502960Y-167569571D02*
X75503507Y-167569519D01*
X88730206Y-166655502D02*
X88731282Y-166655464D01*
X96951442Y-166466949D02*
X96951860Y-166466945D01*
X105130517Y-166496274D02*
X105130903Y-166496281D01*
X130689733Y-162343368D02*
X130700000Y-162500000D01*
X91796829Y-166563005D02*
X91798586Y-166562960D01*
X114199643Y-166767296D02*
X114199963Y-166767309D01*
X107177051Y-166537748D02*
X107191821Y-166538090D01*
X89761271Y-166621598D02*
X90752675Y-166591668D01*
X132970615Y-138544414D02*
X132970461Y-138543979D01*
X86767501Y-166727846D02*
X86768558Y-166727804D01*
X126148443Y-167716642D02*
X126156940Y-167717303D01*
X133358850Y-139675431D02*
X133358782Y-139675227D01*
X78178888Y-167306104D02*
X78189895Y-167305026D01*
X68475642Y-134785696D02*
X68475466Y-134786112D01*
X69340889Y-162189417D02*
X69391344Y-162040779D01*
X67032999Y-138534249D02*
X67031950Y-138537189D01*
X105132848Y-166496316D02*
X105133231Y-166496323D01*
X116931128Y-63748061D02*
X116904540Y-63767114D01*
X131128342Y-133786902D02*
X131127641Y-133784952D01*
X65663017Y-164010128D02*
X65674010Y-164008194D01*
X132681844Y-167289426D02*
X132688142Y-167285960D01*
X66641217Y-139675227D02*
X66641149Y-139675431D01*
X130608655Y-162959220D02*
X130539230Y-163100000D01*
X65161430Y-147672738D02*
X65161367Y-147674648D01*
X133690883Y-166419276D02*
X133730429Y-166350557D01*
X133050893Y-138771535D02*
X133050717Y-138771031D01*
X71094193Y-167857116D02*
X71120597Y-167857035D01*
X65511643Y-143406929D02*
X65511245Y-143409230D01*
X65137200Y-148480668D02*
X65127051Y-148898603D01*
X66718368Y-139443028D02*
X66718150Y-139443676D01*
X134596820Y-144101546D02*
X134596581Y-144099842D01*
X65093751Y-151820780D02*
X65093857Y-152329137D01*
X128310266Y-162656631D02*
X128299999Y-162500000D01*
X93833158Y-166515769D02*
X93833529Y-166515761D01*
X131160366Y-133875098D02*
X131131370Y-133795283D01*
X66549852Y-139948235D02*
X66548367Y-139952601D01*
X66976075Y-167068818D02*
X67013631Y-167095946D01*
X67231987Y-167239850D02*
X67263969Y-167258935D01*
X132724601Y-137863622D02*
X132724490Y-137863319D01*
X67964418Y-167548521D02*
X67970583Y-167550261D01*
X87755505Y-166690147D02*
X87756572Y-166690109D01*
X70656631Y-163689733D02*
X70500000Y-163700000D01*
X65215861Y-146291539D02*
X65215823Y-146292328D01*
X134661674Y-144636310D02*
X134660568Y-144625760D01*
X90777403Y-166590955D02*
X91775122Y-166563573D01*
X65338162Y-144637888D02*
X65315895Y-144856949D01*
X65187116Y-146948410D02*
X65187096Y-146948941D01*
X65123001Y-154939733D02*
X65123014Y-154940298D01*
X69547975Y-161769486D02*
X69651471Y-161651471D01*
X110240178Y-166621642D02*
X110240529Y-166621653D01*
X132133354Y-167519448D02*
X132177614Y-167505357D01*
X129913896Y-63712615D02*
X129885568Y-63696260D01*
X134877277Y-154926638D02*
X134886843Y-154426887D01*
X128769486Y-163452024D02*
X128651471Y-163348528D01*
X65095789Y-152858392D02*
X65095808Y-152861364D01*
X68285616Y-167627188D02*
X68291273Y-167628351D01*
X65164467Y-156446046D02*
X65164482Y-156446545D01*
X69547975Y-163230513D02*
X69460769Y-163100000D01*
X65109945Y-149819829D02*
X65109901Y-149822764D01*
X93856184Y-166515299D02*
X93858030Y-166515263D01*
X134482466Y-143373815D02*
X134482045Y-143371513D01*
X134865251Y-155435621D02*
X134865354Y-155431503D01*
X134708270Y-160130115D02*
X134708315Y-160129246D01*
X96956173Y-166466903D02*
X97951195Y-166457817D01*
X67193836Y-138087127D02*
X67192999Y-138089431D01*
X68757563Y-167710299D02*
X68761959Y-167710971D01*
X115176824Y-166809758D02*
X116069421Y-166850916D01*
X133609682Y-140410766D02*
X133609586Y-140410490D01*
X68473158Y-167664252D02*
X68478181Y-167665175D01*
X97956166Y-166457775D02*
X97957601Y-166457763D01*
X119918194Y-167125895D02*
X119918968Y-167125964D01*
X134707998Y-145120965D02*
X134687498Y-144892432D01*
X65270248Y-145394889D02*
X65269625Y-145403049D01*
X65851393Y-142010879D02*
X65847947Y-142022171D01*
X128278241Y-167845590D02*
X128298380Y-167846212D01*
X134010399Y-165561971D02*
X134016479Y-165538042D01*
X65098678Y-150796448D02*
X65098655Y-150799261D01*
X65127051Y-148898603D02*
X65127039Y-148899097D01*
X133085118Y-167023276D02*
X133089060Y-167020278D01*
X131844498Y-167597989D02*
X131934172Y-167575749D01*
X121711269Y-120271963D02*
X121987258Y-119957258D01*
X126912368Y-167773992D02*
X126914089Y-167774107D01*
X107193384Y-166538127D02*
X107193752Y-166538136D01*
X134732496Y-159599602D02*
X134732525Y-159598895D01*
X132736030Y-167258935D02*
X132768012Y-167239850D01*
X67909919Y-136163432D02*
X67909672Y-136164088D01*
X99985218Y-166450025D02*
X99987628Y-166450023D01*
X131813203Y-135468307D02*
X131811456Y-135464115D01*
X75503507Y-167569519D02*
X75507226Y-167569162D01*
X127422623Y-122637683D02*
X127340962Y-123048220D01*
X66138009Y-141133711D02*
X66065973Y-141344756D01*
X65134888Y-155440982D02*
X65135002Y-155445126D01*
X108220913Y-166563467D02*
X108221268Y-166563476D01*
X105134886Y-166496354D02*
X106139986Y-166515225D01*
X66874087Y-138986539D02*
X66872836Y-138990136D01*
X91800428Y-166562914D02*
X92802565Y-166538225D01*
X66468177Y-140186741D02*
X66467978Y-140187317D01*
X134014300Y-141585751D02*
X134011752Y-141577971D01*
X68404564Y-134953434D02*
X68404371Y-134953889D01*
X134850948Y-155936062D02*
X134850953Y-155935913D01*
X112265095Y-166690906D02*
X112265421Y-166690918D01*
X131304683Y-134252085D02*
X131304160Y-134250765D01*
X71100000Y-163539230D02*
X70959220Y-163608655D01*
X116853303Y-63807778D02*
X116828710Y-63829346D01*
X66720045Y-139438048D02*
X66719826Y-139438697D01*
X132911561Y-167148072D02*
X132944243Y-167125623D01*
X131309572Y-134264371D02*
X131306942Y-134257774D01*
X67276254Y-137861288D02*
X67275509Y-137863319D01*
X65620937Y-163646842D02*
X65621216Y-163648475D01*
X68688152Y-134270059D02*
X68687623Y-134271377D01*
X83868571Y-166854007D02*
X83869649Y-166853953D01*
X131513162Y-134759135D02*
X131512573Y-134757735D01*
X121293585Y-123444586D02*
X121159037Y-123048220D01*
X132966841Y-138533803D02*
X132889611Y-138317954D01*
X68690427Y-134264371D02*
X68689899Y-134265694D01*
X133610573Y-140413325D02*
X133610275Y-140412469D01*
X65975855Y-165506914D02*
X65976723Y-165510497D01*
X74672037Y-167646533D02*
X75494456Y-167570372D01*
X76370440Y-167485356D02*
X76372161Y-167485187D01*
X133522879Y-140160807D02*
X133522681Y-140160232D01*
X69310266Y-162656631D02*
X69299999Y-162500000D01*
X134906246Y-151817505D02*
X134906245Y-151817111D01*
X97978391Y-166457611D02*
X97980579Y-166457597D01*
X132088422Y-136159052D02*
X132088176Y-136158404D01*
X67836381Y-136359302D02*
X67836363Y-136359352D01*
X117024328Y-166902937D02*
X117025929Y-166903034D01*
X65339431Y-144625760D02*
X65338325Y-144636310D01*
X132399278Y-136986903D02*
X132320236Y-136776142D01*
X66716698Y-139448008D02*
X66716484Y-139448647D01*
X134440267Y-163267536D02*
X134443269Y-163246534D01*
X131242436Y-167710299D02*
X131444371Y-167678526D01*
X131358231Y-134385423D02*
X131357820Y-134384410D01*
X67357873Y-137639408D02*
X67357774Y-137639675D01*
X65567067Y-163315734D02*
X65567565Y-163318859D01*
X67520194Y-137202264D02*
X67519771Y-137203397D01*
X134008421Y-141567888D02*
X133941212Y-141366071D01*
X88752069Y-166654752D02*
X88752403Y-166654741D01*
X134904247Y-152851058D02*
X134906121Y-152339540D01*
X128275235Y-167845489D02*
X128278241Y-167845590D01*
X65200958Y-146612627D02*
X65200773Y-146616969D01*
X66467978Y-140187317D02*
X66467322Y-140189218D01*
X112243106Y-166690097D02*
X112243427Y-166690109D01*
X134862576Y-148472035D02*
X134862479Y-148468510D01*
X65804273Y-164680419D02*
X65804491Y-164681620D01*
X66059085Y-141365178D02*
X66058787Y-141366071D01*
X65105328Y-153903985D02*
X65105374Y-153907292D01*
X67366812Y-167315690D02*
X67399269Y-167332650D01*
X104103347Y-166480125D02*
X105107050Y-166495874D01*
X108201073Y-166562952D02*
X108201413Y-166562960D01*
X65475220Y-143620643D02*
X65473331Y-143632198D01*
X67518836Y-137205903D02*
X67518784Y-137206044D01*
X117116473Y-166908654D02*
X117972397Y-166966537D01*
X98975851Y-166452008D02*
X98977365Y-166452002D01*
X134814874Y-156962174D02*
X134821406Y-156932212D01*
X116781706Y-63874836D02*
X116759346Y-63898710D01*
X130784764Y-167766319D02*
X130810276Y-167763823D01*
X131436359Y-134575662D02*
X131436064Y-134574952D01*
X134190534Y-164708391D02*
X134192062Y-164700278D01*
X93858030Y-166515263D02*
X93858399Y-166515256D01*
X118046156Y-166971859D02*
X118047458Y-166971955D01*
X69621562Y-167802004D02*
X69624819Y-167802223D01*
X114218609Y-166768094D02*
X114220262Y-166768164D01*
X66949106Y-138771535D02*
X66874277Y-138985993D01*
X65473053Y-143633923D02*
X65471204Y-143645484D01*
X99982665Y-166450029D02*
X99983150Y-166450028D01*
X134283419Y-142483616D02*
X134282845Y-142481445D01*
X92806615Y-166538127D02*
X92807824Y-166538099D01*
X66063663Y-141351564D02*
X66063364Y-141352448D01*
X131742215Y-135299228D02*
X131741140Y-135296676D01*
X131355758Y-134379311D02*
X131355347Y-134378293D01*
X68261505Y-135290410D02*
X68261343Y-135290793D01*
X69310266Y-162343368D02*
X69340889Y-162189417D01*
X130839563Y-167760745D02*
X130843367Y-167760329D01*
X87756893Y-166690097D02*
X88729878Y-166655513D01*
X133787444Y-166236517D02*
X133794286Y-166221930D01*
X90773519Y-166591064D02*
X90773859Y-166591055D01*
X80088951Y-167125264D02*
X80089723Y-167125196D01*
X122733078Y-167396909D02*
X122733123Y-167396455D01*
X131235138Y-134074161D02*
X131234512Y-134072529D01*
X131238278Y-134082323D02*
X131235138Y-134074161D01*
X67917050Y-167534778D02*
X67923193Y-167536598D01*
X66390413Y-140410490D02*
X66390317Y-140410766D01*
X65291094Y-145131371D02*
X65290978Y-145132723D01*
X66869967Y-138998432D02*
X66869772Y-138998998D01*
X69460769Y-163100000D02*
X69391344Y-162959220D01*
X134152052Y-142022171D02*
X134148606Y-142010879D01*
X65173878Y-147305652D02*
X65161513Y-147670259D01*
X65403179Y-144101546D02*
X65401597Y-144112965D01*
X134798793Y-146606967D02*
X134798597Y-146602624D01*
X66384413Y-140427689D02*
X66384315Y-140427968D01*
X84824918Y-166809678D02*
X84826591Y-166809602D01*
X133521501Y-140156797D02*
X133520851Y-140154901D01*
X134652932Y-161106841D02*
X134681384Y-160640036D01*
X133615111Y-140426329D02*
X133615015Y-140426055D01*
X103073632Y-166467224D02*
X103074046Y-166467230D01*
X134156476Y-142036851D02*
X134155970Y-142035162D01*
X134330915Y-142668159D02*
X134287799Y-142500372D01*
X66196080Y-166200358D02*
X66199155Y-166207341D01*
X65194739Y-157488259D02*
X65194745Y-157488451D01*
X129408177Y-63570267D02*
X129391818Y-63570000D01*
X70546353Y-167849838D02*
X70570556Y-167850496D01*
X67771787Y-167488523D02*
X67815794Y-167503208D01*
X128547975Y-161769486D02*
X128651471Y-161651471D01*
X67112560Y-138311906D02*
X67111612Y-138314541D01*
X65511575Y-162914981D02*
X65513844Y-162932284D01*
X70514923Y-167848756D02*
X70518535Y-167848893D01*
X69899999Y-161460769D02*
X70040779Y-161391344D01*
X65990521Y-165565541D02*
X66022399Y-165687239D01*
X134252572Y-164365832D02*
X134253250Y-164362027D01*
X65093861Y-152332443D02*
X65093862Y-152332911D01*
X65656718Y-163857214D02*
X65659680Y-163872180D01*
X79107321Y-167216145D02*
X79107842Y-167216095D01*
X131988085Y-167561643D02*
X132029416Y-167550261D01*
X65369555Y-144362572D02*
X65368213Y-144373645D01*
X65105321Y-153903500D02*
X65105328Y-153903985D01*
X133857679Y-166066768D02*
X133873074Y-166024845D01*
X117114874Y-166908548D02*
X117116473Y-166908654D01*
X134749309Y-145676657D02*
X134731826Y-145423038D01*
X116501605Y-64520952D02*
X116500267Y-64561822D01*
X112266537Y-166690961D02*
X112266867Y-166690973D01*
X66953072Y-138760242D02*
X66951921Y-138763508D01*
X134882294Y-149356228D02*
X134882286Y-149355786D01*
X127631511Y-167817904D02*
X127633808Y-167818018D01*
X67837202Y-136357116D02*
X67837183Y-136357109D01*
X131167715Y-133895133D02*
X131164138Y-133885413D01*
X91796475Y-166563014D02*
X91796829Y-166563005D01*
X121805900Y-167304616D02*
X121806165Y-167304642D01*
X134581443Y-162039424D02*
X134581596Y-162037630D01*
X116141436Y-166854529D02*
X116142513Y-166854587D01*
X134340105Y-142705006D02*
X134336152Y-142688965D01*
X127206414Y-120995413D02*
X127340962Y-121391779D01*
X132234776Y-167486282D02*
X132278625Y-167470971D01*
X83857486Y-166854587D02*
X83858563Y-166854529D01*
X134579148Y-162065299D02*
X134580237Y-162053266D01*
X131130664Y-133793335D02*
X131128342Y-133786902D01*
X68835861Y-133885413D02*
X68832284Y-133895133D01*
X134906234Y-151811006D02*
X134906233Y-151810586D01*
X102023500Y-166457624D02*
X102023938Y-166457627D01*
X65098655Y-150799261D02*
X65098652Y-150799669D01*
X69549636Y-167796466D02*
X69571434Y-167798288D01*
X92824495Y-166537712D02*
X92824847Y-166537704D01*
X129397999Y-167851123D02*
X129401611Y-167851064D01*
X128651471Y-161651471D02*
X128769486Y-161547975D01*
X134767607Y-145978604D02*
X134767243Y-145972363D01*
X134578982Y-162067099D02*
X134579148Y-162065299D01*
X65187411Y-146940973D02*
X65187273Y-146944416D01*
X116904540Y-63767114D02*
X116878588Y-63787027D01*
X82021991Y-166966923D02*
X82026296Y-166966626D01*
X68723149Y-134181575D02*
X68722631Y-134182899D01*
X130378437Y-167802004D02*
X130400253Y-167800467D01*
X128460769Y-161899999D02*
X128547975Y-161769486D01*
X68247765Y-167619182D02*
X68285616Y-167627188D01*
X93836996Y-166515688D02*
X93837372Y-166515680D01*
X109241998Y-166591511D02*
X109242343Y-166591521D01*
X103069326Y-166467174D02*
X103069751Y-166467179D01*
X134890104Y-149823195D02*
X134890098Y-149822764D01*
X133609187Y-140409345D02*
X133534915Y-140195677D01*
X67357774Y-137639675D02*
X67357152Y-137641358D01*
X67977672Y-135985985D02*
X67974396Y-135994496D01*
X65866726Y-165007312D02*
X65869352Y-165020240D01*
X126127662Y-167714946D02*
X126128934Y-167715053D01*
X70810582Y-161340889D02*
X70959220Y-161391344D01*
X93833529Y-166515761D02*
X93834746Y-166515735D01*
X98997254Y-166451927D02*
X98998776Y-166451922D01*
X85778285Y-166768227D02*
X85779404Y-166768179D01*
X106166470Y-166515761D02*
X106166841Y-166515769D01*
X65137302Y-148476629D02*
X65137213Y-148480143D01*
X134133273Y-165007312D02*
X134133662Y-165005381D01*
X134886926Y-154422290D02*
X134886986Y-154418773D01*
X82026296Y-166966626D02*
X82027602Y-166966537D01*
X66174790Y-166150482D02*
X66180264Y-166163689D01*
X134659088Y-144612062D02*
X134657915Y-144601519D01*
X133323037Y-166832372D02*
X133327768Y-166828368D01*
X65663036Y-164009947D02*
X65663017Y-164010128D01*
X71348528Y-163348528D02*
X71230513Y-163452024D01*
X122732515Y-167396395D02*
X122733071Y-167396450D01*
X134251687Y-164370757D02*
X134251789Y-164370194D01*
X68868629Y-133795283D02*
X68839633Y-133875098D01*
X131099124Y-133704516D02*
X131098336Y-133702263D01*
X130539230Y-163100000D02*
X130452024Y-163230513D01*
X73099194Y-167773203D02*
X73100919Y-167773082D01*
X134009478Y-165565541D02*
X134010399Y-165561971D01*
X66061367Y-141358371D02*
X66061068Y-141359260D01*
X133433164Y-139897965D02*
X133432197Y-139895079D01*
X125328843Y-167646614D02*
X125334765Y-167647152D01*
X65127039Y-148899097D02*
X65126964Y-148902341D01*
X106143815Y-166515299D02*
X106144186Y-166515306D01*
X103049931Y-166466964D02*
X103050349Y-166466968D01*
X107175152Y-166537704D02*
X107175504Y-166537712D01*
X134017584Y-141595857D02*
X134017205Y-141594686D01*
X65399594Y-144127807D02*
X65398092Y-144139234D01*
X132241029Y-136565295D02*
X132241001Y-136565221D01*
X133696492Y-140658709D02*
X133696468Y-140658642D01*
X131170296Y-167720666D02*
X131174700Y-167720073D01*
X119907734Y-167124975D02*
X119910276Y-167125196D01*
X83853928Y-166854778D02*
X83857486Y-166854587D01*
X133358501Y-139674384D02*
X133358169Y-139673386D01*
X66780954Y-166918424D02*
X66783975Y-166920851D01*
X128324541Y-167846862D02*
X128845097Y-167856660D01*
X80988905Y-167047468D02*
X80994054Y-167047034D01*
X65983520Y-165538042D02*
X65989600Y-165561971D01*
X68876549Y-133773258D02*
X68875853Y-133775206D01*
X117985832Y-166967472D02*
X117987135Y-166967564D01*
X65122903Y-154935374D02*
X65122915Y-154935929D01*
X68644241Y-134379311D02*
X68642179Y-134384410D01*
X68759011Y-134089337D02*
X68758379Y-134090967D01*
X91800068Y-166562923D02*
X91800428Y-166562914D01*
X134482045Y-143371513D02*
X134479196Y-143356122D01*
X81047141Y-167042665D02*
X81052276Y-167042253D01*
X68408619Y-134943881D02*
X68408439Y-134944306D01*
X73872337Y-167714946D02*
X74650743Y-167648429D01*
X73871065Y-167715053D02*
X73872337Y-167714946D01*
X95902894Y-166480032D02*
X95919333Y-166479800D01*
X120868144Y-167213821D02*
X120868658Y-167213869D01*
X128849039Y-167856719D02*
X128875456Y-167857008D01*
X88731282Y-166655464D02*
X88731611Y-166655452D01*
X127206414Y-123444586D02*
X127021281Y-123820000D01*
X130021410Y-63787027D02*
X129995460Y-63767115D01*
X70019712Y-167827436D02*
X70038218Y-167828515D01*
X134080326Y-141790595D02*
X134079866Y-141789160D01*
X69574687Y-167798549D02*
X69596488Y-167800227D01*
X125327962Y-167646533D02*
X125328843Y-167646614D01*
X123631852Y-167485580D02*
X124492233Y-167569109D01*
X106140358Y-166515232D02*
X106141600Y-166515256D01*
X104078538Y-166479771D02*
X104078939Y-166479776D01*
X128936168Y-167856985D02*
X128940112Y-167856950D01*
X91778731Y-166563476D02*
X91779086Y-166563467D01*
X65915334Y-165242079D02*
X65915908Y-165244809D01*
X65110006Y-149816030D02*
X65109998Y-149816467D01*
X133934026Y-141344756D02*
X133861990Y-141133711D01*
X86772248Y-166727662D02*
X87733132Y-166690973D01*
X102042398Y-166457763D02*
X102043833Y-166457775D01*
X118958321Y-167043109D02*
X119000487Y-167046579D01*
X134812726Y-146944416D02*
X134812588Y-146940973D01*
X98999246Y-166451920D02*
X99001559Y-166451914D01*
X76370152Y-167485384D02*
X76370440Y-167485356D01*
X65231592Y-145992960D02*
X65231543Y-145993884D01*
X117025929Y-166903034D02*
X117091518Y-166907047D01*
X68878843Y-133766819D02*
X68876549Y-133773258D01*
X65465562Y-162518750D02*
X65465805Y-162520901D01*
X132811876Y-167212923D02*
X132817551Y-167209380D01*
X112248254Y-166690284D02*
X112261712Y-166690780D01*
X132807137Y-138089810D02*
X132807000Y-138089431D01*
X101022175Y-166452000D02*
X101022634Y-166452002D01*
X134534437Y-162518750D02*
X134536033Y-162504363D01*
X132644391Y-137645546D02*
X132644308Y-137645320D01*
X82012864Y-166967564D02*
X82014167Y-166967472D01*
X130140653Y-63898710D02*
X130118293Y-63874836D01*
X134877266Y-154927211D02*
X134877277Y-154926638D01*
X97957601Y-166457763D02*
X97958043Y-166457760D01*
X118047458Y-166971955D02*
X118051748Y-166972273D01*
X86770498Y-166727729D02*
X86770837Y-166727716D01*
X134890151Y-149826571D02*
X134890145Y-149826129D01*
X115176491Y-166809743D02*
X115176824Y-166809758D01*
X134772032Y-158552468D02*
X134772126Y-158549745D01*
X65164482Y-156446545D02*
X65164487Y-156446716D01*
X131199344Y-133980029D02*
X131197317Y-133974621D01*
X132163636Y-136359352D02*
X132163618Y-136359302D01*
X67706284Y-167465517D02*
X67714843Y-167468639D01*
X72401463Y-167816109D02*
X72403750Y-167815974D01*
X79129114Y-167214079D02*
X79129635Y-167214030D01*
X134581596Y-162037630D02*
X134616482Y-161618568D01*
X67357152Y-137641358D02*
X67357043Y-137641653D01*
X66219794Y-140897916D02*
X66219690Y-140898215D01*
X68115492Y-135640787D02*
X68113159Y-135646516D01*
X68550589Y-167677707D02*
X68555628Y-167678526D01*
X110242203Y-166621704D02*
X110242534Y-166621715D01*
X65105381Y-153907793D02*
X65112940Y-154414196D01*
X68407806Y-134945797D02*
X68407745Y-134945941D01*
X108222993Y-166563522D02*
X108223338Y-166563532D01*
X129810582Y-163659110D02*
X129656631Y-163689733D01*
X65161503Y-147670547D02*
X65161440Y-147672436D01*
X131809184Y-135458686D02*
X131742380Y-135299621D01*
X65509064Y-162895085D02*
X65511243Y-162912397D01*
X134526668Y-143632198D02*
X134524779Y-143620643D01*
X132725327Y-137865602D02*
X132724601Y-137863622D01*
X126887514Y-167772253D02*
X126899080Y-167773082D01*
X71452024Y-161769486D02*
X71539230Y-161899999D01*
X65419762Y-162053266D02*
X65420851Y-162065299D01*
X65095811Y-152861834D02*
X65099519Y-153374071D01*
X65313549Y-144881093D02*
X65312634Y-144890965D01*
X65786612Y-142230518D02*
X65782863Y-142243477D01*
X65318551Y-160638980D02*
X65318615Y-160640036D01*
X134086848Y-141811152D02*
X134083829Y-141801585D01*
X102044273Y-166457778D02*
X102046475Y-166457796D01*
X65268173Y-145423038D02*
X65250690Y-145676657D01*
X104101223Y-166480092D02*
X104101627Y-166480098D01*
X65267972Y-159610373D02*
X65290706Y-160109257D01*
X67837107Y-136357371D02*
X67836450Y-136359121D01*
X133361765Y-139684184D02*
X133361565Y-139683583D01*
X70038218Y-167828515D02*
X70040983Y-167828669D01*
X71120597Y-167857035D02*
X71124543Y-167857008D01*
X133208395Y-139226475D02*
X133208190Y-139225870D01*
X121807015Y-167304725D02*
X121807282Y-167304751D01*
X132968049Y-138537189D02*
X132967000Y-138534249D01*
X68049561Y-135803598D02*
X68049130Y-135804675D01*
X133477180Y-166691309D02*
X133543662Y-166619680D01*
X134383001Y-163623317D02*
X134383268Y-163621690D01*
X108219759Y-166563436D02*
X108220913Y-166563467D01*
X134600405Y-144127807D02*
X134600177Y-144126093D01*
X134536033Y-162504363D02*
X134536267Y-162502206D01*
X132092229Y-136169134D02*
X132091981Y-136168474D01*
X80081031Y-167125964D02*
X80081805Y-167125895D01*
X131437631Y-134578728D02*
X131437332Y-134578009D01*
X131274629Y-134175883D02*
X131241620Y-134090967D01*
X133362148Y-139685331D02*
X133361827Y-139684370D01*
X83929501Y-166850966D02*
X83930578Y-166850916D01*
X132320047Y-136775637D02*
X132319827Y-136775052D01*
X128909749Y-167857112D02*
X128936168Y-167856985D01*
X65989600Y-165561971D02*
X65990521Y-165565541D01*
X134336152Y-142688965D02*
X134335556Y-142686574D01*
X65381688Y-161595393D02*
X65382466Y-161605475D01*
X129959016Y-167828669D02*
X129961781Y-167828515D01*
X71659110Y-162189417D02*
X71689733Y-162343368D01*
X104074404Y-166479717D02*
X104074804Y-166479722D01*
X88752403Y-166654741D02*
X88753498Y-166654705D01*
X71063831Y-167856985D02*
X71090250Y-167857112D01*
X68945754Y-133592595D02*
X68931335Y-133616083D01*
X134783567Y-146280208D02*
X134783525Y-146279412D01*
X121808971Y-167304915D02*
X121809846Y-167305001D01*
X114198585Y-166767252D02*
X114199643Y-166767296D01*
X114198249Y-166767239D02*
X114198585Y-166767252D01*
X67699461Y-167462971D02*
X67706284Y-167465517D01*
X99988117Y-166450022D02*
X99989679Y-166450022D01*
X66478302Y-140157367D02*
X66477318Y-140160232D01*
X66941385Y-167043233D02*
X66945358Y-167046194D01*
X65164219Y-156437690D02*
X65164234Y-156438208D01*
X134825907Y-147299551D02*
X134825894Y-147299173D01*
X65463732Y-162502206D02*
X65463966Y-162504363D01*
X134753441Y-159075245D02*
X134753461Y-159074691D01*
X77266679Y-167396230D02*
X77267920Y-167396352D01*
X67680172Y-136775052D02*
X67679952Y-136775637D01*
X66945358Y-167046194D02*
X66972071Y-167065895D01*
X68259027Y-135296276D02*
X68258859Y-135296676D01*
X67013631Y-167095946D02*
X67018454Y-167099387D01*
X132319634Y-136774536D02*
X132319633Y-136774535D01*
X126198036Y-119681269D02*
X126512741Y-119957258D01*
X128340889Y-162189417D02*
X128391344Y-162040779D01*
X134732295Y-159604296D02*
X134732496Y-159599602D01*
X134882151Y-149348745D02*
X134873210Y-148910315D01*
X132986368Y-167095946D02*
X133023924Y-167068818D01*
X67446659Y-167355918D02*
X67453323Y-167359095D01*
X132456688Y-167400448D02*
X132495221Y-167383109D01*
X80089723Y-167125196D02*
X80092265Y-167124975D01*
X71744907Y-167844746D02*
X71747911Y-167844626D01*
X134278965Y-142466891D02*
X134278382Y-142464720D01*
X134864997Y-155445126D02*
X134865111Y-155440982D01*
X131522688Y-134781745D02*
X131522507Y-134781316D01*
X85800356Y-166767296D02*
X85801414Y-166767252D01*
X129425826Y-167850581D02*
X129429443Y-167850496D01*
X134305772Y-164063580D02*
X134320916Y-163957636D01*
X134652317Y-161116543D02*
X134652854Y-161108099D01*
X65602656Y-142949809D02*
X65602093Y-142952410D01*
X132352910Y-167442940D02*
X132398177Y-167424915D01*
X134024144Y-165506914D02*
X134029872Y-165482895D01*
X110257761Y-166622194D02*
X110258098Y-166622205D01*
X132162737Y-136356911D02*
X132162742Y-136356780D01*
X134631786Y-144373645D02*
X134630444Y-144362572D01*
X94866768Y-166496323D02*
X94867151Y-166496316D01*
X133203735Y-139212806D02*
X133203525Y-139212194D01*
X66022399Y-165687239D02*
X66023598Y-165691732D01*
X104098820Y-166480056D02*
X104099223Y-166480062D01*
X68474695Y-134787934D02*
X68408678Y-134943741D01*
X66023598Y-165691732D02*
X66031769Y-165721782D01*
X68620858Y-134436797D02*
X68618777Y-134441880D01*
X65246538Y-159074691D02*
X65246558Y-159075245D01*
X131592193Y-134945797D02*
X131591966Y-134945263D01*
X65105232Y-153896384D02*
X65105272Y-153899678D01*
X116086219Y-166851727D02*
X116130350Y-166853953D01*
X73862583Y-167715756D02*
X73871065Y-167715053D01*
X114220595Y-166768179D02*
X114221714Y-166768227D01*
X133614599Y-140424861D02*
X133610671Y-140413604D01*
X130689733Y-162656631D02*
X130659110Y-162810582D01*
X82974070Y-166903034D02*
X82975671Y-166902937D01*
X118051748Y-166972273D02*
X118053050Y-166972370D01*
X130452024Y-163230513D02*
X130348528Y-163348528D01*
X134221936Y-142260324D02*
X134221388Y-142258387D01*
X120892678Y-167216145D02*
X120894401Y-167216309D01*
X65270342Y-145393669D02*
X65270248Y-145394889D01*
X71090250Y-167857112D02*
X71094193Y-167857116D01*
X97981013Y-166457594D02*
X97982472Y-166457585D01*
X65179464Y-156962166D02*
X65179464Y-156962177D01*
X81940424Y-166972863D02*
X81946949Y-166972370D01*
X65317620Y-160622831D02*
X65317678Y-160623870D01*
X65117651Y-149359282D02*
X65117644Y-149359735D01*
X133836982Y-166120885D02*
X133839404Y-166114676D01*
X71608655Y-162959220D02*
X71539230Y-163100000D01*
X65563323Y-163291646D02*
X65563800Y-163294773D01*
X132639533Y-167312316D02*
X132681844Y-167289426D01*
X102017527Y-166457585D02*
X102018986Y-166457594D01*
X95901179Y-166480056D02*
X95902493Y-166480037D01*
X65726157Y-142448014D02*
X65725563Y-142450183D01*
X120900253Y-167216871D02*
X121805900Y-167304616D01*
X131379141Y-134436797D02*
X131378725Y-134435780D01*
X68879537Y-133764867D02*
X68878843Y-133766819D01*
X132726294Y-137868248D02*
X132726176Y-137867925D01*
X67985770Y-135965200D02*
X67985272Y-135966467D01*
X92828565Y-166537622D02*
X93833158Y-166515769D01*
X68761959Y-167710971D02*
X68791418Y-167715338D01*
X130348528Y-161651471D02*
X130452024Y-161769486D01*
X67311857Y-167285960D02*
X67318155Y-167289426D01*
X134537801Y-162487814D02*
X134538025Y-162485667D01*
X117109593Y-166908199D02*
X117114874Y-166908548D01*
X68796958Y-133989848D02*
X68796341Y-133991482D01*
X67599708Y-136989609D02*
X67599653Y-136989755D01*
X69299999Y-162500000D02*
X69310266Y-162343368D01*
X69596488Y-167800227D02*
X69599746Y-167800467D01*
X66058787Y-141366071D02*
X65991578Y-141567888D01*
X85783152Y-166768019D02*
X85796591Y-166767453D01*
X65436734Y-143866285D02*
X65436472Y-143868021D01*
X65164507Y-156447426D02*
X65164512Y-156447591D01*
X68900875Y-133704516D02*
X68898266Y-133711942D01*
X134865111Y-155440982D02*
X134865127Y-155440381D01*
X120870885Y-167214079D02*
X120892157Y-167216095D01*
X66874277Y-138985993D02*
X66874087Y-138986539D01*
X131450129Y-134608792D02*
X131449832Y-134608077D01*
X134488356Y-143406929D02*
X134485651Y-143391516D01*
X116642615Y-64056103D02*
X116626260Y-64084431D01*
X65684167Y-164006407D02*
X65745877Y-164357103D01*
X87753494Y-166690220D02*
X87755164Y-166690159D01*
X134901347Y-150799669D02*
X134901344Y-150799261D01*
X106139986Y-166515225D02*
X106140358Y-166515232D01*
X133450147Y-139948235D02*
X133449852Y-139947366D01*
X116075123Y-166851185D02*
X116080512Y-166851445D01*
X67018454Y-167099387D02*
X67050895Y-167122241D01*
X134838712Y-147677137D02*
X134838702Y-147676828D01*
X66807296Y-166939421D02*
X66880705Y-166997009D01*
X134338894Y-163872432D02*
X134337067Y-163862654D01*
X116828710Y-63829346D02*
X116804836Y-63851706D01*
X95896652Y-166480125D02*
X95897047Y-166480118D01*
X65103523Y-150304674D02*
X65103518Y-150305121D01*
X65671406Y-163931407D02*
X65676100Y-163955115D01*
X65567565Y-163318859D02*
X65616731Y-163621690D01*
X133195739Y-166937020D02*
X133216024Y-166920851D01*
X123627838Y-167485187D02*
X123629559Y-167485356D01*
X65135018Y-155445727D02*
X65149000Y-155934309D01*
X65674010Y-164008194D02*
X65672749Y-164008237D01*
X68333212Y-135121251D02*
X68333168Y-135121355D01*
X66219690Y-140898215D02*
X66143004Y-141119199D01*
X133363966Y-166797294D02*
X133375282Y-166787350D01*
X97953524Y-166457796D02*
X97955726Y-166457778D01*
X65161287Y-147677137D02*
X65149180Y-148059906D01*
X131947561Y-135796449D02*
X131947127Y-135795374D01*
X129797588Y-63652873D02*
X129767368Y-63640356D01*
X65215531Y-146298410D02*
X65201432Y-146601961D01*
X94865503Y-166496347D02*
X94866768Y-166496323D01*
X67437965Y-137423116D02*
X67437448Y-137424512D01*
X134805314Y-157486404D02*
X134805322Y-157486137D01*
X80045386Y-167129160D02*
X80046157Y-167129090D01*
X68695316Y-134252085D02*
X68693583Y-134256450D01*
X116717027Y-63948588D02*
X116697114Y-63974540D01*
X68800655Y-133980029D02*
X68800040Y-133981667D01*
X90757656Y-166591521D02*
X90758001Y-166591511D01*
X68545510Y-134619231D02*
X68487606Y-134757304D01*
X65506656Y-162875173D02*
X65508745Y-162892499D01*
X133239197Y-166902105D02*
X133242197Y-166899656D01*
X65920390Y-165265806D02*
X65924385Y-165284053D01*
X131879109Y-135627629D02*
X131878759Y-135626780D01*
X67439235Y-137419699D02*
X67439166Y-137419883D01*
X67438626Y-137421335D02*
X67438564Y-137421503D01*
X66142320Y-166066768D02*
X66144660Y-166073009D01*
X69340889Y-162810582D02*
X69310266Y-162656631D01*
X133125722Y-138985993D02*
X133050893Y-138771535D01*
X65109952Y-149819372D02*
X65109945Y-149819829D01*
X128391344Y-162959220D02*
X128340889Y-162810582D01*
X134253351Y-164361461D02*
X134254021Y-164357674D01*
X134753615Y-159070482D02*
X134772018Y-158552862D01*
X70080777Y-167830658D02*
X70083539Y-167830781D01*
X97977947Y-166457614D02*
X97978391Y-166457611D01*
X84824591Y-166809693D02*
X84824918Y-166809678D01*
X130547766Y-133111778D02*
X130399999Y-132588617D01*
X67836266Y-136359609D02*
X67836259Y-136359607D01*
X134798567Y-146601961D02*
X134784468Y-146298410D01*
X131170806Y-133903485D02*
X131168433Y-133897078D01*
X130273739Y-64084431D02*
X130257384Y-64056103D01*
X65684136Y-164006233D02*
X65674003Y-164008017D01*
X133023924Y-167068818D02*
X133027928Y-167065895D01*
X134225580Y-142273312D02*
X134221936Y-142260324D01*
X119004917Y-167046947D02*
X119005945Y-167047034D01*
X134628861Y-144349843D02*
X134628653Y-144348197D01*
X125474586Y-119263585D02*
X125850000Y-119448718D01*
X134904640Y-151307795D02*
X134904638Y-151307361D01*
X132644308Y-137645320D02*
X132643670Y-137643590D01*
X67182448Y-167209380D02*
X67188123Y-167212923D01*
X125348373Y-167648352D02*
X125349256Y-167648429D01*
X132688142Y-167285960D02*
X132724014Y-167265882D01*
X68863648Y-167725063D02*
X69127363Y-167756997D01*
X134580237Y-162053266D02*
X134580397Y-162051469D01*
X65095361Y-151307361D02*
X65095359Y-151307795D01*
X90756544Y-166591553D02*
X90757656Y-166591521D01*
X119910276Y-167125196D02*
X119911048Y-167125264D01*
X66367170Y-166507424D02*
X66389649Y-166538065D01*
X67356329Y-137643590D02*
X67355691Y-137645320D01*
X98973097Y-166452021D02*
X98975384Y-166452010D01*
X119015506Y-167047844D02*
X119016534Y-167047933D01*
X121987258Y-119957258D02*
X122301963Y-119681269D01*
X65470931Y-143647210D02*
X65438770Y-143852974D01*
X81052276Y-167042253D02*
X81053303Y-167042171D01*
X67837293Y-136356793D02*
X67837271Y-136356914D01*
X131127641Y-133784952D02*
X131124146Y-133775206D01*
X65290706Y-160109257D02*
X65290746Y-160110117D01*
X68908947Y-133681301D02*
X68906374Y-133688740D01*
X79105598Y-167216309D02*
X79107321Y-167216145D01*
X68791418Y-167715338D02*
X68795816Y-167715970D01*
X68477311Y-134781745D02*
X68476711Y-134783166D01*
X117019046Y-166902623D02*
X117024328Y-166902937D01*
X129485076Y-167848756D02*
X129916460Y-167830781D01*
X134900450Y-153377683D02*
X134900476Y-153374554D01*
X68545809Y-134618516D02*
X68545510Y-134619231D01*
X134889993Y-149816030D02*
X134882355Y-149359735D01*
X128905806Y-167857116D02*
X128909749Y-167857112D01*
X69219044Y-167766677D02*
X69546388Y-167796184D01*
X67439166Y-137419883D02*
X67438626Y-137421335D01*
X130118293Y-63874836D02*
X130095163Y-63851706D01*
X66303398Y-140659021D02*
X66303398Y-140659021D01*
X133610671Y-140413604D02*
X133610573Y-140413325D01*
X65194769Y-157489274D02*
X65194776Y-157489479D01*
X65098711Y-150792824D02*
X65098707Y-150793241D01*
X101027365Y-166452023D02*
X101028893Y-166452031D01*
X130182972Y-63948588D02*
X130162221Y-63923303D01*
X134193795Y-164690957D02*
X134194019Y-164689741D01*
X131449410Y-167677707D02*
X131483140Y-167672046D01*
X131282205Y-134195218D02*
X131280482Y-134190842D01*
X83863937Y-166854247D02*
X83865012Y-166854191D01*
X68566991Y-134567561D02*
X68566695Y-134568278D01*
X121478718Y-120619999D02*
X121711269Y-120271963D01*
X110242534Y-166621715D02*
X110243633Y-166621749D01*
X131136351Y-167725063D02*
X131140763Y-167724509D01*
X134896438Y-150301412D02*
X134896403Y-150298592D01*
X69131161Y-167757442D02*
X69156632Y-167760329D01*
X68112816Y-135647360D02*
X68052872Y-135795374D01*
X97953092Y-166457800D02*
X97953524Y-166457796D01*
X65099519Y-153374071D02*
X65099523Y-153374554D01*
X102021608Y-166457611D02*
X102022052Y-166457614D01*
X65137520Y-148468510D02*
X65137423Y-148472035D01*
X126137416Y-167715756D02*
X126138690Y-167715860D01*
X131513337Y-134759552D02*
X131513162Y-134759135D01*
X68186540Y-135468923D02*
X68184796Y-135473122D01*
X82027602Y-166966537D02*
X82883526Y-166908654D01*
X65227766Y-158546605D02*
X65227859Y-158549328D01*
X132968208Y-138537636D02*
X132968049Y-138537189D01*
X132587720Y-167339209D02*
X132600730Y-167332650D01*
X102048361Y-166457813D02*
X102048804Y-166457817D01*
X67973908Y-135995769D02*
X67913743Y-136153356D01*
X95923466Y-166479744D02*
X95923871Y-166479739D01*
X134886853Y-154426354D02*
X134886917Y-154422819D01*
X134335556Y-142686574D02*
X134331521Y-142670544D01*
X65312501Y-144892432D02*
X65292001Y-145120965D01*
X131433304Y-134568278D02*
X131433008Y-134567561D01*
X67758998Y-136565221D02*
X67758970Y-136565295D01*
X134432329Y-143113539D02*
X134397906Y-142952410D01*
X133958543Y-165756222D02*
X133966989Y-165726264D01*
X71348528Y-161651471D02*
X71452024Y-161769486D01*
X79131855Y-167213821D02*
X79134469Y-167213576D01*
X107171795Y-166537630D02*
X107172985Y-166537656D01*
X133696658Y-140659183D02*
X133696624Y-140659088D01*
X88729878Y-166655513D02*
X88730206Y-166655502D01*
X131353585Y-134373920D02*
X131312376Y-134271377D01*
X134079866Y-141789160D02*
X134017584Y-141595857D01*
X134906248Y-151820780D02*
X134906248Y-151820354D01*
X132561960Y-137422916D02*
X132561435Y-137421503D01*
X116500000Y-132500000D02*
X116207106Y-133207106D01*
X134789228Y-158020323D02*
X134789287Y-158018482D01*
X65807937Y-164700278D02*
X65809465Y-164708391D01*
X65099586Y-153381737D02*
X65099617Y-153384886D01*
X66793155Y-139221906D02*
X66791809Y-139225870D01*
X65432802Y-143892928D02*
X65432554Y-143894655D01*
X134882220Y-149352255D02*
X134882160Y-149349199D01*
X133730429Y-166350557D02*
X133746258Y-166320768D01*
X130659110Y-162810582D02*
X130608655Y-162959220D01*
X134011752Y-141577971D02*
X134011372Y-141576818D01*
X68795816Y-167715970D02*
X68825299Y-167720073D01*
X134383819Y-142889747D02*
X134345137Y-142725864D01*
X131306416Y-134256450D02*
X131304683Y-134252085D01*
X131666831Y-135121355D02*
X131666787Y-135121251D01*
X131522507Y-134781316D02*
X131515183Y-134763940D01*
X134287799Y-142500372D02*
X134287235Y-142498194D01*
X131524533Y-134786112D02*
X131524357Y-134785696D01*
X133358561Y-139674563D02*
X133358501Y-139674384D01*
X118946696Y-167042171D02*
X118947723Y-167042253D01*
X65839656Y-142049862D02*
X65787174Y-142228588D01*
X116570356Y-64202631D02*
X116558834Y-64233245D01*
X81953843Y-166971859D02*
X82007265Y-166967966D01*
X65246403Y-159071021D02*
X65246538Y-159074691D01*
X113228075Y-166727674D02*
X113229162Y-166727716D01*
X134253250Y-164362027D02*
X134253351Y-164361461D01*
X134491254Y-162892499D02*
X134493343Y-162875173D01*
X122733071Y-167396450D02*
X122733027Y-167396894D01*
X66222203Y-140891003D02*
X66221472Y-140893095D01*
X134710743Y-145153554D02*
X134710635Y-145152197D01*
X65461974Y-162485667D02*
X65462198Y-162487814D01*
X126927390Y-167774966D02*
X127596249Y-167815974D01*
X133778635Y-140893407D02*
X133778527Y-140893095D01*
X131811456Y-135464115D02*
X131811200Y-135463503D01*
X68725370Y-134175883D02*
X68724854Y-134177208D01*
X113248013Y-166728459D02*
X113249666Y-166728525D01*
X132806036Y-138086778D02*
X132805184Y-138084438D01*
X133205290Y-139217350D02*
X133205091Y-139216767D01*
X70343368Y-161310266D02*
X70500000Y-161299999D01*
X65099549Y-153377683D02*
X65099552Y-153378134D01*
X110263033Y-166622364D02*
X111246164Y-166654694D01*
X98975384Y-166452010D02*
X98975851Y-166452008D01*
X112263150Y-166690833D02*
X112263479Y-166690846D01*
X79134989Y-167213527D02*
X79136683Y-167213369D01*
X84828368Y-166809522D02*
X84841953Y-166808914D01*
X133696601Y-140659021D02*
X133696492Y-140658709D01*
X65397870Y-144140945D02*
X65371346Y-144348197D01*
X67412279Y-167339209D02*
X67446659Y-167355918D01*
X129674478Y-63608824D02*
X129642882Y-63600358D01*
X84826926Y-166809587D02*
X84828037Y-166809537D01*
X134340690Y-142707401D02*
X134340105Y-142705006D01*
X134750986Y-145702613D02*
X134750920Y-145701531D01*
X97955726Y-166457778D02*
X97956166Y-166457775D01*
X66567802Y-139895079D02*
X66566835Y-139897965D01*
X118952858Y-167042665D02*
X118953884Y-167042748D01*
X132967000Y-138534249D02*
X132966841Y-138533803D01*
X134538025Y-162485667D02*
X134539497Y-162471254D01*
X116759346Y-63898710D02*
X116737778Y-63923303D01*
X65216432Y-146280208D02*
X65216163Y-146285472D01*
X134767187Y-145971425D02*
X134750986Y-145702613D01*
X134783525Y-146279412D02*
X134768456Y-145993884D01*
X66910939Y-167020278D02*
X66914881Y-167023276D01*
X67600721Y-136986903D02*
X67600666Y-136987051D01*
X134850901Y-155937663D02*
X134850908Y-155937445D01*
X134812903Y-146948941D02*
X134812883Y-146948410D01*
X126885793Y-167772126D02*
X126887514Y-167772253D01*
X95897047Y-166480118D02*
X95898372Y-166480098D01*
X110243633Y-166621749D02*
X110243971Y-166621759D01*
X91777006Y-166563522D02*
X91778731Y-166563476D01*
X134768456Y-145993884D02*
X134768407Y-145992960D01*
X134160343Y-142049862D02*
X134159844Y-142048174D01*
X134901321Y-150796448D02*
X134901318Y-150796050D01*
X65382466Y-161605475D02*
X65382585Y-161606984D01*
X133794286Y-166221930D02*
X133800844Y-166207341D01*
X117288973Y-63592930D02*
X117257117Y-63600358D01*
X65186944Y-146952923D02*
X65174216Y-147296133D01*
X133947209Y-165795042D02*
X133948532Y-165790586D01*
X132162892Y-136357371D02*
X132162888Y-136357359D01*
X117978008Y-166966923D02*
X117979308Y-166967013D01*
X116503745Y-64488311D02*
X116501605Y-64520952D01*
X99983150Y-166450028D02*
X99984747Y-166450026D01*
X68186796Y-135468307D02*
X68186540Y-135468923D01*
X129983050Y-167827267D02*
X130375180Y-167802223D01*
X117257117Y-63600358D02*
X117225521Y-63608824D01*
X78194099Y-167304616D02*
X79099746Y-167216871D01*
X106165253Y-166515735D02*
X106166470Y-166515761D01*
X132026091Y-135995769D02*
X132025603Y-135994496D01*
X66456337Y-166619680D02*
X66522819Y-166691309D01*
X94886942Y-166495973D02*
X94887323Y-166495966D01*
X68486837Y-134759135D02*
X68486662Y-134759552D01*
X65122821Y-154931565D02*
X65122903Y-154935374D01*
X134896444Y-150301869D02*
X134896438Y-150301412D01*
X134894727Y-153899678D02*
X134894767Y-153896384D01*
X124501294Y-167569974D02*
X124505000Y-167570321D01*
X132600730Y-167332650D02*
X132633187Y-167315690D01*
X65675380Y-163894117D02*
X65671406Y-163931407D01*
X116558834Y-64233245D02*
X116548319Y-64264219D01*
X114203408Y-166767453D02*
X114216847Y-166768019D01*
X90775931Y-166590996D02*
X90777062Y-166590965D01*
X90752675Y-166591668D02*
X90753019Y-166591658D01*
X134084665Y-165242079D02*
X134130250Y-165022174D01*
X66638172Y-139684370D02*
X66637851Y-139685331D01*
X134380912Y-163635902D02*
X134381187Y-163634264D01*
X66390317Y-140410766D02*
X66389817Y-140412201D01*
X65113073Y-154422290D02*
X65113082Y-154422819D01*
X123629847Y-167485384D02*
X123631564Y-167485552D01*
X68511828Y-167671175D02*
X68516859Y-167672046D01*
X65126869Y-148906564D02*
X65126799Y-148909831D01*
X133940914Y-141365178D02*
X133938931Y-141359260D01*
X65227752Y-158546172D02*
X65227766Y-158546605D01*
X65554653Y-143177933D02*
X65554115Y-143180722D01*
X67111612Y-138314541D02*
X67111473Y-138314928D01*
X134561496Y-143854704D02*
X134561229Y-143852974D01*
X105112676Y-166495966D02*
X105113057Y-166495973D01*
X130608655Y-162040779D02*
X130659110Y-162189417D01*
X121823886Y-167306377D02*
X121824156Y-167306404D01*
X131120462Y-133764867D02*
X131102526Y-133714192D01*
X132091981Y-136168474D02*
X132090327Y-136164088D01*
X134901288Y-150792824D02*
X134896516Y-150308377D01*
X65095372Y-151304575D02*
X65095361Y-151307361D01*
X67759017Y-136565170D02*
X67758998Y-136565221D01*
X91794950Y-166563053D02*
X91795299Y-166563044D01*
X111265264Y-166655344D02*
X111266365Y-166655382D01*
X133925630Y-165866472D02*
X133947209Y-165795042D01*
X131275145Y-134177208D02*
X131274629Y-134175883D01*
X129401611Y-167851064D02*
X129425826Y-167850581D01*
X122733123Y-167396455D02*
X122733264Y-167396469D01*
X134488424Y-162914981D02*
X134488756Y-162912397D01*
X67138956Y-167181767D02*
X67144583Y-167185386D01*
X132481215Y-137206044D02*
X132481163Y-137205903D01*
X128845097Y-167856660D02*
X128849039Y-167856719D01*
X66221364Y-140893407D02*
X66220630Y-140895513D01*
X92826648Y-166537664D02*
X92827014Y-166537656D01*
X134709021Y-145132723D02*
X134708905Y-145131371D01*
X134526946Y-143633923D02*
X134526668Y-143632198D01*
X131434284Y-134570650D02*
X131433304Y-134568278D01*
X80048689Y-167128861D02*
X80049459Y-167128792D01*
X99001559Y-166451914D02*
X99002020Y-166451912D01*
X134753280Y-159079493D02*
X134753301Y-159078934D01*
X134901371Y-150802896D02*
X134901368Y-150802472D01*
X134708315Y-160129246D02*
X134708609Y-160123442D01*
X81933524Y-166973393D02*
X81934828Y-166973292D01*
X66522819Y-166691309D02*
X66531082Y-166699875D01*
X68476533Y-134783587D02*
X68475642Y-134785696D01*
X121822285Y-167306220D02*
X121822556Y-167306246D01*
X108203524Y-166563014D02*
X108204700Y-166563044D01*
X71675458Y-167846862D02*
X71678463Y-167846796D01*
X65122810Y-154931014D02*
X65122821Y-154931565D01*
X125341572Y-167647758D02*
X125342455Y-167647836D01*
X134906240Y-151813862D02*
X134906234Y-151811006D01*
X114216847Y-166768019D02*
X114217171Y-166768033D01*
X66303531Y-140658642D02*
X66303507Y-140658709D01*
X82906882Y-166907146D02*
X82908481Y-166907047D01*
X95923871Y-166479739D02*
X95925195Y-166479722D01*
X133897323Y-165954738D02*
X133899111Y-165949374D01*
X120870364Y-167214030D02*
X120870885Y-167214079D01*
X114217171Y-166768033D02*
X114218276Y-166768079D01*
X67978162Y-135984716D02*
X67977672Y-135985985D01*
X67192025Y-138092119D02*
X67191897Y-138092474D01*
X71124543Y-167857008D02*
X71150960Y-167856719D01*
X131310100Y-134265694D02*
X131309572Y-134264371D01*
X96951860Y-166466945D02*
X96953972Y-166466924D01*
X132399973Y-136988757D02*
X132399673Y-136987959D01*
X134616482Y-161618568D02*
X134616605Y-161617066D01*
X129500000Y-161299999D02*
X129656631Y-161310266D01*
X65668478Y-142670544D02*
X65664443Y-142686574D01*
X65677510Y-163968577D02*
X65684136Y-164006233D01*
X134083373Y-141800150D02*
X134080326Y-141790595D01*
X131277368Y-134182899D02*
X131276850Y-134181575D01*
X134838559Y-147672436D02*
X134838496Y-147670547D01*
X112266867Y-166690973D02*
X113227751Y-166727662D01*
X67519249Y-137204797D02*
X67518836Y-137205903D01*
X66102676Y-165954738D02*
X66114855Y-165990609D01*
X79099746Y-167216871D02*
X79100260Y-167216822D01*
X65246719Y-159079493D02*
X65246862Y-159083165D01*
X67504778Y-167383109D02*
X67543311Y-167400448D01*
X83914857Y-166851673D02*
X83918411Y-166851498D01*
X133825209Y-166150482D02*
X133836982Y-166120885D01*
X134882348Y-149359282D02*
X134882294Y-149356228D01*
X86752303Y-166728446D02*
X86753349Y-166728405D01*
X129980287Y-167827436D02*
X129983050Y-167827267D01*
X129916460Y-167830781D02*
X129919222Y-167830658D01*
X134750920Y-145701531D02*
X134750470Y-145694319D01*
X70500000Y-161299999D02*
X70656631Y-161310266D01*
X80987877Y-167047555D02*
X80988905Y-167047468D01*
X106161422Y-166515655D02*
X106162627Y-166515680D01*
X68408678Y-134943741D02*
X68408619Y-134943881D01*
X66467322Y-140189218D02*
X66467125Y-140189787D01*
X134789287Y-158018482D02*
X134789295Y-158018231D01*
X97951638Y-166457813D02*
X97953092Y-166457800D01*
X134894625Y-153907292D02*
X134894671Y-153903985D01*
X116134987Y-166854191D02*
X116136062Y-166854247D01*
X87753173Y-166690231D02*
X87753494Y-166690220D01*
X65201177Y-146607615D02*
X65200986Y-146611980D01*
X121478718Y-123820000D02*
X121293585Y-123444586D01*
X65103483Y-150308377D02*
X65098711Y-150792824D01*
X67318155Y-167289426D02*
X67360466Y-167312316D01*
X68646005Y-134374937D02*
X68644652Y-134378293D01*
X133777796Y-140891003D02*
X133777683Y-140890680D01*
X67911823Y-136158404D02*
X67911577Y-136159052D01*
X73087631Y-167773992D02*
X73099194Y-167773203D01*
X134017205Y-141594686D02*
X134014679Y-141586912D01*
X65134748Y-155435621D02*
X65134764Y-155436246D01*
X124492773Y-167569162D02*
X124496492Y-167569519D01*
X65126953Y-148902824D02*
X65126879Y-148906097D01*
X76372161Y-167485187D02*
X76372376Y-167485166D01*
X80084328Y-167125671D02*
X80085091Y-167125604D01*
X65249079Y-145701531D02*
X65249013Y-145702613D01*
X67033158Y-138533803D02*
X67032999Y-138534249D01*
X65559732Y-163267536D02*
X65560189Y-163270666D01*
X131203041Y-133989848D02*
X131199959Y-133981667D01*
X134904188Y-152861834D02*
X134904191Y-152861364D01*
X131515006Y-134763520D02*
X131514412Y-134762109D01*
X131231826Y-134065508D02*
X131206320Y-133998508D01*
X68118188Y-135634199D02*
X68115843Y-135639926D01*
X130396254Y-64488311D02*
X130393048Y-64455758D01*
X96954397Y-166466920D02*
X96955758Y-166466907D01*
X130539230Y-161899999D02*
X130608655Y-162040779D01*
X94887323Y-166495966D02*
X94888583Y-166495945D01*
X67131254Y-167176741D02*
X67138956Y-167181767D01*
X66253741Y-166320768D02*
X66269570Y-166350557D01*
X65418556Y-162039424D02*
X65419602Y-162051469D01*
X65348406Y-161127508D02*
X65348984Y-161135945D01*
X134344565Y-142723466D02*
X134340690Y-142707401D01*
X133910874Y-165913396D02*
X133912600Y-165908012D01*
X65317678Y-160623870D02*
X65318077Y-160630901D01*
X134194019Y-164689741D02*
X134195508Y-164681620D01*
X67981954Y-135974951D02*
X67981458Y-135976222D01*
X133285179Y-139453636D02*
X133284961Y-139452982D01*
X76368435Y-167485552D02*
X76370152Y-167485384D01*
X108201413Y-166562960D02*
X108203170Y-166563005D01*
X81948251Y-166972273D02*
X81952541Y-166971955D01*
X114203081Y-166767439D02*
X114203408Y-166767453D01*
X134894721Y-153900179D02*
X134894727Y-153899678D01*
X73074342Y-167774856D02*
X73085910Y-167774107D01*
X134798822Y-146607615D02*
X134798793Y-146606967D01*
X95902493Y-166480037D02*
X95902894Y-166480032D01*
X65246862Y-159083165D02*
X65246883Y-159083699D01*
X108221268Y-166563476D02*
X108222993Y-166563522D01*
X65164263Y-156439174D02*
X65164279Y-156439703D01*
X134577676Y-162080926D02*
X134577849Y-162079129D01*
X129189417Y-163659110D02*
X129040779Y-163608655D01*
X78177714Y-167306220D02*
X78178619Y-167306131D01*
X91775122Y-166563573D02*
X91775478Y-166563564D01*
X74664348Y-167647231D02*
X74665234Y-167647152D01*
X93854214Y-166515338D02*
X93854591Y-166515331D01*
X66309116Y-166419276D02*
X66328377Y-166450096D01*
X65134630Y-155430890D02*
X65134645Y-155431503D01*
X68761721Y-134082323D02*
X68761092Y-134083954D01*
X134539497Y-162471254D02*
X134539712Y-162469106D01*
X73852828Y-167716542D02*
X73861309Y-167715860D01*
X131940380Y-167574167D02*
X131981897Y-167563304D01*
X119011094Y-167047468D02*
X119012122Y-167047555D01*
X67274554Y-137865924D02*
X67273823Y-137867925D01*
X125335651Y-167647231D02*
X125341572Y-167647758D01*
X133451632Y-139952601D02*
X133450147Y-139948235D01*
X107197066Y-166538216D02*
X107197434Y-166538225D01*
X129040779Y-163608655D02*
X128899999Y-163539230D01*
X65113005Y-154418262D02*
X65113013Y-154418773D01*
X65347067Y-161106841D02*
X65347145Y-161108099D01*
X65471204Y-143645484D02*
X65470931Y-143647210D01*
X131451112Y-134611151D02*
X131450129Y-134608792D01*
X133327768Y-166828368D02*
X133359288Y-166801354D01*
X66568093Y-139894208D02*
X66567802Y-139895079D01*
X133568789Y-166590421D02*
X133610350Y-166538065D01*
X66791809Y-139225870D02*
X66791604Y-139226475D01*
X132162836Y-136357223D02*
X132162841Y-136357100D01*
X86768879Y-166727792D02*
X86770498Y-166727729D01*
X131282727Y-134196542D02*
X131282205Y-134195218D01*
X65227967Y-158552468D02*
X65227981Y-158552862D01*
X132300538Y-167462971D02*
X132346125Y-167445584D01*
X67030740Y-138540590D02*
X67030583Y-138541033D01*
X75507226Y-167569162D02*
X75507766Y-167569109D01*
X65149087Y-148062913D02*
X65149076Y-148063286D01*
X132162742Y-136356780D02*
X132162679Y-136356803D01*
X130700000Y-162500000D02*
X130689733Y-162656631D01*
X134850912Y-148062913D02*
X134850831Y-148060287D01*
X67981458Y-135976222D02*
X67978162Y-135984716D01*
X131311847Y-134270059D02*
X131310100Y-134265694D01*
X134485651Y-143391516D02*
X134485242Y-143389214D01*
X66220630Y-140895513D02*
X66220523Y-140895821D01*
X67836180Y-136359839D02*
X67759017Y-136565170D01*
X134896481Y-150305121D02*
X134896476Y-150304674D01*
X65194745Y-157488451D02*
X65194769Y-157489274D01*
X134886986Y-154418773D02*
X134886994Y-154418262D01*
X129343368Y-161310266D02*
X129500000Y-161299999D01*
X65368015Y-144375299D02*
X65366709Y-144386382D01*
X67822385Y-167505357D02*
X67866645Y-167519448D01*
X131454190Y-134618516D02*
X131453203Y-134616158D01*
X67543311Y-167400448D02*
X67556771Y-167406269D01*
X97951195Y-166457817D02*
X97951638Y-166457813D01*
X99004010Y-166451908D02*
X99982665Y-166450029D01*
X132086507Y-136154015D02*
X132086256Y-136153356D01*
X93855813Y-166515306D02*
X93856184Y-166515299D01*
X132400019Y-136988882D02*
X132399973Y-136988757D01*
X133976401Y-165691732D02*
X133977600Y-165687239D01*
X83865012Y-166854191D02*
X83868571Y-166854007D01*
X66871203Y-138994850D02*
X66869967Y-138998432D01*
X103050349Y-166466968D02*
X103067547Y-166467154D01*
X79131341Y-167213869D02*
X79131855Y-167213821D01*
X120897489Y-167216605D02*
X120898016Y-167216655D01*
X68764861Y-134074161D02*
X68761721Y-134082323D01*
X95919731Y-166479795D02*
X95921060Y-166479776D01*
X134783836Y-146285472D02*
X134783567Y-146280208D01*
X68875853Y-133775206D02*
X68872358Y-133784952D01*
X82020691Y-166967013D02*
X82021991Y-166966923D01*
X133609586Y-140410490D02*
X133609283Y-140409620D01*
X65988247Y-141577971D02*
X65985699Y-141585751D01*
X123421779Y-119129037D02*
X123832316Y-119047376D01*
X117007842Y-166901973D02*
X117009442Y-166902064D01*
X134835760Y-156438366D02*
X134835765Y-156438208D01*
X66638499Y-139683387D02*
X66638434Y-139683583D01*
X131595685Y-134954022D02*
X131595628Y-134953889D01*
X130383450Y-64391055D02*
X130377069Y-64358973D01*
X65148897Y-148069331D02*
X65137534Y-148467997D01*
X65924385Y-165284053D02*
X65924989Y-165286775D01*
X134882229Y-149352727D02*
X134882220Y-149352255D01*
X66783975Y-166920851D02*
X66804260Y-166937020D01*
X78174958Y-167306492D02*
X78175843Y-167306404D01*
X133696601Y-140659021D02*
X133696601Y-140659021D01*
X134580397Y-162051469D02*
X134581443Y-162039424D01*
X134016479Y-165538042D02*
X134017374Y-165534465D01*
X68331924Y-135124287D02*
X68261505Y-135290410D01*
X71689733Y-162656631D02*
X71659110Y-162810582D01*
X67029538Y-138543979D02*
X67029384Y-138544414D01*
X65315895Y-144856949D02*
X65315749Y-144858414D01*
X131524357Y-134785696D02*
X131523466Y-134783587D01*
X68120890Y-135627629D02*
X68118537Y-135633347D01*
X133358782Y-139675227D02*
X133358561Y-139674563D01*
X65843523Y-142036851D02*
X65840155Y-142048174D01*
X65164239Y-156438366D02*
X65164259Y-156439039D01*
X68439551Y-167657904D02*
X68473158Y-167664252D01*
X67836450Y-136359121D02*
X67836435Y-136359160D01*
X68475466Y-134786112D02*
X68474877Y-134787503D01*
X66641498Y-139674384D02*
X66641438Y-139674563D01*
X65137213Y-148480143D02*
X65137200Y-148480668D01*
X67437448Y-137424512D02*
X67437360Y-137424749D01*
X131947127Y-135795374D02*
X131887183Y-135647360D01*
X86748560Y-166728597D02*
X86748890Y-166728584D01*
X78192717Y-167304751D02*
X78192984Y-167304725D01*
X65227662Y-158543465D02*
X65227752Y-158546172D01*
X134789351Y-158016414D02*
X134789359Y-158016172D01*
X68121240Y-135626780D02*
X68120890Y-135627629D01*
X117508181Y-63570000D02*
X117491822Y-63570267D01*
X131795600Y-167609518D02*
X131801228Y-167608225D01*
X65623388Y-163661042D02*
X65657875Y-163857010D01*
X134633290Y-144386382D02*
X134631984Y-144375299D01*
X133451930Y-139953475D02*
X133451632Y-139952601D01*
X131741140Y-135296676D02*
X131740972Y-135296276D01*
X134441683Y-143159231D02*
X134441128Y-143156440D01*
X133968230Y-165721782D02*
X133976401Y-165691732D01*
X65556293Y-163243403D02*
X65556730Y-163246534D01*
X65291347Y-160122588D02*
X65291390Y-160123442D01*
X131809441Y-135459299D02*
X131809184Y-135458686D01*
X116610841Y-64113279D02*
X116596373Y-64142616D01*
X128899999Y-161460769D02*
X129040779Y-161391344D01*
X65460502Y-162471254D02*
X65461974Y-162485667D01*
X81053303Y-167042171D02*
X81056703Y-167041902D01*
X134896516Y-150308377D02*
X134896511Y-150307949D01*
X92804140Y-166538186D02*
X92804492Y-166538178D01*
X75494456Y-167570372D02*
X75494999Y-167570321D01*
X132162841Y-136357100D02*
X132162797Y-136357116D01*
X131199959Y-133981667D02*
X131199344Y-133980029D01*
X65109848Y-149826571D02*
X65103601Y-150298147D01*
X131206320Y-133998508D02*
X131205699Y-133996873D01*
X134090733Y-141823592D02*
X134090289Y-141822162D01*
X126198036Y-124758730D02*
X125850000Y-124991281D01*
X133130032Y-138998432D02*
X133128796Y-138994850D01*
X134749382Y-145677728D02*
X134749309Y-145676657D01*
X66389724Y-140412469D02*
X66389426Y-140413325D01*
X134732265Y-159604986D02*
X134732295Y-159604296D01*
X133671622Y-166450096D02*
X133690883Y-166419276D01*
X117099998Y-166907580D02*
X117107994Y-166908095D01*
X121808685Y-167304887D02*
X121808971Y-167304915D01*
X111247596Y-166654741D02*
X111247930Y-166654752D01*
X65366709Y-144386382D02*
X65366517Y-144388036D01*
X133696467Y-140658637D02*
X133616090Y-140429128D01*
X132162888Y-136357359D02*
X132162836Y-136357223D01*
X68836574Y-133883470D02*
X68835861Y-133885413D01*
X66141403Y-141123828D02*
X66141187Y-141124454D01*
X111251346Y-166654868D02*
X111264942Y-166655333D01*
X65970127Y-165482895D02*
X65975855Y-165506914D01*
X110262686Y-166622353D02*
X110263033Y-166622364D01*
X70016949Y-167827267D02*
X70019712Y-167827436D01*
X122730832Y-167396228D02*
X122730848Y-167396230D01*
X132241044Y-136565335D02*
X132241029Y-136565295D01*
X66383909Y-140429128D02*
X66303532Y-140658637D01*
X65291021Y-160115916D02*
X65291063Y-160116785D01*
X121821380Y-167306131D02*
X121822285Y-167306220D01*
X65112948Y-154414720D02*
X65113005Y-154418262D01*
X98996796Y-166451928D02*
X98997254Y-166451927D01*
X91798586Y-166562960D02*
X91798926Y-166562952D01*
X66385306Y-140425133D02*
X66384984Y-140426055D01*
X134148087Y-142009187D02*
X134090733Y-141823592D01*
X71100000Y-161460769D02*
X71230513Y-161547975D01*
X66390812Y-140409345D02*
X66390716Y-140409620D01*
X70083539Y-167830781D02*
X70514923Y-167848756D01*
X65716580Y-142483616D02*
X65712764Y-142498194D01*
X134536267Y-162502206D02*
X134537801Y-162487814D01*
X131757875Y-167617954D02*
X131795600Y-167609518D01*
X65745877Y-164357103D02*
X65745976Y-164357663D01*
X131525304Y-134787934D02*
X131525122Y-134787503D01*
X132633187Y-167315690D02*
X132639533Y-167312316D01*
X115171631Y-166809522D02*
X115171962Y-166809537D01*
X75494999Y-167570321D02*
X75498705Y-167569974D01*
X132086256Y-136153356D02*
X132026091Y-135995769D01*
X134838702Y-147676828D02*
X134838641Y-147674942D01*
X134772337Y-158543465D02*
X134772350Y-158543052D01*
X86750002Y-166728539D02*
X86750333Y-166728525D01*
X66547084Y-139956361D02*
X66546787Y-139957231D01*
X65368213Y-144373645D02*
X65368015Y-144375299D01*
X134084091Y-165244809D02*
X134084665Y-165242079D01*
X131591380Y-134943881D02*
X131591321Y-134943741D01*
X65098631Y-150802472D02*
X65098628Y-150802896D01*
X134826002Y-147302229D02*
X134825907Y-147299551D01*
X133284961Y-139452982D02*
X133283515Y-139448647D01*
X69651471Y-161651471D02*
X69769486Y-161547975D01*
X134851002Y-148065915D02*
X134850923Y-148063286D01*
X73841799Y-167717400D02*
X73843059Y-167717303D01*
X107191821Y-166538090D02*
X107192175Y-166538099D01*
X97958043Y-166457760D02*
X97976061Y-166457627D01*
X134784468Y-146298410D02*
X134784430Y-146297615D01*
X70542743Y-167849727D02*
X70546353Y-167849838D01*
X71059887Y-167856950D02*
X71063831Y-167856985D01*
X116142513Y-166854587D02*
X116146071Y-166854778D01*
X81042708Y-167043025D02*
X81046115Y-167042748D01*
X65210704Y-158018231D02*
X65210712Y-158018482D01*
X87752078Y-166690271D02*
X87753173Y-166690231D01*
X127340962Y-123048220D02*
X127206414Y-123444586D01*
X80093035Y-167124908D02*
X80983465Y-167047933D01*
X130095163Y-63851706D02*
X130071289Y-63829346D01*
X134882355Y-149359735D02*
X134882348Y-149359282D01*
X132724490Y-137863319D02*
X132723745Y-137861288D01*
X117973703Y-166966626D02*
X117978008Y-166966923D01*
X68476711Y-134783166D02*
X68476533Y-134783587D01*
X133899111Y-165949374D02*
X133910874Y-165913396D01*
X133957261Y-165760692D02*
X133958543Y-165756222D01*
X69391344Y-162040779D02*
X69460769Y-161899999D01*
X134389026Y-142912342D02*
X134388435Y-142909747D01*
X65371346Y-144348197D02*
X65371138Y-144349843D01*
X97982913Y-166457583D02*
X98970645Y-166452033D01*
X134835716Y-156439857D02*
X134835720Y-156439703D01*
X65232392Y-145978604D02*
X65232339Y-145979529D01*
X79100260Y-167216822D02*
X79101983Y-167216655D01*
X89759470Y-166621653D02*
X89759821Y-166621642D01*
X68516859Y-167672046D02*
X68550589Y-167677707D01*
X67680366Y-136774535D02*
X67680365Y-136774536D01*
X130399999Y-64578181D02*
X130399732Y-64561822D01*
X126512741Y-124482741D02*
X126198036Y-124758730D01*
X130230513Y-163452024D02*
X130100000Y-163539230D01*
X67518784Y-137206044D02*
X67439235Y-137419699D01*
X126914089Y-167774107D02*
X126925657Y-167774856D01*
X65186964Y-146952402D02*
X65186944Y-146952923D01*
X134682764Y-160615786D02*
X134682820Y-160614741D01*
X65095770Y-152854959D02*
X65095786Y-152857945D01*
X65093766Y-151810586D02*
X65093765Y-151811006D01*
X87736849Y-166690833D02*
X87737957Y-166690792D01*
X78174692Y-167306518D02*
X78174958Y-167306492D01*
X133130227Y-138998998D02*
X133130032Y-138998432D01*
X134709896Y-145143138D02*
X134709785Y-145141790D01*
X119918968Y-167125964D02*
X119950540Y-167128792D01*
X66114855Y-165990609D02*
X66116703Y-165995954D01*
X84826591Y-166809602D02*
X84826926Y-166809587D01*
X134619172Y-161583801D02*
X134619282Y-161582291D01*
X65558316Y-143159231D02*
X65554653Y-143177933D01*
X133778527Y-140893095D02*
X133777796Y-140891003D01*
X117194219Y-63618319D02*
X117163245Y-63628834D01*
X117321054Y-63586549D02*
X117288973Y-63592930D01*
X67599653Y-136989755D02*
X67520238Y-137202148D01*
X91798926Y-166562952D02*
X91800068Y-166562923D01*
X102046475Y-166457796D02*
X102046907Y-166457800D01*
X132126734Y-167521505D02*
X132133354Y-167519448D01*
X116506951Y-64455758D02*
X116503745Y-64488311D01*
X67273705Y-137868248D02*
X67194937Y-138084105D01*
X82990557Y-166902064D02*
X82992157Y-166901973D01*
X132090080Y-136163432D02*
X132088422Y-136159052D01*
X129656631Y-161310266D02*
X129810582Y-161340889D01*
X134799013Y-146611980D02*
X134798822Y-146607615D01*
X109245870Y-166591625D02*
X109246980Y-166591658D01*
X131171527Y-133905427D02*
X131170806Y-133903485D01*
X130722821Y-133258918D02*
X130735565Y-133247999D01*
X76368147Y-167485580D02*
X76368435Y-167485552D01*
X115171962Y-166809537D02*
X115173073Y-166809587D01*
X134710635Y-145152197D02*
X134709896Y-145143138D01*
X130046696Y-63807778D02*
X130021410Y-63787027D01*
X65982794Y-141594686D02*
X65982415Y-141595857D01*
X65616998Y-163623317D02*
X65618812Y-163634264D01*
X65148908Y-148068936D02*
X65148897Y-148069331D01*
X68831566Y-133897078D02*
X68829193Y-133903485D01*
X134493343Y-162875173D02*
X134493648Y-162872587D01*
X133361827Y-139684370D02*
X133361765Y-139684184D01*
X67226265Y-167236383D02*
X67231987Y-167239850D01*
X66389426Y-140413325D02*
X66389328Y-140413604D01*
X65149051Y-155936062D02*
X65149091Y-155937445D01*
X133777683Y-140890680D02*
X133696658Y-140659183D01*
X132400291Y-136989609D02*
X132400019Y-136988882D01*
X74657544Y-167647836D02*
X74658427Y-167647758D01*
X134906131Y-152336207D02*
X134906132Y-152335760D01*
X65164279Y-156439703D02*
X65164283Y-156439857D01*
X90758001Y-166591511D02*
X90772086Y-166591105D01*
X132561435Y-137421503D02*
X132561373Y-137421335D01*
X72383828Y-167817104D02*
X72386119Y-167816980D01*
X65314632Y-144869752D02*
X65313688Y-144879620D01*
X132889479Y-138317586D02*
X132888526Y-138314928D01*
X66624717Y-166787350D02*
X66636033Y-166797294D01*
X67438564Y-137421503D02*
X67438039Y-137422916D01*
X134485242Y-143389214D02*
X134482466Y-143373815D01*
X68693583Y-134256450D02*
X68693057Y-134257774D01*
X66390716Y-140409620D02*
X66390413Y-140410490D01*
X131878759Y-135626780D02*
X131815460Y-135473744D01*
X134682379Y-160622831D02*
X134682764Y-160615786D01*
X65113156Y-154426887D02*
X65122722Y-154926638D01*
X122649999Y-119448718D02*
X123025413Y-119263585D01*
X65215823Y-146292328D02*
X65215569Y-146297615D01*
X89738750Y-166622306D02*
X89740453Y-166622251D01*
X89738428Y-166622316D02*
X89738750Y-166622306D01*
X66141187Y-141124454D02*
X66139808Y-141128463D01*
X67274672Y-137865602D02*
X67274554Y-137865924D01*
X68485768Y-134761679D02*
X68485587Y-134762109D01*
X133532021Y-140187317D02*
X133531822Y-140186741D01*
X73114206Y-167772126D02*
X73841799Y-167717400D01*
X132888526Y-138314928D02*
X132888387Y-138314541D01*
X66640711Y-166801354D02*
X66672231Y-166828368D01*
X65164214Y-156437544D02*
X65164219Y-156437690D01*
X131102526Y-133714192D02*
X131101733Y-133711942D01*
X133436480Y-139907822D02*
X133436186Y-139906951D01*
X105130903Y-166496281D02*
X105132848Y-166496316D01*
X116986103Y-63712615D02*
X116958325Y-63729889D01*
X131813459Y-135468923D02*
X131813203Y-135468307D01*
X66872836Y-138990136D02*
X66872645Y-138990688D01*
X66180264Y-166163689D02*
X66196080Y-166200358D01*
X67758955Y-136565335D02*
X67680366Y-136774535D01*
X134838632Y-147674648D02*
X134838569Y-147672738D01*
X123625880Y-167484994D02*
X123627623Y-167485166D01*
X131801228Y-167608225D02*
X131838883Y-167599347D01*
X134784430Y-146297615D02*
X134784176Y-146292328D01*
X66089125Y-165913396D02*
X66100888Y-165949374D01*
X134753596Y-159071021D02*
X134753615Y-159070482D01*
X67192999Y-138089431D02*
X67192862Y-138089810D01*
X80994054Y-167047034D02*
X80995082Y-167046947D01*
X117009442Y-166902064D02*
X117017447Y-166902529D01*
X134772126Y-158549745D02*
X134772140Y-158549328D01*
X69160436Y-167760745D02*
X69185917Y-167763436D01*
X131205699Y-133996873D02*
X131203658Y-133991482D01*
X131525122Y-134787503D02*
X131524533Y-134786112D01*
X134479196Y-143356122D02*
X134478766Y-143353831D01*
X65093862Y-152332911D02*
X65093867Y-152335760D01*
X67520238Y-137202148D02*
X67520194Y-137202264D01*
X119958471Y-167129511D02*
X119959237Y-167129581D01*
X128310266Y-162343368D02*
X128340889Y-162189417D01*
X126925657Y-167774856D02*
X126927390Y-167774966D01*
X82008568Y-166967872D02*
X82012864Y-166967564D01*
X134865235Y-155436246D02*
X134865251Y-155435621D01*
X70959220Y-161391344D02*
X71100000Y-161460769D01*
X132319827Y-136775052D02*
X132319805Y-136774992D01*
X105111416Y-166495945D02*
X105112676Y-166495966D01*
X134524493Y-143618914D02*
X134522564Y-143607368D01*
X95921060Y-166479776D02*
X95921461Y-166479771D01*
X134432434Y-163318859D02*
X134432932Y-163315734D01*
X67399269Y-167332650D02*
X67412279Y-167339209D01*
X83925952Y-166851134D02*
X83929501Y-166850966D01*
X70059491Y-167829645D02*
X70062256Y-167829783D01*
X120894915Y-167216358D02*
X120897489Y-167216605D01*
X117987135Y-166967564D02*
X117991431Y-166967872D01*
X134768065Y-145986711D02*
X134768013Y-145985778D01*
X65506351Y-162872587D02*
X65506656Y-162875173D01*
X65924989Y-165286775D02*
X65929087Y-165305004D01*
X65161513Y-147670259D02*
X65161503Y-147670547D01*
X117091518Y-166907047D02*
X117093117Y-166907146D01*
X65432554Y-143894655D02*
X65403418Y-144099842D01*
X130257384Y-64056103D02*
X130240110Y-64028326D01*
X133858596Y-141123828D02*
X133857211Y-141119823D01*
X81946949Y-166972370D02*
X81948251Y-166972273D01*
X68291273Y-167628351D02*
X68434538Y-167656931D01*
X130872636Y-167756997D02*
X131136351Y-167725063D01*
X65117644Y-149359735D02*
X65110006Y-149816030D01*
X102041956Y-166457760D02*
X102042398Y-166457763D01*
X75499241Y-167569923D02*
X75502960Y-167569571D01*
X112262042Y-166690792D02*
X112263150Y-166690833D01*
X65137534Y-148467997D02*
X65137520Y-148468510D01*
X95925195Y-166479722D02*
X95925595Y-166479717D01*
X80999512Y-167046579D02*
X81041678Y-167043109D01*
X131377359Y-134432434D02*
X131376946Y-134431421D01*
X133361565Y-139683583D02*
X133361500Y-139683387D01*
X65113146Y-154426354D02*
X65113156Y-154426887D01*
X134133662Y-165005381D02*
X134136238Y-164992442D01*
X125334765Y-167647152D02*
X125335651Y-167647231D01*
X68869335Y-133793335D02*
X68868629Y-133795283D01*
X66638234Y-139684184D02*
X66638172Y-139684370D01*
X65194710Y-157487290D02*
X65194713Y-157487381D01*
X65787174Y-142228588D02*
X65786612Y-142230518D01*
X65721617Y-142464720D02*
X65721034Y-142466891D01*
X134139517Y-164975627D02*
X134190304Y-164709602D01*
X134887059Y-154414196D02*
X134894618Y-153907793D01*
X131838883Y-167599347D02*
X131844498Y-167597989D01*
X120892157Y-167216095D02*
X120892678Y-167216145D01*
X130810276Y-167763823D02*
X130814082Y-167763436D01*
X131884507Y-135640787D02*
X131884156Y-135639926D01*
X131595016Y-134952448D02*
X131594778Y-134951888D01*
X114199963Y-166767309D02*
X114201661Y-166767380D01*
X130428565Y-167798288D02*
X130450363Y-167796466D01*
X101026902Y-166452021D02*
X101027365Y-166452023D01*
X134630241Y-144360915D02*
X134628861Y-144349843D01*
X131453203Y-134616158D02*
X131452904Y-134615444D01*
X112246505Y-166690220D02*
X112246826Y-166690231D01*
X68563640Y-134575662D02*
X68562667Y-134578009D01*
X133858812Y-141124454D02*
X133858596Y-141123828D01*
X134381187Y-163634264D02*
X134383001Y-163623317D01*
X134681922Y-160630901D02*
X134682321Y-160623870D01*
X106145785Y-166515338D02*
X106161053Y-166515648D01*
X65746648Y-164361461D02*
X65746749Y-164362027D01*
X134709293Y-160109257D02*
X134732027Y-159610373D01*
X65291390Y-160123442D02*
X65291684Y-160129246D01*
X124667683Y-125392623D02*
X124250000Y-125420000D01*
X130317126Y-64172411D02*
X130303626Y-64142616D01*
X113229501Y-166727729D02*
X113231120Y-166727792D01*
X66199155Y-166207341D02*
X66205713Y-166221930D01*
X134850995Y-155934449D02*
X134850999Y-155934309D01*
X114201994Y-166767393D02*
X114203081Y-166767439D01*
X130452024Y-161769486D02*
X130539230Y-161899999D01*
X131954156Y-135812903D02*
X131953727Y-135811827D01*
X118066475Y-166973393D02*
X118942263Y-167041821D01*
X66124669Y-166018573D02*
X66126925Y-166024845D01*
X65093878Y-152339540D02*
X65095752Y-152851058D01*
X121810104Y-167305026D02*
X121821111Y-167306104D01*
X66303341Y-140659183D02*
X66222316Y-140890680D01*
X133520851Y-140154901D02*
X133520654Y-140154324D01*
X134886843Y-154426887D02*
X134886853Y-154426354D01*
X132163819Y-136359839D02*
X132163806Y-136359803D01*
X120865530Y-167213576D02*
X120868144Y-167213821D01*
X68547095Y-134615444D02*
X68546796Y-134616158D01*
X94871116Y-166496246D02*
X94886942Y-166495973D01*
X134567197Y-143892928D02*
X134565509Y-143881334D01*
X134730466Y-145404274D02*
X134730374Y-145403049D01*
X68724854Y-134177208D02*
X68723149Y-134181575D01*
X68693057Y-134257774D02*
X68690427Y-134264371D01*
X119012122Y-167047555D02*
X119015506Y-167047844D01*
X117043279Y-63680841D02*
X117014431Y-63696260D01*
X134864981Y-155445727D02*
X134864997Y-155445126D01*
X134862799Y-148480668D02*
X134862786Y-148480143D01*
X120863316Y-167213369D02*
X120865010Y-167213527D01*
X67721374Y-167470971D02*
X67765223Y-167486282D01*
X130453611Y-167796184D02*
X130780955Y-167766677D01*
X65117839Y-149349199D02*
X65117779Y-149352255D01*
X104080666Y-166479800D02*
X104097105Y-166480032D01*
X82892005Y-166908095D02*
X82900001Y-166907580D01*
X67188123Y-167212923D02*
X67226265Y-167236383D01*
X134805260Y-157488259D02*
X134805286Y-157487381D01*
X134014679Y-141586912D02*
X134014300Y-141585751D01*
X66477120Y-140160807D02*
X66476469Y-140162698D01*
X128769486Y-161547975D02*
X128899999Y-161460769D01*
X65098652Y-150799669D02*
X65098631Y-150802472D01*
X67873265Y-167521505D02*
X67917050Y-167534778D01*
X115156314Y-166808837D02*
X115156650Y-166808852D01*
X132163747Y-136359647D02*
X132163749Y-136359604D01*
X96949650Y-166466968D02*
X96950068Y-166466964D01*
X66467125Y-140189787D02*
X66466137Y-140192639D01*
X68404371Y-134953889D02*
X68404314Y-134954022D01*
X134708905Y-145131371D02*
X134708117Y-145122314D01*
X134812883Y-146948410D02*
X134812747Y-146944951D01*
X68623053Y-134431421D02*
X68622640Y-134432434D01*
X67911577Y-136159052D02*
X67909919Y-136163432D01*
X123631564Y-167485552D02*
X123631852Y-167485580D01*
X134865127Y-155440381D02*
X134865235Y-155436246D01*
X90775586Y-166591006D02*
X90775931Y-166590996D01*
X68618777Y-134441880D02*
X68618362Y-134442892D01*
X68565715Y-134570650D02*
X68565418Y-134571368D01*
X134660568Y-144625760D02*
X134660401Y-144624191D01*
X119961765Y-167129814D02*
X119962537Y-167129885D01*
X112244835Y-166690159D02*
X112246505Y-166690220D01*
X100014781Y-166450025D02*
X100015252Y-166450026D01*
X134630444Y-144362572D02*
X134630241Y-144360915D01*
X81056703Y-167041902D02*
X81057736Y-167041821D01*
X134685367Y-144869752D02*
X134685224Y-144868280D01*
X134136238Y-164992442D02*
X134136618Y-164990512D01*
X134376611Y-163661042D02*
X134376895Y-163659412D01*
X134155970Y-142035162D02*
X134152563Y-142023856D01*
X65607057Y-142929764D02*
X65606480Y-142932363D01*
X65149168Y-148060287D02*
X65149087Y-148062913D01*
X86771924Y-166727674D02*
X86772248Y-166727662D01*
X73085910Y-167774107D02*
X73087631Y-167773992D01*
X134862590Y-148472554D02*
X134862576Y-148472035D01*
X65194677Y-157486137D02*
X65194685Y-157486404D01*
X92808178Y-166538090D02*
X92822948Y-166537748D01*
X65227859Y-158549328D02*
X65227873Y-158549745D01*
X65778611Y-142258387D02*
X65778063Y-142260324D01*
X92824847Y-166537704D02*
X92826648Y-166537664D01*
X132642847Y-137641358D02*
X132642225Y-137639675D01*
X134877189Y-154931014D02*
X134877266Y-154927211D01*
X133434925Y-139903208D02*
X133433458Y-139898842D01*
X107173351Y-166537664D02*
X107175152Y-166537704D01*
X111247930Y-166654752D02*
X111249620Y-166654809D01*
X87733132Y-166690973D02*
X87733462Y-166690961D01*
X89740793Y-166622240D02*
X89741901Y-166622205D01*
X109226480Y-166591064D02*
X109227570Y-166591095D01*
X134812747Y-146944951D02*
X134812726Y-146944416D01*
X67600388Y-136987792D02*
X67600326Y-136987959D01*
X65201206Y-146606967D02*
X65201177Y-146607615D01*
X65246698Y-159078934D02*
X65246719Y-159079493D01*
X132725445Y-137865924D02*
X132725327Y-137865602D01*
X104099223Y-166480062D02*
X104101223Y-166480092D01*
X133281849Y-139443676D02*
X133281631Y-139443028D01*
X132177614Y-167505357D02*
X132184205Y-167503208D01*
X134493648Y-162872587D02*
X134534194Y-162520901D01*
X74671156Y-167646614D02*
X74672037Y-167646533D01*
X117163245Y-63628834D02*
X117132631Y-63640356D01*
X66637851Y-139685331D02*
X66637788Y-139685522D01*
X134838496Y-147670547D02*
X134838486Y-147670259D01*
X133819735Y-166163689D02*
X133825209Y-166150482D01*
X132642225Y-137639675D02*
X132642126Y-137639408D01*
X67088438Y-167148072D02*
X67093338Y-167151395D01*
X129429443Y-167850496D02*
X129453646Y-167849838D01*
X133128796Y-138994850D02*
X133128606Y-138994301D01*
X82900001Y-166907580D02*
X82901601Y-166907478D01*
X134838569Y-147672738D02*
X134838559Y-147672436D01*
X129642882Y-63600358D02*
X129611026Y-63592930D01*
X84845387Y-166808762D02*
X84845719Y-166808747D01*
X127422623Y-121802316D02*
X127450000Y-122219999D01*
X65725563Y-142450183D02*
X65721617Y-142464720D01*
X134862697Y-148476629D02*
X134862683Y-148476090D01*
X66479148Y-140154901D02*
X66478498Y-140156797D01*
X134890098Y-149822764D02*
X134890054Y-149819829D01*
X70570556Y-167850496D02*
X70574173Y-167850581D01*
X131121156Y-133766819D02*
X131120462Y-133764867D01*
X132724014Y-167265882D02*
X132736030Y-167258935D01*
X66566541Y-139898842D02*
X66565074Y-139903208D01*
X134731741Y-145421828D02*
X134731157Y-145413658D01*
X82999046Y-166901586D02*
X83852852Y-166854836D01*
X65093868Y-152336207D02*
X65093876Y-152339115D01*
X81952541Y-166971955D02*
X81953843Y-166971859D01*
X133779476Y-140895821D02*
X133779369Y-140895513D01*
X65200773Y-146616969D02*
X65200746Y-146617624D01*
X134195508Y-164681620D02*
X134195726Y-164680419D01*
X132808102Y-138092474D02*
X132807974Y-138092119D01*
X131359589Y-134388771D02*
X131358231Y-134385423D01*
X134432932Y-163315734D02*
X134436199Y-163294773D01*
X67110388Y-138317954D02*
X67033158Y-138533803D01*
X99990153Y-166450022D02*
X100009846Y-166450022D01*
X66126925Y-166024845D02*
X66142320Y-166066768D01*
X107171434Y-166537622D02*
X107171795Y-166537630D01*
X132480289Y-137203561D02*
X132480228Y-137203397D01*
X134767243Y-145972363D02*
X134767187Y-145971425D01*
X130202885Y-63974540D02*
X130182972Y-63948588D01*
X65095387Y-151301369D02*
X65095374Y-151304163D01*
X66714820Y-139453636D02*
X66642164Y-139672380D01*
X95921461Y-166479771D02*
X95923466Y-166479744D01*
X134486155Y-162932284D02*
X134488424Y-162914981D01*
X65712200Y-142500372D02*
X65669084Y-142668159D01*
X134729657Y-145393669D02*
X134710743Y-145153554D01*
X111249620Y-166654809D02*
X111249942Y-166654820D01*
X118065171Y-166973292D02*
X118066475Y-166973393D01*
X65292001Y-145120965D02*
X65291882Y-145122314D01*
X111249942Y-166654820D02*
X111251011Y-166654856D01*
X69215235Y-167766319D02*
X69219044Y-167766677D01*
X65511245Y-143409230D02*
X65477726Y-143605643D01*
X96932452Y-166467154D02*
X96949650Y-166466968D01*
X69651471Y-163348528D02*
X69547975Y-163230513D01*
X74650743Y-167648429D02*
X74651626Y-167648352D01*
X68065827Y-167575749D02*
X68155501Y-167597989D01*
X67192862Y-138089810D02*
X67192025Y-138092119D01*
X134784176Y-146292328D02*
X134784138Y-146291539D01*
X128940112Y-167856950D02*
X129397999Y-167851123D01*
X66953241Y-138759762D02*
X66953072Y-138760242D01*
X70518535Y-167848893D02*
X70542743Y-167849727D01*
X131357820Y-134384410D02*
X131355758Y-134379311D01*
X134539712Y-162469106D02*
X134577676Y-162080926D01*
X134835720Y-156439703D02*
X134835736Y-156439174D01*
X66163017Y-166120885D02*
X66174790Y-166150482D01*
X126147171Y-167716542D02*
X126148443Y-167716642D01*
X80038234Y-167129814D02*
X80040762Y-167129581D01*
X115500000Y-133500000D02*
X69169300Y-133500000D01*
X65149138Y-155939003D02*
X65149143Y-155939181D01*
X70040779Y-161391344D02*
X70189417Y-161340889D01*
X132643670Y-137643590D02*
X132643583Y-137643353D01*
X65674003Y-164008017D02*
X65674010Y-164008194D01*
X134835492Y-156447426D02*
X134835512Y-156446716D01*
X133861778Y-141133091D02*
X133860401Y-141129074D01*
X133448875Y-139944484D02*
X133448578Y-139943608D01*
X132480750Y-137204797D02*
X132480671Y-137204586D01*
X131168433Y-133897078D02*
X131167715Y-133895133D01*
X134835736Y-156439174D02*
X134835740Y-156439039D01*
X65099523Y-153374554D02*
X65099549Y-153377683D01*
X134789220Y-158020579D02*
X134789228Y-158020323D01*
X66303507Y-140658709D02*
X66303398Y-140659021D01*
X133616090Y-140429128D02*
X133615995Y-140428857D01*
X126156940Y-167717303D02*
X126158200Y-167717400D01*
X104102952Y-166480118D02*
X104103347Y-166480125D01*
X133839404Y-166114676D02*
X133855339Y-166073009D01*
X133265210Y-166880703D02*
X133323037Y-166832372D01*
X113247696Y-166728446D02*
X113248013Y-166728459D01*
X65117713Y-149355786D02*
X65117705Y-149356228D01*
X132035581Y-167548521D02*
X132076806Y-167536598D01*
X103067547Y-166467154D02*
X103067959Y-166467158D01*
X68405221Y-134951888D02*
X68404983Y-134952448D01*
X65869352Y-165020240D02*
X65869749Y-165022174D01*
X68909724Y-133679045D02*
X68908947Y-133681301D01*
X134708609Y-160123442D02*
X134708652Y-160122588D01*
X134906142Y-152329137D02*
X134906248Y-151820780D01*
X110258098Y-166622205D02*
X110259206Y-166622240D01*
X66791604Y-139226475D02*
X66720045Y-139438048D01*
X91779086Y-166563467D02*
X91780240Y-166563436D01*
X65174202Y-147296512D02*
X65174105Y-147299173D01*
X130351680Y-64264219D02*
X130341165Y-64233245D01*
X107197434Y-166538225D02*
X108199571Y-166562914D01*
X90754469Y-166591614D02*
X90756202Y-166591563D01*
X67360466Y-167312316D02*
X67366812Y-167315690D01*
X134217136Y-142243477D02*
X134213387Y-142230518D01*
X96932040Y-166467158D02*
X96932452Y-166467154D01*
X84842278Y-166808899D02*
X84843349Y-166808852D01*
X131881462Y-135633347D02*
X131879109Y-135627629D01*
X134805223Y-157489479D02*
X134805230Y-157489274D01*
X66566835Y-139897965D02*
X66566541Y-139898842D01*
X134850923Y-148063286D02*
X134850912Y-148062913D01*
X68906374Y-133688740D02*
X68905591Y-133690994D01*
X68555628Y-167678526D02*
X68757563Y-167710299D01*
X65806204Y-164690957D02*
X65807712Y-164699072D01*
X79137203Y-167213321D02*
X80037462Y-167129885D01*
X134904627Y-151304575D02*
X134904625Y-151304163D01*
X117992734Y-166967966D02*
X118046156Y-166971859D01*
X134862786Y-148480143D02*
X134862697Y-148476629D01*
X68901663Y-133702263D02*
X68900875Y-133704516D01*
X134835474Y-156448009D02*
X134835487Y-156447591D01*
X67647089Y-167442940D02*
X67653874Y-167445584D01*
X129736754Y-63628834D02*
X129705780Y-63618319D01*
X114218276Y-166768079D02*
X114218609Y-166768094D01*
X65122915Y-154935929D02*
X65123001Y-154939733D01*
X65291684Y-160129246D02*
X65291729Y-160130115D01*
X69156632Y-167760329D02*
X69160436Y-167760745D01*
X134029872Y-165482895D02*
X134030713Y-165479307D01*
X123025413Y-119263585D02*
X123421779Y-119129037D01*
X132320187Y-136776010D02*
X132320062Y-136775677D01*
X106166841Y-166515769D02*
X107171434Y-166537622D01*
X65249598Y-145693246D02*
X65249529Y-145694319D01*
X93860013Y-166515225D02*
X94865113Y-166496354D01*
X65201402Y-146602624D02*
X65201206Y-146606967D01*
X89740453Y-166622251D02*
X89740793Y-166622240D01*
X96927748Y-166467208D02*
X96928172Y-166467203D01*
X71539230Y-163100000D02*
X71452024Y-163230513D01*
X68332757Y-135122323D02*
X68332376Y-135123219D01*
X68641768Y-134385423D02*
X68640410Y-134388771D01*
X129940508Y-167829645D02*
X129959016Y-167828669D01*
X131164138Y-133885413D02*
X131163425Y-133883470D01*
X66384888Y-140426329D02*
X66384413Y-140427689D01*
X122733330Y-167396476D02*
X123625638Y-167484970D01*
X67680365Y-136774536D02*
X67680194Y-136774992D01*
X65511243Y-162912397D02*
X65511575Y-162914981D01*
X133127354Y-138990688D02*
X133127163Y-138990136D01*
X67679812Y-136776010D02*
X67679763Y-136776142D01*
X65438503Y-143854704D02*
X65436734Y-143866285D01*
X129961781Y-167828515D02*
X129980287Y-167827436D01*
X133610182Y-140412201D02*
X133609682Y-140410766D01*
X71678463Y-167846796D02*
X71698615Y-167846296D01*
X134732057Y-159609689D02*
X134732265Y-159604986D01*
X134226119Y-142275248D02*
X134225580Y-142273312D01*
X132873685Y-167173476D02*
X132906661Y-167151395D01*
X134633482Y-144388036D02*
X134633290Y-144386382D01*
X100012371Y-166450023D02*
X100014781Y-166450025D01*
X134901368Y-150802472D02*
X134901347Y-150799669D01*
X131376946Y-134431421D02*
X131360003Y-134389789D01*
X65095390Y-151300928D02*
X65095387Y-151301369D01*
X132546676Y-167359095D02*
X132553340Y-167355918D01*
X134900447Y-153378134D02*
X134900450Y-153377683D01*
X131740972Y-135296276D02*
X131739903Y-135293742D01*
X126138690Y-167715860D02*
X126147171Y-167716542D01*
X134900382Y-153384886D02*
X134900413Y-153381737D01*
X68642179Y-134384410D02*
X68641768Y-134385423D01*
X68484816Y-134763940D02*
X68477492Y-134781316D01*
X133464074Y-166704555D02*
X133468917Y-166699875D01*
X65475506Y-143618914D02*
X65475220Y-143620643D01*
X65099552Y-153378134D02*
X65099581Y-153381285D01*
X133934330Y-141345650D02*
X133934026Y-141344756D01*
X100011882Y-166450022D02*
X100012371Y-166450023D01*
X65194685Y-157486404D02*
X65194710Y-157487290D01*
X134392942Y-142929764D02*
X134389026Y-142912342D01*
X87756572Y-166690109D02*
X87756893Y-166690097D01*
X132162797Y-136357116D02*
X132162721Y-136356916D01*
X117017447Y-166902529D02*
X117019046Y-166902623D01*
X65174105Y-147299173D02*
X65174092Y-147299551D01*
X66221472Y-140893095D02*
X66221364Y-140893407D01*
X131884156Y-135639926D02*
X131881811Y-135634199D01*
X65602093Y-142952410D02*
X65567670Y-143113539D01*
X134821406Y-156932212D02*
X134835471Y-156448135D01*
X131312376Y-134271377D02*
X131311847Y-134270059D01*
X131950869Y-135804675D02*
X131950438Y-135803598D01*
X133362489Y-139686354D02*
X133362421Y-139686151D01*
X131514231Y-134761679D02*
X131513337Y-134759552D01*
X90777062Y-166590965D02*
X90777403Y-166590955D01*
X133242197Y-166899656D02*
X133262229Y-166883175D01*
X125349256Y-167648429D02*
X126127662Y-167714946D01*
X67913743Y-136153356D02*
X67913492Y-136154015D01*
X104078939Y-166479776D02*
X104080268Y-166479795D01*
X134729751Y-145394889D02*
X134729657Y-145393669D01*
X65567670Y-143113539D02*
X65567084Y-143116322D01*
X66100888Y-165949374D02*
X66102676Y-165954738D01*
X132399673Y-136987959D02*
X132399611Y-136987792D01*
X71452024Y-163230513D02*
X71348528Y-163348528D01*
X104074804Y-166479722D02*
X104076128Y-166479739D01*
X65250064Y-145686021D02*
X65249598Y-145693246D01*
X134812566Y-146940439D02*
X134799253Y-146617624D01*
X83918411Y-166851498D02*
X83919487Y-166851445D01*
X86750333Y-166728525D02*
X86751986Y-166728459D01*
X66063364Y-141352448D02*
X66061367Y-141358371D01*
X66139808Y-141128463D02*
X66139598Y-141129074D01*
X68793679Y-133998508D02*
X68768173Y-134065508D01*
X68049130Y-135804675D02*
X68046272Y-135811827D01*
X65860856Y-164977561D02*
X65863381Y-164990512D01*
X131667242Y-135122323D02*
X131667237Y-135122310D01*
X133857211Y-141119823D02*
X133856995Y-141119199D01*
X108203170Y-166563005D02*
X108203524Y-166563014D01*
X134805254Y-157488451D02*
X134805260Y-157488259D01*
X132642126Y-137639408D02*
X132562639Y-137424749D01*
X134753116Y-159083699D02*
X134753137Y-159083165D01*
X65210648Y-158016414D02*
X65210704Y-158018231D01*
X68563935Y-134574952D02*
X68563640Y-134575662D01*
X110261249Y-166622306D02*
X110261571Y-166622316D01*
X67357043Y-137641653D02*
X67356416Y-137643353D01*
X70598388Y-167851064D02*
X70602000Y-167851123D01*
X101001223Y-166451922D02*
X101002745Y-166451927D01*
X115154612Y-166808762D02*
X115156314Y-166808837D01*
X68042997Y-135820073D02*
X68042576Y-135821136D01*
X65126789Y-148910315D02*
X65117848Y-149348745D01*
X134799226Y-146616969D02*
X134799041Y-146612627D01*
X121711269Y-124168036D02*
X121478718Y-123820000D01*
X65913151Y-141811152D02*
X65912702Y-141812581D01*
X93834746Y-166515735D02*
X93835116Y-166515728D01*
X134273842Y-142448014D02*
X134226119Y-142275248D01*
X96925953Y-166467230D02*
X96926367Y-166467224D01*
X133192703Y-166939421D02*
X133195739Y-166937020D01*
X65778063Y-142260324D02*
X65774419Y-142273312D01*
X132944243Y-167125623D02*
X132949104Y-167122241D01*
X66476469Y-140162698D02*
X66476273Y-140163269D01*
X131957423Y-135821136D02*
X131957002Y-135820073D01*
X121809846Y-167305001D02*
X121810104Y-167305026D01*
X134732748Y-159593505D02*
X134753116Y-159083699D01*
X133127163Y-138990136D02*
X133125912Y-138986539D01*
X126788730Y-124168036D02*
X126512741Y-124482741D01*
X89757796Y-166621704D02*
X89759470Y-166621653D01*
X65517533Y-143373815D02*
X65514757Y-143389214D01*
X85801414Y-166767252D02*
X85801750Y-166767239D01*
X133432197Y-139895079D02*
X133431906Y-139894208D01*
X107175504Y-166537712D02*
X107176688Y-166537739D01*
X66716484Y-139448647D02*
X66715038Y-139452982D01*
X128899999Y-163539230D02*
X128769486Y-163452024D01*
X65269533Y-145404274D02*
X65268931Y-145412431D01*
X115152865Y-166808685D02*
X115153199Y-166808700D01*
X67498068Y-167380030D02*
X67504778Y-167383109D01*
X134331521Y-142670544D02*
X134330915Y-142668159D01*
X100010320Y-166450022D02*
X100011882Y-166450022D01*
X65659680Y-163872180D02*
X65675336Y-163893968D01*
X134087297Y-141812581D02*
X134086848Y-141811152D01*
X133049407Y-138767291D02*
X133048252Y-138764002D01*
X134079609Y-165265806D02*
X134080197Y-165263082D01*
X133534060Y-140193210D02*
X133533862Y-140192639D01*
X128879402Y-167857035D02*
X128905806Y-167857116D01*
X72368488Y-167817904D02*
X72383828Y-167817104D01*
X118953884Y-167042748D02*
X118957291Y-167043025D01*
X66563519Y-139907822D02*
X66551421Y-139943608D01*
X103072251Y-166467208D02*
X103073632Y-166467224D01*
X131238907Y-134083954D02*
X131238278Y-134082323D01*
X111268717Y-166655464D02*
X111269793Y-166655502D01*
X89756366Y-166621749D02*
X89757465Y-166621715D01*
X71747911Y-167844626D02*
X72348549Y-167818851D01*
X131591321Y-134943741D02*
X131525304Y-134787934D01*
X67193963Y-138086778D02*
X67193836Y-138087127D01*
X131591966Y-134945263D02*
X131591901Y-134945110D01*
X68052872Y-135795374D02*
X68052438Y-135796449D01*
X130100000Y-161460769D02*
X130230513Y-161547975D01*
X114222039Y-166768241D02*
X115152865Y-166808685D01*
X129959220Y-163608655D02*
X129810582Y-163659110D01*
X66466137Y-140192639D02*
X66465939Y-140193210D01*
X116069421Y-166850916D02*
X116070498Y-166850966D01*
X133208190Y-139225870D02*
X133206844Y-139221906D01*
X78191028Y-167304915D02*
X78191314Y-167304887D01*
X76374119Y-167484994D02*
X76374361Y-167484970D01*
X66385400Y-140424861D02*
X66385306Y-140425133D01*
X128301384Y-167846296D02*
X128321536Y-167846796D01*
X133281631Y-139443028D02*
X133280173Y-139438697D01*
X131353994Y-134374937D02*
X131353585Y-134373920D01*
X79102510Y-167216605D02*
X79105084Y-167216358D01*
X68011914Y-167561643D02*
X68018102Y-167563304D01*
X66144660Y-166073009D02*
X66160595Y-166114676D01*
X110238728Y-166621598D02*
X110239055Y-166621608D01*
X79136683Y-167213369D02*
X79137203Y-167213321D01*
X134090289Y-141822162D02*
X134087297Y-141812581D01*
X66220523Y-140895821D02*
X66219794Y-140897916D01*
X66142788Y-141119823D02*
X66141403Y-141123828D01*
X134274436Y-142450183D02*
X134273842Y-142448014D01*
X79107842Y-167216095D02*
X79129114Y-167214079D01*
X116697114Y-63974540D02*
X116678061Y-64001128D01*
X133523530Y-140162698D02*
X133522879Y-140160807D01*
X65290978Y-145132723D02*
X65290214Y-145141790D01*
X66476273Y-140163269D02*
X66468177Y-140186741D01*
X83869649Y-166853953D02*
X83913780Y-166851727D01*
X68905591Y-133690994D02*
X68901663Y-133702263D01*
X68118537Y-135633347D02*
X68118188Y-135634199D01*
X68717272Y-134196542D02*
X68695839Y-134250765D01*
X122301963Y-124758730D02*
X121987258Y-124482741D01*
X65844029Y-142035162D02*
X65843523Y-142036851D01*
X120899739Y-167216822D02*
X120900253Y-167216871D01*
X134789295Y-158018231D02*
X134789351Y-158016414D01*
X115153199Y-166808700D02*
X115154280Y-166808747D01*
X65381574Y-161593884D02*
X65381688Y-161595393D01*
X66804260Y-166937020D02*
X66807296Y-166939421D01*
X133977600Y-165687239D02*
X134009478Y-165565541D01*
X80037462Y-167129885D02*
X80038234Y-167129814D01*
X133262229Y-166883175D02*
X133265210Y-166880703D01*
X90754129Y-166591625D02*
X90754469Y-166591614D01*
X66641893Y-139673197D02*
X66641830Y-139673386D01*
X133431906Y-139894208D02*
X133362489Y-139686354D01*
X85781390Y-166768094D02*
X85781723Y-166768079D01*
X68695839Y-134250765D02*
X68695316Y-134252085D01*
X134901292Y-150793241D02*
X134901288Y-150792824D01*
X65109895Y-149823195D02*
X65109854Y-149826129D01*
X99003550Y-166451909D02*
X99004010Y-166451908D01*
X65347145Y-161108099D02*
X65347682Y-161116543D01*
X66052790Y-165795042D02*
X66074369Y-165866472D01*
X68332335Y-135123318D02*
X68331952Y-135124219D01*
X106141969Y-166515263D02*
X106143815Y-166515299D01*
X134894772Y-153895905D02*
X134900377Y-153385323D01*
X68548588Y-134611867D02*
X68547095Y-134615444D01*
X127651450Y-167818851D02*
X128252088Y-167844626D01*
X65851912Y-142009187D02*
X65851393Y-142010879D01*
X65991578Y-141567888D02*
X65991192Y-141569053D01*
X65268842Y-145413658D02*
X65268258Y-145421828D01*
X68800040Y-133981667D02*
X68796958Y-133989848D01*
X131981897Y-167563304D02*
X131988085Y-167561643D01*
X92827014Y-166537656D02*
X92828204Y-166537630D01*
X116147147Y-166854836D02*
X117000953Y-166901586D01*
X103044241Y-166466907D02*
X103045602Y-166466920D01*
X134687498Y-144892432D02*
X134687365Y-144890965D01*
X122732487Y-167396393D02*
X122732515Y-167396395D01*
X119005945Y-167047034D02*
X119011094Y-167047468D01*
X98971106Y-166452031D02*
X98972634Y-166452023D01*
X125474586Y-125176414D02*
X125078220Y-125310962D01*
X134443706Y-163243403D02*
X134485809Y-162934865D01*
X67836363Y-136359352D02*
X67836266Y-136359609D01*
X80983465Y-167047933D02*
X80984493Y-167047844D01*
X134650927Y-161137202D02*
X134651015Y-161135945D01*
X68260263Y-135293347D02*
X68260096Y-135293742D01*
X82883526Y-166908654D02*
X82885125Y-166908548D01*
X117014431Y-63696260D02*
X116986103Y-63712615D01*
X133089060Y-167020278D02*
X133115379Y-167000048D01*
X131595370Y-134953281D02*
X131595085Y-134952612D01*
X67055756Y-167125623D02*
X67088438Y-167148072D01*
X134826107Y-147305247D02*
X134826016Y-147302600D01*
X116659889Y-64028326D02*
X116642615Y-64056103D01*
X133433458Y-139898842D02*
X133433164Y-139897965D01*
X65093754Y-151817111D02*
X65093753Y-151817505D01*
X65809465Y-164708391D02*
X65809695Y-164709602D01*
X132090327Y-136164088D02*
X132090080Y-136163432D01*
X66431210Y-166590421D02*
X66456337Y-166619680D01*
X65654862Y-142725864D02*
X65616180Y-142889747D01*
X68550167Y-134608077D02*
X68549870Y-134608792D01*
X94888583Y-166495945D02*
X94888971Y-166495939D01*
X66565074Y-139903208D02*
X66564780Y-139904081D01*
X66796474Y-139212194D02*
X66796264Y-139212806D01*
X130071289Y-63829346D02*
X130046696Y-63807778D01*
X131123450Y-133773258D02*
X131121156Y-133766819D01*
X117098398Y-166907478D02*
X117099998Y-166907580D01*
X123421779Y-125310962D02*
X123025413Y-125176414D01*
X65095752Y-152851058D02*
X65095754Y-152851500D01*
X103043826Y-166466903D02*
X103044241Y-166466907D01*
X132889611Y-138317954D02*
X132889479Y-138317586D01*
X132970461Y-138543979D02*
X132969416Y-138541033D01*
X65232812Y-145971425D02*
X65232756Y-145972363D01*
X65348321Y-161126245D02*
X65348406Y-161127508D01*
X65103596Y-150298592D02*
X65103561Y-150301412D01*
X68839633Y-133875098D02*
X68838923Y-133877045D01*
X130329643Y-64202631D02*
X130317126Y-64172411D01*
X84841953Y-166808914D02*
X84842278Y-166808899D01*
X130375180Y-167802223D02*
X130378437Y-167802004D01*
X66564780Y-139904081D02*
X66563813Y-139906951D01*
X129343368Y-163689733D02*
X129189417Y-163659110D01*
X65401597Y-144112965D02*
X65401363Y-144114677D01*
X115158046Y-166808914D02*
X115171631Y-166809522D01*
X129457256Y-167849727D02*
X129481464Y-167848893D01*
X134783876Y-146286273D02*
X134783836Y-146285472D01*
X134686450Y-144881093D02*
X134686311Y-144879620D01*
X88750379Y-166654809D02*
X88752069Y-166654752D01*
X85782828Y-166768033D02*
X85783152Y-166768019D01*
X103069751Y-166467179D02*
X103071827Y-166467203D01*
X65134645Y-155431503D02*
X65134748Y-155435621D01*
X134252472Y-164366387D02*
X134252572Y-164365832D01*
X132805184Y-138084438D02*
X132805062Y-138084105D01*
X122730848Y-167396230D02*
X122732370Y-167396380D01*
X68646414Y-134373920D02*
X68646005Y-134374937D01*
X118943296Y-167041902D02*
X118946696Y-167042171D01*
X69185917Y-167763436D02*
X69189723Y-167763823D01*
X134563265Y-143866285D02*
X134561496Y-143854704D01*
X65369758Y-144360915D02*
X65369555Y-144362572D01*
X131811200Y-135463503D02*
X131809441Y-135459299D01*
X88733634Y-166655382D02*
X88734735Y-166655344D01*
X67600666Y-136987051D02*
X67600388Y-136987792D01*
X65200986Y-146611980D02*
X65200958Y-146612627D01*
X118942263Y-167041821D02*
X118943296Y-167041902D01*
X117979308Y-166967013D02*
X117985832Y-166967472D01*
X131560448Y-167657904D02*
X131565461Y-167656931D01*
X95898372Y-166480098D02*
X95898776Y-166480092D01*
X123832316Y-119047376D02*
X124250000Y-119020000D01*
X105107439Y-166495880D02*
X105108751Y-166495901D01*
X65105227Y-153895905D02*
X65105232Y-153896384D01*
X134488754Y-143409230D02*
X134488356Y-143406929D01*
X131514412Y-134762109D02*
X131514231Y-134761679D01*
X134835471Y-156448135D02*
X134835474Y-156448009D01*
X131526841Y-167664252D02*
X131560448Y-167657904D01*
X68333168Y-135121355D02*
X68332762Y-135122310D01*
X69127363Y-167756997D02*
X69131161Y-167757442D01*
X123025413Y-125176414D02*
X122649999Y-124991281D01*
X131521818Y-167665175D02*
X131526841Y-167664252D01*
X131140763Y-167724509D02*
X131170296Y-167720666D01*
X82014167Y-166967472D02*
X82020691Y-166967013D01*
X132562639Y-137424749D02*
X132562551Y-137424512D01*
X88753835Y-166654694D02*
X89736966Y-166622364D01*
X134008807Y-141569053D02*
X134008421Y-141567888D01*
X66546787Y-139957231D02*
X66479345Y-140154324D01*
X65231543Y-145993884D02*
X65216474Y-146279412D01*
X131483140Y-167672046D02*
X131488171Y-167671175D01*
X66794908Y-139216767D02*
X66794709Y-139217350D01*
X134825783Y-147296133D02*
X134813055Y-146952923D01*
X68404629Y-134953281D02*
X68404564Y-134953434D01*
X134873035Y-148902341D02*
X134872960Y-148899097D01*
X67913492Y-136154015D02*
X67911823Y-136158404D01*
X68408439Y-134944306D02*
X68408380Y-134944444D01*
X115173073Y-166809587D02*
X115173408Y-166809602D01*
X104097506Y-166480037D02*
X104098820Y-166480056D01*
X134443269Y-163246534D02*
X134443706Y-163243403D01*
X65105272Y-153899678D02*
X65105278Y-153900179D01*
X65173892Y-147305247D02*
X65173878Y-147305652D01*
X134445346Y-143177933D02*
X134441683Y-143159231D01*
X134345137Y-142725864D02*
X134344565Y-142723466D01*
X66389328Y-140413604D02*
X66385400Y-140424861D01*
X68838923Y-133877045D02*
X68836574Y-133883470D01*
X65103488Y-150307949D02*
X65103483Y-150308377D01*
X134850861Y-155939003D02*
X134850901Y-155937663D01*
X134522564Y-143607368D02*
X134522273Y-143605643D01*
X65745976Y-164357663D02*
X65746648Y-164361461D01*
X65105374Y-153907292D02*
X65105381Y-153907793D01*
X133435219Y-139904081D02*
X133434925Y-139903208D01*
X124250000Y-125420000D02*
X123832316Y-125392623D01*
X117991431Y-166967872D02*
X117992734Y-166967966D01*
X110259546Y-166622251D02*
X110261249Y-166622306D01*
X134799253Y-146617624D02*
X134799226Y-146616969D01*
X100017334Y-166450029D02*
X100995989Y-166451908D01*
X125850000Y-119448718D02*
X126198036Y-119681269D01*
X133203525Y-139212194D02*
X133130227Y-138998998D01*
X65267474Y-159598895D02*
X65267503Y-159599602D01*
X134886994Y-154418262D02*
X134887051Y-154414720D01*
X132553340Y-167355918D02*
X132587720Y-167339209D01*
X133632829Y-166507424D02*
X133671622Y-166450096D01*
X86748890Y-166728584D02*
X86750002Y-166728539D01*
X100997979Y-166451912D02*
X100998440Y-166451914D01*
X67453323Y-167359095D02*
X67498068Y-167380030D01*
X105111028Y-166495939D02*
X105111416Y-166495945D01*
X134753461Y-159074691D02*
X134753596Y-159071021D01*
X65982625Y-165534465D02*
X65983520Y-165538042D01*
X130814082Y-167763436D02*
X130839563Y-167760745D01*
X134682820Y-160614741D02*
X134708270Y-160130115D01*
X80995082Y-167046947D02*
X80998482Y-167046664D01*
X133523726Y-140163269D02*
X133523530Y-140162698D01*
X133048078Y-138763508D02*
X133046927Y-138760242D01*
X67837271Y-136356914D02*
X67837278Y-136356916D01*
X134139143Y-164977561D02*
X134139517Y-164975627D01*
X65123014Y-154940298D02*
X65134630Y-155430890D01*
X129453646Y-167849838D02*
X129457256Y-167849727D01*
X82982552Y-166902529D02*
X82990557Y-166902064D01*
X68687623Y-134271377D02*
X68646414Y-134373920D01*
X134904210Y-152858392D02*
X134904213Y-152857945D01*
X116074047Y-166851134D02*
X116075123Y-166851185D01*
X134528795Y-143645484D02*
X134526946Y-143633923D01*
X94867151Y-166496316D02*
X94869096Y-166496281D01*
X131953727Y-135811827D02*
X131950869Y-135804675D01*
X134732027Y-159610373D02*
X134732057Y-159609689D01*
X134600177Y-144126093D02*
X134598636Y-144114677D01*
X132082949Y-167534778D02*
X132126734Y-167521505D01*
X134383268Y-163621690D02*
X134432434Y-163318859D01*
X133283515Y-139448647D02*
X133283301Y-139448008D01*
X96955758Y-166466907D02*
X96956173Y-166466903D01*
X133050717Y-138771031D02*
X133049573Y-138767765D01*
X133115379Y-167000048D02*
X133119294Y-166997009D01*
X133359288Y-166801354D02*
X133363966Y-166797294D01*
X66719826Y-139438697D02*
X66718368Y-139443028D01*
X70040779Y-163608655D02*
X69899999Y-163539230D01*
X68768173Y-134065508D02*
X68767549Y-134067142D01*
X71230513Y-163452024D02*
X71100000Y-163539230D01*
X65348984Y-161135945D02*
X65349072Y-161137202D01*
X133048252Y-138764002D02*
X133048078Y-138763508D01*
X134682321Y-160623870D02*
X134682379Y-160622831D01*
X131381222Y-134441880D02*
X131379141Y-134436797D01*
X126900805Y-167773203D02*
X126912368Y-167773992D01*
X100998440Y-166451914D02*
X101000753Y-166451920D01*
X65556730Y-163246534D02*
X65559732Y-163267536D01*
X126788730Y-120271963D02*
X127021281Y-120619999D01*
X65173983Y-147302600D02*
X65173892Y-147305247D01*
X68477492Y-134781316D02*
X68477311Y-134781745D01*
X131378725Y-134435780D02*
X131377359Y-134432434D01*
X68640410Y-134388771D02*
X68639996Y-134389789D01*
X65095767Y-152854482D02*
X65095770Y-152854959D01*
X122733027Y-167396894D02*
X122733078Y-167396909D01*
X65126799Y-148909831D02*
X65126789Y-148910315D01*
X134628653Y-144348197D02*
X134602129Y-144140945D01*
X68018102Y-167563304D02*
X68059619Y-167574167D01*
X134681861Y-160631950D02*
X134681922Y-160630901D01*
X65290214Y-145141790D02*
X65290103Y-145143138D01*
X65095408Y-151297740D02*
X65095406Y-151298140D01*
X71150960Y-167856719D02*
X71154902Y-167856660D01*
X68190558Y-135459299D02*
X68188799Y-135463503D01*
X65655434Y-142723466D02*
X65654862Y-142725864D01*
X68825299Y-167720073D02*
X68829703Y-167720666D01*
X134685224Y-144868280D02*
X134684250Y-144858414D01*
X94888971Y-166495939D02*
X94890865Y-166495908D01*
X86767173Y-166727859D02*
X86767501Y-166727846D01*
X110243971Y-166621759D02*
X110257761Y-166622194D01*
X69169300Y-133500000D02*
X68945754Y-133592595D01*
X134877178Y-154931565D02*
X134877189Y-154931014D01*
X134768013Y-145985778D02*
X134767660Y-145979529D01*
X65809695Y-164709602D02*
X65860482Y-164975627D01*
X131196705Y-133972984D02*
X131171527Y-133905427D01*
X132319633Y-136774535D02*
X132241044Y-136565335D01*
X133205091Y-139216767D02*
X133203735Y-139212806D01*
X68332762Y-135122310D02*
X68332757Y-135122323D01*
X120868658Y-167213869D02*
X120870364Y-167214030D01*
X107192175Y-166538099D02*
X107193384Y-166538127D01*
X66328377Y-166450096D02*
X66367170Y-166507424D01*
X134851091Y-148068936D02*
X134851014Y-148066304D01*
X92806247Y-166538136D02*
X92806615Y-166538127D01*
X134631984Y-144375299D02*
X134631786Y-144373645D01*
X132561373Y-137421335D02*
X132560833Y-137419883D01*
X131280482Y-134190842D02*
X131279962Y-134189518D01*
X67050895Y-167122241D02*
X67055756Y-167125623D01*
X134813035Y-146952402D02*
X134812903Y-146948941D01*
X83858563Y-166854529D02*
X83863937Y-166854247D01*
X80998482Y-167046664D02*
X80999512Y-167046579D01*
X134488756Y-162912397D02*
X134490935Y-162895085D01*
X119915671Y-167125671D02*
X119918194Y-167125895D01*
X65215569Y-146297615D02*
X65215531Y-146298410D01*
X130221937Y-64001128D02*
X130202885Y-63974540D01*
X132479805Y-137202264D02*
X132479761Y-137202148D01*
X65113013Y-154418773D02*
X65113073Y-154422290D01*
X107193752Y-166538136D02*
X107195507Y-166538178D01*
X122732487Y-167396392D02*
X122732487Y-167396393D01*
X65982415Y-141595857D02*
X65920133Y-141789160D01*
X134789423Y-158014072D02*
X134805223Y-157489479D01*
X131434581Y-134571368D02*
X131434284Y-134570650D01*
X65866337Y-165005381D02*
X65866726Y-165007312D01*
X65216163Y-146285472D02*
X65216123Y-146286273D01*
X132886199Y-138308468D02*
X132808102Y-138092474D01*
X132443228Y-167406269D02*
X132456688Y-167400448D01*
X68404983Y-134952448D02*
X68404914Y-134952612D01*
X65676100Y-163955115D02*
X65677510Y-163968577D01*
X121077376Y-121802316D02*
X121159037Y-121391779D01*
X132480671Y-137204586D02*
X132480289Y-137203561D01*
X132014229Y-135965200D02*
X131957423Y-135821136D01*
X133610350Y-166538065D02*
X133632829Y-166507424D01*
X94891248Y-166495901D02*
X94892560Y-166495880D01*
X66051467Y-165790586D02*
X66052790Y-165795042D01*
X124500758Y-167569923D02*
X124501294Y-167569974D01*
X133520654Y-140154324D02*
X133453212Y-139957231D01*
X134772018Y-158552862D02*
X134772032Y-158552468D01*
X134877096Y-154935374D02*
X134877178Y-154931565D01*
X65513844Y-162932284D02*
X65514190Y-162934865D01*
X65232756Y-145972363D02*
X65232392Y-145978604D01*
X134378783Y-163648475D02*
X134379062Y-163646842D01*
X131238040Y-167710971D02*
X131242436Y-167710299D01*
X93838946Y-166515648D02*
X93854214Y-166515338D01*
X131950438Y-135803598D02*
X131947561Y-135796449D01*
X70343368Y-163689733D02*
X70189417Y-163659110D01*
X134789415Y-158014331D02*
X134789423Y-158014072D01*
X67144583Y-167185386D02*
X67182448Y-167209380D01*
X117000953Y-166901586D02*
X117002554Y-166901675D01*
X66465939Y-140193210D02*
X66465283Y-140195102D01*
X133860401Y-141129074D02*
X133860191Y-141128463D01*
X91780587Y-166563427D02*
X91794950Y-166563053D01*
X65916626Y-141800150D02*
X65916170Y-141801585D01*
X65098628Y-150802896D02*
X65095408Y-151297740D01*
X65187273Y-146944416D02*
X65187252Y-146944951D01*
X67679937Y-136775677D02*
X67679812Y-136776010D01*
X66303398Y-140659021D02*
X66303375Y-140659088D01*
X73072609Y-167774966D02*
X73074342Y-167774856D01*
X119953842Y-167129090D02*
X119954613Y-167129160D01*
X119914908Y-167125604D02*
X119915671Y-167125671D01*
X134192287Y-164699072D02*
X134193795Y-164690957D01*
X134749935Y-145686021D02*
X134749864Y-145684946D01*
X121825041Y-167306492D02*
X121825307Y-167306518D01*
X65149098Y-155937663D02*
X65149138Y-155939003D01*
X68405274Y-134951764D02*
X68405221Y-134951888D01*
X111266712Y-166655394D02*
X111268388Y-166655452D01*
X134617533Y-161605475D02*
X134618311Y-161595393D01*
X78192984Y-167304725D02*
X78193834Y-167304642D01*
X68052438Y-135796449D02*
X68049561Y-135803598D01*
X133532677Y-140189218D02*
X133532021Y-140187317D01*
X132969416Y-138541033D02*
X132969259Y-138540590D01*
X134652236Y-161117800D02*
X134652317Y-161116543D01*
X131591901Y-134945110D02*
X131591619Y-134944444D01*
X131881811Y-135634199D02*
X131881462Y-135633347D01*
X110261571Y-166622316D02*
X110262686Y-166622353D01*
X134659261Y-144613637D02*
X134659088Y-144612062D01*
X92822948Y-166537748D02*
X92823311Y-166537739D01*
X131667237Y-135122310D02*
X131666831Y-135121355D01*
X134865369Y-155430890D02*
X134876985Y-154940298D01*
X66548367Y-139952601D02*
X66548069Y-139953475D01*
X132888387Y-138314541D02*
X132887439Y-138311906D01*
X133216024Y-166920851D02*
X133219045Y-166918424D01*
X67519328Y-137204586D02*
X67519249Y-137204797D01*
X134432915Y-143116322D02*
X134432329Y-143113539D01*
X65807712Y-164699072D02*
X65807937Y-164700278D01*
X134904612Y-151301369D02*
X134904609Y-151300928D01*
X134651678Y-161126245D02*
X134652236Y-161117800D01*
X120898016Y-167216655D02*
X120899739Y-167216822D01*
X124496492Y-167569519D02*
X124497039Y-167569571D01*
X133362421Y-139686151D02*
X133362211Y-139685522D01*
X67714843Y-167468639D02*
X67721374Y-167470971D01*
X133912600Y-165908012D02*
X133923965Y-165871874D01*
X100015252Y-166450026D02*
X100016849Y-166450028D01*
X130162221Y-63923303D02*
X130140653Y-63898710D01*
X68720037Y-134189518D02*
X68719517Y-134190842D01*
X66384315Y-140427968D02*
X66384004Y-140428857D01*
X132399611Y-136987792D02*
X132399333Y-136987051D01*
X98970645Y-166452033D02*
X98971106Y-166452031D01*
X132163749Y-136359604D02*
X132163733Y-136359609D01*
X134772350Y-158543052D02*
X134789220Y-158020579D01*
X132906661Y-167151395D02*
X132911561Y-167148072D01*
X117491822Y-63570267D02*
X117450952Y-63571605D01*
X133696468Y-140658642D02*
X133696467Y-140658637D01*
X134617414Y-161606984D02*
X134617533Y-161605475D01*
X121822556Y-167306246D02*
X121823886Y-167306377D01*
X132285156Y-167468639D02*
X132293715Y-167465517D01*
X134684104Y-144856949D02*
X134661837Y-144637888D01*
X111264942Y-166655333D02*
X111265264Y-166655344D01*
X65109901Y-149822764D02*
X65109895Y-149823195D01*
X124505543Y-167570372D02*
X125327962Y-167646533D01*
X93854591Y-166515331D02*
X93855813Y-166515306D01*
X65290103Y-145143138D02*
X65289364Y-145152197D01*
X65290746Y-160110117D02*
X65291021Y-160115916D01*
X88748653Y-166654868D02*
X88748988Y-166654856D01*
X102022052Y-166457614D02*
X102023500Y-166457624D01*
X65606480Y-142932363D02*
X65602656Y-142949809D01*
X118059575Y-166972863D02*
X118060878Y-166972962D01*
X94869096Y-166496281D02*
X94869482Y-166496274D01*
X65748210Y-164370194D02*
X65748312Y-164370757D01*
X65349072Y-161137202D02*
X65380717Y-161582291D01*
X134436199Y-163294773D02*
X134436676Y-163291646D01*
X109242343Y-166591521D02*
X109243455Y-166591553D01*
X131306942Y-134257774D02*
X131306416Y-134256450D01*
X65173997Y-147302229D02*
X65173983Y-147302600D01*
X132807974Y-138092119D02*
X132807137Y-138089810D01*
X71700000Y-162500000D02*
X71689733Y-162656631D01*
X68046272Y-135811827D02*
X68045843Y-135812903D01*
X121806165Y-167304642D02*
X121807015Y-167304725D01*
X73851556Y-167716642D02*
X73852828Y-167716542D01*
X128875456Y-167857008D02*
X128879402Y-167857035D01*
X130659110Y-162189417D02*
X130689733Y-162343368D01*
X68184796Y-135473122D02*
X68184539Y-135473744D01*
X68115843Y-135639926D02*
X68115492Y-135640787D01*
X127616171Y-167817104D02*
X127631511Y-167817904D01*
X130100000Y-163539230D02*
X129959220Y-163608655D01*
X65164259Y-156439039D02*
X65164263Y-156439174D01*
X69769486Y-163452024D02*
X69651471Y-163348528D01*
X68404314Y-134954022D02*
X68333212Y-135121251D01*
X95900776Y-166480062D02*
X95901179Y-166480056D01*
X128321536Y-167846796D02*
X128324541Y-167846862D01*
X71689733Y-162343368D02*
X71700000Y-162500000D01*
X71698615Y-167846296D02*
X71701619Y-167846212D01*
X113231120Y-166727792D02*
X113231441Y-166727804D01*
X133533862Y-140192639D02*
X133532874Y-140189787D01*
X65210771Y-158020323D02*
X65210779Y-158020579D01*
X66042738Y-165760692D02*
X66051467Y-165790586D01*
X81041678Y-167043109D02*
X81042708Y-167043025D01*
X134749864Y-145684946D02*
X134749382Y-145677728D01*
X134439810Y-163270666D02*
X134440267Y-163267536D01*
X131592254Y-134945941D02*
X131592193Y-134945797D01*
X70602000Y-167851123D02*
X71059887Y-167856950D01*
X67113800Y-138308468D02*
X67113650Y-138308882D01*
X134904191Y-152861364D02*
X134904210Y-152858392D01*
X116596373Y-64142616D02*
X116582873Y-64172411D01*
X65093765Y-151811006D02*
X65093759Y-151813862D01*
X111269793Y-166655502D02*
X111270121Y-166655513D01*
X132560764Y-137419699D02*
X132481215Y-137206044D01*
X67031950Y-138537189D02*
X67031791Y-138537636D01*
X117353328Y-63581220D02*
X117321054Y-63586549D01*
X130289158Y-64113279D02*
X130273739Y-64084431D01*
X76374361Y-167484970D02*
X77266120Y-167396530D01*
X134708978Y-160115916D02*
X134709253Y-160110117D01*
X118957291Y-167043025D02*
X118958321Y-167043109D01*
X113231441Y-166727804D02*
X113232498Y-166727846D01*
X79129635Y-167214030D02*
X79131341Y-167213869D01*
X129481688Y-63573745D02*
X129449047Y-63571605D01*
X67909672Y-136164088D02*
X67908018Y-136168474D01*
X70500000Y-163700000D02*
X70343368Y-163689733D01*
X131360003Y-134389789D02*
X131359589Y-134388771D01*
X68407745Y-134945941D02*
X68405274Y-134951764D01*
X98972634Y-166452023D02*
X98973097Y-166452021D01*
X87751745Y-166690284D02*
X87752078Y-166690271D01*
X66477318Y-140160232D02*
X66477120Y-140160807D01*
X134563527Y-143868021D02*
X134563265Y-143866285D01*
X134681384Y-160640036D02*
X134681448Y-160638980D01*
X65969286Y-165479307D02*
X65970127Y-165482895D01*
X68242124Y-167617954D02*
X68247765Y-167619182D01*
X134616605Y-161617066D02*
X134617414Y-161606984D01*
X69546388Y-167796184D02*
X69549636Y-167796466D01*
X131667623Y-135123219D02*
X131667242Y-135122323D01*
X99002020Y-166451912D02*
X99003550Y-166451909D01*
X93858399Y-166515256D02*
X93859641Y-166515232D01*
X65134872Y-155440381D02*
X65134888Y-155440982D01*
X65909266Y-141823592D02*
X65851912Y-142009187D01*
X79134469Y-167213576D02*
X79134989Y-167213527D01*
X84823508Y-166809743D02*
X84824591Y-166809693D01*
X70959220Y-163608655D02*
X70810582Y-163659110D01*
X133883296Y-165995954D02*
X133885144Y-165990609D01*
X130240110Y-64028326D02*
X130221937Y-64001128D01*
X67974396Y-135994496D02*
X67973908Y-135995769D01*
X78190153Y-167305001D02*
X78191028Y-167304915D01*
X66794709Y-139217350D02*
X66793355Y-139221318D01*
X133532874Y-140189787D02*
X133532677Y-140189218D01*
X123627623Y-167485166D02*
X123627838Y-167485187D01*
X88731611Y-166655452D02*
X88733287Y-166655394D01*
X65113082Y-154422819D02*
X65113146Y-154426354D01*
X133280173Y-139438697D02*
X133279954Y-139438048D01*
X112247921Y-166690271D02*
X112248254Y-166690284D01*
X129705780Y-63618319D02*
X129674478Y-63608824D01*
X116516549Y-64391055D02*
X116511220Y-64423328D01*
X129189417Y-161340889D02*
X129343368Y-161310266D01*
X131708726Y-167628351D02*
X131714383Y-167627188D01*
X65419602Y-162051469D02*
X65419762Y-162053266D01*
X68794300Y-133996873D02*
X68793679Y-133998508D01*
X65093858Y-152329573D02*
X65093861Y-152332443D01*
X134278382Y-142464720D02*
X134274436Y-142450183D01*
X134900418Y-153381285D02*
X134900447Y-153378134D01*
X66138221Y-141133091D02*
X66138009Y-141133711D01*
X126128934Y-167715053D02*
X126137416Y-167715756D01*
X104080268Y-166479795D02*
X104080666Y-166479800D01*
X82975671Y-166902937D02*
X82980953Y-166902623D01*
X116804836Y-63851706D02*
X116781706Y-63874836D01*
X67191897Y-138092474D02*
X67113800Y-138308468D01*
X104101627Y-166480098D02*
X104102952Y-166480118D01*
X131381637Y-134442892D02*
X131381222Y-134441880D01*
X132163564Y-136359160D02*
X132163549Y-136359121D01*
X134660401Y-144624191D02*
X134659261Y-144613637D01*
X67093338Y-167151395D02*
X67126314Y-167173476D01*
X70189417Y-163659110D02*
X70040779Y-163608655D01*
X127598536Y-167816109D02*
X127613880Y-167816980D01*
X134886917Y-154422819D02*
X134886926Y-154422290D01*
X69460769Y-161899999D02*
X69547975Y-161769486D01*
X134221388Y-142258387D02*
X134217692Y-142245412D01*
X90753019Y-166591658D02*
X90754129Y-166591625D01*
X103048139Y-166466945D02*
X103048557Y-166466949D01*
X68719517Y-134190842D02*
X68717794Y-134195218D01*
X89736966Y-166622364D02*
X89737313Y-166622353D01*
X132643583Y-137643353D02*
X132642956Y-137641653D01*
X66139598Y-141129074D02*
X66138221Y-141133091D01*
X65380827Y-161583801D02*
X65381574Y-161593884D01*
X134661837Y-144637888D02*
X134661674Y-144636310D01*
X65103555Y-150301869D02*
X65103523Y-150304674D01*
X132240982Y-136565170D02*
X132163819Y-136359839D01*
X65610973Y-142912342D02*
X65607057Y-142929764D01*
X100009846Y-166450022D02*
X100010320Y-166450022D01*
X132805062Y-138084105D02*
X132726294Y-137868248D01*
X67194937Y-138084105D02*
X67194815Y-138084438D01*
X66143004Y-141119199D02*
X66142788Y-141119823D01*
X65126964Y-148902341D02*
X65126953Y-148902824D01*
X133386962Y-166776754D02*
X133464074Y-166704555D01*
X65149076Y-148063286D02*
X65148997Y-148065915D01*
X68562667Y-134578009D02*
X68562368Y-134578728D01*
X79105084Y-167216358D02*
X79105598Y-167216309D01*
X130361175Y-64295521D02*
X130351680Y-64264219D01*
X78191314Y-167304887D02*
X78192717Y-167304751D01*
X94890865Y-166495908D02*
X94891248Y-166495901D01*
X65422323Y-162080926D02*
X65460287Y-162469106D01*
X108224521Y-166563564D02*
X108224877Y-166563573D01*
X66384984Y-140426055D02*
X66384888Y-140426329D01*
X133696624Y-140659088D02*
X133696601Y-140659021D01*
X116958325Y-63729889D02*
X116931128Y-63748061D01*
X131355347Y-134378293D02*
X131353994Y-134374937D01*
X88748988Y-166654856D02*
X88750057Y-166654820D01*
X120865010Y-167213527D02*
X120865530Y-167213576D01*
X84847134Y-166808685D02*
X85777960Y-166768241D01*
X134890047Y-149819372D02*
X134890001Y-149816467D01*
X95898776Y-166480092D02*
X95900776Y-166480062D01*
X81934828Y-166973292D02*
X81939121Y-166972962D01*
X96928172Y-166467203D02*
X96930248Y-166467179D01*
X68803294Y-133972984D02*
X68802682Y-133974621D01*
X65521233Y-143353831D02*
X65520803Y-143356122D01*
X74658427Y-167647758D02*
X74664348Y-167647231D01*
X117225521Y-63608824D02*
X117194219Y-63618319D01*
X129919222Y-167830658D02*
X129937743Y-167829783D01*
X133615015Y-140426055D02*
X133614693Y-140425133D01*
X116146071Y-166854778D02*
X116147147Y-166854836D01*
X65246558Y-159075245D02*
X65246698Y-159078934D01*
X113249666Y-166728525D02*
X113249997Y-166728539D01*
X118060878Y-166972962D02*
X118065171Y-166973292D01*
X65179464Y-156962177D02*
X65179468Y-156962308D01*
X134900476Y-153374554D02*
X134900480Y-153374071D01*
X65558871Y-143156440D02*
X65558316Y-143159231D01*
X131232450Y-134067142D02*
X131231826Y-134065508D01*
X134904609Y-151300928D02*
X134904593Y-151298140D01*
X98977824Y-166452000D02*
X98996796Y-166451928D01*
X106141600Y-166515256D02*
X106141969Y-166515263D01*
X133521697Y-140157367D02*
X133521501Y-140156797D01*
X65267280Y-159594216D02*
X65267474Y-159598895D01*
X131512393Y-134757304D02*
X131454489Y-134619231D01*
X66638434Y-139683583D02*
X66638234Y-139684184D01*
X131742380Y-135299621D02*
X131742215Y-135299228D01*
X65611564Y-142909747D02*
X65610973Y-142912342D01*
X65161297Y-147676828D02*
X65161287Y-147677137D01*
X134906137Y-152332911D02*
X134906138Y-152332443D01*
X134601907Y-144139234D02*
X134600405Y-144127807D01*
X65562638Y-143137766D02*
X65558871Y-143156440D01*
X67837163Y-136357223D02*
X67837111Y-136357359D01*
X132162721Y-136356916D02*
X132162737Y-136356911D01*
X134753301Y-159078934D02*
X134753441Y-159075245D01*
X111270121Y-166655513D02*
X112243106Y-166690097D01*
X134799041Y-146612627D02*
X134799013Y-146611980D01*
X134376895Y-163659412D02*
X134378783Y-163648475D01*
X134850819Y-148059906D02*
X134838712Y-147677137D01*
X119906964Y-167124908D02*
X119907734Y-167124975D01*
X132163806Y-136359803D02*
X132163747Y-136359647D01*
X128298380Y-167846212D02*
X128301384Y-167846296D01*
X115173408Y-166809602D02*
X115175081Y-166809678D01*
X68332376Y-135123219D02*
X68332335Y-135123318D01*
X67355608Y-137645546D02*
X67276372Y-137860969D01*
X134882160Y-149349199D02*
X134882151Y-149348745D01*
X67275509Y-137863319D02*
X67275398Y-137863622D01*
X82885125Y-166908548D02*
X82890406Y-166908199D01*
X130393048Y-64455758D02*
X130388779Y-64423328D01*
X65098707Y-150793241D02*
X65098681Y-150796050D01*
X134441128Y-143156440D02*
X134437361Y-143137766D01*
X130780955Y-167766677D02*
X130784764Y-167766319D01*
X134838641Y-147674942D02*
X134838632Y-147674648D01*
X129937743Y-167829783D02*
X129940508Y-167829645D01*
X83919487Y-166851445D02*
X83924876Y-166851185D01*
X68761092Y-134083954D02*
X68759011Y-134089337D01*
X112243427Y-166690109D02*
X112244494Y-166690147D01*
X85796591Y-166767453D02*
X85796918Y-166767439D01*
X134862683Y-148476090D02*
X134862590Y-148472554D01*
X134320916Y-163957636D02*
X134338894Y-163872432D01*
X134894767Y-153896384D02*
X134894772Y-153895905D01*
X105133231Y-166496323D02*
X105134496Y-166496347D01*
X116080512Y-166851445D02*
X116081588Y-166851498D01*
X82980953Y-166902623D02*
X82982552Y-166902529D01*
X68722631Y-134182899D02*
X68720037Y-134189518D01*
X65291882Y-145122314D02*
X65291094Y-145131371D01*
X65422150Y-162079129D02*
X65422323Y-162080926D01*
X133046758Y-138759762D02*
X132970615Y-138544414D01*
X65210576Y-158014072D02*
X65210584Y-158014331D01*
X65099622Y-153385323D02*
X65105227Y-153895905D01*
X65103518Y-150305121D02*
X65103488Y-150307949D01*
X72403750Y-167815974D02*
X73072609Y-167774966D01*
X134708936Y-160116785D02*
X134708978Y-160115916D01*
X134388435Y-142909747D02*
X134384425Y-142892343D01*
X132018541Y-135976222D02*
X132018045Y-135974951D01*
X134217692Y-142245412D02*
X134217136Y-142243477D01*
X133941212Y-141366071D02*
X133940914Y-141365178D01*
X71608655Y-162040779D02*
X71659110Y-162189417D01*
X86753683Y-166728392D02*
X86767173Y-166727859D01*
X130403511Y-167800227D02*
X130425312Y-167798549D01*
X134681448Y-160638980D02*
X134681861Y-160631950D01*
X134030713Y-165479307D02*
X134070292Y-165307727D01*
X65216123Y-146286273D02*
X65215861Y-146291539D01*
X65117848Y-149348745D02*
X65117839Y-149349199D01*
X65187096Y-146948941D02*
X65186964Y-146952402D01*
X66793355Y-139221318D02*
X66793155Y-139221906D01*
X117450952Y-63571605D02*
X117418311Y-63573745D01*
X134826121Y-147305652D02*
X134826107Y-147305247D01*
X105134496Y-166496347D02*
X105134886Y-166496354D01*
X125850000Y-124991281D02*
X125474586Y-125176414D01*
X66884620Y-167000048D02*
X66910939Y-167020278D01*
X65267251Y-159593505D02*
X65267280Y-159594216D01*
X94892560Y-166495880D02*
X94892949Y-166495874D01*
X65246883Y-159083699D02*
X65267251Y-159593505D01*
X65164487Y-156446716D02*
X65164507Y-156447426D01*
X134894671Y-153903985D02*
X134894678Y-153903500D01*
X66642164Y-139672380D02*
X66642096Y-139672585D01*
X65721034Y-142466891D02*
X65717154Y-142481445D01*
X133615586Y-140427689D02*
X133615111Y-140426329D01*
X127613880Y-167816980D02*
X127616171Y-167817104D01*
X86751986Y-166728459D02*
X86752303Y-166728446D01*
X115154280Y-166808747D02*
X115154612Y-166808762D01*
X131565461Y-167656931D02*
X131708726Y-167628351D01*
X134882286Y-149355786D02*
X134882229Y-149352727D01*
X67765223Y-167486282D02*
X67771787Y-167488523D01*
X112246826Y-166690231D02*
X112247921Y-166690271D01*
X68562368Y-134578728D02*
X68550167Y-134608077D01*
X111266365Y-166655382D02*
X111266712Y-166655394D01*
X131241620Y-134090967D02*
X131240988Y-134089337D01*
X65434746Y-143879596D02*
X65434490Y-143881334D01*
X87737957Y-166690792D02*
X87738287Y-166690780D01*
X132949104Y-167122241D02*
X132981545Y-167099387D01*
X133861990Y-141133711D02*
X133861778Y-141133091D01*
X66563813Y-139906951D02*
X66563519Y-139907822D01*
X101024615Y-166452010D02*
X101026902Y-166452021D01*
X65249529Y-145694319D02*
X65249079Y-145701531D01*
X66550147Y-139947366D02*
X66549852Y-139948235D01*
X65460287Y-162469106D02*
X65460502Y-162471254D01*
X68408380Y-134944444D02*
X68408098Y-134945110D01*
X134906123Y-152339115D02*
X134906131Y-152336207D01*
X65109854Y-149826129D02*
X65109848Y-149826571D01*
X65782863Y-142243477D02*
X65782307Y-142245412D01*
X133357903Y-139672585D02*
X133357835Y-139672380D01*
X67679952Y-136775637D02*
X67679937Y-136775677D01*
X109222937Y-166590965D02*
X109224068Y-166590996D01*
X122733217Y-167396951D02*
X122733281Y-167396971D01*
X92823311Y-166537739D02*
X92824495Y-166537712D01*
X133543662Y-166619680D02*
X133568789Y-166590421D01*
X66551124Y-139944484D02*
X66550147Y-139947366D01*
X117002554Y-166901675D02*
X117007842Y-166901973D01*
X65421017Y-162067099D02*
X65422150Y-162079129D01*
X130348528Y-163348528D02*
X130230513Y-163452024D01*
X134602129Y-144140945D02*
X134601907Y-144139234D01*
X68331952Y-135124219D02*
X68331924Y-135124287D01*
X134397343Y-142949809D02*
X134393519Y-142932363D01*
X134618311Y-161595393D02*
X134618425Y-161593884D01*
X108224877Y-166563573D02*
X109222596Y-166590955D01*
X113232498Y-166727846D02*
X113232826Y-166727859D01*
X73112485Y-167772253D02*
X73114206Y-167772126D01*
X117093117Y-166907146D02*
X117098398Y-166907478D01*
X65250135Y-145684946D02*
X65250064Y-145686021D01*
X65473331Y-143632198D02*
X65473053Y-143633923D01*
X89737313Y-166622353D02*
X89738428Y-166622316D01*
X65093758Y-151814248D02*
X65093754Y-151817111D01*
X127450000Y-122219999D02*
X127422623Y-122637683D01*
X117385758Y-63576951D02*
X117353328Y-63581220D01*
X96950068Y-166466964D02*
X96951442Y-166466949D01*
X133283301Y-139448008D02*
X133281849Y-139443676D01*
X66303532Y-140658637D02*
X66303531Y-140658642D01*
X65477435Y-143607368D02*
X65475506Y-143618914D01*
X131523288Y-134783166D02*
X131522688Y-134781745D01*
X132969259Y-138540590D02*
X132968208Y-138537636D01*
X134070912Y-165305004D02*
X134075010Y-165286775D01*
X65929707Y-165307727D02*
X65969286Y-165479307D01*
X110239055Y-166621608D02*
X110240178Y-166621642D01*
X71724764Y-167845489D02*
X71744907Y-167844746D01*
X65122722Y-154926638D02*
X65122733Y-154927211D01*
X134598636Y-144114677D02*
X134598402Y-144112965D01*
X65117705Y-149356228D02*
X65117651Y-149359282D01*
X66065669Y-141345650D02*
X66063663Y-141351564D01*
X65149143Y-155939181D02*
X65164214Y-156437544D01*
X107195859Y-166538186D02*
X107197066Y-166538216D01*
X122649999Y-124991281D02*
X122301963Y-124758730D01*
X101000753Y-166451920D02*
X101001223Y-166451922D01*
X65161358Y-147674942D02*
X65161297Y-147676828D01*
X67355691Y-137645320D02*
X67355608Y-137645546D01*
X68767549Y-134067142D02*
X68765487Y-134072529D01*
X65317235Y-160615786D02*
X65317620Y-160622831D01*
X67519771Y-137203397D02*
X67519710Y-137203561D01*
X134148606Y-142010879D02*
X134148087Y-142009187D01*
X116737778Y-63923303D02*
X116717027Y-63948588D01*
X66637578Y-139686151D02*
X66637510Y-139686354D01*
X126899080Y-167773082D02*
X126900805Y-167773203D01*
X134731068Y-145412431D02*
X134730466Y-145404274D01*
X65194713Y-157487381D02*
X65194739Y-157488259D01*
X133746258Y-166320768D02*
X133787444Y-166236517D01*
X65774419Y-142273312D02*
X65773880Y-142275248D01*
X65164234Y-156438208D02*
X65164239Y-156438366D01*
X124667683Y-119047376D02*
X125078220Y-119129037D01*
X131383013Y-134446241D02*
X131381637Y-134442892D01*
X65318077Y-160630901D02*
X65318138Y-160631950D01*
X107176688Y-166537739D02*
X107177051Y-166537748D01*
X68478181Y-167665175D02*
X68511828Y-167671175D01*
X65318615Y-160640036D02*
X65347067Y-161106841D01*
X68258859Y-135296676D02*
X68257784Y-135299228D01*
X80984493Y-167047844D02*
X80987877Y-167047555D01*
X66950426Y-138767765D02*
X66949282Y-138771031D01*
X82901601Y-166907478D02*
X82906882Y-166907146D01*
X131523466Y-134783587D02*
X131523288Y-134783166D01*
X131595435Y-134953434D02*
X131595370Y-134953281D01*
X132163549Y-136359121D02*
X132162892Y-136357371D01*
X96926367Y-166467224D02*
X96927748Y-166467208D01*
X69571434Y-167798288D02*
X69574687Y-167798549D01*
X85779404Y-166768179D02*
X85779737Y-166768164D01*
X132642956Y-137641653D02*
X132642847Y-137641358D01*
X65383394Y-161617066D02*
X65383517Y-161618568D01*
X65246384Y-159070482D02*
X65246403Y-159071021D01*
X134872948Y-148898603D02*
X134862799Y-148480668D01*
X134730374Y-145403049D02*
X134729751Y-145394889D01*
X88734735Y-166655344D02*
X88735057Y-166655333D01*
X134768407Y-145992960D02*
X134768065Y-145986711D01*
X66951747Y-138764002D02*
X66950592Y-138767291D01*
X66551421Y-139943608D02*
X66551124Y-139944484D01*
X83930578Y-166850916D02*
X84823175Y-166809758D01*
X134732525Y-159598895D02*
X134732719Y-159594216D01*
X134862465Y-148467997D02*
X134851102Y-148069331D01*
X67600326Y-136987959D02*
X67600026Y-136988757D01*
X133125912Y-138986539D02*
X133125722Y-138985993D01*
X67276372Y-137860969D02*
X67276254Y-137861288D01*
X109227913Y-166591105D02*
X109241998Y-166591511D01*
X133534915Y-140195677D02*
X133534716Y-140195102D01*
X134906132Y-152335760D02*
X134906137Y-152332911D01*
X65371138Y-144349843D02*
X65369758Y-144360915D01*
X103071827Y-166467203D02*
X103072251Y-166467208D01*
X106144186Y-166515306D02*
X106145408Y-166515331D01*
X133936635Y-141352448D02*
X133936336Y-141351564D01*
X97976499Y-166457624D02*
X97977947Y-166457614D01*
X134887051Y-154414720D02*
X134887059Y-154414196D01*
X133780309Y-140898215D02*
X133780205Y-140897916D01*
X68257619Y-135299621D02*
X68190815Y-135458686D01*
X128547975Y-163230513D02*
X128460769Y-163100000D01*
X102046907Y-166457800D02*
X102048361Y-166457813D01*
X121159037Y-123048220D02*
X121077376Y-122637683D01*
X110259206Y-166622240D02*
X110259546Y-166622251D01*
X102017086Y-166457583D02*
X102017527Y-166457585D01*
X68872358Y-133784952D02*
X68871657Y-133786902D01*
X107195507Y-166538178D02*
X107195859Y-166538186D01*
X65112940Y-154414196D02*
X65112948Y-154414720D01*
X65095374Y-151304163D02*
X65095372Y-151304575D01*
X112244494Y-166690147D02*
X112244835Y-166690159D01*
X130398394Y-64520952D02*
X130396254Y-64488311D01*
X133696624Y-140659088D02*
X133696624Y-140659088D01*
X134750401Y-145693246D02*
X134749935Y-145686021D01*
X131304160Y-134250765D02*
X131282727Y-134196542D01*
X131279962Y-134189518D02*
X131277368Y-134182899D01*
X65093857Y-152329137D02*
X65093858Y-152329573D01*
X65267942Y-159609689D02*
X65267972Y-159610373D01*
X88733287Y-166655394D02*
X88733634Y-166655382D01*
X134904229Y-152854959D02*
X134904232Y-152854482D01*
X80046157Y-167129090D02*
X80048689Y-167128861D01*
X65747527Y-164366387D02*
X65748210Y-164370194D01*
X134212825Y-142228588D02*
X134160343Y-142049862D01*
X67836435Y-136359160D02*
X67836381Y-136359302D01*
X94865113Y-166496354D02*
X94865503Y-166496347D01*
X134080197Y-165263082D02*
X134084091Y-165244809D01*
X130369641Y-64327117D02*
X130361175Y-64295521D01*
X67438039Y-137422916D02*
X67437965Y-137423116D01*
X133803919Y-166200358D02*
X133819735Y-166163689D01*
X133058614Y-167043233D02*
X133085118Y-167023276D01*
X68829703Y-167720666D02*
X68859236Y-167724509D01*
X122732395Y-167396383D02*
X122732487Y-167396392D01*
X112261712Y-166690780D02*
X112262042Y-166690792D01*
X67556771Y-167406269D02*
X67595075Y-167422171D01*
X82908481Y-166907047D02*
X82974070Y-166903034D01*
X133923965Y-165871874D02*
X133925630Y-165866472D01*
X80049459Y-167128792D02*
X80081031Y-167125964D01*
X91775478Y-166563564D02*
X91776661Y-166563532D01*
X65210640Y-158016172D02*
X65210648Y-158016414D01*
X78193834Y-167304642D02*
X78194099Y-167304616D01*
X134784138Y-146291539D02*
X134783876Y-146286273D01*
X65563800Y-163294773D02*
X65567067Y-163315734D01*
X65863761Y-164992442D02*
X65866337Y-165005381D01*
X74665234Y-167647152D02*
X74671156Y-167646614D01*
X67679763Y-136776142D02*
X67600721Y-136986903D01*
X104076128Y-166479739D02*
X104076533Y-166479744D01*
X113251439Y-166728597D02*
X114198249Y-166767239D01*
X84828037Y-166809537D02*
X84828368Y-166809522D01*
X132495221Y-167383109D02*
X132501931Y-167380030D01*
X134904232Y-152854482D02*
X134904245Y-152851500D01*
X66642096Y-139672585D02*
X66641893Y-139673197D01*
X87733462Y-166690961D02*
X87734578Y-166690918D01*
X133448578Y-139943608D02*
X133436480Y-139907822D01*
X65232339Y-145979529D02*
X65231986Y-145985778D01*
X66303375Y-140659088D02*
X66303375Y-140659088D01*
X65847436Y-142023856D02*
X65844029Y-142035162D01*
X66479345Y-140154324D02*
X66479148Y-140154901D01*
X134436676Y-163291646D02*
X134439810Y-163270666D01*
X65210779Y-158020579D02*
X65227649Y-158543052D01*
X131451411Y-134611867D02*
X131451112Y-134611151D01*
X134873200Y-148909831D02*
X134873130Y-148906564D01*
X68434538Y-167656931D02*
X68439551Y-167657904D01*
X65103601Y-150298147D02*
X65103596Y-150298592D01*
X134826016Y-147302600D02*
X134826002Y-147302229D01*
X132887299Y-138311518D02*
X132886349Y-138308882D01*
X133054641Y-167046194D02*
X133058614Y-167043233D01*
X66465283Y-140195102D02*
X66465084Y-140195677D01*
X76372376Y-167485166D02*
X76374119Y-167484994D01*
X65267503Y-159599602D02*
X65267704Y-159604296D01*
X87755164Y-166690159D02*
X87755505Y-166690147D01*
X133938931Y-141359260D02*
X133938632Y-141358371D01*
X65148985Y-148066304D02*
X65148908Y-148068936D01*
X133358106Y-139673197D02*
X133357903Y-139672585D01*
X131668075Y-135124287D02*
X131668047Y-135124219D01*
X130735565Y-133247999D02*
X130547766Y-133111778D01*
X133948532Y-165790586D02*
X133957261Y-165760692D01*
X134838486Y-147670259D02*
X134826121Y-147305652D01*
X67031791Y-138537636D02*
X67030740Y-138540590D01*
X66087399Y-165908012D02*
X66089125Y-165913396D01*
X65137316Y-148476090D02*
X65137302Y-148476629D01*
X65616180Y-142889747D02*
X65615574Y-142892343D01*
X68113159Y-135646516D02*
X68112816Y-135647360D01*
X67653874Y-167445584D02*
X67699461Y-167462971D01*
X134904245Y-152851500D02*
X134904247Y-152851058D01*
X134478766Y-143353831D02*
X134445884Y-143180722D01*
X130303626Y-64142616D02*
X130289158Y-64113279D01*
X108199931Y-166562923D02*
X108201073Y-166562952D01*
X65095808Y-152861364D02*
X65095811Y-152861834D01*
X131276850Y-134181575D02*
X131275145Y-134177208D01*
X133873074Y-166024845D02*
X133875330Y-166018573D01*
X127021281Y-120619999D02*
X127206414Y-120995413D01*
X116522930Y-64358973D02*
X116516549Y-64391055D01*
X134130647Y-165020240D02*
X134133273Y-165007312D01*
X134904593Y-151298140D02*
X134904591Y-151297740D01*
X88753498Y-166654705D02*
X88753835Y-166654694D01*
X65291063Y-160116785D02*
X65291347Y-160122588D01*
X129856720Y-63680841D02*
X129827383Y-63666373D01*
X134873046Y-148902824D02*
X134873035Y-148902341D01*
X82007265Y-166967966D02*
X82008568Y-166967872D01*
X66389649Y-166538065D02*
X66431210Y-166590421D01*
X121293585Y-120995413D02*
X121478718Y-120619999D01*
X67836252Y-136359647D02*
X67836193Y-136359803D01*
X68616986Y-134446241D02*
X68616568Y-134447257D01*
X132184205Y-167503208D02*
X132228212Y-167488523D01*
X72348549Y-167818851D02*
X72350843Y-167818747D01*
X65465805Y-162520901D02*
X65506351Y-162872587D01*
X65463966Y-162504363D02*
X65465562Y-162518750D01*
X115156650Y-166808852D02*
X115157721Y-166808899D01*
X65929087Y-165305004D02*
X65929707Y-165307727D01*
X102018986Y-166457594D02*
X102019420Y-166457597D01*
X115157721Y-166808899D02*
X115158046Y-166808914D01*
X125078220Y-125310962D02*
X124667683Y-125392623D01*
X113246650Y-166728405D02*
X113247696Y-166728446D01*
X130399732Y-64561822D02*
X130398394Y-64520952D01*
X69391344Y-162959220D02*
X69340889Y-162810582D01*
X85800036Y-166767309D02*
X85800356Y-166767296D01*
X67837278Y-136356916D02*
X67837202Y-136357116D01*
X134213387Y-142230518D02*
X134212825Y-142228588D01*
X133357835Y-139672380D02*
X133285179Y-139453636D01*
X65117779Y-149352255D02*
X65117770Y-149352727D01*
X66384004Y-140428857D02*
X66383909Y-140429128D01*
X65508745Y-162892499D02*
X65509064Y-162895085D01*
X65340738Y-144613637D02*
X65339598Y-144624191D01*
X132022327Y-135985985D02*
X132021837Y-135984716D01*
X68717794Y-134195218D02*
X68717272Y-134196542D01*
X131738656Y-135290793D02*
X131738494Y-135290410D01*
X85779737Y-166768164D02*
X85781390Y-166768094D01*
X67029384Y-138544414D02*
X66953241Y-138759762D01*
X65988627Y-141576818D02*
X65988247Y-141577971D01*
X65122733Y-154927211D02*
X65122810Y-154931014D01*
X132480228Y-137203397D02*
X132479805Y-137202264D01*
X95925595Y-166479717D02*
X96925953Y-166467230D01*
X133522681Y-140160232D02*
X133521697Y-140157367D01*
X132014727Y-135966467D02*
X132014229Y-135965200D01*
X132346125Y-167445584D02*
X132352910Y-167442940D01*
X134075614Y-165284053D02*
X134079609Y-165265806D01*
X68802682Y-133974621D02*
X68800655Y-133980029D01*
X132560833Y-137419883D02*
X132560764Y-137419699D01*
X132076806Y-167536598D02*
X132082949Y-167534778D01*
X111246501Y-166654705D02*
X111247596Y-166654741D01*
X131208581Y-167715338D02*
X131238040Y-167710971D01*
X67837183Y-136357109D02*
X67837163Y-136357223D01*
X97980579Y-166457597D02*
X97981013Y-166457594D01*
X134522273Y-143605643D02*
X134488754Y-143409230D01*
X134490935Y-162895085D02*
X134491254Y-162892499D01*
X134835517Y-156446545D02*
X134835532Y-156446046D01*
X132021837Y-135984716D02*
X132018541Y-135976222D01*
X67836193Y-136359803D02*
X67836180Y-136359839D01*
X89742238Y-166622194D02*
X89756028Y-166621759D01*
X134577849Y-162079129D02*
X134578982Y-162067099D01*
X133779369Y-140895513D02*
X133778635Y-140893407D01*
X65289256Y-145153554D02*
X65270342Y-145393669D01*
X131197317Y-133974621D02*
X131196705Y-133972984D01*
X119962537Y-167129885D02*
X120862796Y-167213321D01*
X65339598Y-144624191D02*
X65339431Y-144625760D01*
X67970583Y-167550261D02*
X68011914Y-167561643D01*
X85777960Y-166768241D02*
X85778285Y-166768227D01*
X131595085Y-134952612D02*
X131595016Y-134952448D01*
X122733264Y-167396469D02*
X122733217Y-167396951D01*
X65342262Y-144599943D02*
X65342084Y-144601519D01*
X83913780Y-166851727D02*
X83914857Y-166851673D01*
X65916170Y-141801585D02*
X65913151Y-141811152D01*
X66914881Y-167023276D02*
X66941385Y-167043233D01*
X134195726Y-164680419D02*
X134251687Y-164370757D01*
X129656631Y-163689733D02*
X129500000Y-163700000D01*
X83852852Y-166854836D02*
X83853928Y-166854778D01*
X109243797Y-166591563D02*
X109245530Y-166591614D01*
X65174092Y-147299551D02*
X65173997Y-147302229D01*
X111251011Y-166654856D02*
X111251346Y-166654868D01*
X132404924Y-167422171D02*
X132443228Y-167406269D01*
X68621274Y-134435780D02*
X68620858Y-134436797D01*
X123625638Y-167484970D02*
X123625880Y-167484994D01*
X101022634Y-166452002D02*
X101024148Y-166452008D01*
X66531082Y-166699875D02*
X66535925Y-166704555D01*
X66672231Y-166828368D02*
X66676962Y-166832372D01*
X65098681Y-150796050D02*
X65098678Y-150796448D01*
X65210584Y-158014331D02*
X65210640Y-158016172D01*
X106164883Y-166515728D02*
X106165253Y-166515735D01*
X129449047Y-63571605D02*
X129408177Y-63570267D01*
X131449832Y-134608077D02*
X131437631Y-134578728D01*
X131512573Y-134757735D02*
X131512393Y-134757304D01*
X134890054Y-149819829D02*
X134890047Y-149819372D01*
X134023276Y-165510497D02*
X134024144Y-165506914D01*
X78176113Y-167306377D02*
X78177443Y-167306246D01*
X68484993Y-134763520D02*
X68484816Y-134763940D01*
X118947723Y-167042253D02*
X118952858Y-167042665D01*
X65135002Y-155445126D02*
X65135018Y-155445727D01*
X116511220Y-64423328D02*
X116506951Y-64455758D01*
X105129267Y-166496252D02*
X105130517Y-166496274D01*
X108204700Y-166563044D02*
X108205049Y-166563053D01*
X65231934Y-145986711D02*
X65231592Y-145992960D01*
X133534716Y-140195102D02*
X133534060Y-140193210D01*
X67112700Y-138311518D02*
X67112560Y-138311906D01*
X127340962Y-121391779D02*
X127422623Y-121802316D01*
X65477726Y-143605643D02*
X65477435Y-143607368D01*
X96930248Y-166467179D02*
X96930673Y-166467174D01*
X134850999Y-155934309D02*
X134864981Y-155445727D01*
X134772247Y-158546172D02*
X134772337Y-158543465D01*
X66269570Y-166350557D02*
X66309116Y-166419276D01*
X125342455Y-167647836D02*
X125348373Y-167648352D01*
X134772233Y-158546605D02*
X134772247Y-158546172D01*
X87734578Y-166690918D02*
X87734904Y-166690906D01*
X134789359Y-158016172D02*
X134789415Y-158014331D01*
X120894401Y-167216309D02*
X120894915Y-167216358D01*
X89760944Y-166621608D02*
X89761271Y-166621598D01*
X109224413Y-166591006D02*
X109226140Y-166591055D01*
X65976723Y-165510497D02*
X65982625Y-165534465D01*
X77266120Y-167396530D02*
X77266679Y-167396230D01*
X129040779Y-161391344D02*
X129189417Y-161340889D01*
X68184539Y-135473744D02*
X68121240Y-135626780D01*
X127633808Y-167818018D02*
X127649156Y-167818747D01*
X129767368Y-63640356D02*
X129736754Y-63628834D01*
X134835487Y-156447591D02*
X134835492Y-156447426D01*
X134876985Y-154940298D02*
X134876998Y-154939733D01*
X67356416Y-137643353D02*
X67356329Y-137643590D01*
X66737770Y-166883175D02*
X66757802Y-166899656D01*
X134825894Y-147299173D02*
X134825797Y-147296512D01*
X70040983Y-167828669D02*
X70059491Y-167829645D01*
X65747427Y-164365832D02*
X65747527Y-164366387D01*
X66548069Y-139953475D02*
X66547084Y-139956361D01*
X119000487Y-167046579D02*
X119001517Y-167046664D01*
X65200746Y-146617624D02*
X65187433Y-146940439D01*
X80092265Y-167124975D02*
X80093035Y-167124908D01*
X67519710Y-137203561D02*
X67519328Y-137204586D01*
X69899999Y-163539230D02*
X69769486Y-163452024D01*
X65347682Y-161116543D02*
X65347763Y-161117800D01*
X66076034Y-165871874D02*
X66087399Y-165908012D01*
X119911048Y-167125264D02*
X119914908Y-167125604D01*
X71721758Y-167845590D02*
X71724764Y-167845489D01*
X121077376Y-122637683D02*
X121049999Y-122219999D01*
X89756028Y-166621759D02*
X89756366Y-166621749D01*
X65312634Y-144890965D02*
X65312501Y-144892432D01*
X122301963Y-119681269D02*
X122649999Y-119448718D01*
X131131370Y-133795283D02*
X131130664Y-133793335D01*
X83924876Y-166851185D02*
X83925952Y-166851134D01*
X105113057Y-166495973D02*
X105128883Y-166496246D01*
X132241001Y-136565221D02*
X132240982Y-136565170D01*
X134805289Y-157487290D02*
X134805314Y-157486404D01*
X66871393Y-138994301D02*
X66871203Y-138994850D01*
X131101733Y-133711942D02*
X131099124Y-133704516D01*
X67194815Y-138084438D02*
X67193963Y-138086778D01*
X65909710Y-141822162D02*
X65909266Y-141823592D01*
X133885144Y-165990609D02*
X133897323Y-165954738D01*
X134904591Y-151297740D02*
X134901371Y-150802896D01*
X80081805Y-167125895D02*
X80084328Y-167125671D01*
X133119294Y-166997009D02*
X133192703Y-166939421D01*
X65250690Y-145676657D02*
X65250617Y-145677728D01*
X126512741Y-119957258D02*
X126788730Y-120271963D01*
X134565253Y-143879596D02*
X134563527Y-143868021D01*
X134767660Y-145979529D02*
X134767607Y-145978604D01*
X131595628Y-134953889D02*
X131595435Y-134953434D01*
X68898266Y-133711942D02*
X68897473Y-133714192D01*
X65149000Y-155934309D02*
X65149004Y-155934449D01*
X134349361Y-163815884D02*
X134376611Y-163661042D01*
X68639996Y-134389789D02*
X68623053Y-134431421D01*
X108199571Y-166562914D02*
X108199931Y-166562923D01*
X66116703Y-165995954D02*
X66124669Y-166018573D01*
X65109998Y-149816467D02*
X65109952Y-149819372D01*
X121807282Y-167304751D02*
X121808685Y-167304887D01*
X113246316Y-166728392D02*
X113246650Y-166728405D01*
X65149091Y-155937445D02*
X65149098Y-155937663D01*
X134075010Y-165286775D02*
X134075614Y-165284053D01*
X65093751Y-151820354D02*
X65093751Y-151820780D01*
X65748312Y-164370757D02*
X65804273Y-164680419D01*
X114220262Y-166768164D02*
X114220595Y-166768179D01*
X123832316Y-125392623D02*
X123421779Y-125310962D01*
X65912702Y-141812581D02*
X65909710Y-141822162D01*
X65514757Y-143389214D02*
X65514348Y-143391516D01*
X113229162Y-166727716D02*
X113229501Y-166727729D01*
X132773734Y-167236383D02*
X132811876Y-167212923D01*
X68404914Y-134952612D02*
X68404629Y-134953281D01*
X73100919Y-167773082D02*
X73112485Y-167772253D01*
X134731157Y-145413658D02*
X134731068Y-145412431D01*
X106163003Y-166515688D02*
X106164883Y-166515728D01*
X130843367Y-167760329D02*
X130868838Y-167757442D01*
X68042576Y-135821136D02*
X67985770Y-135965200D01*
X67111473Y-138314928D02*
X67110520Y-138317586D01*
X134890001Y-149816467D02*
X134889993Y-149816030D01*
X66760802Y-166902105D02*
X66780954Y-166918424D01*
X68548887Y-134611151D02*
X68548588Y-134611867D01*
X134813055Y-146952923D02*
X134813035Y-146952402D01*
X131739736Y-135293347D02*
X131738656Y-135290793D01*
X117972397Y-166966537D02*
X117973703Y-166966626D01*
X110240529Y-166621653D02*
X110242203Y-166621704D01*
X65712764Y-142498194D02*
X65712200Y-142500372D01*
X68618362Y-134442892D02*
X68616986Y-134446241D01*
X132768012Y-167239850D02*
X132773734Y-167236383D01*
X134017374Y-165534465D02*
X134023276Y-165510497D01*
X65117770Y-149352727D02*
X65117713Y-149355786D01*
X67908018Y-136168474D02*
X67907770Y-136169134D01*
X134618425Y-161593884D02*
X134619172Y-161583801D01*
X132868745Y-167176741D02*
X132873685Y-167173476D01*
X66065973Y-141344756D02*
X66065669Y-141345650D01*
X134070292Y-165307727D02*
X134070912Y-165305004D01*
X129578945Y-63586549D02*
X129546671Y-63581220D01*
X66880705Y-166997009D02*
X66884620Y-167000048D01*
X71154902Y-167856660D02*
X71675458Y-167846862D01*
X65366517Y-144388036D02*
X65342262Y-144599943D01*
X131591560Y-134944306D02*
X131591380Y-134943881D01*
X66478498Y-140156797D02*
X66478302Y-140157367D01*
X68549870Y-134608792D02*
X68548887Y-134611151D01*
X134561229Y-143852974D02*
X134529068Y-143647210D01*
X134873130Y-148906564D02*
X134873120Y-148906097D01*
X103074046Y-166467230D02*
X104074404Y-166479717D01*
X129995460Y-63767115D02*
X129968871Y-63748061D01*
X65398092Y-144139234D02*
X65397870Y-144140945D01*
X65618812Y-163634264D02*
X65619087Y-163635902D01*
X122730831Y-167396228D02*
X122730832Y-167396228D01*
X134657915Y-144601519D02*
X134657737Y-144599943D01*
X68689899Y-134265694D02*
X68688152Y-134270059D01*
X91780240Y-166563436D02*
X91780587Y-166563427D01*
X131594725Y-134951764D02*
X131592254Y-134945941D01*
X129885568Y-63696260D02*
X129856720Y-63680841D01*
X68190815Y-135458686D02*
X68190558Y-135459299D01*
X92802933Y-166538216D02*
X92804140Y-166538186D01*
X90756202Y-166591563D02*
X90756544Y-166591553D01*
X71659110Y-162810582D02*
X71608655Y-162959220D01*
X66796264Y-139212806D02*
X66794908Y-139216767D01*
X65164463Y-156445915D02*
X65164467Y-156446046D01*
X65268258Y-145421828D02*
X65268173Y-145423038D01*
X65268931Y-145412431D02*
X65268842Y-145413658D01*
X99989679Y-166450022D02*
X99990153Y-166450022D01*
X65095359Y-151307795D02*
X65093766Y-151810586D01*
X71230513Y-161547975D02*
X71348528Y-161651471D01*
X131437332Y-134578009D02*
X131436359Y-134575662D01*
X101028893Y-166452031D02*
X101029354Y-166452033D01*
X65099617Y-153384886D02*
X65099622Y-153385323D01*
X65210712Y-158018482D02*
X65210771Y-158020323D01*
X72366191Y-167818018D02*
X72368488Y-167817904D01*
X126158200Y-167717400D02*
X126885793Y-167772126D01*
X66641149Y-139675431D02*
X66638499Y-139683387D01*
X78189895Y-167305026D02*
X78190153Y-167305001D01*
X132293715Y-167465517D02*
X132300538Y-167462971D01*
X65134764Y-155436246D02*
X65134872Y-155440381D01*
X67836259Y-136359607D02*
X67836252Y-136359647D01*
X133800844Y-166207341D02*
X133803919Y-166200358D01*
X65187433Y-146940439D02*
X65187411Y-146940973D01*
X86770837Y-166727716D02*
X86771924Y-166727674D01*
X65201432Y-146601961D02*
X65201402Y-146602624D01*
X119950540Y-167128792D02*
X119951310Y-167128861D01*
X66222316Y-140890680D02*
X66222203Y-140891003D01*
X134805230Y-157489274D02*
X134805254Y-157488451D01*
X123629559Y-167485356D02*
X123629847Y-167485384D01*
X121987258Y-124482741D02*
X121711269Y-124168036D01*
X65093753Y-151817505D02*
X65093751Y-151820354D01*
X87734904Y-166690906D02*
X87736520Y-166690846D01*
X121824156Y-167306404D02*
X121825041Y-167306492D01*
X102043833Y-166457775D02*
X102044273Y-166457778D01*
X66061068Y-141359260D02*
X66059085Y-141365178D01*
X134865354Y-155431503D02*
X134865369Y-155430890D01*
X134835740Y-156439039D02*
X134835760Y-156438366D01*
X132887439Y-138311906D02*
X132887299Y-138311518D01*
X87736520Y-166690846D02*
X87736849Y-166690833D01*
X119001517Y-167046664D02*
X119004917Y-167046947D01*
X70062256Y-167829783D02*
X70080777Y-167830658D01*
X134851102Y-148069331D02*
X134851091Y-148068936D01*
X70189417Y-161340889D02*
X70343368Y-161310266D01*
X116130350Y-166853953D02*
X116131428Y-166854007D01*
X70810582Y-163659110D02*
X70656631Y-163689733D01*
X128460769Y-163100000D02*
X128391344Y-162959220D01*
X68188543Y-135464115D02*
X68186796Y-135468307D01*
X104097105Y-166480032D02*
X104097506Y-166480037D01*
X134708117Y-145122314D02*
X134707998Y-145120965D01*
X131240988Y-134089337D02*
X131238907Y-134083954D01*
X134130250Y-165022174D02*
X134130647Y-165020240D01*
X65773880Y-142275248D02*
X65726157Y-142448014D01*
X132807000Y-138089431D02*
X132806163Y-138087127D01*
X131594778Y-134951888D02*
X131594725Y-134951764D01*
X119016534Y-167047933D02*
X119906964Y-167124908D01*
X131452904Y-134615444D02*
X131451411Y-134611867D01*
X67837320Y-136356803D02*
X67837293Y-136356793D01*
X134567445Y-143894655D02*
X134567197Y-143892928D01*
X122732370Y-167396380D02*
X122732395Y-167396383D01*
X103045602Y-166466920D02*
X103046027Y-166466924D01*
X134337067Y-163862654D02*
X134349361Y-163815884D01*
X122733281Y-167396971D02*
X122733330Y-167396476D01*
X100996449Y-166451909D02*
X100997979Y-166451912D01*
X133049573Y-138767765D02*
X133049407Y-138767291D01*
X134282845Y-142481445D02*
X134278965Y-142466891D01*
X112265421Y-166690918D02*
X112266537Y-166690961D01*
X132479761Y-137202148D02*
X132400346Y-136989755D01*
X134436791Y-143134982D02*
X134432915Y-143116322D01*
X134835512Y-156446716D02*
X134835517Y-156446545D01*
X68796341Y-133991482D02*
X68794300Y-133996873D01*
X81939121Y-166972962D02*
X81940424Y-166972863D01*
X116500267Y-64561822D02*
X116500000Y-64578181D01*
X133453212Y-139957231D02*
X133452915Y-139956361D01*
X128391344Y-162040779D02*
X128460769Y-161899999D01*
X134877084Y-154935929D02*
X134877096Y-154935374D01*
X134835780Y-156437690D02*
X134835785Y-156437544D01*
X104076533Y-166479744D02*
X104078538Y-166479771D01*
X68198771Y-167608225D02*
X68204399Y-167609518D01*
X132726176Y-137867925D02*
X132725445Y-137865924D01*
X134192062Y-164700278D02*
X134192287Y-164699072D01*
X130425312Y-167798549D02*
X130428565Y-167798288D01*
X72350843Y-167818747D02*
X72366191Y-167818018D01*
X129827383Y-63666373D02*
X129797588Y-63652873D01*
X73843059Y-167717303D02*
X73851556Y-167716642D01*
X118053050Y-166972370D02*
X118059575Y-166972863D01*
X134896403Y-150298592D02*
X134896398Y-150298147D01*
X129481464Y-167848893D02*
X129485076Y-167848756D01*
X65338325Y-144636310D02*
X65338162Y-144637888D01*
X134529068Y-143647210D02*
X134528795Y-143645484D01*
X134906121Y-152339540D02*
X134906123Y-152339115D01*
X93837372Y-166515680D02*
X93838577Y-166515655D01*
X98977365Y-166452002D02*
X98977824Y-166452000D01*
X67595075Y-167422171D02*
X67601822Y-167424915D01*
X129810582Y-161340889D02*
X129959220Y-161391344D01*
X79101983Y-167216655D02*
X79102510Y-167216605D01*
X131444371Y-167678526D02*
X131449410Y-167677707D01*
X67275985Y-167265882D02*
X67311857Y-167285960D01*
X65517954Y-143371513D02*
X65517533Y-143373815D01*
X134872960Y-148899097D02*
X134872948Y-148898603D01*
X116626260Y-64084431D02*
X116610841Y-64113279D01*
X127649156Y-167818747D02*
X127651450Y-167818851D01*
X67030583Y-138541033D02*
X67029538Y-138543979D01*
X127021281Y-123820000D02*
X126788730Y-124168036D01*
X66637788Y-139685522D02*
X66637578Y-139686151D01*
X132162679Y-136356803D02*
X132092229Y-136169134D01*
X134651593Y-161127508D02*
X134651678Y-161126245D01*
X84846800Y-166808700D02*
X84847134Y-166808685D01*
X80085091Y-167125604D02*
X80088951Y-167125264D01*
X66641830Y-139673386D02*
X66641498Y-139674384D01*
X65669084Y-142668159D02*
X65668478Y-142670544D01*
X82997445Y-166901675D02*
X82999046Y-166901586D01*
X109247324Y-166591668D02*
X110238728Y-166621598D01*
X134904625Y-151304163D02*
X134904612Y-151301369D01*
X65194776Y-157489479D02*
X65210576Y-158014072D01*
X65985699Y-141585751D02*
X65985320Y-141586912D01*
X65623104Y-163659411D02*
X65623388Y-163661042D01*
M02*
