M48
; DRILL file {KiCad 7.0.11+dfsg-1build4} date Fri Oct  2 13:08:14 2026
; FORMAT={-:-/ absolute / metric / decimal}
; #@! TF.CreationDate,2026-10-02T13:08:14+00:00
; #@! TF.GenerationSoftware,Kicad,Pcbnew,7.0.11+dfsg-1build4
; #@! TF.FileFunction,Plated,1,2,PTH
FMAT,2
METRIC
; #@! TA.AperFunction,Plated,PTH,ViaDrill
T1C0.350
; #@! TA.AperFunction,Plated,PTH,ComponentDrill
T2C0.750
; #@! TA.AperFunction,Plated,PTH,ComponentDrill
T3C1.020
; #@! TA.AperFunction,Plated,PTH,ComponentDrill
T4C1.400
%
G90
G05
T1
X68.5Y-158.0
X78.5Y-153.5
X81.0Y-155.525
X82.0Y-141.7
X84.0Y-165.0
X91.0Y-147.5
X100.0Y-160.0
X109.0Y-147.5
X116.0Y-165.0
X117.6Y-78.0
X117.6Y-95.0
X117.6Y-112.0
X119.0Y-135.5
X124.0Y-153.5
X129.5Y-134.3
X129.6Y-150.5
X131.5Y-158.0
T2
X102.0Y-136.0
X102.0Y-138.0
T3
X121.93Y-67.17
X121.93Y-69.71
X121.93Y-72.25
X121.93Y-74.79
X121.93Y-77.33
X121.93Y-79.87
X121.93Y-82.41
X121.93Y-84.95
X121.93Y-87.49
X121.93Y-90.03
X121.93Y-92.57
X121.93Y-95.11
X121.93Y-97.65
X121.93Y-100.19
X121.93Y-102.73
X121.93Y-105.27
X124.47Y-67.17
X124.47Y-69.71
X124.47Y-72.25
X124.47Y-74.79
X124.47Y-77.33
X124.47Y-79.87
X124.47Y-82.41
X124.47Y-84.95
X124.47Y-87.49
X124.47Y-90.03
X124.47Y-92.57
X124.47Y-95.11
X124.47Y-97.65
X124.47Y-100.19
X124.47Y-102.73
X124.47Y-105.27
T4
X75.214Y-145.3
X75.214Y-150.0
X75.214Y-154.7
M30
