G04 #@! TF.GenerationSoftware,KiCad,Pcbnew,7.0.11+dfsg-1build4*
G04 #@! TF.CreationDate,2026-10-02T13:08:14+00:00*
G04 #@! TF.ProjectId,struthio_one,73747275-7468-4696-9f5f-6f6e652e6b69,rev?*
G04 #@! TF.SameCoordinates,Original*
G04 #@! TF.FileFunction,Profile,NP*
%FSLAX46Y46*%
G04 Gerber Fmt 4.6, Leading zero omitted, Abs format (unit mm)*
G04 Created by KiCad (PCBNEW 7.0.11+dfsg-1build4) date 2026-10-02 13:08:14*
%MOMM*%
%LPD*%
G01*
G04 APERTURE LIST*
G04 #@! TA.AperFunction,Profile*
%ADD10C,0.100000*%
G04 #@! TD*
G04 APERTURE END LIST*
D10*
X132966841Y-138533803D02*
X132889611Y-138317954D01*
X134090289Y-141822162D02*
X134087297Y-141812581D01*
X134633290Y-144386382D02*
X134631984Y-144375299D01*
X133434925Y-139903208D02*
X133433458Y-139898842D01*
X131595085Y-134952612D02*
X131595016Y-134952448D01*
X67273823Y-137867925D02*
X67273705Y-137868248D01*
X127021281Y-123820000D02*
X126788730Y-124168036D01*
X133875915Y-166136521D02*
X133886763Y-166102524D01*
X128340889Y-162810582D02*
X128310266Y-162656631D01*
X133696658Y-140659183D02*
X133696624Y-140659088D01*
X68423656Y-167644758D02*
X68426740Y-167645177D01*
X67565541Y-167482290D02*
X67571200Y-167483810D01*
X67680366Y-136774535D02*
X67680365Y-136774536D01*
X65465841Y-162509109D02*
X65506728Y-162865962D01*
X65164260Y-156438720D02*
X65164264Y-156438835D01*
X67679937Y-136775677D02*
X67679812Y-136776010D01*
X67520238Y-137202148D02*
X67520194Y-137202264D01*
X132165082Y-167545867D02*
X132169872Y-167544863D01*
X65227651Y-158536442D02*
X65227743Y-158539203D01*
X65161358Y-147674942D02*
X65161297Y-147676828D01*
X65126953Y-148902824D02*
X65126879Y-148906097D01*
X121478718Y-123820000D02*
X121293585Y-123444586D01*
X65808825Y-164736119D02*
X65809006Y-164737140D01*
X134835739Y-156438720D02*
X134835758Y-156438084D01*
X130398394Y-64520952D02*
X130396254Y-64488311D01*
X133765048Y-166434399D02*
X133771445Y-166419918D01*
X67518836Y-137205903D02*
X67518784Y-137206044D01*
X133451930Y-139953475D02*
X133451632Y-139952601D01*
X65246391Y-159061922D02*
X65246526Y-159065593D01*
X134835542Y-156445351D02*
X134835715Y-156439501D01*
X65117839Y-149349199D02*
X65117779Y-149352255D01*
X130539230Y-163100000D02*
X130452024Y-163230513D01*
X65851393Y-142010879D02*
X65847947Y-142022171D01*
X65654862Y-142725864D02*
X65616180Y-142889747D01*
X131957002Y-135820073D02*
X131954156Y-135812903D01*
X131576343Y-167644758D02*
X131596965Y-167641892D01*
X65210567Y-158009102D02*
X65210575Y-158009372D01*
X68565418Y-134571368D02*
X68563935Y-134574952D01*
X67909672Y-136164088D02*
X67908018Y-136168474D01*
X134904245Y-152851500D02*
X134904247Y-152851058D01*
X131436359Y-134575662D02*
X131436064Y-134574952D01*
X66638172Y-139684370D02*
X66637851Y-139685331D01*
X68042997Y-135820073D02*
X68042576Y-135821136D01*
X70111716Y-167813892D02*
X70117066Y-167814311D01*
X131878759Y-135626780D02*
X131815460Y-135473744D01*
X134660568Y-144625760D02*
X134660401Y-144624191D01*
X133778527Y-140893095D02*
X133777796Y-140891003D01*
X71100000Y-163539230D02*
X70959220Y-163608655D01*
X65210631Y-158011195D02*
X65210639Y-158011453D01*
X65418477Y-162024405D02*
X65418628Y-162026178D01*
X131451411Y-134611867D02*
X131451112Y-134611151D01*
X68758379Y-134090967D02*
X68725370Y-134175883D01*
X67658634Y-167506123D02*
X67696847Y-167515193D01*
X134896438Y-150301412D02*
X134896403Y-150298592D01*
X67913492Y-136154015D02*
X67911823Y-136158404D01*
X65268842Y-145413658D02*
X65268258Y-145421828D01*
X129767368Y-63640356D02*
X129736754Y-63628834D01*
X134225580Y-142273312D02*
X134221936Y-142260324D01*
X65567670Y-143113539D02*
X65567084Y-143116322D01*
X132911004Y-167305084D02*
X132939725Y-167290124D01*
X65109901Y-149822764D02*
X65109895Y-149823195D01*
X132969259Y-138540590D02*
X132968208Y-138537636D01*
X134784176Y-146292328D02*
X134784138Y-146291539D01*
X65475220Y-143620643D02*
X65473331Y-143632198D01*
X67837107Y-136357371D02*
X67836450Y-136359121D01*
X134851000Y-155934289D02*
X134864981Y-155445727D01*
X134826002Y-147302229D02*
X134825907Y-147299551D01*
X65210575Y-158009372D02*
X65210631Y-158011195D01*
X116570356Y-64202631D02*
X116558834Y-64233245D01*
X117102411Y-63652873D02*
X117072616Y-63666373D01*
X131595370Y-134953281D02*
X131595085Y-134952612D01*
X65093857Y-152329137D02*
X65093858Y-152329573D01*
X68404914Y-134952612D02*
X68404629Y-134953281D01*
X65342262Y-144599943D02*
X65342084Y-144601519D01*
X65164238Y-156437959D02*
X65164241Y-156438084D01*
X68408619Y-134943881D02*
X68408439Y-134944306D01*
X134685224Y-144868280D02*
X134684250Y-144858414D01*
X132163806Y-136359803D02*
X132163747Y-136359647D01*
X133900371Y-166058254D02*
X133910492Y-166024032D01*
X134805229Y-157486423D02*
X134805232Y-157486331D01*
X134524493Y-143618914D02*
X134522564Y-143607368D01*
X129611026Y-63592930D02*
X129578945Y-63586549D01*
X133861778Y-141133091D02*
X133860401Y-141129074D01*
X66389426Y-140413325D02*
X66389328Y-140413604D01*
X65200986Y-146611980D02*
X65200958Y-146612627D01*
X68477492Y-134781316D02*
X68477311Y-134781745D01*
X117132631Y-63640356D02*
X117102411Y-63652873D01*
X134567197Y-143892928D02*
X134565509Y-143881334D01*
X134080326Y-141790595D02*
X134079866Y-141789160D01*
X68260096Y-135293742D02*
X68259027Y-135296276D01*
X133857211Y-141119823D02*
X133856995Y-141119199D01*
X65210698Y-158013330D02*
X65210705Y-158013561D01*
X129959220Y-163608655D02*
X129810582Y-163659110D01*
X68188799Y-135463503D02*
X68188543Y-135464115D01*
X134906132Y-152335760D02*
X134906137Y-152332911D01*
X134432329Y-143113539D02*
X134397906Y-142952410D01*
X134838641Y-147674942D02*
X134838632Y-147674648D01*
X65127039Y-148899097D02*
X65126964Y-148902341D01*
X133711741Y-166548433D02*
X133716951Y-166538454D01*
X69622660Y-167773255D02*
X69623877Y-167773357D01*
X68408439Y-134944306D02*
X68408380Y-134944444D01*
X134805261Y-157485353D02*
X134805265Y-157485222D01*
X67985272Y-135966467D02*
X67981954Y-135974951D01*
X133957996Y-165853967D02*
X133959088Y-165849779D01*
X133860401Y-141129074D02*
X133860191Y-141128463D01*
X68118188Y-135634199D02*
X68115843Y-135639926D01*
X65399594Y-144127807D02*
X65398092Y-144139234D01*
X134014300Y-141585751D02*
X134011752Y-141577971D01*
X65985699Y-141585751D02*
X65985320Y-141586912D01*
X67974396Y-135994496D02*
X67973908Y-135995769D01*
X65712200Y-142500372D02*
X65669084Y-142668159D01*
X134872948Y-148898603D02*
X134862799Y-148480668D01*
X65231934Y-145986711D02*
X65231592Y-145992960D01*
X65201177Y-146607615D02*
X65200986Y-146611980D01*
X133360436Y-166998560D02*
X133373341Y-166986847D01*
X65748298Y-164388943D02*
X65748367Y-164389341D01*
X71689733Y-162656631D02*
X71659110Y-162810582D01*
X131884507Y-135640787D02*
X131884156Y-135639926D01*
X65514757Y-143389214D02*
X65514348Y-143391516D01*
X68126838Y-167599940D02*
X68153014Y-167604123D01*
X65093858Y-152329573D02*
X65093861Y-152332443D01*
X134152563Y-142023856D02*
X134152052Y-142022171D01*
X134384425Y-142892343D02*
X134383819Y-142889747D01*
X65421045Y-162053413D02*
X65422157Y-162065262D01*
X67088995Y-167305084D02*
X67178848Y-167348247D01*
X132723627Y-137860969D02*
X132644391Y-137645546D01*
X132567089Y-167443727D02*
X132573570Y-167441707D01*
X68835861Y-133885413D02*
X68832284Y-133895133D01*
X134835783Y-156437248D02*
X134850855Y-155939218D01*
X67178848Y-167348247D02*
X67189003Y-167352923D01*
X68062896Y-167588943D02*
X68066790Y-167589644D01*
X129894436Y-167813401D02*
X129895228Y-167813337D01*
X68767549Y-134067142D02*
X68765487Y-134072529D01*
X68898266Y-133711942D02*
X68897473Y-133714192D01*
X65514348Y-143391516D02*
X65511643Y-143406929D01*
X68408098Y-134945110D02*
X68408033Y-134945263D01*
X65684948Y-164018607D02*
X65685036Y-164019116D01*
X65419812Y-162039797D02*
X65420882Y-162051645D01*
X71348528Y-161651471D02*
X71452024Y-161769486D01*
X68112816Y-135647360D02*
X68052872Y-135795374D01*
X65520803Y-143356122D02*
X65517954Y-143371513D01*
X131436064Y-134574952D02*
X131434581Y-134571368D01*
X132642847Y-137641358D02*
X132642225Y-137639675D01*
X65864668Y-165041721D02*
X65864986Y-165043442D01*
X133449852Y-139947366D02*
X133448875Y-139944484D01*
X131235138Y-134074161D02*
X131234512Y-134072529D01*
X65117779Y-149352255D02*
X65117770Y-149352727D01*
X66478302Y-140157367D02*
X66477318Y-140160232D01*
X68332762Y-135122310D02*
X68332757Y-135122323D01*
X134882355Y-149359735D02*
X134882348Y-149359282D01*
X134812747Y-146944951D02*
X134812726Y-146944416D01*
X134835499Y-156446796D02*
X134835516Y-156446202D01*
X70189417Y-161340889D02*
X70343368Y-161310266D01*
X131512573Y-134757735D02*
X131512393Y-134757304D01*
X134561229Y-143852974D02*
X134529068Y-143647210D01*
X134148606Y-142010879D02*
X134148087Y-142009187D01*
X70500000Y-161299999D02*
X70656631Y-161310266D01*
X65164500Y-156446796D02*
X65164505Y-156446965D01*
X68484816Y-134763940D02*
X68477492Y-134781316D01*
X127422623Y-121802316D02*
X127450000Y-122219999D01*
X68404564Y-134953434D02*
X68404371Y-134953889D01*
X71348528Y-163348528D02*
X71230513Y-163452024D01*
X131203041Y-133989848D02*
X131199959Y-133981667D01*
X65246371Y-159061368D02*
X65246391Y-159061922D01*
X132725327Y-137865602D02*
X132724601Y-137863622D01*
X65622046Y-163653685D02*
X65623720Y-163663570D01*
X69340889Y-162189417D02*
X69391344Y-162040779D01*
X134313695Y-164026500D02*
X134313723Y-164026334D01*
X65268931Y-145412431D02*
X65268842Y-145413658D01*
X65122903Y-154935374D02*
X65122915Y-154935929D01*
X134135331Y-165041721D02*
X134188161Y-164752888D01*
X134335556Y-142686574D02*
X134331521Y-142670544D01*
X68545510Y-134619231D02*
X68487606Y-134757304D01*
X67533105Y-167473375D02*
X67565541Y-167482290D01*
X67033158Y-138533803D02*
X67032999Y-138534249D01*
X65607057Y-142929764D02*
X65606480Y-142932363D01*
X131594725Y-134951764D02*
X131592254Y-134945941D01*
X134313284Y-164028900D02*
X134313313Y-164028729D01*
X131815203Y-135473122D02*
X131813459Y-135468923D01*
X124250000Y-119020000D02*
X124667683Y-119047376D01*
X65098711Y-150792824D02*
X65098707Y-150793241D01*
X65194734Y-157485222D02*
X65194738Y-157485353D01*
X134130026Y-165069889D02*
X134130355Y-165068171D01*
X134772256Y-158539203D02*
X134772348Y-158536442D01*
X133200916Y-167125256D02*
X133211937Y-167117152D01*
X66716484Y-139448647D02*
X66715038Y-139452982D01*
X67680365Y-136774536D02*
X67680194Y-136774992D01*
X65249529Y-145694319D02*
X65249079Y-145701531D01*
X68184539Y-135473744D02*
X68121240Y-135626780D01*
X131279962Y-134189518D02*
X131277368Y-134182899D01*
X66384413Y-140427689D02*
X66384315Y-140427968D01*
X134524779Y-143620643D02*
X134524493Y-143618914D01*
X65246686Y-159069833D02*
X65246708Y-159070392D01*
X132086256Y-136153356D02*
X132026091Y-135995769D01*
X65095808Y-152861364D02*
X65095811Y-152861834D01*
X134894772Y-153895905D02*
X134900377Y-153385323D01*
X134789432Y-158009102D02*
X134805229Y-157486423D01*
X68333212Y-135121251D02*
X68333168Y-135121355D01*
X131741140Y-135296676D02*
X131740972Y-135296276D01*
X65558871Y-143156440D02*
X65558316Y-143159231D01*
X65778611Y-142258387D02*
X65778063Y-142260324D01*
X66061068Y-141359260D02*
X66059085Y-141365178D01*
X65093868Y-152336207D02*
X65093876Y-152339115D01*
X134022382Y-165590512D02*
X134023118Y-165587198D01*
X65179462Y-156960759D02*
X65179464Y-156960806D01*
X134659261Y-144613637D02*
X134659088Y-144612062D01*
X117450952Y-63571605D02*
X117418311Y-63573745D01*
X71659110Y-162810582D02*
X71608655Y-162959220D01*
X134708905Y-145131371D02*
X134708117Y-145122314D01*
X65514295Y-162926569D02*
X65557042Y-163242822D01*
X65117770Y-149352727D02*
X65117713Y-149355786D01*
X134226119Y-142275248D02*
X134225580Y-142273312D01*
X134522273Y-143605643D02*
X134488754Y-143409230D01*
X134011372Y-141576818D02*
X134008807Y-141569053D01*
X131437631Y-134578728D02*
X131437332Y-134578009D01*
X132888526Y-138314928D02*
X132888387Y-138314541D01*
X131873161Y-167599940D02*
X131877069Y-167599300D01*
X70343368Y-161310266D02*
X70500000Y-161299999D01*
X134221936Y-142260324D02*
X134221388Y-142258387D01*
X134250587Y-164395408D02*
X134250652Y-164395031D01*
X65382468Y-161590758D02*
X65382584Y-161592241D01*
X67198525Y-167356945D02*
X67295573Y-167396162D01*
X134904210Y-152858392D02*
X134904213Y-152857945D01*
X67438564Y-137421503D02*
X67438039Y-137422916D01*
X66641893Y-139673197D02*
X66641830Y-139673386D01*
X67600666Y-136987051D02*
X67600388Y-136987792D01*
X131359589Y-134388771D02*
X131358231Y-134385423D01*
X134596820Y-144101546D02*
X134596581Y-144099842D01*
X68689899Y-134265694D02*
X68688152Y-134270059D01*
X131383431Y-134447257D02*
X131383013Y-134446241D01*
X116853303Y-63807778D02*
X116828710Y-63829346D01*
X65173997Y-147302229D02*
X65173983Y-147302600D01*
X133046927Y-138760242D02*
X133046758Y-138759762D01*
X65419655Y-162038026D02*
X65419812Y-162039797D01*
X68565715Y-134570650D02*
X68565418Y-134571368D01*
X65371138Y-144349843D02*
X65369758Y-144360915D01*
X134768065Y-145986711D02*
X134768013Y-145985778D01*
X123421779Y-125310962D02*
X123025413Y-125176414D01*
X134579117Y-162051645D02*
X134580187Y-162039797D01*
X131846985Y-167604123D02*
X131873161Y-167599940D01*
X65148985Y-148066304D02*
X65148908Y-148068936D01*
X132562034Y-137423116D02*
X132561960Y-137422916D01*
X65137316Y-148476090D02*
X65137302Y-148476629D01*
X134152052Y-142022171D02*
X134148606Y-142010879D01*
X125078220Y-119129037D02*
X125474586Y-119263585D01*
X134282845Y-142481445D02*
X134278965Y-142466891D01*
X134873046Y-148902824D02*
X134873035Y-148902341D01*
X134805323Y-157483263D02*
X134805328Y-157483099D01*
X134805294Y-157484257D02*
X134805323Y-157483263D01*
X132319805Y-136774992D02*
X132319634Y-136774536D01*
X65215531Y-146298410D02*
X65201432Y-146601961D01*
X131884156Y-135639926D02*
X131881811Y-135634199D01*
X131377359Y-134432434D02*
X131376946Y-134431421D01*
X65095770Y-152854959D02*
X65095786Y-152857945D01*
X134432196Y-163315709D02*
X134432669Y-163312692D01*
X66138009Y-141133711D02*
X66065973Y-141344756D01*
X65232756Y-145972363D02*
X65232392Y-145978604D01*
X68563935Y-134574952D02*
X68563640Y-134575662D01*
X68828472Y-133905427D02*
X68803294Y-133972984D01*
X134132541Y-165056674D02*
X134132866Y-165054952D01*
X68332335Y-135123318D02*
X68331952Y-135124219D01*
X66477098Y-166835492D02*
X66527866Y-166891586D01*
X68049561Y-135803598D02*
X68049130Y-135804675D01*
X134580187Y-162039797D02*
X134580344Y-162038026D01*
X131208297Y-167690878D02*
X131210652Y-167690620D01*
X65095767Y-152854482D02*
X65095770Y-152854959D01*
X67680172Y-136775052D02*
X67679952Y-136775637D01*
X134708993Y-160103125D02*
X134709268Y-160097347D01*
X65093753Y-151817505D02*
X65093751Y-151820354D01*
X134445884Y-143180722D02*
X134445346Y-143177933D01*
X133433458Y-139898842D02*
X133433164Y-139897965D01*
X130240110Y-64028326D02*
X130221937Y-64001128D01*
X68724854Y-134177208D02*
X68723149Y-134181575D01*
X65976881Y-165587198D02*
X65977617Y-165590512D01*
X65716580Y-142483616D02*
X65712764Y-142498194D01*
X70959220Y-163608655D02*
X70810582Y-163659110D01*
X66125730Y-166141586D02*
X66142354Y-166191831D01*
X71452024Y-161769486D02*
X71539230Y-161899999D01*
X133779476Y-140895821D02*
X133779369Y-140895513D01*
X65232339Y-145979529D02*
X65231986Y-145985778D01*
X134023118Y-165587198D02*
X134066628Y-165388094D01*
X66949106Y-138771535D02*
X66874277Y-138985993D01*
X131514412Y-134762109D02*
X131514231Y-134761679D01*
X65717154Y-142481445D02*
X65716580Y-142483616D01*
X67977672Y-135985985D02*
X67974396Y-135994496D01*
X132132999Y-167552429D02*
X132165082Y-167545867D01*
X134567445Y-143894655D02*
X134567197Y-143892928D01*
X65567330Y-163312692D02*
X65567803Y-163315709D01*
X134904191Y-152861364D02*
X134904210Y-152858392D01*
X133310013Y-167041001D02*
X133321184Y-167031824D01*
X65112948Y-154414720D02*
X65113005Y-154418262D01*
X66869772Y-138998998D02*
X66796474Y-139212194D01*
X69310266Y-162343368D02*
X69340889Y-162189417D01*
X134017205Y-141594686D02*
X134014679Y-141586912D01*
X70040779Y-163608655D02*
X69899999Y-163539230D01*
X121987258Y-119957258D02*
X122301963Y-119681269D01*
X130404301Y-167770880D02*
X130405514Y-167770768D01*
X65982415Y-141595857D02*
X65920133Y-141789160D01*
X65268258Y-145421828D02*
X65268173Y-145423038D01*
X66468177Y-140186741D02*
X66467978Y-140187317D01*
X133436480Y-139907822D02*
X133436186Y-139906951D01*
X134287799Y-142500372D02*
X134287235Y-142498194D01*
X66158308Y-166238192D02*
X66160423Y-166244197D01*
X134798597Y-146602624D02*
X134798567Y-146601961D01*
X66641498Y-139674384D02*
X66641438Y-139674563D01*
X134336152Y-142688965D02*
X134335556Y-142686574D01*
X134188348Y-164751860D02*
X134189585Y-164745014D01*
X68115843Y-135639926D02*
X68115492Y-135640787D01*
X134906121Y-152339540D02*
X134906123Y-152339115D01*
X65432802Y-143892928D02*
X65432554Y-143894655D01*
X134190993Y-164737140D02*
X134191174Y-164736119D01*
X134865251Y-155435630D02*
X134865353Y-155431515D01*
X134278382Y-142464720D02*
X134274436Y-142450183D01*
X133373341Y-166986847D02*
X133444327Y-166919956D01*
X133696624Y-140659088D02*
X133696601Y-140659021D01*
X116207106Y-133207106D02*
X115500000Y-133500000D01*
X65290978Y-145132723D02*
X65290214Y-145141790D01*
X132241001Y-136565221D02*
X132240982Y-136565170D01*
X123832316Y-119047376D02*
X124250000Y-119020000D01*
X66479148Y-140154901D02*
X66478498Y-140156797D01*
X66194794Y-166337640D02*
X66197530Y-166344532D01*
X68566695Y-134568278D02*
X68565715Y-134570650D01*
X131809184Y-135458686D02*
X131742380Y-135299621D01*
X65164241Y-156438084D02*
X65164260Y-156438720D01*
X132724490Y-137863319D02*
X132723745Y-137861288D01*
X134630241Y-144360915D02*
X134628861Y-144349843D01*
X66547084Y-139956361D02*
X66546787Y-139957231D01*
X68723149Y-134181575D02*
X68722631Y-134182899D01*
X131454489Y-134619231D02*
X131454190Y-134618516D01*
X134882151Y-149348745D02*
X134873210Y-148910315D01*
X133046758Y-138759762D02*
X132970615Y-138544414D01*
X116626260Y-64084431D02*
X116610841Y-64113279D01*
X133321184Y-167031824D02*
X133356514Y-167001933D01*
X69155617Y-167729806D02*
X69167246Y-167730969D01*
X122301963Y-119681269D02*
X122649999Y-119448718D01*
X134340690Y-142707401D02*
X134340105Y-142705006D01*
X131120462Y-133764867D02*
X131102526Y-133714192D01*
X134789424Y-158009372D02*
X134789432Y-158009102D01*
X128651471Y-163348528D02*
X128547975Y-163230513D01*
X134561496Y-143854704D02*
X134561229Y-143852974D01*
X67357873Y-137639408D02*
X67357774Y-137639675D01*
X66142354Y-166191831D02*
X66144393Y-166197864D01*
X132088176Y-136158404D02*
X132086507Y-136154015D01*
X134536176Y-162490811D02*
X134537671Y-162476706D01*
X68186796Y-135468307D02*
X68186540Y-135468923D01*
X134730466Y-145404274D02*
X134730374Y-145403049D01*
X68789347Y-167690620D02*
X68791702Y-167690878D01*
X65099622Y-153385323D02*
X65105227Y-153895905D01*
X134835778Y-156437420D02*
X134835783Y-156437248D01*
X131277368Y-134182899D02*
X131276850Y-134181575D01*
X65098707Y-150793241D02*
X65098681Y-150796050D01*
X133614693Y-140425133D02*
X133614599Y-140424861D01*
X128899999Y-163539230D02*
X128769486Y-163452024D01*
X68868629Y-133795283D02*
X68839633Y-133875098D01*
X66219039Y-166397420D02*
X66228554Y-166419918D01*
X70117066Y-167814311D02*
X70117860Y-167814373D01*
X134432915Y-143116322D02*
X134432329Y-143113539D01*
X134901344Y-150799261D02*
X134901321Y-150796448D01*
X131171527Y-133905427D02*
X131170806Y-133903485D01*
X134488356Y-143406929D02*
X134485651Y-143391516D01*
X133534716Y-140195102D02*
X133534060Y-140193210D01*
X133452915Y-139956361D02*
X133451930Y-139953475D01*
X134539325Y-162460495D02*
X134539534Y-162458393D01*
X116659889Y-64028326D02*
X116642615Y-64056103D01*
X116828710Y-63829346D02*
X116804836Y-63851706D01*
X134577674Y-162067024D02*
X134577842Y-162065262D01*
X65778063Y-142260324D02*
X65774419Y-142273312D01*
X65748821Y-164391985D02*
X65748891Y-164392393D01*
X131903200Y-167594912D02*
X131907100Y-167594241D01*
X134768013Y-145985778D02*
X134767660Y-145979529D01*
X68616986Y-134446241D02*
X68616568Y-134447257D01*
X134709308Y-160096471D02*
X134732038Y-159599301D01*
X65664443Y-142686574D02*
X65663847Y-142688965D01*
X130095163Y-63851706D02*
X130071289Y-63829346D01*
X128769486Y-163452024D02*
X128651471Y-163348528D01*
X134732308Y-159593206D02*
X134732510Y-159588517D01*
X66063364Y-141352448D02*
X66061367Y-141358371D01*
X65227756Y-158539587D02*
X65227850Y-158542352D01*
X132091230Y-167560548D02*
X132096034Y-167559638D01*
X134838559Y-147672436D02*
X134838496Y-147670547D01*
X132887439Y-138311906D02*
X132887299Y-138311518D01*
X65366709Y-144386382D02*
X65366517Y-144388036D01*
X65610973Y-142912342D02*
X65607057Y-142929764D01*
X65232392Y-145978604D02*
X65232339Y-145979529D01*
X116878588Y-63787027D02*
X116853303Y-63807778D01*
X130547766Y-133111778D02*
X130399999Y-132588617D01*
X134482045Y-143371513D02*
X134479196Y-143356122D01*
X65477435Y-143607368D02*
X65475506Y-143618914D01*
X67357774Y-137639675D02*
X67357152Y-137641358D01*
X134598402Y-144112965D02*
X134596820Y-144101546D01*
X134904638Y-151307361D02*
X134904627Y-151304575D01*
X65095374Y-151304163D02*
X65095372Y-151304575D01*
X65194671Y-157483099D02*
X65194676Y-157483263D01*
X134526946Y-143633923D02*
X134526668Y-143632198D01*
X133938632Y-141358371D02*
X133936635Y-141352448D01*
X69651471Y-161651471D02*
X69769486Y-161547975D01*
X66476273Y-140163269D02*
X66468177Y-140186741D01*
X67600326Y-136987959D02*
X67600026Y-136988757D01*
X134850902Y-155937618D02*
X134850909Y-155937397D01*
X133357903Y-139672585D02*
X133357835Y-139672380D01*
X134864981Y-155445727D02*
X134864997Y-155445125D01*
X116759346Y-63898710D02*
X116737778Y-63923303D01*
X134628653Y-144348197D02*
X134602129Y-144140945D01*
X69623877Y-167773357D02*
X70098610Y-167812834D01*
X134010688Y-165641429D02*
X134011469Y-165638122D01*
X131206320Y-133998508D02*
X131205699Y-133996873D01*
X66177027Y-166290282D02*
X66191965Y-166330243D01*
X66059422Y-165918283D02*
X66088024Y-166018917D01*
X70810582Y-163659110D02*
X70656631Y-163689733D01*
X123025413Y-125176414D02*
X122649999Y-124991281D01*
X66040911Y-165849779D02*
X66042003Y-165853967D01*
X65844029Y-142035162D02*
X65843523Y-142036851D01*
X134490958Y-162885337D02*
X134492977Y-162868478D01*
X134906137Y-152332911D02*
X134906138Y-152332443D01*
X134340105Y-142705006D02*
X134336152Y-142688965D01*
X131203658Y-133991482D02*
X131203041Y-133989848D01*
X134890047Y-149819372D02*
X134890001Y-149816467D01*
X116642615Y-64056103D02*
X116626260Y-64084431D01*
X65099581Y-153381285D02*
X65099586Y-153381737D01*
X129959220Y-161391344D02*
X130100000Y-161460769D01*
X132643583Y-137643353D02*
X132642956Y-137641653D01*
X134812726Y-146944416D02*
X134812588Y-146940973D01*
X134772040Y-158545496D02*
X134772135Y-158542750D01*
X129343368Y-161310266D02*
X129500000Y-161299999D01*
X67758970Y-136565295D02*
X67758955Y-136565335D01*
X69899999Y-161460769D02*
X70040779Y-161391344D01*
X66551421Y-139943608D02*
X66551124Y-139944484D01*
X66234951Y-166434399D02*
X66279328Y-166530706D01*
X133203525Y-139212194D02*
X133130227Y-138998998D01*
X66032654Y-165817495D02*
X66033711Y-165821692D01*
X65383384Y-161602216D02*
X65383505Y-161603702D01*
X134537889Y-162474605D02*
X134539325Y-162460495D01*
X131592254Y-134945941D02*
X131592193Y-134945797D01*
X134331521Y-142670544D02*
X134330915Y-142668159D01*
X134127799Y-165081381D02*
X134130026Y-165069889D01*
X67378190Y-167426095D02*
X67391798Y-167430654D01*
X68376268Y-167638002D02*
X68379344Y-167638459D01*
X66465283Y-140195102D02*
X66465084Y-140195677D01*
X134873200Y-148909831D02*
X134873130Y-148906564D01*
X134381942Y-163629475D02*
X134432196Y-163315709D01*
X68642179Y-134384410D02*
X68641768Y-134385423D01*
X131265011Y-167684258D02*
X131549532Y-167648314D01*
X67696847Y-167515193D02*
X67702558Y-167516513D01*
X65920950Y-165328359D02*
X65921447Y-165330845D01*
X134783876Y-146286273D02*
X134783836Y-146285472D01*
X130405514Y-167770768D02*
X130817661Y-167732426D01*
X131131370Y-133795283D02*
X131130664Y-133793335D01*
X133129888Y-167174995D02*
X133142534Y-167166517D01*
X134729751Y-145394889D02*
X134729657Y-145393669D01*
X132886199Y-138308468D02*
X132808102Y-138092474D01*
X130857733Y-167728426D02*
X130859464Y-167728243D01*
X134731826Y-145423038D02*
X134731741Y-145421828D01*
X134904247Y-152851058D02*
X134906121Y-152339540D01*
X134731157Y-145413658D02*
X134731068Y-145412431D01*
X117014431Y-63696260D02*
X116986103Y-63712615D01*
X65093766Y-151810586D02*
X65093765Y-151811006D01*
X134749864Y-145684946D02*
X134749382Y-145677728D01*
X65099523Y-153374554D02*
X65099549Y-153377683D01*
X133357835Y-139672380D02*
X133285179Y-139453636D01*
X116717027Y-63948588D02*
X116697114Y-63974540D01*
X65216474Y-146279412D02*
X65216432Y-146280208D01*
X132163749Y-136359604D02*
X132163733Y-136359609D01*
X66059085Y-141365178D02*
X66058787Y-141366071D01*
X134851014Y-148066304D02*
X134851002Y-148065915D01*
X68765487Y-134072529D02*
X68764861Y-134074161D01*
X132341365Y-167506123D02*
X132347059Y-167504736D01*
X134877096Y-154935374D02*
X134877178Y-154931565D01*
X131381222Y-134441880D02*
X131379141Y-134436797D01*
X129856720Y-63680841D02*
X129827383Y-63666373D01*
X66219794Y-140897916D02*
X66219690Y-140898215D01*
X134882294Y-149356228D02*
X134882286Y-149355786D01*
X65109848Y-149826571D02*
X65103601Y-150298147D01*
X131813459Y-135468923D02*
X131813203Y-135468307D01*
X130317126Y-64172411D02*
X130303626Y-64142616D01*
X134008807Y-141569053D02*
X134008421Y-141567888D01*
X129189417Y-163659110D02*
X129040779Y-163608655D01*
X70959220Y-161391344D02*
X71100000Y-161460769D01*
X133888355Y-166097440D02*
X133898832Y-166063354D01*
X130396254Y-64488311D02*
X130393048Y-64455758D01*
X132303152Y-167515193D02*
X132341365Y-167506123D01*
X68184796Y-135473122D02*
X68184539Y-135473744D01*
X68190558Y-135459299D02*
X68188799Y-135463503D01*
X65366517Y-144388036D02*
X65342262Y-144599943D01*
X131196705Y-133972984D02*
X131171527Y-133905427D01*
X131164138Y-133885413D02*
X131163425Y-133883470D01*
X65517533Y-143373815D02*
X65514757Y-143389214D01*
X65105278Y-153900179D02*
X65105321Y-153903500D01*
X133532021Y-140187317D02*
X133531822Y-140186741D01*
X68829193Y-133903485D02*
X68828472Y-133905427D01*
X133609586Y-140410490D02*
X133609283Y-140409620D01*
X131886840Y-135646516D02*
X131884507Y-135640787D01*
X67357152Y-137641358D02*
X67357043Y-137641653D01*
X134630444Y-144362572D02*
X134630241Y-144360915D01*
X70550486Y-167845959D02*
X70614398Y-167848407D01*
X67519710Y-137203561D02*
X67519328Y-137204586D01*
X65615574Y-142892343D02*
X65611564Y-142909747D01*
X133666535Y-166631398D02*
X133711741Y-166548433D01*
X65983378Y-165615992D02*
X65988530Y-165638122D01*
X65161367Y-147674648D02*
X65161358Y-147674942D01*
X134482466Y-143373815D02*
X134482045Y-143371513D01*
X133520654Y-140154324D02*
X133453212Y-139957231D01*
X132399973Y-136988757D02*
X132399673Y-136987959D01*
X65103483Y-150308377D02*
X65098711Y-150792824D01*
X134708951Y-160103993D02*
X134708993Y-160103125D01*
X65093862Y-152332911D02*
X65093867Y-152335760D01*
X133522901Y-166835492D02*
X133549448Y-166803591D01*
X130722821Y-133258918D02*
X130735565Y-133247999D01*
X67907770Y-136169134D02*
X67837320Y-136356803D01*
X134799013Y-146611980D02*
X134798822Y-146607615D01*
X131523288Y-134783166D02*
X131522688Y-134781745D01*
X134753452Y-159066152D02*
X134753473Y-159065593D01*
X130388779Y-64423328D02*
X130383450Y-64391055D01*
X68640410Y-134388771D02*
X68639996Y-134389789D01*
X134904625Y-151304163D02*
X134904612Y-151301369D01*
X131276850Y-134181575D02*
X131275145Y-134177208D01*
X66139808Y-141128463D02*
X66139598Y-141129074D01*
X67338118Y-167412025D02*
X67378190Y-167426095D01*
X134313403Y-164028204D02*
X134313432Y-164028031D01*
X131950438Y-135803598D02*
X131947561Y-135796449D01*
X65112940Y-154414196D02*
X65112948Y-154414720D01*
X65270342Y-145393669D02*
X65270248Y-145394889D01*
X133160201Y-167154280D02*
X133166168Y-167150082D01*
X65173983Y-147302600D02*
X65173892Y-147305247D01*
X134896511Y-150307949D02*
X134896481Y-150305121D01*
X65098678Y-150796448D02*
X65098655Y-150799261D01*
X134729657Y-145393669D02*
X134710743Y-145153554D01*
X132021837Y-135984716D02*
X132018541Y-135976222D01*
X65126789Y-148910315D02*
X65117848Y-149348745D01*
X134565509Y-143881334D02*
X134565253Y-143879596D01*
X131525122Y-134787503D02*
X131524533Y-134786112D01*
X134789368Y-158011195D02*
X134789424Y-158009372D01*
X134251632Y-164389341D02*
X134251701Y-164388943D01*
X133433164Y-139897965D02*
X133432197Y-139895079D01*
X65521233Y-143353831D02*
X65520803Y-143356122D01*
X134376027Y-163665045D02*
X134376279Y-163663570D01*
X134221388Y-142258387D02*
X134217692Y-142245412D01*
X65471204Y-143645484D02*
X65470931Y-143647210D01*
X68905591Y-133690994D02*
X68901663Y-133702263D01*
X130393048Y-64455758D02*
X130388779Y-64423328D01*
X66678815Y-167031824D02*
X66689986Y-167041001D01*
X132807000Y-138089431D02*
X132806163Y-138087127D01*
X65126879Y-148906097D02*
X65126869Y-148906564D01*
X134014679Y-141586912D02*
X134014300Y-141585751D01*
X68485768Y-134761679D02*
X68485587Y-134762109D01*
X71700000Y-162500000D02*
X71689733Y-162656631D01*
X66390413Y-140410490D02*
X66390317Y-140410766D01*
X134894767Y-153896384D02*
X134894772Y-153895905D01*
X134273842Y-142448014D02*
X134226119Y-142275248D01*
X68408033Y-134945263D02*
X68407806Y-134945797D01*
X134660401Y-144624191D02*
X134659261Y-144613637D01*
X65920133Y-141789160D02*
X65919673Y-141790595D01*
X65227850Y-158542352D02*
X65227864Y-158542750D01*
X65149180Y-148059906D02*
X65149168Y-148060287D01*
X134835516Y-156446202D02*
X134835520Y-156446072D01*
X65135018Y-155445727D02*
X65148999Y-155934289D01*
X134820535Y-156960806D02*
X134820537Y-156960759D01*
X65161297Y-147676828D02*
X65161287Y-147677137D01*
X65347675Y-161101819D02*
X65347756Y-161103068D01*
X134083829Y-141801585D02*
X134083373Y-141800150D01*
X134835758Y-156438084D02*
X134835761Y-156437959D01*
X65249013Y-145702613D02*
X65232812Y-145971425D01*
X133531822Y-140186741D02*
X133523726Y-140163269D01*
X116501605Y-64520952D02*
X116500267Y-64561822D01*
X66563519Y-139907822D02*
X66551421Y-139943608D01*
X65839656Y-142049862D02*
X65787174Y-142228588D01*
X132479761Y-137202148D02*
X132400346Y-136989755D01*
X131595435Y-134953434D02*
X131595370Y-134953281D01*
X65921447Y-165330845D02*
X65924816Y-165347469D01*
X65401363Y-144114677D02*
X65399822Y-144126093D01*
X134873210Y-148910315D02*
X134873200Y-148909831D01*
X68836574Y-133883470D02*
X68835861Y-133885413D01*
X68722631Y-134182899D02*
X68720037Y-134189518D01*
X126198036Y-124758730D02*
X125850000Y-124991281D01*
X67193836Y-138087127D02*
X67192999Y-138089431D01*
X134251178Y-164391985D02*
X134251632Y-164389341D01*
X134436791Y-143134982D02*
X134432915Y-143116322D01*
X68379344Y-167638459D02*
X68399953Y-167641454D01*
X65659894Y-142705006D02*
X65659309Y-142707401D01*
X69391344Y-162040779D02*
X69460769Y-161899999D01*
X67652940Y-167504736D02*
X67658634Y-167506123D01*
X69140535Y-167728243D02*
X69142266Y-167728426D01*
X66638234Y-139684184D02*
X66638172Y-139684370D01*
X134850831Y-148060287D02*
X134850819Y-148059906D01*
X134578954Y-162053413D02*
X134579117Y-162051645D01*
X134850909Y-155937397D02*
X134850950Y-155936016D01*
X65686715Y-164028900D02*
X65748298Y-164388943D01*
X134189585Y-164745014D02*
X134189771Y-164743984D01*
X65867133Y-165054952D02*
X65867458Y-165056674D01*
X131877069Y-167599300D02*
X131903200Y-167594912D01*
X65134630Y-155430880D02*
X65134646Y-155431515D01*
X65126964Y-148902341D02*
X65126953Y-148902824D01*
X66551124Y-139944484D02*
X66550147Y-139947366D01*
X134681464Y-160624840D02*
X134681876Y-160617852D01*
X132480228Y-137203397D02*
X132479805Y-137202264D01*
X133941212Y-141366071D02*
X133940914Y-141365178D01*
X68717272Y-134196542D02*
X68695839Y-134250765D01*
X65113005Y-154418262D02*
X65113013Y-154418773D01*
X66058257Y-165914115D02*
X66059422Y-165918283D01*
X68909724Y-133679045D02*
X68908947Y-133681301D01*
X134850923Y-148063286D02*
X134850912Y-148062913D01*
X65105328Y-153903985D02*
X65105374Y-153907292D01*
X134652857Y-161093436D02*
X134652935Y-161092183D01*
X66283048Y-166538454D02*
X66288258Y-166548433D01*
X133696468Y-140658642D02*
X133696467Y-140658637D01*
X67310151Y-167401790D02*
X67331000Y-167409466D01*
X134805232Y-157486331D02*
X134805261Y-157485353D01*
X116500000Y-64578181D02*
X116500000Y-132500000D01*
X68838923Y-133877045D02*
X68836574Y-133883470D01*
X65267460Y-159587814D02*
X65267489Y-159588517D01*
X133280173Y-139438697D02*
X133279954Y-139438048D01*
X133521697Y-140157367D02*
X133521501Y-140156797D01*
X65164479Y-156446072D02*
X65164483Y-156446202D01*
X133609180Y-166722825D02*
X133647633Y-166663224D01*
X65210705Y-158013561D02*
X65210765Y-158015441D01*
X68096799Y-167594912D02*
X68122930Y-167599300D01*
X134479196Y-143356122D02*
X134478766Y-143353831D01*
X134383819Y-142889747D02*
X134345137Y-142725864D01*
X133825163Y-166284305D02*
X133839576Y-166244197D01*
X65564214Y-163292445D02*
X65567330Y-163312692D01*
X65916170Y-141801585D02*
X65913151Y-141811152D01*
X68876549Y-133773258D02*
X68875853Y-133775206D01*
X134767607Y-145978604D02*
X134767243Y-145972363D01*
X65231592Y-145992960D02*
X65231543Y-145993884D01*
X134798567Y-146601961D02*
X134784468Y-146298410D01*
X131226426Y-167688854D02*
X131228784Y-167688585D01*
X134067163Y-165385618D02*
X134070700Y-165369029D01*
X134862697Y-148476629D02*
X134862683Y-148476090D01*
X134619152Y-161569322D02*
X134619260Y-161567840D01*
X134681401Y-160625888D02*
X134681464Y-160624840D01*
X116678061Y-64001128D02*
X116659889Y-64028326D01*
X132724601Y-137863622D02*
X132724490Y-137863319D01*
X130273739Y-64084431D02*
X130257384Y-64056103D01*
X133966288Y-165821692D02*
X133967345Y-165817495D01*
X134287235Y-142498194D02*
X134283419Y-142483616D01*
X134442957Y-163242822D02*
X134485704Y-162926569D01*
X134812883Y-146948410D02*
X134812747Y-146944951D01*
X131512393Y-134757304D02*
X131454489Y-134619231D01*
X65470931Y-143647210D02*
X65438770Y-143852974D01*
X131668075Y-135124287D02*
X131668047Y-135124219D01*
X66390819Y-166722825D02*
X66413681Y-166755345D01*
X65991192Y-141569053D02*
X65988627Y-141576818D01*
X134862683Y-148476090D02*
X134862590Y-148472554D01*
X65250135Y-145684946D02*
X65250064Y-145686021D01*
X65685036Y-164019116D02*
X65685062Y-164019267D01*
X134886986Y-154418773D02*
X134886994Y-154418262D01*
X134789294Y-158013561D02*
X134789301Y-158013330D01*
X134906234Y-151811006D02*
X134906233Y-151810586D01*
X132967000Y-138534249D02*
X132966841Y-138533803D01*
X134330915Y-142668159D02*
X134287799Y-142500372D01*
X69547975Y-161769486D02*
X69651471Y-161651471D01*
X131282205Y-134195218D02*
X131280482Y-134190842D01*
X128769486Y-161547975D02*
X128899999Y-161460769D01*
X133938931Y-141359260D02*
X133938632Y-141358371D01*
X67273705Y-137868248D02*
X67194937Y-138084105D01*
X67276372Y-137860969D02*
X67276254Y-137861288D01*
X131357820Y-134384410D02*
X131355758Y-134379311D01*
X66450551Y-166803591D02*
X66477098Y-166835492D01*
X133050893Y-138771535D02*
X133050717Y-138771031D01*
X131310100Y-134265694D02*
X131309572Y-134264371D01*
X70540928Y-167845501D02*
X70550486Y-167845959D01*
X65342084Y-144601519D02*
X65340911Y-144612062D01*
X124667683Y-119047376D02*
X125078220Y-119129037D01*
X65511772Y-162907218D02*
X65513962Y-162924059D01*
X130361175Y-64295521D02*
X130351680Y-64264219D01*
X68257784Y-135299228D02*
X68257619Y-135299621D01*
X67060274Y-167290124D02*
X67088995Y-167305084D01*
X66160423Y-166244197D02*
X66174836Y-166284305D01*
X66546787Y-139957231D02*
X66479345Y-140154324D01*
X68755449Y-167686745D02*
X68771215Y-167688585D01*
X66871393Y-138994301D02*
X66871203Y-138994850D01*
X131274629Y-134175883D02*
X131241620Y-134090967D01*
X132241044Y-136565335D02*
X132241029Y-136565295D01*
X69310266Y-162656631D02*
X69299999Y-162500000D01*
X68872358Y-133784952D02*
X68871657Y-133786902D01*
X133959088Y-165849779D02*
X133966288Y-165821692D01*
X131168433Y-133897078D02*
X131167715Y-133895133D01*
X131742380Y-135299621D02*
X131742215Y-135299228D01*
X133910492Y-166024032D02*
X133911975Y-166018917D01*
X65134646Y-155431515D02*
X65134748Y-155435630D01*
X132090327Y-136164088D02*
X132090080Y-136163432D01*
X65109952Y-149819372D02*
X65109945Y-149819829D01*
X131376946Y-134431421D02*
X131360003Y-134389789D01*
X65348968Y-161121071D02*
X65349055Y-161122316D01*
X132163564Y-136359160D02*
X132163549Y-136359121D01*
X133609187Y-140409345D02*
X133534915Y-140195677D01*
X134850955Y-155935833D02*
X134850995Y-155934452D01*
X134130355Y-165068171D02*
X134132541Y-165056674D01*
X132162836Y-136357223D02*
X132162841Y-136357100D01*
X132092229Y-136169134D02*
X132091981Y-136168474D01*
X65250617Y-145677728D02*
X65250135Y-145684946D01*
X134850995Y-155934452D02*
X134851000Y-155934289D01*
X65988530Y-165638122D02*
X65989311Y-165641429D01*
X122649999Y-119448718D02*
X123025413Y-119263585D01*
X130351680Y-64264219D02*
X130341165Y-64233245D01*
X134710635Y-145152197D02*
X134709896Y-145143138D01*
X68644652Y-134378293D02*
X68644241Y-134379311D01*
X65161513Y-147670259D02*
X65161503Y-147670547D01*
X66872836Y-138990136D02*
X66872645Y-138990688D01*
X133857645Y-166191831D02*
X133874269Y-166141586D01*
X131809441Y-135459299D02*
X131809184Y-135458686D01*
X116582873Y-64172411D02*
X116570356Y-64202631D01*
X65117651Y-149359282D02*
X65117644Y-149359735D01*
X131312376Y-134271377D02*
X131311847Y-134270059D01*
X68475642Y-134785696D02*
X68475466Y-134786112D01*
X68113159Y-135646516D02*
X68112816Y-135647360D01*
X66065973Y-141344756D02*
X66065669Y-141345650D01*
X65369555Y-144362572D02*
X65368213Y-144373645D01*
X65684770Y-164017572D02*
X65684916Y-164018418D01*
X65616180Y-142889747D02*
X65615574Y-142892343D01*
X65149087Y-148062913D02*
X65149076Y-148063286D01*
X130819393Y-167732262D02*
X130831026Y-167731139D01*
X133035631Y-167235936D02*
X133044325Y-167230484D01*
X68404629Y-134953281D02*
X68404564Y-134953434D01*
X65149044Y-155935833D02*
X65149049Y-155936016D01*
X71539230Y-163100000D02*
X71452024Y-163230513D01*
X134887051Y-154414720D02*
X134887059Y-154414196D01*
X126512741Y-124482741D02*
X126198036Y-124758730D01*
X131953727Y-135811827D02*
X131950869Y-135804675D01*
X131513337Y-134759552D02*
X131513162Y-134759135D01*
X65164216Y-156437248D02*
X65164221Y-156437420D01*
X65912702Y-141812581D02*
X65909710Y-141822162D01*
X131667623Y-135123219D02*
X131667242Y-135122323D01*
X67111473Y-138314928D02*
X67110520Y-138317586D01*
X65117644Y-149359735D02*
X65110006Y-149816030D01*
X134492977Y-162868478D02*
X134493271Y-162865962D01*
X67194937Y-138084105D02*
X67194815Y-138084438D01*
X132163549Y-136359121D02*
X132162892Y-136357371D01*
X130140653Y-63898710D02*
X130118293Y-63874836D01*
X65113073Y-154422290D02*
X65113082Y-154422819D01*
X132319827Y-136775052D02*
X132319805Y-136774992D01*
X131167715Y-133895133D02*
X131164138Y-133885413D01*
X65134748Y-155435630D02*
X65134764Y-155436247D01*
X65383505Y-161603702D02*
X65418477Y-162024405D01*
X71608655Y-162040779D02*
X71659110Y-162189417D01*
X67426429Y-167441707D02*
X67432910Y-167443727D01*
X65749939Y-164398441D02*
X65807436Y-164728242D01*
X134753608Y-159061922D02*
X134753628Y-159061368D01*
X134864997Y-155445125D02*
X134865111Y-155440975D01*
X134890145Y-149826129D02*
X134890104Y-149823195D01*
X65420882Y-162051645D02*
X65421045Y-162053413D01*
X132162797Y-136357116D02*
X132162721Y-136356916D01*
X65810228Y-164743984D02*
X65810414Y-164745014D01*
X65095406Y-151298140D02*
X65095390Y-151300928D01*
X132480750Y-137204797D02*
X132480671Y-137204586D01*
X67680194Y-136774992D02*
X67680172Y-136775052D01*
X132523626Y-167456952D02*
X132567089Y-167443727D01*
X65137534Y-148467997D02*
X65137520Y-148468510D01*
X129901389Y-167812834D02*
X130376122Y-167773357D01*
X131098336Y-133702263D02*
X131095365Y-133693740D01*
X134731741Y-145421828D02*
X134731157Y-145413658D01*
X131667664Y-135123318D02*
X131667623Y-135123219D01*
X68188543Y-135464115D02*
X68186796Y-135468307D01*
X134789234Y-158015441D02*
X134789294Y-158013561D01*
X134768456Y-145993884D02*
X134768407Y-145992960D01*
X128391344Y-162959220D02*
X128340889Y-162810582D01*
X133285179Y-139453636D02*
X133284961Y-139452982D01*
X116697114Y-63974540D02*
X116678061Y-64001128D01*
X65436472Y-143868021D02*
X65434746Y-143879596D01*
X134886917Y-154422819D02*
X134886926Y-154422290D01*
X66124084Y-166136521D02*
X66125730Y-166141586D01*
X66050572Y-165886155D02*
X66058257Y-165914115D01*
X65916626Y-141800150D02*
X65916170Y-141801585D01*
X65137423Y-148472035D02*
X65137409Y-148472554D01*
X134812566Y-146940439D02*
X134799253Y-146617624D01*
X130659110Y-162189417D02*
X130689733Y-162343368D01*
X134682832Y-160600709D02*
X134708285Y-160117282D01*
X133696467Y-140658637D02*
X133616090Y-140429128D01*
X131591560Y-134944306D02*
X131591380Y-134943881D01*
X65268173Y-145423038D02*
X65250690Y-145676657D01*
X130100000Y-163539230D02*
X129959220Y-163608655D01*
X134708117Y-145122314D02*
X134707998Y-145120965D01*
X134862786Y-148480143D02*
X134862697Y-148476629D01*
X134886853Y-154426354D02*
X134886917Y-154422819D01*
X133361565Y-139683583D02*
X133361500Y-139683387D01*
X66033711Y-165821692D02*
X66040911Y-165849779D01*
X66142788Y-141119823D02*
X66141403Y-141123828D01*
X131383013Y-134446241D02*
X131381637Y-134442892D01*
X66794709Y-139217350D02*
X66793355Y-139221318D01*
X70697624Y-167850000D02*
X129302375Y-167850000D01*
X66467978Y-140187317D02*
X66467322Y-140189218D01*
X132805062Y-138084105D02*
X132726294Y-137868248D01*
X68548588Y-134611867D02*
X68547095Y-134615444D01*
X134011469Y-165638122D02*
X134016621Y-165615992D01*
X65098681Y-150796050D02*
X65098678Y-150796448D01*
X116548319Y-64264219D02*
X116538824Y-64295521D01*
X66639563Y-166998560D02*
X66643485Y-167001933D01*
X134812588Y-146940973D02*
X134812566Y-146940439D01*
X131127641Y-133784952D02*
X131124146Y-133775206D01*
X68118537Y-135633347D02*
X68118188Y-135634199D01*
X68550167Y-134608077D02*
X68549870Y-134608792D01*
X133208190Y-139225870D02*
X133206844Y-139221906D01*
X132621809Y-167426095D02*
X132661881Y-167412025D01*
X65105374Y-153907292D02*
X65105381Y-153907793D01*
X129040779Y-161391344D02*
X129189417Y-161340889D01*
X131433304Y-134568278D02*
X131433008Y-134567561D01*
X65463823Y-162490811D02*
X65464050Y-162492913D01*
X134217692Y-142245412D02*
X134217136Y-142243477D01*
X66720045Y-139438048D02*
X66719826Y-139438697D01*
X134684250Y-144858414D02*
X134684104Y-144856949D01*
X130348528Y-163348528D02*
X130230513Y-163452024D01*
X70614398Y-167848407D02*
X70623962Y-167848681D01*
X133125912Y-138986539D02*
X133125722Y-138985993D01*
X69460769Y-161899999D02*
X69547975Y-161769486D01*
X131238907Y-134083954D02*
X131238278Y-134082323D01*
X65093751Y-151820780D02*
X65093857Y-152329137D01*
X134086848Y-141811152D02*
X134083829Y-141801585D01*
X65232812Y-145971425D02*
X65232756Y-145972363D01*
X131811200Y-135463503D02*
X131809441Y-135459299D01*
X65684647Y-164016855D02*
X65684740Y-164017397D01*
X65811838Y-164752888D02*
X65864668Y-165041721D01*
X134160343Y-142049862D02*
X134159844Y-142048174D01*
X131881462Y-135633347D02*
X131879109Y-135627629D01*
X129674478Y-63608824D02*
X129642882Y-63600358D01*
X131355347Y-134378293D02*
X131353994Y-134374937D01*
X133615684Y-140427968D02*
X133615586Y-140427689D01*
X129882139Y-167814373D02*
X129882933Y-167814311D01*
X65109945Y-149819829D02*
X65109901Y-149822764D01*
X70098610Y-167812834D02*
X70099410Y-167812900D01*
X66477120Y-140160807D02*
X66476469Y-140162698D01*
X134904188Y-152861834D02*
X134904191Y-152861364D01*
X66089507Y-166024032D02*
X66099628Y-166058254D01*
X131452904Y-134615444D02*
X131451411Y-134611867D01*
X65347064Y-161092183D02*
X65347142Y-161093436D01*
X66467125Y-140189787D02*
X66466137Y-140192639D01*
X65093751Y-151820354D02*
X65093751Y-151820780D01*
X129481688Y-63573745D02*
X129449047Y-63571605D01*
X65473053Y-143633923D02*
X65471204Y-143645484D01*
X134882348Y-149359282D02*
X134882294Y-149356228D01*
X129343368Y-163689733D02*
X129189417Y-163659110D01*
X131957423Y-135821136D02*
X131957002Y-135820073D01*
X65164284Y-156439501D02*
X65164457Y-156445351D01*
X134191174Y-164736119D02*
X134192383Y-164729268D01*
X133049573Y-138767765D02*
X133049407Y-138767291D01*
X68931335Y-133616083D02*
X68909724Y-133679045D01*
X68190815Y-135458686D02*
X68190558Y-135459299D01*
X65725563Y-142450183D02*
X65721617Y-142464720D01*
X65511643Y-143406929D02*
X65511245Y-143409230D01*
X68690427Y-134264371D02*
X68689899Y-134265694D01*
X134784468Y-146298410D02*
X134784430Y-146297615D01*
X125474586Y-125176414D02*
X125078220Y-125310962D01*
X130859464Y-167728243D02*
X131208297Y-167690878D01*
X134657737Y-144599943D02*
X134633482Y-144388036D01*
X67192999Y-138089431D02*
X67192862Y-138089810D01*
X65164483Y-156446202D02*
X65164500Y-156446796D01*
X132642956Y-137641653D02*
X132642847Y-137641358D01*
X65655434Y-142723466D02*
X65654862Y-142725864D01*
X65267721Y-159593899D02*
X65267929Y-159598586D01*
X134894721Y-153900179D02*
X134894727Y-153899678D01*
X69460769Y-163100000D02*
X69391344Y-162959220D01*
X127206414Y-123444586D02*
X127021281Y-123820000D01*
X133448875Y-139944484D02*
X133448578Y-139943608D01*
X132561373Y-137421335D02*
X132560833Y-137419883D01*
X133240439Y-167095586D02*
X133245508Y-167091700D01*
X67836193Y-136359803D02*
X67836180Y-136359839D01*
X65117848Y-149348745D02*
X65117839Y-149349199D01*
X132025603Y-135994496D02*
X132022327Y-135985985D01*
X68052872Y-135795374D02*
X68052438Y-135796449D01*
X131600046Y-167641454D02*
X131620655Y-167638459D01*
X66111644Y-166097440D02*
X66113236Y-166102524D01*
X134539534Y-162458393D02*
X134577674Y-162067024D01*
X132162892Y-136357371D02*
X132162888Y-136357359D01*
X134445346Y-143177933D02*
X134441683Y-143159231D01*
X67439166Y-137419883D02*
X67438626Y-137421335D01*
X123832316Y-125392623D02*
X123421779Y-125310962D01*
X67110520Y-138317586D02*
X67110388Y-138317954D01*
X130832753Y-167730969D02*
X130844382Y-167729806D01*
X132096034Y-167559638D02*
X132128202Y-167553386D01*
X68620858Y-134436797D02*
X68618777Y-134441880D01*
X65977617Y-165590512D02*
X65982620Y-165612684D01*
X121159037Y-121391779D02*
X121293585Y-120995413D01*
X65200773Y-146616969D02*
X65200746Y-146617624D01*
X68476711Y-134783166D02*
X68476533Y-134783587D01*
X65270248Y-145394889D02*
X65269625Y-145403049D01*
X130369641Y-64327117D02*
X130361175Y-64295521D01*
X65122722Y-154926638D02*
X65122733Y-154927211D01*
X134313585Y-164027138D02*
X134313615Y-164026968D01*
X66144393Y-166197864D02*
X66158308Y-166238192D01*
X134192383Y-164729268D02*
X134192563Y-164728242D01*
X133453212Y-139957231D02*
X133452915Y-139956361D01*
X65246708Y-159070392D02*
X65246851Y-159074080D01*
X134250129Y-164398050D02*
X134250587Y-164395408D01*
X134682335Y-160609795D02*
X134682393Y-160608747D01*
X65095408Y-151297740D02*
X65095406Y-151298140D01*
X66384315Y-140427968D02*
X66384004Y-140428857D01*
X68945754Y-133592595D02*
X68931335Y-133616083D01*
X116516549Y-64391055D02*
X116511220Y-64423328D01*
X68641768Y-134385423D02*
X68640410Y-134388771D01*
X65369758Y-144360915D02*
X65369555Y-144362572D01*
X129385601Y-167848407D02*
X129449513Y-167845959D01*
X134906240Y-151813862D02*
X134906234Y-151811006D01*
X117418311Y-63573745D02*
X117385758Y-63576951D01*
X133614599Y-140424861D02*
X133610671Y-140413604D01*
X130182972Y-63948588D02*
X130162221Y-63923303D01*
X68768173Y-134065508D02*
X68767549Y-134067142D01*
X65187116Y-146948410D02*
X65187096Y-146948941D01*
X69180606Y-167732262D02*
X69182338Y-167732426D01*
X134850819Y-148059906D02*
X134838712Y-147677137D01*
X68487606Y-134757304D02*
X68487426Y-134757735D01*
X68771215Y-167688585D02*
X68773573Y-167688854D01*
X67978162Y-135984716D02*
X67977672Y-135985985D01*
X65289256Y-145153554D02*
X65270342Y-145393669D01*
X134213387Y-142230518D02*
X134212825Y-142228588D01*
X65148897Y-148069331D02*
X65137534Y-148467997D01*
X68871657Y-133786902D02*
X68869335Y-133793335D01*
X132428799Y-167483810D02*
X132434458Y-167482290D01*
X66049443Y-165881978D02*
X66050572Y-165886155D01*
X65187411Y-146940973D02*
X65187273Y-146944416D01*
X133128796Y-138994850D02*
X133128606Y-138994301D01*
X69299999Y-162500000D02*
X69310266Y-162343368D01*
X65103518Y-150305121D02*
X65103488Y-150307949D01*
X66793355Y-139221318D02*
X66793155Y-139221906D01*
X134485242Y-143389214D02*
X134482466Y-143373815D01*
X66953241Y-138759762D02*
X66953072Y-138760242D01*
X130817661Y-167732426D02*
X130819393Y-167732262D01*
X130385520Y-167772554D02*
X130386732Y-167772449D01*
X65095359Y-151307795D02*
X65093766Y-151810586D01*
X65246874Y-159074642D02*
X65267236Y-159582421D01*
X66719826Y-139438697D02*
X66718368Y-139443028D01*
X68695839Y-134250765D02*
X68695316Y-134252085D01*
X66303398Y-140659021D02*
X66303375Y-140659088D01*
X130329643Y-64202631D02*
X130317126Y-64172411D01*
X133532677Y-140189218D02*
X133532021Y-140187317D01*
X132480289Y-137203561D02*
X132480228Y-137203397D01*
X131811456Y-135464115D02*
X131811200Y-135463503D01*
X65347756Y-161103068D02*
X65348310Y-161111445D01*
X69182338Y-167732426D02*
X69594485Y-167770768D01*
X65200746Y-146617624D02*
X65187433Y-146940439D01*
X68450467Y-167648314D02*
X68734988Y-167684258D01*
X132169872Y-167544863D02*
X132201907Y-167537984D01*
X65557042Y-163242822D02*
X65557461Y-163245851D01*
X65200958Y-146612627D02*
X65200773Y-146616969D01*
X69613267Y-167772449D02*
X69614479Y-167772554D01*
X134709785Y-145141790D02*
X134709021Y-145132723D01*
X134313313Y-164028729D02*
X134313403Y-164028204D01*
X68156924Y-167604731D02*
X68376268Y-167638002D01*
X65123014Y-154940307D02*
X65134630Y-155430880D01*
X131304683Y-134252085D02*
X131304160Y-134250765D01*
X65399822Y-144126093D02*
X65399594Y-144127807D01*
X65560766Y-163269157D02*
X65563758Y-163289422D01*
X66477318Y-140160232D02*
X66477120Y-140160807D01*
X65507022Y-162868478D02*
X65509041Y-162885337D01*
X134896444Y-150301869D02*
X134896438Y-150301412D01*
X133855606Y-166197864D02*
X133857645Y-166191831D01*
X128340889Y-162189417D02*
X128391344Y-162040779D01*
X133358850Y-139675431D02*
X133358782Y-139675227D01*
X67836435Y-136359160D02*
X67836381Y-136359302D01*
X67031791Y-138537636D02*
X67030740Y-138540590D01*
X69391344Y-162959220D02*
X69340889Y-162810582D01*
X133521501Y-140156797D02*
X133520851Y-140154901D01*
X117194219Y-63618319D02*
X117163245Y-63628834D01*
X125850000Y-124991281D02*
X125474586Y-125176414D01*
X134882286Y-149355786D02*
X134882229Y-149352727D01*
X133610671Y-140413604D02*
X133610573Y-140413325D01*
X130689733Y-162656631D02*
X130659110Y-162810582D01*
X68832284Y-133895133D02*
X68831566Y-133897078D01*
X131623731Y-167638002D02*
X131843075Y-167604731D01*
X129189417Y-161340889D02*
X129343368Y-161310266D01*
X68901663Y-133702263D02*
X68900875Y-133704516D01*
X71539230Y-161899999D02*
X71608655Y-162040779D01*
X131101733Y-133711942D02*
X131099124Y-133704516D01*
X117288973Y-63592930D02*
X117257117Y-63600358D01*
X65095789Y-152858392D02*
X65095808Y-152861364D01*
X66796264Y-139212806D02*
X66794908Y-139216767D01*
X134314963Y-164019116D02*
X134315051Y-164018607D01*
X67837163Y-136357223D02*
X67837111Y-136357359D01*
X65210772Y-158015672D02*
X65227637Y-158536029D01*
X68897473Y-133714192D02*
X68879537Y-133764867D01*
X70656631Y-161310266D02*
X70810582Y-161340889D01*
X131262659Y-167684550D02*
X131265011Y-167684258D01*
X133898832Y-166063354D02*
X133900371Y-166058254D01*
X65103596Y-150298592D02*
X65103561Y-150301412D01*
X65194705Y-157484257D02*
X65194709Y-157484379D01*
X65291375Y-160110636D02*
X65291669Y-160116414D01*
X131591901Y-134945110D02*
X131591619Y-134944444D01*
X133616090Y-140429128D02*
X133615995Y-140428857D01*
X134876985Y-154940307D02*
X134876998Y-154939725D01*
X65563758Y-163289422D02*
X65564214Y-163292445D01*
X132481163Y-137205903D02*
X132480750Y-137204797D01*
X133936336Y-141351564D02*
X133934330Y-141345650D01*
X134835720Y-156439337D02*
X134835735Y-156438835D01*
X131881811Y-135634199D02*
X131881462Y-135633347D01*
X132201907Y-167537984D02*
X132206686Y-167536933D01*
X65928778Y-165366553D02*
X65929299Y-165369029D01*
X66476469Y-140162698D02*
X66476273Y-140163269D01*
X68258859Y-135296676D02*
X68257784Y-135299228D01*
X65317223Y-160601752D02*
X65317606Y-160608747D01*
X132886349Y-138308882D02*
X132886199Y-138308468D01*
X65122821Y-154931565D02*
X65122903Y-154935374D01*
X134805290Y-157484379D02*
X134805294Y-157484257D01*
X134890098Y-149822764D02*
X134890054Y-149819829D01*
X133208395Y-139226475D02*
X133208190Y-139225870D01*
X134894727Y-153899678D02*
X134894767Y-153896384D01*
X68717794Y-134195218D02*
X68717272Y-134196542D01*
X68486837Y-134759135D02*
X68486662Y-134759552D01*
X68878843Y-133766819D02*
X68876549Y-133773258D01*
X132086507Y-136154015D02*
X132086256Y-136153356D01*
X133609682Y-140410766D02*
X133609586Y-140410490D01*
X129514241Y-63576951D02*
X129481688Y-63573745D01*
X65134764Y-155436247D02*
X65134872Y-155440377D01*
X66950426Y-138767765D02*
X66949282Y-138771031D01*
X65267929Y-159598586D02*
X65267961Y-159599301D01*
X65290103Y-145143138D02*
X65289364Y-145152197D01*
X66555672Y-166919956D02*
X66626658Y-166986847D01*
X68759011Y-134089337D02*
X68758379Y-134090967D01*
X134008421Y-141567888D02*
X133941212Y-141366071D01*
X134826107Y-147305247D02*
X134826016Y-147302600D01*
X131596965Y-167641892D02*
X131600046Y-167641454D01*
X68800655Y-133980029D02*
X68800040Y-133981667D01*
X134798793Y-146606967D02*
X134798597Y-146602624D01*
X67911823Y-136158404D02*
X67911577Y-136159052D01*
X134602129Y-144140945D02*
X134601907Y-144139234D01*
X131234512Y-134072529D02*
X131232450Y-134067142D01*
X130383450Y-64391055D02*
X130377069Y-64358973D01*
X116538824Y-64295521D02*
X116530358Y-64327117D01*
X68773573Y-167688854D02*
X68789347Y-167690620D01*
X130399999Y-64578181D02*
X130399732Y-64561822D01*
X131573259Y-167645177D02*
X131576343Y-167644758D01*
X134862479Y-148468510D02*
X134862465Y-148467997D01*
X65811651Y-164751860D02*
X65811838Y-164752888D01*
X130735565Y-133247999D02*
X130547766Y-133111778D01*
X67439235Y-137419699D02*
X67439166Y-137419883D01*
X66279328Y-166530706D02*
X66283048Y-166538454D01*
X65105272Y-153899678D02*
X65105278Y-153900179D01*
X131378725Y-134435780D02*
X131377359Y-134432434D01*
X134906131Y-152336207D02*
X134906132Y-152335760D01*
X65562638Y-143137766D02*
X65558871Y-143156440D01*
X133520851Y-140154901D02*
X133520654Y-140154324D01*
X133281849Y-139443676D02*
X133281631Y-139443028D01*
X65099519Y-153374071D02*
X65099523Y-153374554D01*
X134732763Y-159582421D02*
X134753125Y-159074642D01*
X65105321Y-153903500D02*
X65105328Y-153903985D01*
X133205091Y-139216767D02*
X133203735Y-139212806D01*
X134865235Y-155436247D02*
X134865251Y-155435630D01*
X65227973Y-158545877D02*
X65246371Y-159061368D01*
X68404314Y-134954022D02*
X68333212Y-135121251D01*
X66383909Y-140429128D02*
X66303532Y-140658637D01*
X133362148Y-139685331D02*
X133361827Y-139684370D01*
X131360003Y-134389789D02*
X131359589Y-134388771D01*
X134537671Y-162476706D02*
X134537889Y-162474605D01*
X68122930Y-167599300D02*
X68126838Y-167599940D01*
X132642225Y-137639675D02*
X132642126Y-137639408D01*
X134813055Y-146952923D02*
X134813035Y-146952402D01*
X71608655Y-162959220D02*
X71539230Y-163100000D01*
X67758998Y-136565221D02*
X67758970Y-136565295D01*
X65623720Y-163663570D02*
X65623972Y-163665045D01*
X68725370Y-134175883D02*
X68724854Y-134177208D01*
X133777796Y-140891003D02*
X133777683Y-140890680D01*
X65982620Y-165612684D02*
X65983378Y-165615992D01*
X69547975Y-163230513D02*
X69460769Y-163100000D01*
X121987258Y-124482741D02*
X121711269Y-124168036D01*
X134436241Y-163289422D02*
X134439233Y-163269157D01*
X65246851Y-159074080D02*
X65246874Y-159074642D01*
X134749935Y-145686021D02*
X134749864Y-145684946D01*
X67437965Y-137423116D02*
X67437448Y-137424512D01*
X127340962Y-123048220D02*
X127206414Y-123444586D01*
X68622640Y-134432434D02*
X68621274Y-134435780D01*
X65988247Y-141577971D02*
X65985699Y-141585751D01*
X134377953Y-163653685D02*
X134378200Y-163652213D01*
X132090080Y-136163432D02*
X132088422Y-136159052D01*
X66870111Y-167174995D02*
X66955674Y-167230484D01*
X133142534Y-167166517D02*
X133160201Y-167154280D01*
X134212825Y-142228588D02*
X134160343Y-142049862D01*
X66194232Y-166336193D02*
X66194794Y-166337640D01*
X130608655Y-162959220D02*
X130539230Y-163100000D01*
X134710743Y-145153554D02*
X134710635Y-145152197D01*
X65231986Y-145985778D02*
X65231934Y-145986711D01*
X68484993Y-134763520D02*
X68484816Y-134763940D01*
X134005384Y-165663531D02*
X134010688Y-165641429D01*
X69168973Y-167731139D02*
X69180606Y-167732262D01*
X66139598Y-141129074D02*
X66138221Y-141133091D01*
X133967345Y-165817495D02*
X134004581Y-165666829D01*
X134580344Y-162038026D02*
X134581371Y-162026178D01*
X133534915Y-140195677D02*
X133534716Y-140195102D01*
X133130032Y-138998432D02*
X133128796Y-138994850D01*
X133615586Y-140427689D02*
X133615111Y-140426329D01*
X133472133Y-166891586D02*
X133522901Y-166835492D01*
X132385130Y-167495227D02*
X132390808Y-167493773D01*
X130303626Y-64142616D02*
X130289158Y-64113279D01*
X133358501Y-139674384D02*
X133358169Y-139673386D01*
X68475466Y-134786112D02*
X68474877Y-134787503D01*
X133716951Y-166538454D02*
X133720671Y-166530706D01*
X65095752Y-152851058D02*
X65095754Y-152851500D01*
X134315381Y-164016689D02*
X134376027Y-163665045D01*
X123025413Y-119263585D02*
X123421779Y-119129037D01*
X66191965Y-166330243D02*
X66194232Y-166336193D01*
X130452024Y-163230513D02*
X130348528Y-163348528D01*
X134901292Y-150793241D02*
X134901288Y-150792824D01*
X131210652Y-167690620D02*
X131226426Y-167688854D01*
X134600177Y-144126093D02*
X134598636Y-144114677D01*
X130118293Y-63874836D02*
X130095163Y-63851706D01*
X65511245Y-143409230D02*
X65477726Y-143605643D01*
X66857465Y-167166517D02*
X66870111Y-167174995D01*
X134485651Y-143391516D02*
X134485242Y-143389214D01*
X132400291Y-136989609D02*
X132400019Y-136988882D01*
X131667242Y-135122323D02*
X131667237Y-135122310D01*
X134070700Y-165369029D02*
X134071221Y-165366553D01*
X67609191Y-167493773D02*
X67614869Y-167495227D01*
X130348528Y-161651471D02*
X130452024Y-161769486D01*
X134789301Y-158013330D02*
X134789360Y-158011453D01*
X67357043Y-137641653D02*
X67356416Y-137643353D01*
X65313688Y-144879620D02*
X65313549Y-144881093D01*
X65867458Y-165056674D02*
X65869644Y-165068171D01*
X134865353Y-155431515D02*
X134865369Y-155430880D01*
X117072616Y-63666373D02*
X117043279Y-63680841D01*
X67911577Y-136159052D02*
X67909919Y-136163432D01*
X134397906Y-142952410D02*
X134397343Y-142949809D01*
X68153014Y-167604123D02*
X68156924Y-167604731D01*
X66220630Y-140895513D02*
X66220523Y-140895821D01*
X131241620Y-134090967D02*
X131240988Y-134089337D01*
X67113800Y-138308468D02*
X67113650Y-138308882D01*
X132163819Y-136359839D02*
X132163806Y-136359803D01*
X66088024Y-166018917D02*
X66089507Y-166024032D01*
X129459071Y-167845501D02*
X129523069Y-167841823D01*
X134753148Y-159074080D02*
X134753291Y-159070392D01*
X134882229Y-149352727D02*
X134882220Y-149352255D01*
X67029538Y-138543979D02*
X67029384Y-138544414D01*
X65291048Y-160103993D02*
X65291332Y-160109775D01*
X133448578Y-139943608D02*
X133436480Y-139907822D01*
X134753125Y-159074642D02*
X134753148Y-159074080D01*
X129900589Y-167812900D02*
X129901389Y-167812834D01*
X133284961Y-139452982D02*
X133283515Y-139448647D01*
X134835715Y-156439501D02*
X134835720Y-156439337D01*
X66642164Y-139672380D02*
X66642096Y-139672585D01*
X131742215Y-135299228D02*
X131741140Y-135296676D01*
X130689733Y-162343368D02*
X130700000Y-162500000D01*
X66955674Y-167230484D02*
X66964368Y-167235936D01*
X70343368Y-163689733D02*
X70189417Y-163659110D01*
X131450129Y-134608792D02*
X131449832Y-134608077D01*
X65438770Y-143852974D02*
X65438503Y-143854704D01*
X67275509Y-137863319D02*
X67275398Y-137863622D01*
X134896403Y-150298592D02*
X134896398Y-150298147D01*
X133048252Y-138764002D02*
X133048078Y-138763508D01*
X129642882Y-63600358D02*
X129611026Y-63592930D01*
X117353328Y-63581220D02*
X117321054Y-63586549D01*
X65462110Y-162474605D02*
X65462328Y-162476706D01*
X66950592Y-138767291D02*
X66950426Y-138767765D01*
X133049407Y-138767291D02*
X133048252Y-138764002D01*
X134900418Y-153381285D02*
X134900447Y-153378134D01*
X67482883Y-167458884D02*
X67526573Y-167471532D01*
X65095387Y-151301369D02*
X65095374Y-151304163D01*
X134493271Y-162865962D02*
X134534158Y-162509109D01*
X127206414Y-120995413D02*
X127340962Y-121391779D01*
X133533862Y-140192639D02*
X133532874Y-140189787D01*
X132206686Y-167536933D02*
X132297441Y-167516513D01*
X134380089Y-163640841D02*
X134381703Y-163630957D01*
X68331924Y-135124287D02*
X68261505Y-135290410D01*
X131514231Y-134761679D02*
X131513337Y-134759552D01*
X66949282Y-138771031D02*
X66949106Y-138771535D01*
X134812903Y-146948941D02*
X134812883Y-146948410D01*
X66754491Y-167091700D02*
X66759560Y-167095586D01*
X134687365Y-144890965D02*
X134686450Y-144881093D01*
X134901371Y-150802896D02*
X134901368Y-150802472D01*
X65250064Y-145686021D02*
X65249598Y-145693246D01*
X67192025Y-138092119D02*
X67191897Y-138092474D01*
X128651471Y-161651471D02*
X128769486Y-161547975D01*
X65098652Y-150799669D02*
X65098631Y-150802472D01*
X67189003Y-167352923D02*
X67198525Y-167356945D01*
X133279954Y-139438048D02*
X133208395Y-139226475D01*
X67030740Y-138540590D02*
X67030583Y-138541033D01*
X134488754Y-143409230D02*
X134488356Y-143406929D01*
X68042576Y-135821136D02*
X67985770Y-135965200D01*
X131306942Y-134257774D02*
X131306416Y-134256450D01*
X134598636Y-144114677D02*
X134598402Y-144112965D01*
X66637578Y-139686151D02*
X66637510Y-139686354D01*
X134156476Y-142036851D02*
X134155970Y-142035162D01*
X128391344Y-162040779D02*
X128460769Y-161899999D01*
X133361500Y-139683387D02*
X133358850Y-139675431D01*
X133127354Y-138990688D02*
X133127163Y-138990136D01*
X65558316Y-143159231D02*
X65554653Y-143177933D01*
X65093754Y-151817111D02*
X65093753Y-151817505D01*
X133048078Y-138763508D02*
X133046927Y-138760242D01*
X68260263Y-135293347D02*
X68260096Y-135293742D01*
X65149139Y-155939040D02*
X65149144Y-155939218D01*
X65109895Y-149823195D02*
X65109854Y-149826129D01*
X131739736Y-135293347D02*
X131738656Y-135290793D01*
X134900413Y-153381737D02*
X134900418Y-153381285D01*
X129449047Y-63571605D02*
X129408177Y-63570267D01*
X65726157Y-142448014D02*
X65725563Y-142450183D01*
X69614479Y-167772554D02*
X69622660Y-167773255D01*
X134900382Y-153384886D02*
X134900413Y-153381737D01*
X66197530Y-166344532D02*
X66216201Y-166390568D01*
X66219690Y-140898215D02*
X66143004Y-141119199D01*
X132562551Y-137424512D02*
X132562034Y-137423116D01*
X65093867Y-152335760D02*
X65093868Y-152336207D01*
X65929299Y-165369029D02*
X65932836Y-165385618D01*
X66964368Y-167235936D02*
X66974250Y-167241709D01*
X65418628Y-162026178D02*
X65419655Y-162038026D01*
X65924816Y-165347469D02*
X65925325Y-165349946D01*
X65712764Y-142498194D02*
X65712200Y-142500372D01*
X65149144Y-155939218D02*
X65164216Y-156437248D01*
X134820537Y-156960759D02*
X134820539Y-156960664D01*
X134862799Y-148480668D02*
X134862786Y-148480143D01*
X65602656Y-142949809D02*
X65602093Y-142952410D01*
X132088422Y-136159052D02*
X132088176Y-136158404D01*
X65105381Y-153907793D02*
X65112940Y-154414196D01*
X131170806Y-133903485D02*
X131168433Y-133897078D01*
X68800040Y-133981667D02*
X68796958Y-133989848D01*
X134906248Y-151820354D02*
X134906246Y-151817505D01*
X65317606Y-160608747D02*
X65317664Y-160609795D01*
X68563640Y-134575662D02*
X68562667Y-134578009D01*
X68548887Y-134611151D02*
X68548588Y-134611867D01*
X133874269Y-166141586D02*
X133875915Y-166136521D01*
X134389026Y-142912342D02*
X134388435Y-142909747D01*
X132014229Y-135965200D02*
X131957423Y-135821136D01*
X134652935Y-161092183D02*
X134681401Y-160625888D01*
X66637510Y-139686354D02*
X66568093Y-139894208D01*
X65787174Y-142228588D02*
X65786612Y-142230518D01*
X67837271Y-136356914D02*
X67837278Y-136356916D01*
X65872200Y-165081381D02*
X65872536Y-165083100D01*
X66222203Y-140891003D02*
X66221472Y-140893095D01*
X70104771Y-167813337D02*
X70105563Y-167813401D01*
X134901318Y-150796050D02*
X134901292Y-150793241D01*
X65348310Y-161111445D02*
X65348393Y-161112690D01*
X134798822Y-146607615D02*
X134798793Y-146606967D01*
X67599653Y-136989755D02*
X67520238Y-137202148D01*
X134753313Y-159069833D02*
X134753452Y-159066152D01*
X134877084Y-154935929D02*
X134877096Y-154935374D01*
X134835735Y-156438835D02*
X134835739Y-156438720D01*
X134838486Y-147670259D02*
X134826121Y-147305652D01*
X66642096Y-139672585D02*
X66641893Y-139673197D01*
X134896481Y-150305121D02*
X134896476Y-150304674D01*
X65721034Y-142466891D02*
X65717154Y-142481445D01*
X132561435Y-137421503D02*
X132561373Y-137421335D01*
X65509041Y-162885337D02*
X65509349Y-162887856D01*
X122649999Y-124991281D02*
X122301963Y-124758730D01*
X132399333Y-136987051D02*
X132399278Y-136986903D01*
X133822972Y-166290282D02*
X133825163Y-166284305D01*
X130230513Y-163452024D02*
X130100000Y-163539230D01*
X129311943Y-167849908D02*
X129376037Y-167848681D01*
X65227637Y-158536029D02*
X65227651Y-158536442D01*
X133940577Y-165918283D02*
X133941742Y-165914115D01*
X65194767Y-157486331D02*
X65194770Y-157486423D01*
X70623962Y-167848681D02*
X70688056Y-167849908D01*
X65215823Y-146292328D02*
X65215569Y-146297615D01*
X65807436Y-164728242D02*
X65807616Y-164729268D01*
X68474695Y-134787934D02*
X68408678Y-134943741D01*
X134730374Y-145403049D02*
X134729751Y-145394889D01*
X68405221Y-134951888D02*
X68404983Y-134952448D01*
X65137302Y-148476629D02*
X65137213Y-148480143D01*
X67759017Y-136565170D02*
X67758998Y-136565221D01*
X134825894Y-147299173D02*
X134825797Y-147296512D01*
X132807974Y-138092119D02*
X132807137Y-138089810D01*
X134886843Y-154426887D02*
X134886853Y-154426354D01*
X65187252Y-146944951D02*
X65187116Y-146948410D01*
X65134888Y-155440975D02*
X65135002Y-155445125D01*
X65164462Y-156445503D02*
X65164479Y-156446072D01*
X131163425Y-133883470D02*
X131161076Y-133877045D01*
X65164526Y-156447680D02*
X65179460Y-156960664D01*
X134075183Y-165347469D02*
X134078552Y-165330845D01*
X134135013Y-165043442D02*
X134135331Y-165041721D01*
X68616568Y-134447257D02*
X68566991Y-134567561D01*
X65113013Y-154418773D02*
X65113073Y-154422290D01*
X116500000Y-132500000D02*
X116207106Y-133207106D01*
X134616615Y-161602216D02*
X134617415Y-161592241D01*
X134906241Y-151814248D02*
X134906240Y-151813862D01*
X121293585Y-120995413D02*
X121478718Y-120619999D01*
X121077376Y-122637683D02*
X121049999Y-122219999D01*
X133522681Y-140160232D02*
X133521697Y-140157367D01*
X129302375Y-167850000D02*
X129311943Y-167849908D01*
X68186540Y-135468923D02*
X68184796Y-135473122D01*
X134083373Y-141800150D02*
X134080326Y-141790595D01*
X134805328Y-157483099D02*
X134820535Y-156960806D01*
X67836259Y-136359607D02*
X67836252Y-136359647D01*
X131954156Y-135812903D02*
X131953727Y-135811827D01*
X133127163Y-138990136D02*
X133125912Y-138986539D01*
X131231826Y-134065508D02*
X131206320Y-133998508D01*
X67981458Y-135976222D02*
X67978162Y-135984716D01*
X65749412Y-164395408D02*
X65749870Y-164398050D01*
X65227743Y-158539203D02*
X65227756Y-158539587D01*
X67830127Y-167544863D02*
X67834917Y-167545867D01*
X66641217Y-139675227D02*
X66641149Y-139675431D01*
X134313723Y-164026334D02*
X134314937Y-164019267D01*
X131667237Y-135122310D02*
X131666831Y-135121355D01*
X133362421Y-139686151D02*
X133362211Y-139685522D01*
X66527866Y-166891586D02*
X66555672Y-166919956D01*
X65773880Y-142275248D02*
X65726157Y-142448014D01*
X131515006Y-134763520D02*
X131514412Y-134762109D01*
X65338162Y-144637888D02*
X65315895Y-144856949D01*
X134155970Y-142035162D02*
X134152563Y-142023856D01*
X133841691Y-166238192D02*
X133855606Y-166197864D01*
X134078552Y-165330845D02*
X134079049Y-165328359D01*
X129546671Y-63581220D02*
X129514241Y-63576951D01*
X65137200Y-148480668D02*
X65127051Y-148898603D01*
X67193963Y-138086778D02*
X67193836Y-138087127D01*
X65557461Y-163245851D02*
X65560329Y-163266134D01*
X68545809Y-134618516D02*
X68545510Y-134619231D01*
X67029384Y-138544414D02*
X66953241Y-138759762D01*
X134772348Y-158536442D02*
X134772362Y-158536029D01*
X132969416Y-138541033D02*
X132969259Y-138540590D01*
X65291882Y-145122314D02*
X65291094Y-145131371D01*
X130386732Y-167772449D02*
X130394909Y-167771729D01*
X68257619Y-135299621D02*
X68190815Y-135458686D01*
X131451112Y-134611151D02*
X131450129Y-134608792D01*
X65122810Y-154931014D02*
X65122821Y-154931565D01*
X67836381Y-136359302D02*
X67836363Y-136359352D01*
X65103601Y-150298147D02*
X65103596Y-150298592D01*
X132808102Y-138092474D02*
X132807974Y-138092119D01*
X65291669Y-160116414D02*
X65291714Y-160117282D01*
X65684740Y-164017397D02*
X65684770Y-164017572D01*
X129895228Y-167813337D02*
X129900589Y-167812900D01*
X132644308Y-137645320D02*
X132643670Y-137643590D01*
X133609283Y-140409620D02*
X133609187Y-140409345D01*
X132162841Y-136357100D02*
X132162797Y-136357116D01*
X134906138Y-152332443D02*
X134906141Y-152329573D01*
X134490650Y-162887856D02*
X134490958Y-162885337D01*
X134750920Y-145701531D02*
X134750470Y-145694319D01*
X132434458Y-167482290D02*
X132466894Y-167473375D01*
X132163618Y-136359302D02*
X132163564Y-136359160D01*
X65382584Y-161592241D02*
X65383384Y-161602216D01*
X134900447Y-153378134D02*
X134900450Y-153377683D01*
X70189417Y-163659110D02*
X70040779Y-163608655D01*
X65464050Y-162492913D02*
X65465605Y-162507012D01*
X66303532Y-140658637D02*
X66303531Y-140658642D01*
X131355758Y-134379311D02*
X131355347Y-134378293D01*
X132970461Y-138543979D02*
X132969416Y-138541033D01*
X65135002Y-155445125D02*
X65135018Y-155445727D01*
X65161440Y-147672436D02*
X65161430Y-147672738D01*
X131099124Y-133704516D02*
X131098336Y-133702263D01*
X70099410Y-167812900D02*
X70104771Y-167813337D01*
X67836450Y-136359121D02*
X67836435Y-136359160D01*
X116931128Y-63748061D02*
X116904540Y-63767114D01*
X131246899Y-167686465D02*
X131262659Y-167684550D01*
X66568093Y-139894208D02*
X66567802Y-139895079D01*
X133886763Y-166102524D02*
X133888355Y-166097440D01*
X65216123Y-146286273D02*
X65215861Y-146291539D01*
X134732539Y-159587814D02*
X134732734Y-159583116D01*
X134442538Y-163245851D02*
X134442957Y-163242822D01*
X66638499Y-139683387D02*
X66638434Y-139683583D01*
X66303341Y-140659183D02*
X66222316Y-140890680D01*
X134789360Y-158011453D02*
X134789368Y-158011195D01*
X65161503Y-147670547D02*
X65161440Y-147672436D01*
X65103488Y-150307949D02*
X65103483Y-150308377D01*
X134686311Y-144879620D02*
X134685367Y-144869752D01*
X68761092Y-134083954D02*
X68759011Y-134089337D01*
X124250000Y-125420000D02*
X123832316Y-125392623D01*
X65246526Y-159065593D02*
X65246547Y-159066152D01*
X67871797Y-167553386D02*
X67903965Y-167559638D01*
X66638434Y-139683583D02*
X66638234Y-139684184D01*
X134565253Y-143879596D02*
X134563527Y-143868021D01*
X134873130Y-148906564D02*
X134873120Y-148906097D01*
X65432554Y-143894655D02*
X65403418Y-144099842D01*
X134873120Y-148906097D02*
X134873046Y-148902824D01*
X71689733Y-162343368D02*
X71700000Y-162500000D01*
X133934330Y-141345650D02*
X133934026Y-141344756D01*
X134633482Y-144388036D02*
X134633290Y-144386382D01*
X67913743Y-136153356D02*
X67913492Y-136154015D01*
X131453203Y-134616158D02*
X131452904Y-134615444D01*
X65186944Y-146952923D02*
X65174216Y-147296133D01*
X65105227Y-153895905D02*
X65105232Y-153896384D01*
X134851002Y-148065915D02*
X134850923Y-148063286D01*
X134894671Y-153903985D02*
X134894678Y-153903500D01*
X130399732Y-64561822D02*
X130398394Y-64520952D01*
X132481215Y-137206044D02*
X132481163Y-137205903D01*
X130846115Y-167729629D02*
X130857733Y-167728426D01*
X132644391Y-137645546D02*
X132644308Y-137645320D01*
X134090733Y-141823592D02*
X134090289Y-141822162D01*
X68621274Y-134435780D02*
X68620858Y-134436797D01*
X125474586Y-119263585D02*
X125850000Y-119448718D01*
X134251108Y-164392393D02*
X134251178Y-164391985D01*
X134313432Y-164028031D02*
X134313585Y-164027138D01*
X65267489Y-159588517D02*
X65267691Y-159593206D01*
X65554653Y-143177933D02*
X65554115Y-143180722D01*
X130399999Y-132588617D02*
X130399999Y-64578181D01*
X132517116Y-167458884D02*
X132523626Y-167456952D01*
X132162679Y-136356803D02*
X132092229Y-136169134D01*
X67903965Y-167559638D02*
X67908769Y-167560548D01*
X67194815Y-138084438D02*
X67193963Y-138086778D01*
X65113156Y-154426887D02*
X65122722Y-154926638D01*
X128460769Y-161899999D02*
X128547975Y-161769486D01*
X131907100Y-167594241D02*
X131933209Y-167589644D01*
X134767660Y-145979529D02*
X134767607Y-145978604D01*
X65201402Y-146602624D02*
X65201206Y-146606967D01*
X65210765Y-158015441D02*
X65210772Y-158015672D01*
X68695316Y-134252085D02*
X68693583Y-134256450D01*
X71100000Y-161460769D02*
X71230513Y-161547975D01*
X127340962Y-121391779D02*
X127422623Y-121802316D01*
X65864986Y-165043442D02*
X65867133Y-165054952D01*
X65117705Y-149356228D02*
X65117651Y-149359282D01*
X66641149Y-139675431D02*
X66638499Y-139683387D01*
X132939725Y-167290124D02*
X133025749Y-167241709D01*
X133130227Y-138998998D02*
X133130032Y-138998432D01*
X65291714Y-160117282D02*
X65317167Y-160600709D01*
X132399673Y-136987959D02*
X132399611Y-136987792D01*
X134488227Y-162907218D02*
X134488547Y-162904705D01*
X134799253Y-146617624D02*
X134799226Y-146616969D01*
X65269625Y-145403049D02*
X65269533Y-145404274D01*
X134850860Y-155939040D02*
X134850902Y-155937618D01*
X128299999Y-162500000D02*
X128310266Y-162343368D01*
X134437361Y-143137766D02*
X134436791Y-143134982D01*
X133783798Y-166390568D02*
X133802469Y-166344532D01*
X133615015Y-140426055D02*
X133614693Y-140425133D01*
X133778635Y-140893407D02*
X133778527Y-140893095D01*
X65137520Y-148468510D02*
X65137423Y-148472035D01*
X65932836Y-165385618D02*
X65933371Y-165388094D01*
X134379846Y-163642319D02*
X134380089Y-163640841D01*
X65349055Y-161122316D02*
X65380739Y-161567840D01*
X133586318Y-166755345D02*
X133609180Y-166722825D01*
X128547975Y-161769486D02*
X128651471Y-161651471D01*
X132723745Y-137861288D02*
X132723627Y-137860969D01*
X134825783Y-147296133D02*
X134813055Y-146952923D01*
X68761721Y-134082323D02*
X68761092Y-134083954D01*
X65380847Y-161569322D02*
X65381587Y-161579306D01*
X134889993Y-149816030D02*
X134882355Y-149359735D01*
X65511452Y-162904705D02*
X65511772Y-162907218D01*
X134900476Y-153374554D02*
X134900480Y-153374071D01*
X68753100Y-167686465D02*
X68755449Y-167686745D01*
X130700000Y-162500000D02*
X130689733Y-162656631D01*
X132241029Y-136565295D02*
X132241001Y-136565221D01*
X134732070Y-159598586D02*
X134732278Y-159593899D01*
X134250652Y-164395031D02*
X134251108Y-164392393D01*
X69153884Y-167729629D02*
X69155617Y-167729806D01*
X65517954Y-143371513D02*
X65517533Y-143373815D01*
X134906142Y-152329137D02*
X134906248Y-151820780D01*
X134563265Y-143866285D02*
X134561496Y-143854704D01*
X134004581Y-165666829D02*
X134005384Y-165663531D01*
X128460769Y-163100000D02*
X128391344Y-162959220D01*
X132162721Y-136356916D02*
X132162737Y-136356911D01*
X65567084Y-143116322D02*
X65563208Y-143134982D01*
X65095390Y-151300928D02*
X65095387Y-151301369D01*
X65110006Y-149816030D02*
X65109998Y-149816467D01*
X65371346Y-144348197D02*
X65371138Y-144349843D01*
X116522930Y-64358973D02*
X116516549Y-64391055D01*
X134388435Y-142909747D02*
X134384425Y-142892343D01*
X65194676Y-157483263D02*
X65194705Y-157484257D01*
X134682393Y-160608747D02*
X134682776Y-160601752D01*
X67985770Y-135965200D02*
X67985272Y-135966467D01*
X67798092Y-167537984D02*
X67830127Y-167544863D01*
X131513162Y-134759135D02*
X131512573Y-134757735D01*
X68831566Y-133897078D02*
X68829193Y-133903485D01*
X134188161Y-164752888D02*
X134188348Y-164751860D01*
X65513962Y-162924059D02*
X65514295Y-162926569D01*
X134439670Y-163266134D02*
X134442538Y-163245851D01*
X66715038Y-139452982D02*
X66714820Y-139453636D01*
X133206844Y-139221906D02*
X133206644Y-139221318D01*
X65749870Y-164398050D02*
X65749939Y-164398441D01*
X65686384Y-164026968D02*
X65686414Y-164027138D01*
X134189771Y-164743984D02*
X134190993Y-164737140D01*
X131843075Y-167604731D02*
X131846985Y-167604123D01*
X132668999Y-167409466D02*
X132689848Y-167401790D01*
X69142266Y-167728426D02*
X69153884Y-167729629D01*
X66793155Y-139221906D02*
X66791809Y-139225870D01*
X134485704Y-162926569D02*
X134486037Y-162924059D01*
X132821151Y-167348247D02*
X132911004Y-167305084D01*
X133435219Y-139904081D02*
X133434925Y-139903208D01*
X132689848Y-167401790D02*
X132704426Y-167396162D01*
X66563813Y-139906951D02*
X66563519Y-139907822D01*
X65686596Y-164028204D02*
X65686686Y-164028729D01*
X68487426Y-134757735D02*
X68486837Y-134759135D01*
X134528795Y-143645484D02*
X134526946Y-143633923D01*
X134783836Y-146285472D02*
X134783567Y-146280208D01*
X132163747Y-136359647D02*
X132163749Y-136359604D01*
X131594778Y-134951888D02*
X131594725Y-134951764D01*
X71230513Y-161547975D02*
X71348528Y-161651471D01*
X66791809Y-139225870D02*
X66791604Y-139226475D01*
X68646005Y-134374937D02*
X68644652Y-134378293D01*
X134478766Y-143353831D02*
X134445884Y-143180722D01*
X65216432Y-146280208D02*
X65216163Y-146285472D01*
X134581371Y-162026178D02*
X134581522Y-162024405D01*
X68693057Y-134257774D02*
X68690427Y-134264371D01*
X131592193Y-134945797D02*
X131591966Y-134945263D01*
X124667683Y-125392623D02*
X124250000Y-125420000D01*
X129810582Y-163659110D02*
X129656631Y-163689733D01*
X134886994Y-154418262D02*
X134887051Y-154414720D01*
X131947127Y-135795374D02*
X131887183Y-135647360D01*
X134315051Y-164018607D02*
X134315083Y-164018418D01*
X131123450Y-133773258D02*
X131121156Y-133766819D01*
X65123001Y-154939725D02*
X65123014Y-154940307D01*
X65989311Y-165641429D02*
X65994615Y-165663531D01*
X130221937Y-64001128D02*
X130202885Y-63974540D01*
X66384888Y-140426329D02*
X66384413Y-140427689D01*
X65809006Y-164737140D02*
X65810228Y-164743984D01*
X133858812Y-141124454D02*
X133858596Y-141123828D01*
X132968049Y-138537189D02*
X132967000Y-138534249D01*
X132400346Y-136989755D02*
X132400291Y-136989609D01*
X134784430Y-146297615D02*
X134784176Y-146292328D01*
X134805265Y-157485222D02*
X134805290Y-157484379D01*
X134750986Y-145702613D02*
X134750920Y-145701531D01*
X127450000Y-122219999D02*
X127422623Y-122637683D01*
X66641830Y-139673386D02*
X66641498Y-139674384D01*
X65164279Y-156439337D02*
X65164284Y-156439501D01*
X66479345Y-140154324D02*
X66479148Y-140154901D01*
X133615995Y-140428857D02*
X133615684Y-140427968D01*
X132320236Y-136776142D02*
X132320187Y-136776010D01*
X66637788Y-139685522D02*
X66637578Y-139686151D01*
X134862465Y-148467997D02*
X134851102Y-148069331D01*
X134017379Y-165612684D02*
X134022382Y-165590512D01*
X68426740Y-167645177D02*
X68447384Y-167647915D01*
X134596581Y-144099842D02*
X134567445Y-143894655D01*
X68261505Y-135290410D02*
X68261343Y-135290793D01*
X134087297Y-141812581D02*
X134086848Y-141811152D01*
X133950556Y-165881978D02*
X133957996Y-165853967D01*
X66871203Y-138994850D02*
X66869967Y-138998432D01*
X67356416Y-137643353D02*
X67356329Y-137643590D01*
X65137213Y-148480143D02*
X65137200Y-148480668D01*
X134650944Y-161122316D02*
X134651031Y-161121071D01*
X116500267Y-64561822D02*
X116500000Y-64578181D01*
X134600405Y-144127807D02*
X134600177Y-144126093D01*
X131591966Y-134945263D02*
X131591901Y-134945110D01*
X134631786Y-144373645D02*
X134630444Y-144362572D01*
X131275145Y-134177208D02*
X131274629Y-134175883D01*
X131311847Y-134270059D02*
X131310100Y-134265694D01*
X68719517Y-134190842D02*
X68717794Y-134195218D01*
X134381703Y-163630957D02*
X134381942Y-163629475D01*
X65462328Y-162476706D02*
X65463823Y-162490811D01*
X69769486Y-163452024D02*
X69651471Y-163348528D01*
X66390716Y-140409620D02*
X66390413Y-140410490D01*
X134071221Y-165366553D02*
X134074674Y-165349946D01*
X116558834Y-64233245D02*
X116548319Y-64264219D01*
X65231543Y-145993884D02*
X65216474Y-146279412D01*
X134708624Y-160110636D02*
X134708667Y-160109775D01*
X66872645Y-138990688D02*
X66871393Y-138994301D01*
X70476930Y-167841823D02*
X70540928Y-167845501D01*
X130100000Y-161460769D02*
X130230513Y-161547975D01*
X132163733Y-136359609D02*
X132163636Y-136359352D01*
X133358561Y-139674563D02*
X133358501Y-139674384D01*
X129040779Y-163608655D02*
X128899999Y-163539230D01*
X70467383Y-167841182D02*
X70476930Y-167841823D01*
X134896398Y-150298147D02*
X134890151Y-149826571D01*
X66222316Y-140890680D02*
X66222203Y-140891003D01*
X131309572Y-134264371D02*
X131306942Y-134257774D01*
X65315749Y-144858414D02*
X65314775Y-144868280D01*
X133431906Y-139894208D02*
X133362489Y-139686354D01*
X132466894Y-167473375D02*
X132473426Y-167471532D01*
X134789227Y-158015672D02*
X134789234Y-158015441D01*
X134850950Y-155936016D02*
X134850955Y-155935833D01*
X134749382Y-145677728D02*
X134749309Y-145676657D01*
X68796958Y-133989848D02*
X68796341Y-133991482D01*
X117491822Y-63570267D02*
X117450952Y-63571605D01*
X134906248Y-151820780D02*
X134906248Y-151820354D01*
X70656631Y-163689733D02*
X70500000Y-163700000D01*
X67476373Y-167456952D02*
X67482883Y-167458884D01*
X131379141Y-134436797D02*
X131378725Y-134435780D01*
X68259027Y-135296276D02*
X68258859Y-135296676D01*
X68066790Y-167589644D02*
X68092899Y-167594241D01*
X69595698Y-167770880D02*
X69603870Y-167771620D01*
X65250690Y-145676657D02*
X65250617Y-145677728D01*
X117385758Y-63576951D02*
X117353328Y-63581220D01*
X66352366Y-166663224D02*
X66390819Y-166722825D01*
X134894618Y-153907793D02*
X134894625Y-153907292D01*
X133444327Y-166919956D02*
X133472133Y-166891586D01*
X66228554Y-166419918D02*
X66234951Y-166434399D01*
X131524357Y-134785696D02*
X131523466Y-134783587D01*
X65095372Y-151304575D02*
X65095361Y-151307361D01*
X66953072Y-138760242D02*
X66951921Y-138763508D01*
X68879537Y-133764867D02*
X68878843Y-133766819D01*
X66384004Y-140428857D02*
X66383909Y-140429128D01*
X70810582Y-161340889D02*
X70959220Y-161391344D01*
X129941674Y-63729889D02*
X129913896Y-63712615D01*
X66799083Y-167125256D02*
X66833831Y-167150082D01*
X71230513Y-163452024D02*
X71100000Y-163539230D01*
X67599980Y-136988882D02*
X67599708Y-136989609D01*
X134661837Y-144637888D02*
X134661674Y-144636310D01*
X130202885Y-63974540D02*
X130182972Y-63948588D01*
X65475506Y-143618914D02*
X65475220Y-143620643D01*
X66303398Y-140659021D02*
X66303398Y-140659021D01*
X133858596Y-141123828D02*
X133857211Y-141119823D01*
X134159844Y-142048174D02*
X134156476Y-142036851D01*
X131161076Y-133877045D02*
X131160366Y-133875098D01*
X134079049Y-165328359D02*
X134127463Y-165083100D01*
X66385400Y-140424861D02*
X66385306Y-140425133D01*
X126788730Y-124168036D02*
X126512741Y-124482741D01*
X130394909Y-167771729D02*
X130396129Y-167771620D01*
X133523530Y-140162698D02*
X133522879Y-140160807D01*
X130539230Y-161899999D02*
X130608655Y-162040779D01*
X134750401Y-145693246D02*
X134749935Y-145686021D01*
X133283301Y-139448008D02*
X133281849Y-139443676D01*
X67837202Y-136357116D02*
X67837183Y-136357109D01*
X134835494Y-156446965D02*
X134835499Y-156446796D01*
X131666831Y-135121355D02*
X131666787Y-135121251D01*
X132347059Y-167504736D02*
X132385130Y-167495227D01*
X129913896Y-63712615D02*
X129885568Y-63696260D01*
X134127463Y-165083100D02*
X134127799Y-165081381D01*
X132162888Y-136357359D02*
X132162836Y-136357223D01*
X68408678Y-134943741D02*
X68408619Y-134943881D01*
X134877189Y-154931014D02*
X134877266Y-154927211D01*
X67793313Y-167536933D02*
X67798092Y-167537984D01*
X68399953Y-167641454D02*
X68403034Y-167641892D01*
X134535949Y-162492913D02*
X134536176Y-162490811D01*
X131591321Y-134943741D02*
X131525304Y-134787934D01*
X134393519Y-142932363D02*
X134392942Y-142929764D01*
X134882160Y-149349199D02*
X134882151Y-149348745D01*
X134192563Y-164728242D02*
X134250060Y-164398441D01*
X65620153Y-163642319D02*
X65621799Y-163652213D01*
X131595628Y-134953889D02*
X131595435Y-134953434D01*
X131124146Y-133775206D02*
X131123450Y-133773258D01*
X134865369Y-155430880D02*
X134876985Y-154940307D01*
X134651606Y-161112690D02*
X134651689Y-161111445D01*
X134835520Y-156446072D02*
X134835537Y-156445503D01*
X132480671Y-137204586D02*
X132480289Y-137203561D01*
X133839576Y-166244197D02*
X133841691Y-166238192D01*
X66220523Y-140895821D02*
X66219794Y-140897916D01*
X68052438Y-135796449D02*
X68049561Y-135803598D01*
X66796474Y-139212194D02*
X66796264Y-139212806D01*
X133361765Y-139684184D02*
X133361565Y-139683583D01*
X65782307Y-142245412D02*
X65778611Y-142258387D01*
X66549852Y-139948235D02*
X66548367Y-139952601D01*
X66303531Y-140658642D02*
X66303507Y-140658709D01*
X130831026Y-167731139D02*
X130832753Y-167730969D01*
X66689986Y-167041001D02*
X66715723Y-167061529D01*
X66465939Y-140193210D02*
X66465283Y-140195102D01*
X65164221Y-156437420D02*
X65164238Y-156437959D01*
X116737778Y-63923303D02*
X116717027Y-63948588D01*
X134772026Y-158545877D02*
X134772040Y-158545496D01*
X132022327Y-135985985D02*
X132021837Y-135984716D01*
X131525304Y-134787934D02*
X131525122Y-134787503D01*
X68688152Y-134270059D02*
X68687623Y-134271377D01*
X67519328Y-137204586D02*
X67519249Y-137204797D01*
X133802469Y-166344532D02*
X133805205Y-166337640D01*
X134435785Y-163292445D02*
X134436241Y-163289422D01*
X134887059Y-154414196D02*
X134894618Y-153907793D01*
X117225521Y-63608824D02*
X117194219Y-63618319D01*
X65397870Y-144140945D02*
X65371346Y-144348197D01*
X67837320Y-136356803D02*
X67837293Y-136356793D01*
X132400019Y-136988882D02*
X132399973Y-136988757D01*
X123421779Y-119129037D02*
X123832316Y-119047376D01*
X66791604Y-139226475D02*
X66720045Y-139438048D01*
X132807137Y-138089810D02*
X132807000Y-138089431D01*
X131121156Y-133766819D02*
X131120462Y-133764867D01*
X131205699Y-133996873D02*
X131203658Y-133991482D01*
X65460674Y-162460495D02*
X65462110Y-162474605D01*
X133358106Y-139673197D02*
X133357903Y-139672585D01*
X134315259Y-164017397D02*
X134315352Y-164016855D01*
X65227864Y-158542750D02*
X65227959Y-158545496D01*
X67981954Y-135974951D02*
X67981458Y-135976222D01*
X65807616Y-164729268D02*
X65808825Y-164736119D01*
X134850855Y-155939218D02*
X134850860Y-155939040D01*
X134753473Y-159065593D02*
X134753608Y-159061922D01*
X132162737Y-136356911D02*
X132162742Y-136356780D01*
X133861990Y-141133711D02*
X133861778Y-141133091D01*
X132889611Y-138317954D02*
X132889479Y-138317586D01*
X134617531Y-161590758D02*
X134618300Y-161580786D01*
X121711269Y-120271963D02*
X121987258Y-119957258D01*
X66566541Y-139898842D02*
X66565074Y-139903208D01*
X65477726Y-143605643D02*
X65477435Y-143607368D01*
X132661881Y-167412025D02*
X132668999Y-167409466D01*
X134651689Y-161111445D02*
X134652243Y-161103068D01*
X65161430Y-147672738D02*
X65161367Y-147674648D01*
X66794908Y-139216767D02*
X66794709Y-139217350D01*
X134732038Y-159599301D02*
X134732070Y-159598586D01*
X134872960Y-148899097D02*
X134872948Y-148898603D01*
X65422325Y-162067024D02*
X65460465Y-162458393D01*
X134906246Y-151817505D02*
X134906245Y-151817111D01*
X121293585Y-123444586D02*
X121159037Y-123048220D01*
X66718368Y-139443028D02*
X66718150Y-139443676D01*
X65148997Y-148065915D02*
X65148985Y-148066304D01*
X70110923Y-167813830D02*
X70111716Y-167813892D01*
X132018045Y-135974951D02*
X132014727Y-135966467D01*
X125078220Y-125310962D02*
X124667683Y-125392623D01*
X131128342Y-133786902D02*
X131127641Y-133784952D01*
X67438626Y-137421335D02*
X67438564Y-137421503D01*
X68403034Y-167641892D02*
X68423656Y-167644758D01*
X133522879Y-140160807D02*
X133522681Y-140160232D01*
X66839798Y-167154280D02*
X66857465Y-167166517D01*
X65098631Y-150802472D02*
X65098628Y-150802896D01*
X66141403Y-141123828D02*
X66141187Y-141124454D01*
X65267265Y-159583116D02*
X65267460Y-159587814D01*
X65164505Y-156446965D02*
X65164522Y-156447557D01*
X71659110Y-162189417D02*
X71689733Y-162343368D01*
X67356329Y-137643590D02*
X67355691Y-137645320D01*
X69340889Y-162810582D02*
X69310266Y-162656631D01*
X69899999Y-163539230D02*
X69769486Y-163452024D01*
X66833831Y-167150082D02*
X66839798Y-167154280D01*
X133356514Y-167001933D02*
X133360436Y-166998560D01*
X65137409Y-148472554D02*
X65137316Y-148476090D01*
X65127051Y-148898603D02*
X65127039Y-148899097D01*
X132163636Y-136359352D02*
X132163618Y-136359302D01*
X65401597Y-144112965D02*
X65401363Y-144114677D01*
X68793679Y-133998508D02*
X68768173Y-134065508D01*
X131304160Y-134250765D02*
X131282727Y-134196542D01*
X134850912Y-148062913D02*
X134850831Y-148060287D01*
X134074674Y-165349946D02*
X134075183Y-165347469D01*
X129888283Y-167813892D02*
X129889076Y-167813830D01*
X134577842Y-162065262D02*
X134578954Y-162053413D01*
X70500000Y-163700000D02*
X70343368Y-163689733D01*
X65810414Y-164745014D02*
X65811651Y-164751860D01*
X133771445Y-166419918D02*
X133780960Y-166397420D01*
X134894678Y-153903500D02*
X134894721Y-153900179D01*
X134890054Y-149819829D02*
X134890047Y-149819372D01*
X68687623Y-134271377D02*
X68646414Y-134373920D01*
X131199959Y-133981667D02*
X131199344Y-133980029D01*
X65113146Y-154426354D02*
X65113156Y-154426887D01*
X65685062Y-164019267D02*
X65686276Y-164026334D01*
X65686686Y-164028729D02*
X65686715Y-164028900D01*
X65103523Y-150304674D02*
X65103518Y-150305121D01*
X68839633Y-133875098D02*
X68838923Y-133877045D01*
X67908018Y-136168474D02*
X67907770Y-136169134D01*
X134314937Y-164019267D02*
X134314963Y-164019116D01*
X131950869Y-135804675D02*
X131950438Y-135803598D01*
X116530358Y-64327117D02*
X116522930Y-64358973D01*
X67599708Y-136989609D02*
X67599653Y-136989755D01*
X132810996Y-167352923D02*
X132821151Y-167348247D01*
X134901321Y-150796448D02*
X134901318Y-150796050D01*
X65291006Y-160103125D02*
X65291048Y-160103993D01*
X131306416Y-134256450D02*
X131304683Y-134252085D01*
X67438039Y-137422916D02*
X67437965Y-137423116D01*
X65174092Y-147299551D02*
X65173997Y-147302229D01*
X128547975Y-163230513D02*
X128460769Y-163100000D01*
X66567802Y-139895079D02*
X66566835Y-139897965D01*
X133279257Y-167065480D02*
X133284276Y-167061529D01*
X67191897Y-138092474D02*
X67113800Y-138308468D01*
X133805767Y-166336193D02*
X133808034Y-166330243D01*
X70117860Y-167814373D02*
X70467383Y-167841182D01*
X68333168Y-135121355D02*
X68332762Y-135122310D01*
X134865111Y-155440975D02*
X134865127Y-155440377D01*
X65317664Y-160609795D02*
X65318062Y-160616798D01*
X134901368Y-150802472D02*
X134901347Y-150799669D01*
X68693583Y-134256450D02*
X68693057Y-134257774D01*
X131515183Y-134763940D02*
X131515006Y-134763520D01*
X117508181Y-63570000D02*
X117491822Y-63570267D01*
X129500000Y-163700000D02*
X129343368Y-163689733D01*
X65436734Y-143866285D02*
X65436472Y-143868021D01*
X134784138Y-146291539D02*
X134783876Y-146286273D01*
X134709268Y-160097347D02*
X134709308Y-160096471D01*
X134441683Y-143159231D02*
X134441128Y-143156440D01*
X133025749Y-167241709D02*
X133035631Y-167235936D01*
X133696601Y-140659021D02*
X133696492Y-140658709D01*
X133805205Y-166337640D02*
X133805767Y-166336193D01*
X65312634Y-144890965D02*
X65312501Y-144892432D01*
X134616494Y-161603702D02*
X134616615Y-161602216D01*
X68734988Y-167684258D02*
X68737340Y-167684550D01*
X65093765Y-151811006D02*
X65093759Y-151813862D01*
X117321054Y-63586549D02*
X117288973Y-63592930D01*
X131434581Y-134571368D02*
X131434284Y-134570650D01*
X134901347Y-150799669D02*
X134901344Y-150799261D01*
X134825907Y-147299551D02*
X134825894Y-147299173D01*
X68408380Y-134944444D02*
X68408098Y-134945110D01*
X65995418Y-165666829D02*
X66032654Y-165817495D01*
X131738494Y-135290410D02*
X131668075Y-135124287D01*
X68045843Y-135812903D02*
X68042997Y-135820073D01*
X66389724Y-140412469D02*
X66389426Y-140413325D01*
X68796341Y-133991482D02*
X68794300Y-133996873D01*
X132889479Y-138317586D02*
X132888526Y-138314928D01*
X131102526Y-133714192D02*
X131101733Y-133711942D01*
X131199344Y-133980029D02*
X131197317Y-133974621D01*
X65786612Y-142230518D02*
X65782863Y-142243477D01*
X65465605Y-162507012D02*
X65465841Y-162509109D01*
X133780205Y-140897916D02*
X133779476Y-140895821D01*
X131358231Y-134385423D02*
X131357820Y-134384410D01*
X67391798Y-167430654D02*
X67426429Y-167441707D01*
X132887299Y-138311518D02*
X132886349Y-138308882D01*
X134017584Y-141595857D02*
X134017205Y-141594686D01*
X134865127Y-155440377D02*
X134865235Y-155436247D01*
X131228784Y-167688585D02*
X131244550Y-167686745D01*
X66643485Y-167001933D02*
X66678815Y-167031824D01*
X131160366Y-133875098D02*
X131131370Y-133795283D01*
X132014727Y-135966467D02*
X132014229Y-135965200D01*
X133284276Y-167061529D02*
X133310013Y-167041001D01*
X133211937Y-167117152D02*
X133240439Y-167095586D01*
X66874277Y-138985993D02*
X66874087Y-138986539D01*
X134315229Y-164017572D02*
X134315259Y-164017397D01*
X66138221Y-141133091D02*
X66138009Y-141133711D01*
X133911975Y-166018917D02*
X133940577Y-165918283D01*
X133532874Y-140189787D02*
X133532677Y-140189218D01*
X134397343Y-142949809D02*
X134393519Y-142932363D01*
X134906123Y-152339115D02*
X134906131Y-152336207D01*
X65149004Y-155934452D02*
X65149044Y-155935833D01*
X132560764Y-137419699D02*
X132481215Y-137206044D01*
X131437332Y-134578009D02*
X131436359Y-134575662D01*
X67355691Y-137645320D02*
X67355608Y-137645546D01*
X129391818Y-63570000D02*
X117508181Y-63570000D01*
X65149168Y-148060287D02*
X65149087Y-148062913D01*
X66548069Y-139953475D02*
X66547084Y-139956361D01*
X65099586Y-153381737D02*
X65099617Y-153384886D01*
X134522564Y-143607368D02*
X134522273Y-143605643D01*
X134799226Y-146616969D02*
X134799041Y-146612627D01*
X65686567Y-164028031D02*
X65686596Y-164028204D01*
X134753628Y-159061368D02*
X134772026Y-158545877D01*
X134652243Y-161103068D02*
X134652324Y-161101819D01*
X65109854Y-149826129D02*
X65109848Y-149826571D01*
X67520194Y-137202264D02*
X67519771Y-137203397D01*
X134732510Y-159588517D02*
X134732539Y-159587814D01*
X131522507Y-134781316D02*
X131515183Y-134763940D01*
X65194738Y-157485353D02*
X65194767Y-157486331D01*
X132297441Y-167516513D02*
X132303152Y-167515193D01*
X67837111Y-136357359D02*
X67837107Y-136357371D01*
X65623972Y-163665045D02*
X65684618Y-164016689D01*
X131282727Y-134196542D02*
X131282205Y-134195218D01*
X134486037Y-162924059D02*
X134488227Y-162907218D01*
X65398092Y-144139234D02*
X65397870Y-144140945D01*
X134896516Y-150308377D02*
X134896511Y-150307949D01*
X65368213Y-144373645D02*
X65368015Y-144375299D01*
X65126869Y-148906564D02*
X65126799Y-148909831D01*
X66637851Y-139685331D02*
X66637788Y-139685522D01*
X133245508Y-167091700D02*
X133279257Y-167065480D01*
X65246547Y-159066152D02*
X65246686Y-159069833D01*
X65095786Y-152857945D02*
X65095789Y-152858392D01*
X134904609Y-151300928D02*
X134904593Y-151298140D01*
X134862590Y-148472554D02*
X134862576Y-148472035D01*
X134732278Y-159593899D02*
X134732308Y-159593206D01*
X116904540Y-63767114D02*
X116878588Y-63787027D01*
X132806163Y-138087127D02*
X132806036Y-138086778D01*
X65098628Y-150802896D02*
X65095408Y-151297740D01*
X65103561Y-150301412D02*
X65103555Y-150301869D01*
X134657915Y-144601519D02*
X134657737Y-144599943D01*
X116506951Y-64455758D02*
X116503745Y-64488311D01*
X131238278Y-134082323D02*
X131235138Y-134074161D01*
X65909266Y-141823592D02*
X65851912Y-142009187D01*
X65149097Y-155937618D02*
X65149139Y-155939040D01*
X68331952Y-135124219D02*
X68331924Y-135124287D01*
X134873035Y-148902341D02*
X134872960Y-148899097D01*
X115500000Y-133500000D02*
X69169300Y-133500000D01*
X131739903Y-135293742D02*
X131739736Y-135293347D01*
X131595685Y-134954022D02*
X131595628Y-134953889D01*
X133358169Y-139673386D02*
X133358106Y-139673197D01*
X67600388Y-136987792D02*
X67600326Y-136987959D01*
X65148999Y-155934289D02*
X65149004Y-155934452D01*
X65985320Y-141586912D02*
X65982794Y-141594686D01*
X134904612Y-151301369D02*
X134904609Y-151300928D01*
X67600721Y-136986903D02*
X67600666Y-136987051D01*
X134876998Y-154939725D02*
X134877084Y-154935929D01*
X68794300Y-133996873D02*
X68793679Y-133998508D01*
X134825797Y-147296512D02*
X134825783Y-147296133D01*
X67355608Y-137645546D02*
X67276372Y-137860969D01*
X65403179Y-144101546D02*
X65401597Y-144112965D01*
X131449832Y-134608077D02*
X131437631Y-134578728D01*
X133432197Y-139895079D02*
X133431906Y-139894208D01*
X134432669Y-163312692D02*
X134435785Y-163292445D01*
X65869644Y-165068171D02*
X65869973Y-165069889D01*
X65982794Y-141594686D02*
X65982415Y-141595857D01*
X65291332Y-160109775D02*
X65291375Y-160110636D01*
X67518784Y-137206044D02*
X67439235Y-137419699D01*
X116596373Y-64142616D02*
X116582873Y-64172411D01*
X129578945Y-63586549D02*
X129546671Y-63581220D01*
X65215569Y-146297615D02*
X65215531Y-146298410D01*
X69169300Y-133500000D02*
X68945754Y-133592595D01*
X134799041Y-146612627D02*
X134799013Y-146611980D01*
X67030583Y-138541033D02*
X67029538Y-138543979D01*
X68908947Y-133681301D02*
X68906374Y-133688740D01*
X68120890Y-135627629D02*
X68118537Y-135633347D01*
X134563527Y-143868021D02*
X134563265Y-143866285D01*
X134066628Y-165388094D02*
X134067163Y-165385618D01*
X134851102Y-148069331D02*
X134851091Y-148068936D01*
X66788062Y-167117152D02*
X66799083Y-167125256D01*
X134392942Y-142929764D02*
X134389026Y-142912342D01*
X65149049Y-155936016D02*
X65149090Y-155937397D01*
X65164522Y-156447557D02*
X65164526Y-156447680D01*
X131740972Y-135296276D02*
X131739903Y-135293742D01*
X65289364Y-145152197D02*
X65289256Y-145153554D01*
X116781706Y-63874836D02*
X116759346Y-63898710D01*
X134838712Y-147677137D02*
X134838702Y-147676828D01*
X132026091Y-135995769D02*
X132025603Y-135994496D01*
X132319633Y-136774535D02*
X132241044Y-136565335D01*
X65933371Y-165388094D02*
X65976881Y-165587198D01*
X68875853Y-133775206D02*
X68872358Y-133784952D01*
X65919673Y-141790595D02*
X65916626Y-141800150D01*
X129532616Y-167841182D02*
X129882139Y-167814373D01*
X65991578Y-141567888D02*
X65991192Y-141569053D01*
X66951921Y-138763508D02*
X66951747Y-138764002D01*
X134886926Y-154422290D02*
X134886986Y-154418773D01*
X68332376Y-135123219D02*
X68332335Y-135123318D01*
X66384984Y-140426055D02*
X66384888Y-140426329D01*
X68644241Y-134379311D02*
X68642179Y-134384410D01*
X134376279Y-163663570D02*
X134377953Y-163653685D01*
X66714820Y-139453636D02*
X66642164Y-139672380D01*
X65748367Y-164389341D02*
X65748821Y-164391985D01*
X134900480Y-153374071D02*
X134904188Y-152861834D01*
X65314775Y-144868280D02*
X65314632Y-144869752D01*
X129882933Y-167814311D02*
X129888283Y-167813892D01*
X65347142Y-161093436D02*
X65347675Y-161101819D01*
X67614869Y-167495227D02*
X67652940Y-167504736D01*
X66221364Y-140893407D02*
X66220630Y-140895513D01*
X134618300Y-161580786D02*
X134618412Y-161579306D01*
X134904640Y-151307795D02*
X134904638Y-151307361D01*
X132128202Y-167553386D02*
X132132999Y-167552429D01*
X134581522Y-162024405D02*
X134616494Y-161603702D01*
X67331000Y-167409466D02*
X67338118Y-167412025D01*
X67274672Y-137865602D02*
X67274554Y-137865924D01*
X116503745Y-64488311D02*
X116501605Y-64520952D01*
X132399278Y-136986903D02*
X132320236Y-136776142D01*
X69167246Y-167730969D02*
X69168973Y-167731139D01*
X131095365Y-133693740D02*
X130722821Y-133258918D01*
X122301963Y-124758730D02*
X121987258Y-124482741D01*
X134901288Y-150792824D02*
X134896516Y-150308377D01*
X65117713Y-149355786D02*
X65117705Y-149356228D01*
X66715723Y-167061529D02*
X66720742Y-167065480D01*
X131549532Y-167648314D02*
X131552615Y-167647915D01*
X131815460Y-135473744D02*
X131815203Y-135473122D01*
X70040779Y-161391344D02*
X70189417Y-161340889D01*
X65913151Y-141811152D02*
X65912702Y-141812581D01*
X134651031Y-161121071D02*
X134651606Y-161112690D01*
X67908769Y-167560548D02*
X68062896Y-167588943D01*
X66390812Y-140409345D02*
X66390716Y-140409620D01*
X71452024Y-163230513D02*
X71348528Y-163348528D01*
X65381587Y-161579306D02*
X65381699Y-161580786D01*
X134851091Y-148068936D02*
X134851014Y-148066304D01*
X65291094Y-145131371D02*
X65290978Y-145132723D01*
X134813035Y-146952402D02*
X134812903Y-146948941D01*
X70105563Y-167813401D02*
X70110923Y-167813830D01*
X117043279Y-63680841D02*
X117014431Y-63696260D01*
X134896476Y-150304674D02*
X134896444Y-150301869D01*
X65663847Y-142688965D02*
X65659894Y-142705006D01*
X68485587Y-134762109D02*
X68484993Y-134763520D01*
X134731068Y-145412431D02*
X134730466Y-145404274D01*
X131620655Y-167638459D02*
X131623731Y-167638002D01*
X134882220Y-149352255D02*
X134882160Y-149349199D01*
X66216201Y-166390568D02*
X66219039Y-166397420D01*
X133283515Y-139448647D02*
X133283301Y-139448008D01*
X130452024Y-161769486D02*
X130539230Y-161899999D01*
X131240988Y-134089337D02*
X131238907Y-134083954D01*
X68549870Y-134608792D02*
X68548887Y-134611151D01*
X65338325Y-144636310D02*
X65338162Y-144637888D01*
X67112700Y-138311518D02*
X67112560Y-138311906D01*
X65267236Y-159582421D02*
X65267265Y-159583116D01*
X130659110Y-162810582D02*
X130608655Y-162959220D01*
X68906374Y-133688740D02*
X68905591Y-133690994D01*
X65847436Y-142023856D02*
X65844029Y-142035162D01*
X65380739Y-161567840D02*
X65380847Y-161569322D01*
X65187273Y-146944416D02*
X65187252Y-146944951D01*
X66550147Y-139947366D02*
X66549852Y-139948235D01*
X65267961Y-159599301D02*
X65290691Y-160096471D01*
X65339431Y-144625760D02*
X65338325Y-144636310D01*
X65686276Y-164026334D02*
X65686304Y-164026500D01*
X134631984Y-144375299D02*
X134631786Y-144373645D01*
X133128606Y-138994301D02*
X133127354Y-138990688D01*
X134709021Y-145132723D02*
X134708905Y-145131371D01*
X65460465Y-162458393D02*
X65460674Y-162460495D01*
X130341165Y-64233245D02*
X130329643Y-64202631D01*
X65368015Y-144375299D02*
X65366709Y-144386382D01*
X132561960Y-137422916D02*
X132561435Y-137421503D01*
X65148908Y-148068936D02*
X65148897Y-148069331D01*
X133044325Y-167230484D02*
X133129888Y-167174995D01*
X131738656Y-135290793D02*
X131738494Y-135290410D01*
X66113236Y-166102524D02*
X66124084Y-166136521D01*
X65434490Y-143881334D02*
X65432802Y-143892928D01*
X129500000Y-161299999D02*
X129656631Y-161310266D01*
X66141187Y-141124454D02*
X66139808Y-141128463D01*
X131887183Y-135647360D02*
X131886840Y-135646516D01*
X65686414Y-164027138D02*
X65686567Y-164028031D01*
X65098655Y-150799261D02*
X65098652Y-150799669D01*
X130230513Y-161547975D02*
X130348528Y-161651471D01*
X68261343Y-135290793D02*
X68260263Y-135293347D01*
X66564780Y-139904081D02*
X66563813Y-139906951D01*
X129889076Y-167813830D02*
X129894436Y-167813401D01*
X129656631Y-163689733D02*
X129500000Y-163700000D01*
X66626658Y-166986847D02*
X66639563Y-166998560D01*
X65438503Y-143854704D02*
X65436734Y-143866285D01*
X65563208Y-143134982D02*
X65562638Y-143137766D01*
X131523466Y-134783587D02*
X131523288Y-134783166D01*
X65686304Y-164026500D02*
X65686384Y-164026968D01*
X68900875Y-133704516D02*
X68898266Y-133711942D01*
X133203735Y-139212806D02*
X133203525Y-139212194D01*
X132319634Y-136774536D02*
X132319633Y-136774535D01*
X65179464Y-156960806D02*
X65194671Y-157483099D01*
X66566835Y-139897965D02*
X66566541Y-139898842D01*
X65122915Y-154935929D02*
X65123001Y-154939725D01*
X134904213Y-152857945D02*
X134904229Y-152854959D01*
X68046272Y-135811827D02*
X68045843Y-135812903D01*
X129449513Y-167845959D02*
X129459071Y-167845501D01*
X131353585Y-134373920D02*
X131312376Y-134271377D01*
X67837293Y-136356793D02*
X67837271Y-136356914D01*
X65290214Y-145141790D02*
X65290103Y-145143138D01*
X68332757Y-135122323D02*
X68332376Y-135123219D01*
X131280482Y-134190842D02*
X131279962Y-134189518D01*
X132725445Y-137865924D02*
X132725327Y-137865602D01*
X134838702Y-147676828D02*
X134838641Y-147674942D01*
X65215861Y-146291539D02*
X65215823Y-146292328D01*
X67112560Y-138311906D02*
X67111612Y-138314541D01*
X134904591Y-151297740D02*
X134901371Y-150802896D01*
X131666787Y-135121251D02*
X131595685Y-134954022D01*
X131454190Y-134618516D02*
X131453203Y-134616158D01*
X130377069Y-64358973D02*
X130369641Y-64327117D01*
X66390317Y-140410766D02*
X66389817Y-140412201D01*
X65186964Y-146952402D02*
X65186944Y-146952923D01*
X134315352Y-164016855D02*
X134315381Y-164016689D01*
X65318535Y-160624840D02*
X65318598Y-160625888D01*
X131433008Y-134567561D02*
X131383431Y-134447257D01*
X65093861Y-152332443D02*
X65093862Y-152332911D01*
X65509349Y-162887856D02*
X65511452Y-162904705D01*
X65847947Y-142022171D02*
X65847436Y-142023856D01*
X133780960Y-166397420D02*
X133783798Y-166390568D01*
X66389817Y-140412201D02*
X66389724Y-140412469D01*
X130396129Y-167771620D02*
X130404301Y-167770880D01*
X134534158Y-162509109D02*
X134534394Y-162507012D01*
X65227959Y-158545496D02*
X65227973Y-158545877D01*
X133523726Y-140163269D02*
X133523530Y-140162698D01*
X133451632Y-139952601D02*
X133450147Y-139948235D01*
X133777683Y-140890680D02*
X133696658Y-140659183D01*
X131933209Y-167589644D02*
X131937103Y-167588943D01*
X117257117Y-63600358D02*
X117225521Y-63608824D01*
X65314632Y-144869752D02*
X65313688Y-144879620D01*
X121159037Y-123048220D02*
X121077376Y-122637683D01*
X66385306Y-140425133D02*
X66384984Y-140426055D01*
X132399611Y-136987792D02*
X132399333Y-136987051D01*
X67973908Y-135995769D02*
X67913743Y-136153356D01*
X121478718Y-120619999D02*
X121711269Y-120271963D01*
X134904593Y-151298140D02*
X134904591Y-151297740D01*
X65684618Y-164016689D02*
X65684647Y-164016855D01*
X67110388Y-138317954D02*
X67033158Y-138533803D01*
X121711269Y-124168036D02*
X121478718Y-123820000D01*
X134534394Y-162507012D02*
X134535949Y-162492913D01*
X134906141Y-152329573D02*
X134906142Y-152329137D01*
X65381699Y-161580786D02*
X65382468Y-161590758D01*
X134617415Y-161592241D02*
X134617531Y-161590758D01*
X67679812Y-136776010D02*
X67679763Y-136776142D01*
X66042003Y-165853967D02*
X66049443Y-165881978D01*
X66099628Y-166058254D02*
X66101167Y-166063354D01*
X68803294Y-133972984D02*
X68802682Y-133974621D01*
X66974250Y-167241709D02*
X67060274Y-167290124D01*
X68618362Y-134442892D02*
X68616986Y-134446241D01*
X65721617Y-142464720D02*
X65721034Y-142466891D01*
X134835473Y-156447680D02*
X134835477Y-156447557D01*
X133941742Y-165914115D02*
X133949427Y-165886155D01*
X132704426Y-167396162D02*
X132801474Y-167356945D01*
X133949427Y-165886155D02*
X133950556Y-165881978D01*
X67571200Y-167483810D02*
X67609191Y-167493773D01*
X65187096Y-146948941D02*
X65186964Y-146952402D01*
X66565074Y-139903208D02*
X66564780Y-139904081D01*
X65567803Y-163315709D02*
X65618057Y-163629475D01*
X134877266Y-154927211D02*
X134877277Y-154926638D01*
X134772149Y-158542352D02*
X134772243Y-158539587D01*
X134753291Y-159070392D02*
X134753313Y-159069833D01*
X131353994Y-134374937D02*
X131353585Y-134373920D01*
X134529068Y-143647210D02*
X134528795Y-143645484D01*
X65149076Y-148063286D02*
X65148997Y-148065915D01*
X65095811Y-152861834D02*
X65099519Y-153374071D01*
X65318123Y-160617852D02*
X65318535Y-160624840D01*
X134904627Y-151304575D02*
X134904625Y-151304163D01*
X129827383Y-63666373D02*
X129797588Y-63652873D01*
X133206644Y-139221318D02*
X133205290Y-139217350D01*
X65290731Y-160097347D02*
X65291006Y-160103125D01*
X67836266Y-136359609D02*
X67836259Y-136359607D01*
X121049999Y-122219999D02*
X121077376Y-121802316D01*
X133934026Y-141344756D02*
X133861990Y-141133711D01*
X129810582Y-161340889D02*
X129959220Y-161391344D01*
X134835477Y-156447557D02*
X134835494Y-156446965D01*
X65164264Y-156438835D02*
X65164279Y-156439337D01*
X132240982Y-136565170D02*
X132163819Y-136359839D01*
X133860191Y-141128463D02*
X133858812Y-141124454D01*
X65290691Y-160096471D02*
X65290731Y-160097347D01*
X65611564Y-142909747D02*
X65610973Y-142912342D01*
X133779369Y-140895513D02*
X133778635Y-140893407D01*
X133936635Y-141352448D02*
X133936336Y-141351564D01*
X67432910Y-167443727D02*
X67476373Y-167456952D01*
X134767243Y-145972363D02*
X134767187Y-145971425D01*
X68407806Y-134945797D02*
X68407745Y-134945941D01*
X65093759Y-151813862D02*
X65093758Y-151814248D01*
X65103555Y-150301869D02*
X65103523Y-150304674D01*
X134652324Y-161101819D02*
X134652857Y-161093436D01*
X133647633Y-166663224D02*
X133666535Y-166631398D01*
X133808034Y-166330243D02*
X133822972Y-166290282D01*
X134709896Y-145143138D02*
X134709785Y-145141790D01*
X131937103Y-167588943D02*
X132091230Y-167560548D01*
X132320047Y-136775637D02*
X132319827Y-136775052D01*
X116958325Y-63729889D02*
X116931128Y-63748061D01*
X67702558Y-167516513D02*
X67793313Y-167536933D01*
X134079866Y-141789160D02*
X134017584Y-141595857D01*
X66101167Y-166063354D02*
X66111644Y-166097440D01*
X133696601Y-140659021D02*
X133696601Y-140659021D01*
X134274436Y-142450183D02*
X134273842Y-142448014D01*
X69651471Y-163348528D02*
X69547975Y-163230513D01*
X134767187Y-145971425D02*
X134750986Y-145702613D01*
X132091981Y-136168474D02*
X132090327Y-136164088D01*
X134708330Y-160116414D02*
X134708624Y-160110636D01*
X68547095Y-134615444D02*
X68546796Y-134616158D01*
X65988627Y-141576818D02*
X65988247Y-141577971D01*
X67113650Y-138308882D02*
X67112700Y-138311518D01*
X134250060Y-164398441D02*
X134250129Y-164398050D01*
X65099549Y-153377683D02*
X65099552Y-153378134D01*
X134904229Y-152854959D02*
X134904232Y-152854482D01*
X67276254Y-137861288D02*
X67275509Y-137863319D01*
X65122733Y-154927211D02*
X65122810Y-154931014D01*
X134835761Y-156437959D02*
X134835778Y-156437420D01*
X127021281Y-120619999D02*
X127206414Y-120995413D01*
X65187433Y-146940439D02*
X65187411Y-146940973D01*
X134707998Y-145120965D02*
X134687498Y-144892432D01*
X133720671Y-166530706D02*
X133765048Y-166434399D01*
X134148087Y-142009187D02*
X134090733Y-141823592D01*
X68115492Y-135640787D02*
X68113159Y-135646516D01*
X131232450Y-134067142D02*
X131231826Y-134065508D01*
X129656631Y-161310266D02*
X129810582Y-161340889D01*
X133358782Y-139675227D02*
X133358561Y-139674563D01*
X68092899Y-167594241D02*
X68096799Y-167594912D01*
X130257384Y-64056103D02*
X130240110Y-64028326D01*
X66716698Y-139448008D02*
X66716484Y-139448647D01*
X67836180Y-136359839D02*
X67759017Y-136565170D01*
X65113082Y-154422819D02*
X65113146Y-154426354D01*
X134628861Y-144349843D02*
X134628653Y-144348197D01*
X134820539Y-156960664D02*
X134835473Y-156447680D01*
X67032999Y-138534249D02*
X67031950Y-138537189D01*
X65339598Y-144624191D02*
X65339431Y-144625760D01*
X132726176Y-137867925D02*
X132725445Y-137865924D01*
X132968208Y-138537636D02*
X132968049Y-138537189D01*
X133610182Y-140412201D02*
X133609682Y-140410766D01*
X129523069Y-167841823D02*
X129532616Y-167841182D01*
X134686450Y-144881093D02*
X134686311Y-144879620D01*
X65099617Y-153384886D02*
X65099622Y-153385323D01*
X68618777Y-134441880D02*
X68618362Y-134442892D01*
X133050717Y-138771031D02*
X133049573Y-138767765D01*
X69603870Y-167771620D02*
X69605090Y-167771729D01*
X134750470Y-145694319D02*
X134750401Y-145693246D01*
X65216163Y-146285472D02*
X65216123Y-146286273D01*
X68562368Y-134578728D02*
X68550167Y-134608077D01*
X67111612Y-138314541D02*
X67111473Y-138314928D01*
X65851912Y-142009187D02*
X65851393Y-142010879D01*
X66143004Y-141119199D02*
X66142788Y-141119823D01*
X133281631Y-139443028D02*
X133280173Y-139438697D01*
X116610841Y-64113279D02*
X116596373Y-64142616D01*
X134772243Y-158539587D02*
X134772256Y-158539203D01*
X67834917Y-167545867D02*
X67867000Y-167552429D01*
X132806036Y-138086778D02*
X132805184Y-138084438D01*
X65340911Y-144612062D02*
X65340738Y-144613637D01*
X134016621Y-165615992D02*
X134017379Y-165612684D01*
X131595016Y-134952448D02*
X131594778Y-134951888D01*
X65164457Y-156445351D02*
X65164462Y-156445503D01*
X68486662Y-134759552D02*
X68485768Y-134761679D01*
X130289158Y-64113279D02*
X130273739Y-64084431D01*
X65093878Y-152339540D02*
X65095752Y-152851058D01*
X134681937Y-160616798D02*
X134682335Y-160609795D01*
X68562667Y-134578009D02*
X68562368Y-134578728D01*
X65348393Y-161112690D02*
X65348968Y-161121071D01*
X134732734Y-159583116D02*
X134732763Y-159582421D01*
X134687498Y-144892432D02*
X134687365Y-144890965D01*
X65201432Y-146601961D02*
X65201402Y-146602624D01*
X65619910Y-163640841D02*
X65620153Y-163642319D01*
X134439233Y-163269157D02*
X134439670Y-163266134D01*
X131947561Y-135796449D02*
X131947127Y-135795374D01*
X134749309Y-145676657D02*
X134731826Y-145423038D01*
X134011752Y-141577971D02*
X134011372Y-141576818D01*
X132320062Y-136775677D02*
X132320047Y-136775637D01*
X68646414Y-134373920D02*
X68646005Y-134374937D01*
X67526573Y-167471532D02*
X67533105Y-167473375D01*
X66413681Y-166755345D02*
X66450551Y-166803591D01*
X132888387Y-138314541D02*
X132887439Y-138311906D01*
X65312501Y-144892432D02*
X65292001Y-145120965D01*
X65093876Y-152339115D02*
X65093878Y-152339540D01*
X67836363Y-136359352D02*
X67836266Y-136359609D01*
X131524533Y-134786112D02*
X131524357Y-134785696D01*
X65422157Y-162065262D02*
X65422325Y-162067024D01*
X129995460Y-63767115D02*
X129968871Y-63748061D01*
X134313615Y-164026968D02*
X134313695Y-164026500D01*
X66720742Y-167065480D02*
X66754491Y-167091700D01*
X130071289Y-63829346D02*
X130046696Y-63807778D01*
X67192862Y-138089810D02*
X67192025Y-138092119D01*
X132162742Y-136356780D02*
X132162679Y-136356803D01*
X134685367Y-144869752D02*
X134685224Y-144868280D01*
X67437448Y-137424512D02*
X67437360Y-137424749D01*
X131552615Y-167647915D02*
X131573259Y-167645177D01*
X134345137Y-142725864D02*
X134344565Y-142723466D01*
X66389328Y-140413604D02*
X66385400Y-140424861D01*
X65099552Y-153378134D02*
X65099581Y-153381285D01*
X65313549Y-144881093D02*
X65312634Y-144890965D01*
X133205290Y-139217350D02*
X133205091Y-139216767D01*
X68546796Y-134616158D02*
X68545809Y-134618516D01*
X133436186Y-139906951D02*
X133435219Y-139904081D01*
X134906233Y-151810586D02*
X134904640Y-151307795D01*
X134890104Y-149823195D02*
X134890098Y-149822764D01*
X130162221Y-63923303D02*
X130140653Y-63898710D01*
X130046696Y-63807778D02*
X130021410Y-63787027D01*
X134441128Y-143156440D02*
X134437361Y-143137766D01*
X66478498Y-140156797D02*
X66478302Y-140157367D01*
X65105232Y-153896384D02*
X65105272Y-153899678D01*
X65126799Y-148909831D02*
X65126789Y-148910315D01*
X133940914Y-141365178D02*
X133938931Y-141359260D01*
X130608655Y-162040779D02*
X130659110Y-162189417D01*
X126512741Y-119957258D02*
X126788730Y-120271963D01*
X130021410Y-63787027D02*
X129995460Y-63767115D01*
X65318062Y-160616798D02*
X65318123Y-160617852D01*
X134768407Y-145992960D02*
X134768065Y-145986711D01*
X65210639Y-158011453D02*
X65210698Y-158013330D01*
X68121240Y-135626780D02*
X68120890Y-135627629D01*
X65174105Y-147299173D02*
X65174092Y-147299551D01*
X121077376Y-121802316D02*
X121159037Y-121391779D01*
X116511220Y-64423328D02*
X116506951Y-64455758D01*
X65434746Y-143879596D02*
X65434490Y-143881334D01*
X133780309Y-140898215D02*
X133780205Y-140897916D01*
X65782863Y-142243477D02*
X65782307Y-142245412D01*
X66303507Y-140658709D02*
X66303398Y-140659021D01*
X65748891Y-164392393D02*
X65749347Y-164395031D01*
X68049130Y-135804675D02*
X68046272Y-135811827D01*
X68623053Y-134431421D02*
X68622640Y-134432434D01*
X66548367Y-139952601D02*
X66548069Y-139953475D01*
X133610573Y-140413325D02*
X133610275Y-140412469D01*
X67519249Y-137204797D02*
X67518836Y-137205903D01*
X66058787Y-141366071D02*
X65991578Y-141567888D01*
X65925325Y-165349946D02*
X65928778Y-165366553D01*
X134894625Y-153907292D02*
X134894671Y-153903985D01*
X134862576Y-148472035D02*
X134862479Y-148468510D01*
X133856995Y-141119199D02*
X133780309Y-140898215D01*
X67275398Y-137863622D02*
X67274672Y-137865602D01*
X134315083Y-164018418D02*
X134315229Y-164017572D01*
X117163245Y-63628834D02*
X117132631Y-63640356D01*
X133450147Y-139948235D02*
X133449852Y-139947366D01*
X70688056Y-167849908D02*
X70697624Y-167850000D01*
X68764861Y-134074161D02*
X68761721Y-134082323D01*
X65473331Y-143632198D02*
X65473053Y-143633923D01*
X132560833Y-137419883D02*
X132560764Y-137419699D01*
X65315895Y-144856949D02*
X65315749Y-144858414D01*
X66869967Y-138998432D02*
X66869772Y-138998998D01*
X134772362Y-158536029D02*
X134789227Y-158015672D01*
X69594485Y-167770768D02*
X69595698Y-167770880D01*
X132562639Y-137424749D02*
X132562551Y-137424512D01*
X65174216Y-147296133D02*
X65174202Y-147296512D01*
X67867000Y-167552429D02*
X67871797Y-167553386D01*
X67679952Y-136775637D02*
X67679937Y-136775677D01*
X65174202Y-147296512D02*
X65174105Y-147299173D01*
X134877178Y-154931565D02*
X134877189Y-154931014D01*
X131130664Y-133793335D02*
X131128342Y-133786902D01*
X126788730Y-120271963D02*
X127021281Y-120619999D01*
X134890151Y-149826571D02*
X134890145Y-149826129D01*
X65606480Y-142932363D02*
X65602656Y-142949809D01*
X125850000Y-119448718D02*
X126198036Y-119681269D01*
X133610275Y-140412469D02*
X133610182Y-140412201D01*
X131668047Y-135124219D02*
X131667664Y-135123318D01*
X67295573Y-167396162D02*
X67310151Y-167401790D01*
X66303375Y-140659088D02*
X66303341Y-140659183D01*
X134708667Y-160109775D02*
X134708951Y-160103993D01*
X68404371Y-134953889D02*
X68404314Y-134954022D01*
X134826016Y-147302600D02*
X134826002Y-147302229D01*
X66465084Y-140195677D02*
X66390812Y-140409345D01*
X134838632Y-147674648D02*
X134838569Y-147672738D01*
X129705780Y-63618319D02*
X129674478Y-63608824D01*
X69769486Y-161547975D02*
X69899999Y-161460769D01*
X132970615Y-138544414D02*
X132970461Y-138543979D01*
X68477311Y-134781745D02*
X68476711Y-134783166D01*
X65194709Y-157484379D02*
X65194734Y-157485222D01*
X67909919Y-136163432D02*
X67909672Y-136164088D01*
X131244550Y-167686745D02*
X131246899Y-167686465D01*
X134900377Y-153385323D02*
X134900382Y-153384886D01*
X65684916Y-164018418D02*
X65684948Y-164018607D01*
X67274554Y-137865924D02*
X67273823Y-137867925D01*
X133534060Y-140193210D02*
X133533862Y-140192639D01*
X66288258Y-166548433D02*
X66333464Y-166631398D01*
X67836252Y-136359647D02*
X67836193Y-136359803D01*
X65749347Y-164395031D02*
X65749412Y-164395408D01*
X68447384Y-167647915D02*
X68450467Y-167648314D01*
X133362211Y-139685522D02*
X133362148Y-139685331D01*
X127422623Y-122637683D02*
X127340962Y-123048220D01*
X66221472Y-140893095D02*
X66221364Y-140893407D01*
X134877277Y-154926638D02*
X134886843Y-154426887D01*
X65317167Y-160600709D02*
X65317223Y-160601752D01*
X65249598Y-145693246D02*
X65249529Y-145694319D01*
X66065669Y-141345650D02*
X66063663Y-141351564D01*
X133615111Y-140426329D02*
X133615015Y-140426055D01*
X67519771Y-137203397D02*
X67519710Y-137203561D01*
X65095361Y-151307361D02*
X65095359Y-151307795D01*
X134659088Y-144612062D02*
X134657915Y-144601519D01*
X67837278Y-136356916D02*
X67837202Y-136357116D01*
X66467322Y-140189218D02*
X66467125Y-140189787D01*
X131197317Y-133974621D02*
X131196705Y-133972984D01*
X134772135Y-158542750D02*
X134772149Y-158542352D01*
X68405274Y-134951764D02*
X68405221Y-134951888D01*
X132473426Y-167471532D02*
X132517116Y-167458884D01*
X65095754Y-152851500D02*
X65095767Y-152854482D01*
X67600026Y-136988757D02*
X67599980Y-136988882D01*
X66718150Y-139443676D02*
X66716698Y-139448008D01*
X68737340Y-167684550D02*
X68753100Y-167686465D01*
X65318598Y-160625888D02*
X65347064Y-161092183D01*
X65618296Y-163630957D02*
X65619910Y-163640841D01*
X134906245Y-151817111D02*
X134906241Y-151814248D01*
X65340738Y-144613637D02*
X65339598Y-144624191D01*
X68474877Y-134787503D02*
X68474695Y-134787934D01*
X65109998Y-149816467D02*
X65109952Y-149819372D01*
X134826121Y-147305652D02*
X134826107Y-147305247D01*
X128899999Y-161460769D02*
X129040779Y-161391344D01*
X66063663Y-141351564D02*
X66063364Y-141352448D01*
X68639996Y-134389789D02*
X68623053Y-134431421D01*
X134783525Y-146279412D02*
X134768456Y-145993884D01*
X65134872Y-155440377D02*
X65134888Y-155440975D01*
X65869973Y-165069889D02*
X65872200Y-165081381D01*
X134681876Y-160617852D02*
X134681937Y-160616798D01*
X67758955Y-136565335D02*
X67680366Y-136774535D01*
X134835537Y-156445503D02*
X134835542Y-156445351D01*
X134488547Y-162904705D02*
X134490650Y-162887856D01*
X132608201Y-167430654D02*
X132621809Y-167426095D01*
X134601907Y-144139234D02*
X134600405Y-144127807D01*
X134682776Y-160601752D02*
X134682832Y-160600709D01*
X65093758Y-151814248D02*
X65093754Y-151817111D01*
X133696624Y-140659088D02*
X133696624Y-140659088D01*
X134251701Y-164388943D02*
X134313284Y-164028900D01*
X132320187Y-136776010D02*
X132320062Y-136775677D01*
X129968871Y-63748061D02*
X129941674Y-63729889D01*
X134217136Y-142243477D02*
X134213387Y-142230518D01*
X131522688Y-134781745D02*
X131522507Y-134781316D01*
X65161287Y-147677137D02*
X65149180Y-148059906D01*
X67837183Y-136357109D02*
X67837163Y-136357223D01*
X132726294Y-137868248D02*
X132726176Y-137867925D01*
X65173892Y-147305247D02*
X65173878Y-147305652D01*
X65774419Y-142273312D02*
X65773880Y-142275248D01*
X65840155Y-142048174D02*
X65839656Y-142049862D01*
X65669084Y-142668159D02*
X65668478Y-142670544D01*
X130376122Y-167773357D02*
X130377339Y-167773255D01*
X65249079Y-145701531D02*
X65249013Y-145702613D01*
X132642126Y-137639408D02*
X132562639Y-137424749D01*
X131813203Y-135468307D02*
X131811456Y-135464115D01*
X134890001Y-149816467D02*
X134889993Y-149816030D01*
X65560329Y-163266134D02*
X65560766Y-163269157D01*
X66759560Y-167095586D02*
X66788062Y-167117152D01*
X68566991Y-134567561D02*
X68566695Y-134568278D01*
X66874087Y-138986539D02*
X66872836Y-138990136D01*
X134838496Y-147670547D02*
X134838486Y-147670259D01*
X65194770Y-157486423D02*
X65210567Y-158009102D01*
X133696492Y-140658709D02*
X133696468Y-140658642D01*
X68869335Y-133793335D02*
X68868629Y-133795283D01*
X65843523Y-142036851D02*
X65840155Y-142048174D01*
X66303375Y-140659088D02*
X66303375Y-140659088D01*
X126198036Y-119681269D02*
X126512741Y-119957258D01*
X128310266Y-162343368D02*
X128340889Y-162189417D01*
X132479805Y-137202264D02*
X132479761Y-137202148D01*
X131381637Y-134442892D02*
X131381222Y-134441880D01*
X68476533Y-134783587D02*
X68475642Y-134785696D01*
X134526668Y-143632198D02*
X134524779Y-143620643D01*
X134283419Y-142483616D02*
X134282845Y-142481445D01*
X133362489Y-139686354D02*
X133362421Y-139686151D01*
X132643670Y-137643590D02*
X132643583Y-137643353D01*
X129408177Y-63570267D02*
X129391818Y-63570000D01*
X65668478Y-142670544D02*
X65664443Y-142686574D01*
X116804836Y-63851706D02*
X116781706Y-63874836D01*
X132018541Y-135976222D02*
X132018045Y-135974951D01*
X68404983Y-134952448D02*
X68404914Y-134952612D01*
X66466137Y-140192639D02*
X66465939Y-140193210D01*
X65269533Y-145404274D02*
X65268931Y-145412431D01*
X65179460Y-156960664D02*
X65179462Y-156960759D01*
X134344565Y-142723466D02*
X134340690Y-142707401D01*
X129736754Y-63628834D02*
X129705780Y-63618319D01*
X65909710Y-141822162D02*
X65909266Y-141823592D01*
X129885568Y-63696260D02*
X129856720Y-63680841D01*
X65872536Y-165083100D02*
X65920950Y-165328359D01*
X65618057Y-163629475D02*
X65618296Y-163630957D01*
X130377339Y-167773255D02*
X130385520Y-167772554D01*
X65994615Y-165663531D02*
X65995418Y-165666829D01*
X65554115Y-143180722D02*
X65521233Y-143353831D01*
X133166168Y-167150082D02*
X133200916Y-167125256D01*
X67031950Y-138537189D02*
X67031791Y-138537636D01*
X133549448Y-166803591D02*
X133586318Y-166755345D01*
X134278965Y-142466891D02*
X134278382Y-142464720D01*
X130844382Y-167729806D02*
X130846115Y-167729629D01*
X134378200Y-163652213D02*
X134379846Y-163642319D01*
X65149090Y-155937397D02*
X65149097Y-155937618D01*
X129797588Y-63652873D02*
X129767368Y-63640356D01*
X128310266Y-162656631D02*
X128299999Y-162500000D01*
X66951747Y-138764002D02*
X66950592Y-138767291D01*
X134783567Y-146280208D02*
X134783525Y-146279412D01*
X134708285Y-160117282D02*
X134708330Y-160116414D01*
X134661674Y-144636310D02*
X134660568Y-144625760D01*
X132801474Y-167356945D02*
X132810996Y-167352923D01*
X132805184Y-138084438D02*
X132805062Y-138084105D01*
X68802682Y-133974621D02*
X68800655Y-133980029D01*
X65506728Y-162865962D02*
X65507022Y-162868478D01*
X67437360Y-137424749D02*
X67357873Y-137639408D01*
X134618412Y-161579306D02*
X134619152Y-161569322D01*
X132390808Y-167493773D02*
X132428799Y-167483810D01*
X66333464Y-166631398D02*
X66352366Y-166663224D01*
X65602093Y-142952410D02*
X65567670Y-143113539D01*
X134132866Y-165054952D02*
X134135013Y-165043442D01*
X133361827Y-139684370D02*
X133361765Y-139684184D01*
X134904232Y-152854482D02*
X134904245Y-152851500D01*
X65403418Y-144099842D02*
X65403179Y-144101546D01*
X68720037Y-134189518D02*
X68719517Y-134190842D01*
X65267691Y-159593206D02*
X65267721Y-159593899D01*
X134838569Y-147672738D02*
X134838559Y-147672436D01*
X65201206Y-146606967D02*
X65201177Y-146607615D01*
X65292001Y-145120965D02*
X65291882Y-145122314D01*
X134900450Y-153377683D02*
X134900476Y-153374554D01*
X68791702Y-167690878D02*
X69140535Y-167728243D01*
X129376037Y-167848681D02*
X129385601Y-167848407D01*
X132573570Y-167441707D02*
X132608201Y-167430654D01*
X134619260Y-161567840D02*
X134650944Y-161122316D01*
X131591380Y-134943881D02*
X131591321Y-134943741D01*
X66641438Y-139674563D02*
X66641217Y-139675227D01*
X66174836Y-166284305D02*
X66177027Y-166290282D01*
X134684104Y-144856949D02*
X134661837Y-144637888D01*
X65659309Y-142707401D02*
X65655434Y-142723466D01*
X65621799Y-163652213D02*
X65622046Y-163653685D01*
X131434284Y-134570650D02*
X131433304Y-134568278D01*
X66061367Y-141358371D02*
X66061068Y-141359260D01*
X69605090Y-167771729D02*
X69613267Y-167772449D01*
X131879109Y-135627629D02*
X131878759Y-135626780D01*
X131591619Y-134944444D02*
X131591560Y-134944306D01*
X133125722Y-138985993D02*
X133050893Y-138771535D01*
X67679763Y-136776142D02*
X67600721Y-136986903D01*
X65173878Y-147305652D02*
X65161513Y-147670259D01*
X116986103Y-63712615D02*
X116958325Y-63729889D01*
X68407745Y-134945941D02*
X68405274Y-134951764D01*
M02*
