G04 #@! TF.GenerationSoftware,KiCad,Pcbnew,7.0.11+dfsg-1build4*
G04 #@! TF.CreationDate,2026-10-02T13:13:11+00:00*
G04 #@! TF.ProjectId,struthio_one,73747275-7468-4696-9f5f-6f6e652e6b69,rev?*
G04 #@! TF.SameCoordinates,Original*
G04 #@! TF.FileFunction,Soldermask,Top*
G04 #@! TF.FilePolarity,Negative*
%FSLAX46Y46*%
G04 Gerber Fmt 4.6, Leading zero omitted, Abs format (unit mm)*
G04 Created by KiCad (PCBNEW 7.0.11+dfsg-1build4) date 2026-10-02 13:13:11*
%MOMM*%
%LPD*%
G01*
G04 APERTURE LIST*
G04 Aperture macros list*
%AMRoundRect*
0 Rectangle with rounded corners*
0 $1 Rounding radius*
0 $2 $3 $4 $5 $6 $7 $8 $9 X,Y pos of 4 corners*
0 Add a 4 corners polygon primitive as box body*
4,1,4,$2,$3,$4,$5,$6,$7,$8,$9,$2,$3,0*
0 Add four circle primitives for the rounded corners*
1,1,$1+$1,$2,$3*
1,1,$1+$1,$4,$5*
1,1,$1+$1,$6,$7*
1,1,$1+$1,$8,$9*
0 Add four rect primitives between the rounded corners*
20,1,$1+$1,$2,$3,$4,$5,0*
20,1,$1+$1,$4,$5,$6,$7,0*
20,1,$1+$1,$6,$7,$8,$9,0*
20,1,$1+$1,$8,$9,$2,$3,0*%
G04 Aperture macros list end*
%ADD10R,1.000000X0.750000*%
%ADD11C,2.200000*%
%ADD12RoundRect,0.250000X0.625000X-0.350000X0.625000X0.350000X-0.625000X0.350000X-0.625000X-0.350000X0*%
%ADD13O,1.750000X1.200000*%
%ADD14R,1.700000X1.700000*%
%ADD15C,1.700000*%
G04 APERTURE END LIST*
D10*
G04 #@! TO.C,SW4*
X113000000Y-157125000D03*
X119000000Y-157125000D03*
X113000000Y-160875000D03*
X119000000Y-160875000D03*
G04 #@! TD*
G04 #@! TO.C,SW1*
X79000000Y-139825000D03*
X85000000Y-139825000D03*
X79000000Y-143575000D03*
X85000000Y-143575000D03*
G04 #@! TD*
D11*
G04 #@! TO.C,SW5*
X75214076Y-145300000D03*
X75214076Y-150000000D03*
X75214076Y-154700000D03*
G04 #@! TD*
D10*
G04 #@! TO.C,SW3*
X81000000Y-157125000D03*
X87000000Y-157125000D03*
X81000000Y-160875000D03*
X87000000Y-160875000D03*
G04 #@! TD*
D12*
G04 #@! TO.C,J2*
X102000000Y-138000000D03*
D13*
X102000000Y-136000000D03*
G04 #@! TD*
D10*
G04 #@! TO.C,SW2*
X115000000Y-139825000D03*
X121000000Y-139825000D03*
X115000000Y-143575000D03*
X121000000Y-143575000D03*
G04 #@! TD*
D14*
G04 #@! TO.C,J1*
X124469999Y-67170000D03*
D15*
X121930001Y-67170000D03*
X124469999Y-69710000D03*
X121930001Y-69710000D03*
X124469999Y-72250000D03*
X121930001Y-72250000D03*
X124469999Y-74790000D03*
X121930001Y-74790000D03*
X124469999Y-77330000D03*
X121930001Y-77330000D03*
X124469999Y-79870000D03*
X121930001Y-79870000D03*
X124469999Y-82410001D03*
X121930001Y-82410001D03*
X124469999Y-84950001D03*
X121930001Y-84950001D03*
X124469999Y-87489999D03*
X121930001Y-87489999D03*
X124469999Y-90029999D03*
X121930001Y-90029999D03*
X124469999Y-92569999D03*
X121930001Y-92569999D03*
X124469999Y-95110000D03*
X121930001Y-95110000D03*
X124469999Y-97650000D03*
X121930001Y-97650000D03*
X124469999Y-100190000D03*
X121930001Y-100190000D03*
X124469999Y-102730000D03*
X121930001Y-102730000D03*
X124469999Y-105270000D03*
X121930001Y-105270000D03*
G04 #@! TD*
M02*
