G04 #@! TF.GenerationSoftware,KiCad,Pcbnew,7.0.11+dfsg-1build4*
G04 #@! TF.CreationDate,2026-10-02T18:33:40+00:00*
G04 #@! TF.ProjectId,struthio_one_slim,73747275-7468-4696-9f5f-6f6e655f736c,rev?*
G04 #@! TF.SameCoordinates,Original*
G04 #@! TF.FileFunction,Profile,NP*
%FSLAX46Y46*%
G04 Gerber Fmt 4.6, Leading zero omitted, Abs format (unit mm)*
G04 Created by KiCad (PCBNEW 7.0.11+dfsg-1build4) date 2026-10-02 18:33:40*
%MOMM*%
%LPD*%
G01*
G04 APERTURE LIST*
G04 #@! TA.AperFunction,Profile*
%ADD10C,0.100000*%
G04 #@! TD*
G04 APERTURE END LIST*
D10*
X132964731Y-141915328D02*
X132964347Y-141914172D01*
X131449418Y-137587365D02*
X131449331Y-137587134D01*
X116570356Y-64202631D02*
X116558834Y-64233245D01*
X108252762Y-167463925D02*
X108254685Y-167463977D01*
X128519818Y-168749994D02*
X128522168Y-168750000D01*
X67067196Y-167126064D02*
X67067965Y-167129490D01*
X97941593Y-167357859D02*
X97944004Y-167357838D01*
X71539230Y-163100000D02*
X71452024Y-163230513D01*
X116207283Y-167756481D02*
X117061094Y-167803231D01*
X133804640Y-151229183D02*
X133804638Y-151228741D01*
X66481307Y-162605281D02*
X66481651Y-162610936D01*
X67323458Y-167904794D02*
X67344426Y-167935682D01*
X69137759Y-136047125D02*
X69136182Y-136050959D01*
X66205235Y-153784365D02*
X66205263Y-153786462D01*
X66203435Y-150268263D02*
X66203414Y-150270210D01*
X103056575Y-167366975D02*
X103056987Y-167366979D01*
X66199489Y-153255121D02*
X66199492Y-153255556D01*
X116642615Y-64056103D02*
X116626260Y-64084431D01*
X67505590Y-140552552D02*
X67505391Y-140553127D01*
X68388905Y-138022786D02*
X68388498Y-138023888D01*
X122840978Y-168301755D02*
X122840978Y-168301757D01*
X69873518Y-134250705D02*
X69872809Y-134252651D01*
X130512473Y-135217089D02*
X130512294Y-135216664D01*
X131338074Y-168597496D02*
X131342958Y-168596715D01*
X132570877Y-140772544D02*
X132570777Y-140772258D01*
X93838996Y-167415426D02*
X93839368Y-167415419D01*
X131691134Y-138240387D02*
X131612119Y-138025564D01*
X133632948Y-145478706D02*
X133614257Y-145241419D01*
X130452024Y-163230513D02*
X130348528Y-163348528D01*
X66260891Y-147707240D02*
X66260881Y-147707533D01*
X69072904Y-136207121D02*
X69072476Y-136208182D01*
X132336256Y-168235112D02*
X132357127Y-168218578D01*
X68866085Y-136746226D02*
X68866071Y-136746221D01*
X69715408Y-134663728D02*
X69714883Y-134665048D01*
X133720712Y-157063234D02*
X133720720Y-157062947D01*
X82938905Y-167803231D02*
X83792716Y-167756481D01*
X67575922Y-168163503D02*
X67612971Y-168194309D01*
X113269727Y-167628463D02*
X113270053Y-167628475D01*
X99001438Y-167351911D02*
X99001898Y-167351910D01*
X69718820Y-134655127D02*
X69718296Y-134656450D01*
X69417751Y-135381753D02*
X69417413Y-135382547D01*
X66965126Y-142132791D02*
X66964673Y-142134217D01*
X123735561Y-168390475D02*
X123736734Y-168390590D01*
X82906888Y-167805087D02*
X82908488Y-167804991D01*
X132658299Y-141022240D02*
X132658273Y-141022168D01*
X117508181Y-63570000D02*
X117491822Y-63570267D01*
X133651832Y-145751116D02*
X133634523Y-145500037D01*
X131450358Y-137589884D02*
X131450076Y-137589129D01*
X108248026Y-167463799D02*
X108248375Y-167463809D01*
X115207277Y-167710016D02*
X115220846Y-167710624D01*
X94851776Y-167396416D02*
X94852164Y-167396409D01*
X66640291Y-143358391D02*
X66637761Y-143370930D01*
X81952082Y-167869133D02*
X81953385Y-167869044D01*
X83858381Y-167753123D02*
X83859458Y-167753069D01*
X66683546Y-143156467D02*
X66680915Y-143168168D01*
X130092207Y-134156269D02*
X130088712Y-134146523D01*
X89725561Y-167522175D02*
X89725898Y-167522165D01*
X66330528Y-146042629D02*
X66330291Y-146046828D01*
X81864125Y-167875493D02*
X81865430Y-167875395D01*
X132317862Y-140030981D02*
X132315203Y-140022995D01*
X133669471Y-146042629D02*
X133669418Y-146041700D01*
X69247868Y-168671346D02*
X69251352Y-168671694D01*
X66330826Y-146037504D02*
X66330581Y-146041700D01*
X66195361Y-151228741D02*
X66195359Y-151229183D01*
X73022385Y-168675886D02*
X73024110Y-168675766D01*
X66299782Y-146663658D02*
X66286523Y-146985183D01*
X66658362Y-164612169D02*
X66658721Y-164615074D01*
X66300251Y-146652933D02*
X66300119Y-146655860D01*
X133705382Y-157671545D02*
X133705394Y-157671067D01*
X118135874Y-167875493D02*
X118142389Y-167875985D01*
X130436045Y-135034989D02*
X130434409Y-135031062D01*
X68159447Y-168488270D02*
X68166393Y-168490333D01*
X98967475Y-167352035D02*
X98967943Y-167352033D01*
X66840155Y-142547020D02*
X66839598Y-142548960D01*
X133437917Y-143790516D02*
X133437626Y-143788796D01*
X133669173Y-146037504D02*
X133669117Y-146036573D01*
X66273383Y-147339026D02*
X66273320Y-147340801D01*
X133517373Y-162626013D02*
X133517458Y-162624755D01*
X132897591Y-141713714D02*
X132896254Y-141709723D01*
X101004365Y-167351926D02*
X101006874Y-167351934D01*
X66662876Y-164647010D02*
X66714316Y-165018364D01*
X133359708Y-143358391D02*
X133359138Y-143355604D01*
X129140653Y-63898710D02*
X129118293Y-63874836D01*
X105148223Y-167396416D02*
X105150321Y-167396453D01*
X66842114Y-165857213D02*
X66842559Y-165860051D01*
X68550256Y-137588236D02*
X68549973Y-137588993D01*
X132819845Y-141485788D02*
X132818913Y-141483079D01*
X132205087Y-168329116D02*
X132211403Y-168325083D01*
X120999319Y-168121324D02*
X120999842Y-168121374D01*
X98998429Y-167351918D02*
X98998892Y-167351917D01*
X133713812Y-146993739D02*
X133713723Y-146991406D01*
X133220634Y-165447427D02*
X133281513Y-165047067D01*
X131134024Y-136746520D02*
X131133943Y-136746304D01*
X130579203Y-135374578D02*
X130578949Y-135373978D01*
X66525605Y-144022672D02*
X66524416Y-144030454D01*
X130363282Y-134858770D02*
X130361198Y-134853681D01*
X99990154Y-167350022D02*
X100009845Y-167350022D01*
X73780074Y-168618822D02*
X74556105Y-168552507D01*
X67777144Y-168317646D02*
X67788596Y-168325083D01*
X129894600Y-168731538D02*
X129896963Y-168731427D01*
X116500267Y-64561822D02*
X116500000Y-64578181D01*
X67179215Y-167558703D02*
X67180839Y-167563864D01*
X133735975Y-156469193D02*
X133736002Y-156468180D01*
X67990345Y-139126390D02*
X67989565Y-139128604D01*
X120058283Y-168034049D02*
X120059050Y-168034119D01*
X68683917Y-168600898D02*
X68688810Y-168601630D01*
X133388749Y-164202230D02*
X133389008Y-164199924D01*
X66195385Y-151224429D02*
X66195373Y-151226384D01*
X133404862Y-143596808D02*
X133404464Y-143594507D01*
X133790207Y-149803142D02*
X133790199Y-149802670D01*
X117321054Y-63586549D02*
X117288973Y-63592930D01*
X106187980Y-167415970D02*
X106188351Y-167415978D01*
X133804648Y-151231130D02*
X133804640Y-151229183D01*
X104115606Y-167380184D02*
X104117609Y-167380214D01*
X133633552Y-145486628D02*
X133633460Y-145485404D01*
X66199560Y-153263017D02*
X66205167Y-153778815D01*
X66780100Y-142764565D02*
X66777537Y-142774355D01*
X133782458Y-149353850D02*
X133782449Y-149353402D01*
X124598467Y-168474251D02*
X124600962Y-168474491D01*
X83859458Y-167753069D02*
X83865371Y-167752777D01*
X95884393Y-167380184D02*
X95884793Y-167380178D01*
X133219324Y-142762390D02*
X133216720Y-142752619D01*
X83871836Y-167752465D02*
X83872913Y-167752413D01*
X131450026Y-137588993D02*
X131449743Y-137588236D01*
X132658389Y-141022335D02*
X132658382Y-141022325D01*
X68635104Y-168593100D02*
X68657041Y-168596715D01*
X66482541Y-162624755D02*
X66482626Y-162626013D01*
X66897814Y-142350664D02*
X66897309Y-142352348D01*
X78069859Y-168211520D02*
X78071362Y-168211372D01*
X91766688Y-167463416D02*
X91768585Y-167463368D01*
X130796408Y-135888001D02*
X130796139Y-135887355D01*
X69345510Y-135551662D02*
X69345275Y-135552214D01*
X66294605Y-157671067D02*
X66294617Y-157671545D01*
X131133807Y-136745942D02*
X131133790Y-136745897D01*
X128651471Y-163348528D02*
X128547975Y-163230513D01*
X119028977Y-167945244D02*
X119034644Y-167945693D01*
X130341150Y-134804444D02*
X130340736Y-134803425D01*
X131132988Y-136743762D02*
X131132983Y-136743749D01*
X68307543Y-138243990D02*
X68307045Y-138245353D01*
X133720638Y-157066561D02*
X133720639Y-157066517D01*
X66482088Y-162617850D02*
X66482169Y-162619101D01*
X128493943Y-168749800D02*
X128496296Y-168749828D01*
X119047499Y-167946730D02*
X119048529Y-167946814D01*
X68068168Y-138906314D02*
X68068013Y-138906750D01*
X130927095Y-136207121D02*
X130868006Y-136061220D01*
X66279271Y-157062624D02*
X66279273Y-157062698D01*
X121930140Y-168211520D02*
X121930421Y-168211548D01*
X129021410Y-63787027D02*
X128995460Y-63767115D01*
X68400952Y-168548846D02*
X68406570Y-168550054D01*
X116530358Y-64327117D02*
X116522930Y-64358973D01*
X132966837Y-141921709D02*
X132966453Y-141920541D01*
X131316082Y-168600898D02*
X131338074Y-168597496D01*
X133337123Y-164647010D02*
X133337516Y-164644107D01*
X131744815Y-168514622D02*
X131773223Y-168507209D01*
X131449698Y-137588114D02*
X131449418Y-137587365D01*
X128674478Y-63608824D02*
X128642882Y-63600358D01*
X92801938Y-167437942D02*
X92802296Y-167437934D01*
X111307047Y-167556132D02*
X111308879Y-167556197D01*
X84793055Y-167710001D02*
X84794894Y-167709919D01*
X133538657Y-144496753D02*
X133538455Y-144495105D01*
X68661925Y-168597496D02*
X68683917Y-168600898D01*
X66492519Y-144254322D02*
X66491458Y-144261989D01*
X67794912Y-168329116D02*
X67808222Y-168337187D01*
X130654724Y-135552214D02*
X130654489Y-135551662D01*
X133804612Y-151224010D02*
X133801405Y-150745567D01*
X132827964Y-167535436D02*
X132829532Y-167530258D01*
X67208060Y-167647044D02*
X67217551Y-167674236D01*
X66236982Y-148500479D02*
X66236922Y-148502713D01*
X81944904Y-167869627D02*
X81952082Y-167869133D01*
X69270500Y-168673528D02*
X69286183Y-168674928D01*
X130012321Y-133926670D02*
X130008502Y-133915367D01*
X69289669Y-168675228D02*
X69624311Y-168702759D01*
X67344655Y-167935994D02*
X67368311Y-167965743D01*
X67609545Y-140248330D02*
X67609251Y-140249207D01*
X66195785Y-152744388D02*
X66199489Y-153255121D01*
X69674777Y-168706324D02*
X70077041Y-168730066D01*
X66263960Y-156466847D02*
X66263991Y-156467967D01*
X84772819Y-167710911D02*
X84774664Y-167710827D01*
X69132338Y-136060371D02*
X69131993Y-136061220D01*
X133720636Y-157066256D02*
X133720638Y-157066176D01*
X102058406Y-167357859D02*
X102058845Y-167357862D01*
X104113001Y-167380146D02*
X104115206Y-167380178D01*
X66199535Y-153260534D02*
X66199556Y-153262562D01*
X133806242Y-151722272D02*
X133806237Y-151720327D01*
X133782497Y-149355901D02*
X133782458Y-149353850D01*
X130348528Y-161651471D02*
X130452024Y-161769486D01*
X68469684Y-137804637D02*
X68469336Y-137805574D01*
X70553811Y-168749224D02*
X70576296Y-168749674D01*
X66954258Y-166545304D02*
X66954578Y-166547182D01*
X67423372Y-140789029D02*
X67423274Y-140789307D01*
X66902929Y-142333796D02*
X66900612Y-142341388D01*
X129656631Y-163689733D02*
X129500000Y-163700000D01*
X66264291Y-156479266D02*
X66264321Y-156480404D01*
X108228925Y-167463305D02*
X108229272Y-167463313D01*
X66842559Y-165860051D02*
X66842657Y-165860667D01*
X69489945Y-135211368D02*
X69489767Y-135211788D01*
X67479576Y-168079080D02*
X67512084Y-168108305D01*
X67341661Y-141022353D02*
X67341570Y-141022612D01*
X129369641Y-64327117D02*
X129361175Y-64295521D01*
X130419688Y-134995640D02*
X130418204Y-134992056D01*
X129473690Y-168748423D02*
X129478688Y-168748248D01*
X99980552Y-167350031D02*
X99981037Y-167350030D01*
X109273675Y-167491967D02*
X109274019Y-167491977D01*
X131369820Y-137374486D02*
X131369810Y-137374459D01*
X132570777Y-140772258D02*
X132570264Y-140770785D01*
X131691853Y-138242346D02*
X131691739Y-138242033D01*
X130797836Y-135891428D02*
X130797578Y-135890808D01*
X66960188Y-142148504D02*
X66959741Y-142149943D01*
X67341569Y-141022321D02*
X67341661Y-141022353D01*
X68148262Y-138682485D02*
X68147626Y-138684248D01*
X133782543Y-149358434D02*
X133782505Y-149356358D01*
X66600045Y-143569213D02*
X66599625Y-143571511D01*
X66299962Y-146659442D02*
X66299934Y-146660086D01*
X67422803Y-140790657D02*
X67422707Y-140790931D01*
X132318329Y-140032382D02*
X132318264Y-140032187D01*
X117071503Y-167803817D02*
X117073103Y-167803908D01*
X68469336Y-137805574D02*
X68469258Y-137805786D01*
X122841883Y-168301922D02*
X122841890Y-168301846D01*
X129398394Y-64520952D02*
X129396254Y-64488311D01*
X133800464Y-153260534D02*
X133800468Y-153260095D01*
X133518269Y-162612198D02*
X133518348Y-162610936D01*
X66490189Y-144271369D02*
X66489962Y-144273068D01*
X69864607Y-134275014D02*
X69863889Y-134276959D01*
X71654454Y-168747053D02*
X71667985Y-168746717D01*
X69708816Y-134680235D02*
X69708287Y-134681555D01*
X133751371Y-148094758D02*
X133739271Y-147712202D01*
X133801345Y-150738396D02*
X133801341Y-150737966D01*
X79950564Y-168033246D02*
X79951333Y-168033177D01*
X131773223Y-168507209D02*
X131779535Y-168505518D01*
X132771719Y-167703874D02*
X132780296Y-167680277D01*
X74570694Y-168551210D02*
X74571575Y-168551130D01*
X68462829Y-168561480D02*
X68468473Y-168562559D01*
X66656783Y-164599083D02*
X66658362Y-164612169D01*
X133672246Y-158920767D02*
X133672254Y-158920486D01*
X89701165Y-167522947D02*
X89702995Y-167522887D01*
X66264392Y-156483124D02*
X66279260Y-157062204D01*
X66199509Y-153257595D02*
X66199513Y-153258053D01*
X130359831Y-168703980D02*
X130372807Y-168702988D01*
X126996597Y-168677143D02*
X127661047Y-168717882D01*
X121002448Y-168121624D02*
X121002961Y-168121673D01*
X85736834Y-167668994D02*
X85750306Y-167668427D01*
X90746872Y-167491379D02*
X90747215Y-167491370D01*
X90747215Y-167491370D02*
X91744959Y-167463987D01*
X69950144Y-134036154D02*
X69949367Y-134038410D01*
X133669989Y-146051957D02*
X133669761Y-146047768D01*
X66314949Y-146337313D02*
X66314769Y-146340835D01*
X87711229Y-167591030D02*
X87711557Y-167591018D01*
X133213485Y-142740681D02*
X133212891Y-142738511D01*
X132086922Y-139347787D02*
X132012490Y-139134467D01*
X129980027Y-133829432D02*
X129975472Y-133815359D01*
X133739211Y-147710358D02*
X133739170Y-147709089D01*
X122841526Y-168301813D02*
X122841841Y-168301841D01*
X66237058Y-148497728D02*
X66236996Y-148499967D01*
X114245237Y-167668241D02*
X114245560Y-167668255D01*
X131933554Y-138911164D02*
X131932848Y-138909173D01*
X66897309Y-142352348D02*
X66895047Y-142359953D01*
X130204422Y-134458496D02*
X130203798Y-134456863D01*
X133539560Y-144504199D02*
X133538657Y-144496753D01*
X130728209Y-135725599D02*
X130727479Y-135723864D01*
X133362794Y-143373724D02*
X133362238Y-143370930D01*
X98967943Y-167352033D02*
X98970226Y-167352022D01*
X68468827Y-137806946D02*
X68389523Y-138021113D01*
X66310540Y-158289744D02*
X66310562Y-158290587D01*
X66777537Y-142774355D02*
X66776972Y-142776532D01*
X130097484Y-134170890D02*
X130096779Y-134168942D01*
X116134628Y-167752777D02*
X116140541Y-167753069D01*
X131773089Y-138464968D02*
X131772959Y-138464612D01*
X132479899Y-140510455D02*
X132412452Y-140313347D01*
X130434409Y-135031062D02*
X130434111Y-135030345D01*
X92800147Y-167437982D02*
X92801938Y-167437942D01*
X73759158Y-168620507D02*
X73764874Y-168620062D01*
X132658273Y-141022168D02*
X132577920Y-140792726D01*
X131061310Y-136552834D02*
X131061068Y-136552193D01*
X68941663Y-136544994D02*
X68941419Y-136545635D01*
X130003567Y-133900658D02*
X130002812Y-133898395D01*
X68630443Y-137373780D02*
X68630443Y-137373780D01*
X66715593Y-165027386D02*
X66715829Y-165029030D01*
X133762928Y-148497246D02*
X133751566Y-148101202D01*
X132315203Y-140022995D02*
X132315137Y-140022798D01*
X121915351Y-168210071D02*
X121915630Y-168210098D01*
X69417352Y-135382691D02*
X69417063Y-135383371D01*
X69658849Y-134804444D02*
X69641908Y-134846070D01*
X69421112Y-135373832D02*
X69421050Y-135373978D01*
X123735305Y-168390449D02*
X123735561Y-168390475D01*
X132932803Y-167126064D02*
X132936207Y-167110652D01*
X71452024Y-161769486D02*
X71539230Y-161899999D01*
X130177673Y-134388232D02*
X130174269Y-134379243D01*
X69902515Y-134170890D02*
X69873518Y-134250705D01*
X87713364Y-167590952D02*
X87713690Y-167590940D01*
X78088015Y-168209744D02*
X78993683Y-168121996D01*
X78993683Y-168121996D02*
X78994206Y-168121946D01*
X130131103Y-134263353D02*
X130127190Y-134252651D01*
X132315137Y-140022798D02*
X132314794Y-140021768D01*
X66459173Y-144514941D02*
X66435323Y-144723308D01*
X133552195Y-162030382D02*
X133552250Y-162029332D01*
X82839702Y-167809200D02*
X82841302Y-167809100D01*
X67341568Y-141022618D02*
X67260673Y-141253745D01*
X79988667Y-168029838D02*
X79992521Y-168029499D01*
X76262998Y-168390616D02*
X76263265Y-168390590D01*
X106190394Y-167416022D02*
X106190767Y-167416030D01*
X127698837Y-168719867D02*
X127701129Y-168719970D01*
X130358091Y-134846070D02*
X130341150Y-134804444D01*
X133705380Y-157671615D02*
X133705382Y-157671545D01*
X66562373Y-143788796D02*
X66562082Y-143790516D01*
X69490930Y-135209034D02*
X69489945Y-135211368D01*
X69274450Y-135719297D02*
X69274288Y-135719678D01*
X104118008Y-167380220D02*
X104120202Y-167380254D01*
X66248553Y-148097160D02*
X66248504Y-148098814D01*
X99987054Y-167350023D02*
X99989674Y-167350022D01*
X130510232Y-135211788D02*
X130510054Y-135211368D01*
X66217448Y-149358888D02*
X66209840Y-149800235D01*
X105127224Y-167396056D02*
X105129149Y-167396088D01*
X66310622Y-158292821D02*
X66327649Y-158917084D01*
X131909637Y-168466664D02*
X131916521Y-168464401D01*
X66294598Y-157670806D02*
X66294603Y-157670996D01*
X130230513Y-163452024D02*
X130100000Y-163539230D01*
X133751566Y-148101202D02*
X133751555Y-148100835D01*
X130136110Y-134276959D02*
X130135392Y-134275014D01*
X69712253Y-134671644D02*
X69711726Y-134672965D01*
X68121346Y-168476601D02*
X68128262Y-168478764D01*
X133564676Y-144723308D02*
X133540826Y-144514941D01*
X130252725Y-134583033D02*
X130249879Y-134575742D01*
X118126107Y-167874768D02*
X118127407Y-167874864D01*
X81847836Y-167876736D02*
X81849139Y-167876635D01*
X130579625Y-135375572D02*
X130579266Y-135374727D01*
X133166418Y-142570270D02*
X133165878Y-142568331D01*
X133159058Y-165849648D02*
X133220308Y-165449563D01*
X67033162Y-141921709D02*
X67031454Y-141926923D01*
X67121024Y-167352110D02*
X67126113Y-167371391D01*
X110296671Y-167522877D02*
X110297004Y-167522887D01*
X113272181Y-167628557D02*
X113273787Y-167628620D01*
X66714544Y-165019997D02*
X66715593Y-165027386D01*
X66843235Y-142536388D02*
X66842672Y-142538317D01*
X67259568Y-167782115D02*
X67262431Y-167788918D01*
X70500000Y-161299999D02*
X70656631Y-161310266D01*
X133581853Y-161437582D02*
X133581894Y-161436742D01*
X131871737Y-168478764D02*
X131878653Y-168476601D01*
X133653483Y-159551641D02*
X133653495Y-159551250D01*
X69498439Y-135191221D02*
X69491110Y-135208607D01*
X67119912Y-167347816D02*
X67121024Y-167352110D01*
X67013623Y-166867786D02*
X67015980Y-166879533D01*
X67319436Y-167898366D02*
X67323458Y-167904794D01*
X133777345Y-154840407D02*
X133777355Y-154839905D01*
X69795577Y-134458496D02*
X69792138Y-134467482D01*
X131290276Y-137162383D02*
X131290156Y-137162061D01*
X78068257Y-168211678D02*
X78069578Y-168211548D01*
X132012490Y-139134467D02*
X132012312Y-139133957D01*
X106163071Y-167415466D02*
X106163437Y-167415473D01*
X68022253Y-168442509D02*
X68029531Y-168445271D01*
X66193752Y-151727045D02*
X66193751Y-151727468D01*
X87697432Y-167591539D02*
X87697761Y-167591527D01*
X133653567Y-159548898D02*
X133672197Y-158922456D01*
X133402647Y-143584152D02*
X133402239Y-143581858D01*
X66731235Y-142954842D02*
X66728580Y-142965612D01*
X111306716Y-167556120D02*
X111307047Y-167556132D01*
X132890822Y-167304831D02*
X132891857Y-167300522D01*
X68630692Y-137373115D02*
X68630443Y-137373780D01*
X102053348Y-167357816D02*
X102055558Y-167357834D01*
X116128163Y-167752465D02*
X116133552Y-167752725D01*
X78084648Y-168210071D02*
X78086068Y-168209933D01*
X133475583Y-144030454D02*
X133474394Y-144022672D01*
X82809308Y-167811161D02*
X82810906Y-167811054D01*
X130990860Y-136368584D02*
X130990359Y-136367309D01*
X132427771Y-168160402D02*
X132444329Y-168146361D01*
X133736044Y-156466647D02*
X133751149Y-155913554D01*
X133765447Y-155372874D02*
X133765460Y-155372354D01*
X133720620Y-157066860D02*
X133720627Y-157066586D01*
X129289158Y-64113279D02*
X129273739Y-64084431D01*
X126228163Y-168619504D02*
X126233865Y-168619962D01*
X101001107Y-167351917D02*
X101001570Y-167351918D01*
X77159685Y-168301689D02*
X78066234Y-168211878D01*
X71700000Y-162500000D02*
X71689733Y-162656631D01*
X133796504Y-150263420D02*
X133796498Y-150262963D01*
X69907091Y-134158218D02*
X69903220Y-134168942D01*
X67182438Y-141479167D02*
X67182224Y-141479786D01*
X66279330Y-157065792D02*
X66279352Y-157065791D01*
X129240110Y-64028326D02*
X129221937Y-64001128D01*
X116500000Y-132500000D02*
X116207106Y-133207106D01*
X132494608Y-140553127D02*
X132494409Y-140552552D01*
X133268764Y-142954842D02*
X133268167Y-142952447D01*
X132307305Y-168257507D02*
X132310499Y-168255068D01*
X73003402Y-168677143D02*
X73005121Y-168677035D01*
X117093111Y-167805087D02*
X117158697Y-167809100D01*
X133097622Y-166237214D02*
X133097826Y-166235999D01*
X133437965Y-163691846D02*
X133438127Y-163689976D01*
X121006316Y-168121996D02*
X121911984Y-168209744D01*
X132394420Y-140260115D02*
X132394125Y-140259242D01*
X81928613Y-167870781D02*
X81935779Y-167870268D01*
X130499326Y-135185912D02*
X130499149Y-135185489D01*
X131530230Y-137804409D02*
X131529894Y-137803506D01*
X129985870Y-133847320D02*
X129985032Y-133844766D01*
X118072688Y-167870875D02*
X118126107Y-167874768D01*
X66226632Y-148919205D02*
X66226582Y-148921362D01*
X68227610Y-138463043D02*
X68227040Y-138464612D01*
X79940949Y-168034119D02*
X79941716Y-168034049D01*
X130655072Y-135553035D02*
X130655025Y-135552923D01*
X130421908Y-135000992D02*
X130421611Y-135000277D01*
X110276455Y-167522238D02*
X110278321Y-167522296D01*
X66248817Y-155912305D02*
X66248821Y-155912468D01*
X66606988Y-164161755D02*
X66607216Y-164164071D01*
X132936952Y-167107223D02*
X132940249Y-167091780D01*
X69273408Y-135721761D02*
X69272679Y-135723488D01*
X111308879Y-167556197D02*
X111309211Y-167556208D01*
X118071386Y-167870781D02*
X118072688Y-167870875D01*
X132520423Y-168079080D02*
X132525305Y-168074634D01*
X90744667Y-167491441D02*
X90745011Y-167491431D01*
X90740375Y-167491562D02*
X90740719Y-167491552D01*
X133281760Y-165045429D02*
X133282857Y-165038046D01*
X70075164Y-133656528D02*
X70074367Y-133659096D01*
X66409621Y-144974656D02*
X66409477Y-144976136D01*
X68387982Y-138025287D02*
X68387880Y-138025564D01*
X116781706Y-63874836D02*
X116759346Y-63898710D01*
X130582936Y-135383371D02*
X130582647Y-135382691D01*
X132361749Y-168214872D02*
X132382449Y-168198071D01*
X130135392Y-134275014D02*
X130131816Y-134265296D01*
X133699748Y-146652933D02*
X133699719Y-146652294D01*
X131779535Y-168505518D02*
X131807891Y-168497722D01*
X85732710Y-167669170D02*
X85734380Y-167669099D01*
X95881991Y-167380220D02*
X95882390Y-167380214D01*
X130655330Y-135553642D02*
X130655072Y-135553035D01*
X130579266Y-135374727D02*
X130579203Y-135374578D01*
X126985382Y-168676417D02*
X126987103Y-168676531D01*
X69746756Y-134584357D02*
X69744163Y-134590973D01*
X66524416Y-144030454D02*
X66524156Y-144032177D01*
X133751167Y-155912881D02*
X133751178Y-155912468D01*
X120964824Y-168118063D02*
X120967672Y-168118328D01*
X66279287Y-157063234D02*
X66279287Y-157063262D01*
X67752682Y-168300931D02*
X67758321Y-168304887D01*
X68228426Y-138460801D02*
X68228299Y-138461149D01*
X96943424Y-167366975D02*
X96945703Y-167366953D01*
X132318644Y-140033326D02*
X132318329Y-140032382D01*
X110276123Y-167522227D02*
X110276455Y-167522238D01*
X122840978Y-168301757D02*
X122841016Y-168301759D01*
X131772959Y-138464612D02*
X131772389Y-138463043D01*
X70040779Y-163608655D02*
X69899999Y-163539230D01*
X78082628Y-168210269D02*
X78082895Y-168210242D01*
X130862240Y-136047125D02*
X130861887Y-136046271D01*
X66273306Y-147341198D02*
X66273245Y-147342962D01*
X67681290Y-140033521D02*
X67680924Y-140034617D01*
X133763147Y-148505446D02*
X133763090Y-148503200D01*
X128315484Y-168746216D02*
X128329005Y-168746633D01*
X132482358Y-140517624D02*
X132481374Y-140514758D01*
X133479081Y-163183318D02*
X133479615Y-163176450D01*
X123736734Y-168390590D02*
X123737001Y-168390616D01*
X133097826Y-166235999D02*
X133098729Y-166230551D01*
X69421475Y-135372975D02*
X69421112Y-135373832D01*
X126994878Y-168677035D02*
X126996597Y-168677143D01*
X133685008Y-146336513D02*
X133670040Y-146052891D01*
X87715369Y-167590879D02*
X87715704Y-167590867D01*
X132576003Y-140787241D02*
X132572073Y-140775977D01*
X116140541Y-167753069D02*
X116141618Y-167753123D01*
X116506951Y-64455758D02*
X116503745Y-64488311D01*
X130215723Y-134487874D02*
X130212255Y-134478906D01*
X99984167Y-167350026D02*
X99986575Y-167350023D01*
X116828710Y-63829346D02*
X116804836Y-63851706D01*
X130927523Y-136208182D02*
X130927095Y-136207121D01*
X133220330Y-165449421D02*
X133220422Y-165448821D01*
X132766829Y-167716769D02*
X132771719Y-167703874D01*
X105124717Y-167396016D02*
X105126839Y-167396050D01*
X69935228Y-134078969D02*
X69934435Y-134081220D01*
X66433253Y-144742190D02*
X66432510Y-144749279D01*
X68549973Y-137588993D02*
X68549923Y-137589129D01*
X67721898Y-168278956D02*
X67727480Y-168282988D01*
X66327802Y-158922456D02*
X66346432Y-159548898D01*
X68865960Y-136746559D02*
X68865898Y-136746725D01*
X91745314Y-167463977D02*
X91747237Y-167463925D01*
X130726441Y-135721405D02*
X130725711Y-135719678D01*
X128968871Y-63748061D02*
X128941674Y-63729889D01*
X69547975Y-161769486D02*
X69651471Y-161651471D01*
X104093166Y-167379868D02*
X104093566Y-167379874D01*
X129936504Y-133693742D02*
X129624343Y-133310113D01*
X120974162Y-168118938D02*
X120974683Y-168118987D01*
X133566579Y-144740621D02*
X133565814Y-144733537D01*
X133509810Y-144271369D02*
X133508774Y-144263693D01*
X130582586Y-135382547D02*
X130582248Y-135381753D01*
X67758321Y-168304887D02*
X67765102Y-168309576D01*
X66489962Y-144273068D02*
X66488952Y-144280755D01*
X70014129Y-133847320D02*
X70009498Y-133861369D01*
X133700037Y-146659442D02*
X133699909Y-146656519D01*
X117170700Y-167809854D02*
X117178695Y-167810369D01*
X131531172Y-137806946D02*
X131531091Y-137806727D01*
X75398499Y-168474542D02*
X75399037Y-168474491D01*
X116127086Y-167752413D02*
X116128163Y-167752465D01*
X106185736Y-167415923D02*
X106186106Y-167415931D01*
X123733872Y-168390308D02*
X123734171Y-168390337D01*
X104091135Y-167379841D02*
X104093166Y-167379868D01*
X68065060Y-168458198D02*
X68083478Y-168464401D01*
X73024110Y-168675766D02*
X73031874Y-168675209D01*
X112308507Y-167591762D02*
X112308832Y-167591774D01*
X132165294Y-139575706D02*
X132164384Y-139573038D01*
X133653422Y-159553577D02*
X133653483Y-159551641D01*
X131599047Y-168548846D02*
X131624285Y-168543265D01*
X133790279Y-149808023D02*
X133790273Y-149807592D01*
X132052855Y-168411712D02*
X132067331Y-168404720D01*
X101035541Y-167352051D02*
X102023277Y-167357600D01*
X132447993Y-168143224D02*
X132464397Y-168129039D01*
X133632537Y-160183331D02*
X133632623Y-160180830D01*
X131369770Y-168592271D02*
X131391693Y-168588434D01*
X130934570Y-136225826D02*
X130934148Y-136224758D01*
X128345545Y-168747053D02*
X128348552Y-168747119D01*
X66391188Y-160814158D02*
X66391217Y-160814854D01*
X71659110Y-162810582D02*
X71608655Y-162959220D01*
X66780675Y-142762390D02*
X66780100Y-142764565D01*
X82810906Y-167811054D02*
X82819704Y-167810473D01*
X68957471Y-168639356D02*
X68961630Y-168639833D01*
X66195742Y-152736609D02*
X66195744Y-152737035D01*
X111302878Y-167555987D02*
X111304725Y-167556051D01*
X130415983Y-134986679D02*
X130366402Y-134866365D01*
X120017098Y-168030350D02*
X120048666Y-168033177D01*
X67836930Y-139569197D02*
X67836730Y-139569780D01*
X133801387Y-150743153D02*
X133801384Y-150742754D01*
X132483836Y-140521916D02*
X132483639Y-140521344D01*
X133800486Y-153258053D02*
X133800490Y-153257595D01*
X131612119Y-138025564D02*
X131612017Y-138025287D01*
X132547138Y-168054479D02*
X132551960Y-168049968D01*
X68226340Y-138466542D02*
X68226217Y-138466881D01*
X132010434Y-139128604D02*
X132009654Y-139126390D01*
X96943012Y-167366979D02*
X96943424Y-167366975D01*
X133672350Y-158917084D02*
X133689377Y-158292821D01*
X133339624Y-164628142D02*
X133341278Y-164615074D01*
X133794802Y-153781366D02*
X133794827Y-153779298D01*
X132045098Y-168415235D02*
X132052439Y-168411905D01*
X130608655Y-162040779D02*
X130659110Y-162189417D01*
X70069162Y-133675776D02*
X70065124Y-133688604D01*
X105147835Y-167396409D02*
X105148223Y-167396416D01*
X86723733Y-167628717D02*
X86724061Y-167628704D01*
X131611613Y-138024192D02*
X131611501Y-138023888D01*
X115223334Y-167710736D02*
X115224998Y-167710811D01*
X67244177Y-167744634D02*
X67246939Y-167751478D01*
X130287746Y-134671644D02*
X130285116Y-134665048D01*
X66310589Y-158291597D02*
X66310594Y-158291785D01*
X67909805Y-139357233D02*
X67836930Y-139569197D01*
X133801341Y-150737966D02*
X133796590Y-150270659D01*
X106183711Y-167415881D02*
X106185736Y-167415923D01*
X68146847Y-138686414D02*
X68146710Y-138686795D01*
X118047917Y-167869133D02*
X118055095Y-167869627D01*
X130799268Y-135894877D02*
X130799005Y-135894243D01*
X78997551Y-168121624D02*
X79000157Y-168121374D01*
X130170569Y-134369424D02*
X130169953Y-134367786D01*
X130508889Y-135208607D02*
X130501560Y-135191221D01*
X91747237Y-167463925D02*
X91747580Y-167463916D01*
X133689380Y-158292710D02*
X133689405Y-158291785D01*
X69345573Y-135551512D02*
X69345510Y-135551662D01*
X132576098Y-140787514D02*
X132576003Y-140787241D01*
X132587139Y-168015976D02*
X132590077Y-168012927D01*
X66841476Y-165853118D02*
X66841572Y-165853738D01*
X67555670Y-168146361D02*
X67572228Y-168160402D01*
X101032524Y-167352035D02*
X101035081Y-167352048D01*
X66327659Y-158917424D02*
X66327696Y-158918774D01*
X89702995Y-167522887D02*
X89703328Y-167522877D01*
X66193865Y-152229729D02*
X66193871Y-152231710D01*
X67605874Y-140259242D02*
X67605579Y-140260115D01*
X67762296Y-139789778D02*
X67762080Y-139790416D01*
X67179947Y-141486390D02*
X67179019Y-141489096D01*
X69420314Y-135375714D02*
X69417812Y-135381608D01*
X130018092Y-133943614D02*
X130017319Y-133941355D01*
X107200213Y-167437990D02*
X107202207Y-167438036D01*
X130654426Y-135551512D02*
X130583411Y-135384489D01*
X69659263Y-134803425D02*
X69658849Y-134804444D01*
X70008653Y-133863923D02*
X69997187Y-133898395D01*
X86727818Y-167628557D02*
X86728151Y-167628544D01*
X133720728Y-157062624D02*
X133720737Y-157062256D01*
X131691739Y-138242033D02*
X131691249Y-138240698D01*
X128408177Y-63570267D02*
X128391818Y-63570000D01*
X94875670Y-167396010D02*
X95879396Y-167380260D01*
X91771074Y-167463305D02*
X91772977Y-167463257D01*
X90719485Y-167492169D02*
X90719827Y-167492159D01*
X133794770Y-153783914D02*
X133794797Y-153781828D01*
X70059836Y-133705260D02*
X70059018Y-133707821D01*
X69981907Y-133943614D02*
X69950144Y-134036154D01*
X92804641Y-167437882D02*
X93809232Y-167416030D01*
X68867071Y-136743559D02*
X68867055Y-136743644D01*
X69133905Y-136056523D02*
X69132338Y-136060371D01*
X133773356Y-148918740D02*
X133773306Y-148916624D01*
X67155360Y-167478330D02*
X67162035Y-167501746D01*
X133787016Y-154314926D02*
X133787024Y-154314448D01*
X66330581Y-146041700D02*
X66330528Y-146042629D01*
X94870850Y-167396088D02*
X94872775Y-167396056D01*
X67341700Y-141022240D02*
X67341700Y-141022240D01*
X132570171Y-140770516D02*
X132495894Y-140556835D01*
X67605579Y-140260115D02*
X67593481Y-140295902D01*
X67760883Y-139793973D02*
X67759909Y-139796881D01*
X133591909Y-144990866D02*
X133591295Y-144984235D01*
X69740776Y-134599580D02*
X69740253Y-134600905D01*
X67512084Y-168108305D02*
X67515685Y-168111511D01*
X131970468Y-168445271D02*
X131977746Y-168442509D01*
X66279350Y-157065738D02*
X66279330Y-157065792D01*
X88697454Y-167555976D02*
X88711042Y-167555511D01*
X133537528Y-144487668D02*
X133537319Y-144486009D01*
X133271419Y-142965612D02*
X133268764Y-142954842D01*
X67519905Y-140511027D02*
X67518823Y-140514181D01*
X133794832Y-153778815D02*
X133800439Y-153263017D01*
X133699909Y-146656519D02*
X133699880Y-146655860D01*
X66735148Y-142939295D02*
X66734540Y-142941688D01*
X133634523Y-145500037D02*
X133634437Y-145498810D01*
X67587547Y-140313347D02*
X67520100Y-140510455D01*
X118055095Y-167869627D02*
X118056400Y-167869718D01*
X69638801Y-134853681D02*
X69636717Y-134858770D01*
X66193753Y-151724654D02*
X66193753Y-151725117D01*
X87717823Y-167590791D02*
X88690788Y-167556208D01*
X101026319Y-167352008D02*
X101026785Y-167352009D01*
X133672197Y-158922456D02*
X133672206Y-158922125D01*
X106165280Y-167415509D02*
X106165657Y-167415516D01*
X68067151Y-138909173D02*
X68066445Y-138911164D01*
X133735672Y-156480621D02*
X133735678Y-156480404D01*
X130864172Y-136051824D02*
X130863817Y-136050959D01*
X74556105Y-168552507D02*
X74557000Y-168552430D01*
X132837964Y-167501746D02*
X132844639Y-167478330D01*
X131916521Y-168464401D02*
X131934939Y-168458198D01*
X66460439Y-144504199D02*
X66460242Y-144505850D01*
X132278101Y-168278956D02*
X132303097Y-168260636D01*
X68166393Y-168490333D02*
X68185819Y-168495948D01*
X133804244Y-152739496D02*
X133804246Y-152739058D01*
X68867055Y-136743644D02*
X68867016Y-136743749D01*
X116141618Y-167753123D02*
X116185754Y-167755349D01*
X80972052Y-167945163D02*
X81847836Y-167876736D01*
X67163547Y-167506942D02*
X67170467Y-167530258D01*
X66222592Y-154837187D02*
X66222601Y-154837664D01*
X132680563Y-167898366D02*
X132698333Y-167867580D01*
X129959220Y-163608655D02*
X129810582Y-163659110D01*
X94873160Y-167396050D02*
X94875282Y-167396016D01*
X96946126Y-167366949D02*
X97941154Y-167357862D01*
X66300119Y-146655860D02*
X66300090Y-146656519D01*
X109257050Y-167491489D02*
X109257389Y-167491498D01*
X127663337Y-168718017D02*
X127673639Y-168718601D01*
X117072616Y-63666373D02*
X117043279Y-63680841D01*
X133794736Y-153786462D02*
X133794764Y-153784365D01*
X133806127Y-152232143D02*
X133806128Y-152231710D01*
X103085042Y-167367282D02*
X103087368Y-167367310D01*
X107195358Y-167437882D02*
X107195721Y-167437890D01*
X69872809Y-134252651D02*
X69868896Y-134263353D01*
X133157327Y-142538317D02*
X133156764Y-142536388D01*
X130092908Y-134158218D02*
X130092207Y-134156269D01*
X130285116Y-134665048D02*
X130284591Y-134663728D01*
X133790166Y-149800661D02*
X133790159Y-149800235D01*
X74571575Y-168551130D02*
X75392405Y-168475116D01*
X119103564Y-167951362D02*
X119104591Y-167951449D01*
X133438127Y-163689976D02*
X133438838Y-163681564D01*
X69903220Y-134168942D02*
X69902515Y-134170890D01*
X67617550Y-168198071D02*
X67638250Y-168214872D01*
X133773295Y-148916140D02*
X133763160Y-148505950D01*
X115224998Y-167710811D02*
X115225335Y-167710827D01*
X133283098Y-165036407D02*
X133284170Y-165029030D01*
X93836562Y-167415473D02*
X93836928Y-167415466D01*
X69310266Y-162656631D02*
X69299999Y-162500000D01*
X122841841Y-168301841D02*
X122841885Y-168301845D01*
X94872775Y-167396056D02*
X94873160Y-167396050D01*
X92799786Y-167437990D02*
X92800147Y-167437982D01*
X133608937Y-160811031D02*
X133608964Y-160810338D01*
X67947560Y-168411905D02*
X67954901Y-168415235D01*
X66195755Y-152739496D02*
X66195766Y-152741479D01*
X66286167Y-146994264D02*
X66273477Y-147336437D01*
X78069578Y-168211548D02*
X78069859Y-168211520D01*
X80888721Y-167952020D02*
X80889750Y-167951932D01*
X133275178Y-142981197D02*
X133274606Y-142978799D01*
X66561161Y-163681564D02*
X66561872Y-163689976D01*
X100012945Y-167350023D02*
X100013424Y-167350023D01*
X133633957Y-145492111D02*
X133633552Y-145486628D01*
X133787062Y-154312288D02*
X133787070Y-154311808D01*
X66725393Y-142978799D02*
X66724821Y-142981197D01*
X130343978Y-168705108D02*
X130356951Y-168704191D01*
X130993087Y-136374278D02*
X130990860Y-136368584D01*
X133552250Y-162029332D02*
X133552493Y-162024679D01*
X79946337Y-168033628D02*
X79950564Y-168033246D01*
X133739160Y-147708790D02*
X133739118Y-147707533D01*
X98992665Y-167351936D02*
X98993125Y-167351934D01*
X68437469Y-168556481D02*
X68462829Y-168561480D01*
X130654786Y-135552362D02*
X130654724Y-135552214D01*
X68227728Y-138462718D02*
X68227610Y-138463043D01*
X132387028Y-168194309D02*
X132424077Y-168163503D01*
X69340889Y-162810582D02*
X69310266Y-162656631D01*
X117257117Y-63600358D02*
X117225521Y-63608824D01*
X109275899Y-167492032D02*
X109276246Y-167492042D01*
X111288957Y-167555511D02*
X111302545Y-167555976D01*
X67517641Y-140517624D02*
X67517444Y-140518195D01*
X132818913Y-141483079D02*
X132818709Y-141482487D01*
X69006912Y-136374278D02*
X69006415Y-136375555D01*
X69067763Y-136219943D02*
X69065851Y-136224758D01*
X67429735Y-140770785D02*
X67429222Y-140772258D01*
X69009139Y-136368584D02*
X69006912Y-136374278D01*
X69500850Y-135185489D02*
X69500673Y-135185912D01*
X70014967Y-133844766D02*
X70014129Y-133847320D01*
X133720629Y-157066517D02*
X133720636Y-157066256D01*
X86710282Y-167629248D02*
X86723733Y-167628717D01*
X104088550Y-167379808D02*
X104090732Y-167379836D01*
X125434168Y-168551651D02*
X125438142Y-168552005D01*
X66367462Y-160183331D02*
X66367481Y-160183896D01*
X133705403Y-157670728D02*
X133720619Y-157066899D01*
X121912256Y-168209770D02*
X121913672Y-168209908D01*
X133739108Y-147707240D02*
X133726768Y-147343359D01*
X133699719Y-146652294D02*
X133685692Y-146350304D01*
X133102185Y-142350664D02*
X133099897Y-142343069D01*
X68549580Y-137590049D02*
X68470186Y-137803287D01*
X133356535Y-143343074D02*
X133355948Y-143340288D01*
X68938758Y-168637129D02*
X68957471Y-168639356D01*
X130582999Y-135383520D02*
X130582936Y-135383371D01*
X89728060Y-167522099D02*
X90719485Y-167492169D01*
X120054435Y-168033698D02*
X120058283Y-168034049D01*
X120053662Y-168033628D02*
X120054435Y-168033698D01*
X129959220Y-161391344D02*
X130100000Y-161460769D01*
X133389008Y-164199924D02*
X133390153Y-164189515D01*
X67989395Y-139129088D02*
X67988625Y-139131280D01*
X67428625Y-140773972D02*
X67428532Y-140774240D01*
X66209720Y-149808023D02*
X66203501Y-150262963D01*
X132735845Y-167792929D02*
X132737568Y-167788918D01*
X67029003Y-141934467D02*
X66967631Y-142124944D01*
X132989187Y-166853417D02*
X132989690Y-166850803D01*
X88690788Y-167556208D02*
X88691120Y-167556197D01*
X133685655Y-146349521D02*
X133685485Y-146345977D01*
X132966453Y-141920541D02*
X132964731Y-141915328D01*
X66346432Y-159548898D02*
X66346444Y-159549302D01*
X133751193Y-155911901D02*
X133751199Y-155911693D01*
X116133552Y-167752725D02*
X116134628Y-167752777D01*
X70189417Y-163659110D02*
X70040779Y-163608655D01*
X128651471Y-161651471D02*
X128769486Y-161547975D01*
X66234679Y-155377971D02*
X66234693Y-155378512D01*
X68938689Y-136552834D02*
X68937575Y-136555790D01*
X133689459Y-158289744D02*
X133689464Y-158289549D01*
X86703727Y-167629511D02*
X86704055Y-167629498D01*
X129343368Y-163689733D02*
X129189417Y-163659110D01*
X67275483Y-167817751D02*
X67281557Y-167829688D01*
X68866056Y-136746304D02*
X68865975Y-136746520D01*
X66390887Y-160806530D02*
X66390913Y-160807227D01*
X96920156Y-167367223D02*
X96920572Y-167367218D01*
X108233658Y-167463425D02*
X108248026Y-167463799D01*
X80964323Y-167945775D02*
X80965355Y-167945693D01*
X68937333Y-136556433D02*
X68867157Y-136743374D01*
X73764874Y-168620062D02*
X73766134Y-168619962D01*
X69641908Y-134846070D02*
X69641495Y-134847084D01*
X131133112Y-136744091D02*
X131132988Y-136743762D01*
X113295944Y-167629498D02*
X113296272Y-167629511D01*
X68866071Y-136746221D02*
X68866056Y-136746304D01*
X76266127Y-168390308D02*
X77157379Y-168301918D01*
X67423901Y-140787514D02*
X67423372Y-140789029D01*
X118046614Y-167869044D02*
X118047917Y-167869133D01*
X95886998Y-167380146D02*
X95887403Y-167380141D01*
X119097391Y-167950841D02*
X119098420Y-167950928D01*
X133508541Y-144261989D02*
X133507480Y-144254322D01*
X133608964Y-160810338D02*
X133609086Y-160807227D01*
X91749302Y-167463870D02*
X91749657Y-167463861D01*
X66367376Y-160180830D02*
X66367462Y-160183331D01*
X68296422Y-168524808D02*
X68370112Y-168541993D01*
X128578945Y-63586549D02*
X128546671Y-63581220D01*
X133720722Y-157062869D02*
X133720726Y-157062698D01*
X131531526Y-168562559D02*
X131537170Y-168561480D01*
X130065564Y-134081220D02*
X130064771Y-134078969D01*
X88691120Y-167556197D02*
X88692952Y-167556132D01*
X66524156Y-144032177D02*
X66522996Y-144039957D01*
X70116041Y-168732015D02*
X70118407Y-168732115D01*
X89705385Y-167522810D02*
X89707212Y-167522752D01*
X131931831Y-138906314D02*
X131931119Y-138904319D01*
X82937304Y-167803320D02*
X82938905Y-167803231D01*
X70079408Y-168730200D02*
X70090038Y-168730777D01*
X66260728Y-147712202D02*
X66248628Y-148094758D01*
X129095163Y-63851706D02*
X129071289Y-63829346D01*
X104120603Y-167380260D02*
X105124329Y-167396010D01*
X66658721Y-164615074D02*
X66660375Y-164628142D01*
X83878836Y-167752134D02*
X83879912Y-167752084D01*
X108255040Y-167463987D02*
X109252784Y-167491370D01*
X98970226Y-167352022D02*
X98970683Y-167352020D01*
X66195387Y-151224010D02*
X66195385Y-151224429D01*
X96945703Y-167366953D02*
X96946126Y-167366949D01*
X66264286Y-156479066D02*
X66264291Y-156479266D01*
X117132631Y-63640356D02*
X117102411Y-63652873D01*
X66236852Y-148505446D02*
X66236839Y-148505950D01*
X129202885Y-63974540D02*
X129182972Y-63948588D01*
X103087789Y-167367315D02*
X104088147Y-167379803D01*
X87693327Y-167591692D02*
X87693663Y-167591679D01*
X67788596Y-168325083D02*
X67794912Y-168329116D01*
X133511047Y-144280755D02*
X133510037Y-144273068D01*
X133652229Y-145757042D02*
X133651905Y-145752200D01*
X67063047Y-167107223D02*
X67063792Y-167110652D01*
X110294947Y-167522821D02*
X110296671Y-167522877D01*
X131593429Y-168550054D02*
X131599047Y-168548846D01*
X79998295Y-168028995D02*
X80888721Y-167952020D01*
X113289717Y-167629248D02*
X113290043Y-167629261D01*
X79987895Y-168029906D02*
X79988667Y-168029838D01*
X89721678Y-167522296D02*
X89723544Y-167522238D01*
X131771573Y-138460801D02*
X131693054Y-138245628D01*
X131364895Y-168593100D02*
X131369770Y-168592271D01*
X107202567Y-167438044D02*
X107217345Y-167438387D01*
X66734540Y-142941688D02*
X66731832Y-142952447D01*
X133806246Y-151724654D02*
X133806243Y-151722694D01*
X133539757Y-144505850D02*
X133539560Y-144504199D01*
X69072476Y-136208182D02*
X69070540Y-136212993D01*
X66205202Y-153781828D02*
X66205229Y-153783914D01*
X69271630Y-135725979D02*
X69205292Y-135883933D01*
X131211287Y-136952117D02*
X131211280Y-136952100D01*
X90721682Y-167492103D02*
X90722020Y-167492093D01*
X67067965Y-167129490D02*
X67071479Y-167144884D01*
X67911857Y-139351296D02*
X67911019Y-139353714D01*
X133720739Y-157062204D02*
X133735607Y-156483124D01*
X115206944Y-167710001D02*
X115207277Y-167710016D01*
X133272004Y-142968013D02*
X133271419Y-142965612D01*
X71701051Y-168745615D02*
X71704059Y-168745495D01*
X132211403Y-168325083D02*
X132222855Y-168317646D01*
X111302545Y-167555976D02*
X111302878Y-167555987D01*
X132740632Y-141257488D02*
X132740520Y-141257165D01*
X80952500Y-167946730D02*
X80958161Y-167946270D01*
X66193751Y-151727468D02*
X66193857Y-152224494D01*
X66212975Y-154314448D02*
X66212983Y-154314926D01*
X68549641Y-137589884D02*
X68549580Y-137590049D01*
X130771273Y-168669354D02*
X131038369Y-168639833D01*
X69561862Y-135039999D02*
X69560217Y-135043929D01*
X130230513Y-161547975D02*
X130348528Y-161651471D01*
X133608652Y-160817962D02*
X133608782Y-160814854D01*
X66833581Y-142570270D02*
X66787108Y-142738511D01*
X131610476Y-138021113D02*
X131531172Y-137806946D01*
X133507480Y-144254322D02*
X133507240Y-144252611D01*
X66248836Y-155913023D02*
X66248850Y-155913554D01*
X130211626Y-134477275D02*
X130208487Y-134469115D01*
X117081106Y-167804372D02*
X117082706Y-167804466D01*
X85734380Y-167669099D02*
X85734708Y-167669085D01*
X101006874Y-167351934D02*
X101007334Y-167351936D01*
X83799710Y-167756105D02*
X83800788Y-167756048D01*
X66205167Y-153778815D02*
X66205172Y-153779298D01*
X131529813Y-137803287D02*
X131450419Y-137590049D01*
X131132983Y-136743749D02*
X131132944Y-136743644D01*
X67535602Y-168129039D02*
X67552006Y-168143224D01*
X133652983Y-145768884D02*
X133652681Y-145764052D01*
X67219703Y-167680277D02*
X67228280Y-167703874D01*
X66482169Y-162619101D02*
X66482541Y-162624755D01*
X92780326Y-167438441D02*
X92782295Y-167438395D01*
X66330238Y-146047768D02*
X66330010Y-146051957D01*
X133612383Y-145219106D02*
X133612264Y-145217752D01*
X132164384Y-139573038D02*
X132164183Y-139572449D01*
X128705780Y-63618319D02*
X128674478Y-63608824D01*
X87693663Y-167591679D02*
X87695281Y-167591619D01*
X116697114Y-63974540D02*
X116678061Y-64001128D01*
X66203440Y-150267812D02*
X66203435Y-150268263D01*
X69916499Y-134131895D02*
X69915806Y-134133847D01*
X130796139Y-135887355D02*
X130794971Y-135884564D01*
X67572228Y-168160402D02*
X67575922Y-168163503D01*
X66330010Y-146051957D02*
X66329959Y-146052891D01*
X97944441Y-167357834D02*
X97946651Y-167357816D01*
X98995634Y-167351926D02*
X98996100Y-167351925D01*
X67104040Y-141708847D02*
X67103745Y-141709723D01*
X130165968Y-134357146D02*
X130140789Y-134289588D01*
X66248806Y-155911901D02*
X66248817Y-155912305D01*
X131853930Y-138688581D02*
X131853289Y-138686795D01*
X130417908Y-134991340D02*
X130416279Y-134987397D01*
X133739221Y-147710642D02*
X133739211Y-147710358D01*
X133720620Y-157066899D02*
X133720620Y-157066860D01*
X131853289Y-138686795D02*
X131853152Y-138686414D01*
X133765306Y-155378512D02*
X133765320Y-155377971D01*
X66263955Y-156466647D02*
X66263960Y-156466847D01*
X67642872Y-168218578D02*
X67663743Y-168235112D01*
X131132850Y-136743393D02*
X131132854Y-136743391D01*
X130499149Y-135185489D02*
X130498158Y-135183131D01*
X132741233Y-141259215D02*
X132741110Y-141258862D01*
X67341665Y-141022342D02*
X67341577Y-141022311D01*
X132464397Y-168129039D02*
X132468029Y-168125868D01*
X68937575Y-136555790D02*
X68937333Y-136556433D01*
X130335995Y-134791721D02*
X130335584Y-134790704D01*
X67910829Y-139354266D02*
X67909995Y-139356681D01*
X132572073Y-140775977D02*
X132571977Y-140775702D01*
X133632410Y-160186926D02*
X133632430Y-160186371D01*
X133726522Y-147336437D02*
X133713832Y-146994264D01*
X69138112Y-136046271D02*
X69137759Y-136047125D01*
X66279379Y-157066860D02*
X66279363Y-157066900D01*
X103082141Y-167367248D02*
X103082563Y-167367253D01*
X131529894Y-137803506D02*
X131529813Y-137803287D01*
X66447804Y-162030382D02*
X66448057Y-162035039D01*
X68468908Y-137806727D02*
X68468827Y-137806946D01*
X101035081Y-167352048D02*
X101035541Y-167352051D01*
X70576296Y-168749674D02*
X70581299Y-168749749D01*
X66346577Y-159553577D02*
X66346591Y-159554022D01*
X69584016Y-134986679D02*
X69583720Y-134987397D01*
X131449743Y-137588236D02*
X131449698Y-137588114D01*
X66300280Y-146652294D02*
X66300251Y-146652933D01*
X96917436Y-167367253D02*
X96917858Y-167367248D01*
X66521358Y-144051213D02*
X66492759Y-144252611D01*
X114269789Y-167669278D02*
X115200590Y-167709721D01*
X129071289Y-63829346D02*
X129046696Y-63807778D01*
X66662483Y-164644107D02*
X66662876Y-164647010D01*
X133804626Y-151226384D02*
X133804614Y-151224429D01*
X66840941Y-165849648D02*
X66841039Y-165850284D01*
X66248616Y-148095125D02*
X66248565Y-148096780D01*
X67912045Y-139350754D02*
X67911857Y-139351296D01*
X66248850Y-155913554D02*
X66263955Y-156466647D01*
X122841016Y-168301759D02*
X122841507Y-168301808D01*
X67685671Y-140020366D02*
X67685608Y-140020556D01*
X96940901Y-167367000D02*
X96943012Y-167366979D01*
X124600962Y-168474491D02*
X124601500Y-168474542D01*
X66718486Y-165047067D02*
X66779365Y-165447427D01*
X70069966Y-133673210D02*
X70069162Y-133675776D01*
X66718239Y-165045429D02*
X66718486Y-165047067D01*
X67428022Y-140775702D02*
X67427926Y-140775977D01*
X133343216Y-164599083D02*
X133343558Y-164596176D01*
X130328105Y-168706145D02*
X130341091Y-168705303D01*
X132481176Y-140514181D02*
X132480094Y-140511027D01*
X68388386Y-138024192D02*
X68387982Y-138025287D01*
X69750120Y-134575742D02*
X69747274Y-134583033D01*
X132009483Y-139125907D02*
X131933703Y-138911585D01*
X70074367Y-133659096D02*
X70069966Y-133673210D01*
X132408440Y-140301570D02*
X132406814Y-140296775D01*
X116200289Y-167756105D02*
X116206208Y-167756423D01*
X68146710Y-138686795D02*
X68146069Y-138688581D01*
X92778173Y-167438493D02*
X92779966Y-167438450D01*
X66367481Y-160183896D02*
X66367569Y-160186371D01*
X68290069Y-168523283D02*
X68296422Y-168524808D01*
X91751973Y-167463799D02*
X91766341Y-167463425D01*
X132821190Y-141489711D02*
X132820980Y-141489096D01*
X69641495Y-134847084D02*
X69639217Y-134852665D01*
X133713591Y-146988045D02*
X133713498Y-146985733D01*
X87691167Y-167591774D02*
X87691492Y-167591762D01*
X88697121Y-167555987D02*
X88697454Y-167555976D01*
X68709867Y-137162000D02*
X68709851Y-137162042D01*
X120974683Y-168118987D02*
X120995967Y-168121005D01*
X130440080Y-135044642D02*
X130439782Y-135043929D01*
X133751555Y-148100835D02*
X133751506Y-148099152D01*
X70608809Y-168750000D02*
X71477831Y-168750000D01*
X66263997Y-156468180D02*
X66264024Y-156469193D01*
X132740431Y-167782115D02*
X132753060Y-167751478D01*
X97949486Y-167357793D02*
X97949928Y-167357790D01*
X95908864Y-167379841D02*
X95909267Y-167379836D01*
X69788373Y-134477275D02*
X69787744Y-134478906D01*
X121005793Y-168121946D02*
X121006316Y-168121996D01*
X128767368Y-63640356D02*
X128736754Y-63628834D01*
X130249879Y-134575742D02*
X130249362Y-134574417D01*
X132803168Y-167613624D02*
X132805165Y-167607529D01*
X66203495Y-150263420D02*
X66203469Y-150265397D01*
X115227180Y-167710911D02*
X115227509Y-167710926D01*
X133102690Y-142352348D02*
X133102185Y-142350664D01*
X67033546Y-141920541D02*
X67033162Y-141921709D01*
X132872736Y-167375674D02*
X132873886Y-167371391D01*
X67412860Y-168015976D02*
X67423486Y-168026656D01*
X133582120Y-161432051D02*
X133582298Y-161428222D01*
X69769486Y-161547975D02*
X69899999Y-161460769D01*
X69420374Y-135375572D02*
X69420314Y-135375714D01*
X87713690Y-167590940D02*
X87715369Y-167590879D01*
X131059947Y-136549231D02*
X131059706Y-136548596D01*
X100010325Y-167350022D02*
X100012945Y-167350023D01*
X117043279Y-63680841D02*
X117014431Y-63696260D01*
X66391035Y-160810338D02*
X66391062Y-160811031D01*
X67758719Y-139800446D02*
X67758507Y-139801082D01*
X130259223Y-134599580D02*
X130256355Y-134592295D01*
X66330291Y-146046828D02*
X66330238Y-146047768D01*
X131931119Y-138904319D02*
X131930965Y-138903887D01*
X102023712Y-167357603D02*
X102026113Y-167357617D01*
X69671894Y-168706145D02*
X69674777Y-168706324D01*
X133763160Y-148505950D02*
X133763147Y-148505446D01*
X116503745Y-64488311D02*
X116501605Y-64520952D01*
X113271848Y-167628544D02*
X113272181Y-167628557D01*
X71670994Y-168746633D02*
X71684515Y-168746216D01*
X133479731Y-163174924D02*
X133480243Y-163168053D01*
X133402239Y-143581858D02*
X133400374Y-143571511D01*
X67508065Y-140545396D02*
X67507867Y-140545970D01*
X133726754Y-147342962D02*
X133726693Y-147341198D01*
X79000680Y-168121324D02*
X79003515Y-168121054D01*
X133804233Y-152741479D02*
X133804244Y-152739496D01*
X117169101Y-167809752D02*
X117170700Y-167809854D01*
X66731832Y-142952447D02*
X66731235Y-142954842D01*
X131610570Y-138021366D02*
X131610476Y-138021113D01*
X66195373Y-151226384D02*
X66195371Y-151226827D01*
X67913077Y-139347787D02*
X67912889Y-139348327D01*
X71490770Y-168749944D02*
X71493119Y-168749928D01*
X131369305Y-137373109D02*
X131290325Y-137162514D01*
X66327696Y-158918774D02*
X66327705Y-158919083D01*
X89700827Y-167522958D02*
X89701165Y-167522947D01*
X66205197Y-153781366D02*
X66205202Y-153781828D01*
X66330882Y-146036573D02*
X66330826Y-146037504D01*
X120006710Y-168029432D02*
X120007478Y-168029499D01*
X67182224Y-141479786D02*
X67181290Y-141482487D01*
X66294603Y-157670996D02*
X66294605Y-157671067D01*
X69743644Y-134592295D02*
X69740776Y-134599580D01*
X91772977Y-167463257D02*
X91773329Y-167463248D01*
X66279279Y-157062947D02*
X66279287Y-157063234D01*
X132240307Y-139797529D02*
X132240090Y-139796881D01*
X133567652Y-144750857D02*
X133567489Y-144749279D01*
X103079843Y-167367223D02*
X103082141Y-167367248D01*
X66520384Y-163176450D02*
X66520918Y-163183318D01*
X133652300Y-145758127D02*
X133652229Y-145757042D01*
X68788712Y-136952117D02*
X68788664Y-136952244D01*
X117091511Y-167804991D02*
X117093111Y-167805087D01*
X68389006Y-138022510D02*
X68388905Y-138022786D01*
X66327753Y-158920767D02*
X66327793Y-158922125D01*
X132740032Y-141255765D02*
X132739917Y-141255436D01*
X133763003Y-148499967D02*
X133762941Y-148497728D01*
X102028752Y-167357634D02*
X102029193Y-167357637D01*
X76261855Y-168390727D02*
X76262998Y-168390616D01*
X130100000Y-163539230D02*
X129959220Y-163608655D01*
X66346516Y-159551641D02*
X66346577Y-159553577D01*
X130748647Y-168671694D02*
X130752131Y-168671346D01*
X133322230Y-143182487D02*
X133319660Y-143170766D01*
X85736503Y-167669008D02*
X85736834Y-167668994D01*
X133796530Y-150265397D02*
X133796504Y-150263420D01*
X109259280Y-167491552D02*
X109259624Y-167491562D01*
X133787154Y-154306573D02*
X133794729Y-153786908D01*
X129990501Y-133861369D02*
X129985870Y-133847320D01*
X132570264Y-140770785D02*
X132570171Y-140770516D01*
X84775001Y-167710811D02*
X84776665Y-167710736D01*
X131703577Y-168524808D02*
X131709930Y-168523283D01*
X133634437Y-145498810D02*
X133634046Y-145493335D01*
X109280514Y-167492169D02*
X110271939Y-167522099D01*
X67932668Y-168404720D02*
X67947144Y-168411712D01*
X133782551Y-149358888D02*
X133782543Y-149358434D01*
X132525305Y-168074634D02*
X132547138Y-168054479D01*
X67882432Y-168379450D02*
X67932668Y-168404720D01*
X114249365Y-167668413D02*
X114249693Y-167668427D01*
X133653050Y-145769977D02*
X133652983Y-145768884D01*
X116958325Y-63729889D02*
X116931128Y-63748061D01*
X123737001Y-168390616D02*
X123738144Y-168390727D01*
X67181086Y-141483079D02*
X67180154Y-141485788D01*
X72298870Y-168719970D02*
X72301162Y-168719867D01*
X88715185Y-167555371D02*
X88715517Y-167555360D01*
X113270053Y-167628475D02*
X113271848Y-167628544D01*
X67506779Y-140549119D02*
X67506581Y-140549691D01*
X66264024Y-156469193D02*
X66264029Y-156469383D01*
X69636717Y-134858770D02*
X69636301Y-134859784D01*
X66366042Y-145492111D02*
X66365953Y-145493335D01*
X132968925Y-141928087D02*
X132968545Y-141926923D01*
X119034644Y-167945693D02*
X119035676Y-167945775D01*
X66385742Y-145241419D02*
X66367051Y-145478706D01*
X132892667Y-141699118D02*
X132821190Y-141489711D01*
X71100000Y-161460769D02*
X71230513Y-161547975D01*
X112284295Y-167590867D02*
X112284630Y-167590879D01*
X133045421Y-166547182D02*
X133045741Y-166545304D01*
X70105399Y-168731538D02*
X70116041Y-168732015D01*
X66279363Y-157066900D02*
X66279380Y-157066899D01*
X69499785Y-135188023D02*
X69499606Y-135188450D01*
X130207861Y-134467482D02*
X130204422Y-134458496D01*
X119041838Y-167946270D02*
X119047499Y-167946730D01*
X103059522Y-167367004D02*
X103061823Y-167367028D01*
X133765379Y-155375686D02*
X133765392Y-155375153D01*
X68185819Y-168495948D02*
X68192108Y-168497722D01*
X66680915Y-143168168D02*
X66680339Y-143170766D01*
X94868379Y-167396130D02*
X94870462Y-167396095D01*
X114265291Y-167669085D02*
X114265619Y-167669099D01*
X66959741Y-142149943D02*
X66903444Y-142332117D01*
X69940366Y-134064334D02*
X69939578Y-134066586D01*
X87717496Y-167590803D02*
X87717823Y-167590791D01*
X66236839Y-148505950D02*
X66226704Y-148916140D01*
X128769486Y-163452024D02*
X128651471Y-163348528D01*
X133806139Y-152227299D02*
X133806139Y-152226890D01*
X130655378Y-135553755D02*
X130655330Y-135553642D01*
X131370015Y-137375005D02*
X131369820Y-137374486D01*
X81865430Y-167875395D02*
X81872592Y-167874864D01*
X130375688Y-168702759D02*
X130710330Y-168675228D01*
X66346652Y-159555920D02*
X66346667Y-159556374D01*
X132313919Y-140019135D02*
X132241492Y-139801082D01*
X69821705Y-134389866D02*
X69796201Y-134456863D01*
X121915630Y-168210098D02*
X121917104Y-168210242D01*
X86707839Y-167629345D02*
X86708165Y-167629332D01*
X133739118Y-147707533D02*
X133739108Y-147707240D01*
X133806135Y-152229307D02*
X133806139Y-152227299D01*
X97976722Y-167357600D02*
X98964458Y-167352051D01*
X133480847Y-163159650D02*
X133480954Y-163158119D01*
X66347387Y-145762965D02*
X66347318Y-145764052D01*
X93832301Y-167415557D02*
X93834342Y-167415516D01*
X66226693Y-148916624D02*
X66226643Y-148918740D01*
X113292160Y-167629345D02*
X113293818Y-167629412D01*
X130419984Y-134996355D02*
X130419688Y-134995640D01*
X133806141Y-152224923D02*
X133806142Y-152224494D01*
X129396254Y-64488311D02*
X129393048Y-64455758D01*
X133157885Y-165857213D02*
X133157986Y-165856567D01*
X131369307Y-137373115D02*
X131369305Y-137373109D01*
X66314344Y-146349521D02*
X66314307Y-146350304D01*
X66203501Y-150262963D02*
X66203495Y-150263420D01*
X71493119Y-168749928D02*
X71503703Y-168749828D01*
X105153025Y-167396501D02*
X105155150Y-167396540D01*
X69565590Y-135031062D02*
X69563954Y-135034989D01*
X68226776Y-168507209D02*
X68255184Y-168514622D01*
X86725887Y-167628632D02*
X86726212Y-167628620D01*
X66525872Y-144020944D02*
X66525605Y-144022672D01*
X66367051Y-145478706D02*
X66366957Y-145479924D01*
X128546671Y-63581220D02*
X128514241Y-63576951D01*
X67685267Y-140021580D02*
X67685205Y-140021768D01*
X107224142Y-167438549D02*
X107224503Y-167438558D01*
X68147491Y-138684624D02*
X68146847Y-138686414D01*
X133437054Y-163702122D02*
X133437223Y-163700254D01*
X132272519Y-168282988D02*
X132278101Y-168278956D01*
X66716901Y-165036407D02*
X66717142Y-165038046D01*
X133689410Y-158291597D02*
X133689432Y-158290771D01*
X66314991Y-146336513D02*
X66314949Y-146337313D01*
X114263496Y-167669008D02*
X114265291Y-167669085D01*
X66900612Y-142341388D02*
X66900102Y-142343069D01*
X111282316Y-167555288D02*
X111282650Y-167555299D01*
X133392783Y-164164071D02*
X133393011Y-164161755D01*
X69345213Y-135552362D02*
X69344974Y-135552923D01*
X70959220Y-163608655D02*
X70810582Y-163659110D01*
X86724061Y-167628704D02*
X86725887Y-167628632D01*
X118143692Y-167876084D02*
X118150860Y-167876635D01*
X97976287Y-167357603D02*
X97976722Y-167357600D01*
X88711042Y-167555511D02*
X88711374Y-167555500D01*
X119040813Y-167946187D02*
X119041838Y-167946270D01*
X69417413Y-135382547D02*
X69417352Y-135382691D01*
X116511220Y-64423328D02*
X116506951Y-64455758D01*
X82830898Y-167809752D02*
X82839702Y-167809200D01*
X115500000Y-133500000D02*
X70321920Y-133500000D01*
X66212937Y-154312288D02*
X66212975Y-154314448D01*
X133669761Y-146047768D02*
X133669708Y-146046828D01*
X66609846Y-164189515D02*
X66610991Y-164199924D01*
X132658382Y-141022325D02*
X132658334Y-141022342D01*
X78086327Y-168209908D02*
X78087743Y-168209770D01*
X69718296Y-134656450D02*
X69715408Y-134663728D01*
X67681355Y-140033326D02*
X67681290Y-140033521D01*
X131370066Y-137375141D02*
X131370015Y-137375005D01*
X70959220Y-161391344D02*
X71100000Y-161460769D01*
X68550668Y-137587134D02*
X68550581Y-137587365D01*
X67259967Y-141255765D02*
X67259479Y-141257165D01*
X113273787Y-167628620D02*
X113274112Y-167628632D01*
X128642882Y-63600358D02*
X128611026Y-63592930D01*
X67681735Y-140032187D02*
X67681670Y-140032382D01*
X66727995Y-142968013D02*
X66725393Y-142978799D01*
X108254685Y-167463977D02*
X108255040Y-167463987D01*
X66787108Y-142738511D02*
X66786514Y-142740681D01*
X133804614Y-151224429D02*
X133804612Y-151224010D01*
X130356951Y-168704191D02*
X130359831Y-168703980D01*
X67016511Y-166882145D02*
X67059028Y-167088342D01*
X88692952Y-167556132D02*
X88693283Y-167556120D01*
X133265459Y-142941688D02*
X133264851Y-142939295D01*
X75396002Y-168474779D02*
X75398499Y-168474542D01*
X80902608Y-167950841D02*
X80908268Y-167950370D01*
X120968190Y-168118377D02*
X120970793Y-168118621D01*
X133804217Y-152743929D02*
X133804230Y-152741931D01*
X133274606Y-142978799D02*
X133272004Y-142968013D01*
X130338467Y-134797833D02*
X130338057Y-134796820D01*
X132090004Y-139356681D02*
X132089170Y-139354266D01*
X66367358Y-160180290D02*
X66367376Y-160180830D01*
X66417920Y-161432903D02*
X66418105Y-161436742D01*
X132932034Y-167129490D02*
X132932803Y-167126064D01*
X69830046Y-134367786D02*
X69829430Y-134369424D01*
X90719827Y-167492159D02*
X90721682Y-167492103D01*
X119098420Y-167950928D02*
X119103564Y-167951362D01*
X130281703Y-134656450D02*
X130281179Y-134655127D01*
X133390153Y-164189515D02*
X133390402Y-164187203D01*
X126975889Y-168675766D02*
X126977614Y-168675886D01*
X69636301Y-134859784D02*
X69634014Y-134865350D01*
X84778818Y-167710639D02*
X84779153Y-167710624D01*
X122840841Y-168301742D02*
X122840848Y-168301742D01*
X67607490Y-140254445D02*
X67605874Y-140259242D01*
X132117567Y-168379450D02*
X132145410Y-168364320D01*
X94849678Y-167396453D02*
X94851776Y-167396416D01*
X103062240Y-167367032D02*
X103079427Y-167367218D01*
X66417701Y-161428222D02*
X66417879Y-161432051D01*
X69829430Y-134369424D02*
X69826347Y-134377609D01*
X133220308Y-165449563D02*
X133220330Y-165449421D01*
X129500000Y-161299999D02*
X129656631Y-161310266D01*
X66217494Y-149356358D02*
X66217456Y-149358434D01*
X132740520Y-141257165D02*
X132740032Y-141255765D01*
X69420796Y-135374578D02*
X69420733Y-135374727D01*
X133612264Y-145217752D02*
X133592043Y-144992329D01*
X133098729Y-166230551D02*
X133098929Y-166229336D01*
X133777407Y-154837187D02*
X133787016Y-154314926D01*
X97941154Y-167357862D02*
X97941593Y-167357859D01*
X86705849Y-167629425D02*
X86706181Y-167629412D01*
X79028689Y-168118669D02*
X79029206Y-168118621D01*
X133158960Y-165850284D02*
X133159058Y-165849648D01*
X68069034Y-138903887D02*
X68068880Y-138904319D01*
X67341577Y-141022311D02*
X67341569Y-141022321D01*
X113274112Y-167628632D02*
X113275938Y-167628704D01*
X130990359Y-136367309D02*
X130934570Y-136225826D01*
X133041824Y-166567783D02*
X133042157Y-166565915D01*
X131568160Y-168555338D02*
X131593429Y-168550054D01*
X133762941Y-148497728D02*
X133762928Y-148497246D01*
X67258766Y-141259215D02*
X67182438Y-141479167D01*
X66234539Y-155372354D02*
X66234552Y-155372874D01*
X66264386Y-156482921D02*
X66264392Y-156483124D01*
X66226515Y-148924456D02*
X66217601Y-149350864D01*
X69344669Y-135553642D02*
X69344621Y-135553755D01*
X112302238Y-167591527D02*
X112302567Y-167591539D01*
X66557712Y-143817250D02*
X66557439Y-143818976D01*
X67987687Y-139133957D02*
X67987509Y-139134467D01*
X89705052Y-167522821D02*
X89705385Y-167522810D01*
X133796590Y-150270659D02*
X133796585Y-150270210D01*
X68888947Y-168630565D02*
X68893098Y-168631147D01*
X132755822Y-167744634D02*
X132766829Y-167716769D01*
X116678061Y-64001128D02*
X116659889Y-64028326D01*
X133212891Y-142738511D02*
X133166418Y-142570270D01*
X133720648Y-157065791D02*
X133720649Y-157065738D01*
X118127407Y-167874864D02*
X118134569Y-167875395D01*
X66299809Y-146663008D02*
X66299782Y-146663658D01*
X67507867Y-140545970D02*
X67506779Y-140549119D01*
X129500000Y-163700000D02*
X129343368Y-163689733D01*
X67196831Y-167613624D02*
X67205986Y-167640978D01*
X109254988Y-167491431D02*
X109255332Y-167491441D01*
X133765526Y-155369527D02*
X133777231Y-154845838D01*
X66310535Y-158289549D02*
X66310540Y-158289744D01*
X129940981Y-133707821D02*
X129940163Y-133705260D01*
X130794707Y-135883933D02*
X130728369Y-135725979D01*
X66248821Y-155912468D02*
X66248832Y-155912881D01*
X67072273Y-167148305D02*
X67108142Y-167300522D01*
X128736754Y-63628834D02*
X128705780Y-63618319D01*
X104096145Y-167379909D02*
X104112596Y-167380141D01*
X125442999Y-168552430D02*
X125443894Y-168552507D01*
X79992521Y-168029499D02*
X79993289Y-168029432D01*
X131132947Y-136743552D02*
X131132914Y-136743564D01*
X68630189Y-137374459D02*
X68630179Y-137374486D01*
X110299172Y-167522958D02*
X111282316Y-167555288D01*
X87691492Y-167591762D02*
X87693327Y-167591692D01*
X130437838Y-135039284D02*
X130436343Y-135035704D01*
X69634014Y-134865350D02*
X69633597Y-134866365D01*
X85730540Y-167669264D02*
X85732384Y-167669184D01*
X69580015Y-134996355D02*
X69578388Y-135000277D01*
X68657041Y-168596715D02*
X68661925Y-168597496D01*
X68083478Y-168464401D02*
X68090362Y-168466664D01*
X66611250Y-164202230D02*
X66656441Y-164596176D01*
X133669117Y-146036573D02*
X133653050Y-145769977D01*
X132388847Y-140243533D02*
X132388555Y-140242660D01*
X69203860Y-135887355D02*
X69203591Y-135888001D01*
X132986893Y-166865173D02*
X132989187Y-166853417D01*
X67759692Y-139797529D02*
X67758719Y-139800446D01*
X69004203Y-136381254D02*
X69003713Y-136382522D01*
X66327745Y-158920486D02*
X66327753Y-158920767D01*
X132012312Y-139133957D02*
X132011544Y-139131764D01*
X69825730Y-134379243D02*
X69822326Y-134388232D01*
X66260788Y-147710358D02*
X66260778Y-147710642D01*
X130013088Y-133928930D02*
X130012321Y-133926670D01*
X66680339Y-143170766D02*
X66677769Y-143182487D01*
X129361175Y-64295521D02*
X129351680Y-64264219D01*
X112306672Y-167591692D02*
X112308507Y-167591762D01*
X130929459Y-136212993D02*
X130927523Y-136208182D01*
X133537319Y-144486009D02*
X133511269Y-144282459D01*
X69822326Y-134388232D02*
X69821705Y-134389866D01*
X132331591Y-168238763D02*
X132336256Y-168235112D01*
X130088712Y-134146523D02*
X130088015Y-134144573D01*
X66365476Y-145500037D02*
X66348167Y-145751116D01*
X68961630Y-168639833D02*
X69228726Y-168669354D01*
X129656631Y-161310266D02*
X129810582Y-161340889D01*
X69344621Y-135553755D02*
X69274450Y-135719297D01*
X133672206Y-158922125D02*
X133672246Y-158920767D01*
X67552006Y-168143224D02*
X67555670Y-168146361D01*
X131211350Y-136952284D02*
X131211335Y-136952244D01*
X110292445Y-167522741D02*
X110292787Y-167522752D01*
X133713476Y-146985183D02*
X133700217Y-146663658D01*
X114245560Y-167668255D02*
X114247256Y-167668325D01*
X105126839Y-167396050D02*
X105127224Y-167396056D01*
X76261604Y-168390752D02*
X76261855Y-168390727D01*
X66715829Y-165029030D02*
X66716901Y-165036407D01*
X68867157Y-136743374D02*
X68867141Y-136743390D01*
X66195744Y-152737035D02*
X66195753Y-152739058D01*
X130288273Y-134672965D02*
X130287746Y-134671644D01*
X133782398Y-149350864D02*
X133773484Y-148924456D01*
X68066445Y-138911164D02*
X68066296Y-138911585D01*
X130501560Y-135191221D02*
X130501382Y-135190798D01*
X130140789Y-134289588D02*
X130140068Y-134287647D01*
X130689733Y-162656631D02*
X130659110Y-162810582D01*
X66417490Y-161423539D02*
X66417662Y-161427361D01*
X66226525Y-148923971D02*
X66226515Y-148924456D01*
X132318709Y-140033521D02*
X132318644Y-140033326D01*
X69859210Y-134289588D02*
X69834031Y-134357146D01*
X133365253Y-143386280D02*
X133362794Y-143373724D01*
X133800510Y-153255121D02*
X133804214Y-152744388D01*
X133705394Y-157671067D02*
X133705396Y-157670996D01*
X99001898Y-167351910D02*
X99980552Y-167350031D01*
X66432510Y-144749279D02*
X66432347Y-144750857D01*
X133739170Y-147709089D02*
X133739160Y-147708790D01*
X100018962Y-167350030D02*
X100019447Y-167350031D01*
X133591156Y-144982757D02*
X133590522Y-144976136D01*
X68629984Y-137375005D02*
X68629933Y-137375141D01*
X132237919Y-139790416D02*
X132237703Y-139789778D01*
X66199556Y-153262562D02*
X66199560Y-153263017D01*
X69949367Y-134038410D02*
X69945076Y-134050813D01*
X70343368Y-161310266D02*
X70500000Y-161299999D01*
X68227040Y-138464612D02*
X68226910Y-138464968D01*
X118150860Y-167876635D02*
X118152163Y-167876736D01*
X69868183Y-134265296D02*
X69864607Y-134275014D01*
X132495894Y-140556835D02*
X132495696Y-140556264D01*
X78071362Y-168211372D02*
X78071627Y-168211346D01*
X133685050Y-146337313D02*
X133685008Y-146336513D01*
X66198632Y-150740782D02*
X66198615Y-150742754D01*
X112286635Y-167590952D02*
X112288442Y-167591018D01*
X69791512Y-134469115D02*
X69788373Y-134477275D01*
X93839368Y-167415419D02*
X94844459Y-167396548D01*
X66656441Y-164596176D02*
X66656783Y-164599083D01*
X75392405Y-168475116D02*
X75392972Y-168475063D01*
X71689733Y-162656631D02*
X71659110Y-162810582D01*
X66779468Y-165448104D02*
X66779556Y-165448683D01*
X105129537Y-167396095D02*
X105131620Y-167396130D01*
X66519152Y-163159650D02*
X66519644Y-163166526D01*
X82917293Y-167804466D02*
X82918893Y-167804372D01*
X66954578Y-166547182D02*
X66956031Y-166555613D01*
X88695274Y-167556051D02*
X88697121Y-167555987D01*
X66264065Y-156470724D02*
X66264286Y-156479066D01*
X133713704Y-146990909D02*
X133713612Y-146988554D01*
X130868006Y-136061220D02*
X130867661Y-136060371D01*
X132992411Y-166836412D02*
X133039966Y-166578075D01*
X67474694Y-168074634D02*
X67479576Y-168079080D01*
X78066505Y-168211851D02*
X78067998Y-168211703D01*
X129624343Y-133310113D02*
X129399999Y-132678958D01*
X133285455Y-165019997D02*
X133285683Y-165018364D01*
X69460769Y-161899999D02*
X69547975Y-161769486D01*
X133699880Y-146655860D02*
X133699748Y-146652933D01*
X69272520Y-135723864D02*
X69271790Y-135725599D01*
X131932848Y-138909173D02*
X131932695Y-138908744D01*
X66522741Y-144041689D02*
X66521608Y-144049475D01*
X66410274Y-144968036D02*
X66409621Y-144974656D01*
X73033598Y-168675082D02*
X73757903Y-168620603D01*
X66198597Y-150745128D02*
X66198594Y-150745567D01*
X66199513Y-153258053D02*
X66199531Y-153260095D01*
X91773329Y-167463248D02*
X92775496Y-167438558D01*
X121933494Y-168211851D02*
X121933765Y-168211878D01*
X66408843Y-144982757D02*
X66408704Y-144984235D01*
X66841572Y-165853738D02*
X66842013Y-165856567D01*
X101007334Y-167351936D02*
X101026319Y-167352008D01*
X66677206Y-143185092D02*
X66644051Y-143340288D01*
X66562945Y-163702122D02*
X66563720Y-163710535D01*
X66779669Y-165449421D02*
X66779691Y-165449563D01*
X80951470Y-167946814D02*
X80952500Y-167946730D01*
X133632641Y-160180290D02*
X133653332Y-159556374D01*
X67341700Y-141022240D02*
X67341665Y-141022342D01*
X130929888Y-136214063D02*
X130929459Y-136212993D01*
X103054296Y-167366953D02*
X103056575Y-167366975D01*
X77157379Y-168301918D02*
X77158096Y-168301534D01*
X111286839Y-167555439D02*
X111288625Y-167555500D01*
X101003899Y-167351925D02*
X101004365Y-167351926D01*
X131977746Y-168442509D02*
X132010327Y-168429853D01*
X133787106Y-154309663D02*
X133787113Y-154309182D01*
X104115206Y-167380178D02*
X104115606Y-167380184D01*
X67127263Y-167375674D02*
X67153904Y-167473117D01*
X86704055Y-167629498D02*
X86705849Y-167629425D01*
X131537170Y-168561480D02*
X131562530Y-168556481D01*
X130539230Y-161899999D02*
X130608655Y-162040779D01*
X107198061Y-167437942D02*
X107199852Y-167437982D01*
X119027947Y-167945163D02*
X119028977Y-167945244D01*
X130281179Y-134655127D02*
X130259746Y-134600905D01*
X109252784Y-167491370D02*
X109253127Y-167491379D01*
X71651447Y-168747119D02*
X71654454Y-168747053D01*
X110298834Y-167522947D02*
X110299172Y-167522958D01*
X132571977Y-140775702D02*
X132571467Y-140774240D01*
X79004032Y-168121005D02*
X79025316Y-168118987D01*
X67504105Y-140556835D02*
X67429828Y-140770516D01*
X67989565Y-139128604D02*
X67989395Y-139129088D01*
X68308750Y-138240698D02*
X68308260Y-138242033D01*
X115225335Y-167710827D02*
X115227180Y-167710911D01*
X133794764Y-153784365D02*
X133794770Y-153783914D01*
X70064313Y-133691168D02*
X70059836Y-133705260D01*
X79029206Y-168118621D02*
X79031809Y-168118377D01*
X116193837Y-167755765D02*
X116199211Y-167756048D01*
X132895959Y-141708847D02*
X132894617Y-141704865D01*
X66264327Y-156480621D02*
X66264354Y-156481670D01*
X130867661Y-136060371D02*
X130866094Y-136056523D01*
X130055706Y-134053068D02*
X130054923Y-134050813D01*
X67987509Y-139134467D02*
X67913077Y-139347787D01*
X66660375Y-164628142D02*
X66660752Y-164631049D01*
X133551623Y-162040727D02*
X133551885Y-162036074D01*
X133632319Y-160189424D02*
X133632410Y-160186926D01*
X103061823Y-167367028D02*
X103062240Y-167367032D01*
X69578388Y-135000277D02*
X69578091Y-135000992D01*
X69833419Y-134358783D02*
X69830046Y-134367786D01*
X133608811Y-160814158D02*
X133608937Y-160811031D01*
X80971022Y-167945244D02*
X80972052Y-167945163D01*
X127675934Y-168718726D02*
X127686233Y-168719263D01*
X69310266Y-162343368D02*
X69340889Y-162189417D01*
X133804214Y-152744388D02*
X133804217Y-152743929D01*
X126966401Y-168675082D02*
X126968125Y-168675209D01*
X69344974Y-135552923D02*
X69344927Y-135553035D01*
X70065124Y-133688604D02*
X70064313Y-133691168D01*
X131807891Y-168497722D02*
X131814180Y-168495948D01*
X67506581Y-140549691D02*
X67505590Y-140552552D01*
X67031454Y-141926923D02*
X67031074Y-141928087D01*
X133404464Y-143594507D02*
X133402647Y-143584152D01*
X66209792Y-149803142D02*
X66209762Y-149805127D01*
X132577825Y-140792455D02*
X132577292Y-140790931D01*
X133551885Y-162036074D02*
X133551942Y-162035039D01*
X67686014Y-140019336D02*
X67685671Y-140020366D01*
X133653332Y-159556374D02*
X133653347Y-159555920D01*
X102026113Y-167357617D02*
X102026553Y-167357620D01*
X69488877Y-135213895D02*
X69488697Y-135214320D01*
X133801402Y-150745128D02*
X133801387Y-150743153D01*
X133751434Y-148096780D02*
X133751383Y-148095125D01*
X67341570Y-141022612D02*
X67341568Y-141022618D01*
X67422174Y-140792455D02*
X67422079Y-140792726D01*
X66967631Y-142124944D02*
X66967174Y-142126369D01*
X66286295Y-146990909D02*
X66286276Y-146991406D01*
X132968545Y-141926923D02*
X132966837Y-141921709D01*
X131562530Y-168556481D02*
X131568160Y-168555338D01*
X66234485Y-155370027D02*
X66234539Y-155372354D01*
X101001570Y-167351918D02*
X101003899Y-167351925D01*
X121917371Y-168210269D02*
X121928372Y-168211346D01*
X130512294Y-135216664D02*
X130511302Y-135214320D01*
X133565814Y-144733537D02*
X133565641Y-144731964D01*
X133359138Y-143355604D02*
X133356535Y-143343074D01*
X115204778Y-167709905D02*
X115205105Y-167709919D01*
X66386458Y-145232626D02*
X66386347Y-145233974D01*
X124607027Y-168475063D02*
X124607594Y-168475116D01*
X132087954Y-139350754D02*
X132087110Y-139348327D01*
X130934148Y-136224758D02*
X130932236Y-136219943D01*
X121932001Y-168211703D02*
X121933494Y-168211851D01*
X112288442Y-167591018D02*
X112288770Y-167591030D01*
X69417063Y-135383371D02*
X69417000Y-135383520D01*
X66783279Y-142752619D02*
X66780675Y-142762390D01*
X67246939Y-167751478D02*
X67259568Y-167782115D01*
X68406570Y-168550054D02*
X68431839Y-168555338D01*
X66205172Y-153779298D02*
X66205197Y-153781366D01*
X133097070Y-142333796D02*
X133096555Y-142332117D01*
X133437223Y-163700254D02*
X133437965Y-163691846D01*
X82908488Y-167804991D02*
X82917293Y-167804466D01*
X105124329Y-167396010D02*
X105124717Y-167396016D01*
X128295940Y-168745495D02*
X128298948Y-168745615D01*
X98998892Y-167351917D02*
X99001438Y-167351911D01*
X66327705Y-158919083D02*
X66327745Y-158920486D01*
X100013424Y-167350023D02*
X100015832Y-167350026D01*
X130169953Y-134367786D02*
X130166580Y-134358783D01*
X129351680Y-64264219D02*
X129341165Y-64233245D01*
X130284591Y-134663728D02*
X130281703Y-134656450D01*
X67686080Y-140019135D02*
X67686014Y-140019336D01*
X69205028Y-135884564D02*
X69203860Y-135887355D01*
X130325222Y-168706324D02*
X130328105Y-168706145D01*
X66279262Y-157062256D02*
X66279271Y-157062624D01*
X120967672Y-168118328D02*
X120968190Y-168118377D01*
X69661942Y-134796820D02*
X69661532Y-134797833D01*
X68940293Y-136548596D02*
X68940052Y-136549231D01*
X133739271Y-147712202D02*
X133739262Y-147711928D01*
X83792716Y-167756481D02*
X83793791Y-167756423D01*
X107217704Y-167438395D02*
X107219673Y-167438441D01*
X83865371Y-167752777D02*
X83866447Y-167752725D01*
X66260829Y-147709089D02*
X66260788Y-147710358D01*
X130332922Y-134784100D02*
X130291712Y-134681555D01*
X66903444Y-142332117D02*
X66902929Y-142333796D01*
X67684862Y-140022798D02*
X67684796Y-140022995D01*
X131133943Y-136746304D02*
X131133946Y-136746214D01*
X130083500Y-134131895D02*
X130065564Y-134081220D01*
X90740719Y-167491552D02*
X90742610Y-167491498D01*
X122841878Y-168301921D02*
X122841883Y-168301922D01*
X112304718Y-167591619D02*
X112306336Y-167591679D01*
X66209755Y-149805570D02*
X66209726Y-149807592D01*
X120059050Y-168034119D02*
X120063285Y-168034509D01*
X71689733Y-162343368D02*
X71700000Y-162500000D01*
X68128262Y-168478764D02*
X68159447Y-168488270D01*
X72326360Y-168718601D02*
X72336662Y-168718017D01*
X67205986Y-167640978D02*
X67208060Y-167647044D01*
X132891857Y-167300522D02*
X132927726Y-167148305D01*
X66842672Y-142538317D02*
X66840155Y-142547020D01*
X66236996Y-148499967D02*
X66236982Y-148500479D01*
X132885002Y-167328502D02*
X132886076Y-167324201D01*
X129221937Y-64001128D02*
X129202885Y-63974540D01*
X116737778Y-63923303D02*
X116717027Y-63948588D01*
X67427926Y-140775977D02*
X67423996Y-140787241D01*
X68938931Y-136552193D02*
X68938689Y-136552834D01*
X66198615Y-150742754D02*
X66198612Y-150743153D01*
X66347770Y-145757042D02*
X66347699Y-145758127D01*
X129046696Y-63807778D02*
X129021410Y-63787027D01*
X133220547Y-165448004D02*
X133220634Y-165447427D01*
X66956031Y-166555613D02*
X66956356Y-166557483D01*
X133763077Y-148502713D02*
X133763017Y-148500479D01*
X89723876Y-167522227D02*
X89725561Y-167522175D01*
X66222768Y-154845838D02*
X66234473Y-155369527D01*
X132791939Y-167647044D02*
X132794013Y-167640978D01*
X133104952Y-142359953D02*
X133102690Y-142352348D01*
X68608306Y-168588434D02*
X68630229Y-168592271D01*
X123738144Y-168390727D02*
X123738395Y-168390752D01*
X130689733Y-162343368D02*
X130700000Y-162500000D01*
X66310562Y-158290587D02*
X66310567Y-158290771D01*
X67275343Y-167817459D02*
X67275483Y-167817751D01*
X133510037Y-144273068D02*
X133509810Y-144271369D01*
X66193757Y-151722272D02*
X66193756Y-151722694D01*
X66264359Y-156481866D02*
X66264386Y-156482921D01*
X79935943Y-168034580D02*
X79936714Y-168034509D01*
X133800439Y-153263017D02*
X133800443Y-153262562D01*
X117353328Y-63581220D02*
X117321054Y-63586549D01*
X131611501Y-138023888D02*
X131611094Y-138022786D01*
X88694942Y-167556063D02*
X88695274Y-167556051D01*
X66236909Y-148503200D02*
X66236852Y-148505446D01*
X127688529Y-168719377D02*
X127698837Y-168719867D01*
X130578949Y-135373978D02*
X130578887Y-135373832D01*
X98996100Y-167351925D02*
X98998429Y-167351918D01*
X126235125Y-168620062D02*
X126240841Y-168620507D01*
X133614149Y-145240070D02*
X133613652Y-145233974D01*
X133441045Y-143809483D02*
X133440766Y-143807759D01*
X133651905Y-145752200D02*
X133651832Y-145751116D01*
X66346949Y-145769977D02*
X66330882Y-146036573D01*
X66279380Y-157066899D02*
X66294596Y-157670728D01*
X130418204Y-134992056D02*
X130417908Y-134991340D01*
X72324065Y-168718726D02*
X72326360Y-168718601D01*
X133341278Y-164615074D02*
X133341637Y-164612169D01*
X129446188Y-168749224D02*
X129451189Y-168749099D01*
X66217541Y-149353850D02*
X66217502Y-149355901D01*
X132820980Y-141489096D02*
X132820052Y-141486390D01*
X133720712Y-157063262D02*
X133720712Y-157063234D01*
X132724656Y-167817459D02*
X132729451Y-167807193D01*
X129881592Y-168732115D02*
X129883958Y-168732015D01*
X132970623Y-141933313D02*
X132968925Y-141928087D01*
X69500673Y-135185912D02*
X69499785Y-135188023D01*
X67258889Y-141258862D02*
X67258766Y-141259215D01*
X70024527Y-133815359D02*
X70019972Y-133829432D01*
X68866209Y-136745897D02*
X68866192Y-136745942D01*
X67685205Y-140021768D02*
X67684862Y-140022798D01*
X133633460Y-145485404D02*
X133633042Y-145479924D01*
X131133134Y-136744150D02*
X131133112Y-136744091D01*
X89721340Y-167522307D02*
X89721678Y-167522296D01*
X132023046Y-168424749D02*
X132037633Y-168418548D01*
X98970683Y-167352020D02*
X98973214Y-167352009D01*
X66561006Y-163679687D02*
X66561161Y-163681564D01*
X132782448Y-167674236D02*
X132791939Y-167647044D01*
X131692456Y-138243990D02*
X131692348Y-138243697D01*
X133096555Y-142332117D02*
X133040258Y-142149943D01*
X128856720Y-63680841D02*
X128827383Y-63666373D01*
X133632518Y-160183896D02*
X133632537Y-160183331D01*
X66461342Y-144496753D02*
X66460439Y-144504199D01*
X66299934Y-146660086D02*
X66299809Y-146663008D01*
X124604568Y-168474832D02*
X124607027Y-168475063D01*
X132392216Y-140253575D02*
X132390748Y-140249207D01*
X105129149Y-167396088D02*
X105129537Y-167396095D01*
X133101086Y-166216013D02*
X133157342Y-165860667D01*
X103087368Y-167367310D02*
X103087789Y-167367315D01*
X66558954Y-143809483D02*
X66557712Y-143817250D01*
X132820784Y-167558703D02*
X132827964Y-167535436D01*
X66417452Y-161422674D02*
X66417490Y-161423539D01*
X85734708Y-167669085D02*
X85736503Y-167669008D01*
X67126113Y-167371391D02*
X67127263Y-167375674D01*
X67194834Y-167607529D02*
X67196831Y-167613624D01*
X67259479Y-141257165D02*
X67259367Y-141257488D01*
X84794894Y-167709919D02*
X84795221Y-167709905D01*
X83806162Y-167755765D02*
X83807239Y-167755709D01*
X79993289Y-168029432D02*
X79997524Y-168029062D01*
X73778800Y-168618929D02*
X73780074Y-168618822D01*
X66209833Y-149800661D02*
X66209800Y-149802670D01*
X66958175Y-166567783D02*
X66959693Y-166576206D01*
X131612017Y-138025287D02*
X131611613Y-138024192D01*
X68865968Y-136746517D02*
X68865960Y-136746559D01*
X66410421Y-144966566D02*
X66410274Y-144968036D01*
X126987103Y-168676531D02*
X126994878Y-168677035D01*
X116207106Y-133207106D02*
X115500000Y-133500000D01*
X67976953Y-168424749D02*
X67982436Y-168426978D01*
X132010604Y-139129088D02*
X132010434Y-139128604D01*
X78086068Y-168209933D02*
X78086327Y-168209908D01*
X133480243Y-163168053D02*
X133480355Y-163166526D01*
X130291712Y-134681555D02*
X130291183Y-134680235D01*
X116516549Y-64391055D02*
X116511220Y-64423328D01*
X66597760Y-143581858D02*
X66597352Y-143584152D01*
X80889750Y-167951932D02*
X80895408Y-167951449D01*
X68709851Y-137162042D02*
X68709843Y-137162061D01*
X132894617Y-141704865D02*
X132894319Y-141703984D01*
X69944293Y-134053068D02*
X69940366Y-134064334D01*
X70321920Y-133500000D02*
X70104865Y-133589907D01*
X130436343Y-135035704D02*
X130436045Y-135034989D01*
X133736002Y-156468180D02*
X133736008Y-156467967D01*
X83807239Y-167755709D02*
X83813169Y-167755404D01*
X131111052Y-168630565D02*
X131311189Y-168601630D01*
X133313169Y-143142182D02*
X133312564Y-143139589D01*
X131132944Y-136743644D02*
X131132947Y-136743552D01*
X72336662Y-168718017D02*
X72338952Y-168717882D01*
X83879912Y-167752084D02*
X84772490Y-167710926D01*
X109257389Y-167491498D02*
X109259280Y-167491552D01*
X133806134Y-152229729D02*
X133806135Y-152229307D01*
X67909995Y-139356681D02*
X67909805Y-139357233D01*
X108250697Y-167463870D02*
X108252419Y-167463916D01*
X133782449Y-149353402D02*
X133782407Y-149351318D01*
X132314391Y-140020556D02*
X132314328Y-140020366D01*
X121928372Y-168211346D02*
X121928637Y-168211372D01*
X133100016Y-166222676D02*
X133100893Y-166217221D01*
X66226704Y-148916140D02*
X66226693Y-148916624D01*
X69547975Y-163230513D02*
X69460769Y-163100000D01*
X66964673Y-142134217D02*
X66962645Y-142140645D01*
X133511269Y-144282459D02*
X133511047Y-144280755D01*
X67063792Y-167110652D02*
X67067196Y-167126064D01*
X131772389Y-138463043D02*
X131772271Y-138462718D01*
X130998973Y-136389508D02*
X130998486Y-136388237D01*
X105155540Y-167396548D02*
X106160631Y-167415419D01*
X133614257Y-145241419D02*
X133614149Y-145240070D01*
X68867016Y-136743749D02*
X68867011Y-136743762D01*
X129329643Y-64202631D02*
X129317126Y-64172411D01*
X68220464Y-168505518D02*
X68226776Y-168507209D01*
X68893098Y-168631147D02*
X68911770Y-168633687D01*
X129391190Y-168750000D02*
X129396191Y-168749974D01*
X128899999Y-163539230D02*
X128769486Y-163452024D01*
X83872913Y-167752413D02*
X83878836Y-167752134D01*
X131852508Y-138684624D02*
X131852373Y-138684248D01*
X69769486Y-163452024D02*
X69651471Y-163348528D01*
X101032056Y-167352033D02*
X101032524Y-167352035D01*
X111305057Y-167556063D02*
X111306716Y-167556120D01*
X117062695Y-167803320D02*
X117071503Y-167803817D01*
X66841039Y-165850284D02*
X66841476Y-165853118D01*
X66273320Y-147340801D02*
X66273306Y-147341198D01*
X81872592Y-167874864D02*
X81873892Y-167874768D01*
X132484314Y-168111511D02*
X132487915Y-168108305D01*
X133582079Y-161432903D02*
X133582120Y-161432051D01*
X132310499Y-168255068D02*
X132331591Y-168238763D01*
X66279277Y-157062869D02*
X66279279Y-157062947D01*
X66329959Y-146052891D02*
X66314991Y-146336513D01*
X115220846Y-167710624D02*
X115221181Y-167710639D01*
X133590522Y-144976136D02*
X133590378Y-144974656D01*
X133319660Y-143170766D02*
X133319084Y-143168168D01*
X80908268Y-167950370D02*
X80909297Y-167950285D01*
X102026553Y-167357620D02*
X102028752Y-167357634D01*
X133157986Y-165856567D02*
X133158427Y-165853738D01*
X128547975Y-163230513D02*
X128460769Y-163100000D01*
X119035676Y-167945775D02*
X119040813Y-167946187D01*
X66260839Y-147708790D02*
X66260829Y-147709089D01*
X132836452Y-167506942D02*
X132837964Y-167501746D01*
X131106901Y-168631147D02*
X131111052Y-168630565D01*
X130060421Y-134066586D02*
X130059633Y-134064334D01*
X128329005Y-168746633D02*
X128332014Y-168746717D01*
X133685485Y-146345977D02*
X133685446Y-146345185D01*
X73773104Y-168619401D02*
X73778800Y-168618929D01*
X66193860Y-152226890D02*
X66193860Y-152227299D01*
X121911984Y-168209744D02*
X121912256Y-168209770D01*
X131709930Y-168523283D02*
X131738481Y-168516230D01*
X103056987Y-167366979D02*
X103059098Y-167367000D01*
X133590378Y-144974656D02*
X133589725Y-144968036D01*
X132493220Y-140549119D02*
X132492132Y-140545970D01*
X133633042Y-145479924D02*
X133632948Y-145478706D01*
X69272679Y-135723488D02*
X69272520Y-135723864D01*
X133158523Y-165853118D02*
X133158960Y-165850284D01*
X133806248Y-151727468D02*
X133806247Y-151727045D01*
X95879396Y-167380260D02*
X95879797Y-167380254D01*
X133566746Y-144742190D02*
X133566579Y-144740621D01*
X67180154Y-141485788D02*
X67179947Y-141486390D01*
X67990516Y-139125907D02*
X67990345Y-139126390D01*
X95882390Y-167380214D02*
X95884393Y-167380184D01*
X120995967Y-168121005D02*
X120996484Y-168121054D01*
X75395431Y-168474832D02*
X75396002Y-168474779D01*
X78997038Y-168121673D02*
X78997551Y-168121624D01*
X133669418Y-146041700D02*
X133669173Y-146037504D01*
X66367680Y-160189424D02*
X66367700Y-160189977D01*
X133720726Y-157062698D02*
X133720728Y-157062624D01*
X133632299Y-160189977D02*
X133632319Y-160189424D01*
X130797578Y-135890808D02*
X130796408Y-135888001D01*
X66842657Y-165860667D02*
X66898913Y-166216013D01*
X69565888Y-135030345D02*
X69565590Y-135031062D01*
X66193763Y-151719886D02*
X66193762Y-151720327D01*
X132894319Y-141703984D02*
X132892971Y-141700011D01*
X114243091Y-167668153D02*
X114243422Y-167668167D01*
X69633597Y-134866365D02*
X69584016Y-134986679D01*
X66899106Y-166217221D02*
X66899983Y-166222676D01*
X67035268Y-141915328D02*
X67033546Y-141920541D01*
X86730272Y-167628463D02*
X87691167Y-167591774D01*
X129343368Y-161310266D02*
X129500000Y-161299999D01*
X66193872Y-152232143D02*
X66195742Y-152736609D01*
X133582337Y-161427361D02*
X133582509Y-161423539D01*
X129189417Y-161340889D02*
X129343368Y-161310266D01*
X125428424Y-168551130D02*
X125429305Y-168551210D01*
X84772490Y-167710926D02*
X84772819Y-167710911D01*
X133632430Y-160186371D02*
X133632518Y-160183896D01*
X125443894Y-168552507D02*
X126219925Y-168618822D01*
X66779556Y-165448683D02*
X66779577Y-165448821D01*
X66962194Y-142142080D02*
X66960188Y-142148504D01*
X133705396Y-157670996D02*
X133705401Y-157670806D01*
X92775496Y-167438558D02*
X92775857Y-167438549D01*
X131290148Y-137162042D02*
X131290132Y-137162000D01*
X132631688Y-167965743D02*
X132655344Y-167935994D01*
X66198635Y-150740359D02*
X66198632Y-150740782D01*
X133039811Y-142148504D02*
X133037805Y-142142080D01*
X66637761Y-143370930D02*
X66637205Y-143373724D01*
X113293818Y-167629412D02*
X113294150Y-167629425D01*
X66367589Y-160186926D02*
X66367680Y-160189424D01*
X133365792Y-143389074D02*
X133365253Y-143386280D01*
X66314307Y-146350304D02*
X66300280Y-146652294D01*
X130212255Y-134478906D02*
X130211626Y-134477275D01*
X132817561Y-141479167D02*
X132741233Y-141259215D01*
X88715517Y-167555360D02*
X88717349Y-167555299D01*
X70581299Y-168749749D02*
X70603808Y-168749974D01*
X69420733Y-135374727D02*
X69420374Y-135375572D01*
X89707554Y-167522741D02*
X89721340Y-167522307D01*
X66717142Y-165038046D02*
X66718239Y-165045429D01*
X67611444Y-140242660D02*
X67611152Y-140243533D01*
X132492132Y-140545970D02*
X132491934Y-140545396D01*
X133634046Y-145493335D02*
X133633957Y-145492111D01*
X128769486Y-161547975D02*
X128899999Y-161460769D01*
X132818709Y-141482487D02*
X132817775Y-141479786D01*
X66365953Y-145493335D02*
X66365562Y-145498810D01*
X132576627Y-140789029D02*
X132576098Y-140787514D01*
X133773367Y-148919205D02*
X133773356Y-148918740D01*
X133806128Y-152231710D02*
X133806134Y-152229729D01*
X66199492Y-153255556D02*
X66199509Y-153257595D01*
X126226895Y-168619401D02*
X126228163Y-168619504D01*
X68226910Y-138464968D02*
X68226340Y-138466542D01*
X69286183Y-168674928D02*
X69289669Y-168675228D01*
X91768585Y-167463368D02*
X91768941Y-167463359D01*
X112284630Y-167590879D02*
X112286309Y-167590940D01*
X128449047Y-63571605D02*
X128408177Y-63570267D01*
X93834719Y-167415509D02*
X93836562Y-167415473D01*
X131692954Y-138245353D02*
X131692456Y-138243990D01*
X66461544Y-144495105D02*
X66461342Y-144496753D01*
X131062666Y-136556433D02*
X131062424Y-136555790D01*
X66687435Y-143139589D02*
X66686830Y-143142182D01*
X67808222Y-168337187D02*
X67854589Y-168364320D01*
X133479615Y-163176450D02*
X133479731Y-163174924D01*
X133582547Y-161422674D02*
X133608622Y-160818679D01*
X69460769Y-163100000D02*
X69391344Y-162959220D01*
X117082706Y-167804466D02*
X117091511Y-167804991D01*
X66432347Y-144750857D02*
X66410421Y-144966566D01*
X67988625Y-139131280D02*
X67988455Y-139131764D01*
X66300090Y-146656519D02*
X66299962Y-146659442D01*
X133713723Y-146991406D02*
X133713704Y-146990909D01*
X102055558Y-167357834D02*
X102055995Y-167357838D01*
X67422707Y-140790931D02*
X67422174Y-140792455D01*
X132739432Y-141254046D02*
X132739326Y-141253745D01*
X133787024Y-154314448D02*
X133787062Y-154312288D01*
X115227509Y-167710926D02*
X116120087Y-167752084D01*
X69640168Y-168703980D02*
X69643048Y-168704191D01*
X67260673Y-141253745D02*
X67260567Y-141254046D01*
X68867011Y-136743762D02*
X68866887Y-136744091D01*
X131062424Y-136555790D02*
X131061310Y-136552834D01*
X130726591Y-135721761D02*
X130726441Y-135721405D01*
X66203409Y-150270659D02*
X66198658Y-150737966D01*
X66203414Y-150270210D02*
X66203409Y-150270659D01*
X66899983Y-166222676D02*
X66900179Y-166223880D01*
X128547975Y-161769486D02*
X128651471Y-161651471D01*
X68866192Y-136745942D02*
X68866085Y-136746226D01*
X89725898Y-167522165D02*
X89727722Y-167522109D01*
X133672254Y-158920486D02*
X133672294Y-158919083D01*
X133735970Y-156469383D02*
X133735975Y-156469193D01*
X74565831Y-168551651D02*
X74566720Y-168551571D01*
X131814180Y-168495948D02*
X131833606Y-168490333D01*
X130166580Y-134358783D02*
X130165968Y-134357146D01*
X114263165Y-167668994D02*
X114263496Y-167669008D01*
X131311189Y-168601630D02*
X131316082Y-168600898D01*
X130729499Y-168673528D02*
X130732984Y-168673204D01*
X68630229Y-168592271D02*
X68635104Y-168593100D01*
X132991922Y-166839029D02*
X132992411Y-166836412D01*
X79941716Y-168034049D02*
X79945564Y-168033698D01*
X133801364Y-150740359D02*
X133801345Y-150738396D01*
X74561857Y-168552005D02*
X74565831Y-168551651D01*
X133726616Y-147339026D02*
X133726602Y-147338642D01*
X81935779Y-167870268D02*
X81937082Y-167870176D01*
X66279361Y-157066176D02*
X66279363Y-157066256D01*
X67834705Y-139575706D02*
X67834503Y-139576300D01*
X133160401Y-142548960D02*
X133159844Y-142547020D01*
X68629933Y-137375141D02*
X68550668Y-137587134D01*
X89723544Y-167522238D02*
X89723876Y-167522227D01*
X94846974Y-167396501D02*
X94847362Y-167396494D01*
X66391347Y-160817962D02*
X66391377Y-160818679D01*
X133613541Y-145232626D02*
X133613028Y-145226543D01*
X70526309Y-168748423D02*
X70548810Y-168749099D01*
X66366447Y-145486628D02*
X66366042Y-145492111D01*
X133343558Y-164596176D02*
X133388749Y-164202230D01*
X130866094Y-136056523D02*
X130865745Y-136055667D01*
X106163437Y-167415473D02*
X106165280Y-167415509D01*
X133436104Y-163712404D02*
X133436279Y-163710535D01*
X133726679Y-147340801D02*
X133726616Y-147339026D01*
X117160297Y-167809200D02*
X117169101Y-167809752D01*
X66448376Y-162040727D02*
X66448435Y-162041765D01*
X71667985Y-168746717D02*
X71670994Y-168746633D01*
X107221826Y-167438493D02*
X107222186Y-167438501D01*
X68308146Y-138242346D02*
X68307651Y-138243697D01*
X69834031Y-134357146D02*
X69833419Y-134358783D01*
X67233170Y-167716769D02*
X67244177Y-167744634D01*
X130174269Y-134379243D02*
X130173652Y-134377609D01*
X81943599Y-167869718D02*
X81944904Y-167869627D01*
X69345275Y-135552214D02*
X69345213Y-135552362D01*
X131133914Y-136746226D02*
X131133807Y-136745942D01*
X133612912Y-145225189D02*
X133612383Y-145219106D01*
X66193857Y-152224494D02*
X66193858Y-152224923D01*
X95887403Y-167380141D02*
X95903854Y-167379909D01*
X92804278Y-167437890D02*
X92804641Y-167437882D01*
X117385758Y-63576951D02*
X117353328Y-63581220D01*
X132577920Y-140792726D02*
X132577825Y-140792455D01*
X66686830Y-143142182D02*
X66684136Y-143153873D01*
X106186106Y-167415931D02*
X106187980Y-167415970D01*
X131449331Y-137587134D02*
X131370066Y-137375141D01*
X68549923Y-137589129D02*
X68549641Y-137589884D01*
X110278659Y-167522307D02*
X110292445Y-167522741D01*
X87697761Y-167591527D02*
X87711229Y-167591030D01*
X133765514Y-155370027D02*
X133765526Y-155369527D01*
X133804255Y-152737035D02*
X133804257Y-152736609D01*
X93814263Y-167415923D02*
X93816288Y-167415881D01*
X67008077Y-166839029D02*
X67010309Y-166850803D01*
X80901579Y-167950928D02*
X80902608Y-167950841D01*
X133220531Y-165448104D02*
X133220547Y-165448004D01*
X130654489Y-135551662D02*
X130654426Y-135551512D01*
X133438993Y-163679687D02*
X133478960Y-163184851D01*
X126977614Y-168675886D02*
X126985382Y-168676417D01*
X76263265Y-168390590D02*
X76264438Y-168390475D01*
X112282503Y-167590803D02*
X112284295Y-167590867D01*
X69899999Y-163539230D02*
X69769486Y-163452024D01*
X104112596Y-167380141D02*
X104113001Y-167380146D01*
X132088142Y-139351296D02*
X132087954Y-139350754D01*
X98973680Y-167352008D02*
X98992665Y-167351936D01*
X66602389Y-143556582D02*
X66601959Y-143558876D01*
X73014617Y-168676417D02*
X73022385Y-168675886D01*
X130416279Y-134987397D02*
X130415983Y-134986679D01*
X133592043Y-144992329D02*
X133591909Y-144990866D01*
X129388779Y-64423328D02*
X129383450Y-64391055D01*
X66677769Y-143182487D02*
X66677206Y-143185092D01*
X132571374Y-140773972D02*
X132570877Y-140772544D01*
X68941419Y-136545635D02*
X68940293Y-136548596D01*
X66294629Y-157671988D02*
X66310535Y-158289549D01*
X66248433Y-148101202D02*
X66237071Y-148497246D01*
X66900102Y-142343069D02*
X66897814Y-142350664D01*
X133765320Y-155377971D02*
X133765379Y-155375686D01*
X133700065Y-146660086D02*
X133700037Y-146659442D01*
X132017563Y-168426978D02*
X132023046Y-168424749D01*
X89727722Y-167522109D02*
X89728060Y-167522099D01*
X66962645Y-142140645D02*
X66962194Y-142142080D01*
X85750306Y-167668427D02*
X85750634Y-167668413D01*
X67035652Y-141914172D02*
X67035268Y-141915328D01*
X66286276Y-146991406D02*
X66286187Y-146993739D01*
X131290276Y-137162383D02*
X131290276Y-137162383D01*
X67516163Y-140521916D02*
X67508065Y-140545396D01*
X66279370Y-157066517D02*
X66279342Y-157066517D01*
X70009498Y-133861369D02*
X70008653Y-133863923D01*
X79997524Y-168029062D02*
X79998295Y-168028995D01*
X67587844Y-140312477D02*
X67587547Y-140313347D01*
X133591295Y-144984235D02*
X133591156Y-144982757D01*
X69070540Y-136212993D02*
X69070111Y-136214063D01*
X133105452Y-142361646D02*
X133104952Y-142359953D01*
X133804230Y-152741931D02*
X133804233Y-152741479D01*
X66520918Y-163183318D02*
X66521039Y-163184851D01*
X109259624Y-167491562D02*
X109273675Y-167491967D01*
X130578465Y-135372838D02*
X130512473Y-135217089D01*
X66520268Y-163174924D02*
X66520384Y-163176450D01*
X66347318Y-145764052D02*
X66347016Y-145768884D01*
X91766341Y-167463425D02*
X91766688Y-167463416D01*
X69787744Y-134478906D02*
X69784276Y-134487874D01*
X116522930Y-64358973D02*
X116516549Y-64391055D01*
X113296272Y-167629511D02*
X114243091Y-167668153D01*
X82819704Y-167810473D02*
X82821304Y-167810369D01*
X66279352Y-157065791D02*
X66279361Y-157066176D01*
X133042157Y-166565915D02*
X133043643Y-166557483D01*
X133806236Y-151719886D02*
X133804649Y-151231547D01*
X132577292Y-140790931D02*
X132577196Y-140790657D01*
X67685608Y-140020556D02*
X67685267Y-140021580D01*
X69274288Y-135719678D02*
X69273558Y-135721405D01*
X133552493Y-162024679D02*
X133552546Y-162023639D01*
X66226643Y-148918740D02*
X66226632Y-148919205D01*
X68915921Y-168634234D02*
X68934603Y-168636616D01*
X69651471Y-161651471D02*
X69769486Y-161547975D01*
X69416588Y-135384489D02*
X69345573Y-135551512D01*
X69134254Y-136055667D02*
X69133905Y-136056523D01*
X133159844Y-142547020D02*
X133157327Y-142538317D01*
X69065851Y-136224758D02*
X69065429Y-136225826D01*
X133806237Y-151720327D02*
X133806236Y-151719886D01*
X132052439Y-168411905D02*
X132052855Y-168411712D01*
X97970806Y-167357637D02*
X97971247Y-167357634D01*
X130700000Y-162500000D02*
X130689733Y-162656631D01*
X133720649Y-157065738D02*
X133720712Y-157063262D01*
X67680924Y-140034617D02*
X67680858Y-140034816D01*
X66248504Y-148098814D02*
X66248493Y-148099152D01*
X129040779Y-163608655D02*
X128899999Y-163539230D01*
X66273245Y-147342962D02*
X66273231Y-147343359D01*
X116610841Y-64113279D02*
X116596373Y-64142616D01*
X66435147Y-144724875D02*
X66434358Y-144731964D01*
X67301666Y-167867580D02*
X67319436Y-167898366D01*
X92797432Y-167438044D02*
X92797792Y-167438036D01*
X131691249Y-138240698D02*
X131691134Y-138240387D01*
X69750637Y-134574417D02*
X69750120Y-134575742D01*
X66205229Y-153783914D02*
X66205235Y-153784365D01*
X132658334Y-141022342D02*
X132658299Y-141022240D01*
X130363698Y-134859784D02*
X130363282Y-134858770D01*
X130497979Y-135182704D02*
X130440080Y-135044642D01*
X67390749Y-167991858D02*
X67409922Y-168012927D01*
X133763090Y-148503200D02*
X133763077Y-148502713D01*
X66212983Y-154314926D02*
X66222592Y-154837187D01*
X130054923Y-134050813D02*
X130050632Y-134038410D01*
X133801384Y-150742754D02*
X133801367Y-150740782D01*
X129423703Y-168749674D02*
X129446188Y-168749224D01*
X69135827Y-136051824D02*
X69134254Y-136055667D01*
X130256355Y-134592295D02*
X130255836Y-134590973D01*
X74557000Y-168552430D02*
X74560967Y-168552083D01*
X116659889Y-64028326D02*
X116642615Y-64056103D01*
X133796585Y-150270210D02*
X133796564Y-150268263D01*
X129940163Y-133705260D02*
X129936504Y-133693742D01*
X69991497Y-133915367D02*
X69987678Y-133926670D01*
X66193756Y-151722694D02*
X66193753Y-151724654D01*
X69583720Y-134987397D02*
X69582091Y-134991340D01*
X66347699Y-145758127D02*
X66347387Y-145762965D01*
X133777355Y-154839905D02*
X133777398Y-154837664D01*
X69708287Y-134681555D02*
X69667077Y-134784100D01*
X108248375Y-167463809D02*
X108250342Y-167463861D01*
X83793791Y-167756423D02*
X83799710Y-167756105D01*
X67591263Y-140302443D02*
X67589773Y-140306823D01*
X132737568Y-167788918D02*
X132740431Y-167782115D01*
X67071479Y-167144884D02*
X67072273Y-167148305D01*
X131211280Y-136952100D02*
X131134101Y-136746725D01*
X66462680Y-144486009D02*
X66462471Y-144487668D01*
X66634746Y-143386280D02*
X66634207Y-143389074D01*
X130366402Y-134866365D02*
X130365985Y-134865350D01*
X108229272Y-167463313D02*
X108231058Y-167463359D01*
X67758507Y-139801082D02*
X67686080Y-140019135D01*
X66198658Y-150737966D02*
X66198654Y-150738396D01*
X66779691Y-165449563D02*
X66840941Y-165849648D01*
X133282857Y-165038046D02*
X133283098Y-165036407D01*
X68630443Y-137373780D02*
X68630189Y-137374459D01*
X66959693Y-166576206D02*
X66960033Y-166578075D01*
X130338057Y-134796820D02*
X130335995Y-134791721D01*
X133796559Y-150267812D02*
X133796535Y-150265828D01*
X132303097Y-168260636D02*
X132307305Y-168257507D01*
X128391818Y-63570000D02*
X117508181Y-63570000D01*
X71704059Y-168745495D02*
X72298870Y-168719970D01*
X111284482Y-167555360D02*
X111284814Y-167555371D01*
X68470105Y-137803506D02*
X68469769Y-137804409D01*
X132163269Y-139569780D02*
X132163069Y-139569197D01*
X92802296Y-167437934D02*
X92804278Y-167437890D01*
X131290132Y-137162000D02*
X131289991Y-137161622D01*
X68630179Y-137374486D02*
X68629984Y-137375005D01*
X102050071Y-167357790D02*
X102050513Y-167357793D01*
X130582187Y-135381608D02*
X130579685Y-135375714D01*
X131450419Y-137590049D02*
X131450358Y-137589884D01*
X131773782Y-138466881D02*
X131773659Y-138466542D01*
X130131816Y-134265296D02*
X130131103Y-134263353D01*
X68388498Y-138023888D02*
X68388386Y-138024192D01*
X131134040Y-136746514D02*
X131134024Y-136746520D01*
X67059750Y-167091780D02*
X67063047Y-167107223D01*
X132846095Y-167473117D02*
X132872736Y-167375674D01*
X109278317Y-167492103D02*
X109280172Y-167492159D01*
X99981037Y-167350030D02*
X99983691Y-167350026D01*
X133437626Y-143788796D02*
X133404862Y-143596808D01*
X132927726Y-167148305D02*
X132928520Y-167144884D01*
X75399037Y-168474491D02*
X75401532Y-168474251D01*
X78067998Y-168211703D02*
X78068257Y-168211678D01*
X109276246Y-167492042D02*
X109277979Y-167492093D01*
X128797588Y-63652873D02*
X128767368Y-63640356D01*
X95884793Y-167380178D02*
X95886998Y-167380146D01*
X130728369Y-135725979D02*
X130728209Y-135725599D01*
X66209762Y-149805127D02*
X66209755Y-149805570D01*
X128332014Y-168746717D02*
X128345545Y-168747053D01*
X132222855Y-168317646D02*
X132234897Y-168309576D01*
X68940052Y-136549231D02*
X68938931Y-136552193D01*
X130794971Y-135884564D02*
X130794707Y-135883933D01*
X106165657Y-167415516D02*
X106167698Y-167415557D01*
X131840552Y-168488270D02*
X131871737Y-168478764D01*
X128460769Y-163100000D02*
X128391344Y-162959220D01*
X70810582Y-163659110D02*
X70656631Y-163689733D01*
X67341726Y-141022168D02*
X67341700Y-141022240D01*
X132314328Y-140020366D02*
X132313985Y-140019336D01*
X93831929Y-167415564D02*
X93832301Y-167415557D01*
X133751178Y-155912468D02*
X133751182Y-155912305D01*
X133281513Y-165047067D02*
X133281760Y-165045429D01*
X101026785Y-167352009D02*
X101029316Y-167352020D01*
X66366539Y-145485404D02*
X66366447Y-145486628D01*
X112286309Y-167590940D02*
X112286635Y-167590952D01*
X67833399Y-139579553D02*
X67762296Y-139789778D01*
X113290043Y-167629261D02*
X113291834Y-167629332D01*
X132088980Y-139353714D02*
X132088142Y-139351296D01*
X69563656Y-135035704D02*
X69562161Y-135039284D01*
X104093566Y-167379874D02*
X104095747Y-167379903D01*
X133322793Y-143185092D02*
X133322230Y-143182487D01*
X66519756Y-163168053D02*
X66520268Y-163174924D01*
X118062917Y-167870176D02*
X118064220Y-167870268D01*
X132314794Y-140021768D02*
X132314732Y-140021580D01*
X100998561Y-167351911D02*
X101001107Y-167351917D01*
X69666668Y-134785117D02*
X69664415Y-134790704D01*
X133582298Y-161428222D02*
X133582337Y-161427361D01*
X102052910Y-167357812D02*
X102053348Y-167357816D01*
X71230513Y-161547975D02*
X71348528Y-161651471D01*
X80965355Y-167945693D02*
X80971022Y-167945244D01*
X121930421Y-168211548D02*
X121931742Y-168211678D01*
X126242096Y-168620603D02*
X126966401Y-168675082D01*
X66684136Y-143153873D02*
X66683546Y-143156467D01*
X66248493Y-148099152D02*
X66248444Y-148100835D01*
X133567489Y-144749279D02*
X133566746Y-144742190D01*
X130291183Y-134680235D02*
X130288273Y-134672965D01*
X66264029Y-156469383D02*
X66264059Y-156470512D01*
X69487526Y-135217089D02*
X69421534Y-135372838D01*
X130582248Y-135381753D02*
X130582187Y-135381608D01*
X69391344Y-162959220D02*
X69340889Y-162810582D01*
X108252419Y-167463916D02*
X108252762Y-167463925D01*
X67833599Y-139578962D02*
X67833399Y-139579553D01*
X131369556Y-137373780D02*
X131369556Y-137373780D01*
X79000157Y-168121374D02*
X79000680Y-168121324D01*
X132940249Y-167091780D02*
X132940971Y-167088342D01*
X66898913Y-166216013D02*
X66899106Y-166217221D01*
X69001513Y-136388237D02*
X69001026Y-136389508D01*
X67681670Y-140032382D02*
X67681355Y-140033326D01*
X128391344Y-162959220D02*
X128340889Y-162810582D01*
X131084078Y-168634234D02*
X131088229Y-168633687D01*
X68470186Y-137803287D02*
X68470105Y-137803506D01*
X68867141Y-136743390D02*
X68867149Y-136743393D01*
X114247256Y-167668325D02*
X114247589Y-167668339D01*
X69656021Y-168705108D02*
X69658908Y-168705303D01*
X105131620Y-167396130D02*
X105132000Y-167396136D01*
X132495696Y-140556264D02*
X132494608Y-140553127D01*
X131058336Y-136544994D02*
X130998973Y-136389508D01*
X66839598Y-142548960D02*
X66837117Y-142557668D01*
X69714883Y-134665048D02*
X69712253Y-134671644D01*
X133285683Y-165018364D02*
X133337123Y-164647010D01*
X132406814Y-140296775D02*
X132406518Y-140295902D01*
X133735713Y-156479066D02*
X133735934Y-156470724D01*
X67591559Y-140301570D02*
X67591263Y-140302443D01*
X69711726Y-134672965D02*
X69708816Y-134680235D01*
X107217345Y-167438387D02*
X107217704Y-167438395D01*
X84774664Y-167710827D02*
X84775001Y-167710811D01*
X133773427Y-148921816D02*
X133773417Y-148921362D01*
X79003515Y-168121054D02*
X79004032Y-168121005D01*
X67264154Y-167792929D02*
X67270548Y-167807193D01*
X130865745Y-136055667D02*
X130864172Y-136051824D01*
X133800507Y-153255556D02*
X133800510Y-153255121D01*
X69784276Y-134487874D02*
X69783643Y-134489505D01*
X128298948Y-168745615D02*
X128312473Y-168746114D01*
X67589476Y-140307695D02*
X67587844Y-140312477D01*
X67593185Y-140296775D02*
X67591559Y-140301570D01*
X131391693Y-168588434D02*
X131396561Y-168587558D01*
X130659110Y-162189417D02*
X130689733Y-162343368D01*
X67260567Y-141254046D02*
X67260082Y-141255436D01*
X133478391Y-144049475D02*
X133477258Y-144041689D01*
X110274438Y-167522175D02*
X110276123Y-167522227D01*
X133609086Y-160807227D02*
X133609112Y-160806530D01*
X130993584Y-136375555D02*
X130993087Y-136374278D01*
X125438142Y-168552005D02*
X125439032Y-168552083D01*
X133222462Y-142774355D02*
X133219899Y-142764565D01*
X71506056Y-168749800D02*
X71516644Y-168749651D01*
X66557439Y-143818976D02*
X66525872Y-144020944D01*
X131854068Y-138688967D02*
X131853930Y-138688581D01*
X133517830Y-162619101D02*
X133517911Y-162617850D01*
X69868896Y-134263353D02*
X69868183Y-134265296D01*
X130064771Y-134078969D02*
X130060421Y-134066586D01*
X80896435Y-167951362D02*
X80901579Y-167950928D01*
X71477831Y-168750000D02*
X71480181Y-168749994D01*
X131369810Y-137374459D02*
X131369556Y-137373780D01*
X130059633Y-134064334D02*
X130055706Y-134053068D01*
X104088147Y-167379803D02*
X104088550Y-167379808D01*
X131134039Y-136746559D02*
X131134040Y-136746514D01*
X132319141Y-140034816D02*
X132319075Y-140034617D01*
X66492759Y-144252611D02*
X66492519Y-144254322D01*
X133400374Y-143571511D02*
X133399954Y-143569213D01*
X133782505Y-149356358D02*
X133782497Y-149355901D01*
X109253127Y-167491379D02*
X109254988Y-167491431D01*
X132011374Y-139131280D02*
X132010604Y-139129088D01*
X133720737Y-157062256D02*
X133720739Y-157062204D01*
X129896963Y-168731427D02*
X129907592Y-168730900D01*
X130500393Y-135188450D02*
X130500214Y-135188023D01*
X79025316Y-168118987D02*
X79025837Y-168118938D01*
X66967174Y-142126369D02*
X66965126Y-142132791D01*
X133284170Y-165029030D02*
X133284406Y-165027386D01*
X99986575Y-167350023D02*
X99987054Y-167350023D01*
X131342958Y-168596715D02*
X131364895Y-168593100D01*
X129810582Y-163659110D02*
X129656631Y-163689733D01*
X132986376Y-166867786D02*
X132986893Y-166865173D01*
X103079427Y-167367218D02*
X103079843Y-167367223D01*
X106160631Y-167415419D02*
X106161003Y-167415426D01*
X133685230Y-146340835D02*
X133685050Y-146337313D01*
X66391062Y-160811031D02*
X66391188Y-160814158D01*
X66314769Y-146340835D02*
X66314728Y-146341643D01*
X66448435Y-162041765D02*
X66481233Y-162604034D01*
X130361198Y-134853681D02*
X130360782Y-134852665D01*
X69421050Y-135373978D02*
X69420796Y-135374578D01*
X131450076Y-137589129D02*
X131450026Y-137588993D01*
X129920591Y-168730200D02*
X129922958Y-168730066D01*
X131934939Y-168458198D02*
X131949109Y-168453187D01*
X123734171Y-168390337D02*
X123735305Y-168390449D01*
X66195769Y-152741931D02*
X66195782Y-152743929D01*
X116185754Y-167755349D02*
X116186830Y-167755404D01*
X132164183Y-139572449D02*
X132163269Y-139569780D01*
X85750634Y-167668413D02*
X85752410Y-167668339D01*
X130348528Y-163348528D02*
X130230513Y-163452024D01*
X69006415Y-136375555D02*
X69004203Y-136381254D01*
X91770727Y-167463313D02*
X91771074Y-167463305D01*
X132964347Y-141914172D02*
X132897884Y-141714592D01*
X93809232Y-167416030D02*
X93809605Y-167416022D01*
X130088015Y-134144573D02*
X130084193Y-134133847D01*
X130017319Y-133941355D02*
X130013088Y-133928930D01*
X130434111Y-135030345D02*
X130421908Y-135000992D01*
X132482555Y-140518195D02*
X132482358Y-140517624D01*
X66198654Y-150738396D02*
X66198635Y-150740359D01*
X133800490Y-153257595D02*
X133800507Y-153255556D01*
X67668408Y-168238763D02*
X67689500Y-168255068D01*
X105155150Y-167396540D02*
X105155540Y-167396548D01*
X111288625Y-167555500D02*
X111288957Y-167555511D01*
X133040306Y-166576206D02*
X133041824Y-166567783D01*
X67589773Y-140306823D02*
X67589476Y-140307695D01*
X131369556Y-137373780D02*
X131369307Y-137373115D01*
X66279260Y-157062204D02*
X66279262Y-157062256D01*
X133689432Y-158290771D02*
X133689437Y-158290587D01*
X97949928Y-167357790D02*
X97967945Y-167357657D01*
X110292787Y-167522752D02*
X110294614Y-167522810D01*
X66260778Y-147710642D02*
X66260737Y-147711928D01*
X69488697Y-135214320D02*
X69487705Y-135216664D01*
X89707212Y-167522752D02*
X89707554Y-167522741D01*
X66217550Y-149353402D02*
X66217541Y-149353850D01*
X133736039Y-156466847D02*
X133736044Y-156466647D01*
X132468029Y-168125868D02*
X132484314Y-168111511D01*
X97968385Y-167357654D02*
X97970806Y-167357637D01*
X87695607Y-167591607D02*
X87697432Y-167591539D01*
X76264438Y-168390475D02*
X76264694Y-168390449D01*
X67281557Y-167829688D02*
X67301666Y-167867580D01*
X133034873Y-142132791D02*
X133032825Y-142126369D01*
X67059028Y-167088342D02*
X67059750Y-167091780D01*
X66260737Y-147711928D02*
X66260728Y-147712202D01*
X66367569Y-160186371D02*
X66367589Y-160186926D01*
X133726537Y-147336848D02*
X133726522Y-147336437D01*
X69987678Y-133926670D02*
X69986911Y-133928930D01*
X69203591Y-135888001D02*
X69202421Y-135890808D01*
X120048666Y-168033177D02*
X120049435Y-168033246D01*
X87711557Y-167591018D02*
X87713364Y-167590952D01*
X66391377Y-160818679D02*
X66417452Y-161422674D01*
X132880087Y-167347816D02*
X132885002Y-167328502D01*
X92782654Y-167438387D02*
X92797432Y-167438044D01*
X133787113Y-154309182D02*
X133787147Y-154307047D01*
X94844459Y-167396548D02*
X94844849Y-167396540D01*
X69651471Y-163348528D02*
X69547975Y-163230513D01*
X130365985Y-134865350D02*
X130363698Y-134859784D01*
X68469769Y-137804409D02*
X68469684Y-137804637D01*
X71539230Y-161899999D02*
X71608655Y-162040779D01*
X68147626Y-138684248D02*
X68147491Y-138684624D01*
X67102115Y-141714592D02*
X67035652Y-141914172D01*
X73766134Y-168619962D02*
X73771836Y-168619504D01*
X130500214Y-135188023D02*
X130499326Y-135185912D01*
X66234607Y-155375153D02*
X66234620Y-155375686D01*
X66386347Y-145233974D02*
X66385850Y-145240070D01*
X129396191Y-168749974D02*
X129418700Y-168749749D01*
X66407956Y-144992329D02*
X66387735Y-145217752D01*
X69796201Y-134456863D02*
X69795577Y-134458496D01*
X132936207Y-167110652D02*
X132936952Y-167107223D01*
X66728580Y-142965612D02*
X66727995Y-142968013D01*
X132406518Y-140295902D02*
X132394420Y-140260115D01*
X133391736Y-164174479D02*
X133392783Y-164164071D01*
X111282650Y-167555299D02*
X111284482Y-167555360D01*
X67982436Y-168426978D02*
X67989672Y-168429853D01*
X133689464Y-158289549D02*
X133705370Y-157671988D01*
X132780296Y-167680277D02*
X132782448Y-167674236D01*
X120063285Y-168034509D02*
X120064056Y-168034580D01*
X132590077Y-168012927D02*
X132609250Y-167991858D01*
X133312564Y-143139589D02*
X133275178Y-142981197D01*
X67989672Y-168429853D02*
X68022253Y-168442509D01*
X116717027Y-63948588D02*
X116697114Y-63974540D01*
X133720638Y-157066176D02*
X133720647Y-157065791D01*
X132491934Y-140545396D02*
X132483836Y-140521916D01*
X69658908Y-168705303D02*
X69671894Y-168706145D01*
X66418105Y-161436742D02*
X66418146Y-161437582D01*
X130608655Y-162959220D02*
X130539230Y-163100000D01*
X118142389Y-167875985D02*
X118143692Y-167876084D01*
X90742610Y-167491498D02*
X90742949Y-167491489D01*
X131059706Y-136548596D02*
X131058580Y-136545635D01*
X115223008Y-167710721D02*
X115223334Y-167710736D01*
X79032327Y-168118328D02*
X79035175Y-168118063D01*
X100015832Y-167350026D02*
X100016308Y-167350026D01*
X96938176Y-167367028D02*
X96940477Y-167367004D01*
X133670040Y-146052891D02*
X133669989Y-146051957D01*
X128899999Y-161460769D02*
X129040779Y-161391344D01*
X73005121Y-168677035D02*
X73012896Y-168676531D01*
X133801367Y-150740782D02*
X133801364Y-150740359D01*
X88713489Y-167555428D02*
X88715185Y-167555371D01*
X132010327Y-168429853D02*
X132017563Y-168426978D01*
X67835816Y-139572449D02*
X67835615Y-139573038D01*
X96937759Y-167367032D02*
X96938176Y-167367028D01*
X130583353Y-135384352D02*
X130582999Y-135383520D01*
X130340736Y-134803425D02*
X130338467Y-134797833D01*
X130255836Y-134590973D02*
X130253243Y-134584357D01*
X68710134Y-137161287D02*
X68710008Y-137161622D01*
X100009845Y-167350022D02*
X100010325Y-167350022D01*
X67162035Y-167501746D02*
X67163547Y-167506942D01*
X133790199Y-149802670D02*
X133790166Y-149800661D01*
X67429828Y-140770516D02*
X67429735Y-140770785D01*
X79945564Y-168033698D02*
X79946337Y-168033628D01*
X132237703Y-139789778D02*
X132166600Y-139579553D01*
X69859931Y-134287647D02*
X69859210Y-134289588D01*
X128310266Y-162656631D02*
X128299999Y-162500000D01*
X67516360Y-140521344D02*
X67516163Y-140521916D01*
X130178294Y-134389866D02*
X130177673Y-134388232D01*
X130509069Y-135209034D02*
X130508889Y-135208607D01*
X91744959Y-167463987D02*
X91745314Y-167463977D01*
X100998101Y-167351910D02*
X100998561Y-167351911D01*
X101029773Y-167352022D02*
X101032056Y-167352033D01*
X90725980Y-167491977D02*
X90726324Y-167491967D01*
X68788664Y-136952244D02*
X68788649Y-136952284D01*
X78082895Y-168210242D02*
X78084369Y-168210098D01*
X71687526Y-168746114D02*
X71701051Y-168745615D01*
X70656631Y-163689733D02*
X70500000Y-163700000D01*
X94847362Y-167396494D02*
X94849300Y-167396459D01*
X71516644Y-168749651D02*
X71518993Y-168749612D01*
X117190691Y-167811161D02*
X118046614Y-167869044D01*
X133540634Y-144513291D02*
X133539757Y-144505850D01*
X132609250Y-167991858D02*
X132631688Y-167965743D01*
X129922958Y-168730066D02*
X130325222Y-168706324D01*
X66327793Y-158922125D02*
X66327802Y-158922456D01*
X133672340Y-158917424D02*
X133672350Y-158917084D01*
X132794013Y-167640978D02*
X132803168Y-167613624D01*
X79951333Y-168033177D02*
X79982901Y-168030350D01*
X70025351Y-133812800D02*
X70024527Y-133815359D01*
X67015980Y-166879533D02*
X67016511Y-166882145D01*
X70603808Y-168749974D02*
X70608809Y-168750000D01*
X89703328Y-167522877D02*
X89705052Y-167522821D01*
X66640861Y-143355604D02*
X66640291Y-143358391D01*
X90742949Y-167491489D02*
X90744667Y-167491441D01*
X98993125Y-167351934D02*
X98995634Y-167351926D01*
X126968125Y-168675209D02*
X126975889Y-168675766D01*
X95911852Y-167379803D02*
X96912210Y-167367315D01*
X110278321Y-167522296D02*
X110278659Y-167522307D01*
X133100893Y-166217221D02*
X133101086Y-166216013D01*
X69487705Y-135216664D02*
X69487526Y-135217089D01*
X133773484Y-148924456D02*
X133773474Y-148923971D01*
X133689377Y-158292821D02*
X133689380Y-158292710D01*
X67682137Y-140030981D02*
X67682074Y-140031167D01*
X67105382Y-141704865D02*
X67104040Y-141708847D01*
X133043643Y-166557483D02*
X133043968Y-166555613D01*
X66199531Y-153260095D02*
X66199535Y-153260534D01*
X68934603Y-168636616D02*
X68938758Y-168637129D01*
X66248628Y-148094758D02*
X66248616Y-148095125D01*
X133268167Y-142952447D02*
X133265459Y-142941688D01*
X132067331Y-168404720D02*
X132117567Y-168379450D01*
X130501382Y-135190798D02*
X130500393Y-135188450D01*
X84776991Y-167710721D02*
X84778818Y-167710639D01*
X66902173Y-166235999D02*
X66902377Y-166237214D01*
X133713832Y-146994264D02*
X133713812Y-146993739D01*
X75402080Y-168474198D02*
X76261604Y-168390752D01*
X66901070Y-166229336D02*
X66901270Y-166230551D01*
X70103036Y-168731427D02*
X70105399Y-168731538D01*
X71230513Y-163452024D02*
X71100000Y-163539230D01*
X133800468Y-153260095D02*
X133800486Y-153258053D01*
X66273397Y-147338642D02*
X66273383Y-147339026D01*
X129975472Y-133815359D02*
X129974648Y-133812800D01*
X93811648Y-167415978D02*
X93812019Y-167415970D01*
X133264851Y-142939295D02*
X133223027Y-142776532D01*
X69417812Y-135381608D02*
X69417751Y-135381753D01*
X66842013Y-165856567D02*
X66842114Y-165857213D01*
X133391498Y-164176799D02*
X133391736Y-164174479D01*
X132676541Y-167904794D02*
X132680563Y-167898366D01*
X132318264Y-140032187D02*
X132317925Y-140031167D01*
X111284814Y-167555371D02*
X111286510Y-167555428D01*
X86728151Y-167628544D02*
X86729946Y-167628475D01*
X133478641Y-144051213D02*
X133478391Y-144049475D01*
X121913672Y-168209908D02*
X121913931Y-168209933D01*
X133804628Y-151226827D02*
X133804626Y-151226384D01*
X128496296Y-168749828D02*
X128506880Y-168749928D01*
X129341165Y-64233245D02*
X129329643Y-64202631D01*
X68255184Y-168514622D02*
X68261518Y-168516230D01*
X132410226Y-140306823D02*
X132408736Y-140302443D01*
X94867999Y-167396136D02*
X94868379Y-167396130D01*
X132493418Y-140549691D02*
X132493220Y-140549119D01*
X132089170Y-139354266D02*
X132088980Y-139353714D01*
X122841890Y-168301846D02*
X123733872Y-168390308D01*
X131852373Y-138684248D02*
X131851737Y-138682485D01*
X133398040Y-143558876D02*
X133397610Y-143556582D01*
X132577196Y-140790657D02*
X132576725Y-140789307D01*
X66786514Y-142740681D02*
X66783863Y-142750447D01*
X66209840Y-149800235D02*
X66209833Y-149800661D01*
X105150699Y-167396459D02*
X105152637Y-167396494D01*
X117418311Y-63573745D02*
X117385758Y-63576951D01*
X132412155Y-140312477D02*
X132410523Y-140307695D01*
X67170467Y-167530258D02*
X67172035Y-167535436D01*
X127661047Y-168717882D02*
X127663337Y-168718017D01*
X133341637Y-164612169D02*
X133343216Y-164599083D01*
X133475843Y-144032177D02*
X133475583Y-144030454D01*
X116538824Y-64295521D02*
X116530358Y-64327117D01*
X69273558Y-135721405D02*
X69273408Y-135721761D01*
X133806142Y-152224494D02*
X133806248Y-151727468D01*
X68866887Y-136744091D02*
X68866865Y-136744150D01*
X83800788Y-167756048D02*
X83806162Y-167755765D01*
X130752131Y-168671346D02*
X130767792Y-168669726D01*
X116626260Y-64084431D02*
X116610841Y-64113279D01*
X129257384Y-64056103D02*
X129240110Y-64028326D01*
X68709723Y-137162383D02*
X68709674Y-137162514D01*
X69417000Y-135383520D02*
X69416646Y-135384352D01*
X130007740Y-133913105D02*
X130003567Y-133900658D01*
X93834342Y-167415516D02*
X93834719Y-167415509D01*
X133337516Y-164644107D02*
X133339247Y-164631049D01*
X82829299Y-167809854D02*
X82830898Y-167809752D01*
X133040258Y-142149943D02*
X133039811Y-142148504D01*
X68688810Y-168601630D02*
X68888947Y-168630565D01*
X130579685Y-135375714D02*
X130579625Y-135375572D01*
X67270548Y-167807193D02*
X67275343Y-167817459D01*
X66637205Y-143373724D02*
X66634746Y-143386280D01*
X127701129Y-168719970D02*
X128295940Y-168745495D01*
X132829532Y-167530258D02*
X132836452Y-167506942D01*
X133751199Y-155911693D02*
X133765306Y-155378512D01*
X126219925Y-168618822D02*
X126221199Y-168618929D01*
X106183339Y-167415874D02*
X106183711Y-167415881D01*
X129040779Y-161391344D02*
X129189417Y-161340889D01*
X132241678Y-168304887D02*
X132247317Y-168300931D01*
X133508774Y-144263693D02*
X133508541Y-144261989D01*
X69627192Y-168702988D02*
X69640168Y-168703980D01*
X83866447Y-167752725D02*
X83871836Y-167752465D01*
X97947089Y-167357812D02*
X97949486Y-167357793D01*
X69747274Y-134583033D02*
X69746756Y-134584357D01*
X72313766Y-168719263D02*
X72324065Y-168718726D01*
X133790273Y-149807592D02*
X133790244Y-149805570D01*
X121917104Y-168210242D02*
X121917371Y-168210269D01*
X66212852Y-154307047D02*
X66212886Y-154309182D01*
X130767792Y-168669726D02*
X130771273Y-168669354D01*
X132314732Y-140021580D02*
X132314391Y-140020556D01*
X71518993Y-168749612D02*
X71651447Y-168747119D01*
X66279342Y-157066517D02*
X66279372Y-157066586D01*
X70059018Y-133707821D02*
X70025351Y-133812800D01*
X133685446Y-146345185D02*
X133685271Y-146341643D01*
X82926896Y-167803908D02*
X82928496Y-167803817D01*
X132319075Y-140034617D02*
X132318709Y-140033521D01*
X131058580Y-136545635D02*
X131058336Y-136544994D01*
X66562082Y-143790516D02*
X66560786Y-143798278D01*
X133613652Y-145233974D02*
X133613541Y-145232626D01*
X130438137Y-135039999D02*
X130437838Y-135039284D01*
X69863889Y-134276959D02*
X69859931Y-134287647D01*
X69251352Y-168671694D02*
X69267015Y-168673204D01*
X107220033Y-167438450D02*
X107221826Y-167438493D01*
X68261518Y-168516230D02*
X68290069Y-168523283D01*
X128340889Y-162810582D02*
X128310266Y-162656631D01*
X133735645Y-156481670D02*
X133735672Y-156480621D01*
X133787070Y-154311808D02*
X133787106Y-154309663D01*
X94870462Y-167396095D02*
X94870850Y-167396088D01*
X133773306Y-148916624D02*
X133773295Y-148916140D01*
X67911019Y-139353714D02*
X67910829Y-139354266D01*
X71452024Y-163230513D02*
X71348528Y-163348528D01*
X67765102Y-168309576D02*
X67777144Y-168317646D01*
X66314553Y-146345185D02*
X66314514Y-146345977D01*
X107197703Y-167437934D02*
X107198061Y-167437942D01*
X130253243Y-134584357D02*
X130252725Y-134583033D01*
X131133790Y-136745897D02*
X131133134Y-136744150D01*
X67109177Y-167304831D02*
X67113923Y-167324201D01*
X78084369Y-168210098D02*
X78084648Y-168210071D01*
X66776972Y-142776532D02*
X66735148Y-142939295D01*
X133726768Y-147343359D02*
X133726754Y-147342962D01*
X132037633Y-168418548D02*
X132045098Y-168415235D01*
X66482626Y-162626013D02*
X66519045Y-163158119D01*
X66234552Y-155372874D02*
X66234607Y-155375153D01*
X131931986Y-138906750D02*
X131931831Y-138906314D01*
X93812019Y-167415970D02*
X93813893Y-167415931D01*
X128460769Y-161899999D02*
X128547975Y-161769486D01*
X67180839Y-167563864D02*
X67194834Y-167607529D01*
X95906833Y-167379868D02*
X95908864Y-167379841D01*
X66203464Y-150265828D02*
X66203440Y-150267812D01*
X96912210Y-167367315D02*
X96912631Y-167367310D01*
X73771836Y-168619504D02*
X73773104Y-168619401D01*
X107199852Y-167437982D02*
X107200213Y-167437990D01*
X66595535Y-143594507D02*
X66595137Y-143596808D01*
X69299999Y-162500000D02*
X69310266Y-162343368D01*
X131530741Y-137805786D02*
X131530663Y-137805574D01*
X67013106Y-166865173D02*
X67013623Y-166867786D01*
X66209800Y-149802670D02*
X66209792Y-149803142D01*
X133751383Y-148095125D02*
X133751371Y-148094758D01*
X66714316Y-165018364D02*
X66714544Y-165019997D01*
X130333331Y-134785117D02*
X130332922Y-134784100D01*
X132009654Y-139126390D02*
X132009483Y-139125907D01*
X66460242Y-144505850D02*
X66459365Y-144513291D01*
X70118407Y-168732115D02*
X70521311Y-168748248D01*
X133685692Y-146350304D02*
X133685655Y-146349521D01*
X133316453Y-143156467D02*
X133315863Y-143153873D01*
X66226572Y-148921816D02*
X66226525Y-148923971D01*
X66193753Y-151725117D02*
X66193752Y-151727045D01*
X67611152Y-140243533D02*
X67609545Y-140248330D01*
X84792722Y-167710016D02*
X84793055Y-167710001D01*
X69068191Y-136218869D02*
X69067763Y-136219943D01*
X66417662Y-161427361D02*
X66417701Y-161428222D01*
X66217592Y-149351318D02*
X66217550Y-149353402D01*
X66226582Y-148921362D02*
X66226572Y-148921816D01*
X129907592Y-168730900D02*
X129909961Y-168730777D01*
X102058845Y-167357862D02*
X103053873Y-167366949D01*
X131773659Y-138466542D02*
X131773089Y-138464968D01*
X66286501Y-146985733D02*
X66286408Y-146988045D01*
X117225521Y-63608824D02*
X117194219Y-63618319D01*
X68228299Y-138461149D02*
X68227728Y-138462718D01*
X67854589Y-168364320D02*
X67882432Y-168379450D01*
X119111278Y-167952020D02*
X120001704Y-168028995D01*
X68308260Y-138242033D02*
X68308146Y-138242346D01*
X133689437Y-158290587D02*
X133689459Y-158289744D01*
X120016329Y-168030281D02*
X120017098Y-168030350D01*
X88717349Y-167555299D02*
X88717683Y-167555288D01*
X69202421Y-135890808D02*
X69202163Y-135891428D01*
X131290156Y-137162061D02*
X131290148Y-137162042D01*
X66385850Y-145240070D02*
X66385742Y-145241419D01*
X133751149Y-155913554D02*
X133751163Y-155913023D01*
X120999842Y-168121374D02*
X121002448Y-168121624D01*
X132844639Y-167478330D02*
X132846095Y-167473117D01*
X130659110Y-162810582D02*
X130608655Y-162959220D01*
X132551960Y-168049968D02*
X132573492Y-168029558D01*
X133763017Y-148500479D02*
X133763003Y-148499967D01*
X125439032Y-168552083D02*
X125442999Y-168552430D01*
X66346444Y-159549302D02*
X66346504Y-159551250D01*
X129883958Y-168732015D02*
X129894600Y-168731538D01*
X69667077Y-134784100D02*
X69666668Y-134785117D01*
X96917858Y-167367248D02*
X96920156Y-167367223D01*
X116501605Y-64520952D02*
X116500267Y-64561822D01*
X129991346Y-133863923D02*
X129990501Y-133861369D01*
X130439782Y-135043929D02*
X130438137Y-135039999D01*
X133787147Y-154307047D02*
X133787154Y-154306573D01*
X130578887Y-135373832D02*
X130578524Y-135372975D01*
X132011544Y-139131764D02*
X132011374Y-139131280D01*
X87695281Y-167591619D02*
X87695607Y-167591607D01*
X117288973Y-63592930D02*
X117257117Y-63600358D01*
X66346667Y-159556374D02*
X66367358Y-160180290D01*
X117014431Y-63696260D02*
X116986103Y-63712615D01*
X76265828Y-168390337D02*
X76266127Y-168390308D01*
X103084626Y-167367277D02*
X103085042Y-167367282D01*
X133700217Y-146663658D02*
X133700190Y-146663008D01*
X67428532Y-140774240D02*
X67428022Y-140775702D01*
X133037805Y-142142080D02*
X133037354Y-142140645D01*
X67344426Y-167935682D02*
X67344655Y-167935994D01*
X133518766Y-162604034D02*
X133551564Y-162041765D01*
X132241492Y-139801082D02*
X132241280Y-139800446D01*
X132357127Y-168218578D02*
X132361749Y-168214872D01*
X79025837Y-168118938D02*
X79028689Y-168118669D01*
X133474127Y-144020944D02*
X133442560Y-143818976D01*
X124597919Y-168474198D02*
X124598467Y-168474251D01*
X130096779Y-134168942D02*
X130092908Y-134158218D01*
X68867085Y-136743564D02*
X68867071Y-136743559D01*
X130799005Y-135894243D02*
X130797836Y-135891428D01*
X109274019Y-167491977D02*
X109275899Y-167492032D01*
X113294150Y-167629425D02*
X113295944Y-167629498D01*
X105132000Y-167396136D02*
X105147835Y-167396409D01*
X133765392Y-155375153D02*
X133765447Y-155372874D01*
X94852164Y-167396409D02*
X94867999Y-167396136D01*
X133806246Y-151725117D02*
X133806246Y-151724654D01*
X131289865Y-137161287D02*
X131211350Y-136952284D01*
X67593481Y-140295902D02*
X67593185Y-140296775D01*
X68050890Y-168453187D02*
X68065060Y-168458198D01*
X76264694Y-168390449D02*
X76265828Y-168390337D01*
X95911449Y-167379808D02*
X95911852Y-167379803D01*
X66834121Y-142568331D02*
X66833581Y-142570270D01*
X129273739Y-64084431D02*
X129257384Y-64056103D01*
X66193871Y-152231710D02*
X66193872Y-152232143D01*
X66367700Y-160189977D02*
X66390887Y-160806530D01*
X68146069Y-138688581D02*
X68145931Y-138688967D01*
X67680858Y-140034816D02*
X67611444Y-140242660D01*
X66310567Y-158290771D02*
X66310589Y-158291597D01*
X82821304Y-167810369D02*
X82829299Y-167809854D01*
X67103745Y-141709723D02*
X67102408Y-141713714D01*
X79982901Y-168030350D02*
X79983670Y-168030281D01*
X130725549Y-135719297D02*
X130655378Y-135553755D01*
X128885568Y-63696260D02*
X128856720Y-63680841D01*
X133777300Y-154842627D02*
X133777345Y-154840407D01*
X66610991Y-164199924D02*
X66611250Y-164202230D01*
X69982680Y-133941355D02*
X69981907Y-133943614D01*
X67423486Y-168026656D02*
X67426507Y-168029558D01*
X93836928Y-167415466D02*
X93838996Y-167415426D01*
X128340889Y-162189417D02*
X128391344Y-162040779D01*
X85754439Y-167668255D02*
X85754762Y-167668241D01*
X88713160Y-167555439D02*
X88713489Y-167555428D01*
X133581894Y-161436742D02*
X133582079Y-161432903D01*
X113291834Y-167629332D02*
X113292160Y-167629345D01*
X68375714Y-168543265D02*
X68400952Y-168548846D01*
X82918893Y-167804372D02*
X82926896Y-167803908D01*
X66222644Y-154839905D02*
X66222654Y-154840407D01*
X133032825Y-142126369D02*
X133032368Y-142124944D01*
X133685271Y-146341643D02*
X133685230Y-146340835D01*
X74560967Y-168552083D02*
X74561857Y-168552005D01*
X66894547Y-142361646D02*
X66843235Y-142536388D01*
X70500000Y-163700000D02*
X70343368Y-163689733D01*
X132382449Y-168198071D02*
X132387028Y-168194309D01*
X126240841Y-168620507D02*
X126242096Y-168620603D01*
X66491225Y-144263693D02*
X66490189Y-144271369D01*
X69740253Y-134600905D02*
X69718820Y-134655127D01*
X66779577Y-165448821D02*
X66779669Y-165449421D01*
X129189417Y-163659110D02*
X129040779Y-163608655D01*
X79031809Y-168118377D02*
X79032327Y-168118328D01*
X128391344Y-162040779D02*
X128460769Y-161899999D01*
X68709723Y-137162383D02*
X68709723Y-137162383D01*
X66447506Y-162024679D02*
X66447749Y-162029332D01*
X109280172Y-167492159D02*
X109280514Y-167492169D01*
X132412452Y-140313347D02*
X132412155Y-140312477D01*
X133777290Y-154843106D02*
X133777300Y-154842627D01*
X74566720Y-168551571D02*
X74570694Y-168551210D01*
X131530663Y-137805574D02*
X131530315Y-137804637D01*
X95906433Y-167379874D02*
X95906833Y-167379868D01*
X132241280Y-139800446D02*
X132240307Y-139797529D01*
X131610993Y-138022510D02*
X131610570Y-138021366D01*
X108233311Y-167463416D02*
X108233658Y-167463425D01*
X120996484Y-168121054D02*
X120999319Y-168121324D01*
X85752410Y-167668339D02*
X85752743Y-167668325D01*
X66459365Y-144513291D02*
X66459173Y-144514941D01*
X130713816Y-168674928D02*
X130729499Y-168673528D01*
X130510054Y-135211368D02*
X130509069Y-135209034D01*
X102055995Y-167357838D02*
X102058406Y-167357859D01*
X133806247Y-151727045D02*
X133806246Y-151725117D01*
X67607783Y-140253575D02*
X67607490Y-140254445D01*
X128995460Y-63767115D02*
X128968871Y-63748061D01*
X66418146Y-161437582D02*
X66447453Y-162023639D01*
X68029531Y-168445271D02*
X68050890Y-168453187D01*
X66217601Y-149350864D02*
X66217592Y-149351318D01*
X66195371Y-151226827D02*
X66195361Y-151228741D01*
X66195359Y-151229183D02*
X66195351Y-151231130D01*
X133720639Y-157066517D02*
X133720629Y-157066517D01*
X133220443Y-165448683D02*
X133220531Y-165448104D01*
X69664004Y-134791721D02*
X69661942Y-134796820D01*
X67029376Y-141933313D02*
X67029003Y-141934467D01*
X131693054Y-138245628D02*
X131692954Y-138245353D01*
X83813169Y-167755404D02*
X83814245Y-167755349D01*
X67178809Y-141489711D02*
X67107332Y-141699118D01*
X66195350Y-151231547D02*
X66193763Y-151719886D01*
X133315863Y-143153873D02*
X133313169Y-143142182D01*
X128299999Y-162500000D02*
X128310266Y-162343368D01*
X115205105Y-167709919D02*
X115206944Y-167710001D01*
X79936714Y-168034509D02*
X79940949Y-168034119D01*
X130100000Y-161460769D02*
X130230513Y-161547975D01*
X133162882Y-142557668D02*
X133160401Y-142548960D01*
X69271790Y-135725599D02*
X69271630Y-135725979D01*
X133804638Y-151228741D02*
X133804628Y-151226827D01*
X128611026Y-63592930D02*
X128578945Y-63586549D01*
X131065396Y-168636616D02*
X131084078Y-168634234D01*
X66294619Y-157671615D02*
X66294629Y-157671988D01*
X123738395Y-168390752D02*
X124597919Y-168474198D01*
X132494409Y-140552552D02*
X132493418Y-140549691D01*
X66279363Y-157066256D02*
X66279370Y-157066517D01*
X67759909Y-139796881D02*
X67759692Y-139797529D01*
X133653347Y-159555920D02*
X133653408Y-159554022D01*
X132896254Y-141709723D02*
X132895959Y-141708847D01*
X66279287Y-157063262D02*
X66279350Y-157065738D01*
X68148414Y-138682064D02*
X68148262Y-138682485D01*
X133773417Y-148921362D02*
X133773367Y-148919205D01*
X68307045Y-138245353D02*
X68306945Y-138245628D01*
X130372807Y-168702988D02*
X130375688Y-168702759D01*
X66236922Y-148502713D02*
X66236909Y-148503200D01*
X66294596Y-157670728D02*
X66294598Y-157670806D01*
X130126481Y-134250705D02*
X130097484Y-134170890D01*
X69563954Y-135034989D02*
X69563656Y-135035704D01*
X69344927Y-135553035D02*
X69344669Y-135553642D01*
X133157440Y-165860051D02*
X133157885Y-165857213D01*
X66217456Y-149358434D02*
X66217448Y-149358888D01*
X66434185Y-144733537D02*
X66433420Y-144740621D01*
X132658431Y-141022618D02*
X132658429Y-141022612D01*
X113275938Y-167628704D02*
X113276266Y-167628717D01*
X131396561Y-168587558D02*
X131531526Y-168562559D01*
X133790159Y-149800235D02*
X133782551Y-149358888D01*
X68865898Y-136746725D02*
X68788719Y-136952100D01*
X68387880Y-138025564D02*
X68308865Y-138240387D01*
X120964303Y-168118014D02*
X120964824Y-168118063D01*
X71480181Y-168749994D02*
X71490770Y-168749944D01*
X66198594Y-150745567D02*
X66195387Y-151224010D01*
X130863817Y-136050959D02*
X130862240Y-136047125D01*
X109277979Y-167492093D02*
X109278317Y-167492103D01*
X118134569Y-167875395D02*
X118135874Y-167875493D01*
X130049855Y-134036154D02*
X130018092Y-133943614D01*
X129393048Y-64455758D02*
X129388779Y-64423328D01*
X132658338Y-141022353D02*
X132658389Y-141022335D01*
X71100000Y-163539230D02*
X70959220Y-163608655D01*
X133517458Y-162624755D02*
X133517830Y-162619101D01*
X67423274Y-140789307D02*
X67422803Y-140790657D01*
X133362238Y-143370930D02*
X133359708Y-143358391D01*
X68550301Y-137588114D02*
X68550256Y-137588236D01*
X132928520Y-167144884D02*
X132932034Y-167129490D01*
X80959186Y-167946187D02*
X80964323Y-167945775D01*
X79035175Y-168118063D02*
X79035696Y-168118014D01*
X67409922Y-168012927D02*
X67412860Y-168015976D01*
X132239116Y-139793973D02*
X132238898Y-139793324D01*
X68468473Y-168562559D02*
X68603438Y-168587558D01*
X72311470Y-168719377D02*
X72313766Y-168719263D01*
X128522168Y-168750000D02*
X129391190Y-168750000D01*
X69489767Y-135211788D02*
X69488877Y-135213895D01*
X69661532Y-134797833D02*
X69659263Y-134803425D01*
X132886076Y-167324201D02*
X132890822Y-167304831D01*
X128941674Y-63729889D02*
X128913896Y-63712615D01*
X132655573Y-167935682D02*
X132676541Y-167904794D01*
X133751495Y-148098814D02*
X133751446Y-148097160D01*
X133480355Y-163166526D02*
X133480847Y-163159650D01*
X133735640Y-156481866D02*
X133735645Y-156481670D01*
X119048529Y-167946814D02*
X119090702Y-167950285D01*
X66609597Y-164187203D02*
X66609846Y-164189515D01*
X116986103Y-63712615D02*
X116958325Y-63729889D01*
X66783863Y-142750447D02*
X66783279Y-142752619D01*
X66222709Y-154843106D02*
X66222757Y-154845334D01*
X69581795Y-134992056D02*
X69580311Y-134995640D01*
X132940971Y-167088342D02*
X132983488Y-166882145D01*
X71348528Y-163348528D02*
X71230513Y-163452024D01*
X130249362Y-134574417D02*
X130216356Y-134489505D01*
X113276266Y-167628717D02*
X113289717Y-167629248D01*
X132873886Y-167371391D02*
X132878975Y-167352110D01*
X131132842Y-136743374D02*
X131062666Y-136556433D01*
X70521311Y-168748248D02*
X70526309Y-168748423D01*
X85756908Y-167668153D02*
X86703727Y-167629511D01*
X132970996Y-141934467D02*
X132970623Y-141933313D01*
X90745011Y-167491431D02*
X90746872Y-167491379D01*
X133705370Y-157671988D02*
X133705380Y-157671615D01*
X133157342Y-165860667D02*
X133157440Y-165860051D01*
X129399999Y-64578181D02*
X129399732Y-64561822D01*
X81953385Y-167869044D02*
X82809308Y-167811161D01*
X71503703Y-168749828D02*
X71506056Y-168749800D01*
X132390454Y-140248330D02*
X132388847Y-140243533D01*
X116931128Y-63748061D02*
X116904540Y-63767114D01*
X133751506Y-148099152D02*
X133751495Y-148098814D01*
X133564852Y-144724875D02*
X133564676Y-144723308D01*
X132390748Y-140249207D02*
X132390454Y-140248330D01*
X66562034Y-163691846D02*
X66562776Y-163700254D01*
X86729946Y-167628475D02*
X86730272Y-167628463D01*
X129317126Y-64172411D02*
X129303626Y-64142616D01*
X66386971Y-145226543D02*
X66386458Y-145232626D01*
X67531970Y-168125868D02*
X67535602Y-168129039D01*
X133751163Y-155913023D02*
X133751167Y-155912881D01*
X107222186Y-167438501D02*
X107224142Y-167438549D01*
X67113923Y-167324201D02*
X67114997Y-167328502D01*
X84795221Y-167709905D02*
X84796877Y-167709832D01*
X130931808Y-136218869D02*
X130929888Y-136214063D01*
X104095747Y-167379903D02*
X104096145Y-167379909D01*
X132317925Y-140031167D02*
X132317862Y-140030981D01*
X117180295Y-167810473D02*
X117189093Y-167811054D01*
X130084193Y-134133847D02*
X130083500Y-134131895D01*
X116500000Y-64578181D02*
X116500000Y-132500000D01*
X67689500Y-168255068D02*
X67692694Y-168257507D01*
X78994206Y-168121946D02*
X78997038Y-168121673D01*
X69559919Y-135044642D02*
X69502020Y-135182704D01*
X66900179Y-166223880D02*
X66901070Y-166229336D01*
X130127190Y-134252651D02*
X130126481Y-134250705D01*
X132817775Y-141479786D02*
X132817561Y-141479167D01*
X66643464Y-143343074D02*
X66640861Y-143355604D01*
X69200731Y-135894877D02*
X69138112Y-136046271D01*
X131692348Y-138243697D02*
X131691853Y-138242346D01*
X133035326Y-142134217D02*
X133034873Y-142132791D01*
X66462471Y-144487668D02*
X66461544Y-144495105D01*
X85754762Y-167668241D02*
X85756577Y-167668167D01*
X133436279Y-163710535D02*
X133437054Y-163702122D01*
X133720720Y-157062947D02*
X133720722Y-157062869D01*
X95909267Y-167379836D02*
X95911449Y-167379808D01*
X69391344Y-162040779D02*
X69460769Y-161899999D01*
X90723753Y-167492042D02*
X90724100Y-167492032D01*
X132729451Y-167807193D02*
X132735845Y-167792929D01*
X84776665Y-167710736D02*
X84776991Y-167710721D01*
X81927311Y-167870875D02*
X81928613Y-167870781D01*
X67105680Y-141703984D02*
X67105382Y-141704865D01*
X67262431Y-167788918D02*
X67264154Y-167792929D01*
X69578091Y-135000992D02*
X69565888Y-135030345D01*
X69003713Y-136382522D02*
X69001513Y-136388237D01*
X69070111Y-136214063D02*
X69068191Y-136218869D01*
X66222601Y-154837664D02*
X66222644Y-154839905D01*
X133216720Y-142752619D02*
X133216136Y-142750447D01*
X133796564Y-150268263D02*
X133796559Y-150267812D01*
X69934435Y-134081220D02*
X69916499Y-134131895D01*
X77158096Y-168301534D02*
X77159685Y-168301689D01*
X130861887Y-136046271D02*
X130799268Y-135894877D01*
X133790237Y-149805127D02*
X133790207Y-149803142D01*
X111286510Y-167555428D02*
X111286839Y-167555439D01*
X131133946Y-136746214D02*
X131133914Y-136746226D01*
X92775857Y-167438549D02*
X92777813Y-167438501D01*
X102032054Y-167357657D02*
X102050071Y-167357790D01*
X117163245Y-63628834D02*
X117132631Y-63640356D01*
X69228726Y-168669354D02*
X69232207Y-168669726D01*
X90724100Y-167492032D02*
X90725980Y-167491977D01*
X67426507Y-168029558D02*
X67448039Y-168049968D01*
X133439498Y-143800001D02*
X133439213Y-143798278D01*
X66608501Y-164176799D02*
X66609597Y-164187203D01*
X66260881Y-147707533D02*
X66260839Y-147708790D01*
X133582509Y-161423539D02*
X133582547Y-161422674D01*
X66286387Y-146988554D02*
X66286295Y-146990909D01*
X133726602Y-147338642D02*
X133726537Y-147336848D01*
X68306945Y-138245628D02*
X68228426Y-138460801D01*
X104120202Y-167380254D02*
X104120603Y-167380260D01*
X68469258Y-137805786D02*
X68468908Y-137806727D01*
X66217502Y-149355901D02*
X66217494Y-149356358D01*
X75392972Y-168475063D02*
X75395431Y-168474832D01*
X133393011Y-164161755D02*
X133436104Y-163712404D01*
X99983691Y-167350026D02*
X99984167Y-167350026D01*
X133613028Y-145226543D02*
X133612912Y-145225189D01*
X129377069Y-64358973D02*
X129369641Y-64327117D01*
X133735607Y-156483124D02*
X133735613Y-156482921D01*
X75401532Y-168474251D02*
X75402080Y-168474198D01*
X133517911Y-162617850D02*
X133518269Y-162612198D01*
X101029316Y-167352020D02*
X101029773Y-167352022D01*
X133477003Y-144039957D02*
X133475843Y-144032177D01*
X66234620Y-155375686D02*
X66234679Y-155377971D01*
X133339247Y-164631049D02*
X133339624Y-164628142D01*
X67515685Y-168111511D02*
X67531970Y-168125868D01*
X132698333Y-167867580D02*
X132718442Y-167829688D01*
X133608782Y-160814854D02*
X133608811Y-160814158D01*
X66212929Y-154311808D02*
X66212937Y-154312288D01*
X67505391Y-140553127D02*
X67504303Y-140556264D01*
X115200590Y-167709721D02*
X115200923Y-167709735D01*
X83814245Y-167755349D02*
X83858381Y-167753123D01*
X95879797Y-167380254D02*
X95881991Y-167380220D01*
X66212893Y-154309663D02*
X66212929Y-154311808D01*
X66837117Y-142557668D02*
X66836569Y-142559607D01*
X133653555Y-159549302D02*
X133653567Y-159548898D01*
X67518823Y-140514181D02*
X67518625Y-140514758D01*
X67259367Y-141257488D02*
X67258889Y-141258862D01*
X103059098Y-167367000D02*
X103059522Y-167367004D01*
X133735940Y-156470512D02*
X133735970Y-156469383D01*
X67179019Y-141489096D02*
X67178809Y-141489711D01*
X133043968Y-166555613D02*
X133045421Y-166547182D01*
X88711374Y-167555500D02*
X88713160Y-167555439D01*
X124607594Y-168475116D02*
X125428424Y-168551130D01*
X68431839Y-168555338D02*
X68437469Y-168556481D01*
X66264354Y-156481670D02*
X66264359Y-156481866D01*
X133165878Y-142568331D02*
X133163430Y-142559607D01*
X116192760Y-167755709D02*
X116193837Y-167755765D01*
X100016308Y-167350026D02*
X100018962Y-167350030D01*
X66248565Y-148096780D02*
X66248553Y-148097160D01*
X132753060Y-167751478D02*
X132755822Y-167744634D01*
X96915373Y-167367277D02*
X96917436Y-167367253D01*
X133777398Y-154837664D02*
X133777407Y-154837187D01*
X131624285Y-168543265D02*
X131629887Y-168541993D01*
X133652681Y-145764052D02*
X133652612Y-145762965D01*
X104117609Y-167380214D02*
X104118008Y-167380220D01*
X86726212Y-167628620D02*
X86727818Y-167628557D01*
X67988455Y-139131764D02*
X67987687Y-139133957D01*
X133726693Y-147341198D02*
X133726679Y-147340801D01*
X66387087Y-145225189D02*
X66386971Y-145226543D01*
X131061241Y-168637129D02*
X131065396Y-168636616D01*
X132483639Y-140521344D02*
X132482555Y-140518195D01*
X96920572Y-167367218D02*
X96937759Y-167367032D01*
X122841885Y-168301845D02*
X122841878Y-168301921D01*
X124603997Y-168474779D02*
X124604568Y-168474832D01*
X69643048Y-168704191D02*
X69656021Y-168705108D01*
X68788719Y-136952100D02*
X68788712Y-136952117D01*
X87715704Y-167590867D02*
X87717496Y-167590803D01*
X71684515Y-168746216D02*
X71687526Y-168746114D01*
X66660752Y-164631049D02*
X66662483Y-164644107D01*
X133037354Y-142140645D02*
X133035326Y-142134217D01*
X119110249Y-167951932D02*
X119111278Y-167952020D01*
X66347016Y-145768884D02*
X66346949Y-145769977D01*
X118056400Y-167869718D02*
X118062917Y-167870176D01*
X108231058Y-167463359D02*
X108231414Y-167463368D01*
X66264059Y-156470512D02*
X66264065Y-156470724D01*
X66724821Y-142981197D02*
X66687435Y-143139589D01*
X85730210Y-167669278D02*
X85730540Y-167669264D01*
X117194219Y-63618319D02*
X117163245Y-63628834D01*
X131851737Y-138682485D02*
X131851585Y-138682064D01*
X130732984Y-168673204D02*
X130748647Y-168671694D01*
X128310266Y-162343368D02*
X128340889Y-162189417D01*
X84797211Y-167709817D02*
X84799076Y-167709735D01*
X133439213Y-143798278D02*
X133437917Y-143790516D01*
X132087110Y-139348327D02*
X132086922Y-139347787D01*
X127673639Y-168718601D02*
X127675934Y-168718726D01*
X117061094Y-167803231D02*
X117062695Y-167803320D01*
X114249693Y-167668427D02*
X114263165Y-167668994D01*
X69580311Y-134995640D02*
X69580015Y-134996355D01*
X66205270Y-153786908D02*
X66212845Y-154306573D01*
X98973214Y-167352009D02*
X98973680Y-167352008D01*
X116582873Y-64172411D02*
X116570356Y-64202631D01*
X133804257Y-152736609D02*
X133806127Y-152232143D01*
X130452024Y-161769486D02*
X130539230Y-161899999D01*
X67504303Y-140556264D02*
X67504105Y-140556835D01*
X68709843Y-137162061D02*
X68709723Y-137162383D01*
X120011332Y-168029838D02*
X120012104Y-168029906D01*
X122840848Y-168301742D02*
X122840978Y-168301755D01*
X132658299Y-141022240D02*
X132658299Y-141022240D01*
X129418700Y-168749749D02*
X129423703Y-168749674D01*
X133397610Y-143556582D02*
X133365792Y-143389074D01*
X66222654Y-154840407D02*
X66222699Y-154842627D01*
X130173652Y-134377609D02*
X130170569Y-134369424D01*
X67260082Y-141255436D02*
X67259967Y-141255765D01*
X130995796Y-136381254D02*
X130993584Y-136375555D01*
X69001026Y-136389508D02*
X68941663Y-136544994D01*
X132820052Y-141486390D02*
X132819845Y-141485788D01*
X112302567Y-167591539D02*
X112304392Y-167591607D01*
X66222699Y-154842627D02*
X66222709Y-154843106D01*
X67153904Y-167473117D02*
X67155360Y-167478330D01*
X86709956Y-167629261D02*
X86710282Y-167629248D01*
X66644051Y-143340288D02*
X66643464Y-143343074D01*
X66195766Y-152741479D02*
X66195769Y-152741931D01*
X86706181Y-167629412D02*
X86707839Y-167629345D01*
X133589725Y-144968036D02*
X133589578Y-144966566D01*
X66348167Y-145751116D02*
X66348094Y-145752200D01*
X133794729Y-153786908D02*
X133794736Y-153786462D01*
X69009640Y-136367309D02*
X69009139Y-136368584D01*
X88717683Y-167555288D02*
X89700827Y-167522958D01*
X130511122Y-135213895D02*
X130510232Y-135211788D01*
X133540826Y-144514941D02*
X133540634Y-144513291D01*
X69340889Y-162189417D02*
X69391344Y-162040779D01*
X133720647Y-157065791D02*
X133720648Y-157065791D01*
X92782295Y-167438395D02*
X92782654Y-167438387D01*
X66521608Y-144049475D02*
X66521358Y-144051213D01*
X94844849Y-167396540D02*
X94846974Y-167396501D01*
X133518692Y-162605281D02*
X133518766Y-162604034D01*
X130578524Y-135372975D02*
X130578465Y-135372838D01*
X66434358Y-144731964D02*
X66434185Y-144733537D01*
X131771700Y-138461149D02*
X131771573Y-138460801D01*
X67228280Y-167703874D02*
X67233170Y-167716769D01*
X70343368Y-163689733D02*
X70189417Y-163659110D01*
X67368311Y-167965743D02*
X67390749Y-167991858D01*
X92797792Y-167438036D02*
X92799786Y-167437990D01*
X66779365Y-165447427D02*
X66779452Y-165448004D01*
X131038369Y-168639833D02*
X131042528Y-168639356D01*
X93816288Y-167415881D02*
X93816660Y-167415874D01*
X92779966Y-167438450D02*
X92780326Y-167438441D01*
X69502020Y-135182704D02*
X69501841Y-135183131D01*
X69416646Y-135384352D02*
X69416588Y-135384489D01*
X133794797Y-153781828D02*
X133794802Y-153781366D01*
X116186830Y-167755404D02*
X116192760Y-167755709D01*
X132739326Y-141253745D02*
X132658431Y-141022618D01*
X122841507Y-168301808D02*
X122841526Y-168301813D01*
X66960033Y-166578075D02*
X67007588Y-166836412D01*
X66563720Y-163710535D02*
X66563895Y-163712404D01*
X133700190Y-146663008D02*
X133700065Y-146660086D01*
X86708165Y-167629332D02*
X86709956Y-167629261D01*
X81857610Y-167875985D02*
X81864125Y-167875493D01*
X68066296Y-138911585D02*
X67990516Y-139125907D01*
X133777231Y-154845838D02*
X133777242Y-154845334D01*
X132741110Y-141258862D02*
X132740632Y-141257488D01*
X128913896Y-63712615D02*
X128885568Y-63696260D01*
X72301162Y-168719867D02*
X72311470Y-168719377D01*
X133099387Y-142341388D02*
X133097070Y-142333796D01*
X67609251Y-140249207D02*
X67607783Y-140253575D01*
X67520100Y-140510455D02*
X67519905Y-140511027D01*
X67429122Y-140772544D02*
X67428625Y-140773972D01*
X90722020Y-167492093D02*
X90723753Y-167492042D01*
X69996432Y-133900658D02*
X69992259Y-133913105D01*
X121913931Y-168209933D02*
X121915351Y-168210071D01*
X133156764Y-142536388D02*
X133105452Y-142361646D01*
X132238898Y-139793324D02*
X132237919Y-139790416D01*
X129909961Y-168730777D02*
X129920591Y-168730200D01*
X85732384Y-167669184D02*
X85732710Y-167669170D01*
X130358504Y-134847084D02*
X130358091Y-134846070D01*
X133551942Y-162035039D02*
X133552195Y-162030382D01*
X66195782Y-152743929D02*
X66195785Y-152744388D01*
X114265619Y-167669099D02*
X114267289Y-167669170D01*
X132487915Y-168108305D02*
X132520423Y-168079080D01*
X67102408Y-141713714D02*
X67102115Y-141714592D01*
X129118293Y-63874836D02*
X129095163Y-63851706D01*
X69639217Y-134852665D02*
X69638801Y-134853681D01*
X126221199Y-168618929D02*
X126226895Y-168619401D01*
X129974648Y-133812800D02*
X129940981Y-133707821D01*
X133773474Y-148923971D02*
X133773427Y-148921816D01*
X66391217Y-160814854D02*
X66391347Y-160817962D01*
X132145410Y-168364320D02*
X132191777Y-168337187D01*
X133806139Y-152226890D02*
X133806141Y-152224923D01*
X133794827Y-153779298D02*
X133794832Y-153778815D01*
X128509229Y-168749944D02*
X128519818Y-168749994D01*
X68866865Y-136744150D02*
X68866209Y-136745897D01*
X116878588Y-63787027D02*
X116853303Y-63807778D01*
X67761101Y-139793324D02*
X67760883Y-139793973D01*
X116120087Y-167752084D02*
X116121163Y-167752134D01*
X68867149Y-136743393D02*
X68867085Y-136743564D01*
X66447749Y-162029332D02*
X66447804Y-162030382D01*
X115200923Y-167709735D02*
X115202788Y-167709817D01*
X109255332Y-167491441D02*
X109257050Y-167491489D01*
X120064056Y-168034580D02*
X120964303Y-168118014D01*
X67696902Y-168260636D02*
X67721898Y-168278956D01*
X68709674Y-137162514D02*
X68630694Y-137373109D01*
X132166600Y-139579553D02*
X132166400Y-139578962D01*
X133777242Y-154845334D02*
X133777290Y-154843106D01*
X114269459Y-167669264D02*
X114269789Y-167669278D01*
X66447453Y-162023639D02*
X66447506Y-162024679D01*
X66448114Y-162036074D02*
X66448376Y-162040727D01*
X132655344Y-167935994D02*
X132655573Y-167935682D01*
X129399999Y-132678958D02*
X129399999Y-64578181D01*
X133319084Y-143168168D02*
X133316453Y-143156467D01*
X66522996Y-144039957D02*
X66522741Y-144041689D01*
X94849300Y-167396459D02*
X94849678Y-167396453D01*
X66408090Y-144990866D02*
X66407956Y-144992329D01*
X119091731Y-167950370D02*
X119097391Y-167950841D01*
X97973446Y-167357620D02*
X97973886Y-167357617D01*
X127686233Y-168719263D02*
X127688529Y-168719377D01*
X67834503Y-139576300D02*
X67833599Y-139578962D01*
X130727320Y-135723488D02*
X130726591Y-135721761D01*
X116206208Y-167756423D02*
X116207283Y-167756481D01*
X66273231Y-147343359D02*
X66260891Y-147707240D01*
X118064220Y-167870268D02*
X118071386Y-167870781D01*
X66488730Y-144282459D02*
X66462680Y-144486009D01*
X67518625Y-140514758D02*
X67517641Y-140517624D01*
X82928496Y-167803817D02*
X82937304Y-167803320D01*
X66901270Y-166230551D02*
X66902173Y-166235999D01*
X104090732Y-167379836D02*
X104091135Y-167379841D01*
X132392509Y-140254445D02*
X132392216Y-140253575D01*
X97944004Y-167357838D02*
X97944441Y-167357834D01*
X115221181Y-167710639D02*
X115223008Y-167710721D01*
X100019447Y-167350031D02*
X100998101Y-167351910D01*
X133438838Y-163681564D02*
X133438993Y-163679687D01*
X125433279Y-168551571D02*
X125434168Y-168551651D01*
X70040779Y-161391344D02*
X70189417Y-161340889D01*
X66273477Y-147336437D02*
X66273462Y-147336848D01*
X66387616Y-145219106D02*
X66387087Y-145225189D01*
X132576513Y-168026656D02*
X132587139Y-168015976D01*
X132571467Y-140774240D02*
X132571374Y-140773972D01*
X117189093Y-167811054D02*
X117190691Y-167811161D01*
X133565641Y-144731964D02*
X133564852Y-144724875D01*
X133735678Y-156480404D02*
X133735708Y-156479266D01*
X131530315Y-137804637D02*
X131530230Y-137804409D01*
X133609112Y-160806530D02*
X133632299Y-160189977D01*
X130727479Y-135723864D02*
X130727320Y-135723488D01*
X93809605Y-167416022D02*
X93811648Y-167415978D01*
X67107028Y-141700011D02*
X67105680Y-141703984D01*
X66408704Y-144984235D02*
X66408090Y-144990866D01*
X117491822Y-63570267D02*
X117450952Y-63571605D01*
X81937082Y-167870176D02*
X81943599Y-167869718D01*
X130655025Y-135552923D02*
X130654786Y-135552362D01*
X133551564Y-162041765D02*
X133551623Y-162040727D01*
X116199211Y-167756048D02*
X116200289Y-167756105D01*
X114243422Y-167668167D02*
X114245237Y-167668241D01*
X131933703Y-138911585D02*
X131933554Y-138911164D01*
X133355948Y-143340288D02*
X133322793Y-143185092D01*
X66212886Y-154309182D02*
X66212893Y-154309663D01*
X131290325Y-137162514D02*
X131290276Y-137162383D01*
X96912631Y-167367310D02*
X96914957Y-167367282D01*
X120970793Y-168118621D02*
X120971310Y-168118669D01*
X103053873Y-167366949D02*
X103054296Y-167366953D01*
X66205263Y-153786462D02*
X66205270Y-153786908D01*
X69907792Y-134156269D02*
X69907091Y-134158218D01*
X69945076Y-134050813D02*
X69944293Y-134053068D01*
X131851585Y-138682064D02*
X131773782Y-138466881D01*
X66409477Y-144976136D02*
X66408843Y-144982757D01*
X69202163Y-135891428D02*
X69200994Y-135894243D01*
X67107332Y-141699118D02*
X67107028Y-141700011D01*
X72338952Y-168717882D02*
X73003402Y-168677143D01*
X70548810Y-168749099D02*
X70553811Y-168749224D01*
X67682074Y-140031167D02*
X67681735Y-140032187D01*
X66491458Y-144261989D02*
X66491225Y-144263693D01*
X66198612Y-150743153D02*
X66198597Y-150745128D01*
X112304392Y-167591607D02*
X112304718Y-167591619D01*
X120049435Y-168033246D02*
X120053662Y-168033628D01*
X68068013Y-138906750D02*
X68067304Y-138908744D01*
X93813893Y-167415931D02*
X93814263Y-167415923D01*
X67663743Y-168235112D02*
X67668408Y-168238763D01*
X128481688Y-63573745D02*
X128449047Y-63571605D01*
X133652612Y-145762965D02*
X133652300Y-145758127D01*
X67947144Y-168411712D02*
X67947560Y-168411905D01*
X67836730Y-139569780D02*
X67835816Y-139572449D01*
X132444329Y-168146361D02*
X132447993Y-168143224D01*
X69986911Y-133928930D02*
X69982680Y-133941355D01*
X66519045Y-163158119D02*
X66519152Y-163159650D01*
X129383450Y-64391055D02*
X129377069Y-64358973D01*
X66957842Y-166565915D02*
X66958175Y-166567783D01*
X66234473Y-155369527D02*
X66234485Y-155370027D01*
X132090194Y-139357233D02*
X132090004Y-139356681D01*
X67727480Y-168282988D02*
X67752682Y-168300931D01*
X66417879Y-161432051D02*
X66417920Y-161432903D01*
X67010309Y-166850803D02*
X67010812Y-166853417D01*
X66286523Y-146985183D02*
X66286501Y-146985733D01*
X81849139Y-167876635D02*
X81856307Y-167876084D01*
X68788649Y-136952284D02*
X68710134Y-137161287D01*
X106161003Y-167415426D02*
X106163071Y-167415466D01*
X68192108Y-168497722D02*
X68220464Y-168505518D01*
X67762080Y-139790416D02*
X67761101Y-139793324D01*
X133801405Y-150745567D02*
X133801402Y-150745128D01*
X128348552Y-168747119D02*
X128481006Y-168749612D01*
X132480094Y-140511027D02*
X132479899Y-140510455D01*
X88693283Y-167556120D02*
X88694942Y-167556063D01*
X69200994Y-135894243D02*
X69200731Y-135894877D01*
X67452861Y-168054479D02*
X67474694Y-168074634D01*
X82841302Y-167809100D02*
X82906888Y-167805087D01*
X132166400Y-139578962D02*
X132165496Y-139576300D01*
X110294614Y-167522810D02*
X110294947Y-167522821D01*
X84779153Y-167710624D02*
X84792722Y-167710016D01*
X96914957Y-167367282D02*
X96915373Y-167367277D01*
X98964918Y-167352048D02*
X98967475Y-167352035D01*
X73012896Y-168676531D02*
X73014617Y-168676417D01*
X116596373Y-64142616D02*
X116582873Y-64172411D01*
X130583411Y-135384489D02*
X130583353Y-135384352D01*
X66209726Y-149807592D02*
X66209720Y-149808023D01*
X66273462Y-147336848D02*
X66273397Y-147338642D01*
X130050632Y-134038410D02*
X130049855Y-134036154D01*
X102029193Y-167357637D02*
X102031614Y-167357654D01*
X133284406Y-165027386D02*
X133285455Y-165019997D01*
X133736008Y-156467967D02*
X133736039Y-156466847D01*
X132878975Y-167352110D02*
X132880087Y-167347816D01*
X66560786Y-143798278D02*
X66560501Y-143800001D01*
X69065429Y-136225826D02*
X69009640Y-136367309D01*
X117158697Y-167809100D02*
X117160297Y-167809200D01*
X133045741Y-166545304D02*
X133097622Y-166237214D01*
X133608622Y-160818679D02*
X133608652Y-160817962D01*
X66561872Y-163689976D02*
X66562034Y-163691846D01*
X120012104Y-168029906D02*
X120016329Y-168030281D01*
X90726324Y-167491967D02*
X90740375Y-167491562D01*
X91751624Y-167463809D02*
X91751973Y-167463799D01*
X78066234Y-168211878D02*
X78066505Y-168211851D01*
X118152163Y-167876736D02*
X119027947Y-167945163D01*
X79035696Y-168118014D02*
X79935943Y-168034580D01*
X85756577Y-167668167D02*
X85756908Y-167668153D01*
X131042528Y-168639356D02*
X131061241Y-168637129D01*
X108227022Y-167463257D02*
X108228925Y-167463305D01*
X95903854Y-167379909D02*
X95904252Y-167379903D01*
X131772271Y-138462718D02*
X131771700Y-138461149D01*
X92777813Y-167438501D02*
X92778173Y-167438493D01*
X115202788Y-167709817D02*
X115203122Y-167709832D01*
X66234693Y-155378512D02*
X66248800Y-155911693D01*
X129162221Y-63923303D02*
X129140653Y-63898710D01*
X69205292Y-135883933D02*
X69205028Y-135884564D01*
X133477258Y-144041689D02*
X133477003Y-144039957D01*
X71608655Y-162959220D02*
X71539230Y-163100000D01*
X99989674Y-167350022D02*
X99990154Y-167350022D01*
X110271939Y-167522099D02*
X110272277Y-167522109D01*
X66310594Y-158291785D02*
X66310619Y-158292710D01*
X132410523Y-140307695D02*
X132410226Y-140306823D01*
X69915806Y-134133847D02*
X69911984Y-134144573D01*
X131611094Y-138022786D02*
X131610993Y-138022510D01*
X133735613Y-156482921D02*
X133735640Y-156481866D01*
X132724516Y-167817751D02*
X132724656Y-167817459D01*
X133669708Y-146046828D02*
X133669471Y-146042629D01*
X129980859Y-133831990D02*
X129980027Y-133829432D01*
X66195753Y-152739058D02*
X66195755Y-152739496D01*
X70189417Y-161340889D02*
X70343368Y-161310266D01*
X102031614Y-167357654D02*
X102032054Y-167357657D01*
X66481651Y-162610936D02*
X66481730Y-162612198D01*
X112308832Y-167591774D02*
X113269727Y-167628463D01*
X121928637Y-168211372D02*
X121930140Y-168211520D01*
X133720627Y-157066586D02*
X133720638Y-157066561D01*
X130539230Y-163100000D02*
X130452024Y-163230513D01*
X66294617Y-157671545D02*
X66294619Y-157671615D01*
X68603438Y-168587558D02*
X68608306Y-168588434D01*
X66310619Y-158292710D02*
X66310622Y-158292821D01*
X128312473Y-168746114D02*
X128315484Y-168746216D01*
X69899999Y-161460769D02*
X70040779Y-161391344D01*
X70019972Y-133829432D02*
X70019140Y-133831990D01*
X129399732Y-64561822D02*
X129398394Y-64520952D01*
X66279372Y-157066586D02*
X66279379Y-157066860D01*
X133518348Y-162610936D02*
X133518692Y-162605281D01*
X131932695Y-138908744D02*
X131931986Y-138906750D01*
X114247589Y-167668339D02*
X114249365Y-167668413D01*
X97946651Y-167357816D02*
X97947089Y-167357812D01*
X66634207Y-143389074D02*
X66602389Y-143556582D01*
X69491110Y-135208607D02*
X69490930Y-135209034D01*
X132163069Y-139569197D02*
X132090194Y-139357233D01*
X133158427Y-165853738D02*
X133158523Y-165853118D01*
X66488952Y-144280755D02*
X66488730Y-144282459D01*
X111309211Y-167556208D02*
X112282176Y-167590791D01*
X84799076Y-167709735D02*
X84799409Y-167709721D01*
X131531091Y-137806727D02*
X131530741Y-137805786D01*
X116121163Y-167752134D02*
X116127086Y-167752413D01*
X130710330Y-168675228D02*
X130713816Y-168674928D01*
X132191777Y-168337187D02*
X132205087Y-168329116D01*
X133474394Y-144022672D02*
X133474127Y-144020944D01*
X130259746Y-134600905D02*
X130259223Y-134599580D01*
X133804246Y-152739058D02*
X133804255Y-152737035D01*
X131833606Y-168490333D02*
X131840552Y-168488270D01*
X130203798Y-134456863D02*
X130178294Y-134389866D01*
X133399954Y-143569213D02*
X133398040Y-143558876D01*
X97973886Y-167357617D02*
X97976287Y-167357603D01*
X66264321Y-156480404D02*
X66264327Y-156480621D01*
X131853152Y-138686414D02*
X131852508Y-138684624D01*
X66193864Y-152229307D02*
X66193865Y-152229729D01*
X115203122Y-167709832D02*
X115204778Y-167709905D01*
X66387735Y-145217752D02*
X66387616Y-145219106D01*
X66248832Y-155912881D02*
X66248836Y-155913023D01*
X133390402Y-164187203D02*
X133391498Y-164176799D01*
X132984019Y-166879533D02*
X132986376Y-166867786D01*
X66563895Y-163712404D02*
X66606988Y-164161755D01*
X130511302Y-135214320D02*
X130511122Y-135213895D01*
X68068880Y-138904319D02*
X68068168Y-138906314D01*
X66193762Y-151720327D02*
X66193757Y-151722272D01*
X133689405Y-158291785D02*
X133689410Y-158291597D01*
X69783643Y-134489505D02*
X69750637Y-134574417D01*
X106190767Y-167416030D02*
X107195358Y-167437882D01*
X132481374Y-140514758D02*
X132481176Y-140514181D01*
X133751446Y-148097160D02*
X133751434Y-148096780D01*
X66248800Y-155911693D02*
X66248806Y-155911901D01*
X133806243Y-151722694D02*
X133806242Y-151722272D01*
X106168070Y-167415564D02*
X106183339Y-167415874D01*
X117102411Y-63652873D02*
X117072616Y-63666373D01*
X95904252Y-167379903D02*
X95906433Y-167379874D01*
X121931742Y-168211678D02*
X121932001Y-168211703D01*
X133720619Y-157066899D02*
X133720620Y-157066899D01*
X66481730Y-162612198D02*
X66482088Y-162617850D01*
X133223027Y-142776532D02*
X133222462Y-142774355D01*
X79983670Y-168030281D02*
X79987895Y-168029906D01*
X133672303Y-158918774D02*
X133672340Y-158917424D01*
X67638250Y-168214872D02*
X67642872Y-168218578D01*
X131930965Y-138903887D02*
X131854068Y-138688967D01*
X130725711Y-135719678D02*
X130725549Y-135719297D01*
X133098929Y-166229336D02*
X133099820Y-166223880D01*
X133796535Y-150265828D02*
X133796530Y-150265397D01*
X67422079Y-140792726D02*
X67341726Y-141022168D01*
X70810582Y-161340889D02*
X70959220Y-161391344D01*
X67172035Y-167535436D02*
X67179215Y-167558703D01*
X68911770Y-168633687D02*
X68915921Y-168634234D01*
X108250342Y-167463861D02*
X108250697Y-167463870D01*
X130996286Y-136382522D02*
X130995796Y-136381254D01*
X132408736Y-140302443D02*
X132408440Y-140301570D01*
X116804836Y-63851706D02*
X116781706Y-63874836D01*
X129182972Y-63948588D02*
X129162221Y-63923303D01*
X131132914Y-136743564D02*
X131132850Y-136743393D01*
X125429305Y-168551210D02*
X125433279Y-168551571D01*
X67912889Y-139348327D02*
X67912045Y-139350754D01*
X67181290Y-141482487D02*
X67181086Y-141483079D01*
X132388555Y-140242660D02*
X132319141Y-140034816D01*
X133790244Y-149805570D02*
X133790237Y-149805127D01*
X132394125Y-140259242D02*
X132392509Y-140254445D01*
X132573492Y-168029558D02*
X132576513Y-168026656D01*
X117178695Y-167810369D02*
X117180295Y-167810473D01*
X130582647Y-135382691D02*
X130582586Y-135382547D01*
X69992259Y-133913105D02*
X69991497Y-133915367D01*
X133589578Y-144966566D02*
X133567652Y-144750857D01*
X133440766Y-143807759D02*
X133439498Y-143800001D01*
X67031074Y-141928087D02*
X67029376Y-141933313D01*
X68389429Y-138021366D02*
X68389006Y-138022510D01*
X69562161Y-135039284D02*
X69561862Y-135039999D01*
X66365562Y-145498810D02*
X66365476Y-145500037D01*
X69826347Y-134377609D02*
X69825730Y-134379243D01*
X116558834Y-64233245D02*
X116548319Y-64264219D01*
X67692694Y-168257507D02*
X67696902Y-168260636D01*
X66601959Y-143558876D02*
X66600045Y-143569213D01*
X69911984Y-134144573D02*
X69911287Y-134146523D01*
X132234897Y-168309576D02*
X132241678Y-168304887D01*
X133163430Y-142559607D02*
X133162882Y-142557668D01*
X71348528Y-161651471D02*
X71452024Y-161769486D01*
X70104865Y-133589907D02*
X70085946Y-133621621D01*
X68090362Y-168466664D02*
X68121346Y-168476601D01*
X107195721Y-167437890D02*
X107197703Y-167437934D01*
X69232207Y-168669726D02*
X69247868Y-168671346D01*
X131878653Y-168476601D02*
X131909637Y-168466664D01*
X133219899Y-142764565D02*
X133219324Y-142762390D01*
X66279273Y-157062698D02*
X66279277Y-157062869D01*
X66366957Y-145479924D02*
X66366539Y-145485404D01*
X67423996Y-140787241D02*
X67423901Y-140787514D01*
X112282176Y-167590791D02*
X112282503Y-167590803D01*
X69499606Y-135188450D02*
X69498617Y-135190798D01*
X130421611Y-135000277D02*
X130419984Y-134996355D01*
X66519644Y-163166526D02*
X66519756Y-163168053D01*
X133099820Y-166223880D02*
X133100016Y-166222676D01*
X97967945Y-167357657D02*
X97968385Y-167357654D01*
X132718442Y-167829688D02*
X132724516Y-167817751D01*
X84799409Y-167709721D02*
X85730210Y-167669278D01*
X128514241Y-63576951D02*
X128481688Y-63573745D01*
X131738481Y-168516230D02*
X131744815Y-168514622D01*
X117450952Y-63571605D02*
X117418311Y-63573745D01*
X133216136Y-142750447D02*
X133213485Y-142740681D01*
X133538455Y-144495105D02*
X133537528Y-144487668D01*
X133653495Y-159551250D02*
X133653555Y-159549302D01*
X67217551Y-167674236D02*
X67219703Y-167680277D01*
X69624311Y-168702759D02*
X69627192Y-168702988D01*
X120001704Y-168028995D02*
X120002475Y-168029062D01*
X124601500Y-168474542D02*
X124603997Y-168474779D01*
X71659110Y-162189417D02*
X71689733Y-162343368D01*
X66212845Y-154306573D02*
X66212852Y-154307047D01*
X66314728Y-146341643D02*
X66314553Y-146345185D01*
X107202207Y-167438036D02*
X107202567Y-167438044D01*
X111304725Y-167556051D02*
X111305057Y-167556063D01*
X66481233Y-162604034D02*
X66481307Y-162605281D01*
X133713498Y-146985733D02*
X133713476Y-146985183D01*
X131132854Y-136743391D02*
X131132842Y-136743374D01*
X130998486Y-136388237D02*
X130996286Y-136382522D01*
X133782407Y-149351318D02*
X133782398Y-149350864D01*
X69267015Y-168673204D02*
X69270500Y-168673528D01*
X98964458Y-167352051D02*
X98964918Y-167352048D01*
X69501841Y-135183131D02*
X69500850Y-135185489D01*
X131629887Y-168541993D02*
X131703577Y-168524808D01*
X133507240Y-144252611D02*
X133478641Y-144051213D01*
X67684796Y-140022995D02*
X67682137Y-140030981D01*
X132897884Y-141714592D02*
X132897591Y-141713714D01*
X66433420Y-144740621D02*
X66433253Y-144742190D01*
X130008502Y-133915367D02*
X130007740Y-133913105D01*
X66348094Y-145752200D02*
X66347770Y-145757042D01*
X66193858Y-152224923D02*
X66193860Y-152226890D01*
X66263991Y-156467967D02*
X66263997Y-156468180D01*
X66836569Y-142559607D02*
X66834121Y-142568331D01*
X133220422Y-165448821D02*
X133220443Y-165448683D01*
X97971247Y-167357634D02*
X97973446Y-167357620D01*
X130208487Y-134469115D02*
X130207861Y-134467482D01*
X103082563Y-167367253D02*
X103084626Y-167367277D01*
X66195351Y-151231130D02*
X66195350Y-151231547D01*
X69131993Y-136061220D02*
X69072904Y-136207121D01*
X81873892Y-167874768D02*
X81927311Y-167870875D01*
X66595137Y-143596808D02*
X66562373Y-143788796D01*
X102023277Y-167357600D02*
X102023712Y-167357603D01*
X120007478Y-168029499D02*
X120011332Y-168029838D01*
X67010812Y-166853417D02*
X67013106Y-166865173D01*
X131289991Y-137161622D02*
X131289865Y-137161287D01*
X69664415Y-134790704D02*
X69664004Y-134791721D01*
X133442287Y-143817250D02*
X133441045Y-143809483D01*
X129985032Y-133844766D02*
X129980859Y-133831990D01*
X128827383Y-63666373D02*
X128797588Y-63652873D01*
X70656631Y-161310266D02*
X70810582Y-161340889D01*
X132739917Y-141255436D02*
X132739432Y-141254046D01*
X69911287Y-134146523D02*
X69907792Y-134156269D01*
X69136182Y-136050959D02*
X69135827Y-136051824D01*
X107219673Y-167438441D02*
X107220033Y-167438450D01*
X130932236Y-136219943D02*
X130931808Y-136218869D01*
X78087743Y-168209770D02*
X78088015Y-168209744D01*
X132576725Y-140789307D02*
X132576627Y-140789029D01*
X66597352Y-143584152D02*
X66595535Y-143594507D01*
X66448057Y-162035039D02*
X66448114Y-162036074D01*
X129303626Y-64142616D02*
X129289158Y-64113279D01*
X66390913Y-160807227D02*
X66391035Y-160810338D01*
X68067304Y-138908744D02*
X68067151Y-138909173D01*
X70085946Y-133621621D02*
X70075164Y-133656528D01*
X133796498Y-150262963D02*
X133790279Y-149808023D01*
X66346591Y-159554022D02*
X66346652Y-159555920D01*
X67108142Y-167300522D02*
X67109177Y-167304831D01*
X130140068Y-134287647D02*
X130136110Y-134276959D01*
X132892971Y-141700011D02*
X132892667Y-141699118D01*
X68630694Y-137373109D02*
X68630692Y-137373115D01*
X67954901Y-168415235D02*
X67962366Y-168418548D01*
X66435323Y-144723308D02*
X66435147Y-144724875D01*
X66286187Y-146993739D02*
X66286167Y-146994264D01*
X112306336Y-167591679D02*
X112306672Y-167591692D01*
X130002812Y-133898395D02*
X129991346Y-133863923D01*
X66956356Y-166557483D02*
X66957842Y-166565915D01*
X69560217Y-135043929D02*
X69559919Y-135044642D01*
X132658429Y-141022612D02*
X132658338Y-141022353D01*
X132313985Y-140019336D02*
X132313919Y-140019135D01*
X128483355Y-168749651D02*
X128493943Y-168749800D01*
X133442560Y-143818976D02*
X133442287Y-143817250D01*
X126233865Y-168619962D02*
X126235125Y-168620062D01*
X67007588Y-166836412D02*
X67008077Y-166839029D01*
X66607216Y-164164071D02*
X66608263Y-164174479D01*
X69997187Y-133898395D02*
X69996432Y-133900658D01*
X133480954Y-163158119D02*
X133517373Y-162626013D01*
X66203469Y-150265397D02*
X66203464Y-150265828D01*
X66222757Y-154845334D02*
X66222768Y-154845838D01*
X116904540Y-63767114D02*
X116878588Y-63787027D01*
X94875282Y-167396016D02*
X94875670Y-167396010D01*
X131134101Y-136746725D02*
X131134039Y-136746559D01*
X133735708Y-156479266D02*
X133735713Y-156479066D01*
X67114997Y-167328502D02*
X67119912Y-167347816D01*
X110272277Y-167522109D02*
X110274101Y-167522165D01*
X69792138Y-134467482D02*
X69791512Y-134469115D01*
X132424077Y-168163503D02*
X132427771Y-168160402D01*
X132247317Y-168300931D02*
X132272519Y-168282988D01*
X112288770Y-167591030D02*
X112302238Y-167591527D01*
X66559233Y-143807759D02*
X66558954Y-143809483D01*
X80909297Y-167950285D02*
X80951470Y-167946814D01*
X66779452Y-165448004D02*
X66779468Y-165448104D01*
X68145931Y-138688967D02*
X68069034Y-138903887D01*
X129810582Y-161340889D02*
X129959220Y-161391344D01*
X114267289Y-167669170D02*
X114267615Y-167669184D01*
X78071627Y-168211346D02*
X78082628Y-168210269D01*
X108231414Y-167463368D02*
X108233311Y-167463416D01*
X131949109Y-168453187D02*
X131970468Y-168445271D01*
X132240090Y-139796881D02*
X132239116Y-139793973D01*
X68865975Y-136746520D02*
X68865968Y-136746517D01*
X69421534Y-135372838D02*
X69421475Y-135372975D01*
X133672294Y-158919083D02*
X133672303Y-158918774D01*
X66562776Y-163700254D02*
X66562945Y-163702122D01*
X68308865Y-138240387D02*
X68308750Y-138240698D01*
X114267615Y-167669184D02*
X114269459Y-167669264D01*
X71608655Y-162040779D02*
X71659110Y-162189417D01*
X133765460Y-155372354D02*
X133765514Y-155370027D01*
X81856307Y-167876084D02*
X81857610Y-167875985D01*
X70077041Y-168730066D02*
X70079408Y-168730200D01*
X110297004Y-167522887D02*
X110298834Y-167522947D01*
X130360782Y-134852665D02*
X130358504Y-134847084D01*
X119090702Y-167950285D02*
X119091731Y-167950370D01*
X68389523Y-138021113D02*
X68389429Y-138021366D01*
X120002475Y-168029062D02*
X120006710Y-168029432D01*
X108226670Y-167463248D02*
X108227022Y-167463257D01*
X67429222Y-140772258D02*
X67429122Y-140772544D01*
X73757903Y-168620603D02*
X73759158Y-168620507D01*
X66560501Y-143800001D02*
X66559233Y-143807759D01*
X133804649Y-151231547D02*
X133804648Y-151231130D01*
X133739262Y-147711928D02*
X133739221Y-147710642D01*
X133751182Y-155912305D02*
X133751193Y-155911901D01*
X133713612Y-146988554D02*
X133713591Y-146988045D01*
X130498158Y-135183131D02*
X130497979Y-135182704D01*
X133705401Y-157670806D02*
X133705403Y-157670728D01*
X70090038Y-168730777D02*
X70092407Y-168730900D01*
X96940477Y-167367004D02*
X96940901Y-167367000D01*
X84796877Y-167709832D02*
X84797211Y-167709817D01*
X66327649Y-158917084D02*
X66327659Y-158917424D01*
X66193860Y-152227299D02*
X66193864Y-152229307D01*
X130341091Y-168705303D02*
X130343978Y-168705108D01*
X67835615Y-139573038D02*
X67834705Y-139575706D01*
X116548319Y-64264219D02*
X116538824Y-64295521D01*
X130216356Y-134489505D02*
X130215723Y-134487874D01*
X116853303Y-63807778D02*
X116828710Y-63829346D01*
X68710008Y-137161622D02*
X68709867Y-137162000D01*
X68550581Y-137587365D02*
X68550301Y-137588114D01*
X132983488Y-166882145D02*
X132984019Y-166879533D01*
X69498617Y-135190798D02*
X69498439Y-135191221D01*
X133039966Y-166578075D02*
X133040306Y-166576206D01*
X133032368Y-142124944D02*
X132970996Y-141934467D01*
X133099897Y-142343069D02*
X133099387Y-142341388D01*
X66237071Y-148497246D02*
X66237058Y-148497728D01*
X70019140Y-133831990D02*
X70014967Y-133844766D01*
X133552546Y-162023639D02*
X133581853Y-161437582D01*
X131061068Y-136552193D02*
X131059947Y-136549231D01*
X66895047Y-142359953D02*
X66894547Y-142361646D01*
X69744163Y-134590973D02*
X69743644Y-134592295D01*
X70092407Y-168730900D02*
X70103036Y-168731427D01*
X119104591Y-167951449D02*
X119110249Y-167951932D01*
X110274101Y-167522165D02*
X110274438Y-167522175D01*
X67612971Y-168194309D02*
X67617550Y-168198071D01*
X133632623Y-160180830D02*
X133632641Y-160180290D01*
X80958161Y-167946270D02*
X80959186Y-167946187D01*
X68226217Y-138466881D02*
X68148414Y-138682064D01*
X128481006Y-168749612D02*
X128483355Y-168749651D01*
X128506880Y-168749928D02*
X128509229Y-168749944D01*
X105152637Y-167396494D02*
X105153025Y-167396501D01*
X117073103Y-167803908D02*
X117081106Y-167804372D01*
X91747580Y-167463916D02*
X91749302Y-167463870D01*
X131088229Y-168633687D02*
X131106901Y-168631147D01*
X133735934Y-156470724D02*
X133735940Y-156470512D01*
X132819160Y-167563864D02*
X132820784Y-167558703D01*
X121933765Y-168211878D02*
X122840841Y-168301742D01*
X66599625Y-143571511D02*
X66597760Y-143581858D01*
X69582091Y-134991340D02*
X69581795Y-134992056D01*
X66521039Y-163184851D02*
X66561006Y-163679687D01*
X67448039Y-168049968D02*
X67452861Y-168054479D01*
X91749657Y-167463861D02*
X91751624Y-167463809D01*
X133800443Y-153262562D02*
X133800464Y-153260534D01*
X93816660Y-167415874D02*
X93831929Y-167415564D01*
X133478960Y-163184851D02*
X133479081Y-163183318D01*
X66902377Y-166237214D02*
X66954258Y-166545304D01*
X133653408Y-159554022D02*
X133653422Y-159553577D01*
X105150321Y-167396453D02*
X105150699Y-167396459D01*
X131211335Y-136952244D02*
X131211287Y-136952117D01*
X120971310Y-168118669D02*
X120974162Y-168118938D01*
X66286408Y-146988045D02*
X66286387Y-146988554D01*
X68307651Y-138243697D02*
X68307543Y-138243990D01*
X107224503Y-167438558D02*
X108226670Y-167463248D01*
X73031874Y-168675209D02*
X73033598Y-168675082D01*
X121002961Y-168121673D02*
X121005793Y-168121946D01*
X91768941Y-167463359D02*
X91770727Y-167463313D01*
X67517444Y-140518195D02*
X67516360Y-140521344D01*
X132165496Y-139576300D02*
X132165294Y-139575706D01*
X106188351Y-167415978D02*
X106190394Y-167416022D01*
X66346504Y-159551250D02*
X66346516Y-159551641D01*
X67962366Y-168418548D02*
X67976953Y-168424749D01*
X80895408Y-167951449D02*
X80896435Y-167951362D01*
X130335584Y-134790704D02*
X130333331Y-134785117D01*
X85752743Y-167668325D02*
X85754439Y-167668255D01*
X66608263Y-164174479D02*
X66608501Y-164176799D01*
X116759346Y-63898710D02*
X116737778Y-63923303D01*
X66248444Y-148100835D02*
X66248433Y-148101202D01*
X102050513Y-167357793D02*
X102052910Y-167357812D01*
X132805165Y-167607529D02*
X132819160Y-167563864D01*
X132989690Y-166850803D02*
X132991922Y-166839029D01*
X66314514Y-146345977D02*
X66314344Y-146349521D01*
X129478688Y-168748248D02*
X129881592Y-168732115D01*
X68370112Y-168541993D02*
X68375714Y-168543265D01*
X106167698Y-167415557D02*
X106168070Y-167415564D01*
X129451189Y-168749099D02*
X129473690Y-168748423D01*
X69939578Y-134066586D02*
X69935228Y-134078969D01*
M02*
