G04 #@! TF.GenerationSoftware,KiCad,Pcbnew,7.0.11+dfsg-1build4*
G04 #@! TF.CreationDate,2026-10-02T21:05:08+00:00*
G04 #@! TF.ProjectId,struthio_one_slim,73747275-7468-4696-9f5f-6f6e655f736c,rev?*
G04 #@! TF.SameCoordinates,Original*
G04 #@! TF.FileFunction,Legend,Top*
G04 #@! TF.FilePolarity,Positive*
%FSLAX46Y46*%
G04 Gerber Fmt 4.6, Leading zero omitted, Abs format (unit mm)*
G04 Created by KiCad (PCBNEW 7.0.11+dfsg-1build4) date 2026-10-02 21:05:08*
%MOMM*%
%LPD*%
G01*
G04 APERTURE LIST*
G04 Aperture macros list*
%AMRoundRect*
0 Rectangle with rounded corners*
0 $1 Rounding radius*
0 $2 $3 $4 $5 $6 $7 $8 $9 X,Y pos of 4 corners*
0 Add a 4 corners polygon primitive as box body*
4,1,4,$2,$3,$4,$5,$6,$7,$8,$9,$2,$3,0*
0 Add four circle primitives for the rounded corners*
1,1,$1+$1,$2,$3*
1,1,$1+$1,$4,$5*
1,1,$1+$1,$6,$7*
1,1,$1+$1,$8,$9*
0 Add four rect primitives between the rounded corners*
20,1,$1+$1,$2,$3,$4,$5,0*
20,1,$1+$1,$4,$5,$6,$7,0*
20,1,$1+$1,$6,$7,$8,$9,0*
20,1,$1+$1,$8,$9,$2,$3,0*%
G04 Aperture macros list end*
%ADD10C,0.150000*%
%ADD11C,0.210000*%
%ADD12C,0.240000*%
%ADD13C,0.120000*%
%ADD14RoundRect,0.250000X1.500000X-0.250000X1.500000X0.250000X-1.500000X0.250000X-1.500000X-0.250000X0*%
%ADD15RoundRect,0.250001X1.449999X-0.499999X1.449999X0.499999X-1.449999X0.499999X-1.449999X-0.499999X0*%
%ADD16R,1.700000X1.700000*%
%ADD17C,1.700000*%
%ADD18R,1.000000X0.750000*%
%ADD19RoundRect,0.150000X-0.587500X-0.150000X0.587500X-0.150000X0.587500X0.150000X-0.587500X0.150000X0*%
G04 APERTURE END LIST*
D10*
X120430000Y-65770000D02*
X125870000Y-65770000D01*
X120000000Y-139100000D02*
X116000000Y-139100000D01*
X80000000Y-139100000D02*
X80000000Y-144300000D01*
X82000000Y-156400000D02*
X82000000Y-161600000D01*
X120000000Y-144300000D02*
X120000000Y-139100000D01*
X116000000Y-144300000D02*
X120000000Y-144300000D01*
X86000000Y-156400000D02*
X82000000Y-156400000D01*
X125870000Y-106670000D02*
X120430000Y-106670000D01*
X120430000Y-106670000D02*
X120430000Y-65770000D01*
X118000000Y-161600000D02*
X118000000Y-156400000D01*
X125870000Y-65770000D02*
X125870000Y-106670000D01*
X80000000Y-144300000D02*
X84000000Y-144300000D01*
X82000000Y-161600000D02*
X86000000Y-161600000D01*
X116000000Y-139100000D02*
X116000000Y-144300000D01*
X118000000Y-156400000D02*
X114000000Y-156400000D01*
X84000000Y-144300000D02*
X84000000Y-139100000D01*
X114000000Y-161600000D02*
X118000000Y-161600000D01*
X86000000Y-161600000D02*
X86000000Y-156400000D01*
X114000000Y-156400000D02*
X114000000Y-161600000D01*
X84000000Y-139100000D02*
X80000000Y-139100000D01*
D11*
X96016667Y-139703413D02*
X97083334Y-139703413D01*
X96550000Y-140236746D02*
X96550000Y-139170080D01*
D10*
X94119047Y-147454819D02*
X94119047Y-146788152D01*
X94119047Y-146978628D02*
X94166666Y-146883390D01*
X94166666Y-146883390D02*
X94214285Y-146835771D01*
X94214285Y-146835771D02*
X94309523Y-146788152D01*
X94309523Y-146788152D02*
X94404761Y-146788152D01*
X95119047Y-147407200D02*
X95023809Y-147454819D01*
X95023809Y-147454819D02*
X94833333Y-147454819D01*
X94833333Y-147454819D02*
X94738095Y-147407200D01*
X94738095Y-147407200D02*
X94690476Y-147311961D01*
X94690476Y-147311961D02*
X94690476Y-146931009D01*
X94690476Y-146931009D02*
X94738095Y-146835771D01*
X94738095Y-146835771D02*
X94833333Y-146788152D01*
X94833333Y-146788152D02*
X95023809Y-146788152D01*
X95023809Y-146788152D02*
X95119047Y-146835771D01*
X95119047Y-146835771D02*
X95166666Y-146931009D01*
X95166666Y-146931009D02*
X95166666Y-147026247D01*
X95166666Y-147026247D02*
X94690476Y-147121485D01*
X95500000Y-146788152D02*
X95738095Y-147454819D01*
X95738095Y-147454819D02*
X95976190Y-146788152D01*
X97071429Y-147407200D02*
X97214286Y-147454819D01*
X97214286Y-147454819D02*
X97452381Y-147454819D01*
X97452381Y-147454819D02*
X97547619Y-147407200D01*
X97547619Y-147407200D02*
X97595238Y-147359580D01*
X97595238Y-147359580D02*
X97642857Y-147264342D01*
X97642857Y-147264342D02*
X97642857Y-147169104D01*
X97642857Y-147169104D02*
X97595238Y-147073866D01*
X97595238Y-147073866D02*
X97547619Y-147026247D01*
X97547619Y-147026247D02*
X97452381Y-146978628D01*
X97452381Y-146978628D02*
X97261905Y-146931009D01*
X97261905Y-146931009D02*
X97166667Y-146883390D01*
X97166667Y-146883390D02*
X97119048Y-146835771D01*
X97119048Y-146835771D02*
X97071429Y-146740533D01*
X97071429Y-146740533D02*
X97071429Y-146645295D01*
X97071429Y-146645295D02*
X97119048Y-146550057D01*
X97119048Y-146550057D02*
X97166667Y-146502438D01*
X97166667Y-146502438D02*
X97261905Y-146454819D01*
X97261905Y-146454819D02*
X97500000Y-146454819D01*
X97500000Y-146454819D02*
X97642857Y-146502438D01*
X98023810Y-146550057D02*
X98071429Y-146502438D01*
X98071429Y-146502438D02*
X98166667Y-146454819D01*
X98166667Y-146454819D02*
X98404762Y-146454819D01*
X98404762Y-146454819D02*
X98500000Y-146502438D01*
X98500000Y-146502438D02*
X98547619Y-146550057D01*
X98547619Y-146550057D02*
X98595238Y-146645295D01*
X98595238Y-146645295D02*
X98595238Y-146740533D01*
X98595238Y-146740533D02*
X98547619Y-146883390D01*
X98547619Y-146883390D02*
X97976191Y-147454819D01*
X97976191Y-147454819D02*
X98595238Y-147454819D01*
X100738096Y-146454819D02*
X100833334Y-146454819D01*
X100833334Y-146454819D02*
X100928572Y-146502438D01*
X100928572Y-146502438D02*
X100976191Y-146550057D01*
X100976191Y-146550057D02*
X101023810Y-146645295D01*
X101023810Y-146645295D02*
X101071429Y-146835771D01*
X101071429Y-146835771D02*
X101071429Y-147073866D01*
X101071429Y-147073866D02*
X101023810Y-147264342D01*
X101023810Y-147264342D02*
X100976191Y-147359580D01*
X100976191Y-147359580D02*
X100928572Y-147407200D01*
X100928572Y-147407200D02*
X100833334Y-147454819D01*
X100833334Y-147454819D02*
X100738096Y-147454819D01*
X100738096Y-147454819D02*
X100642858Y-147407200D01*
X100642858Y-147407200D02*
X100595239Y-147359580D01*
X100595239Y-147359580D02*
X100547620Y-147264342D01*
X100547620Y-147264342D02*
X100500001Y-147073866D01*
X100500001Y-147073866D02*
X100500001Y-146835771D01*
X100500001Y-146835771D02*
X100547620Y-146645295D01*
X100547620Y-146645295D02*
X100595239Y-146550057D01*
X100595239Y-146550057D02*
X100642858Y-146502438D01*
X100642858Y-146502438D02*
X100738096Y-146454819D01*
X101500001Y-147359580D02*
X101547620Y-147407200D01*
X101547620Y-147407200D02*
X101500001Y-147454819D01*
X101500001Y-147454819D02*
X101452382Y-147407200D01*
X101452382Y-147407200D02*
X101500001Y-147359580D01*
X101500001Y-147359580D02*
X101500001Y-147454819D01*
X102119048Y-146883390D02*
X102023810Y-146835771D01*
X102023810Y-146835771D02*
X101976191Y-146788152D01*
X101976191Y-146788152D02*
X101928572Y-146692914D01*
X101928572Y-146692914D02*
X101928572Y-146645295D01*
X101928572Y-146645295D02*
X101976191Y-146550057D01*
X101976191Y-146550057D02*
X102023810Y-146502438D01*
X102023810Y-146502438D02*
X102119048Y-146454819D01*
X102119048Y-146454819D02*
X102309524Y-146454819D01*
X102309524Y-146454819D02*
X102404762Y-146502438D01*
X102404762Y-146502438D02*
X102452381Y-146550057D01*
X102452381Y-146550057D02*
X102500000Y-146645295D01*
X102500000Y-146645295D02*
X102500000Y-146692914D01*
X102500000Y-146692914D02*
X102452381Y-146788152D01*
X102452381Y-146788152D02*
X102404762Y-146835771D01*
X102404762Y-146835771D02*
X102309524Y-146883390D01*
X102309524Y-146883390D02*
X102119048Y-146883390D01*
X102119048Y-146883390D02*
X102023810Y-146931009D01*
X102023810Y-146931009D02*
X101976191Y-146978628D01*
X101976191Y-146978628D02*
X101928572Y-147073866D01*
X101928572Y-147073866D02*
X101928572Y-147264342D01*
X101928572Y-147264342D02*
X101976191Y-147359580D01*
X101976191Y-147359580D02*
X102023810Y-147407200D01*
X102023810Y-147407200D02*
X102119048Y-147454819D01*
X102119048Y-147454819D02*
X102309524Y-147454819D01*
X102309524Y-147454819D02*
X102404762Y-147407200D01*
X102404762Y-147407200D02*
X102452381Y-147359580D01*
X102452381Y-147359580D02*
X102500000Y-147264342D01*
X102500000Y-147264342D02*
X102500000Y-147073866D01*
X102500000Y-147073866D02*
X102452381Y-146978628D01*
X102452381Y-146978628D02*
X102404762Y-146931009D01*
X102404762Y-146931009D02*
X102309524Y-146883390D01*
X103690477Y-147454819D02*
X103690477Y-146788152D01*
X103690477Y-146883390D02*
X103738096Y-146835771D01*
X103738096Y-146835771D02*
X103833334Y-146788152D01*
X103833334Y-146788152D02*
X103976191Y-146788152D01*
X103976191Y-146788152D02*
X104071429Y-146835771D01*
X104071429Y-146835771D02*
X104119048Y-146931009D01*
X104119048Y-146931009D02*
X104119048Y-147454819D01*
X104119048Y-146931009D02*
X104166667Y-146835771D01*
X104166667Y-146835771D02*
X104261905Y-146788152D01*
X104261905Y-146788152D02*
X104404762Y-146788152D01*
X104404762Y-146788152D02*
X104500001Y-146835771D01*
X104500001Y-146835771D02*
X104547620Y-146931009D01*
X104547620Y-146931009D02*
X104547620Y-147454819D01*
X105023810Y-147454819D02*
X105023810Y-146788152D01*
X105023810Y-146883390D02*
X105071429Y-146835771D01*
X105071429Y-146835771D02*
X105166667Y-146788152D01*
X105166667Y-146788152D02*
X105309524Y-146788152D01*
X105309524Y-146788152D02*
X105404762Y-146835771D01*
X105404762Y-146835771D02*
X105452381Y-146931009D01*
X105452381Y-146931009D02*
X105452381Y-147454819D01*
X105452381Y-146931009D02*
X105500000Y-146835771D01*
X105500000Y-146835771D02*
X105595238Y-146788152D01*
X105595238Y-146788152D02*
X105738095Y-146788152D01*
X105738095Y-146788152D02*
X105833334Y-146835771D01*
X105833334Y-146835771D02*
X105880953Y-146931009D01*
X105880953Y-146931009D02*
X105880953Y-147454819D01*
X102499999Y-141331009D02*
X102642856Y-141378628D01*
X102642856Y-141378628D02*
X102690475Y-141426247D01*
X102690475Y-141426247D02*
X102738094Y-141521485D01*
X102738094Y-141521485D02*
X102738094Y-141664342D01*
X102738094Y-141664342D02*
X102690475Y-141759580D01*
X102690475Y-141759580D02*
X102642856Y-141807200D01*
X102642856Y-141807200D02*
X102547618Y-141854819D01*
X102547618Y-141854819D02*
X102166666Y-141854819D01*
X102166666Y-141854819D02*
X102166666Y-140854819D01*
X102166666Y-140854819D02*
X102499999Y-140854819D01*
X102499999Y-140854819D02*
X102595237Y-140902438D01*
X102595237Y-140902438D02*
X102642856Y-140950057D01*
X102642856Y-140950057D02*
X102690475Y-141045295D01*
X102690475Y-141045295D02*
X102690475Y-141140533D01*
X102690475Y-141140533D02*
X102642856Y-141235771D01*
X102642856Y-141235771D02*
X102595237Y-141283390D01*
X102595237Y-141283390D02*
X102499999Y-141331009D01*
X102499999Y-141331009D02*
X102166666Y-141331009D01*
X103119047Y-141569104D02*
X103595237Y-141569104D01*
X103023809Y-141854819D02*
X103357142Y-140854819D01*
X103357142Y-140854819D02*
X103690475Y-141854819D01*
X103880952Y-140854819D02*
X104452380Y-140854819D01*
X104166666Y-141854819D02*
X104166666Y-140854819D01*
X104642857Y-140854819D02*
X105214285Y-140854819D01*
X104928571Y-141854819D02*
X104928571Y-140854819D01*
X105547619Y-141331009D02*
X105880952Y-141331009D01*
X106023809Y-141854819D02*
X105547619Y-141854819D01*
X105547619Y-141854819D02*
X105547619Y-140854819D01*
X105547619Y-140854819D02*
X106023809Y-140854819D01*
X107023809Y-141854819D02*
X106690476Y-141378628D01*
X106452381Y-141854819D02*
X106452381Y-140854819D01*
X106452381Y-140854819D02*
X106833333Y-140854819D01*
X106833333Y-140854819D02*
X106928571Y-140902438D01*
X106928571Y-140902438D02*
X106976190Y-140950057D01*
X106976190Y-140950057D02*
X107023809Y-141045295D01*
X107023809Y-141045295D02*
X107023809Y-141188152D01*
X107023809Y-141188152D02*
X106976190Y-141283390D01*
X106976190Y-141283390D02*
X106928571Y-141331009D01*
X106928571Y-141331009D02*
X106833333Y-141378628D01*
X106833333Y-141378628D02*
X106452381Y-141378628D01*
X107642857Y-141378628D02*
X107642857Y-141854819D01*
X107309524Y-140854819D02*
X107642857Y-141378628D01*
X107642857Y-141378628D02*
X107976190Y-140854819D01*
X127155714Y-67624819D02*
X126584286Y-67624819D01*
X126870000Y-67624819D02*
X126870000Y-66624819D01*
X126870000Y-66624819D02*
X126774762Y-66767676D01*
X126774762Y-66767676D02*
X126679524Y-66862914D01*
X126679524Y-66862914D02*
X126584286Y-66910533D01*
D12*
X88304761Y-144651520D02*
X88533333Y-144727710D01*
X88533333Y-144727710D02*
X88914285Y-144727710D01*
X88914285Y-144727710D02*
X89066666Y-144651520D01*
X89066666Y-144651520D02*
X89142857Y-144575329D01*
X89142857Y-144575329D02*
X89219047Y-144422948D01*
X89219047Y-144422948D02*
X89219047Y-144270567D01*
X89219047Y-144270567D02*
X89142857Y-144118186D01*
X89142857Y-144118186D02*
X89066666Y-144041996D01*
X89066666Y-144041996D02*
X88914285Y-143965805D01*
X88914285Y-143965805D02*
X88609523Y-143889615D01*
X88609523Y-143889615D02*
X88457142Y-143813424D01*
X88457142Y-143813424D02*
X88380952Y-143737234D01*
X88380952Y-143737234D02*
X88304761Y-143584853D01*
X88304761Y-143584853D02*
X88304761Y-143432472D01*
X88304761Y-143432472D02*
X88380952Y-143280091D01*
X88380952Y-143280091D02*
X88457142Y-143203900D01*
X88457142Y-143203900D02*
X88609523Y-143127710D01*
X88609523Y-143127710D02*
X88990476Y-143127710D01*
X88990476Y-143127710D02*
X89219047Y-143203900D01*
X89676190Y-143127710D02*
X90590476Y-143127710D01*
X90133333Y-144727710D02*
X90133333Y-143127710D01*
X92038096Y-144727710D02*
X91504762Y-143965805D01*
X91123810Y-144727710D02*
X91123810Y-143127710D01*
X91123810Y-143127710D02*
X91733334Y-143127710D01*
X91733334Y-143127710D02*
X91885715Y-143203900D01*
X91885715Y-143203900D02*
X91961905Y-143280091D01*
X91961905Y-143280091D02*
X92038096Y-143432472D01*
X92038096Y-143432472D02*
X92038096Y-143661043D01*
X92038096Y-143661043D02*
X91961905Y-143813424D01*
X91961905Y-143813424D02*
X91885715Y-143889615D01*
X91885715Y-143889615D02*
X91733334Y-143965805D01*
X91733334Y-143965805D02*
X91123810Y-143965805D01*
X92723810Y-143127710D02*
X92723810Y-144422948D01*
X92723810Y-144422948D02*
X92800000Y-144575329D01*
X92800000Y-144575329D02*
X92876191Y-144651520D01*
X92876191Y-144651520D02*
X93028572Y-144727710D01*
X93028572Y-144727710D02*
X93333334Y-144727710D01*
X93333334Y-144727710D02*
X93485715Y-144651520D01*
X93485715Y-144651520D02*
X93561905Y-144575329D01*
X93561905Y-144575329D02*
X93638096Y-144422948D01*
X93638096Y-144422948D02*
X93638096Y-143127710D01*
X94171428Y-143127710D02*
X95085714Y-143127710D01*
X94628571Y-144727710D02*
X94628571Y-143127710D01*
X95619048Y-144727710D02*
X95619048Y-143127710D01*
X95619048Y-143889615D02*
X96533334Y-143889615D01*
X96533334Y-144727710D02*
X96533334Y-143127710D01*
X97295238Y-144727710D02*
X97295238Y-143127710D01*
X98361905Y-143127710D02*
X98666667Y-143127710D01*
X98666667Y-143127710D02*
X98819048Y-143203900D01*
X98819048Y-143203900D02*
X98971429Y-143356281D01*
X98971429Y-143356281D02*
X99047619Y-143661043D01*
X99047619Y-143661043D02*
X99047619Y-144194377D01*
X99047619Y-144194377D02*
X98971429Y-144499139D01*
X98971429Y-144499139D02*
X98819048Y-144651520D01*
X98819048Y-144651520D02*
X98666667Y-144727710D01*
X98666667Y-144727710D02*
X98361905Y-144727710D01*
X98361905Y-144727710D02*
X98209524Y-144651520D01*
X98209524Y-144651520D02*
X98057143Y-144499139D01*
X98057143Y-144499139D02*
X97980952Y-144194377D01*
X97980952Y-144194377D02*
X97980952Y-143661043D01*
X97980952Y-143661043D02*
X98057143Y-143356281D01*
X98057143Y-143356281D02*
X98209524Y-143203900D01*
X98209524Y-143203900D02*
X98361905Y-143127710D01*
X101257143Y-143127710D02*
X101561905Y-143127710D01*
X101561905Y-143127710D02*
X101714286Y-143203900D01*
X101714286Y-143203900D02*
X101866667Y-143356281D01*
X101866667Y-143356281D02*
X101942857Y-143661043D01*
X101942857Y-143661043D02*
X101942857Y-144194377D01*
X101942857Y-144194377D02*
X101866667Y-144499139D01*
X101866667Y-144499139D02*
X101714286Y-144651520D01*
X101714286Y-144651520D02*
X101561905Y-144727710D01*
X101561905Y-144727710D02*
X101257143Y-144727710D01*
X101257143Y-144727710D02*
X101104762Y-144651520D01*
X101104762Y-144651520D02*
X100952381Y-144499139D01*
X100952381Y-144499139D02*
X100876190Y-144194377D01*
X100876190Y-144194377D02*
X100876190Y-143661043D01*
X100876190Y-143661043D02*
X100952381Y-143356281D01*
X100952381Y-143356281D02*
X101104762Y-143203900D01*
X101104762Y-143203900D02*
X101257143Y-143127710D01*
X102628571Y-144727710D02*
X102628571Y-143127710D01*
X102628571Y-143127710D02*
X103542857Y-144727710D01*
X103542857Y-144727710D02*
X103542857Y-143127710D01*
X104304761Y-143889615D02*
X104838094Y-143889615D01*
X105066666Y-144727710D02*
X104304761Y-144727710D01*
X104304761Y-144727710D02*
X104304761Y-143127710D01*
X104304761Y-143127710D02*
X105066666Y-143127710D01*
X106895237Y-144651520D02*
X107123809Y-144727710D01*
X107123809Y-144727710D02*
X107504761Y-144727710D01*
X107504761Y-144727710D02*
X107657142Y-144651520D01*
X107657142Y-144651520D02*
X107733333Y-144575329D01*
X107733333Y-144575329D02*
X107809523Y-144422948D01*
X107809523Y-144422948D02*
X107809523Y-144270567D01*
X107809523Y-144270567D02*
X107733333Y-144118186D01*
X107733333Y-144118186D02*
X107657142Y-144041996D01*
X107657142Y-144041996D02*
X107504761Y-143965805D01*
X107504761Y-143965805D02*
X107199999Y-143889615D01*
X107199999Y-143889615D02*
X107047618Y-143813424D01*
X107047618Y-143813424D02*
X106971428Y-143737234D01*
X106971428Y-143737234D02*
X106895237Y-143584853D01*
X106895237Y-143584853D02*
X106895237Y-143432472D01*
X106895237Y-143432472D02*
X106971428Y-143280091D01*
X106971428Y-143280091D02*
X107047618Y-143203900D01*
X107047618Y-143203900D02*
X107199999Y-143127710D01*
X107199999Y-143127710D02*
X107580952Y-143127710D01*
X107580952Y-143127710D02*
X107809523Y-143203900D01*
X109257143Y-144727710D02*
X108495238Y-144727710D01*
X108495238Y-144727710D02*
X108495238Y-143127710D01*
X109790476Y-144727710D02*
X109790476Y-143127710D01*
X110552381Y-144727710D02*
X110552381Y-143127710D01*
X110552381Y-143127710D02*
X111085714Y-144270567D01*
X111085714Y-144270567D02*
X111619048Y-143127710D01*
X111619048Y-143127710D02*
X111619048Y-144727710D01*
D10*
X95654819Y-138333333D02*
X96369104Y-138333333D01*
X96369104Y-138333333D02*
X96511961Y-138380952D01*
X96511961Y-138380952D02*
X96607200Y-138476190D01*
X96607200Y-138476190D02*
X96654819Y-138619047D01*
X96654819Y-138619047D02*
X96654819Y-138714285D01*
X95750057Y-137904761D02*
X95702438Y-137857142D01*
X95702438Y-137857142D02*
X95654819Y-137761904D01*
X95654819Y-137761904D02*
X95654819Y-137523809D01*
X95654819Y-137523809D02*
X95702438Y-137428571D01*
X95702438Y-137428571D02*
X95750057Y-137380952D01*
X95750057Y-137380952D02*
X95845295Y-137333333D01*
X95845295Y-137333333D02*
X95940533Y-137333333D01*
X95940533Y-137333333D02*
X96083390Y-137380952D01*
X96083390Y-137380952D02*
X96654819Y-137952380D01*
X96654819Y-137952380D02*
X96654819Y-137333333D01*
X118300000Y-64278557D02*
X118300000Y-64921414D01*
X118300000Y-64921414D02*
X118257143Y-65049985D01*
X118257143Y-65049985D02*
X118171429Y-65135700D01*
X118171429Y-65135700D02*
X118042857Y-65178557D01*
X118042857Y-65178557D02*
X117957143Y-65178557D01*
X119200000Y-65178557D02*
X118685714Y-65178557D01*
X118942857Y-65178557D02*
X118942857Y-64278557D01*
X118942857Y-64278557D02*
X118857143Y-64407128D01*
X118857143Y-64407128D02*
X118771428Y-64492842D01*
X118771428Y-64492842D02*
X118685714Y-64535700D01*
X80800000Y-142065700D02*
X80928572Y-142108557D01*
X80928572Y-142108557D02*
X81142857Y-142108557D01*
X81142857Y-142108557D02*
X81228572Y-142065700D01*
X81228572Y-142065700D02*
X81271429Y-142022842D01*
X81271429Y-142022842D02*
X81314286Y-141937128D01*
X81314286Y-141937128D02*
X81314286Y-141851414D01*
X81314286Y-141851414D02*
X81271429Y-141765700D01*
X81271429Y-141765700D02*
X81228572Y-141722842D01*
X81228572Y-141722842D02*
X81142857Y-141679985D01*
X81142857Y-141679985D02*
X80971429Y-141637128D01*
X80971429Y-141637128D02*
X80885714Y-141594271D01*
X80885714Y-141594271D02*
X80842857Y-141551414D01*
X80842857Y-141551414D02*
X80800000Y-141465700D01*
X80800000Y-141465700D02*
X80800000Y-141379985D01*
X80800000Y-141379985D02*
X80842857Y-141294271D01*
X80842857Y-141294271D02*
X80885714Y-141251414D01*
X80885714Y-141251414D02*
X80971429Y-141208557D01*
X80971429Y-141208557D02*
X81185714Y-141208557D01*
X81185714Y-141208557D02*
X81314286Y-141251414D01*
X81614286Y-141208557D02*
X81828572Y-142108557D01*
X81828572Y-142108557D02*
X82000000Y-141465700D01*
X82000000Y-141465700D02*
X82171429Y-142108557D01*
X82171429Y-142108557D02*
X82385715Y-141208557D01*
X83200000Y-142108557D02*
X82685714Y-142108557D01*
X82942857Y-142108557D02*
X82942857Y-141208557D01*
X82942857Y-141208557D02*
X82857143Y-141337128D01*
X82857143Y-141337128D02*
X82771428Y-141422842D01*
X82771428Y-141422842D02*
X82685714Y-141465700D01*
X114800000Y-159365700D02*
X114928572Y-159408557D01*
X114928572Y-159408557D02*
X115142857Y-159408557D01*
X115142857Y-159408557D02*
X115228572Y-159365700D01*
X115228572Y-159365700D02*
X115271429Y-159322842D01*
X115271429Y-159322842D02*
X115314286Y-159237128D01*
X115314286Y-159237128D02*
X115314286Y-159151414D01*
X115314286Y-159151414D02*
X115271429Y-159065700D01*
X115271429Y-159065700D02*
X115228572Y-159022842D01*
X115228572Y-159022842D02*
X115142857Y-158979985D01*
X115142857Y-158979985D02*
X114971429Y-158937128D01*
X114971429Y-158937128D02*
X114885714Y-158894271D01*
X114885714Y-158894271D02*
X114842857Y-158851414D01*
X114842857Y-158851414D02*
X114800000Y-158765700D01*
X114800000Y-158765700D02*
X114800000Y-158679985D01*
X114800000Y-158679985D02*
X114842857Y-158594271D01*
X114842857Y-158594271D02*
X114885714Y-158551414D01*
X114885714Y-158551414D02*
X114971429Y-158508557D01*
X114971429Y-158508557D02*
X115185714Y-158508557D01*
X115185714Y-158508557D02*
X115314286Y-158551414D01*
X115614286Y-158508557D02*
X115828572Y-159408557D01*
X115828572Y-159408557D02*
X116000000Y-158765700D01*
X116000000Y-158765700D02*
X116171429Y-159408557D01*
X116171429Y-159408557D02*
X116385715Y-158508557D01*
X117114286Y-158808557D02*
X117114286Y-159408557D01*
X116900000Y-158465700D02*
X116685714Y-159108557D01*
X116685714Y-159108557D02*
X117242857Y-159108557D01*
X116800000Y-142065700D02*
X116928572Y-142108557D01*
X116928572Y-142108557D02*
X117142857Y-142108557D01*
X117142857Y-142108557D02*
X117228572Y-142065700D01*
X117228572Y-142065700D02*
X117271429Y-142022842D01*
X117271429Y-142022842D02*
X117314286Y-141937128D01*
X117314286Y-141937128D02*
X117314286Y-141851414D01*
X117314286Y-141851414D02*
X117271429Y-141765700D01*
X117271429Y-141765700D02*
X117228572Y-141722842D01*
X117228572Y-141722842D02*
X117142857Y-141679985D01*
X117142857Y-141679985D02*
X116971429Y-141637128D01*
X116971429Y-141637128D02*
X116885714Y-141594271D01*
X116885714Y-141594271D02*
X116842857Y-141551414D01*
X116842857Y-141551414D02*
X116800000Y-141465700D01*
X116800000Y-141465700D02*
X116800000Y-141379985D01*
X116800000Y-141379985D02*
X116842857Y-141294271D01*
X116842857Y-141294271D02*
X116885714Y-141251414D01*
X116885714Y-141251414D02*
X116971429Y-141208557D01*
X116971429Y-141208557D02*
X117185714Y-141208557D01*
X117185714Y-141208557D02*
X117314286Y-141251414D01*
X117614286Y-141208557D02*
X117828572Y-142108557D01*
X117828572Y-142108557D02*
X118000000Y-141465700D01*
X118000000Y-141465700D02*
X118171429Y-142108557D01*
X118171429Y-142108557D02*
X118385715Y-141208557D01*
X118685714Y-141294271D02*
X118728571Y-141251414D01*
X118728571Y-141251414D02*
X118814286Y-141208557D01*
X118814286Y-141208557D02*
X119028571Y-141208557D01*
X119028571Y-141208557D02*
X119114286Y-141251414D01*
X119114286Y-141251414D02*
X119157143Y-141294271D01*
X119157143Y-141294271D02*
X119200000Y-141379985D01*
X119200000Y-141379985D02*
X119200000Y-141465700D01*
X119200000Y-141465700D02*
X119157143Y-141594271D01*
X119157143Y-141594271D02*
X118642857Y-142108557D01*
X118642857Y-142108557D02*
X119200000Y-142108557D01*
X82800000Y-159365700D02*
X82928572Y-159408557D01*
X82928572Y-159408557D02*
X83142857Y-159408557D01*
X83142857Y-159408557D02*
X83228572Y-159365700D01*
X83228572Y-159365700D02*
X83271429Y-159322842D01*
X83271429Y-159322842D02*
X83314286Y-159237128D01*
X83314286Y-159237128D02*
X83314286Y-159151414D01*
X83314286Y-159151414D02*
X83271429Y-159065700D01*
X83271429Y-159065700D02*
X83228572Y-159022842D01*
X83228572Y-159022842D02*
X83142857Y-158979985D01*
X83142857Y-158979985D02*
X82971429Y-158937128D01*
X82971429Y-158937128D02*
X82885714Y-158894271D01*
X82885714Y-158894271D02*
X82842857Y-158851414D01*
X82842857Y-158851414D02*
X82800000Y-158765700D01*
X82800000Y-158765700D02*
X82800000Y-158679985D01*
X82800000Y-158679985D02*
X82842857Y-158594271D01*
X82842857Y-158594271D02*
X82885714Y-158551414D01*
X82885714Y-158551414D02*
X82971429Y-158508557D01*
X82971429Y-158508557D02*
X83185714Y-158508557D01*
X83185714Y-158508557D02*
X83314286Y-158551414D01*
X83614286Y-158508557D02*
X83828572Y-159408557D01*
X83828572Y-159408557D02*
X84000000Y-158765700D01*
X84000000Y-158765700D02*
X84171429Y-159408557D01*
X84171429Y-159408557D02*
X84385715Y-158508557D01*
X84642857Y-158508557D02*
X85200000Y-158508557D01*
X85200000Y-158508557D02*
X84900000Y-158851414D01*
X84900000Y-158851414D02*
X85028571Y-158851414D01*
X85028571Y-158851414D02*
X85114286Y-158894271D01*
X85114286Y-158894271D02*
X85157143Y-158937128D01*
X85157143Y-158937128D02*
X85200000Y-159022842D01*
X85200000Y-159022842D02*
X85200000Y-159237128D01*
X85200000Y-159237128D02*
X85157143Y-159322842D01*
X85157143Y-159322842D02*
X85114286Y-159365700D01*
X85114286Y-159365700D02*
X85028571Y-159408557D01*
X85028571Y-159408557D02*
X84771428Y-159408557D01*
X84771428Y-159408557D02*
X84685714Y-159365700D01*
X84685714Y-159365700D02*
X84642857Y-159322842D01*
D13*
G04 #@! TO.C,J2*
X98690000Y-142060000D02*
X98690000Y-141040000D01*
X102940000Y-142060000D02*
X98690000Y-142060000D01*
X98690000Y-141040000D02*
X100290000Y-141040000D01*
X100290000Y-141040000D02*
X100290000Y-139760000D01*
X106510000Y-140340000D02*
X106510000Y-135660000D01*
X100290000Y-139760000D02*
X97400000Y-139760000D01*
X98690000Y-134960000D02*
X100290000Y-134960000D01*
X100290000Y-134960000D02*
X100290000Y-136240000D01*
X98690000Y-133940000D02*
X98690000Y-134960000D01*
X102940000Y-133940000D02*
X98690000Y-133940000D01*
G04 #@! TO.C,Q1*
X93000000Y-136440000D02*
X92350000Y-136440000D01*
X93000000Y-136440000D02*
X93650000Y-136440000D01*
X93000000Y-139560000D02*
X92350000Y-139560000D01*
X93000000Y-139560000D02*
X93650000Y-139560000D01*
X91837500Y-136490000D02*
X91597500Y-136160000D01*
X92077500Y-136160000D01*
X91837500Y-136490000D01*
G36*
X91837500Y-136490000D02*
G01*
X91597500Y-136160000D01*
X92077500Y-136160000D01*
X91837500Y-136490000D01*
G37*
G04 #@! TD*
%LPC*%
D14*
G04 #@! TO.C,J2*
X99150000Y-139000000D03*
X99150000Y-137000000D03*
D15*
X104900000Y-141350000D03*
X104900000Y-134650000D03*
G04 #@! TD*
D16*
G04 #@! TO.C,J1*
X124469999Y-67170000D03*
D17*
X121930001Y-67170000D03*
X124469999Y-69710000D03*
X121930001Y-69710000D03*
X124469999Y-72250000D03*
X121930001Y-72250000D03*
X124469999Y-74790000D03*
X121930001Y-74790000D03*
X124469999Y-77330000D03*
X121930001Y-77330000D03*
X124469999Y-79870000D03*
X121930001Y-79870000D03*
X124469999Y-82410001D03*
X121930001Y-82410001D03*
X124469999Y-84950001D03*
X121930001Y-84950001D03*
X124469999Y-87489999D03*
X121930001Y-87489999D03*
X124469999Y-90029999D03*
X121930001Y-90029999D03*
X124469999Y-92569999D03*
X121930001Y-92569999D03*
X124469999Y-95110000D03*
X121930001Y-95110000D03*
X124469999Y-97650000D03*
X121930001Y-97650000D03*
X124469999Y-100190000D03*
X121930001Y-100190000D03*
X124469999Y-102730000D03*
X121930001Y-102730000D03*
X124469999Y-105270000D03*
X121930001Y-105270000D03*
G04 #@! TD*
D18*
G04 #@! TO.C,SW1*
X79000000Y-139825000D03*
X85000000Y-139825000D03*
X79000000Y-143575000D03*
X85000000Y-143575000D03*
G04 #@! TD*
G04 #@! TO.C,SW4*
X113000000Y-157125000D03*
X119000000Y-157125000D03*
X113000000Y-160875000D03*
X119000000Y-160875000D03*
G04 #@! TD*
D19*
G04 #@! TO.C,Q1*
X92062500Y-137050000D03*
X92062500Y-138950000D03*
X93937500Y-138000000D03*
G04 #@! TD*
D18*
G04 #@! TO.C,SW2*
X115000000Y-139825000D03*
X121000000Y-139825000D03*
X115000000Y-143575000D03*
X121000000Y-143575000D03*
G04 #@! TD*
G04 #@! TO.C,SW3*
X81000000Y-157125000D03*
X87000000Y-157125000D03*
X81000000Y-160875000D03*
X87000000Y-160875000D03*
G04 #@! TD*
%LPD*%
M02*
