G04 #@! TF.GenerationSoftware,KiCad,Pcbnew,7.0.11+dfsg-1build4*
G04 #@! TF.CreationDate,2026-10-02T23:42:42+00:00*
G04 #@! TF.ProjectId,struthio_one_slim,73747275-7468-4696-9f5f-6f6e655f736c,rev?*
G04 #@! TF.SameCoordinates,Original*
G04 #@! TF.FileFunction,Legend,Bot*
G04 #@! TF.FilePolarity,Positive*
%FSLAX46Y46*%
G04 Gerber Fmt 4.6, Leading zero omitted, Abs format (unit mm)*
G04 Created by KiCad (PCBNEW 7.0.11+dfsg-1build4) date 2026-10-02 23:42:42*
%MOMM*%
%LPD*%
G01*
G04 APERTURE LIST*
%ADD10C,0.150000*%
G04 APERTURE END LIST*
D10*
X111452381Y-155931009D02*
X111119048Y-155931009D01*
X110976191Y-156454819D02*
X111452381Y-156454819D01*
X111452381Y-156454819D02*
X111452381Y-155454819D01*
X111452381Y-155454819D02*
X110976191Y-155454819D01*
X110690476Y-155454819D02*
X110357143Y-156454819D01*
X110357143Y-156454819D02*
X110023810Y-155454819D01*
X109690476Y-155931009D02*
X109357143Y-155931009D01*
X109214286Y-156454819D02*
X109690476Y-156454819D01*
X109690476Y-156454819D02*
X109690476Y-155454819D01*
X109690476Y-155454819D02*
X109214286Y-155454819D01*
X108214286Y-156454819D02*
X108547619Y-155978628D01*
X108785714Y-156454819D02*
X108785714Y-155454819D01*
X108785714Y-155454819D02*
X108404762Y-155454819D01*
X108404762Y-155454819D02*
X108309524Y-155502438D01*
X108309524Y-155502438D02*
X108261905Y-155550057D01*
X108261905Y-155550057D02*
X108214286Y-155645295D01*
X108214286Y-155645295D02*
X108214286Y-155788152D01*
X108214286Y-155788152D02*
X108261905Y-155883390D01*
X108261905Y-155883390D02*
X108309524Y-155931009D01*
X108309524Y-155931009D02*
X108404762Y-155978628D01*
X108404762Y-155978628D02*
X108785714Y-155978628D01*
X107595238Y-155978628D02*
X107595238Y-156454819D01*
X107928571Y-155454819D02*
X107595238Y-155978628D01*
X107595238Y-155978628D02*
X107261905Y-155454819D01*
X106166666Y-156454819D02*
X106166666Y-155454819D01*
X106166666Y-155454819D02*
X105785714Y-155454819D01*
X105785714Y-155454819D02*
X105690476Y-155502438D01*
X105690476Y-155502438D02*
X105642857Y-155550057D01*
X105642857Y-155550057D02*
X105595238Y-155645295D01*
X105595238Y-155645295D02*
X105595238Y-155788152D01*
X105595238Y-155788152D02*
X105642857Y-155883390D01*
X105642857Y-155883390D02*
X105690476Y-155931009D01*
X105690476Y-155931009D02*
X105785714Y-155978628D01*
X105785714Y-155978628D02*
X106166666Y-155978628D01*
X105214285Y-156169104D02*
X104738095Y-156169104D01*
X105309523Y-156454819D02*
X104976190Y-155454819D01*
X104976190Y-155454819D02*
X104642857Y-156454819D01*
X103738095Y-156454819D02*
X104071428Y-155978628D01*
X104309523Y-156454819D02*
X104309523Y-155454819D01*
X104309523Y-155454819D02*
X103928571Y-155454819D01*
X103928571Y-155454819D02*
X103833333Y-155502438D01*
X103833333Y-155502438D02*
X103785714Y-155550057D01*
X103785714Y-155550057D02*
X103738095Y-155645295D01*
X103738095Y-155645295D02*
X103738095Y-155788152D01*
X103738095Y-155788152D02*
X103785714Y-155883390D01*
X103785714Y-155883390D02*
X103833333Y-155931009D01*
X103833333Y-155931009D02*
X103928571Y-155978628D01*
X103928571Y-155978628D02*
X104309523Y-155978628D01*
X103452380Y-155454819D02*
X102880952Y-155454819D01*
X103166666Y-156454819D02*
X103166666Y-155454819D01*
X101452380Y-155931009D02*
X101785713Y-155931009D01*
X101785713Y-156454819D02*
X101785713Y-155454819D01*
X101785713Y-155454819D02*
X101309523Y-155454819D01*
X100928570Y-156454819D02*
X100928570Y-155454819D01*
X100595237Y-155454819D02*
X100023809Y-155454819D01*
X100309523Y-156454819D02*
X100309523Y-155454819D01*
X99833332Y-155454819D02*
X99261904Y-155454819D01*
X99547618Y-156454819D02*
X99547618Y-155454819D01*
X98928570Y-155931009D02*
X98595237Y-155931009D01*
X98452380Y-156454819D02*
X98928570Y-156454819D01*
X98928570Y-156454819D02*
X98928570Y-155454819D01*
X98928570Y-155454819D02*
X98452380Y-155454819D01*
X98023808Y-156454819D02*
X98023808Y-155454819D01*
X98023808Y-155454819D02*
X97785713Y-155454819D01*
X97785713Y-155454819D02*
X97642856Y-155502438D01*
X97642856Y-155502438D02*
X97547618Y-155597676D01*
X97547618Y-155597676D02*
X97499999Y-155692914D01*
X97499999Y-155692914D02*
X97452380Y-155883390D01*
X97452380Y-155883390D02*
X97452380Y-156026247D01*
X97452380Y-156026247D02*
X97499999Y-156216723D01*
X97499999Y-156216723D02*
X97547618Y-156311961D01*
X97547618Y-156311961D02*
X97642856Y-156407200D01*
X97642856Y-156407200D02*
X97785713Y-156454819D01*
X97785713Y-156454819D02*
X98023808Y-156454819D01*
X95928570Y-155931009D02*
X95785713Y-155978628D01*
X95785713Y-155978628D02*
X95738094Y-156026247D01*
X95738094Y-156026247D02*
X95690475Y-156121485D01*
X95690475Y-156121485D02*
X95690475Y-156264342D01*
X95690475Y-156264342D02*
X95738094Y-156359580D01*
X95738094Y-156359580D02*
X95785713Y-156407200D01*
X95785713Y-156407200D02*
X95880951Y-156454819D01*
X95880951Y-156454819D02*
X96261903Y-156454819D01*
X96261903Y-156454819D02*
X96261903Y-155454819D01*
X96261903Y-155454819D02*
X95928570Y-155454819D01*
X95928570Y-155454819D02*
X95833332Y-155502438D01*
X95833332Y-155502438D02*
X95785713Y-155550057D01*
X95785713Y-155550057D02*
X95738094Y-155645295D01*
X95738094Y-155645295D02*
X95738094Y-155740533D01*
X95738094Y-155740533D02*
X95785713Y-155835771D01*
X95785713Y-155835771D02*
X95833332Y-155883390D01*
X95833332Y-155883390D02*
X95928570Y-155931009D01*
X95928570Y-155931009D02*
X96261903Y-155931009D01*
X95071427Y-155978628D02*
X95071427Y-156454819D01*
X95404760Y-155454819D02*
X95071427Y-155978628D01*
X95071427Y-155978628D02*
X94738094Y-155454819D01*
X93357141Y-155454819D02*
X93357141Y-156169104D01*
X93357141Y-156169104D02*
X93404760Y-156311961D01*
X93404760Y-156311961D02*
X93499998Y-156407200D01*
X93499998Y-156407200D02*
X93642855Y-156454819D01*
X93642855Y-156454819D02*
X93738093Y-156454819D01*
X92404760Y-156454819D02*
X92880950Y-156454819D01*
X92880950Y-156454819D02*
X92880950Y-155454819D01*
X91499998Y-156359580D02*
X91547617Y-156407200D01*
X91547617Y-156407200D02*
X91690474Y-156454819D01*
X91690474Y-156454819D02*
X91785712Y-156454819D01*
X91785712Y-156454819D02*
X91928569Y-156407200D01*
X91928569Y-156407200D02*
X92023807Y-156311961D01*
X92023807Y-156311961D02*
X92071426Y-156216723D01*
X92071426Y-156216723D02*
X92119045Y-156026247D01*
X92119045Y-156026247D02*
X92119045Y-155883390D01*
X92119045Y-155883390D02*
X92071426Y-155692914D01*
X92071426Y-155692914D02*
X92023807Y-155597676D01*
X92023807Y-155597676D02*
X91928569Y-155502438D01*
X91928569Y-155502438D02*
X91785712Y-155454819D01*
X91785712Y-155454819D02*
X91690474Y-155454819D01*
X91690474Y-155454819D02*
X91547617Y-155502438D01*
X91547617Y-155502438D02*
X91499998Y-155550057D01*
X91071426Y-156454819D02*
X91071426Y-155454819D01*
X91071426Y-155454819D02*
X90690474Y-155454819D01*
X90690474Y-155454819D02*
X90595236Y-155502438D01*
X90595236Y-155502438D02*
X90547617Y-155550057D01*
X90547617Y-155550057D02*
X90499998Y-155645295D01*
X90499998Y-155645295D02*
X90499998Y-155788152D01*
X90499998Y-155788152D02*
X90547617Y-155883390D01*
X90547617Y-155883390D02*
X90595236Y-155931009D01*
X90595236Y-155931009D02*
X90690474Y-155978628D01*
X90690474Y-155978628D02*
X91071426Y-155978628D01*
X89499998Y-156359580D02*
X89547617Y-156407200D01*
X89547617Y-156407200D02*
X89690474Y-156454819D01*
X89690474Y-156454819D02*
X89785712Y-156454819D01*
X89785712Y-156454819D02*
X89928569Y-156407200D01*
X89928569Y-156407200D02*
X90023807Y-156311961D01*
X90023807Y-156311961D02*
X90071426Y-156216723D01*
X90071426Y-156216723D02*
X90119045Y-156026247D01*
X90119045Y-156026247D02*
X90119045Y-155883390D01*
X90119045Y-155883390D02*
X90071426Y-155692914D01*
X90071426Y-155692914D02*
X90023807Y-155597676D01*
X90023807Y-155597676D02*
X89928569Y-155502438D01*
X89928569Y-155502438D02*
X89785712Y-155454819D01*
X89785712Y-155454819D02*
X89690474Y-155454819D01*
X89690474Y-155454819D02*
X89547617Y-155502438D01*
X89547617Y-155502438D02*
X89499998Y-155550057D01*
X88738093Y-155931009D02*
X88595236Y-155978628D01*
X88595236Y-155978628D02*
X88547617Y-156026247D01*
X88547617Y-156026247D02*
X88499998Y-156121485D01*
X88499998Y-156121485D02*
X88499998Y-156264342D01*
X88499998Y-156264342D02*
X88547617Y-156359580D01*
X88547617Y-156359580D02*
X88595236Y-156407200D01*
X88595236Y-156407200D02*
X88690474Y-156454819D01*
X88690474Y-156454819D02*
X89071426Y-156454819D01*
X89071426Y-156454819D02*
X89071426Y-155454819D01*
X89071426Y-155454819D02*
X88738093Y-155454819D01*
X88738093Y-155454819D02*
X88642855Y-155502438D01*
X88642855Y-155502438D02*
X88595236Y-155550057D01*
X88595236Y-155550057D02*
X88547617Y-155645295D01*
X88547617Y-155645295D02*
X88547617Y-155740533D01*
X88547617Y-155740533D02*
X88595236Y-155835771D01*
X88595236Y-155835771D02*
X88642855Y-155883390D01*
X88642855Y-155883390D02*
X88738093Y-155931009D01*
X88738093Y-155931009D02*
X89071426Y-155931009D01*
X105309523Y-158454819D02*
X105309523Y-157454819D01*
X105309523Y-157454819D02*
X104738095Y-158454819D01*
X104738095Y-158454819D02*
X104738095Y-157454819D01*
X104071428Y-157454819D02*
X103880952Y-157454819D01*
X103880952Y-157454819D02*
X103785714Y-157502438D01*
X103785714Y-157502438D02*
X103690476Y-157597676D01*
X103690476Y-157597676D02*
X103642857Y-157788152D01*
X103642857Y-157788152D02*
X103642857Y-158121485D01*
X103642857Y-158121485D02*
X103690476Y-158311961D01*
X103690476Y-158311961D02*
X103785714Y-158407200D01*
X103785714Y-158407200D02*
X103880952Y-158454819D01*
X103880952Y-158454819D02*
X104071428Y-158454819D01*
X104071428Y-158454819D02*
X104166666Y-158407200D01*
X104166666Y-158407200D02*
X104261904Y-158311961D01*
X104261904Y-158311961D02*
X104309523Y-158121485D01*
X104309523Y-158121485D02*
X104309523Y-157788152D01*
X104309523Y-157788152D02*
X104261904Y-157597676D01*
X104261904Y-157597676D02*
X104166666Y-157502438D01*
X104166666Y-157502438D02*
X104071428Y-157454819D01*
X102499999Y-158407200D02*
X102357142Y-158454819D01*
X102357142Y-158454819D02*
X102119047Y-158454819D01*
X102119047Y-158454819D02*
X102023809Y-158407200D01*
X102023809Y-158407200D02*
X101976190Y-158359580D01*
X101976190Y-158359580D02*
X101928571Y-158264342D01*
X101928571Y-158264342D02*
X101928571Y-158169104D01*
X101928571Y-158169104D02*
X101976190Y-158073866D01*
X101976190Y-158073866D02*
X102023809Y-158026247D01*
X102023809Y-158026247D02*
X102119047Y-157978628D01*
X102119047Y-157978628D02*
X102309523Y-157931009D01*
X102309523Y-157931009D02*
X102404761Y-157883390D01*
X102404761Y-157883390D02*
X102452380Y-157835771D01*
X102452380Y-157835771D02*
X102499999Y-157740533D01*
X102499999Y-157740533D02*
X102499999Y-157645295D01*
X102499999Y-157645295D02*
X102452380Y-157550057D01*
X102452380Y-157550057D02*
X102404761Y-157502438D01*
X102404761Y-157502438D02*
X102309523Y-157454819D01*
X102309523Y-157454819D02*
X102071428Y-157454819D01*
X102071428Y-157454819D02*
X101928571Y-157502438D01*
X101309523Y-157454819D02*
X101119047Y-157454819D01*
X101119047Y-157454819D02*
X101023809Y-157502438D01*
X101023809Y-157502438D02*
X100928571Y-157597676D01*
X100928571Y-157597676D02*
X100880952Y-157788152D01*
X100880952Y-157788152D02*
X100880952Y-158121485D01*
X100880952Y-158121485D02*
X100928571Y-158311961D01*
X100928571Y-158311961D02*
X101023809Y-158407200D01*
X101023809Y-158407200D02*
X101119047Y-158454819D01*
X101119047Y-158454819D02*
X101309523Y-158454819D01*
X101309523Y-158454819D02*
X101404761Y-158407200D01*
X101404761Y-158407200D02*
X101499999Y-158311961D01*
X101499999Y-158311961D02*
X101547618Y-158121485D01*
X101547618Y-158121485D02*
X101547618Y-157788152D01*
X101547618Y-157788152D02*
X101499999Y-157597676D01*
X101499999Y-157597676D02*
X101404761Y-157502438D01*
X101404761Y-157502438D02*
X101309523Y-157454819D01*
X99976190Y-158454819D02*
X100452380Y-158454819D01*
X100452380Y-158454819D02*
X100452380Y-157454819D01*
X99642856Y-158454819D02*
X99642856Y-157454819D01*
X99642856Y-157454819D02*
X99404761Y-157454819D01*
X99404761Y-157454819D02*
X99261904Y-157502438D01*
X99261904Y-157502438D02*
X99166666Y-157597676D01*
X99166666Y-157597676D02*
X99119047Y-157692914D01*
X99119047Y-157692914D02*
X99071428Y-157883390D01*
X99071428Y-157883390D02*
X99071428Y-158026247D01*
X99071428Y-158026247D02*
X99119047Y-158216723D01*
X99119047Y-158216723D02*
X99166666Y-158311961D01*
X99166666Y-158311961D02*
X99261904Y-158407200D01*
X99261904Y-158407200D02*
X99404761Y-158454819D01*
X99404761Y-158454819D02*
X99642856Y-158454819D01*
X98642856Y-157931009D02*
X98309523Y-157931009D01*
X98166666Y-158454819D02*
X98642856Y-158454819D01*
X98642856Y-158454819D02*
X98642856Y-157454819D01*
X98642856Y-157454819D02*
X98166666Y-157454819D01*
X97166666Y-158454819D02*
X97499999Y-157978628D01*
X97738094Y-158454819D02*
X97738094Y-157454819D01*
X97738094Y-157454819D02*
X97357142Y-157454819D01*
X97357142Y-157454819D02*
X97261904Y-157502438D01*
X97261904Y-157502438D02*
X97214285Y-157550057D01*
X97214285Y-157550057D02*
X97166666Y-157645295D01*
X97166666Y-157645295D02*
X97166666Y-157788152D01*
X97166666Y-157788152D02*
X97214285Y-157883390D01*
X97214285Y-157883390D02*
X97261904Y-157931009D01*
X97261904Y-157931009D02*
X97357142Y-157978628D01*
X97357142Y-157978628D02*
X97738094Y-157978628D01*
X96738094Y-158454819D02*
X96738094Y-157454819D01*
X96261904Y-158454819D02*
X96261904Y-157454819D01*
X96261904Y-157454819D02*
X95690476Y-158454819D01*
X95690476Y-158454819D02*
X95690476Y-157454819D01*
X94690476Y-157502438D02*
X94785714Y-157454819D01*
X94785714Y-157454819D02*
X94928571Y-157454819D01*
X94928571Y-157454819D02*
X95071428Y-157502438D01*
X95071428Y-157502438D02*
X95166666Y-157597676D01*
X95166666Y-157597676D02*
X95214285Y-157692914D01*
X95214285Y-157692914D02*
X95261904Y-157883390D01*
X95261904Y-157883390D02*
X95261904Y-158026247D01*
X95261904Y-158026247D02*
X95214285Y-158216723D01*
X95214285Y-158216723D02*
X95166666Y-158311961D01*
X95166666Y-158311961D02*
X95071428Y-158407200D01*
X95071428Y-158407200D02*
X94928571Y-158454819D01*
X94928571Y-158454819D02*
X94833333Y-158454819D01*
X94833333Y-158454819D02*
X94690476Y-158407200D01*
X94690476Y-158407200D02*
X94642857Y-158359580D01*
X94642857Y-158359580D02*
X94642857Y-158026247D01*
X94642857Y-158026247D02*
X94833333Y-158026247D01*
%LPC*%
%LPD*%
M02*
