M48
; DRILL file {KiCad 7.0.11+dfsg-1build4} date Fri Oct  2 23:42:42 2026
; FORMAT={-:-/ absolute / metric / decimal}
; #@! TF.CreationDate,2026-10-02T23:42:42+00:00
; #@! TF.GenerationSoftware,Kicad,Pcbnew,7.0.11+dfsg-1build4
; #@! TF.FileFunction,Plated,1,2,PTH
FMAT,2
METRIC
; #@! TA.AperFunction,Plated,PTH,ViaDrill
T1C0.350
%
G90
G05
T1
X68.5Y-158.0
X78.5Y-153.5
X81.0Y-155.525
X82.0Y-141.7
X84.0Y-165.0
X91.0Y-147.5
X92.062Y-135.95
X92.062Y-140.3
X100.0Y-160.0
X109.0Y-147.5
X116.0Y-165.0
X117.3Y-135.6
X118.825Y-69.71
X121.0Y-100.0
X121.0Y-112.0
X123.2Y-70.98
X123.2Y-73.52
X123.2Y-76.06
X123.2Y-81.0
X124.0Y-153.5
X125.3Y-97.4
X127.0Y-98.6
X127.45Y-150.5
X128.3Y-67.17
X131.5Y-158.0
M30
