G04 #@! TF.GenerationSoftware,KiCad,Pcbnew,7.0.11+dfsg-1build4*
G04 #@! TF.CreationDate,2026-10-02T23:42:42+00:00*
G04 #@! TF.ProjectId,struthio_one_slim,73747275-7468-4696-9f5f-6f6e655f736c,rev?*
G04 #@! TF.SameCoordinates,Original*
G04 #@! TF.FileFunction,Soldermask,Top*
G04 #@! TF.FilePolarity,Negative*
%FSLAX46Y46*%
G04 Gerber Fmt 4.6, Leading zero omitted, Abs format (unit mm)*
G04 Created by KiCad (PCBNEW 7.0.11+dfsg-1build4) date 2026-10-02 23:42:42*
%MOMM*%
%LPD*%
G01*
G04 APERTURE LIST*
G04 Aperture macros list*
%AMRoundRect*
0 Rectangle with rounded corners*
0 $1 Rounding radius*
0 $2 $3 $4 $5 $6 $7 $8 $9 X,Y pos of 4 corners*
0 Add a 4 corners polygon primitive as box body*
4,1,4,$2,$3,$4,$5,$6,$7,$8,$9,$2,$3,0*
0 Add four circle primitives for the rounded corners*
1,1,$1+$1,$2,$3*
1,1,$1+$1,$4,$5*
1,1,$1+$1,$6,$7*
1,1,$1+$1,$8,$9*
0 Add four rect primitives between the rounded corners*
20,1,$1+$1,$2,$3,$4,$5,0*
20,1,$1+$1,$4,$5,$6,$7,0*
20,1,$1+$1,$6,$7,$8,$9,0*
20,1,$1+$1,$8,$9,$2,$3,0*%
G04 Aperture macros list end*
%ADD10R,1.000000X0.750000*%
%ADD11R,3.450000X1.000000*%
%ADD12RoundRect,0.150000X-0.587500X-0.150000X0.587500X-0.150000X0.587500X0.150000X-0.587500X0.150000X0*%
%ADD13RoundRect,0.250000X1.500000X-0.250000X1.500000X0.250000X-1.500000X0.250000X-1.500000X-0.250000X0*%
%ADD14RoundRect,0.250001X1.449999X-0.499999X1.449999X0.499999X-1.449999X0.499999X-1.449999X-0.499999X0*%
G04 APERTURE END LIST*
D10*
G04 #@! TO.C,SW2*
X115000000Y-139825000D03*
X121000000Y-139825000D03*
X115000000Y-143575000D03*
X121000000Y-143575000D03*
G04 #@! TD*
G04 #@! TO.C,SW1*
X79000000Y-139825000D03*
X85000000Y-139825000D03*
X79000000Y-143575000D03*
X85000000Y-143575000D03*
G04 #@! TD*
G04 #@! TO.C,SW3*
X81000000Y-157125000D03*
X87000000Y-157125000D03*
X81000000Y-160875000D03*
X87000000Y-160875000D03*
G04 #@! TD*
D11*
G04 #@! TO.C,J1B*
X125675000Y-84950001D03*
X120725000Y-84950001D03*
X125675000Y-87490001D03*
X120725000Y-87490001D03*
X125675000Y-90030000D03*
X120725000Y-90030000D03*
X125675000Y-92569999D03*
X120725000Y-92569999D03*
X125675000Y-95110000D03*
X120725000Y-95110000D03*
G04 #@! TD*
D12*
G04 #@! TO.C,Q1*
X92062500Y-137050000D03*
X92062500Y-138950000D03*
X93937500Y-138000000D03*
G04 #@! TD*
D10*
G04 #@! TO.C,SW4*
X113000000Y-157125000D03*
X119000000Y-157125000D03*
X113000000Y-160875000D03*
X119000000Y-160875000D03*
G04 #@! TD*
D11*
G04 #@! TO.C,J1A*
X125675000Y-67170001D03*
X120725000Y-67170001D03*
X125675000Y-69710001D03*
X120725000Y-69710001D03*
X125675000Y-72250000D03*
X120725000Y-72250000D03*
X125675000Y-74790000D03*
X120725000Y-74790000D03*
X125675000Y-77330000D03*
X120725000Y-77330000D03*
G04 #@! TD*
D13*
G04 #@! TO.C,J2*
X99150000Y-139000000D03*
X99150000Y-137000000D03*
D14*
X104900000Y-141350000D03*
X104900000Y-134650000D03*
G04 #@! TD*
M02*
