  0
SECTION
  2
HEADER
  9
$ACADVER
  1
AC1024
  9
$ACADMAINTVER
 70
6
  9
$DWGCODEPAGE
  3
ANSI_1252
  9
$LASTSAVEDBY
  1
ezdxf
  9
$INSBASE
 10
0.0
 20
0.0
 30
0.0
  9
$EXTMIN
 10
1e+20
 20
1e+20
 30
1e+20
  9
$EXTMAX
 10
-1e+20
 20
-1e+20
 30
-1e+20
  9
$LIMMIN
 10
0.0
 20
0.0
  9
$LIMMAX
 10
420.0
 20
297.0
  9
$ORTHOMODE
 70
0
  9
$REGENMODE
 70
1
  9
$FILLMODE
 70
1
  9
$QTEXTMODE
 70
0
  9
$MIRRTEXT
 70
1
  9
$LTSCALE
 40
1.0
  9
$ATTMODE
 70
1
  9
$TEXTSIZE
 40
2.5
  9
$TRACEWID
 40
1.0
  9
$TEXTSTYLE
  7
Standard
  9
$CLAYER
  8
0
  9
$CELTYPE
  6
ByLayer
  9
$CECOLOR
 62
256
  9
$CELTSCALE
 40
1.0
  9
$DISPSILH
 70
0
  9
$DIMSCALE
 40
1.0
  9
$DIMASZ
 40
2.5
  9
$DIMEXO
 40
0.625
  9
$DIMDLI
 40
3.75
  9
$DIMRND
 40
0.0
  9
$DIMDLE
 40
0.0
  9
$DIMEXE
 40
1.25
  9
$DIMTP
 40
0.0
  9
$DIMTM
 40
0.0
  9
$DIMTXT
 40
2.5
  9
$DIMCEN
 40
2.5
  9
$DIMTSZ
 40
0.0
  9
$DIMTOL
 70
0
  9
$DIMLIM
 70
0
  9
$DIMTIH
 70
0
  9
$DIMTOH
 70
0
  9
$DIMSE1
 70
0
  9
$DIMSE2
 70
0
  9
$DIMTAD
 70
1
  9
$DIMZIN
 70
8
  9
$DIMBLK
  1

  9
$DIMASO
 70
1
  9
$DIMSHO
 70
1
  9
$DIMPOST
  1

  9
$DIMAPOST
  1

  9
$DIMALT
 70
0
  9
$DIMALTD
 70
3
  9
$DIMALTF
 40
0.03937007874
  9
$DIMLFAC
 40
1.0
  9
$DIMTOFL
 70
1
  9
$DIMTVP
 40
0.0
  9
$DIMTIX
 70
0
  9
$DIMSOXD
 70
0
  9
$DIMSAH
 70
0
  9
$DIMBLK1
  1

  9
$DIMBLK2
  1

  9
$DIMSTYLE
  2
ISO-25
  9
$DIMCLRD
 70
0
  9
$DIMCLRE
 70
0
  9
$DIMCLRT
 70
0
  9
$DIMTFAC
 40
1.0
  9
$DIMGAP
 40
0.625
  9
$DIMJUST
 70
0
  9
$DIMSD1
 70
0
  9
$DIMSD2
 70
0
  9
$DIMTOLJ
 70
0
  9
$DIMTZIN
 70
8
  9
$DIMALTZ
 70
0
  9
$DIMALTTZ
 70
0
  9
$DIMUPT
 70
0
  9
$DIMDEC
 70
2
  9
$DIMTDEC
 70
2
  9
$DIMALTU
 70
2
  9
$DIMALTTD
 70
3
  9
$DIMTXSTY
  7
Standard
  9
$DIMAUNIT
 70
0
  9
$DIMADEC
 70
0
  9
$DIMALTRND
 40
0.0
  9
$DIMAZIN
 70
0
  9
$DIMDSEP
 70
44
  9
$DIMATFIT
 70
3
  9
$DIMFRAC
 70
0
  9
$DIMLDRBLK
  1

  9
$DIMLUNIT
 70
2
  9
$DIMLWD
 70
-2
  9
$DIMLWE
 70
-2
  9
$DIMTMOVE
 70
0
  9
$DIMFXL
 40
1.0
  9
$DIMFXLON
 70
0
  9
$DIMJOGANG
 40
0.785398163397
  9
$DIMTFILL
 70
0
  9
$DIMTFILLCLR
 70
0
  9
$DIMARCSYM
 70
0
  9
$DIMLTYPE
  6

  9
$DIMLTEX1
  6

  9
$DIMLTEX2
  6

  9
$DIMTXTDIRECTION
 70
0
  9
$LUNITS
 70
2
  9
$LUPREC
 70
4
  9
$SKETCHINC
 40
1.0
  9
$FILLETRAD
 40
10.0
  9
$AUNITS
 70
0
  9
$AUPREC
 70
2
  9
$MENU
  1
.
  9
$ELEVATION
 40
0.0
  9
$PELEVATION
 40
0.0
  9
$THICKNESS
 40
0.0
  9
$LIMCHECK
 70
0
  9
$CHAMFERA
 40
0.0
  9
$CHAMFERB
 40
0.0
  9
$CHAMFERC
 40
0.0
  9
$CHAMFERD
 40
0.0
  9
$SKPOLY
 70
0
  9
$TDCREATE
 40
2461324.0486458335
  9
$TDUCREATE
 40
2458532.153996898
  9
$TDUPDATE
 40
2461324.0486458335
  9
$TDUUPDATE
 40
2458532.1544311
  9
$TDINDWG
 40
0.0
  9
$TDUSRTIMER
 40
0.0
  9
$USRTIMER
 70
1
  9
$ANGBASE
 50
0.0
  9
$ANGDIR
 70
0
  9
$PDMODE
 70
0
  9
$PDSIZE
 40
0.0
  9
$PLINEWID
 40
0.0
  9
$SPLFRAME
 70
0
  9
$SPLINETYPE
 70
6
  9
$SPLINESEGS
 70
8
  9
$HANDSEED
  5
38
  9
$SURFTAB1
 70
6
  9
$SURFTAB2
 70
6
  9
$SURFTYPE
 70
6
  9
$SURFU
 70
6
  9
$SURFV
 70
6
  9
$UCSBASE
  2

  9
$UCSNAME
  2

  9
$UCSORG
 10
0.0
 20
0.0
 30
0.0
  9
$UCSXDIR
 10
1.0
 20
0.0
 30
0.0
  9
$UCSYDIR
 10
0.0
 20
1.0
 30
0.0
  9
$UCSORTHOREF
  2

  9
$UCSORTHOVIEW
 70
0
  9
$UCSORGTOP
 10
0.0
 20
0.0
 30
0.0
  9
$UCSORGBOTTOM
 10
0.0
 20
0.0
 30
0.0
  9
$UCSORGLEFT
 10
0.0
 20
0.0
 30
0.0
  9
$UCSORGRIGHT
 10
0.0
 20
0.0
 30
0.0
  9
$UCSORGFRONT
 10
0.0
 20
0.0
 30
0.0
  9
$UCSORGBACK
 10
0.0
 20
0.0
 30
0.0
  9
$PUCSBASE
  2

  9
$PUCSNAME
  2

  9
$PUCSORG
 10
0.0
 20
0.0
 30
0.0
  9
$PUCSXDIR
 10
1.0
 20
0.0
 30
0.0
  9
$PUCSYDIR
 10
0.0
 20
1.0
 30
0.0
  9
$PUCSORTHOREF
  2

  9
$PUCSORTHOVIEW
 70
0
  9
$PUCSORGTOP
 10
0.0
 20
0.0
 30
0.0
  9
$PUCSORGBOTTOM
 10
0.0
 20
0.0
 30
0.0
  9
$PUCSORGLEFT
 10
0.0
 20
0.0
 30
0.0
  9
$PUCSORGRIGHT
 10
0.0
 20
0.0
 30
0.0
  9
$PUCSORGFRONT
 10
0.0
 20
0.0
 30
0.0
  9
$PUCSORGBACK
 10
0.0
 20
0.0
 30
0.0
  9
$USERI1
 70
0
  9
$USERI2
 70
0
  9
$USERI3
 70
0
  9
$USERI4
 70
0
  9
$USERI5
 70
0
  9
$USERR1
 40
0.0
  9
$USERR2
 40
0.0
  9
$USERR3
 40
0.0
  9
$USERR4
 40
0.0
  9
$USERR5
 40
0.0
  9
$WORLDVIEW
 70
1
  9
$SHADEDGE
 70
3
  9
$SHADEDIF
 70
70
  9
$TILEMODE
 70
1
  9
$MAXACTVP
 70
64
  9
$PINSBASE
 10
0.0
 20
0.0
 30
0.0
  9
$PLIMCHECK
 70
0
  9
$PEXTMIN
 10
1e+20
 20
1e+20
 30
1e+20
  9
$PEXTMAX
 10
-1e+20
 20
-1e+20
 30
-1e+20
  9
$PLIMMIN
 10
0.0
 20
0.0
  9
$PLIMMAX
 10
420.0
 20
297.0
  9
$UNITMODE
 70
0
  9
$VISRETAIN
 70
1
  9
$PLINEGEN
 70
0
  9
$PSLTSCALE
 70
1
  9
$TREEDEPTH
 70
3020
  9
$CMLSTYLE
  2
Standard
  9
$CMLJUST
 70
0
  9
$CMLSCALE
 40
20.0
  9
$PROXYGRAPHICS
 70
1
  9
$MEASUREMENT
 70
1
  9
$CELWEIGHT
370
-1
  9
$ENDCAPS
280
0
  9
$JOINSTYLE
280
0
  9
$LWDISPLAY
290
0
  9
$INSUNITS
 70
6
  9
$HYPERLINKBASE
  1

  9
$STYLESHEET
  1

  9
$XEDIT
290
1
  9
$CEPSNTYPE
380
0
  9
$PSTYLEMODE
290
1
  9
$FINGERPRINTGUID
  2
{79BE43DF-E7A2-4B2F-B65F-96A824433EF8}
  9
$VERSIONGUID
  2
{620B7F3D-A61F-40C0-88F2-BD670042EA19}
  9
$EXTNAMES
290
1
  9
$PSVPSCALE
 40
0.0
  9
$OLESTARTUP
290
0
  9
$SORTENTS
280
127
  9
$INDEXCTL
280
0
  9
$HIDETEXT
280
1
  9
$XCLIPFRAME
280
1
  9
$HALOGAP
280
0
  9
$OBSCOLOR
 70
257
  9
$OBSLTYPE
280
0
  9
$INTERSECTIONDISPLAY
280
0
  9
$INTERSECTIONCOLOR
 70
257
  9
$DIMASSOC
280
2
  9
$PROJECTNAME
  1

  9
$CAMERADISPLAY
290
0
  9
$LENSLENGTH
 40
50.0
  9
$CAMERAHEIGHT
 40
0.0
  9
$STEPSPERSEC
 40
24.0
  9
$STEPSIZE
 40
100.0
  9
$3DDWFPREC
 40
2.0
  9
$PSOLWIDTH
 40
0.005
  9
$PSOLHEIGHT
 40
0.08
  9
$LOFTANG1
 40
1.570796326795
  9
$LOFTANG2
 40
1.570796326795
  9
$LOFTMAG1
 40
0.0
  9
$LOFTMAG2
 40
0.0
  9
$LOFTPARAM
 70
7
  9
$LOFTNORMALS
280
1
  9
$LATITUDE
 40
37.795
  9
$LONGITUDE
 40
-122.394
  9
$NORTHDIRECTION
 40
0.0
  9
$TIMEZONE
 70
-8000
  9
$LIGHTGLYPHDISPLAY
280
1
  9
$TILEMODELIGHTSYNCH
280
1
  9
$CMATERIAL
347
20
  9
$SOLIDHIST
280
0
  9
$SHOWHIST
280
1
  9
$DWFFRAME
280
2
  9
$DGNFRAME
280
2
  9
$REALWORLDSCALE
290
1
  9
$INTERFERECOLOR
 62
256
  9
$CSHADOW
280
0
  9
$SHADOWPLANELOCATION
 40
0.0
  0
ENDSEC
  0
SECTION
  2
CLASSES
  0
CLASS
  1
ACDBDICTIONARYWDFLT
  2
AcDbDictionaryWithDefault
  3
ObjectDBX Classes
 90
0
 91
0
280
0
281
0
  0
CLASS
  1
SUN
  2
AcDbSun
  3
SCENEOE
 90
1153
 91
0
280
0
281
0
  0
CLASS
  1
VISUALSTYLE
  2
AcDbVisualStyle
  3
ObjectDBX Classes
 90
4095
 91
0
280
0
281
0
  0
CLASS
  1
MATERIAL
  2
AcDbMaterial
  3
ObjectDBX Classes
 90
1153
 91
0
280
0
281
0
  0
CLASS
  1
SCALE
  2
AcDbScale
  3
ObjectDBX Classes
 90
1153
 91
0
280
0
281
0
  0
CLASS
  1
TABLESTYLE
  2
AcDbTableStyle
  3
ObjectDBX Classes
 90
4095
 91
0
280
0
281
0
  0
CLASS
  1
MLEADERSTYLE
  2
AcDbMLeaderStyle
  3
ACDB_MLEADERSTYLE_CLASS
 90
4095
 91
0
280
0
281
0
  0
CLASS
  1
DICTIONARYVAR
  2
AcDbDictionaryVar
  3
ObjectDBX Classes
 90
0
 91
0
280
0
281
0
  0
CLASS
  1
CELLSTYLEMAP
  2
AcDbCellStyleMap
  3
ObjectDBX Classes
 90
1152
 91
0
280
0
281
0
  0
CLASS
  1
MENTALRAYRENDERSETTINGS
  2
AcDbMentalRayRenderSettings
  3
SCENEOE
 90
1024
 91
0
280
0
281
0
  0
CLASS
  1
ACDBDETAILVIEWSTYLE
  2
AcDbDetailViewStyle
  3
ObjectDBX Classes
 90
1025
 91
0
280
0
281
0
  0
CLASS
  1
ACDBSECTIONVIEWSTYLE
  2
AcDbSectionViewStyle
  3
ObjectDBX Classes
 90
1025
 91
0
280
0
281
0
  0
CLASS
  1
RASTERVARIABLES
  2
AcDbRasterVariables
  3
ISM
 90
0
 91
0
280
0
281
0
  0
CLASS
  1
LAYOUT
  2
AcDbLayout
  3
ObjectDBX Classes
 90
0
 91
0
280
0
281
0
  0
CLASS
  1
ACDBPLACEHOLDER
  2
AcDbPlaceHolder
  3
ObjectDBX Classes
 90
0
 91
0
280
0
281
0
  0
ENDSEC
  0
SECTION
  2
TABLES
  0
TABLE
  2
VPORT
  5
8
330
0
100
AcDbSymbolTable
 70
1
  0
VPORT
  5
23
330
8
100
AcDbSymbolTableRecord
100
AcDbViewportTableRecord
  2
*Active
 70
0
 10
0.0
 20
0.0
 11
1.0
 21
1.0
 12
0.0
 22
0.0
 13
0.0
 23
0.0
 14
0.5
 24
0.5
 15
0.5
 25
0.5
 16
0.0
 26
0.0
 36
1.0
 17
0.0
 27
0.0
 37
0.0
 40
1000.0
 41
1.34
 42
50.0
 43
0.0
 44
0.0
 50
0.0
 51
0.0
 71
0
 72
1000
 73
1
 74
3
 75
0
 76
0
 77
0
 78
0
281
0
 65
0
146
0.0
  0
ENDTAB
  0
TABLE
  2
LTYPE
  5
2
330
0
100
AcDbSymbolTable
 70
3
  0
LTYPE
  5
24
330
2
100
AcDbSymbolTableRecord
100
AcDbLinetypeTableRecord
  2
ByBlock
 70
0
  3

 72
65
 73
0
 40
0.0
  0
LTYPE
  5
25
330
2
100
AcDbSymbolTableRecord
100
AcDbLinetypeTableRecord
  2
ByLayer
 70
0
  3

 72
65
 73
0
 40
0.0
  0
LTYPE
  5
26
330
2
100
AcDbSymbolTableRecord
100
AcDbLinetypeTableRecord
  2
Continuous
 70
0
  3

 72
65
 73
0
 40
0.0
  0
ENDTAB
  0
TABLE
  2
LAYER
  5
1
330
0
100
AcDbSymbolTable
 70
5
  0
LAYER
  5
27
330
1
100
AcDbSymbolTableRecord
100
AcDbLayerTableRecord
  2
0
 70
0
 62
7
  6
Continuous
370
-3
390
13
347
21
  0
LAYER
  5
28
330
1
100
AcDbSymbolTableRecord
100
AcDbLayerTableRecord
  2
Defpoints
 70
0
 62
7
  6
Continuous
290
0
370
-3
390
13
347
21
  0
LAYER
  5
2F
330
1
100
AcDbSymbolTableRecord
100
AcDbLayerTableRecord
  2
R26_PCB_EDGE
 70
0
 62
4
  6
Continuous
370
-3
390
13
347
21
  0
LAYER
  5
30
330
1
100
AcDbSymbolTableRecord
100
AcDbLayerTableRecord
  2
R1_SHELL_CONCEPT
 70
0
 62
5
  6
Continuous
370
-3
390
13
347
21
  0
LAYER
  5
31
330
1
100
AcDbSymbolTableRecord
100
AcDbLayerTableRecord
  2
DISPLAY_CLEARANCE_CANDIDATE
 70
0
 62
2
  6
Continuous
370
-3
390
13
347
21
  0
ENDTAB
  0
TABLE
  2
STYLE
  5
5
330
0
100
AcDbSymbolTable
 70
1
  0
STYLE
  5
29
330
5
100
AcDbSymbolTableRecord
100
AcDbTextStyleTableRecord
  2
Standard
 70
0
 40
0.0
 41
1.0
 50
0.0
 71
0
 42
2.5
  3
txt
  4

  0
ENDTAB
  0
TABLE
  2
VIEW
  5
7
330
0
100
AcDbSymbolTable
 70
0
  0
ENDTAB
  0
TABLE
  2
UCS
  5
6
330
0
100
AcDbSymbolTable
 70
0
  0
ENDTAB
  0
TABLE
  2
APPID
  5
3
330
0
100
AcDbSymbolTable
 70
3
  0
APPID
  5
2A
330
3
100
AcDbSymbolTableRecord
100
AcDbRegAppTableRecord
  2
ACAD
 70
0
  0
APPID
  5
35
330
3
100
AcDbSymbolTableRecord
100
AcDbRegAppTableRecord
  2
HATCHBACKGROUNDCOLOR
 70
0
  0
APPID
  5
36
330
3
100
AcDbSymbolTableRecord
100
AcDbRegAppTableRecord
  2
EZDXF
 70
0
  0
ENDTAB
  0
TABLE
  2
DIMSTYLE
  5
4
330
0
100
AcDbSymbolTable
 70
1
100
AcDbDimStyleTable
  0
DIMSTYLE
105
2B
330
4
100
AcDbSymbolTableRecord
100
AcDbDimStyleTableRecord
  2
Standard
 70
0
 40
1.0
 41
2.5
 42
0.625
 43
3.75
 44
1.25
 45
0.0
 46
0.0
 47
0.0
 48
0.0
 49
2.5
140
2.5
141
2.5
142
0.0
143
0.03937007874
144
1.0
145
0.0
146
1.0
147
0.625
148
0.0
 69
0
 70
0
 71
0
 72
0
 73
0
 74
0
 75
0
 76
0
 77
1
 78
8
 79
3
170
0
171
3
172
1
173
0
174
0
175
0
176
0
177
0
178
0
179
2
271
2
272
2
273
2
274
3
275
0
276
0
277
2
278
44
279
0
280
0
281
0
282
0
283
0
284
8
285
0
286
0
288
0
289
3
290
0
371
-2
372
-2
  0
ENDTAB
  0
TABLE
  2
BLOCK_RECORD
  5
9
330
0
100
AcDbSymbolTable
 70
2
  0
BLOCK_RECORD
  5
17
330
9
100
AcDbSymbolTableRecord
100
AcDbBlockTableRecord
  2
*Model_Space
340
1A
 70
0
280
1
281
0
  0
BLOCK_RECORD
  5
1B
330
9
100
AcDbSymbolTableRecord
100
AcDbBlockTableRecord
  2
*Paper_Space
340
1E
 70
0
280
1
281
0
  0
ENDTAB
  0
ENDSEC
  0
SECTION
  2
BLOCKS
  0
BLOCK
  5
18
330
17
100
AcDbEntity
  8
0
100
AcDbBlockBegin
  2
*Model_Space
 70
0
 10
0.0
 20
0.0
 30
0.0
  3
*Model_Space
  1

  0
ENDBLK
  5
19
330
17
100
AcDbEntity
  8
0
100
AcDbBlockEnd
  0
BLOCK
  5
1C
330
1B
100
AcDbEntity
  8
0
100
AcDbBlockBegin
  2
*Paper_Space
 70
0
 10
0.0
 20
0.0
 30
0.0
  3
*Paper_Space
  1

  0
ENDBLK
  5
1D
330
1B
100
AcDbEntity
  8
0
100
AcDbBlockEnd
  0
ENDSEC
  0
SECTION
  2
ENTITIES
  0
LWPOLYLINE
  5
32
330
17
100
AcDbEntity
  8
R26_PCB_EDGE
100
AcDbPolyline
 90
79
 70
1
 10
-26.0
 20
117.4
 10
-26.0
 20
128.0
 10
26.0
 20
128.0
 10
26.0
 20
117.4
 10
49.29222
 20
117.4
 10
49.38109
 20
115.85956
 10
49.51143
 20
111.9384
 10
49.58005
 20
107.64883
 10
49.59965
 20
103.07679
 10
49.29914
 20
98.68028
 10
48.49656
 20
95.13586
 10
47.29613
 20
92.22439
 10
45.77906
 20
89.79227
 10
44.00456
 20
87.70291
 10
42.03071
 20
85.84427
 10
39.92822
 20
84.1167
 10
37.8151
 20
82.44386
 10
37.74631
 20
82.3873
 10
35.7713
 20
80.70091
 10
35.59605
 20
80.53534
 10
33.87977
 20
78.74244
 10
33.74529
 20
78.58945
 10
33.62426
 20
78.42561
 10
32.27021
 20
76.41969
 10
32.1299
 20
76.18377
 10
32.01744
 20
75.93336
 10
31.12912
 20
73.60792
 10
31.06574
 20
73.41877
 10
31.01828
 20
73.225
 10
30.98709
 20
73.02797
 10
30.66798
 20
70.27649
 10
30.652
 20
70.0
 10
30.652
 20
6.04798
 10
30.62272
 20
5.316
 10
30.54631
 20
4.73018
 10
30.43092
 20
4.24556
 10
30.28756
 20
3.85644
 10
30.12537
 20
3.55007
 10
29.94706
 20
3.30692
 10
29.74508
 20
3.10494
 10
29.60198
 20
3.0
 10
-29.60198
 20
3.0
 10
-29.74508
 20
3.10494
 10
-29.94706
 20
3.30692
 10
-30.12537
 20
3.55007
 10
-30.28756
 20
3.85644
 10
-30.43092
 20
4.24556
 10
-30.54631
 20
4.73018
 10
-30.62272
 20
5.316
 10
-30.652
 20
6.04798
 10
-30.652
 20
70.0
 10
-30.66798
 20
70.27649
 10
-30.98709
 20
73.02797
 10
-31.01828
 20
73.225
 10
-31.06574
 20
73.41877
 10
-31.12912
 20
73.60792
 10
-32.01744
 20
75.93336
 10
-32.1299
 20
76.18377
 10
-32.27021
 20
76.41969
 10
-33.62426
 20
78.42561
 10
-33.74529
 20
78.58945
 10
-33.87977
 20
78.74244
 10
-35.59605
 20
80.53534
 10
-35.7713
 20
80.70091
 10
-37.74631
 20
82.3873
 10
-37.8151
 20
82.44386
 10
-39.92822
 20
84.1167
 10
-42.03071
 20
85.84427
 10
-44.00456
 20
87.70291
 10
-45.77906
 20
89.79227
 10
-47.29613
 20
92.22439
 10
-48.49656
 20
95.13586
 10
-49.29914
 20
98.68028
 10
-49.59965
 20
103.07679
 10
-49.58005
 20
107.64883
 10
-49.51143
 20
111.9384
 10
-49.38109
 20
115.85956
 10
-49.29222
 20
117.4
 10
-26.0
 20
117.4
  0
LWPOLYLINE
  5
33
330
17
100
AcDbEntity
  8
R1_SHELL_CONCEPT
100
AcDbPolyline
 90
387
 70
1
 10
-37.9686980021305
 20
78.09708337948177
 10
-38.0709272922328
 20
78.19366159461518
 10
-39.920171475786354
 20
79.77266468761361
 10
-39.9602961728274
 20
79.80565840757384
 10
-42.0340070297115
 20
81.44730027157793
 10
-42.08220012986282
 20
81.48610873579601
 10
-44.18009633956827
 20
83.20982965000279
 10
-44.19808736166831
 20
83.22512845233514
 10
-44.35267568586772
 20
83.36114647745235
 10
-44.37015099273795
 20
83.37705385846098
 10
-46.32120862189994
 20
85.2142318364561
 10
-46.34882107798691
 20
85.24172240125047
 10
-46.58262117322959
 20
85.48782422624564
 10
-46.6086609369303
 20
85.51680887028759
 10
-48.353960304534134
 20
87.57178699747651
 10
-48.385656661649826
 20
87.61200139568471
 10
-48.64874299574051
 20
87.97214999092238
 10
-48.6774138516132
 20
88.0145744991831
 10
-50.17320798592185
 20
90.41258568517634
 10
-50.18812012741378
 20
90.43763979188806
 10
-50.30627829365524
 20
90.64591029793357
 10
-50.33290075663285
 20
90.69775504321078
 10
-50.43331636086923
 20
90.9151364185946
 10
-50.444989141042925
 20
90.94185394898226
 10
-51.63424433330321
 20
93.82622106294144
 10
-51.644899468451555
 20
93.85369044619925
 10
-51.727639866688335
 20
94.08108194676312
 10
-51.745430846775044
 20
94.13722489773085
 10
-51.808755064307846
 20
94.37076913658697
 10
-51.81586528954394
 20
94.39936185626719
 10
-52.612206800266584
 20
97.91623092531397
 10
-52.61766455127525
 20
97.94269575127788
 10
-52.65828512476625
 20
98.16087633060725
 10
-52.66611509157412
 20
98.214324128979
 10
-52.6897841258828
 20
98.43498806577473
 10
-52.69214685830413
 20
98.46190630410607
 10
-52.9908697319591
 20
102.83227035606055
 10
-52.99214120651084
 20
102.85762145580692
 10
-52.999212894137784
 20
103.07867833751783
 10
-52.99956434237275
 20
103.10405886923094
 10
-52.9800348264368
 20
107.65965723860852
 10
-52.97965097515378
 20
107.69946850395333
 10
-52.91108319208179
 20
111.98727077501032
 10
-52.90968431206151
 20
112.0458484769449
 10
-52.779354701969766
 20
115.96825583870711
 10
-52.77901930456896
 20
115.97677969265798
 10
-52.77563990275922
 20
116.05111931946206
 10
-52.775200067910745
 20
116.05964767872335
 10
-52.68759282130328
 20
117.57819957434631
 10
-52.6846718418626
 20
117.61337642560079
 10
-52.653407549498
 20
117.90155567286504
 10
-52.642273388722344
 20
117.97121110685403
 10
-52.58580960106095
 20
118.23750067203953
 10
-52.56771726074364
 20
118.30568070021636
 10
-52.48472332581829
 20
118.56493019126583
 10
-52.459856763974244
 20
118.63094157757476
 10
-52.351176541631716
 20
118.88051501589547
 10
-52.31978859472518
 20
118.94368657444355
 10
-52.18652711602384
 20
119.18104636492632
 10
-52.1489369281959
 20
119.24073578441951
 10
-51.992449159749675
 20
119.46346851701718
 10
-51.94903893784655
 20
119.51906889160861
 10
-51.770916004891276
 20
119.72490988023611
 10
-51.722127132289394
 20
119.77585588037924
 10
-51.52418014055244
 20
119.96271218962814
 10
-51.47050868929092
 20
120.00848581019541
 10
-51.25475031015921
 20
120.17445753573377
 10
-51.196741997014364
 20
120.21459336295173
 10
-50.96536600323609
 20
120.35799294923748
 10
-50.90361064102147
 20
120.39208289288781
 10
-50.65896960101999
 20
120.51145229177554
 10
-50.59409510152835
 20
120.53914973454661
 10
-50.338676459123306
 20
120.63327523032648
 10
-50.27134244869061
 20
120.65429855212359
 10
-50.00774323144331
 20
120.72222310225374
 10
-49.93863434404587
 20
120.73635854363634
 10
-49.66953475738643
 20
120.77739150969234
 10
-49.599353673469565
 20
120.78449534532174
 10
-49.309852120198336
 20
120.79910989917899
 10
-49.274565427160134
 20
120.80000000000001
 10
-30.799999999999997
 20
120.80000000000001
 10
-30.66277600353861
 20
120.80674138265894
 10
-30.526873549177417
 20
120.82690060743549
 10
-30.39360145184375
 20
120.86028352997492
 10
-30.26424319468887
 20
120.90656865448422
 10
-30.1400445684436
 20
120.96531022991232
 10
-30.022201673772553
 20
121.03594254277645
 10
-29.911849402170894
 20
121.11778536529218
 10
-29.81005050633883
 20
121.21005050633885
 10
-29.717785365292166
 20
121.3118494021709
 10
-29.635942542776434
 20
121.42220167377258
 10
-29.5653102299123
 20
121.54004456844362
 10
-29.506568654484195
 20
121.6642431946889
 10
-29.460283529974905
 20
121.79360145184377
 10
-29.426900607435474
 20
121.92687354917744
 10
-29.40674138265892
 20
122.06277600353863
 10
-29.4
 20
122.20000000000002
 10
-29.4
 20
127.98281855266862
 10
-29.39915694633787
 20
128.01716075152555
 10
-29.38531443199823
 20
128.2989316040146
 10
-29.37858522732849
 20
128.36725436559954
 10
-29.339712796727973
 20
128.62931100637576
 10
-29.326319193308002
 20
128.69664519779084
 10
-29.26194790155248
 20
128.95362979972924
 10
-29.242018887104933
 20
129.01932695590236
 10
-29.152768664922945
 20
129.26876461680416
 10
-29.126496166751252
 20
129.3321920382077
 10
-29.013226542571484
 20
129.57168053704208
 10
-28.980863579195184
 20
129.63222738293473
 10
-28.844665401417853
 20
129.85946031454037
 10
-28.806523645865607
 20
129.916543485698
 10
-28.64870857739635
 20
130.12933247272503
 10
-28.605155355624376
 20
130.18240222700487
 10
-28.42724324184324
 20
130.37869799518572
 10
-28.378697995185863
 20
130.42724324184312
 10
-28.18240222700489
 20
130.60515535562436
 10
-28.129332472724844
 20
130.6487085773965
 10
-27.916543485698007
 20
130.8065236458656
 10
-27.85946031454038
 20
130.84466540141784
 10
-27.6322273829349
 20
130.98086357919507
 10
-27.571680537041864
 20
131.0132265425716
 10
-27.33219203820769
 20
131.12649616675125
 10
-27.268764616804184
 20
131.15276866492295
 10
-27.019326955902134
 20
131.242018887105
 10
-26.95362979972957
 20
131.2619479015524
 10
-26.69664519779084
 20
131.326319193308
 10
-26.629311006375733
 20
131.33971279672798
 10
-26.367254365599546
 20
131.37858522732847
 10
-26.298931604014378
 20
131.38531443199824
 10
-26.017160751525974
 20
131.39915694633785
 10
-25.982818552668597
 20
131.4
 10
25.982818552668597
 20
131.4
 10
26.017160751525974
 20
131.39915694633785
 10
26.298931604014378
 20
131.38531443199824
 10
26.367254365599546
 20
131.37858522732847
 10
26.629311006375733
 20
131.33971279672798
 10
26.69664519779084
 20
131.326319193308
 10
26.95362979972957
 20
131.2619479015524
 10
27.019326955902134
 20
131.242018887105
 10
27.268764616804184
 20
131.15276866492295
 10
27.33219203820769
 20
131.12649616675125
 10
27.571680537041864
 20
131.0132265425716
 10
27.6322273829349
 20
130.98086357919507
 10
27.859460314540055
 20
130.84466540141804
 10
27.916543485698384
 20
130.80652364586533
 10
28.129332472724737
 20
130.64870857739658
 10
28.18240222700506
 20
130.60515535562422
 10
28.378697995185615
 20
130.42724324184334
 10
28.427243241843357
 20
130.37869799518558
 10
28.605155355624376
 20
130.18240222700487
 10
28.64870857739635
 20
130.12933247272503
 10
28.806523645865607
 20
129.916543485698
 10
28.844665401417853
 20
129.85946031454037
 10
28.980863579195184
 20
129.63222738293473
 10
29.013226542571484
 20
129.57168053704208
 10
29.126496166751252
 20
129.3321920382077
 10
29.152768664922945
 20
129.26876461680416
 10
29.242018887104933
 20
129.01932695590236
 10
29.26194790155248
 20
128.95362979972924
 10
29.326319193308002
 20
128.69664519779084
 10
29.339712796727973
 20
128.62931100637576
 10
29.37858522732849
 20
128.36725436559954
 10
29.38531443199823
 20
128.2989316040146
 10
29.39915694633787
 20
128.01716075152555
 10
29.4
 20
127.98281855266862
 10
29.4
 20
122.20000000000002
 10
29.40674138265892
 20
122.06277600353863
 10
29.426900607435474
 20
121.92687354917744
 10
29.460283529974905
 20
121.79360145184377
 10
29.506568654484195
 20
121.6642431946889
 10
29.5653102299123
 20
121.54004456844362
 10
29.635942542776434
 20
121.42220167377258
 10
29.717785365292166
 20
121.3118494021709
 10
29.810050506338833
 20
121.21005050633885
 10
29.911849402170894
 20
121.11778536529218
 10
30.022201673772553
 20
121.03594254277645
 10
30.1400445684436
 20
120.96531022991232
 10
30.26424319468887
 20
120.90656865448422
 10
30.39360145184375
 20
120.86028352997492
 10
30.526873549177417
 20
120.82690060743549
 10
30.662776003538614
 20
120.80674138265894
 10
30.799999999999997
 20
120.80000000000001
 10
49.274565427160134
 20
120.80000000000001
 10
49.309852120198336
 20
120.79910989917899
 10
49.599353673469565
 20
120.78449534532174
 10
49.66953475738643
 20
120.77739150969234
 10
49.93863434404587
 20
120.73635854363634
 10
50.00774323144331
 20
120.72222310225374
 10
50.27134244869061
 20
120.65429855212359
 10
50.338676459123306
 20
120.63327523032648
 10
50.59409510152835
 20
120.53914973454661
 10
50.65896960101999
 20
120.51145229177554
 10
50.90361064102147
 20
120.39208289288781
 10
50.96536600323609
 20
120.35799294923748
 10
51.196741997014364
 20
120.21459336295173
 10
51.25475031015921
 20
120.17445753573377
 10
51.47050868929092
 20
120.00848581019541
 10
51.52418014055244
 20
119.96271218962814
 10
51.722127132289394
 20
119.77585588037924
 10
51.770916004891276
 20
119.72490988023611
 10
51.94903893784655
 20
119.51906889160861
 10
51.992449159749675
 20
119.46346851701718
 10
52.1489369281959
 20
119.24073578441951
 10
52.18652711602384
 20
119.18104636492632
 10
52.31978859472518
 20
118.94368657444355
 10
52.351176541631716
 20
118.88051501589547
 10
52.459856763974244
 20
118.63094157757476
 10
52.48472332581829
 20
118.56493019126583
 10
52.56771726074364
 20
118.30568070021636
 10
52.58580960106095
 20
118.23750067203953
 10
52.642273388722344
 20
117.97121110685403
 10
52.653407549498
 20
117.90155567286504
 10
52.6846718418626
 20
117.61337642560079
 10
52.68759282130328
 20
117.57819957434631
 10
52.775200067910745
 20
116.05964767872335
 10
52.77563990275922
 20
116.05111931946206
 10
52.77901930456896
 20
115.97677969265798
 10
52.779355065404765
 20
115.96824660230014
 10
52.90936994323691
 20
112.05686760613388
 10
52.91085507227054
 20
111.99828890737471
 10
52.979555187556386
 20
107.70695192090066
 10
52.97997873842226
 20
107.66714975459575
 10
52.99956429160202
 20
103.10405520272215
 10
52.999212894137784
 20
103.07867833751783
 10
52.99214120651084
 20
102.85762145580692
 10
52.9908697319591
 20
102.83227035606055
 10
52.69214685830413
 20
98.46190630410607
 10
52.6897841258828
 20
98.43498806577473
 10
52.66611509157412
 20
98.214324128979
 10
52.65828512476625
 20
98.16087633060725
 10
52.61766455127525
 20
97.94269575127788
 10
52.612206800266584
 20
97.91623092531397
 10
51.81586528954394
 20
94.39936185626719
 10
51.80875506430785
 20
94.37076913658699
 10
51.74543084677506
 20
94.13722489773092
 10
51.72763986668832
 20
94.08108194676308
 10
51.6448994684515
 20
93.85369044619911
 10
51.634244333303236
 20
93.82622106294151
 10
50.444989141042925
 20
90.94185394898226
 10
50.43331636086923
 20
90.9151364185946
 10
50.33290075663285
 20
90.69775504321078
 10
50.30627829365524
 20
90.64591029793357
 10
50.18812012741378
 20
90.43763979188806
 10
50.17320798592185
 20
90.41258568517634
 10
48.6774138516132
 20
88.0145744991831
 10
48.64874299574051
 20
87.97214999092238
 10
48.385656661649826
 20
87.61200139568471
 10
48.353960304534134
 20
87.57178699747651
 10
46.6086609369303
 20
85.51680887028759
 10
46.58262117322959
 20
85.48782422624564
 10
46.34882107798691
 20
85.24172240125047
 10
46.32120862189994
 20
85.2142318364561
 10
44.37015099273795
 20
83.37705385846098
 10
44.35267568586772
 20
83.36114647745235
 10
44.19808736166831
 20
83.22512845233514
 10
44.18008503858515
 20
83.20982004012593
 10
42.09122570127547
 20
81.4934500572218
 10
42.04309261584494
 20
81.45456652481383
 10
39.960268940871245
 20
79.80563674754723
 10
39.92016811788619
 20
79.77266192559762
 10
38.0709272572303
 20
78.193661564731
 10
37.968698002147214
 20
78.09708337949924
 10
36.47708537289431
 20
76.53888059033456
 10
36.398634972062034
 20
76.4496357828116
 10
36.32803488921002
 20
76.35406000469891
 10
35.242609934226905
 20
74.7460871634451
 10
35.160758595374055
 20
74.60846387814793
 10
35.09515746739121
 20
74.46239436614982
 10
34.41264230474412
 20
72.67570932041627
 10
34.37566996822341
 20
72.5653706335446
 10
34.3479888027542
 20
72.45234261681145
 10
34.329790056654105
 20
72.33740617729487
 10
34.06132162702643
 20
70.02257582176863
 10
34.052
 20
69.8612883053776
 10
34.052
 20
6.054976519448488
 10
34.05186014966615
 20
6.040984878394565
 10
34.049422961704
 20
5.919080084171607
 10
34.04900346658415
 20
5.905094033930436
 10
34.02063069695541
 20
5.195794173519029
 10
34.018672570742
 20
5.164459680030001
 10
33.99549290139934
 20
4.891899437760148
 10
33.99213154229121
 20
4.860684281098505
 10
33.9201075861257
 20
4.30849119117737
 10
33.91446131767949
 20
4.272524027663259
 10
33.85713558223481
 20
3.9605526539284828
 10
33.849626584050306
 20
3.924927772948063
 10
33.74328824541859
 20
3.4783233387015695
 10
33.732419815214456
 20
3.438045794781129
 10
33.62732132110681
 20
3.0901385115733695
 10
33.61407229951943
 20
3.0505801149132448
 10
33.48602772218923
 20
2.703030547874144
 10
33.468372638574934
 20
2.6596442096891892
 10
33.302016731347535
 20
2.287064385222813
 10
33.281498784355485
 20
2.2449563079721724
 10
33.142217202737406
 20
1.9818593342972797
 10
33.11671601758275
 20
1.937664638017368
 10
32.88070374107091
 20
1.5610657205740417
 10
32.85204998363444
 20
1.5188467223824023
 10
32.696735961355806
 20
1.307054873820637
 10
32.68053280234458
 20
1.2858214262079704
 10
32.54415249384025
 20
1.1140011869926463
 10
32.50938546188244
 20
1.0734763429108163
 10
32.36030080605732
 20
0.9125554040953727
 10
32.34177807412874
 20
0.893311962060221
 10
32.15868803793986
 20
0.7102219258713423
 10
32.13944459590465
 20
0.6916991939427066
 10
31.978523657089262
 20
0.5426145381176293
 10
31.937998813007287
 20
0.507847506159691
 10
31.76617857379209
 20
0.37146719765546043
 10
31.74494512617939
 20
0.3552640386442093
 10
31.627499663237906
 20
0.2691373658204583
 10
31.597178697968577
 20
0.24810824577349996
 10
31.343720082001035
 20
0.08204299731753972
 10
31.280000088078083
 20
0.044939904712765225
 10
31.02689149619662
 20
-0.08508651592776213
 10
30.959619927944054
 20
-0.11527613684640328
 10
30.694230553791385
 20
-0.21793727572415486
 10
30.62415487339225
 20
-0.24087798458351728
 10
30.34943348902961
 20
-0.3150331618989941
 10
30.277332315481704
 20
-0.3304700618270207
 10
29.996331382016123
 20
-0.3752953308198906
 10
29.92300583980614
 20
-0.3830569006342984
 10
29.620410591918997
 20
-0.3990272703579224
 10
29.583523756572877
 20
-0.3999999999999999
 10
-29.58352375657287
 20
-0.3999999999999999
 10
-29.620410591919004
 20
-0.3990272703579221
 10
-29.923005839806137
 20
-0.3830569006342983
 10
-29.99633138201612
 20
-0.3752953308198911
 10
-30.27733231548171
 20
-0.33047006182701977
 10
-30.34943348902961
 20
-0.31503316189899416
 10
-30.62415487339225
 20
-0.24087798458351728
 10
-30.694230553791385
 20
-0.21793727572415486
 10
-30.959619927944047
 20
-0.11527613684640614
 10
-31.026891496196622
 20
-0.08508651592776081
 10
-31.280000088078104
 20
0.04493990471277659
 10
-31.343720082001024
 20
0.0820429973175312
 10
-31.597178697968598
 20
0.2481082457735149
 10
-31.627499663237877
 20
0.2691373658204356
 10
-31.74494512617939
 20
0.3552640386442093
 10
-31.76617857379209
 20
0.37146719765546043
 10
-31.937998813007287
 20
0.507847506159691
 10
-31.978523657089262
 20
0.5426145381176293
 10
-32.13944459590465
 20
0.6916991939427066
 10
-32.15868803793986
 20
0.7102219258713423
 10
-32.34177807412874
 20
0.893311962060221
 10
-32.36030080605732
 20
0.9125554040953727
 10
-32.50938546188244
 20
1.0734763429108163
 10
-32.54415249384025
 20
1.1140011869926463
 10
-32.68053280234458
 20
1.2858214262079704
 10
-32.696735961355806
 20
1.307054873820637
 10
-32.85204998363444
 20
1.5188467223824023
 10
-32.88070374107091
 20
1.5610657205740417
 10
-33.11671601758275
 20
1.937664638017368
 10
-33.142217202737406
 20
1.9818593342972797
 10
-33.281498784355485
 20
2.2449563079721724
 10
-33.302016731347535
 20
2.287064385222813
 10
-33.468372638574934
 20
2.6596442096891892
 10
-33.48602772218923
 20
2.703030547874144
 10
-33.61407229951943
 20
3.0505801149132448
 10
-33.62732132110681
 20
3.0901385115733695
 10
-33.732419815214456
 20
3.438045794781129
 10
-33.74328824541859
 20
3.4783233387015695
 10
-33.849626584050306
 20
3.924927772948063
 10
-33.85713558223481
 20
3.9605526539284828
 10
-33.91446131767949
 20
4.272524027663259
 10
-33.9201075861257
 20
4.30849119117737
 10
-33.99213154229121
 20
4.860684281098505
 10
-33.99549290139934
 20
4.891899437760148
 10
-34.018672570742
 20
5.164459680030001
 10
-34.02063069695541
 20
5.195794173519029
 10
-34.04900346658415
 20
5.905094033930436
 10
-34.049422961704
 20
5.919080084171607
 10
-34.05186014966615
 20
6.040984878394565
 10
-34.052
 20
6.054976519448488
 10
-34.052
 20
69.8612883053776
 10
-34.06132162702643
 20
70.02257582176863
 10
-34.329790056654105
 20
72.33740617729487
 10
-34.3479888027542
 20
72.45234261681145
 10
-34.37566996822341
 20
72.5653706335446
 10
-34.41264230474412
 20
72.67570932041627
 10
-35.09515746739121
 20
74.46239436614982
 10
-35.160758595374055
 20
74.60846387814793
 10
-35.242609934226905
 20
74.7460871634451
 10
-36.32803488921002
 20
76.35406000469891
 10
-36.398634972062034
 20
76.4496357828116
 10
-36.47708537289431
 20
76.53888059033456
 10
-37.9686980021305
 20
78.09708337948177
  0
LWPOLYLINE
  5
34
330
17
100
AcDbEntity
  8
DISPLAY_CLEARANCE_CANDIDATE
100
AcDbPolyline
 90
4
 70
1
 10
-33.25
 20
1.5
 10
33.25
 20
1.5
 10
33.25
 20
122.3
 10
-33.25
 20
122.3
  0
ENDSEC
  0
SECTION
  2
OBJECTS
  0
DICTIONARY
  5
A
330
0
100
AcDbDictionary
281
1
  3
ACAD_COLOR
350
B
  3
ACAD_GROUP
350
C
  3
ACAD_LAYOUT
350
D
  3
ACAD_MATERIAL
350
E
  3
ACAD_MLEADERSTYLE
350
F
  3
ACAD_MLINESTYLE
350
10
  3
ACAD_PLOTSETTINGS
350
11
  3
ACAD_PLOTSTYLENAME
350
12
  3
ACAD_SCALELIST
350
14
  3
ACAD_TABLESTYLE
350
15
  3
ACAD_VISUALSTYLE
350
16
  3
EZDXF_META
350
2D
  0
DICTIONARY
  5
B
330
A
100
AcDbDictionary
281
1
  0
DICTIONARY
  5
C
330
A
100
AcDbDictionary
281
1
  0
DICTIONARY
  5
D
330
A
100
AcDbDictionary
281
1
  3
Model
350
1A
  3
Layout1
350
1E
  0
DICTIONARY
  5
E
330
A
100
AcDbDictionary
281
1
  3
ByBlock
350
1F
  3
ByLayer
350
20
  3
Global
350
21
  0
DICTIONARY
  5
F
330
A
100
AcDbDictionary
281
1
  3
Standard
350
2C
  0
DICTIONARY
  5
10
330
A
100
AcDbDictionary
281
1
  3
Standard
350
22
  0
DICTIONARY
  5
11
330
A
100
AcDbDictionary
281
1
  0
ACDBDICTIONARYWDFLT
  5
12
330
A
100
AcDbDictionary
281
1
  3
Normal
350
13
100
AcDbDictionaryWithDefault
340
13
  0
ACDBPLACEHOLDER
  5
13
330
12
  0
DICTIONARY
  5
14
330
A
100
AcDbDictionary
281
1
  0
DICTIONARY
  5
15
330
A
100
AcDbDictionary
281
1
  0
DICTIONARY
  5
16
330
A
100
AcDbDictionary
281
1
  0
LAYOUT
  5
1A
330
D
100
AcDbPlotSettings
  1

  4
A3
  6

 40
7.5
 41
20.0
 42
7.5
 43
20.0
 44
420.0
 45
297.0
 46
0.0
 47
0.0
 48
0.0
 49
0.0
140
0.0
141
0.0
142
1.0
143
1.0
 70
1024
 72
1
 73
0
 74
5
  7

 75
16
 76
0
 77
2
 78
300
147
1.0
148
0.0
149
0.0
100
AcDbLayout
  1
Model
 70
1
 71
0
 10
0.0
 20
0.0
 11
420.0
 21
297.0
 12
0.0
 22
0.0
 32
0.0
 14
1e+20
 24
1e+20
 34
1e+20
 15
-1e+20
 25
-1e+20
 35
-1e+20
146
0.0
 13
0.0
 23
0.0
 33
0.0
 16
1.0
 26
0.0
 36
0.0
 17
0.0
 27
1.0
 37
0.0
 76
1
330
17
  0
LAYOUT
  5
1E
330
D
100
AcDbPlotSettings
  1

  4
A3
  6

 40
7.5
 41
20.0
 42
7.5
 43
20.0
 44
420.0
 45
297.0
 46
0.0
 47
0.0
 48
0.0
 49
0.0
140
0.0
141
0.0
142
1.0
143
1.0
 70
0
 72
1
 73
0
 74
5
  7

 75
16
 76
0
 77
2
 78
300
147
1.0
148
0.0
149
0.0
100
AcDbLayout
  1
Layout1
 70
1
 71
1
 10
0.0
 20
0.0
 11
420.0
 21
297.0
 12
0.0
 22
0.0
 32
0.0
 14
1e+20
 24
1e+20
 34
1e+20
 15
-1e+20
 25
-1e+20
 35
-1e+20
146
0.0
 13
0.0
 23
0.0
 33
0.0
 16
1.0
 26
0.0
 36
0.0
 17
0.0
 27
1.0
 37
0.0
 76
1
330
1B
  0
MATERIAL
  5
1F
102
{ACAD_REACTORS
330
E
102
}
330
E
100
AcDbMaterial
  1
ByBlock
  2

 70
0
 40
1.0
 71
1
 41
1.0
 91
-1023410177
 42
1.0
 72
1
  3

 73
1
 74
1
 75
1
 44
0.5
 73
0
 45
1.0
 46
1.0
 77
1
  4

 78
1
 79
1
170
1
 48
1.0
171
1
  6

172
1
173
1
174
1
140
1.0
141
1.0
175
1
  7

176
1
177
1
178
1
143
1.0
179
1
  8

270
1
271
1
272
1
145
1.0
146
1.0
273
1
  9

274
1
275
1
276
1
 42
1.0
 72
1
  3

 73
1
 74
1
 75
1
 94
63
  0
MATERIAL
  5
20
102
{ACAD_REACTORS
330
E
102
}
330
E
100
AcDbMaterial
  1
ByLayer
  2

 70
0
 40
1.0
 71
1
 41
1.0
 91
-1023410177
 42
1.0
 72
1
  3

 73
1
 74
1
 75
1
 44
0.5
 73
0
 45
1.0
 46
1.0
 77
1
  4

 78
1
 79
1
170
1
 48
1.0
171
1
  6

172
1
173
1
174
1
140
1.0
141
1.0
175
1
  7

176
1
177
1
178
1
143
1.0
179
1
  8

270
1
271
1
272
1
145
1.0
146
1.0
273
1
  9

274
1
275
1
276
1
 42
1.0
 72
1
  3

 73
1
 74
1
 75
1
 94
63
  0
MATERIAL
  5
21
102
{ACAD_REACTORS
330
E
102
}
330
E
100
AcDbMaterial
  1
Global
  2

 70
0
 40
1.0
 71
1
 41
1.0
 91
-1023410177
 42
1.0
 72
1
  3

 73
1
 74
1
 75
1
 44
0.5
 73
0
 45
1.0
 46
1.0
 77
1
  4

 78
1
 79
1
170
1
 48
1.0
171
1
  6

172
1
173
1
174
1
140
1.0
141
1.0
175
1
  7

176
1
177
1
178
1
143
1.0
179
1
  8

270
1
271
1
272
1
145
1.0
146
1.0
273
1
  9

274
1
275
1
276
1
 42
1.0
 72
1
  3

 73
1
 74
1
 75
1
 94
63
  0
MLINESTYLE
  5
22
102
{ACAD_REACTORS
330
10
102
}
330
10
100
AcDbMlineStyle
  2
Standard
 70
0
  3

 62
256
 51
90.0
 52
90.0
 71
2
 49
0.5
 62
256
  6
BYLAYER
 49
-0.5
 62
256
  6
BYLAYER
  0
MLEADERSTYLE
  5
2C
102
{ACAD_REACTORS
330
F
102
}
330
F
100
AcDbMLeaderStyle
179
2
170
2
171
1
172
0
 90
2
 40
0.0
 41
0.0
173
1
 91
-1056964608
 92
-2
290
1
 42
2.0
291
1
 43
8.0
  3
Standard
 44
4.0
300

342
29
174
1
175
1
176
0
178
1
 93
-1056964608
 45
4.0
292
0
297
0
 46
4.0
 94
-1056964608
 47
1.0
 49
1.0
140
1.0
294
1
141
0.0
177
0
142
1.0
295
0
296
0
143
3.75
271
0
272
9
273
9
  0
DICTIONARY
  5
2D
330
A
100
AcDbDictionary
280
1
281
1
  3
CREATED_BY_EZDXF
350
2E
  3
WRITTEN_BY_EZDXF
350
37
  0
DICTIONARYVAR
  5
2E
330
2D
100
DictionaryVariables
280
0
  1
1.4.4 @ 2026-10-10T01:10:03.844869+00:00
  0
DICTIONARYVAR
  5
37
330
2D
100
DictionaryVariables
280
0
  1
1.4.4 @ 2026-10-10T01:10:03.847208+00:00
  0
ENDSEC
  0
EOF
